# 3ds Max Wavefront OBJ Exporter v0.97b - (c)2007 guruware
# File Created: 16.04.2016 16:34:43

mtllib button.mtl

#
# object button004
#

v  20.3861 8.4442 2.9876
v  15.6029 15.6029 2.9876
v  8.4442 20.3861 2.9876
v  -0.0000 22.0658 2.9876
v  -8.4442 20.3861 2.9876
v  -15.6029 15.6029 2.9876
v  -20.3861 8.4442 2.9876
v  -22.0658 0.0000 2.9876
v  -20.3861 -8.4442 2.9876
v  -15.6029 -15.6028 2.9876
v  -8.4442 -20.3861 2.9876
v  -0.0000 -22.0658 2.9876
v  8.4442 -20.3861 2.9876
v  15.6029 -15.6028 2.9876
v  20.3861 -8.4442 2.9876
v  22.0658 -0.0000 2.9876
v  27.8303 -0.0000 -0.0000
v  25.7119 10.6502 -0.0000
v  24.5247 10.1585 1.4938
v  26.5454 -0.0000 1.4938
v  19.6790 19.6790 0.0000
v  18.7704 18.7704 1.4938
v  10.6502 25.7119 0.0000
v  10.1585 24.5247 1.4938
v  -0.0000 27.8303 -0.0000
v  -0.0000 26.5454 1.4938
v  -10.6502 25.7119 -0.0000
v  -10.1585 24.5247 1.4938
v  -19.6790 19.6790 -0.0000
v  -18.7704 18.7704 1.4938
v  -25.7119 10.6502 -0.0000
v  -24.5247 10.1585 1.4938
v  -27.8303 0.0000 -0.0000
v  -26.5454 0.0000 1.4938
v  -25.7119 -10.6502 -0.0000
v  -24.5247 -10.1585 1.4938
v  -19.6790 -19.6790 -0.0000
v  -18.7704 -18.7704 1.4938
v  -10.6502 -25.7119 -0.0000
v  -10.1585 -24.5247 1.4938
v  -0.0000 -27.8303 -0.0000
v  -0.0000 -26.5454 1.4938
v  10.6502 -25.7119 -0.0000
v  10.1585 -24.5247 1.4938
v  19.6790 -19.6790 -0.0000
v  18.7704 -18.7704 1.4938
v  25.7119 -10.6502 -0.0000
v  24.5247 -10.1585 1.4938
# 48 vertices

vn 0.1659 0.0687 0.9837
vn 0.1270 0.1270 0.9837
vn 0.0687 0.1659 0.9837
vn -0.0000 0.1796 0.9837
vn -0.0687 0.1659 0.9837
vn -0.1270 0.1270 0.9837
vn -0.1660 0.0687 0.9837
vn -0.1796 -0.0000 0.9837
vn -0.1660 -0.0687 0.9837
vn -0.1270 -0.1270 0.9837
vn -0.0687 -0.1660 0.9837
vn -0.0000 -0.1796 0.9837
vn 0.0687 -0.1660 0.9837
vn 0.1270 -0.1270 0.9837
vn 0.1659 -0.0687 0.9837
vn 0.1796 -0.0000 0.9837
vn 0.7581 0.0000 0.6521
vn 0.7004 0.2901 0.6521
vn 0.5353 0.2217 0.8151
vn 0.5794 -0.0000 0.8151
vn 0.5361 0.5361 0.6521
vn 0.4097 0.4097 0.8151
vn 0.2901 0.7004 0.6521
vn 0.2217 0.5353 0.8151
vn -0.0000 0.7581 0.6521
vn -0.0000 0.5794 0.8151
vn -0.2901 0.7004 0.6521
vn -0.2217 0.5353 0.8151
vn -0.5361 0.5361 0.6521
vn -0.4097 0.4097 0.8151
vn -0.7004 0.2901 0.6521
vn -0.5353 0.2217 0.8151
vn -0.7581 0.0000 0.6521
vn -0.5794 -0.0000 0.8151
vn -0.7004 -0.2901 0.6521
vn -0.5353 -0.2217 0.8151
vn -0.5361 -0.5361 0.6521
vn -0.4097 -0.4097 0.8151
vn -0.2901 -0.7004 0.6521
vn -0.2217 -0.5353 0.8151
vn 0.0000 -0.7581 0.6521
vn -0.0000 -0.5794 0.8151
vn 0.2901 -0.7004 0.6521
vn 0.2217 -0.5353 0.8151
vn 0.5361 -0.5361 0.6521
vn 0.4097 -0.4097 0.8151
vn 0.7004 -0.2901 0.6521
vn 0.5353 -0.2217 0.8151
# 48 vertex normals

vt 0.8004 0.3917 0.0000
vt 0.8744 0.4651 0.0000
vt 0.9146 0.5611 0.0000
vt 0.9150 0.6653 0.0000
vt 0.8755 0.7617 0.0000
vt 0.8022 0.8356 0.0000
vt 0.7061 0.8758 0.0000
vt 0.6020 0.8762 0.0000
vt 0.5056 0.8368 0.0000
vt 0.4317 0.7634 0.0000
vt 0.3914 0.6674 0.0000
vt 0.3910 0.5632 0.0000
vt 0.4305 0.4668 0.0000
vt 0.5038 0.3929 0.0000
vt 0.5999 0.3526 0.0000
vt 0.7040 0.3522 0.0000
vt 0.1675 0.8665 0.0000
vt 0.3151 0.8665 0.0000
vt 0.3082 0.8872 0.0000
vt 0.1675 0.8872 0.0000
vt 0.6522 0.2493 0.0000
vt 0.5214 0.2642 0.0000
vt 0.5217 0.2403 0.0000
vt 0.6465 0.2261 0.0000
vt 0.3968 0.2458 0.0000
vt 0.4029 0.2227 0.0000
vt 0.3754 0.1441 0.0000
vt 0.5230 0.1441 0.0000
vt 0.5230 0.1648 0.0000
vt 0.3823 0.1648 0.0000
vt 0.6705 0.1441 0.0000
vt 0.6637 0.1648 0.0000
vt 0.9800 0.0465 0.0000
vt 0.8491 0.0615 0.0000
vt 0.8495 0.0376 0.0000
vt 0.9743 0.0233 0.0000
vt 0.7246 0.0430 0.0000
vt 0.7306 0.0200 0.0000
vt 0.3754 0.0428 0.0000
vt 0.5230 0.0428 0.0000
vt 0.5230 0.0635 0.0000
vt 0.3823 0.0635 0.0000
vt 0.6705 0.0428 0.0000
vt 0.6637 0.0635 0.0000
vt 0.9800 0.1479 0.0000
vt 0.8491 0.1629 0.0000
vt 0.8495 0.1390 0.0000
vt 0.9743 0.1247 0.0000
vt 0.7246 0.1444 0.0000
vt 0.7306 0.1214 0.0000
vt 0.0200 0.9287 0.0000
vt 0.1675 0.9287 0.0000
vt 0.1675 0.9494 0.0000
vt 0.0268 0.9494 0.0000
vt 0.3151 0.9287 0.0000
vt 0.3082 0.9494 0.0000
vt 0.9800 0.2493 0.0000
vt 0.8491 0.2642 0.0000
vt 0.8495 0.2403 0.0000
vt 0.9743 0.2261 0.0000
vt 0.7246 0.2458 0.0000
vt 0.7306 0.2227 0.0000
vt 0.0200 0.8665 0.0000
vt 0.0268 0.8872 0.0000
vt 0.7144 0.2990 0.0000
vt 0.8304 0.3465 0.0000
vt 0.9193 0.4348 0.0000
vt 0.9677 0.5503 0.0000
vt 0.9682 0.6756 0.0000
vt 0.9207 0.7916 0.0000
vt 0.8325 0.8805 0.0000
vt 0.7169 0.9289 0.0000
vt 0.5916 0.9294 0.0000
vt 0.4757 0.8819 0.0000
vt 0.3867 0.7937 0.0000
vt 0.3383 0.6781 0.0000
vt 0.3378 0.5528 0.0000
vt 0.3853 0.4369 0.0000
vt 0.4735 0.3479 0.0000
vt 0.5891 0.2995 0.0000
# 80 texture coords

g button004
usemtl wire_006135058
s 1
f 1/1/1 2/2/2 3/3/3 
f 3/3/3 4/4/4 5/5/5 
f 5/5/5 6/6/6 7/7/7 
f 3/3/3 5/5/5 7/7/7 
f 7/7/7 8/8/8 9/9/9 
f 9/9/9 10/10/10 11/11/11 
f 7/7/7 9/9/9 11/11/11 
f 11/11/11 12/12/12 13/13/13 
f 13/13/13 14/14/14 15/15/15 
f 11/11/11 13/13/13 15/15/15 
f 7/7/7 11/11/11 15/15/15 
f 3/3/3 7/7/7 15/15/15 
f 1/1/1 3/3/3 15/15/15 
f 16/16/16 1/1/1 15/15/15 
f 17/17/17 18/18/18 19/19/19 
f 19/19/19 20/20/20 17/17/17 
f 18/21/18 21/22/21 22/23/22 
f 22/23/22 19/24/19 18/21/18 
f 21/22/21 23/25/23 24/26/24 
f 24/26/24 22/23/22 21/22/21 
f 23/27/23 25/28/25 26/29/26 
f 26/29/26 24/30/24 23/27/23 
f 25/28/25 27/31/27 28/32/28 
f 28/32/28 26/29/26 25/28/25 
f 27/33/27 29/34/29 30/35/30 
f 30/35/30 28/36/28 27/33/27 
f 29/34/29 31/37/31 32/38/32 
f 32/38/32 30/35/30 29/34/29 
f 31/39/31 33/40/33 34/41/34 
f 34/41/34 32/42/32 31/39/31 
f 33/40/33 35/43/35 36/44/36 
f 36/44/36 34/41/34 33/40/33 
f 35/45/35 37/46/37 38/47/38 
f 38/47/38 36/48/36 35/45/35 
f 37/46/37 39/49/39 40/50/40 
f 40/50/40 38/47/38 37/46/37 
f 39/51/39 41/52/41 42/53/42 
f 42/53/42 40/54/40 39/51/39 
f 41/52/41 43/55/43 44/56/44 
f 44/56/44 42/53/42 41/52/41 
f 43/57/43 45/58/45 46/59/46 
f 46/59/46 44/60/44 43/57/43 
f 45/58/45 47/61/47 48/62/48 
f 48/62/48 46/59/46 45/58/45 
f 47/63/47 17/17/17 20/20/20 
f 20/20/20 48/64/48 47/63/47 
f 20/65/20 19/66/19 1/1/1 
f 1/1/1 16/16/16 20/65/20 
f 19/66/19 22/67/22 2/2/2 
f 2/2/2 1/1/1 19/66/19 
f 22/67/22 24/68/24 3/3/3 
f 3/3/3 2/2/2 22/67/22 
f 24/68/24 26/69/26 4/4/4 
f 4/4/4 3/3/3 24/68/24 
f 26/69/26 28/70/28 5/5/5 
f 5/5/5 4/4/4 26/69/26 
f 28/70/28 30/71/30 6/6/6 
f 6/6/6 5/5/5 28/70/28 
f 30/71/30 32/72/32 7/7/7 
f 7/7/7 6/6/6 30/71/30 
f 32/72/32 34/73/34 8/8/8 
f 8/8/8 7/7/7 32/72/32 
f 34/73/34 36/74/36 9/9/9 
f 9/9/9 8/8/8 34/73/34 
f 36/74/36 38/75/38 10/10/10 
f 10/10/10 9/9/9 36/74/36 
f 38/75/38 40/76/40 11/11/11 
f 11/11/11 10/10/10 38/75/38 
f 40/76/40 42/77/42 12/12/12 
f 12/12/12 11/11/11 40/76/40 
f 42/77/42 44/78/44 13/13/13 
f 13/13/13 12/12/12 42/77/42 
f 44/78/44 46/79/46 14/14/14 
f 14/14/14 13/13/13 44/78/44 
f 46/79/46 48/80/48 15/15/15 
f 15/15/15 14/14/14 46/79/46 
f 48/80/48 20/65/20 16/16/16 
f 16/16/16 15/15/15 48/80/48 
# 78 faces

