# 3ds Max Wavefront OBJ Exporter v0.97b - (c)2007 guruware
# File Created: 16.04.2016 16:16:09

mtllib pole.mtl

#
# object Cylinder001
#

v  -0.2450 24.2776 -3.5839
v  -2.2450 24.2776 -3.0480
v  -2.2450 64.8472 -3.0480
v  -0.2450 64.8472 -3.5839
v  -3.7091 24.2776 -1.5839
v  -3.7091 64.8472 -1.5839
v  -4.2450 24.2776 0.4161
v  -4.2450 64.8472 0.4161
v  -3.7091 24.2776 2.4161
v  -3.7091 64.8472 2.4161
v  -2.2450 24.2776 3.8802
v  -2.2450 64.8472 3.8802
v  -0.2450 24.2776 4.4161
v  -0.2450 64.8472 4.4161
v  1.7550 24.2776 3.8802
v  1.7550 64.8472 3.8802
v  3.2191 24.2776 2.4161
v  3.2191 64.8472 2.4161
v  3.7550 24.2776 0.4161
v  3.7550 64.8472 0.4161
v  3.2191 24.2776 -1.5839
v  3.2191 64.8472 -1.5839
v  1.7550 24.2776 -3.0480
v  1.7550 64.8472 -3.0480
v  -2.2450 129.6945 -3.0480
v  -0.2450 129.6945 -3.5839
v  -3.7091 129.6945 -1.5839
v  -4.2450 129.6945 0.4161
v  -3.7091 129.6945 2.4161
v  -2.2450 129.6945 3.8802
v  -0.2450 129.6945 4.4161
v  1.7550 129.6945 3.8802
v  3.2191 129.6945 2.4161
v  3.7550 129.6945 0.4161
v  3.2191 129.6945 -1.5839
v  1.7550 129.6945 -3.0480
v  -2.2450 194.5417 -3.0480
v  -0.2450 194.5417 -3.5839
v  -3.7091 194.5417 -1.5839
v  -4.2450 194.5417 0.4161
v  -3.7091 194.5417 2.4161
v  -2.2450 194.5417 3.8802
v  -0.2450 194.5417 4.4161
v  1.7550 194.5417 3.8802
v  3.2191 194.5417 2.4161
v  3.7550 194.5417 0.4161
v  3.2191 194.5417 -1.5839
v  1.7550 194.5417 -3.0480
v  -2.2450 259.3890 -3.0480
v  -0.2450 259.3890 -3.5839
v  -3.7091 259.3890 -1.5839
v  -4.2450 259.3890 0.4161
v  -3.7091 259.3890 2.4161
v  -2.2450 259.3890 3.8802
v  -0.2450 259.3890 4.4161
v  1.7550 259.3890 3.8802
v  3.2191 259.3890 2.4161
v  3.7550 259.3890 0.4161
v  3.2191 259.3890 -1.5839
v  1.7550 259.3890 -3.0480
v  5.8654 0.0000 -3.1118
v  6.8107 0.0000 0.4161
v  5.8654 0.0000 3.9440
v  3.2828 0.0000 6.5265
v  -0.2450 0.0000 7.4718
v  -3.7729 0.0000 6.5265
v  -6.3555 0.0000 3.9440
v  -7.3008 0.0000 0.4161
v  -6.3555 0.0000 -3.1118
v  -3.7729 0.0000 -5.6944
v  -0.2450 0.0000 -6.6397
v  3.2828 0.0000 -5.6944
v  -0.2450 24.2776 -6.6397
v  -3.7729 24.2776 -5.6944
v  3.2828 24.2776 -5.6944
v  5.8654 24.2776 -3.1118
v  6.8107 24.2776 0.4161
v  5.8654 24.2776 3.9440
v  3.2828 24.2776 6.5265
v  -0.2450 24.2776 7.4718
v  -3.7729 24.2776 6.5265
v  -6.3555 24.2776 3.9440
v  -7.3008 24.2776 0.4161
v  -6.3555 24.2776 -3.1118
# 84 vertices

vn -0.0000 0.0000 -1.0000
vn -0.5000 0.0000 -0.8660
vn -0.8660 0.0000 -0.5000
vn -1.0000 0.0000 0.0000
vn -0.8660 0.0000 0.5000
vn -0.5000 0.0000 0.8660
vn 0.0000 0.0000 1.0000
vn 0.5000 0.0000 0.8660
vn 0.8660 0.0000 0.5000
vn 1.0000 0.0000 -0.0000
vn 0.8660 0.0000 -0.5000
vn 0.5000 0.0000 -0.8660
vn 0.0000 -1.0000 -0.0000
vn 0.0000 1.0000 -0.0000
# 14 vertex normals

vt 0.9681 0.1091 0.0000
vt 0.9681 0.1170 0.0000
vt 0.8065 0.1170 0.0000
vt 0.8065 0.1091 0.0000
vt 0.9681 0.1229 0.0000
vt 0.8065 0.1229 0.0000
vt 0.9467 0.0200 0.0000
vt 0.9467 0.0276 0.0000
vt 0.7925 0.0276 0.0000
vt 0.7925 0.0200 0.0000
vt 0.9467 0.0352 0.0000
vt 0.7925 0.0352 0.0000
vt 0.9800 0.1443 0.0000
vt 0.9800 0.1503 0.0000
vt 0.8143 0.1503 0.0000
vt 0.8143 0.1443 0.0000
vt 0.9800 0.1585 0.0000
vt 0.8143 0.1585 0.0000
vt 0.9800 0.1666 0.0000
vt 0.8143 0.1666 0.0000
vt 0.9800 0.1726 0.0000
vt 0.8143 0.1726 0.0000
vt 0.9681 0.0575 0.0000
vt 0.9681 0.0655 0.0000
vt 0.8065 0.0655 0.0000
vt 0.8065 0.0575 0.0000
vt 0.9681 0.0734 0.0000
vt 0.8065 0.0734 0.0000
vt 0.9681 0.0792 0.0000
vt 0.8065 0.0792 0.0000
vt 0.9681 0.1011 0.0000
vt 0.8065 0.1011 0.0000
vt 0.5483 0.1170 0.0000
vt 0.5483 0.1091 0.0000
vt 0.5483 0.1229 0.0000
vt 0.5461 0.0276 0.0000
vt 0.5461 0.0200 0.0000
vt 0.5461 0.0352 0.0000
vt 0.5496 0.1503 0.0000
vt 0.5496 0.1443 0.0000
vt 0.5496 0.1585 0.0000
vt 0.5496 0.1666 0.0000
vt 0.5496 0.1726 0.0000
vt 0.5483 0.0655 0.0000
vt 0.5483 0.0575 0.0000
vt 0.5483 0.0734 0.0000
vt 0.5483 0.0792 0.0000
vt 0.5483 0.1011 0.0000
vt 0.2901 0.1170 0.0000
vt 0.2901 0.1091 0.0000
vt 0.2901 0.1229 0.0000
vt 0.2997 0.0276 0.0000
vt 0.2997 0.0200 0.0000
vt 0.2997 0.0352 0.0000
vt 0.2848 0.1503 0.0000
vt 0.2848 0.1443 0.0000
vt 0.2848 0.1585 0.0000
vt 0.2848 0.1666 0.0000
vt 0.2848 0.1726 0.0000
vt 0.2901 0.0655 0.0000
vt 0.2901 0.0575 0.0000
vt 0.2901 0.0734 0.0000
vt 0.2901 0.0792 0.0000
vt 0.2901 0.1011 0.0000
vt 0.0319 0.1170 0.0000
vt 0.0319 0.1091 0.0000
vt 0.0319 0.1229 0.0000
vt 0.0533 0.0276 0.0000
vt 0.0533 0.0200 0.0000
vt 0.0533 0.0352 0.0000
vt 0.0200 0.1503 0.0000
vt 0.0200 0.1443 0.0000
vt 0.0200 0.1585 0.0000
vt 0.0200 0.1666 0.0000
vt 0.0200 0.1726 0.0000
vt 0.0319 0.0655 0.0000
vt 0.0319 0.0575 0.0000
vt 0.0319 0.0734 0.0000
vt 0.0319 0.0792 0.0000
vt 0.0319 0.1011 0.0000
vt 0.0732 0.2167 0.0000
vt 0.0731 0.2303 0.0000
vt 0.0662 0.2421 0.0000
vt 0.0544 0.2488 0.0000
vt 0.0407 0.2487 0.0000
vt 0.0290 0.2418 0.0000
vt 0.0222 0.2300 0.0000
vt 0.0223 0.2163 0.0000
vt 0.0292 0.2046 0.0000
vt 0.0411 0.1978 0.0000
vt 0.0547 0.1979 0.0000
vt 0.0665 0.2048 0.0000
vt 0.1001 0.2212 0.0000
vt 0.1068 0.2251 0.0000
vt 0.1107 0.2317 0.0000
vt 0.1107 0.2395 0.0000
vt 0.1069 0.2462 0.0000
vt 0.1002 0.2501 0.0000
vt 0.0925 0.2501 0.0000
vt 0.0858 0.2463 0.0000
vt 0.0819 0.2396 0.0000
vt 0.0818 0.2319 0.0000
vt 0.0857 0.2252 0.0000
vt 0.0923 0.2213 0.0000
vt 0.1450 0.2127 0.0000
vt 0.1410 0.2194 0.0000
vt 0.1300 0.2163 0.0000
vt 0.1369 0.2046 0.0000
vt 0.1410 0.2271 0.0000
vt 0.1299 0.2300 0.0000
vt 0.1448 0.2338 0.0000
vt 0.1367 0.2418 0.0000
vt 0.1515 0.2377 0.0000
vt 0.1484 0.2487 0.0000
vt 0.1592 0.2378 0.0000
vt 0.1621 0.2488 0.0000
vt 0.1659 0.2340 0.0000
vt 0.1739 0.2421 0.0000
vt 0.1698 0.2273 0.0000
vt 0.1808 0.2303 0.0000
vt 0.1699 0.2196 0.0000
vt 0.1809 0.2167 0.0000
vt 0.1661 0.2129 0.0000
vt 0.1742 0.2048 0.0000
vt 0.1594 0.2089 0.0000
vt 0.1624 0.1979 0.0000
vt 0.1517 0.2089 0.0000
vt 0.1488 0.1978 0.0000
vt 0.0899 0.2602 0.0000
vt 0.1039 0.2602 0.0000
vt 0.1039 0.3568 0.0000
vt 0.0899 0.3568 0.0000
vt 0.1180 0.2602 0.0000
vt 0.1180 0.3568 0.0000
vt 0.1284 0.2602 0.0000
vt 0.1387 0.2602 0.0000
vt 0.1387 0.3568 0.0000
vt 0.1284 0.3568 0.0000
vt 0.1528 0.2602 0.0000
vt 0.1528 0.3568 0.0000
vt 0.1668 0.2602 0.0000
vt 0.1668 0.3568 0.0000
vt 0.0200 0.2589 0.0000
vt 0.0305 0.2589 0.0000
vt 0.0305 0.3581 0.0000
vt 0.0200 0.3581 0.0000
vt 0.0450 0.2589 0.0000
vt 0.0450 0.3581 0.0000
vt 0.0594 0.2589 0.0000
vt 0.0594 0.3581 0.0000
vt 0.0699 0.2589 0.0000
vt 0.0699 0.3581 0.0000
vt 0.1780 0.2624 0.0000
vt 0.1914 0.2624 0.0000
vt 0.1914 0.3546 0.0000
vt 0.1780 0.3546 0.0000
vt 0.2048 0.2624 0.0000
vt 0.2048 0.3546 0.0000
vt 0.0796 0.2602 0.0000
vt 0.0796 0.3568 0.0000
# 160 texture coords

g Cylinder001
usemtl wire_006135058
s 1
f 1/1/1 2/2/2 3/3/2 
f 3/3/2 4/4/1 1/1/1 
f 2/2/2 5/5/3 6/6/3 
f 6/6/3 3/3/2 2/2/2 
f 5/7/3 7/8/4 8/9/4 
f 8/9/4 6/10/3 5/7/3 
f 7/8/4 9/11/5 10/12/5 
f 10/12/5 8/9/4 7/8/4 
f 9/13/5 11/14/6 12/15/6 
f 12/15/6 10/16/5 9/13/5 
f 11/14/6 13/17/7 14/18/7 
f 14/18/7 12/15/6 11/14/6 
f 13/17/7 15/19/8 16/20/8 
f 16/20/8 14/18/7 13/17/7 
f 15/19/8 17/21/9 18/22/9 
f 18/22/9 16/20/8 15/19/8 
f 17/23/9 19/24/10 20/25/10 
f 20/25/10 18/26/9 17/23/9 
f 19/24/10 21/27/11 22/28/11 
f 22/28/11 20/25/10 19/24/10 
f 21/27/11 23/29/12 24/30/12 
f 24/30/12 22/28/11 21/27/11 
f 23/31/12 1/1/1 4/4/1 
f 4/4/1 24/32/12 23/31/12 
f 4/4/1 3/3/2 25/33/2 
f 25/33/2 26/34/1 4/4/1 
f 3/3/2 6/6/3 27/35/3 
f 27/35/3 25/33/2 3/3/2 
f 6/10/3 8/9/4 28/36/4 
f 28/36/4 27/37/3 6/10/3 
f 8/9/4 10/12/5 29/38/5 
f 29/38/5 28/36/4 8/9/4 
f 10/16/5 12/15/6 30/39/6 
f 30/39/6 29/40/5 10/16/5 
f 12/15/6 14/18/7 31/41/7 
f 31/41/7 30/39/6 12/15/6 
f 14/18/7 16/20/8 32/42/8 
f 32/42/8 31/41/7 14/18/7 
f 16/20/8 18/22/9 33/43/9 
f 33/43/9 32/42/8 16/20/8 
f 18/26/9 20/25/10 34/44/10 
f 34/44/10 33/45/9 18/26/9 
f 20/25/10 22/28/11 35/46/11 
f 35/46/11 34/44/10 20/25/10 
f 22/28/11 24/30/12 36/47/12 
f 36/47/12 35/46/11 22/28/11 
f 24/32/12 4/4/1 26/34/1 
f 26/34/1 36/48/12 24/32/12 
f 26/34/1 25/33/2 37/49/2 
f 37/49/2 38/50/1 26/34/1 
f 25/33/2 27/35/3 39/51/3 
f 39/51/3 37/49/2 25/33/2 
f 27/37/3 28/36/4 40/52/4 
f 40/52/4 39/53/3 27/37/3 
f 28/36/4 29/38/5 41/54/5 
f 41/54/5 40/52/4 28/36/4 
f 29/40/5 30/39/6 42/55/6 
f 42/55/6 41/56/5 29/40/5 
f 30/39/6 31/41/7 43/57/7 
f 43/57/7 42/55/6 30/39/6 
f 31/41/7 32/42/8 44/58/8 
f 44/58/8 43/57/7 31/41/7 
f 32/42/8 33/43/9 45/59/9 
f 45/59/9 44/58/8 32/42/8 
f 33/45/9 34/44/10 46/60/10 
f 46/60/10 45/61/9 33/45/9 
f 34/44/10 35/46/11 47/62/11 
f 47/62/11 46/60/10 34/44/10 
f 35/46/11 36/47/12 48/63/12 
f 48/63/12 47/62/11 35/46/11 
f 36/48/12 26/34/1 38/50/1 
f 38/50/1 48/64/12 36/48/12 
f 38/50/1 37/49/2 49/65/2 
f 49/65/2 50/66/1 38/50/1 
f 37/49/2 39/51/3 51/67/3 
f 51/67/3 49/65/2 37/49/2 
f 39/53/3 40/52/4 52/68/4 
f 52/68/4 51/69/3 39/53/3 
f 40/52/4 41/54/5 53/70/5 
f 53/70/5 52/68/4 40/52/4 
f 41/56/5 42/55/6 54/71/6 
f 54/71/6 53/72/5 41/56/5 
f 42/55/6 43/57/7 55/73/7 
f 55/73/7 54/71/6 42/55/6 
f 43/57/7 44/58/8 56/74/8 
f 56/74/8 55/73/7 43/57/7 
f 44/58/8 45/59/9 57/75/9 
f 57/75/9 56/74/8 44/58/8 
f 45/61/9 46/60/10 58/76/10 
f 58/76/10 57/77/9 45/61/9 
f 46/60/10 47/62/11 59/78/11 
f 59/78/11 58/76/10 46/60/10 
f 47/62/11 48/63/12 60/79/12 
f 60/79/12 59/78/11 47/62/11 
f 48/64/12 38/50/1 50/66/1 
f 50/66/1 60/80/12 48/64/12 
f 61/81/13 62/82/13 63/83/13 
f 63/83/13 64/84/13 65/85/13 
f 65/85/13 66/86/13 67/87/13 
f 63/83/13 65/85/13 67/87/13 
f 67/87/13 68/88/13 69/89/13 
f 69/89/13 70/90/13 71/91/13 
f 67/87/13 69/89/13 71/91/13 
f 63/83/13 67/87/13 71/91/13 
f 61/81/13 63/83/13 71/91/13 
f 72/92/13 61/81/13 71/91/13 
s 2
f 49/93/14 51/94/14 52/95/14 
f 52/95/14 53/96/14 54/97/14 
f 54/97/14 55/98/14 56/99/14 
f 52/95/14 54/97/14 56/99/14 
f 56/99/14 57/100/14 58/101/14 
f 58/101/14 59/102/14 60/103/14 
f 56/99/14 58/101/14 60/103/14 
f 52/95/14 56/99/14 60/103/14 
f 49/93/14 52/95/14 60/103/14 
f 50/104/14 49/93/14 60/103/14 
f 2/105/14 1/106/14 73/107/14 
f 73/107/14 74/108/14 2/105/14 
f 1/106/14 23/109/14 75/110/14 
f 75/110/14 73/107/14 1/106/14 
f 23/109/14 21/111/14 76/112/14 
f 76/112/14 75/110/14 23/109/14 
f 21/111/14 19/113/14 77/114/14 
f 77/114/14 76/112/14 21/111/14 
f 19/113/14 17/115/14 78/116/14 
f 78/116/14 77/114/14 19/113/14 
f 17/115/14 15/117/14 79/118/14 
f 79/118/14 78/116/14 17/115/14 
f 15/117/14 13/119/14 80/120/14 
f 80/120/14 79/118/14 15/117/14 
f 13/119/14 11/121/14 81/122/14 
f 81/122/14 80/120/14 13/119/14 
f 11/121/14 9/123/14 82/124/14 
f 82/124/14 81/122/14 11/121/14 
f 9/123/14 7/125/14 83/126/14 
f 83/126/14 82/124/14 9/123/14 
f 7/125/14 5/127/14 84/128/14 
f 84/128/14 83/126/14 7/125/14 
f 5/127/14 2/105/14 74/108/14 
f 74/108/14 84/128/14 5/127/14 
s 4
f 74/129/2 73/130/1 71/131/1 
f 71/131/1 70/132/2 74/129/2 
f 73/130/1 75/133/12 72/134/12 
f 72/134/12 71/131/1 73/130/1 
f 75/135/12 76/136/11 61/137/11 
f 61/137/11 72/138/12 75/135/12 
f 76/136/11 77/139/10 62/140/10 
f 62/140/10 61/137/11 76/136/11 
f 77/139/10 78/141/9 63/142/9 
f 63/142/9 62/140/10 77/139/10 
f 78/143/9 79/144/8 64/145/8 
f 64/145/8 63/146/9 78/143/9 
f 79/144/8 80/147/7 65/148/7 
f 65/148/7 64/145/8 79/144/8 
f 80/147/7 81/149/6 66/150/6 
f 66/150/6 65/148/7 80/147/7 
f 81/149/6 82/151/5 67/152/5 
f 67/152/5 66/150/6 81/149/6 
f 82/153/5 83/154/4 68/155/4 
f 68/155/4 67/156/5 82/153/5 
f 83/154/4 84/157/3 69/158/3 
f 69/158/3 68/155/4 83/154/4 
f 84/159/3 74/129/2 70/132/2 
f 70/132/2 69/160/3 84/159/3 
# 164 faces

