# 3ds Max Wavefront OBJ Exporter v0.97b - (c)2007 guruware
# File Created: 24.10.2015 19:30:58

mtllib deck.mtl

#
# object deck
#

v  18.5638 -0.0000 -28.2363
v  19.3780 -0.0000 -27.8990
v  19.9246 -0.0000 -27.3525
v  20.2618 -0.0000 -26.5382
v  20.2618 -0.0000 26.5382
v  19.9246 -0.0000 27.3525
v  19.3780 -0.0000 27.8990
v  18.5638 -0.0000 28.2363
v  -18.5638 -0.0000 28.2363
v  -19.3780 -0.0000 27.8990
v  -19.9245 -0.0000 27.3525
v  -20.2618 -0.0000 26.5382
v  -20.2618 -0.0000 -26.5382
v  -19.9246 -0.0000 -27.3525
v  -19.3780 -0.0000 -27.8990
v  -18.5638 -0.0000 -28.2363
v  -18.5638 0.8000 -28.2363
v  18.5638 0.8000 -28.2363
v  -19.3780 0.8000 -27.8990
v  -19.9246 0.8000 -27.3525
v  -20.2618 0.8000 -26.5382
v  -20.2618 0.8000 26.5382
v  -19.9245 0.8000 27.3525
v  -19.3780 0.8000 27.8990
v  -18.5638 0.8000 28.2363
v  18.5638 0.8000 28.2363
v  19.3780 0.8000 27.8990
v  19.9246 0.8000 27.3525
v  20.2618 0.8000 26.5382
v  20.2618 0.8000 -26.5382
v  19.9246 0.8000 -27.3525
v  19.3780 0.8000 -27.8990
v  -19.3780 7.2000 -27.8990
v  -19.9246 7.2000 -27.3525
v  -20.2618 7.2000 -26.5382
v  -20.2618 7.2000 26.5382
v  -19.9245 7.2000 27.3525
v  -19.3780 7.2000 27.8990
v  -18.5638 7.2000 28.2363
v  18.5638 7.2000 28.2363
v  19.3780 7.2000 27.8990
v  19.9246 7.2000 27.3525
v  20.2618 7.2000 26.5382
v  20.2618 7.2000 -26.5382
v  19.9246 7.2000 -27.3525
v  19.3780 7.2000 -27.8990
v  18.5638 7.2000 -28.2363
v  -18.5638 7.2000 -28.2363
v  -18.5638 1.6000 -28.2363
v  18.5638 1.6000 -28.2363
v  -19.3780 1.6000 -27.8990
v  -19.9246 1.6000 -27.3525
v  -20.2618 1.6000 -26.5382
v  -20.2618 1.6000 26.5382
v  -19.9245 1.6000 27.3525
v  -19.3780 1.6000 27.8990
v  -18.5638 1.6000 28.2363
v  18.5638 1.6000 28.2363
v  19.3780 1.6000 27.8990
v  19.9246 1.6000 27.3525
v  20.2618 1.6000 26.5382
v  20.2618 1.6000 -26.5382
v  19.9246 1.6000 -27.3525
v  19.3780 1.6000 -27.8990
v  -18.5638 2.4000 -28.2363
v  18.5638 2.4000 -28.2363
v  -19.3780 2.4000 -27.8990
v  -19.9246 2.4000 -27.3525
v  -20.2618 2.4000 -26.5382
v  -20.2618 2.4000 26.5382
v  -19.9245 2.4000 27.3525
v  -19.3780 2.4000 27.8990
v  -18.5638 2.4000 28.2363
v  18.5638 2.4000 28.2363
v  19.3780 2.4000 27.8990
v  19.9246 2.4000 27.3525
v  20.2618 2.4000 26.5382
v  20.2618 2.4000 -26.5382
v  19.9246 2.4000 -27.3525
v  19.3780 2.4000 -27.8990
v  -18.5638 3.2000 -28.2363
v  18.5638 3.2000 -28.2363
v  -19.3780 3.2000 -27.8990
v  -19.9246 3.2000 -27.3525
v  -20.2618 3.2000 -26.5382
v  -20.2618 3.2000 26.5382
v  -19.9245 3.2000 27.3525
v  -19.3780 3.2000 27.8990
v  -18.5638 3.2000 28.2363
v  18.5638 3.2000 28.2363
v  19.3780 3.2000 27.8990
v  19.9246 3.2000 27.3525
v  20.2618 3.2000 26.5382
v  20.2618 3.2000 -26.5382
v  19.9246 3.2000 -27.3525
v  19.3780 3.2000 -27.8990
v  18.5638 4.8000 -28.2363
v  -18.5638 4.8000 -28.2363
v  -18.5638 5.6000 -28.2363
v  18.5638 5.6000 -28.2363
v  -19.3780 4.8000 -27.8990
v  -19.3780 5.6000 -27.8990
v  -19.9246 4.8000 -27.3525
v  -19.9246 5.6000 -27.3525
v  -20.2618 4.8000 -26.5382
v  -20.2618 5.6000 -26.5382
v  -20.2618 4.8000 26.5382
v  -20.2618 5.6000 26.5382
v  -19.9245 4.8000 27.3525
v  -19.9245 5.6000 27.3525
v  -19.3780 4.8000 27.8990
v  -19.3780 5.6000 27.8990
v  -18.5638 4.8000 28.2363
v  -18.5638 5.6000 28.2363
v  18.5638 4.8000 28.2363
v  18.5638 5.6000 28.2363
v  19.3780 4.8000 27.8990
v  19.3780 5.6000 27.8990
v  19.9246 4.8000 27.3525
v  19.9246 5.6000 27.3525
v  20.2618 4.8000 26.5382
v  20.2618 5.6000 26.5382
v  20.2618 4.8000 -26.5382
v  20.2618 5.6000 -26.5382
v  19.9246 4.8000 -27.3525
v  19.9246 5.6000 -27.3525
v  19.3780 4.8000 -27.8990
v  19.3780 5.6000 -27.8990
v  18.5638 6.4000 -28.2363
v  -18.5638 6.4000 -28.2363
v  -19.3780 6.4000 -27.8990
v  -19.9246 6.4000 -27.3525
v  -20.2618 6.4000 -26.5382
v  -20.2618 6.4000 26.5382
v  -19.9245 6.4000 27.3525
v  -19.3780 6.4000 27.8990
v  -18.5638 6.4000 28.2363
v  18.5638 6.4000 28.2363
v  19.3780 6.4000 27.8990
v  19.9246 6.4000 27.3525
v  20.2618 6.4000 26.5382
v  20.2618 6.4000 -26.5382
v  19.9246 6.4000 -27.3525
v  19.3780 6.4000 -27.8990
v  18.5638 4.0000 -28.2363
v  -18.5638 4.0000 -28.2363
v  -19.3780 4.0000 -27.8990
v  -19.9246 4.0000 -27.3525
v  -20.2618 4.0000 -26.5382
v  -20.2618 4.0000 26.5382
v  -19.9245 4.0000 27.3525
v  -19.3780 4.0000 27.8990
v  -18.5638 4.0000 28.2363
v  18.5638 4.0000 28.2363
v  19.3780 4.0000 27.8990
v  19.9246 4.0000 27.3525
v  20.2618 4.0000 26.5382
v  20.2618 4.0000 -26.5382
v  19.9246 4.0000 -27.3525
v  19.3780 4.0000 -27.8990
# 160 vertices

vn 0.0000 -1.0000 -0.0000
vn 0.0000 0.0000 -1.0000
vn -0.3827 0.0000 -0.9239
vn -0.7071 0.0000 -0.7071
vn -0.9239 0.0000 -0.3827
vn -1.0000 0.0000 -0.0000
vn -1.0000 0.0000 0.0000
vn -0.9239 0.0000 0.3827
vn -0.7071 0.0000 0.7071
vn -0.3827 0.0000 0.9239
vn 0.0000 0.0000 1.0000
vn 0.3827 -0.0000 0.9239
vn 0.7071 0.0000 0.7071
vn 0.7071 -0.0000 0.7071
vn 0.9239 0.0000 0.3827
vn 1.0000 0.0000 -0.0000
vn 0.9239 0.0000 -0.3827
vn 0.7071 0.0000 -0.7071
vn 0.3827 -0.0000 -0.9239
vn 0.3827 0.0000 -0.9239
vn 0.0000 1.0000 -0.0000
vn 0.3827 0.0000 0.9239
vn -0.7071 -0.0000 -0.7071
vn -0.9239 -0.0000 -0.3827
vn -1.0000 -0.0000 0.0000
vn 0.9239 -0.0000 -0.3827
vn 0.7071 -0.0000 -0.7071
# 27 vertex normals

vt 0.0611 0.9892 0.0000
vt 0.0415 0.9833 0.0000
vt 0.0284 0.9738 0.0000
vt 0.0203 0.9597 0.0000
vt 0.0203 0.0393 0.0000
vt 0.0284 0.0252 0.0000
vt 0.0415 0.0157 0.0000
vt 0.0611 0.0098 0.0000
vt 0.9524 0.0098 0.0000
vt 0.9719 0.0157 0.0000
vt 0.9850 0.0252 0.0000
vt 0.9931 0.0393 0.0000
vt 0.9931 0.9597 0.0000
vt 0.9850 0.9738 0.0000
vt 0.9719 0.9833 0.0000
vt 0.9524 0.9892 0.0000
vt 0.9716 -2.7986 0.0000
vt 0.9716 -0.0628 0.0000
vt 0.0284 -0.0628 0.0000
vt 0.0284 -2.7986 0.0000
vt 0.9716 0.0021 0.0000
vt 0.0284 0.0021 0.0000
vt 0.9716 0.0590 0.0000
vt 0.0284 0.0590 0.0000
vt 0.9716 0.1240 0.0000
vt 0.0284 0.1240 0.0000
vt 0.9716 4.0350 0.0000
vt 0.0284 4.0350 0.0000
vt 0.9716 4.0999 0.0000
vt 0.0284 4.0999 0.0000
vt 0.9716 4.1569 0.0000
vt 0.0284 4.1569 0.0000
vt 0.9716 4.2218 0.0000
vt 0.0284 4.2218 0.0000
vt 0.9716 6.9576 0.0000
vt 0.0284 6.9576 0.0000
vt 0.9716 7.0226 0.0000
vt 0.0284 7.0226 0.0000
vt 0.9716 -7.0184 0.0000
vt 0.9716 -6.9614 0.0000
vt 0.0284 -6.9614 0.0000
vt 0.0284 -7.0184 0.0000
vt 0.9716 -6.8965 0.0000
vt 0.0284 -6.8965 0.0000
vt 0.9716 -2.9855 0.0000
vt 0.0284 -2.9855 0.0000
vt 0.9716 -2.9205 0.0000
vt 0.0284 -2.9205 0.0000
vt 0.9716 -2.8636 0.0000
vt 0.0284 -2.8636 0.0000
# 50 texture coords

g deck
usemtl front
s 1
f 1/1/1 2/2/1 3/3/1 
f 3/3/1 4/4/1 5/5/1 
f 1/1/1 3/3/1 5/5/1 
f 5/5/1 6/6/1 7/7/1 
f 7/7/1 8/8/1 9/9/1 
f 5/5/1 7/7/1 9/9/1 
f 1/1/1 5/5/1 9/9/1 
f 9/9/1 10/10/1 11/11/1 
f 11/11/1 12/12/1 13/13/1 
f 9/9/1 11/11/1 13/13/1 
f 1/1/1 9/9/1 13/13/1 
f 13/13/1 14/14/1 15/15/1 
f 1/1/1 13/13/1 15/15/1 
f 16/16/1 1/1/1 15/15/1 
usemtl edgemat
s off
f 1/17/2 16/18/2 17/19/2 
f 17/19/2 18/20/2 1/17/2 
f 16/18/3 15/21/3 19/22/3 
f 19/22/3 17/19/3 16/18/3 
f 15/21/4 14/23/4 20/24/4 
f 20/24/4 19/22/4 15/21/4 
f 14/23/5 13/25/5 21/26/5 
f 21/26/5 20/24/5 14/23/5 
f 13/25/6 12/27/6 22/28/6 
f 22/28/7 21/26/7 13/25/7 
f 12/27/8 11/29/8 23/30/8 
f 23/30/8 22/28/8 12/27/8 
f 11/29/9 10/31/9 24/32/9 
f 24/32/9 23/30/9 11/29/9 
f 10/31/10 9/33/10 25/34/10 
f 25/34/10 24/32/10 10/31/10 
f 9/33/11 8/35/11 26/36/11 
f 26/36/11 25/34/11 9/33/11 
f 8/35/12 7/37/12 27/38/12 
f 27/38/12 26/36/12 8/35/12 
f 7/39/13 6/40/13 28/41/13 
f 28/41/14 27/42/14 7/39/14 
f 6/40/15 5/43/15 29/44/15 
f 29/44/15 28/41/15 6/40/15 
f 5/43/16 4/45/16 30/46/16 
f 30/46/16 29/44/16 5/43/16 
f 4/45/17 3/47/17 31/48/17 
f 31/48/17 30/46/17 4/45/17 
f 3/47/18 2/49/18 32/50/18 
f 32/50/18 31/48/18 3/47/18 
f 2/49/19 1/17/19 18/20/19 
f 18/20/20 32/50/20 2/49/20 
usemtl 13___Default
s 1
f 33/2/21 34/3/21 35/4/21 
f 35/4/21 36/5/21 37/6/21 
f 37/6/21 38/7/21 39/8/21 
f 35/4/21 37/6/21 39/8/21 
f 39/8/21 40/9/21 41/10/21 
f 41/10/21 42/11/21 43/12/21 
f 39/8/21 41/10/21 43/12/21 
f 43/12/21 44/13/21 45/14/21 
f 45/14/21 46/15/21 47/16/21 
f 43/12/21 45/14/21 47/16/21 
f 39/8/21 43/12/21 47/16/21 
f 35/4/21 39/8/21 47/16/21 
f 33/2/21 35/4/21 47/16/21 
f 48/1/21 33/2/21 47/16/21 
usemtl edgemat
s off
f 18/17/2 17/18/2 49/19/2 
f 49/19/2 50/20/2 18/17/2 
f 17/18/3 19/21/3 51/22/3 
f 51/22/3 49/19/3 17/18/3 
f 19/21/4 20/23/4 52/24/4 
f 52/24/4 51/22/4 19/21/4 
f 20/23/5 21/25/5 53/26/5 
f 53/26/5 52/24/5 20/23/5 
f 21/25/7 22/27/7 54/28/7 
f 54/28/7 53/26/7 21/25/7 
f 22/27/8 23/29/8 55/30/8 
f 55/30/8 54/28/8 22/27/8 
f 23/29/9 24/31/9 56/32/9 
f 56/32/9 55/30/9 23/29/9 
f 24/31/10 25/33/10 57/34/10 
f 57/34/10 56/32/10 24/31/10 
f 25/33/11 26/35/11 58/36/11 
f 58/36/11 57/34/11 25/33/11 
f 26/35/22 27/37/22 59/38/22 
f 59/38/22 58/36/22 26/35/22 
f 27/39/13 28/40/13 60/41/13 
f 60/41/13 59/42/13 27/39/13 
f 28/40/15 29/43/15 61/44/15 
f 61/44/15 60/41/15 28/40/15 
f 29/43/16 30/45/16 62/46/16 
f 62/46/16 61/44/16 29/43/16 
f 30/45/17 31/47/17 63/48/17 
f 63/48/17 62/46/17 30/45/17 
f 31/47/18 32/49/18 64/50/18 
f 64/50/18 63/48/18 31/47/18 
f 32/49/20 18/17/20 50/20/20 
f 50/20/20 64/50/20 32/49/20 
f 50/17/2 49/18/2 65/19/2 
f 65/19/2 66/20/2 50/17/2 
f 49/18/3 51/21/3 67/22/3 
f 67/22/3 65/19/3 49/18/3 
f 51/21/4 52/23/4 68/24/4 
f 68/24/4 67/22/4 51/21/4 
f 52/23/5 53/25/5 69/26/5 
f 69/26/5 68/24/5 52/23/5 
f 53/25/7 54/27/7 70/28/7 
f 70/28/7 69/26/7 53/25/7 
f 54/27/8 55/29/8 71/30/8 
f 71/30/8 70/28/8 54/27/8 
f 55/29/9 56/31/9 72/32/9 
f 72/32/9 71/30/9 55/29/9 
f 56/31/10 57/33/10 73/34/10 
f 73/34/10 72/32/10 56/31/10 
f 57/33/11 58/35/11 74/36/11 
f 74/36/11 73/34/11 57/33/11 
f 58/35/22 59/37/22 75/38/22 
f 75/38/22 74/36/22 58/35/22 
f 59/39/13 60/40/13 76/41/13 
f 76/41/13 75/42/13 59/39/13 
f 60/40/15 61/43/15 77/44/15 
f 77/44/15 76/41/15 60/40/15 
f 61/43/16 62/45/16 78/46/16 
f 78/46/16 77/44/16 61/43/16 
f 62/45/17 63/47/17 79/48/17 
f 79/48/17 78/46/17 62/45/17 
f 63/47/18 64/49/18 80/50/18 
f 80/50/18 79/48/18 63/47/18 
f 64/49/20 50/17/20 66/20/20 
f 66/20/20 80/50/20 64/49/20 
f 66/17/2 65/18/2 81/19/2 
f 81/19/2 82/20/2 66/17/2 
f 65/18/3 67/21/3 83/22/3 
f 83/22/3 81/19/3 65/18/3 
f 67/21/4 68/23/4 84/24/4 
f 84/24/4 83/22/4 67/21/4 
f 68/23/5 69/25/5 85/26/5 
f 85/26/5 84/24/5 68/23/5 
f 69/25/7 70/27/7 86/28/7 
f 86/28/7 85/26/7 69/25/7 
f 70/27/8 71/29/8 87/30/8 
f 87/30/8 86/28/8 70/27/8 
f 71/29/9 72/31/9 88/32/9 
f 88/32/9 87/30/9 71/29/9 
f 72/31/10 73/33/10 89/34/10 
f 89/34/10 88/32/10 72/31/10 
f 73/33/11 74/35/11 90/36/11 
f 90/36/11 89/34/11 73/33/11 
f 74/35/22 75/37/22 91/38/22 
f 91/38/22 90/36/22 74/35/22 
f 75/39/13 76/40/13 92/41/13 
f 92/41/13 91/42/13 75/39/13 
f 76/40/15 77/43/15 93/44/15 
f 93/44/15 92/41/15 76/40/15 
f 77/43/16 78/45/16 94/46/16 
f 94/46/16 93/44/16 77/43/16 
f 78/45/17 79/47/17 95/48/17 
f 95/48/17 94/46/17 78/45/17 
f 79/47/18 80/49/18 96/50/18 
f 96/50/18 95/48/18 79/47/18 
f 80/49/20 66/17/20 82/20/20 
f 82/20/20 96/50/20 80/49/20 
f 97/17/2 98/18/2 99/19/2 
f 99/19/2 100/20/2 97/17/2 
f 98/18/3 101/21/3 102/22/3 
f 102/22/3 99/19/3 98/18/3 
f 101/21/4 103/23/4 104/24/4 
f 104/24/4 102/22/4 101/21/4 
f 103/23/5 105/25/5 106/26/5 
f 106/26/5 104/24/5 103/23/5 
f 105/25/7 107/27/7 108/28/7 
f 108/28/7 106/26/7 105/25/7 
f 107/27/8 109/29/8 110/30/8 
f 110/30/8 108/28/8 107/27/8 
f 109/29/9 111/31/9 112/32/9 
f 112/32/9 110/30/9 109/29/9 
f 111/31/10 113/33/10 114/34/10 
f 114/34/10 112/32/10 111/31/10 
f 113/33/11 115/35/11 116/36/11 
f 116/36/11 114/34/11 113/33/11 
f 115/35/22 117/37/22 118/38/22 
f 118/38/22 116/36/22 115/35/22 
f 117/39/13 119/40/13 120/41/13 
f 120/41/13 118/42/13 117/39/13 
f 119/40/15 121/43/15 122/44/15 
f 122/44/15 120/41/15 119/40/15 
f 121/43/16 123/45/16 124/46/16 
f 124/46/16 122/44/16 121/43/16 
f 123/45/17 125/47/17 126/48/17 
f 126/48/17 124/46/17 123/45/17 
f 125/47/18 127/49/18 128/50/18 
f 128/50/18 126/48/18 125/47/18 
f 127/49/20 97/17/20 100/20/20 
f 100/20/20 128/50/20 127/49/20 
f 129/17/2 130/18/2 48/19/2 
f 48/19/2 47/20/2 129/17/2 
f 130/18/3 131/21/3 33/22/3 
f 33/22/3 48/19/3 130/18/3 
f 131/21/23 132/23/23 34/24/23 
f 34/24/4 33/22/4 131/21/4 
f 132/23/5 133/25/5 35/26/5 
f 35/26/24 34/24/24 132/23/24 
f 133/25/7 134/27/7 36/28/7 
f 36/28/25 35/26/25 133/25/25 
f 134/27/8 135/29/8 37/30/8 
f 37/30/8 36/28/8 134/27/8 
f 135/29/9 136/31/9 38/32/9 
f 38/32/9 37/30/9 135/29/9 
f 136/31/10 137/33/10 39/34/10 
f 39/34/10 38/32/10 136/31/10 
f 137/33/11 138/35/11 40/36/11 
f 40/36/11 39/34/11 137/33/11 
f 138/35/22 139/37/22 41/38/22 
f 41/38/22 40/36/22 138/35/22 
f 139/39/13 140/40/13 42/41/13 
f 42/41/13 41/42/13 139/39/13 
f 140/40/15 141/43/15 43/44/15 
f 43/44/15 42/41/15 140/40/15 
f 141/43/16 142/45/16 44/46/16 
f 44/46/16 43/44/16 141/43/16 
f 142/45/26 143/47/26 45/48/26 
f 45/48/17 44/46/17 142/45/17 
f 143/47/27 144/49/27 46/50/27 
f 46/50/27 45/48/27 143/47/27 
f 144/49/20 129/17/20 47/20/20 
f 47/20/19 46/50/19 144/49/19 
f 100/17/2 99/18/2 130/19/2 
f 130/19/2 129/20/2 100/17/2 
f 99/18/3 102/21/3 131/22/3 
f 131/22/3 130/19/3 99/18/3 
f 102/21/23 104/23/23 132/24/23 
f 132/24/4 131/22/4 102/21/4 
f 104/23/5 106/25/5 133/26/5 
f 133/26/24 132/24/24 104/23/24 
f 106/25/7 108/27/7 134/28/7 
f 134/28/7 133/26/7 106/25/7 
f 108/27/8 110/29/8 135/30/8 
f 135/30/8 134/28/8 108/27/8 
f 110/29/9 112/31/9 136/32/9 
f 136/32/9 135/30/9 110/29/9 
f 112/31/10 114/33/10 137/34/10 
f 137/34/10 136/32/10 112/31/10 
f 114/33/11 116/35/11 138/36/11 
f 138/36/11 137/34/11 114/33/11 
f 116/35/22 118/37/22 139/38/22 
f 139/38/22 138/36/22 116/35/22 
f 118/39/13 120/40/13 140/41/13 
f 140/41/13 139/42/13 118/39/13 
f 120/40/15 122/43/15 141/44/15 
f 141/44/15 140/41/15 120/40/15 
f 122/43/16 124/45/16 142/46/16 
f 142/46/16 141/44/16 122/43/16 
f 124/45/26 126/47/26 143/48/26 
f 143/48/17 142/46/17 124/45/17 
f 126/47/18 128/49/18 144/50/18 
f 144/50/27 143/48/27 126/47/27 
f 128/49/20 100/17/20 129/20/20 
f 129/20/20 144/50/20 128/49/20 
f 145/17/2 146/18/2 98/19/2 
f 98/19/2 97/20/2 145/17/2 
f 146/18/3 147/21/3 101/22/3 
f 101/22/3 98/19/3 146/18/3 
f 147/21/4 148/23/4 103/24/4 
f 103/24/4 101/22/4 147/21/4 
f 148/23/5 149/25/5 105/26/5 
f 105/26/5 103/24/5 148/23/5 
f 149/25/7 150/27/7 107/28/7 
f 107/28/7 105/26/7 149/25/7 
f 150/27/8 151/29/8 109/30/8 
f 109/30/8 107/28/8 150/27/8 
f 151/29/9 152/31/9 111/32/9 
f 111/32/9 109/30/9 151/29/9 
f 152/31/10 153/33/10 113/34/10 
f 113/34/10 111/32/10 152/31/10 
f 153/33/11 154/35/11 115/36/11 
f 115/36/11 113/34/11 153/33/11 
f 154/35/22 155/37/22 117/38/22 
f 117/38/22 115/36/22 154/35/22 
f 155/39/13 156/40/13 119/41/13 
f 119/41/13 117/42/13 155/39/13 
f 156/40/15 157/43/15 121/44/15 
f 121/44/15 119/41/15 156/40/15 
f 157/43/16 158/45/16 123/46/16 
f 123/46/16 121/44/16 157/43/16 
f 158/45/17 159/47/17 125/48/17 
f 125/48/17 123/46/17 158/45/17 
f 159/47/18 160/49/18 127/50/18 
f 127/50/18 125/48/18 159/47/18 
f 160/49/20 145/17/20 97/20/20 
f 97/20/20 127/50/20 160/49/20 
f 82/17/2 81/18/2 146/19/2 
f 146/19/2 145/20/2 82/17/2 
f 81/18/3 83/21/3 147/22/3 
f 147/22/3 146/19/3 81/18/3 
f 83/21/4 84/23/4 148/24/4 
f 148/24/4 147/22/4 83/21/4 
f 84/23/5 85/25/5 149/26/5 
f 149/26/5 148/24/5 84/23/5 
f 85/25/7 86/27/7 150/28/7 
f 150/28/7 149/26/7 85/25/7 
f 86/27/8 87/29/8 151/30/8 
f 151/30/8 150/28/8 86/27/8 
f 87/29/9 88/31/9 152/32/9 
f 152/32/9 151/30/9 87/29/9 
f 88/31/10 89/33/10 153/34/10 
f 153/34/10 152/32/10 88/31/10 
f 89/33/11 90/35/11 154/36/11 
f 154/36/11 153/34/11 89/33/11 
f 90/35/22 91/37/22 155/38/22 
f 155/38/22 154/36/22 90/35/22 
f 91/39/13 92/40/13 156/41/13 
f 156/41/13 155/42/13 91/39/13 
f 92/40/15 93/43/15 157/44/15 
f 157/44/15 156/41/15 92/40/15 
f 93/43/16 94/45/16 158/46/16 
f 158/46/16 157/44/16 93/43/16 
f 94/45/17 95/47/17 159/48/17 
f 159/48/17 158/46/17 94/45/17 
f 95/47/18 96/49/18 160/50/18 
f 160/50/18 159/48/18 95/47/18 
f 96/49/20 82/17/20 145/20/20 
f 145/20/20 160/50/20 96/49/20 
# 316 faces

