# 3ds Max Wavefront OBJ Exporter v0.97b - (c)2007 guruware
# File Created: 27.10.2016 16:02:48

mtllib chopper4_blades.mtl

#
# object Catoon_CH47_fan2
#

v  0.5923 0.2482 -0.4293
v  0.8126 0.0000 -0.0000
v  0.6577 0.0000 -0.4769
v  0.7318 0.2482 -0.0000
v  0.2520 0.0000 -0.7716
v  0.2271 0.2482 -0.6947
v  -0.2494 0.0000 -0.7716
v  -0.2244 0.2482 -0.6947
v  -0.5896 0.2482 -0.4293
v  -0.6550 0.0000 -0.4769
v  -0.8100 0.0000 -0.0000
v  -0.7291 0.2482 -0.0000
v  -0.5896 0.2482 0.4293
v  -0.6550 0.0000 0.4769
v  -0.2494 0.0000 0.7716
v  -0.2244 0.2482 0.6947
v  0.2271 0.2482 0.6947
v  0.2520 0.0000 0.7716
v  0.5923 0.2482 0.4293
v  0.6577 0.0000 0.4769
v  0.6440 0.3321 -0.0000
v  0.5212 0.3321 -0.3777
v  0.1999 0.3321 -0.6112
v  -0.1972 0.3321 -0.6112
v  -0.5186 0.3321 -0.3777
v  -0.6413 0.3321 -0.0000
v  -0.5186 0.3321 0.3777
v  -0.1972 0.3321 0.6112
v  0.1999 0.3321 0.6112
v  0.5212 0.3321 0.3777
v  0.2333 0.7542 -0.0000
v  0.1173 0.2797 -0.2009
v  0.1173 0.7542 -0.2009
v  0.2333 0.2797 -0.0000
v  -0.1147 0.2797 -0.2009
v  -0.1147 0.7542 -0.2009
v  -0.2306 0.2797 -0.0000
v  -0.2306 0.7542 -0.0000
v  -0.1147 0.2797 0.2009
v  -0.1147 0.7542 0.2009
v  0.1173 0.2797 0.2009
v  0.1173 0.7542 0.2009
v  0.4766 0.4761 0.2841
v  0.0147 0.4761 0.1159
v  0.0783 0.4761 -0.0588
v  0.5402 0.4761 0.1093
v  0.0783 0.6984 -0.0588
v  0.4766 0.6984 0.2841
v  0.5402 0.6984 0.1093
v  0.0147 0.6984 0.1159
v  0.5482 0.5123 0.1445
v  0.5053 0.5123 0.2623
v  0.5482 0.6622 0.1445
v  0.5053 0.6622 0.2623
v  1.4758 0.5508 0.4821
v  1.4329 0.5508 0.5999
v  1.4758 0.6237 0.4821
v  1.4329 0.6237 0.5999
v  2.2609 0.4712 0.7355
v  2.1957 0.4712 1.7592
v  2.2609 0.7034 0.7355
v  2.1957 0.7034 1.7592
v  17.9422 0.4712 6.3176
v  17.5652 0.4712 7.3533
v  17.9422 0.7034 6.3176
v  17.5652 0.7034 7.3533
v  0.0042 0.4761 -0.5440
v  0.0895 0.4761 -0.0599
v  -0.0937 0.4761 -0.0276
v  -0.1790 0.4761 -0.5117
v  -0.0937 0.6984 -0.0276
v  0.0042 0.6984 -0.5440
v  -0.1790 0.6984 -0.5117
v  0.0895 0.6984 -0.0599
v  -0.0291 0.5123 -0.5580
v  -0.1526 0.5123 -0.5362
v  -0.0291 0.6622 -0.5580
v  -0.1526 0.6622 -0.5362
v  -0.3240 0.5508 -1.5083
v  -0.2005 0.5508 -1.5301
v  -0.3240 0.6237 -1.5083
v  -0.2005 0.6237 -1.5301
v  -0.4970 0.4712 -2.3149
v  0.4221 0.4712 -2.7704
v  -0.4970 0.7034 -2.3149
v  0.4221 0.7034 -2.7704
v  -3.5034 0.4712 -18.6864
v  -2.4180 0.4712 -18.8778
v  -3.5034 0.7034 -18.6864
v  -2.4180 0.7034 -18.8778
v  -0.4767 0.4761 0.2792
v  -0.1002 0.4761 -0.0368
v  0.0194 0.4761 0.1057
v  -0.3572 0.4761 0.4217
v  0.0194 0.6984 0.1057
v  -0.4767 0.6984 0.2792
v  -0.3572 0.6984 0.4217
v  -0.1002 0.6984 -0.0368
v  -0.4722 0.5123 0.3150
v  -0.3916 0.5123 0.4110
v  -0.4722 0.6622 0.3150
v  -0.3916 0.6622 0.4110
v  -1.1478 0.5508 1.0455
v  -1.2284 0.5508 0.9495
v  -1.1478 0.6237 1.0455
v  -1.2284 0.6237 0.9495
v  -1.7599 0.4712 1.5987
v  -2.6138 0.4712 1.0304
v  -1.7599 0.7034 1.5987
v  -2.6138 0.7034 1.0304
v  -14.4347 0.4712 12.3881
v  -15.1432 0.4712 11.5438
v  -14.4347 0.7034 12.3881
v  -15.1432 0.7034 11.5438
# 114 vertices

vn 0.6951 0.5117 -0.5050
vn 0.9508 0.3099 0.0000
vn 0.7692 0.3099 -0.5588
vn 0.8592 0.5117 0.0000
vn 0.2938 0.3099 -0.9042
vn 0.2655 0.5117 -0.8171
vn -0.2938 0.3099 -0.9042
vn -0.2655 0.5117 -0.8171
vn -0.6951 0.5117 -0.5050
vn -0.7692 0.3099 -0.5588
vn -0.9508 0.3099 0.0000
vn -0.8592 0.5117 0.0000
vn -0.6951 0.5117 0.5050
vn -0.7692 0.3099 0.5589
vn -0.2938 0.3099 0.9042
vn -0.2655 0.5117 0.8171
vn 0.2655 0.5117 0.8171
vn 0.2938 0.3099 0.9042
vn 0.6951 0.5117 0.5050
vn 0.7692 0.3099 0.5588
vn 0.4328 0.9015 0.0000
vn 0.3501 0.9015 -0.2544
vn 0.1337 0.9015 -0.4116
vn -0.1337 0.9015 -0.4116
vn -0.3501 0.9015 -0.2544
vn -0.4328 0.9015 0.0000
vn -0.3501 0.9015 0.2544
vn -0.1337 0.9015 0.4116
vn 0.1337 0.9015 0.4116
vn 0.3501 0.9015 0.2544
vn 0.7924 0.6100 0.0000
vn 0.5000 0.0000 -0.8660
vn 0.3962 0.6100 -0.6862
vn 1.0000 0.0000 0.0000
vn -0.5000 0.0000 -0.8660
vn -0.3962 0.6100 -0.6862
vn -1.0000 0.0000 0.0000
vn -0.7924 0.6100 0.0000
vn -0.5000 0.0000 0.8660
vn -0.3962 0.6100 0.6862
vn 0.5000 0.0000 0.8660
vn 0.3962 0.6100 0.6862
vn 0.2219 -0.6299 0.7443
vn -0.7400 -0.5773 0.3451
vn -0.3451 -0.5774 -0.7400
vn 0.6484 -0.6299 -0.4276
vn -0.3451 0.5774 -0.7400
vn 0.2218 0.6299 0.7444
vn 0.6484 0.6299 -0.4276
vn -0.7400 0.5773 0.3451
vn 0.8502 -0.4730 -0.2312
vn 0.5027 -0.4730 0.7236
vn 0.8502 0.4731 -0.2312
vn 0.5027 0.4731 0.7235
vn 0.2137 -0.6992 -0.6822
vn -0.4186 -0.7652 0.4891
vn 0.2137 0.6992 -0.6822
vn -0.4186 0.7652 0.4891
vn 0.1870 -0.7177 -0.6707
vn -0.4805 -0.6452 0.5939
vn 0.1870 0.7177 -0.6707
vn -0.4805 0.6452 0.5939
vn 0.7390 -0.5770 -0.3478
vn 0.3451 -0.5774 0.7400
vn 0.7390 0.5770 -0.3478
vn 0.3451 0.5774 0.7400
vn 0.5337 -0.6299 -0.5643
vn 0.6688 -0.5773 0.4683
vn -0.4683 -0.5774 0.6688
vn -0.6945 -0.6299 -0.3477
vn -0.4683 0.5774 0.6688
vn 0.5337 0.6299 -0.5643
vn -0.6945 0.6299 -0.3477
vn 0.6688 0.5773 0.4683
vn 0.3753 -0.4730 -0.7971
vn -0.6253 -0.4730 -0.6207
vn 0.3753 0.4731 -0.7971
vn -0.6253 0.4731 -0.6207
vn -0.6976 -0.6992 0.1560
vn 0.6328 -0.7652 0.1180
vn -0.6976 0.6992 0.1560
vn 0.6328 0.7652 0.1180
vn -0.6744 -0.7177 0.1734
vn 0.7546 -0.6452 0.1192
vn -0.6744 0.7177 0.1734
vn 0.7546 0.6452 0.1192
vn -0.6707 -0.5770 -0.4661
vn 0.4683 -0.5774 -0.6688
vn -0.6707 0.5770 -0.4661
vn 0.4683 0.5774 -0.6688
vn -0.7555 -0.6299 -0.1801
vn 0.0712 -0.5773 -0.8134
vn 0.8134 -0.5774 0.0712
vn 0.0461 -0.6299 0.7753
vn 0.8134 0.5774 0.0712
vn -0.7555 0.6299 -0.1801
vn 0.0461 0.6299 0.7753
vn 0.0712 0.5773 -0.8134
vn -0.8780 -0.4731 0.0735
vn -0.2249 -0.4730 0.8519
vn -0.8779 0.4731 0.0735
vn -0.2249 0.4731 0.8518
vn 0.4840 -0.6992 0.5262
vn -0.2143 -0.7652 -0.6070
vn 0.4840 0.6992 0.5262
vn -0.2143 0.7652 -0.6070
vn 0.4874 -0.7177 0.4973
vn -0.2741 -0.6452 -0.7131
vn 0.4874 0.7177 0.4973
vn -0.2741 0.6452 -0.7131
vn -0.0683 -0.5770 0.8139
vn -0.8134 -0.5774 -0.0712
vn -0.0683 0.5770 0.8139
vn -0.8134 0.5774 -0.0712
# 114 vertex normals

vt 0.9003 0.3516 0.0000
vt 0.9136 0.3669 0.0000
vt 0.9070 0.3468 0.0000
vt 0.9053 0.3669 0.0000
vt 0.8899 0.3343 0.0000
vt 0.8873 0.3422 0.0000
vt 0.8686 0.3343 0.0000
vt 0.8712 0.3422 0.0000
vt 0.8582 0.3516 0.0000
vt 0.8515 0.3468 0.0000
vt 0.8449 0.3669 0.0000
vt 0.8532 0.3669 0.0000
vt 0.8582 0.3822 0.0000
vt 0.8515 0.3871 0.0000
vt 0.8686 0.3996 0.0000
vt 0.8712 0.3917 0.0000
vt 0.8873 0.3917 0.0000
vt 0.8899 0.3996 0.0000
vt 0.9003 0.3822 0.0000
vt 0.9070 0.3871 0.0000
vt 0.9018 0.3669 0.0000
vt 0.8975 0.3537 0.0000
vt 0.8862 0.3455 0.0000
vt 0.8723 0.3455 0.0000
vt 0.8610 0.3537 0.0000
vt 0.8567 0.3669 0.0000
vt 0.8610 0.3802 0.0000
vt 0.8723 0.3884 0.0000
vt 0.8862 0.3884 0.0000
vt 0.8975 0.3802 0.0000
vt 0.9055 0.4105 0.0000
vt 0.9064 0.4059 0.0000
vt 0.9046 0.4090 0.0000
vt 0.9090 0.4105 0.0000
vt 0.9010 0.4059 0.0000
vt 0.9028 0.4090 0.0000
vt 0.8984 0.4105 0.0000
vt 0.9019 0.4105 0.0000
vt 0.9010 0.4151 0.0000
vt 0.9028 0.4121 0.0000
vt 0.9064 0.4151 0.0000
vt 0.9046 0.4121 0.0000
vt 0.0649 0.1039 0.0000
vt 0.0661 0.0806 0.0000
vt 0.0571 0.0805 0.0000
vt 0.0574 0.1039 0.0000
vt 0.0472 0.0809 0.0000
vt 0.0407 0.1052 0.0000
vt 0.0488 0.1042 0.0000
vt 0.0383 0.0818 0.0000
vt 0.0760 0.0812 0.0000
vt 0.0742 0.1048 0.0000
vt 0.0765 0.0724 0.0000
vt 0.0667 0.0717 0.0000
vt 0.0574 0.1059 0.0000
vt 0.0646 0.1059 0.0000
vt 0.0494 0.1062 0.0000
vt 0.0430 0.1069 0.0000
vt 0.0718 0.1064 0.0000
vt 0.0566 0.1532 0.0000
vt 0.0634 0.1533 0.0000
vt 0.0523 0.1534 0.0000
vt 0.0458 0.1535 0.0000
vt 0.0666 0.1526 0.0000
vt 0.0581 0.1925 0.0000
vt 0.1043 0.2049 0.0000
vt 0.0488 0.1925 0.0000
vt 0.0021 0.2045 0.0000
vt 0.1131 0.2016 0.0000
vt 0.0662 0.9825 0.0000
vt 0.1186 0.9808 0.0000
vt 0.0557 0.9826 0.0000
vt 0.0033 0.9825 0.0000
vt 0.1289 0.9800 0.0000
vt 0.0033 0.9930 0.0000
vt 0.0556 0.9931 0.0000
# 76 texture coords

g Catoon_CH47_fan2
usemtl fbadf35
s off
f 1/1/1 2/2/2 3/3/3 
f 2/2/2 1/1/1 4/4/4 
f 1/1/1 5/5/5 6/6/6 
f 5/5/5 1/1/1 3/3/3 
f 6/6/6 7/7/7 8/8/8 
f 7/7/7 6/6/6 5/5/5 
f 7/7/7 9/9/9 8/8/8 
f 9/9/9 7/7/7 10/10/10 
f 9/9/9 11/11/11 12/12/12 
f 11/11/11 9/9/9 10/10/10 
f 13/13/13 11/11/11 14/14/14 
f 11/11/11 13/13/13 12/12/12 
f 13/13/13 15/15/15 16/16/16 
f 15/15/15 13/13/13 14/14/14 
f 17/17/17 15/15/15 18/18/18 
f 15/15/15 17/17/17 16/16/16 
f 18/18/18 19/19/19 17/17/17 
f 19/19/19 18/18/18 20/20/20 
f 19/19/19 2/2/2 4/4/4 
f 2/2/2 19/19/19 20/20/20 
f 21/21/21 1/1/1 22/22/22 
f 1/1/1 21/21/21 4/4/4 
f 1/1/1 6/6/6 22/22/22 
f 22/22/22 6/6/6 23/23/23 
f 8/8/8 23/23/23 6/6/6 
f 23/23/23 8/8/8 24/24/24 
f 24/24/24 9/9/9 25/25/25 
f 9/9/9 24/24/24 8/8/8 
f 9/9/9 12/12/12 25/25/25 
f 25/25/25 12/12/12 26/26/26 
f 27/27/27 26/26/26 13/13/13 
f 12/12/12 13/13/13 26/26/26 
f 27/27/27 16/16/16 28/28/28 
f 13/13/13 16/16/16 27/27/27 
f 16/16/16 29/29/29 28/28/28 
f 29/29/29 16/16/16 17/17/17 
f 17/17/17 30/30/30 29/29/29 
f 30/30/30 17/17/17 19/19/19 
f 21/21/21 19/19/19 4/4/4 
f 19/19/19 21/21/21 30/30/30 
f 29/29/29 26/26/26 28/28/28 
f 28/28/28 26/26/26 27/27/27 
f 30/30/30 23/23/23 26/26/26 
f 30/30/30 26/26/26 29/29/29 
f 22/22/22 30/30/30 21/21/21 
f 23/23/23 30/30/30 22/22/22 
f 26/26/26 23/23/23 24/24/24 
f 26/26/26 24/24/24 25/25/25 
f 31/31/31 32/32/32 33/33/33 
f 32/32/32 31/31/31 34/34/34 
f 33/33/33 35/35/35 36/36/36 
f 35/35/35 33/33/33 32/32/32 
f 36/36/36 37/37/37 38/38/38 
f 37/37/37 36/36/36 35/35/35 
f 38/38/38 39/39/39 40/40/40 
f 39/39/39 38/38/38 37/37/37 
f 40/40/40 41/41/41 42/42/42 
f 41/41/41 40/40/40 39/39/39 
f 42/42/42 34/34/34 31/31/31 
f 34/34/34 42/42/42 41/41/41 
f 38/38/38 33/33/33 36/36/36 
f 33/33/33 38/38/38 42/42/42 
f 42/42/42 31/31/31 33/33/33 
f 42/42/42 38/38/38 40/40/40 
f 43/43/43 44/44/44 45/45/45 
f 45/45/45 46/46/46 43/43/43 
f 47/47/47 48/48/48 49/49/49 
f 48/48/48 47/47/47 50/50/50 
f 50/51/50 43/43/43 48/52/48 
f 43/43/43 50/51/50 44/44/44 
f 49/49/49 45/45/45 47/47/47 
f 45/45/45 49/49/49 46/46/46 
f 47/53/47 44/44/44 50/51/50 
f 44/44/44 47/53/47 45/54/45 
f 43/43/43 51/55/51 52/56/52 
f 51/55/51 43/43/43 46/46/46 
f 53/57/53 48/48/48 54/58/54 
f 49/49/49 48/48/48 53/57/53 
f 48/52/48 52/56/52 54/59/54 
f 52/56/52 48/52/48 43/43/43 
f 51/55/51 49/49/49 53/57/53 
f 46/46/46 49/49/49 51/55/51 
f 52/56/52 55/60/55 56/61/56 
f 55/60/55 52/56/52 51/55/51 
f 54/58/54 57/62/57 53/57/53 
f 57/62/57 54/58/54 58/63/58 
f 58/64/58 54/59/54 52/56/52 
f 58/64/58 52/56/52 56/61/56 
f 57/62/57 51/55/51 53/57/53 
f 51/55/51 57/62/57 55/60/55 
f 55/60/55 59/65/59 56/61/56 
f 60/66/60 56/61/56 59/65/59 
f 61/67/61 58/63/58 62/68/62 
f 58/63/58 61/67/61 57/62/57 
f 58/64/58 60/66/60 62/69/62 
f 60/66/60 58/64/58 56/61/56 
f 57/62/57 61/67/61 59/65/59 
f 57/62/57 59/65/59 55/60/55 
f 59/65/59 63/70/63 60/66/60 
f 60/66/60 63/70/63 64/71/64 
f 65/72/65 61/67/61 62/68/62 
f 65/72/65 62/68/62 66/73/66 
f 66/74/66 62/69/62 60/66/60 
f 66/74/66 60/66/60 64/71/64 
f 61/67/61 65/72/65 63/70/63 
f 61/67/61 63/70/63 59/65/59 
f 64/75/64 63/76/63 66/73/66 
f 65/72/65 66/73/66 63/76/63 
f 67/43/67 68/44/68 69/45/69 
f 69/45/69 70/46/70 67/43/67 
f 71/47/71 72/48/72 73/49/73 
f 72/48/72 71/47/71 74/50/74 
f 74/51/74 67/43/67 72/52/72 
f 67/43/67 74/51/74 68/44/68 
f 73/49/73 69/45/69 71/47/71 
f 69/45/69 73/49/73 70/46/70 
f 71/53/71 68/44/68 74/51/74 
f 68/44/68 71/53/71 69/54/69 
f 70/46/70 75/56/75 67/43/67 
f 75/56/75 70/46/70 76/55/76 
f 77/58/77 73/49/73 72/48/72 
f 73/49/73 77/58/77 78/57/78 
f 72/52/72 75/56/75 77/59/77 
f 75/56/75 72/52/72 67/43/67 
f 76/55/76 73/49/73 78/57/78 
f 70/46/70 73/49/73 76/55/76 
f 75/56/75 79/60/79 80/61/80 
f 79/60/79 75/56/75 76/55/76 
f 77/58/77 81/62/81 78/57/78 
f 81/62/81 77/58/77 82/63/82 
f 82/64/82 77/59/77 75/56/75 
f 82/64/82 75/56/75 80/61/80 
f 81/62/81 76/55/76 78/57/78 
f 76/55/76 81/62/81 79/60/79 
f 79/60/79 83/65/83 80/61/80 
f 84/66/84 80/61/80 83/65/83 
f 85/67/85 82/63/82 86/68/86 
f 82/63/82 85/67/85 81/62/81 
f 82/64/82 84/66/84 86/69/86 
f 84/66/84 82/64/82 80/61/80 
f 81/62/81 85/67/85 83/65/83 
f 81/62/81 83/65/83 79/60/79 
f 83/65/83 87/70/87 84/66/84 
f 84/66/84 87/70/87 88/71/88 
f 89/72/89 85/67/85 86/68/86 
f 89/72/89 86/68/86 90/73/90 
f 90/74/90 86/69/86 84/66/84 
f 90/74/90 84/66/84 88/71/88 
f 85/67/85 89/72/89 87/70/87 
f 85/67/85 87/70/87 83/65/83 
f 88/75/88 87/76/87 90/73/90 
f 89/72/89 90/73/90 87/76/87 
f 91/43/91 92/44/92 93/45/93 
f 93/45/93 94/46/94 91/43/91 
f 95/47/95 96/48/96 97/49/97 
f 96/48/96 95/47/95 98/50/98 
f 98/51/98 91/43/91 96/52/96 
f 91/43/91 98/51/98 92/44/92 
f 97/49/97 93/45/93 95/47/95 
f 93/45/93 97/49/97 94/46/94 
f 95/53/95 92/44/92 98/51/98 
f 92/44/92 95/53/95 93/54/93 
f 94/46/94 99/56/99 91/43/91 
f 99/56/99 94/46/94 100/55/100 
f 101/58/101 97/49/97 96/48/96 
f 97/49/97 101/58/101 102/57/102 
f 96/52/96 99/56/99 101/59/101 
f 99/56/99 96/52/96 91/43/91 
f 100/55/100 97/49/97 102/57/102 
f 94/46/94 97/49/97 100/55/100 
f 99/56/99 103/60/103 104/61/104 
f 103/60/103 99/56/99 100/55/100 
f 101/58/101 105/62/105 102/57/102 
f 105/62/105 101/58/101 106/63/106 
f 106/64/106 101/59/101 99/56/99 
f 106/64/106 99/56/99 104/61/104 
f 105/62/105 100/55/100 102/57/102 
f 100/55/100 105/62/105 103/60/103 
f 103/60/103 107/65/107 104/61/104 
f 104/61/104 107/65/107 108/66/108 
f 109/67/109 106/63/106 110/68/110 
f 106/63/106 109/67/109 105/62/105 
f 106/64/106 108/66/108 110/69/110 
f 108/66/108 106/64/106 104/61/104 
f 105/62/105 109/67/109 107/65/107 
f 105/62/105 107/65/107 103/60/103 
f 107/65/107 111/70/111 108/66/108 
f 108/66/108 111/70/111 112/71/112 
f 113/72/113 109/67/109 110/68/110 
f 113/72/113 110/68/110 114/73/114 
f 114/74/114 110/69/110 108/66/108 
f 114/74/114 108/66/108 112/71/112 
f 109/67/109 113/72/113 111/70/111 
f 109/67/109 111/70/111 107/65/107 
f 112/75/112 111/76/111 114/73/114 
f 113/72/113 114/73/114 111/76/111 
# 196 faces

