# 3ds Max Wavefront OBJ Exporter v0.97b - (c)2007 guruware
# File Created: 27.10.2016 18:44:29

mtllib plane6_blades4.mtl

#
# object Catoon_AC130_fan
#

v  -0.1286 0.4838 -0.0757
v  -2.1304 0.7711 -0.3244
v  -2.1304 -0.0161 0.3244
v  -4.0557 -0.4238 0.1873
v  -6.2328 0.3618 -0.0000
v  -6.2328 -0.1131 -0.0000
v  -4.0557 0.9467 -0.1873
v  -0.8118 -2.1411 -0.3245
v  0.3211 -4.2637 0.1873
v  0.0154 -2.0883 0.3245
v  -0.3997 -0.0294 0.0756
v  -0.3997 -0.0330 -0.0757
v  -1.1115 -4.3234 -0.1873
v  -0.1501 -6.9977 -0.0000
v  -0.6481 -7.0082 -0.0001
v  3.5577 1.4383 0.1873
v  6.2328 0.5804 -0.0000
v  6.2328 1.0775 -0.0001
v  1.3711 1.0510 0.3245
v  3.5577 0.0086 -0.1873
v  -0.7444 0.5421 0.0756
v  1.3711 0.2205 -0.3245
v  -0.7444 0.5386 -0.0757
v  -0.3997 1.0529 0.0756
v  0.0154 3.0187 -0.3245
v  -0.8118 2.9828 0.3245
v  -0.6482 6.9750 -0.0000
v  0.3211 4.9129 -0.1873
v  -0.1502 7.0082 -0.0000
v  -1.1115 4.8292 0.1873
v  -0.3997 1.0496 -0.0757
# 31 vertices

vn -0.0240 0.4106 0.9115
vn -0.3822 -0.0002 0.9241
vn 0.0160 -0.3840 0.9232
vn 0.3948 -0.0003 0.9188
# 4 vertex normals

vt 0.0238 0.8537 0.0000
vt 0.0133 0.8921 0.0000
vt 0.0366 0.8921 0.0000
vt 0.0391 0.9305 0.0000
vt 0.0211 0.9759 0.0000
vt 0.0289 0.9759 0.0000
vt 0.0108 0.9305 0.0000
vt 0.0262 0.8537 0.0000
# 8 texture coords

g Catoon_AC130_fan
usemtl fbadf353
s off
f 1/1/1 2/2/1 3/3/1 
f 4/4/1 5/5/1 6/6/1 
f 7/7/1 3/3/1 2/2/1 
f 4/4/1 7/7/1 5/5/1 
f 3/3/1 7/7/1 4/4/1 
f 8/2/2 9/4/2 10/3/2 
f 10/3/2 11/8/2 12/1/2 
f 13/7/2 9/4/2 8/2/2 
f 14/6/2 13/7/2 15/5/2 
f 13/7/2 14/6/2 9/4/2 
f 10/3/2 12/1/2 8/2/2 
f 16/4/3 17/5/3 18/6/3 
f 19/3/3 20/7/3 16/4/3 
f 21/8/3 22/2/3 19/3/3 
f 16/4/3 20/7/3 17/5/3 
f 22/2/3 21/8/3 23/1/3 
f 20/7/3 19/3/3 22/2/3 
f 24/8/4 25/2/4 26/3/4 
f 27/6/4 28/7/4 29/5/4 
f 28/7/4 27/6/4 30/4/4 
f 31/1/4 25/2/4 24/8/4 
f 25/2/4 30/4/4 26/3/4 
f 28/7/4 30/4/4 25/2/4 
# 23 faces

