# 3ds Max Wavefront OBJ Exporter v0.97b - (c)2007 guruware
# File Created: 27.10.2016 18:59:41

mtllib plane7_blades3.mtl

#
# object Catoon_B29_fan2
#

v  -0.0456 -0.0015 0.3579
v  -0.0456 -6.3239 0.7554
v  -0.8149 -6.0813 0.7378
v  -0.0843 -0.0015 0.3579
v  -0.8149 -6.0697 0.8984
v  -0.0456 0.0015 0.3993
v  -0.0843 0.0015 0.3993
v  -0.0456 -6.3122 0.9160
v  -0.5445 -6.4920 0.9290
v  -0.0456 -6.7631 0.7872
v  -0.0456 -6.7515 0.9478
v  -0.5445 -6.5036 0.7684
v  -0.0068 -0.0015 0.3579
v  0.7237 -6.0696 0.8985
v  0.7237 -6.0813 0.7378
v  -0.0068 0.0015 0.3993
v  0.4533 6.4920 -0.1717
v  -0.0456 6.7514 -0.1905
v  -0.0456 6.7631 -0.0299
v  0.4533 6.5036 -0.0111
v  -0.8149 6.0813 0.0195
v  -0.8149 6.0696 -0.1412
v  -0.0456 6.3122 -0.1587
v  0.7237 6.0696 -0.1412
v  0.4533 -6.4920 0.9290
v  0.4533 -6.5036 0.7684
v  -0.5445 6.4920 -0.1717
v  -0.5445 6.5036 -0.0111
v  -0.0456 6.3238 0.0019
v  0.7237 6.0813 0.0195
v  -0.3590 -0.0015 0.3579
v  -6.4503 0.7615 0.2428
v  -0.3590 0.0372 0.3552
v  -6.6936 -0.0058 0.2983
v  -6.4503 0.7731 0.4035
v  -0.3590 0.0015 0.3993
v  -0.3590 0.0401 0.3966
v  -6.6936 0.0058 0.4590
v  -6.8738 0.5034 0.4230
v  -7.1339 -0.0058 0.2983
v  -7.1339 0.0058 0.4590
v  -6.8738 0.4918 0.2623
v  -0.3590 -0.0371 0.4021
v  -6.4503 -0.7615 0.5145
v  -6.4503 -0.7731 0.3538
v  -0.3590 -0.0401 0.3607
v  6.4159 -0.0058 0.2983
v  6.1558 -0.4918 0.4949
v  6.1558 -0.5034 0.3343
v  6.4159 0.0058 0.4590
v  5.7323 0.7731 0.4035
v  5.7323 0.7615 0.2428
v  5.9755 -0.0058 0.2983
v  5.7323 -0.7731 0.3538
v  -6.8738 -0.4918 0.4949
v  -6.8738 -0.5034 0.3343
v  6.1558 0.4918 0.2623
v  6.1558 0.5034 0.4230
v  5.9755 0.0058 0.4590
v  5.7323 -0.7615 0.5145
v  0.1865 0.2127 -0.2647
v  0.1865 0.3657 1.8499
v  0.3670 0.0540 1.8725
v  0.3670 -0.0990 -0.2422
v  -0.1744 0.2127 -0.2647
v  -0.1744 0.3657 1.8499
v  -0.3548 0.0540 1.8725
v  -0.3548 -0.0990 -0.2422
v  -0.1744 -0.4107 -0.2196
v  -0.1744 -0.2577 1.8951
v  0.1865 -0.4107 -0.2196
v  0.1865 -0.2577 1.8951
v  0.4120 0.7343 1.2272
v  0.8179 -0.0607 -0.0174
v  0.4120 0.6406 -0.0681
v  0.8179 0.0330 1.2779
v  -0.3999 0.6406 -0.0681
v  -0.3999 0.7343 1.2272
v  -0.8058 -0.0607 -0.0174
v  -0.8058 0.0330 1.2779
v  -0.3999 -0.7619 0.0333
v  -0.3999 -0.6682 1.3287
v  0.4120 -0.7619 0.0333
v  0.4120 -0.6682 1.3287
# 84 vertices

vn 0.0000 -0.0722 -0.9974
vn 0.0000 -0.0683 -0.9977
vn -0.7491 -0.2137 -0.6270
vn -0.6793 -0.0530 -0.7319
vn -0.7491 -0.1212 0.6512
vn -0.0000 0.0721 0.9974
vn -0.6793 0.0530 0.7319
vn -0.0000 0.0760 0.9971
vn -0.5113 -0.5096 0.6920
vn -0.0000 -0.8299 -0.5579
vn -0.0000 -0.7409 0.6716
vn -0.5113 -0.6039 -0.6114
vn 0.6793 -0.0530 -0.7319
vn 0.7491 -0.1212 0.6512
vn 0.7491 -0.2137 -0.6270
vn 0.6793 0.0530 0.7319
vn 0.5113 0.5096 -0.6920
vn -0.0000 0.7409 -0.6716
vn -0.0000 0.8299 0.5579
vn 0.5113 0.6039 0.6114
vn -0.7491 0.2137 0.6270
vn -0.7491 0.1212 -0.6512
vn -0.0000 -0.0760 -0.9971
vn 0.7491 0.1212 -0.6512
vn 0.5113 -0.5096 0.6920
vn 0.5113 -0.6039 -0.6114
vn -0.5113 0.5096 -0.6920
vn -0.5113 0.6039 0.6114
vn -0.0000 0.0684 0.9977
vn 0.7491 0.2137 0.6270
vn 0.0000 -0.0721 -0.9974
vn -0.1679 0.7010 -0.6932
vn 0.0000 0.6246 -0.7809
vn 0.0038 -0.0721 -0.9974
vn -0.1679 0.7934 0.5851
vn 0.0000 0.0722 0.9974
vn 0.0000 0.7305 0.6829
vn 0.0038 0.0721 0.9974
vn -0.5582 0.5571 0.6148
vn -0.7875 -0.0445 -0.6147
vn -0.7875 0.0445 0.6148
vn -0.5582 0.4629 -0.6886
vn 0.0000 -0.6246 0.7809
vn -0.1679 -0.7010 0.6932
vn -0.1679 -0.7934 -0.5851
vn 0.0000 -0.7305 -0.6829
vn 0.7875 -0.0445 -0.6147
vn 0.5583 -0.4628 0.6886
vn 0.5583 -0.5571 -0.6148
vn 0.7875 0.0445 0.6148
vn 0.1679 0.7934 0.5851
vn 0.1679 0.7010 -0.6932
vn -0.0038 -0.0722 -0.9974
vn 0.1679 -0.7934 -0.5850
vn -0.5583 -0.4629 0.6886
vn -0.5582 -0.5571 -0.6148
vn 0.5582 0.4629 -0.6886
vn 0.5582 0.5571 0.6148
vn -0.0038 0.0721 0.9974
vn 0.1679 -0.7010 0.6932
vn 0.5000 0.8638 -0.0625
vn 0.3962 0.7285 0.5589
vn 0.7924 0.0440 0.6084
vn 1.0000 0.0000 -0.0000
vn -0.5000 0.8637 -0.0625
vn -0.3962 0.7285 0.5589
vn -0.7924 0.0440 0.6084
vn -1.0000 0.0000 -0.0000
vn -0.5000 -0.8637 0.0625
vn -0.3962 -0.6404 0.6579
vn 0.5000 -0.8638 0.0625
vn 0.3962 -0.6404 0.6579
vn 1.0000 -0.0000 0.0000
vn -0.5000 0.8638 -0.0625
vn -1.0000 -0.0000 0.0000
vn -0.5000 -0.8638 0.0625
# 76 vertex normals

vt 0.8633 0.6300 0.0000
vt 0.7193 0.6300 0.0000
vt 0.7239 0.6254 0.0000
vt 0.8633 0.6299 0.0000
vt 0.7239 0.6346 0.0000
vt 0.7480 0.7025 0.0000
vt 0.7733 0.6943 0.0000
vt 0.7733 0.7025 0.0000
vt 0.7480 0.6943 0.0000
vt 0.7476 0.6674 0.0000
vt 0.7729 0.6674 0.0000
vt 0.7729 0.6756 0.0000
vt 0.7476 0.6756 0.0000
vt 0.9909 0.6355 0.0000
vt 0.9909 0.6263 0.0000
vt 0.9956 0.6309 0.0000
vt 0.7986 0.7025 0.0000
vt 0.7986 0.6943 0.0000
vt 0.7982 0.6674 0.0000
vt 0.7982 0.6756 0.0000
vt 0.8119 0.6674 0.0000
vt 0.7343 0.6943 0.0000
vt 0.8119 0.6756 0.0000
vt 0.7343 0.7025 0.0000
vt 0.7339 0.6674 0.0000
vt 0.7339 0.6756 0.0000
vt 0.8123 0.6943 0.0000
vt 0.8123 0.7025 0.0000
vt 0.8662 0.6410 0.0000
vt 0.7268 0.6361 0.0000
vt 0.7221 0.6407 0.0000
vt 0.7268 0.6453 0.0000
vt 0.8662 0.6411 0.0000
vt 0.7441 0.6625 0.0000
vt 0.7694 0.6543 0.0000
vt 0.7694 0.6625 0.0000
vt 0.7441 0.6543 0.0000
vt 0.7731 0.6815 0.0000
vt 0.7478 0.6897 0.0000
vt 0.7478 0.6815 0.0000
vt 0.7731 0.6897 0.0000
vt 0.9937 0.6467 0.0000
vt 0.9937 0.6374 0.0000
vt 0.9984 0.6420 0.0000
vt 0.9937 0.6466 0.0000
vt 0.7947 0.6625 0.0000
vt 0.7947 0.6543 0.0000
vt 0.7984 0.6815 0.0000
vt 0.7984 0.6897 0.0000
vt 0.8121 0.6815 0.0000
vt 0.7304 0.6543 0.0000
vt 0.8121 0.6897 0.0000
vt 0.7304 0.6625 0.0000
vt 0.7341 0.6897 0.0000
vt 0.7341 0.6815 0.0000
vt 0.8084 0.6543 0.0000
vt 0.8084 0.6625 0.0000
vt 0.7617 0.6294 0.0000
vt 0.7617 0.6434 0.0000
vt 0.7939 0.7242 0.0000
vt 0.8022 0.7100 0.0000
vt 0.8022 0.7242 0.0000
vt 0.7898 0.7171 0.0000
vt 0.7939 0.7100 0.0000
vt 0.8063 0.7171 0.0000
vt 0.7435 0.7432 0.0000
vt 0.7647 0.7349 0.0000
vt 0.7522 0.7570 0.0000
vt 0.7468 0.7342 0.0000
vt 0.7269 0.7574 0.0000
vt 0.7354 0.7425 0.0000
vt 0.7144 0.7355 0.0000
vt 0.7307 0.7359 0.0000
vt 0.7270 0.7134 0.0000
vt 0.7368 0.7285 0.0000
vt 0.7528 0.7120 0.0000
vt 0.7459 0.7242 0.0000
# 77 texture coords

g Catoon_B29_fan2
usemtl f343f364
s off
f 1/1/1 2/2/2 3/3/3 
f 1/1/1 3/3/3 4/4/4 
f 5/5/5 6/1/6 7/1/7 
f 8/2/8 6/1/6 5/5/5 
f 9/6/9 10/7/10 11/8/11 
f 10/7/10 9/6/9 12/9/12 
f 13/1/13 14/3/14 15/5/15 
f 14/3/14 13/1/13 16/4/16 
f 17/10/17 18/11/18 19/12/19 
f 17/10/17 19/12/19 20/13/20 
f 4/4/4 21/14/21 22/15/22 
f 21/14/21 4/4/4 7/1/7 
f 1/1/1 23/16/23 24/14/24 
f 24/14/24 13/1/13 1/1/1 
f 6/1/6 8/2/8 14/3/14 
f 6/1/6 14/3/14 16/4/16 
f 25/17/25 11/8/11 10/7/10 
f 25/17/25 10/7/10 26/18/26 
f 27/19/27 19/12/19 18/11/18 
f 19/12/19 27/19/27 28/20/28 
f 27/19/27 18/11/18 23/11/23 
f 27/19/27 23/11/23 22/21/22 
f 23/16/23 1/1/1 22/15/22 
f 22/15/22 1/1/1 4/4/4 
f 10/7/10 12/9/12 2/7/2 
f 3/22/3 2/7/2 12/9/12 
f 28/20/28 29/12/29 19/12/19 
f 29/12/29 28/20/28 21/23/21 
f 21/14/21 6/1/6 29/16/29 
f 6/1/6 21/14/21 7/1/7 
f 8/8/8 9/6/9 11/8/11 
f 8/8/8 5/24/5 9/6/9 
f 24/25/24 17/10/17 20/13/20 
f 20/13/20 30/26/30 24/25/24 
f 13/1/13 24/14/24 30/15/30 
f 30/15/30 16/4/16 13/1/13 
f 15/27/15 25/17/25 26/18/26 
f 25/17/25 15/27/15 14/28/14 
f 5/24/5 12/9/12 9/6/9 
f 12/9/12 5/24/5 3/22/3 
f 3/3/3 7/1/7 4/4/4 
f 7/1/7 3/3/3 5/5/5 
f 28/20/28 22/21/22 21/23/21 
f 22/21/22 28/20/28 27/19/27 
f 2/7/2 26/18/26 10/7/10 
f 2/7/2 15/27/15 26/18/26 
f 13/1/13 15/5/15 1/1/1 
f 1/1/1 15/5/15 2/2/2 
f 17/10/17 23/11/23 18/11/18 
f 23/11/23 17/10/17 24/25/24 
f 20/13/20 19/12/19 29/12/29 
f 20/13/20 29/12/29 30/26/30 
f 29/16/29 6/1/6 30/15/30 
f 30/15/30 6/1/6 16/4/16 
f 11/8/11 25/17/25 8/8/8 
f 14/28/14 8/8/8 25/17/25 
f 31/29/31 32/30/32 33/29/33 
f 32/30/32 31/29/31 34/31/34 
f 35/32/35 36/29/36 37/33/37 
f 36/29/36 35/32/35 38/31/38 
f 39/34/39 40/35/40 41/36/41 
f 40/35/40 39/34/39 42/37/42 
f 43/29/43 44/30/44 45/32/45 
f 43/29/43 45/32/45 46/33/46 
f 47/38/47 48/39/48 49/40/49 
f 48/39/48 47/38/47 50/41/50 
f 33/29/33 51/42/51 52/43/52 
f 51/42/51 33/29/33 37/33/37 
f 31/29/31 53/44/53 54/45/54 
f 31/29/31 54/45/54 46/33/46 
f 36/29/36 38/31/38 44/30/44 
f 36/29/36 44/30/44 43/29/43 
f 40/35/40 55/46/55 41/36/41 
f 55/46/55 40/35/40 56/47/56 
f 47/38/47 57/48/57 58/49/58 
f 58/49/58 50/41/50 47/38/47 
f 53/38/53 52/50/52 57/48/57 
f 57/48/57 47/38/47 53/38/53 
f 53/44/53 31/29/31 52/43/52 
f 33/29/33 52/43/52 31/29/31 
f 32/51/32 34/35/34 42/37/42 
f 34/35/34 40/35/40 42/37/42 
f 51/52/51 59/41/59 58/49/58 
f 59/41/59 50/41/50 58/49/58 
f 51/42/51 37/33/37 36/29/36 
f 36/29/36 59/44/59 51/42/51 
f 38/36/38 35/53/35 39/34/39 
f 39/34/39 41/36/41 38/36/38 
f 48/39/48 60/54/60 54/55/54 
f 48/39/48 54/55/54 49/40/49 
f 43/29/43 54/45/54 60/43/60 
f 54/45/54 43/29/43 46/33/46 
f 55/46/55 45/56/45 44/57/44 
f 45/56/45 55/46/55 56/47/56 
f 42/37/42 35/53/35 32/51/32 
f 35/53/35 42/37/42 39/34/39 
f 33/29/33 32/30/32 35/32/35 
f 33/29/33 35/32/35 37/33/37 
f 57/48/57 52/50/52 51/52/51 
f 57/48/57 51/52/51 58/49/58 
f 40/35/40 34/35/34 56/47/56 
f 34/35/34 45/56/45 56/47/56 
f 31/29/31 45/32/45 34/31/34 
f 45/32/45 31/29/31 46/33/46 
f 47/38/47 49/40/49 53/38/53 
f 54/55/54 53/38/53 49/40/49 
f 50/41/50 59/41/59 48/39/48 
f 59/41/59 60/54/60 48/39/48 
f 36/29/36 60/43/60 59/44/59 
f 60/43/60 36/29/36 43/29/43 
f 41/36/41 55/46/55 38/36/38 
f 44/57/44 38/36/38 55/46/55 
f 61/58/61 62/59/62 63/59/63 
f 61/58/61 63/59/63 64/58/64 
f 62/59/62 61/58/61 65/58/65 
f 65/58/65 66/59/66 62/59/62 
f 65/58/65 67/59/67 66/59/66 
f 67/59/67 65/58/65 68/58/68 
f 67/59/67 68/58/68 69/58/69 
f 67/59/67 69/58/69 70/59/70 
f 70/59/70 71/58/71 72/59/72 
f 71/58/71 70/59/70 69/58/69 
f 63/59/63 71/58/71 64/58/64 
f 71/58/71 63/59/63 72/59/72 
f 66/60/66 72/61/72 62/62/62 
f 72/61/72 66/60/66 67/63/67 
f 67/63/67 70/64/70 72/61/72 
f 63/65/63 62/62/62 72/61/72 
f 73/66/62 74/67/73 75/68/61 
f 74/67/73 73/66/62 76/69/63 
f 75/68/61 77/70/74 73/66/62 
f 77/70/74 78/71/66 73/66/62 
f 78/71/66 77/70/74 79/72/75 
f 78/71/66 79/72/75 80/73/67 
f 80/73/67 79/72/75 81/74/76 
f 80/73/67 81/74/76 82/75/70 
f 82/75/70 83/76/71 84/77/72 
f 83/76/71 82/75/70 81/74/76 
f 74/67/73 76/69/63 84/77/72 
f 74/67/73 84/77/72 83/76/71 
f 78/71/66 84/77/72 73/66/62 
f 84/77/72 78/71/66 80/73/67 
f 80/73/67 82/75/70 84/77/72 
f 76/69/63 73/66/62 84/77/72 
# 144 faces

