# 3ds Max Wavefront OBJ Exporter v0.97b - (c)2007 guruware
# File Created: 27.10.2016 18:44:03

mtllib plane6_blades3.mtl

#
# object Catoon_AC130_fan2
#

v  -0.6551 -2.1735 -0.3245
v  0.5389 -4.4224 0.1873
v  0.2179 -2.1370 0.3245
v  -0.2194 0.0236 0.0756
v  -0.2194 0.0199 -0.0757
v  -0.9731 -4.4595 -0.1873
v  0.0437 -7.2928 -0.0000
v  -0.4819 -7.2981 -0.0000
v  -0.4523 0.5731 -0.0757
v  -2.5950 0.9285 -0.3245
v  -2.5950 0.1044 0.3244
v  -4.6946 1.1693 -0.1873
v  -4.6946 -0.2697 0.1873
v  -7.1184 0.6229 -0.0000
v  -7.1184 0.1224 -0.0000
v  4.4367 1.4241 0.1873
v  7.1184 0.4763 -0.0000
v  7.1184 0.9882 -0.0000
v  2.2018 1.0784 0.3244
v  4.4367 -0.0535 -0.1874
v  0.0001 0.6046 0.0756
v  2.2018 0.2176 -0.3244
v  0.0001 0.6011 -0.0757
v  -0.2194 1.1508 0.0756
v  0.2178 3.1797 -0.3245
v  -0.6551 3.1669 0.3245
v  -0.4819 7.2812 -0.0000
v  0.5389 5.1272 -0.1873
v  0.0436 7.2981 -0.0000
v  -0.9731 5.0870 0.1873
v  -0.2194 1.1475 -0.0757
# 31 vertices

vn -0.3643 -0.0001 0.9313
vn -0.0118 0.3916 0.9201
vn 0.0068 -0.3757 0.9267
vn 0.3778 -0.0001 0.9259
# 4 vertex normals

vt 0.0133 0.8921 0.0000
vt 0.0391 0.9305 0.0000
vt 0.0366 0.8921 0.0000
vt 0.0262 0.8537 0.0000
vt 0.0238 0.8537 0.0000
vt 0.0108 0.9305 0.0000
vt 0.0289 0.9759 0.0000
vt 0.0211 0.9759 0.0000
# 8 texture coords

g Catoon_AC130_fan2
usemtl fbadf353
s off
f 1/1/1 2/2/1 3/3/1 
f 3/3/1 4/4/1 5/5/1 
f 6/6/1 2/2/1 1/1/1 
f 7/7/1 6/6/1 8/8/1 
f 6/6/1 7/7/1 2/2/1 
f 3/3/1 5/5/1 1/1/1 
f 9/5/2 10/1/2 11/3/2 
f 12/6/2 11/3/2 10/1/2 
f 13/2/2 14/8/2 15/7/2 
f 13/2/2 12/6/2 14/8/2 
f 11/3/2 12/6/2 13/2/2 
f 16/2/3 17/8/3 18/7/3 
f 19/3/3 20/6/3 16/2/3 
f 21/4/3 22/1/3 19/3/3 
f 16/2/3 20/6/3 17/8/3 
f 22/1/3 21/4/3 23/5/3 
f 20/6/3 19/3/3 22/1/3 
f 24/4/4 25/1/4 26/3/4 
f 27/7/4 28/6/4 29/8/4 
f 28/6/4 27/7/4 30/2/4 
f 31/5/4 25/1/4 24/4/4 
f 25/1/4 30/2/4 26/3/4 
f 28/6/4 30/2/4 25/1/4 
# 23 faces

