# 3ds Max Wavefront OBJ Exporter v0.97b - (c)2007 guruware
# File Created: 17.05.2015 07:07:16

mtllib crosshair.mtl

#
# object Sphere006
#

v  0.0000 19.2502 -0.0000
v  -0.0000 17.7848 -7.3667
v  -2.8191 17.7848 -6.8060
v  -5.2091 17.7848 -5.2091
v  -6.8060 17.7848 -2.8191
v  -7.3667 17.7848 -0.0000
v  -6.8060 17.7848 2.8191
v  -5.2091 17.7848 5.2091
v  -2.8191 17.7848 6.8060
v  0.0000 17.7848 7.3667
v  2.8191 17.7848 6.8060
v  5.2091 17.7848 5.2091
v  6.8060 17.7848 2.8191
v  7.3667 17.7848 -0.0000
v  6.8060 17.7848 -2.8191
v  5.2091 17.7848 -5.2091
v  2.8191 17.7848 -6.8060
v  -5.2091 13.6119 -12.5758
v  -0.0000 13.6119 -13.6119
v  -9.6251 13.6119 -9.6251
v  -12.5758 13.6119 -5.2091
v  -13.6119 13.6119 -0.0000
v  -12.5758 13.6119 5.2091
v  -9.6251 13.6119 9.6251
v  -5.2091 13.6119 12.5758
v  0.0000 13.6119 13.6119
v  5.2091 13.6119 12.5758
v  9.6251 13.6119 9.6251
v  12.5758 13.6119 5.2091
v  13.6119 13.6119 -0.0000
v  12.5758 13.6119 -5.2091
v  9.6251 13.6119 -9.6251
v  5.2090 13.6119 -12.5758
v  -6.8060 7.3667 -16.4311
v  -0.0000 7.3667 -17.7848
v  -12.5758 7.3667 -12.5758
v  -16.4311 7.3667 -6.8060
v  -17.7848 7.3667 -0.0000
v  -16.4311 7.3667 6.8060
v  -12.5758 7.3667 12.5758
v  -6.8060 7.3667 16.4311
v  0.0000 7.3667 17.7848
v  6.8060 7.3667 16.4311
v  12.5758 7.3667 12.5758
v  16.4311 7.3667 6.8060
v  17.7848 7.3667 -0.0000
v  16.4311 7.3667 -6.8060
v  12.5758 7.3667 -12.5758
v  6.8059 7.3667 -16.4311
v  -7.3667 -0.0000 -17.7848
v  -0.0000 -0.0000 -19.2502
v  -13.6119 -0.0000 -13.6119
v  -17.7848 -0.0000 -7.3667
v  -19.2502 -0.0000 -0.0000
v  -17.7849 -0.0000 7.3667
v  -13.6119 -0.0000 13.6119
v  -7.3667 -0.0000 17.7848
v  0.0000 -0.0000 19.2502
v  7.3667 -0.0000 17.7848
v  13.6119 -0.0000 13.6119
v  17.7849 -0.0000 7.3667
v  19.2502 -0.0000 -0.0000
v  17.7848 -0.0000 -7.3667
v  13.6119 -0.0000 -13.6119
v  7.3667 -0.0000 -17.7849
v  -6.8060 -7.3667 -16.4311
v  -0.0000 -7.3667 -17.7848
v  -12.5758 -7.3667 -12.5758
v  -16.4311 -7.3667 -6.8060
v  -17.7848 -7.3667 -0.0000
v  -16.4311 -7.3667 6.8060
v  -12.5758 -7.3667 12.5758
v  -6.8060 -7.3667 16.4311
v  0.0000 -7.3667 17.7848
v  6.8060 -7.3667 16.4311
v  12.5758 -7.3667 12.5758
v  16.4311 -7.3667 6.8060
v  17.7848 -7.3667 -0.0000
v  16.4311 -7.3667 -6.8060
v  12.5758 -7.3667 -12.5758
v  6.8059 -7.3667 -16.4311
v  -5.2091 -13.6119 -12.5758
v  -0.0000 -13.6119 -13.6119
v  -9.6251 -13.6119 -9.6251
v  -12.5758 -13.6119 -5.2091
v  -13.6119 -13.6119 -0.0000
v  -12.5758 -13.6119 5.2091
v  -9.6251 -13.6119 9.6251
v  -5.2091 -13.6119 12.5758
v  0.0000 -13.6119 13.6119
v  5.2091 -13.6119 12.5758
v  9.6251 -13.6119 9.6251
v  12.5758 -13.6119 5.2091
v  13.6119 -13.6119 -0.0000
v  12.5758 -13.6119 -5.2091
v  9.6251 -13.6119 -9.6251
v  5.2090 -13.6119 -12.5758
v  -2.8191 -17.7848 -6.8060
v  -0.0000 -17.7848 -7.3667
v  -5.2091 -17.7848 -5.2091
v  -6.8060 -17.7848 -2.8191
v  -7.3667 -17.7848 -0.0000
v  -6.8060 -17.7848 2.8191
v  -5.2091 -17.7848 5.2091
v  -2.8191 -17.7848 6.8060
v  0.0000 -17.7848 7.3667
v  2.8191 -17.7848 6.8060
v  5.2091 -17.7848 5.2091
v  6.8060 -17.7848 2.8191
v  7.3667 -17.7848 -0.0000
v  6.8060 -17.7848 -2.8191
v  5.2091 -17.7848 -5.2091
v  2.8191 -17.7848 -6.8060
v  0.0000 -19.2502 -0.0000
v  -0.0000 0.8641 -33.0000
v  -0.0000 -0.8641 -33.0000
v  11.2867 -0.8641 -31.0099
v  11.2867 0.8641 -31.0099
v  -0.0000 -0.8641 -36.0000
v  12.3127 -0.8641 -33.8289
v  -0.0000 0.8641 -36.0000
v  12.3127 0.8641 -33.8289
v  21.2120 -0.8641 -25.2795
v  21.2120 0.8641 -25.2795
v  23.1404 -0.8641 -27.5776
v  23.1404 0.8641 -27.5776
v  28.5788 -0.8641 -16.5000
v  28.5788 0.8641 -16.5000
v  31.1769 -0.8641 -18.0000
v  31.1769 0.8641 -18.0000
v  32.4987 -0.8641 -5.7304
v  32.4987 0.8641 -5.7304
v  35.4531 -0.8641 -6.2513
v  35.4531 0.8641 -6.2513
v  32.4987 -0.8641 5.7304
v  32.4987 0.8641 5.7304
v  35.4531 -0.8641 6.2513
v  35.4531 0.8641 6.2513
v  28.5788 -0.8641 16.5000
v  28.5788 0.8641 16.5000
v  31.1769 -0.8641 18.0000
v  31.1769 0.8641 18.0000
v  21.2120 -0.8641 25.2795
v  21.2120 0.8641 25.2795
v  23.1403 -0.8641 27.5776
v  23.1403 0.8641 27.5776
v  11.2867 -0.8641 31.0099
v  11.2867 0.8641 31.0099
v  12.3127 -0.8641 33.8289
v  12.3127 0.8641 33.8289
v  -0.0000 -0.8641 33.0000
v  -0.0000 0.8641 33.0000
v  -0.0000 -0.8641 36.0000
v  -0.0000 0.8641 36.0000
v  -11.2867 -0.8641 31.0099
v  -11.2867 0.8641 31.0099
v  -12.3127 -0.8641 33.8289
v  -12.3127 0.8641 33.8289
v  -21.2120 -0.8641 25.2795
v  -21.2120 0.8641 25.2795
v  -23.1404 -0.8641 27.5776
v  -23.1404 0.8641 27.5776
v  -28.5788 -0.8641 16.5000
v  -28.5788 0.8641 16.5000
v  -31.1769 -0.8641 18.0000
v  -31.1769 0.8641 18.0000
v  -32.4987 -0.8641 5.7304
v  -32.4987 0.8641 5.7304
v  -35.4531 -0.8641 6.2513
v  -35.4531 0.8641 6.2513
v  -32.4987 -0.8641 -5.7304
v  -32.4987 0.8641 -5.7304
v  -35.4531 -0.8641 -6.2513
v  -35.4531 0.8641 -6.2513
v  -28.5788 -0.8641 -16.5000
v  -28.5788 0.8641 -16.5000
v  -31.1769 -0.8641 -18.0000
v  -31.1769 0.8641 -18.0000
v  -21.2120 -0.8641 -25.2795
v  -21.2120 0.8641 -25.2795
v  -23.1404 -0.8641 -27.5776
v  -23.1404 0.8641 -27.5776
v  -11.2867 -0.8641 -31.0099
v  -11.2867 0.8641 -31.0099
v  -12.3127 -0.8641 -33.8289
v  -12.3127 0.8641 -33.8289
v  -1.4065 -0.7134 27.8735
v  2.1444 -0.7134 27.8735
v  2.1443 -0.7134 55.4912
v  -1.4065 -0.7134 55.4912
v  -1.4065 0.8648 27.8735
v  -1.4065 0.8648 55.4912
v  2.1443 0.8648 55.4912
v  2.1444 0.8648 27.8735
v  -1.4065 -0.7134 -55.0621
v  2.1444 -0.7134 -55.0621
v  2.1444 -0.7134 -27.4444
v  -1.4065 -0.7134 -27.4444
v  -1.4065 0.8648 -55.0621
v  -1.4065 0.8648 -27.4444
v  2.1444 0.8648 -27.4444
v  2.1444 0.8648 -55.0621
v  28.0279 -0.7134 1.9900
v  28.0279 -0.7134 -1.5609
v  55.6456 -0.7134 -1.5609
v  55.6456 -0.7134 1.9900
v  28.0279 0.8648 1.9900
v  55.6456 0.8648 1.9900
v  55.6456 0.8648 -1.5609
v  28.0279 0.8648 -1.5609
v  -54.9077 -0.7134 1.9900
v  -54.9077 -0.7134 -1.5609
v  -27.2900 -0.7134 -1.5609
v  -27.2900 -0.7134 1.9900
v  -54.9077 0.8648 1.9900
v  -27.2900 0.8648 1.9900
v  -27.2900 0.8648 -1.5609
v  -54.9077 0.8648 -1.5609
# 218 vertices

vn -0.0000 1.0000 0.0000
vn -0.0000 0.9152 -0.4031
vn -0.1543 0.9152 -0.3724
vn -0.2850 0.9152 -0.2850
vn -0.3724 0.9152 -0.1543
vn -0.4031 0.9152 -0.0000
vn -0.3724 0.9152 0.1543
vn -0.2850 0.9152 0.2850
vn -0.1543 0.9152 0.3724
vn 0.0000 0.9152 0.4031
vn 0.1543 0.9152 0.3724
vn 0.2850 0.9152 0.2850
vn 0.3724 0.9152 0.1543
vn 0.4031 0.9152 -0.0000
vn 0.3724 0.9152 -0.1543
vn 0.2850 0.9152 -0.2850
vn 0.1543 0.9152 -0.3724
vn -0.2751 0.6952 -0.6641
vn -0.0000 0.6952 -0.7189
vn -0.5083 0.6952 -0.5083
vn -0.6641 0.6952 -0.2751
vn -0.7189 0.6952 -0.0000
vn -0.6641 0.6952 0.2751
vn -0.5083 0.6952 0.5083
vn -0.2751 0.6952 0.6641
vn 0.0000 0.6952 0.7189
vn 0.2751 0.6952 0.6641
vn 0.5083 0.6952 0.5083
vn 0.6641 0.6952 0.2751
vn 0.7189 0.6952 -0.0000
vn 0.6641 0.6952 -0.2751
vn 0.5083 0.6952 -0.5083
vn 0.2751 0.6952 -0.6641
vn -0.3549 0.3744 -0.8567
vn -0.0000 0.3744 -0.9273
vn -0.6557 0.3744 -0.6557
vn -0.8567 0.3744 -0.3549
vn -0.9273 0.3744 -0.0000
vn -0.8567 0.3744 0.3549
vn -0.6557 0.3744 0.6557
vn -0.3549 0.3744 0.8567
vn 0.0000 0.3744 0.9273
vn 0.3549 0.3744 0.8567
vn 0.6557 0.3744 0.6557
vn 0.8567 0.3744 0.3549
vn 0.9273 0.3744 -0.0000
vn 0.8567 0.3744 -0.3549
vn 0.6557 0.3744 -0.6557
vn 0.3549 0.3744 -0.8567
vn -0.3827 0.0000 -0.9239
vn -0.0000 -0.0000 -1.0000
vn -0.7071 -0.0000 -0.7071
vn -0.9239 -0.0000 -0.3827
vn -1.0000 0.0000 -0.0000
vn -0.9239 0.0000 0.3827
vn -0.7071 0.0000 0.7071
vn -0.3827 0.0000 0.9239
vn -0.0000 0.0000 1.0000
vn 0.3827 0.0000 0.9239
vn 0.7071 0.0000 0.7071
vn 0.9239 0.0000 0.3827
vn 1.0000 0.0000 -0.0000
vn 0.9239 -0.0000 -0.3827
vn 0.7071 -0.0000 -0.7071
vn 0.3827 0.0000 -0.9239
vn -0.3549 -0.3744 -0.8567
vn -0.0000 -0.3744 -0.9273
vn -0.6557 -0.3744 -0.6557
vn -0.8567 -0.3744 -0.3549
vn -0.9273 -0.3744 -0.0000
vn -0.8567 -0.3744 0.3549
vn -0.6557 -0.3744 0.6557
vn -0.3549 -0.3744 0.8567
vn 0.0000 -0.3744 0.9273
vn 0.3549 -0.3744 0.8567
vn 0.6557 -0.3744 0.6557
vn 0.8567 -0.3744 0.3549
vn 0.9273 -0.3744 -0.0000
vn 0.8567 -0.3744 -0.3549
vn 0.6557 -0.3744 -0.6557
vn 0.3549 -0.3744 -0.8567
vn -0.2751 -0.6952 -0.6641
vn -0.0000 -0.6952 -0.7189
vn -0.5083 -0.6952 -0.5083
vn -0.6641 -0.6952 -0.2751
vn -0.7189 -0.6952 -0.0000
vn -0.6641 -0.6952 0.2751
vn -0.5083 -0.6952 0.5083
vn -0.2751 -0.6952 0.6641
vn 0.0000 -0.6952 0.7189
vn 0.2751 -0.6952 0.6641
vn 0.5083 -0.6952 0.5083
vn 0.6641 -0.6952 0.2751
vn 0.7189 -0.6952 -0.0000
vn 0.6641 -0.6952 -0.2751
vn 0.5083 -0.6952 -0.5083
vn 0.2751 -0.6952 -0.6641
vn -0.1543 -0.9152 -0.3724
vn -0.0000 -0.9152 -0.4031
vn -0.2850 -0.9152 -0.2850
vn -0.3724 -0.9152 -0.1543
vn -0.4031 -0.9152 -0.0000
vn -0.3724 -0.9152 0.1543
vn -0.2850 -0.9152 0.2850
vn -0.1543 -0.9152 0.3724
vn 0.0000 -0.9152 0.4031
vn 0.1543 -0.9152 0.3724
vn 0.2850 -0.9152 0.2850
vn 0.3724 -0.9152 0.1543
vn 0.4031 -0.9152 -0.0000
vn 0.3724 -0.9152 -0.1543
vn 0.2850 -0.9152 -0.2850
vn 0.1543 -0.9152 -0.3724
vn -0.0000 -1.0000 -0.0000
vn -0.0000 0.7484 0.6633
vn -0.0000 -0.7484 0.6633
vn -0.2269 -0.7484 0.6233
vn -0.2269 0.7484 0.6233
vn 0.0000 -0.6700 -0.7423
vn 0.2539 -0.6700 -0.6976
vn 0.0000 0.6700 -0.7423
vn 0.2539 0.6700 -0.6976
vn -0.4264 -0.7484 0.5081
vn -0.4264 0.7484 0.5081
vn 0.4772 -0.6700 -0.5687
vn 0.4772 0.6700 -0.5687
vn -0.5744 -0.7484 0.3316
vn -0.5744 0.7484 0.3316
vn 0.6429 -0.6700 -0.3712
vn 0.6429 0.6700 -0.3712
vn -0.6532 -0.7484 0.1152
vn -0.6532 0.7484 0.1152
vn 0.7311 -0.6700 -0.1289
vn 0.7311 0.6700 -0.1289
vn -0.6532 -0.7484 -0.1152
vn -0.6532 0.7484 -0.1152
vn 0.7311 -0.6700 0.1289
vn 0.7311 0.6700 0.1289
vn -0.5744 -0.7484 -0.3316
vn -0.5744 0.7484 -0.3316
vn 0.6429 -0.6700 0.3712
vn 0.6429 0.6700 0.3712
vn -0.4264 -0.7484 -0.5081
vn -0.4264 0.7484 -0.5081
vn 0.4772 -0.6700 0.5687
vn 0.4772 0.6700 0.5687
vn -0.2269 -0.7484 -0.6233
vn -0.2269 0.7484 -0.6233
vn 0.2539 -0.6700 0.6976
vn 0.2539 0.6700 0.6976
vn 0.0000 -0.7484 -0.6633
vn 0.0000 0.7484 -0.6633
vn -0.0000 -0.6700 0.7423
vn -0.0000 0.6700 0.7423
vn 0.2269 -0.7484 -0.6233
vn 0.2269 0.7484 -0.6233
vn -0.2539 -0.6700 0.6976
vn -0.2539 0.6700 0.6976
vn 0.4264 -0.7484 -0.5081
vn 0.4264 0.7484 -0.5081
vn -0.4772 -0.6700 0.5687
vn -0.4772 0.6700 0.5687
vn 0.5744 -0.7484 -0.3316
vn 0.5744 0.7484 -0.3316
vn -0.6429 -0.6700 0.3712
vn -0.6429 0.6700 0.3712
vn 0.6532 -0.7484 -0.1152
vn 0.6532 0.7484 -0.1152
vn -0.7311 -0.6700 0.1289
vn -0.7311 0.6700 0.1289
vn 0.6532 -0.7484 0.1152
vn 0.6532 0.7484 0.1152
vn -0.7311 -0.6700 -0.1289
vn -0.7311 0.6700 -0.1289
vn 0.5744 -0.7484 0.3316
vn 0.5744 0.7484 0.3316
vn -0.6429 -0.6700 -0.3712
vn -0.6429 0.6700 -0.3712
vn 0.4264 -0.7484 0.5081
vn 0.4264 0.7484 0.5081
vn -0.4772 -0.6700 -0.5687
vn -0.4772 0.6700 -0.5687
vn 0.2269 -0.7484 0.6233
vn 0.2269 0.7484 0.6233
vn -0.2539 -0.6700 -0.6976
vn -0.2539 0.6700 -0.6976
vn -0.5774 -0.5774 -0.5774
vn 0.5774 -0.5774 -0.5774
vn 0.5774 -0.5774 0.5774
vn -0.5774 -0.5774 0.5774
vn -0.5774 0.5774 -0.5774
vn -0.5774 0.5774 0.5774
vn 0.5774 0.5774 0.5774
vn 0.5774 0.5774 -0.5774
# 194 vertex normals

vt 0.4968 0.5018 0.0000
vt 0.4968 0.5648 0.0000
vt 0.4727 0.5600 0.0000
vt 0.4523 0.5464 0.0000
vt 0.4387 0.5259 0.0000
vt 0.4339 0.5018 0.0000
vt 0.4387 0.4777 0.0000
vt 0.4523 0.4573 0.0000
vt 0.4727 0.4437 0.0000
vt 0.4968 0.4389 0.0000
vt 0.5209 0.4437 0.0000
vt 0.5414 0.4573 0.0000
vt 0.5550 0.4777 0.0000
vt 0.5598 0.5018 0.0000
vt 0.5550 0.5259 0.0000
vt 0.5414 0.5464 0.0000
vt 0.5209 0.5600 0.0000
vt 0.4523 0.6093 0.0000
vt 0.4968 0.6182 0.0000
vt 0.4146 0.5841 0.0000
vt 0.3893 0.5464 0.0000
vt 0.3805 0.5018 0.0000
vt 0.3893 0.4573 0.0000
vt 0.4146 0.4196 0.0000
vt 0.4523 0.3943 0.0000
vt 0.4968 0.3855 0.0000
vt 0.5414 0.3943 0.0000
vt 0.5791 0.4196 0.0000
vt 0.6043 0.4573 0.0000
vt 0.6132 0.5018 0.0000
vt 0.6043 0.5464 0.0000
vt 0.5791 0.5841 0.0000
vt 0.5414 0.6093 0.0000
vt 0.4387 0.6423 0.0000
vt 0.4968 0.6539 0.0000
vt 0.3893 0.6093 0.0000
vt 0.3564 0.5600 0.0000
vt 0.3448 0.5018 0.0000
vt 0.3564 0.4437 0.0000
vt 0.3893 0.3943 0.0000
vt 0.4387 0.3614 0.0000
vt 0.4968 0.3498 0.0000
vt 0.5550 0.3614 0.0000
vt 0.6043 0.3943 0.0000
vt 0.6373 0.4437 0.0000
vt 0.6489 0.5018 0.0000
vt 0.6373 0.5600 0.0000
vt 0.6043 0.6093 0.0000
vt 0.5550 0.6423 0.0000
vt 0.4339 0.6539 0.0000
vt 0.4968 0.6664 0.0000
vt 0.3805 0.6182 0.0000
vt 0.3448 0.5648 0.0000
vt 0.3323 0.5018 0.0000
vt 0.3448 0.4389 0.0000
vt 0.3805 0.3855 0.0000
vt 0.4339 0.3498 0.0000
vt 0.4968 0.3373 0.0000
vt 0.5598 0.3498 0.0000
vt 0.6132 0.3855 0.0000
vt 0.6489 0.4389 0.0000
vt 0.6614 0.5018 0.0000
vt 0.6489 0.5648 0.0000
vt 0.6132 0.6182 0.0000
vt 0.5598 0.6539 0.0000
vt 0.4968 0.7839 0.0000
vt 0.5933 0.7669 0.0000
vt 0.4968 0.8096 0.0000
vt 0.6021 0.7910 0.0000
vt 0.6782 0.7179 0.0000
vt 0.6946 0.7376 0.0000
vt 0.7411 0.6429 0.0000
vt 0.7633 0.6557 0.0000
vt 0.7746 0.5508 0.0000
vt 0.7999 0.5553 0.0000
vt 0.7746 0.4529 0.0000
vt 0.7999 0.4484 0.0000
vt 0.7411 0.3608 0.0000
vt 0.7633 0.3480 0.0000
vt 0.6782 0.2857 0.0000
vt 0.6946 0.2661 0.0000
vt 0.5933 0.2368 0.0000
vt 0.6021 0.2127 0.0000
vt 0.4968 0.2198 0.0000
vt 0.4968 0.1941 0.0000
vt 0.4004 0.2368 0.0000
vt 0.3916 0.2127 0.0000
vt 0.3155 0.2857 0.0000
vt 0.2990 0.2661 0.0000
vt 0.2526 0.3608 0.0000
vt 0.2303 0.3480 0.0000
vt 0.2191 0.4529 0.0000
vt 0.1938 0.4484 0.0000
vt 0.2191 0.5508 0.0000
vt 0.1938 0.5553 0.0000
vt 0.2526 0.6429 0.0000
vt 0.2303 0.6557 0.0000
vt 0.3155 0.7179 0.0000
vt 0.2990 0.7376 0.0000
vt 0.4004 0.7669 0.0000
vt 0.3916 0.7910 0.0000
vt 0.4848 0.2636 0.0000
vt 0.5152 0.2636 0.0000
vt 0.5152 0.0275 0.0000
vt 0.4848 0.0275 0.0000
vt 0.4848 0.9725 0.0000
vt 0.5152 0.9725 0.0000
vt 0.5152 0.7364 0.0000
vt 0.4848 0.7364 0.0000
vt 0.7364 0.4848 0.0000
vt 0.7364 0.5152 0.0000
vt 0.9725 0.5152 0.0000
vt 0.9725 0.4848 0.0000
vt 0.0275 0.4848 0.0000
vt 0.0275 0.5152 0.0000
vt 0.2636 0.5152 0.0000
vt 0.2636 0.4848 0.0000
# 117 texture coords

g Sphere006
usemtl 22___Default
s 1
f 1/1/1 2/2/2 3/3/3 
f 1/1/1 3/3/3 4/4/4 
f 1/1/1 4/4/4 5/5/5 
f 1/1/1 5/5/5 6/6/6 
f 1/1/1 6/6/6 7/7/7 
f 1/1/1 7/7/7 8/8/8 
f 1/1/1 8/8/8 9/9/9 
f 1/1/1 9/9/9 10/10/10 
f 1/1/1 10/10/10 11/11/11 
f 1/1/1 11/11/11 12/12/12 
f 1/1/1 12/12/12 13/13/13 
f 1/1/1 13/13/13 14/14/14 
f 1/1/1 14/14/14 15/15/15 
f 1/1/1 15/15/15 16/16/16 
f 1/1/1 16/16/16 17/17/17 
f 1/1/1 17/17/17 2/2/2 
f 18/18/18 3/3/3 2/2/2 19/19/19 
f 20/20/20 4/4/4 3/3/3 18/18/18 
f 21/21/21 5/5/5 4/4/4 20/20/20 
f 22/22/22 6/6/6 5/5/5 21/21/21 
f 23/23/23 7/7/7 6/6/6 22/22/22 
f 24/24/24 8/8/8 7/7/7 23/23/23 
f 25/25/25 9/9/9 8/8/8 24/24/24 
f 26/26/26 10/10/10 9/9/9 25/25/25 
f 27/27/27 11/11/11 10/10/10 26/26/26 
f 28/28/28 12/12/12 11/11/11 27/27/27 
f 29/29/29 13/13/13 12/12/12 28/28/28 
f 30/30/30 14/14/14 13/13/13 29/29/29 
f 31/31/31 15/15/15 14/14/14 30/30/30 
f 32/32/32 16/16/16 15/15/15 31/31/31 
f 33/33/33 17/17/17 16/16/16 32/32/32 
f 19/19/19 2/2/2 17/17/17 33/33/33 
f 34/34/34 18/18/18 19/19/19 35/35/35 
f 36/36/36 20/20/20 18/18/18 34/34/34 
f 37/37/37 21/21/21 20/20/20 36/36/36 
f 38/38/38 22/22/22 21/21/21 37/37/37 
f 39/39/39 23/23/23 22/22/22 38/38/38 
f 40/40/40 24/24/24 23/23/23 39/39/39 
f 41/41/41 25/25/25 24/24/24 40/40/40 
f 42/42/42 26/26/26 25/25/25 41/41/41 
f 43/43/43 27/27/27 26/26/26 42/42/42 
f 44/44/44 28/28/28 27/27/27 43/43/43 
f 45/45/45 29/29/29 28/28/28 44/44/44 
f 46/46/46 30/30/30 29/29/29 45/45/45 
f 47/47/47 31/31/31 30/30/30 46/46/46 
f 48/48/48 32/32/32 31/31/31 47/47/47 
f 49/49/49 33/33/33 32/32/32 48/48/48 
f 35/35/35 19/19/19 33/33/33 49/49/49 
f 50/50/50 34/34/34 35/35/35 51/51/51 
f 52/52/52 36/36/36 34/34/34 50/50/50 
f 53/53/53 37/37/37 36/36/36 52/52/52 
f 54/54/54 38/38/38 37/37/37 53/53/53 
f 55/55/55 39/39/39 38/38/38 54/54/54 
f 56/56/56 40/40/40 39/39/39 55/55/55 
f 57/57/57 41/41/41 40/40/40 56/56/56 
f 58/58/58 42/42/42 41/41/41 57/57/57 
f 59/59/59 43/43/43 42/42/42 58/58/58 
f 60/60/60 44/44/44 43/43/43 59/59/59 
f 61/61/61 45/45/45 44/44/44 60/60/60 
f 62/62/62 46/46/46 45/45/45 61/61/61 
f 63/63/63 47/47/47 46/46/46 62/62/62 
f 64/64/64 48/48/48 47/47/47 63/63/63 
f 65/65/65 49/49/49 48/48/48 64/64/64 
f 51/51/51 35/35/35 49/49/49 65/65/65 
f 66/34/66 50/50/50 51/51/51 67/35/67 
f 68/36/68 52/52/52 50/50/50 66/34/66 
f 69/37/69 53/53/53 52/52/52 68/36/68 
f 70/38/70 54/54/54 53/53/53 69/37/69 
f 71/39/71 55/55/55 54/54/54 70/38/70 
f 72/40/72 56/56/56 55/55/55 71/39/71 
f 73/41/73 57/57/57 56/56/56 72/40/72 
f 74/42/74 58/58/58 57/57/57 73/41/73 
f 75/43/75 59/59/59 58/58/58 74/42/74 
f 76/44/76 60/60/60 59/59/59 75/43/75 
f 77/45/77 61/61/61 60/60/60 76/44/76 
f 78/46/78 62/62/62 61/61/61 77/45/77 
f 79/47/79 63/63/63 62/62/62 78/46/78 
f 80/48/80 64/64/64 63/63/63 79/47/79 
f 81/49/81 65/65/65 64/64/64 80/48/80 
f 67/35/67 51/51/51 65/65/65 81/49/81 
f 82/18/82 66/34/66 67/35/67 83/19/83 
f 84/20/84 68/36/68 66/34/66 82/18/82 
f 85/21/85 69/37/69 68/36/68 84/20/84 
f 86/22/86 70/38/70 69/37/69 85/21/85 
f 87/23/87 71/39/71 70/38/70 86/22/86 
f 88/24/88 72/40/72 71/39/71 87/23/87 
f 89/25/89 73/41/73 72/40/72 88/24/88 
f 90/26/90 74/42/74 73/41/73 89/25/89 
f 91/27/91 75/43/75 74/42/74 90/26/90 
f 92/28/92 76/44/76 75/43/75 91/27/91 
f 93/29/93 77/45/77 76/44/76 92/28/92 
f 94/30/94 78/46/78 77/45/77 93/29/93 
f 95/31/95 79/47/79 78/46/78 94/30/94 
f 96/32/96 80/48/80 79/47/79 95/31/95 
f 97/33/97 81/49/81 80/48/80 96/32/96 
f 83/19/83 67/35/67 81/49/81 97/33/97 
f 98/3/98 82/18/82 83/19/83 99/2/99 
f 100/4/100 84/20/84 82/18/82 98/3/98 
f 101/5/101 85/21/85 84/20/84 100/4/100 
f 102/6/102 86/22/86 85/21/85 101/5/101 
f 103/7/103 87/23/87 86/22/86 102/6/102 
f 104/8/104 88/24/88 87/23/87 103/7/103 
f 105/9/105 89/25/89 88/24/88 104/8/104 
f 106/10/106 90/26/90 89/25/89 105/9/105 
f 107/11/107 91/27/91 90/26/90 106/10/106 
f 108/12/108 92/28/92 91/27/91 107/11/107 
f 109/13/109 93/29/93 92/28/92 108/12/108 
f 110/14/110 94/30/94 93/29/93 109/13/109 
f 111/15/111 95/31/95 94/30/94 110/14/110 
f 112/16/112 96/32/96 95/31/95 111/15/111 
f 113/17/113 97/33/97 96/32/96 112/16/112 
f 99/2/99 83/19/83 97/33/97 113/17/113 
f 114/1/114 98/3/98 99/2/99 
f 114/1/114 100/4/100 98/3/98 
f 114/1/114 101/5/101 100/4/100 
f 114/1/114 102/6/102 101/5/101 
f 114/1/114 103/7/103 102/6/102 
f 114/1/114 104/8/104 103/7/103 
f 114/1/114 105/9/105 104/8/104 
f 114/1/114 106/10/106 105/9/105 
f 114/1/114 107/11/107 106/10/106 
f 114/1/114 108/12/108 107/11/107 
f 114/1/114 109/13/109 108/12/108 
f 114/1/114 110/14/110 109/13/109 
f 114/1/114 111/15/111 110/14/110 
f 114/1/114 112/16/112 111/15/111 
f 114/1/114 113/17/113 112/16/112 
f 114/1/114 99/2/99 113/17/113 
f 115/66/115 116/66/116 117/67/117 118/67/118 
f 116/66/116 119/68/119 120/69/120 117/67/117 
f 119/68/119 121/68/121 122/69/122 120/69/120 
f 121/68/121 115/66/115 118/67/118 122/69/122 
f 118/67/118 117/67/117 123/70/123 124/70/124 
f 117/67/117 120/69/120 125/71/125 123/70/123 
f 120/69/120 122/69/122 126/71/126 125/71/125 
f 122/69/122 118/67/118 124/70/124 126/71/126 
f 124/70/124 123/70/123 127/72/127 128/72/128 
f 123/70/123 125/71/125 129/73/129 127/72/127 
f 125/71/125 126/71/126 130/73/130 129/73/129 
f 126/71/126 124/70/124 128/72/128 130/73/130 
f 128/72/128 127/72/127 131/74/131 132/74/132 
f 127/72/127 129/73/129 133/75/133 131/74/131 
f 129/73/129 130/73/130 134/75/134 133/75/133 
f 130/73/130 128/72/128 132/74/132 134/75/134 
f 132/74/132 131/74/131 135/76/135 136/76/136 
f 131/74/131 133/75/133 137/77/137 135/76/135 
f 133/75/133 134/75/134 138/77/138 137/77/137 
f 134/75/134 132/74/132 136/76/136 138/77/138 
f 136/76/136 135/76/135 139/78/139 140/78/140 
f 135/76/135 137/77/137 141/79/141 139/78/139 
f 137/77/137 138/77/138 142/79/142 141/79/141 
f 138/77/138 136/76/136 140/78/140 142/79/142 
f 140/78/140 139/78/139 143/80/143 144/80/144 
f 139/78/139 141/79/141 145/81/145 143/80/143 
f 141/79/141 142/79/142 146/81/146 145/81/145 
f 142/79/142 140/78/140 144/80/144 146/81/146 
f 144/80/144 143/80/143 147/82/147 148/82/148 
f 143/80/143 145/81/145 149/83/149 147/82/147 
f 145/81/145 146/81/146 150/83/150 149/83/149 
f 146/81/146 144/80/144 148/82/148 150/83/150 
f 148/82/148 147/82/147 151/84/151 152/84/152 
f 147/82/147 149/83/149 153/85/153 151/84/151 
f 149/83/149 150/83/150 154/85/154 153/85/153 
f 150/83/150 148/82/148 152/84/152 154/85/154 
f 152/84/152 151/84/151 155/86/155 156/86/156 
f 151/84/151 153/85/153 157/87/157 155/86/155 
f 153/85/153 154/85/154 158/87/158 157/87/157 
f 154/85/154 152/84/152 156/86/156 158/87/158 
f 156/86/156 155/86/155 159/88/159 160/88/160 
f 155/86/155 157/87/157 161/89/161 159/88/159 
f 157/87/157 158/87/158 162/89/162 161/89/161 
f 158/87/158 156/86/156 160/88/160 162/89/162 
f 160/88/160 159/88/159 163/90/163 164/90/164 
f 159/88/159 161/89/161 165/91/165 163/90/163 
f 161/89/161 162/89/162 166/91/166 165/91/165 
f 162/89/162 160/88/160 164/90/164 166/91/166 
f 164/90/164 163/90/163 167/92/167 168/92/168 
f 163/90/163 165/91/165 169/93/169 167/92/167 
f 165/91/165 166/91/166 170/93/170 169/93/169 
f 166/91/166 164/90/164 168/92/168 170/93/170 
f 168/92/168 167/92/167 171/94/171 172/94/172 
f 167/92/167 169/93/169 173/95/173 171/94/171 
f 169/93/169 170/93/170 174/95/174 173/95/173 
f 170/93/170 168/92/168 172/94/172 174/95/174 
f 172/94/172 171/94/171 175/96/175 176/96/176 
f 171/94/171 173/95/173 177/97/177 175/96/175 
f 173/95/173 174/95/174 178/97/178 177/97/177 
f 174/95/174 172/94/172 176/96/176 178/97/178 
f 176/96/176 175/96/175 179/98/179 180/98/180 
f 175/96/175 177/97/177 181/99/181 179/98/179 
f 177/97/177 178/97/178 182/99/182 181/99/181 
f 178/97/178 176/96/176 180/98/180 182/99/182 
f 180/98/180 179/98/179 183/100/183 184/100/184 
f 179/98/179 181/99/181 185/101/185 183/100/183 
f 181/99/181 182/99/182 186/101/186 185/101/185 
f 182/99/182 180/98/180 184/100/184 186/101/186 
f 184/100/184 183/100/183 116/66/116 115/66/115 
f 183/100/183 185/101/185 119/68/119 116/66/116 
f 185/101/185 186/101/186 121/68/121 119/68/119 
f 186/101/186 184/100/184 115/66/115 121/68/121 
f 187/102/187 188/103/188 189/104/189 190/105/190 
f 191/102/191 192/105/192 193/104/193 194/103/194 
f 187/102/187 190/105/190 192/105/192 191/102/191 
f 190/105/190 189/104/189 193/104/193 192/105/192 
f 189/104/189 188/103/188 194/103/194 193/104/193 
f 188/103/188 187/102/187 191/102/191 194/103/194 
f 195/106/187 196/107/188 197/108/189 198/109/190 
f 199/106/191 200/109/192 201/108/193 202/107/194 
f 195/106/187 198/109/190 200/109/192 199/106/191 
f 198/109/190 197/108/189 201/108/193 200/109/192 
f 197/108/189 196/107/188 202/107/194 201/108/193 
f 196/107/188 195/106/187 199/106/191 202/107/194 
f 203/110/190 204/111/187 205/112/188 206/113/189 
f 207/110/192 208/113/193 209/112/194 210/111/191 
f 203/110/190 206/113/189 208/113/193 207/110/192 
f 206/113/189 205/112/188 209/112/194 208/113/193 
f 205/112/188 204/111/187 210/111/191 209/112/194 
f 204/111/187 203/110/190 207/110/192 210/111/191 
f 211/114/190 212/115/187 213/116/188 214/117/189 
f 215/114/192 216/117/193 217/116/194 218/115/191 
f 211/114/190 214/117/189 216/117/193 215/114/192 
f 214/117/189 213/116/188 217/116/194 216/117/193 
f 213/116/188 212/115/187 218/115/191 217/116/194 
f 212/115/187 211/114/190 215/114/192 218/115/191 
# 192 polygons - 32 triangles

