# 3ds Max Wavefront OBJ Exporter v0.97b - (c)2007 guruware
# File Created: 20.07.2015 08:32:23

mtllib grass.mtl

#
# object Box027
#

v  -12.5000 0.0000 12.5000
v  -12.5000 0.0000 -12.5000
v  12.5000 0.0000 -12.5000
v  12.5000 0.0000 12.5000
v  -12.5000 25.0000 12.5000
v  12.5000 25.0000 12.5000
v  12.5000 25.0000 -12.5000
v  -12.5000 25.0000 -12.5000
# 8 vertices

vn 0.0000 -1.0000 -0.0000
vn 0.0000 1.0000 -0.0000
vn 0.0000 0.0000 1.0000
vn 1.0000 0.0000 -0.0000
vn 0.0000 0.0000 -1.0000
vn -1.0000 0.0000 -0.0000
# 6 vertex normals

vt -0.0000 1.0000 0.0000
vt 0.0000 -0.0000 0.0000
vt 1.0000 0.0000 0.0000
vt 1.0000 1.0000 0.0000
vt -0.0000 0.0000 0.0000
vt 1.0000 -0.0000 0.0000
vt 0.0000 1.0000 0.0000
vt 0.0000 0.0000 0.0000
# 8 texture coords

g Box027
usemtl 03___Default
s 2
f 1/1/1 2/2/1 3/3/1 4/4/1 
s 4
f 5/5/2 6/6/2 7/4/2 8/7/2 
s 8
f 1/8/3 4/3/3 6/4/3 5/7/3 
s 16
f 4/8/4 3/3/4 7/4/4 6/7/4 
s 32
f 3/8/5 2/3/5 8/4/5 7/7/5 
s 64
f 2/8/6 1/3/6 5/4/6 8/7/6 
# 6 polygons

