# 3ds Max Wavefront OBJ Exporter v0.97b - (c)2007 guruware
# File Created: 24.10.2015 19:04:31

mtllib card0.mtl

#
# object Plane004
#

v  -19.3780 0.4000 -27.8990
v  -19.9246 0.4000 -27.3525
v  -20.2618 0.4000 -26.5382
v  -20.2618 0.4000 26.5382
v  -19.9245 0.4000 27.3525
v  -19.3780 0.4000 27.8990
v  -18.5638 0.4000 28.2363
v  18.5638 0.4000 28.2363
v  19.3780 0.4000 27.8990
v  19.9246 0.4000 27.3525
v  20.2618 0.4000 26.5382
v  20.2618 0.4000 -26.5382
v  19.9246 0.4000 -27.3525
v  19.3780 0.4000 -27.8990
v  18.5638 0.4000 -28.2363
v  -18.5638 0.4000 -28.2363
v  18.5638 -0.4000 -28.2363
v  -18.5638 -0.4000 -28.2363
v  -19.3780 -0.4000 -27.8990
v  -19.9246 -0.4000 -27.3525
v  -20.2618 -0.4000 -26.5382
v  -20.2618 -0.4000 26.5382
v  -19.9245 -0.4000 27.3525
v  -19.3780 -0.4000 27.8990
v  -18.5638 -0.4000 28.2363
v  18.5638 -0.4000 28.2363
v  19.3780 -0.4000 27.8990
v  19.9246 -0.4000 27.3525
v  20.2618 -0.4000 26.5382
v  20.2618 -0.4000 -26.5382
v  19.9246 -0.4000 -27.3525
v  19.3780 -0.4000 -27.8990
# 32 vertices

vn 0.0000 1.0000 -0.0000
vn 0.0000 0.0000 -1.0000
vn -0.3827 0.0000 -0.9239
vn -0.7071 0.0000 -0.7071
vn -0.9239 0.0000 -0.3827
vn -1.0000 0.0000 0.0000
vn -0.9239 0.0000 0.3827
vn -0.7071 0.0000 0.7071
vn -0.3827 0.0000 0.9239
vn 0.0000 0.0000 1.0000
vn 0.3827 0.0000 0.9239
vn 0.7071 0.0000 0.7071
vn 0.9239 0.0000 0.3827
vn 1.0000 0.0000 -0.0000
vn 0.9239 0.0000 -0.3827
vn 0.7071 0.0000 -0.7071
vn 0.3827 0.0000 -0.9239
vn 0.0000 -1.0000 -0.0000
# 18 vertex normals

vt 0.0415 0.9833 0.0000
vt 0.0284 0.9738 0.0000
vt 0.0203 0.9597 0.0000
vt 0.0203 0.0393 0.0000
vt 0.0284 0.0252 0.0000
vt 0.0415 0.0157 0.0000
vt 0.0611 0.0098 0.0000
vt 0.9524 0.0098 0.0000
vt 0.9719 0.0157 0.0000
vt 0.9850 0.0252 0.0000
vt 0.9931 0.0393 0.0000
vt 0.9931 0.9597 0.0000
vt 0.9850 0.9738 0.0000
vt 0.9719 0.9833 0.0000
vt 0.9524 0.9892 0.0000
vt 0.0611 0.9892 0.0000
# 16 texture coords

g Plane004
usemtl 13___Default
s 1
f 1/1/1 2/2/1 3/3/1 
f 3/3/1 4/4/1 5/5/1 
f 5/5/1 6/6/1 7/7/1 
f 3/3/1 5/5/1 7/7/1 
f 7/7/1 8/8/1 9/9/1 
f 9/9/1 10/10/1 11/11/1 
f 7/7/1 9/9/1 11/11/1 
f 11/11/1 12/12/1 13/13/1 
f 13/13/1 14/14/1 15/15/1 
f 11/11/1 13/13/1 15/15/1 
f 7/7/1 11/11/1 15/15/1 
f 3/3/1 7/7/1 15/15/1 
f 1/1/1 3/3/1 15/15/1 
f 16/16/1 1/1/1 15/15/1 
s off
f 17/15/2 18/16/2 16/16/2 
f 16/16/2 15/15/2 17/15/2 
f 18/16/3 19/1/3 1/1/3 
f 1/1/3 16/16/3 18/16/3 
f 19/1/4 20/2/4 2/2/4 
f 2/2/4 1/1/4 19/1/4 
f 20/2/5 21/3/5 3/3/5 
f 3/3/5 2/2/5 20/2/5 
f 21/3/6 22/4/6 4/4/6 
f 4/4/6 3/3/6 21/3/6 
f 22/4/7 23/5/7 5/5/7 
f 5/5/7 4/4/7 22/4/7 
f 23/5/8 24/6/8 6/6/8 
f 6/6/8 5/5/8 23/5/8 
f 24/6/9 25/7/9 7/7/9 
f 7/7/9 6/6/9 24/6/9 
f 25/7/10 26/8/10 8/8/10 
f 8/8/10 7/7/10 25/7/10 
f 26/8/11 27/9/11 9/9/11 
f 9/9/11 8/8/11 26/8/11 
f 27/9/12 28/10/12 10/10/12 
f 10/10/12 9/9/12 27/9/12 
f 28/10/13 29/11/13 11/11/13 
f 11/11/13 10/10/13 28/10/13 
f 29/11/14 30/12/14 12/12/14 
f 12/12/14 11/11/14 29/11/14 
f 30/12/15 31/13/15 13/13/15 
f 13/13/15 12/12/15 30/12/15 
f 31/13/16 32/14/16 14/14/16 
f 14/14/16 13/13/16 31/13/16 
f 32/14/17 17/15/17 15/15/17 
f 15/15/17 14/14/17 32/14/17 
usemtl front
s 1
f 17/16/18 32/1/18 31/2/18 
f 31/2/18 30/3/18 29/4/18 
f 17/16/18 31/2/18 29/4/18 
f 29/4/18 28/5/18 27/6/18 
f 27/6/18 26/7/18 25/8/18 
f 29/4/18 27/6/18 25/8/18 
f 17/16/18 29/4/18 25/8/18 
f 25/8/18 24/9/18 23/10/18 
f 23/10/18 22/11/18 21/12/18 
f 25/8/18 23/10/18 21/12/18 
f 17/16/18 25/8/18 21/12/18 
f 21/12/18 20/13/18 19/14/18 
f 17/16/18 21/12/18 19/14/18 
f 18/15/18 17/16/18 19/14/18 
# 60 faces

