# 3ds Max Wavefront OBJ Exporter v0.97b - (c)2007 guruware
# File Created: 14.12.2015 12:00:00

mtllib roundArrow.mtl

#
# object Rectangle002
#

v  -0.0000 0.0000 0.9710
v  0.4016 -0.2318 0.4984
v  0.4637 0.0000 0.4984
v  0.1474 -0.0851 0.4984
v  0.1702 0.0000 0.4984
v  0.1474 -0.0851 -0.0000
v  0.1702 0.0000 -0.0000
v  0.0000 0.0000 -0.0000
v  0.2318 -0.4016 0.4984
v  0.0851 -0.1474 0.4984
v  0.0851 -0.1474 0.0000
v  -0.0000 -0.4637 0.4984
v  -0.0000 -0.1702 0.4984
v  -0.0000 -0.1702 0.0000
v  -0.2318 -0.4016 0.4984
v  -0.0851 -0.1474 0.4984
v  -0.0851 -0.1474 0.0000
v  -0.4016 -0.2318 0.4984
v  -0.1474 -0.0851 0.4984
v  -0.1474 -0.0851 -0.0000
v  -0.4637 0.0000 0.4984
v  -0.1702 0.0000 0.4984
v  -0.1702 0.0000 -0.0000
v  -0.4016 0.2318 0.4984
v  -0.1474 0.0851 0.4984
v  -0.1474 0.0851 -0.0000
v  -0.2318 0.4016 0.4984
v  -0.0851 0.1474 0.4984
v  -0.0851 0.1474 -0.0000
v  0.0000 0.4637 0.4984
v  0.0000 0.1702 0.4984
v  0.0000 0.1702 -0.0000
v  0.2318 0.4016 0.4984
v  0.0851 0.1474 0.4984
v  0.0851 0.1474 -0.0000
v  0.4016 0.2318 0.4984
v  0.1474 0.0851 0.4984
v  0.1474 0.0851 -0.0000
# 38 vertices

vn -0.0000 0.0000 1.0000
vn 0.6182 -0.3569 0.7003
vn 0.7139 -0.0000 0.7003
vn 0.0000 -0.0000 -1.0000
vn 1.0000 -0.0000 0.0000
vn 0.8660 -0.5000 0.0000
vn -0.0000 -0.0000 -1.0000
vn 0.3569 -0.6182 0.7003
vn 0.5000 -0.8660 0.0000
vn -0.0000 -0.7139 0.7003
vn -0.0000 -1.0000 0.0000
vn -0.3569 -0.6182 0.7003
vn -0.5000 -0.8660 0.0000
vn -0.6182 -0.3569 0.7003
vn -0.8660 -0.5000 0.0000
vn -0.7139 0.0000 0.7003
vn -1.0000 0.0000 0.0000
vn -0.6182 0.3569 0.7003
vn -0.8660 0.5000 0.0000
vn -0.8660 0.5000 -0.0000
vn -0.3569 0.6182 0.7003
vn -0.5000 0.8660 -0.0000
vn 0.0000 0.7139 0.7003
vn 0.0000 1.0000 -0.0000
vn 0.3569 0.6182 0.7003
vn 0.5000 0.8660 -0.0000
vn 0.6182 0.3569 0.7003
vn 0.8660 0.5000 0.0000
vn 0.8660 0.5000 -0.0000
# 29 vertex normals

vt 0.6714 0.4719 0.0000
vt 0.8585 0.2168 0.0000
vt 0.9371 0.3003 0.0000
vt 0.9483 0.7619 0.0000
vt 0.8907 0.8517 0.0000
vt 0.8028 0.7553 0.0000
vt 0.8239 0.7223 0.0000
vt 0.0348 0.2384 0.0000
vt 0.0364 0.1981 0.0000
vt 0.2725 0.2074 0.0000
vt 0.2709 0.2477 0.0000
vt 0.1169 0.7335 0.0000
vt 0.1499 0.7546 0.0000
vt 0.0939 0.8056 0.0000
vt 0.7617 0.1716 0.0000
vt 0.7959 0.9008 0.0000
vt 0.7680 0.7733 0.0000
vt 0.0230 0.1544 0.0000
vt 0.0242 0.1249 0.0000
vt 0.2603 0.1342 0.0000
vt 0.2591 0.1637 0.0000
vt 0.1679 0.7894 0.0000
vt 0.6727 0.1767 0.0000
vt 0.6893 0.8958 0.0000
vt 0.7288 0.7715 0.0000
vt 0.0258 0.0846 0.0000
vt 0.2618 0.0938 0.0000
vt 0.1660 0.8286 0.0000
vt 0.2104 0.8876 0.0000
vt 0.5066 0.7887 0.0000
vt 0.5224 0.9008 0.0000
vt 0.5994 0.8382 0.0000
vt 0.6959 0.7503 0.0000
vt 0.0273 0.0443 0.0000
vt 0.2634 0.0535 0.0000
vt 0.1449 0.8616 0.0000
vt 0.4544 0.6971 0.0000
vt 0.5504 0.7434 0.0000
vt 0.6779 0.7155 0.0000
vt 0.5492 0.2182 0.0000
vt 0.5480 0.2477 0.0000
vt 0.3120 0.2385 0.0000
vt 0.3131 0.2090 0.0000
vt 0.1101 0.8796 0.0000
vt 0.3797 0.6504 0.0000
vt 0.5553 0.6368 0.0000
vt 0.6797 0.6764 0.0000
vt 0.5465 0.2881 0.0000
vt 0.3104 0.2788 0.0000
vt 0.0710 0.8777 0.0000
vt 0.5432 0.3708 0.0000
vt 0.2473 0.4706 0.0000
vt 0.2311 0.3585 0.0000
vt 0.6129 0.5470 0.0000
vt 0.7008 0.6434 0.0000
vt 0.5449 0.3284 0.0000
vt 0.3088 0.3191 0.0000
vt 0.0380 0.8566 0.0000
vt 0.2998 0.5621 0.0000
vt 0.7077 0.4980 0.0000
vt 0.7356 0.6254 0.0000
vt 0.5552 0.0650 0.0000
vt 0.5541 0.0945 0.0000
vt 0.3180 0.0852 0.0000
vt 0.3191 0.0557 0.0000
vt 0.0200 0.8218 0.0000
vt 0.3746 0.6085 0.0000
vt 0.8143 0.5029 0.0000
vt 0.7748 0.6272 0.0000
vt 0.5525 0.1348 0.0000
vt 0.3164 0.1255 0.0000
vt 0.0218 0.7827 0.0000
vt 0.9800 0.0325 0.0000
vt 0.7007 0.1257 0.0000
vt 0.6859 0.0200 0.0000
vt 0.9042 0.5605 0.0000
vt 0.8077 0.6484 0.0000
vt 0.5509 0.1751 0.0000
vt 0.3148 0.1659 0.0000
vt 0.0430 0.7497 0.0000
vt 0.9765 0.3996 0.0000
vt 0.9661 0.4881 0.0000
vt 0.9532 0.6553 0.0000
vt 0.8257 0.6832 0.0000
vt 0.0321 0.3083 0.0000
vt 0.0333 0.2787 0.0000
vt 0.2693 0.2880 0.0000
vt 0.2682 0.3175 0.0000
vt 0.0778 0.7317 0.0000
# 89 texture coords

g Rectangle002
usemtl wire_135006006
s 1
f 1/1/1 2/2/2 3/3/3 
s 2
f 3/4/4 2/5/4 4/6/4 
f 4/6/4 5/7/4 3/4/4 
s 1
f 5/8/5 4/9/6 6/10/6 
f 6/10/6 7/11/5 5/8/5 
s 2
f 7/12/7 6/13/7 8/14/7 
s 1
f 1/1/1 9/15/8 2/2/2 
s 2
f 2/5/4 9/16/4 10/17/4 
f 10/17/4 4/6/4 2/5/4 
s 1
f 4/18/6 10/19/9 11/20/9 
f 11/20/9 6/21/6 4/18/6 
s 2
f 6/13/7 11/22/7 8/14/7 
s 1
f 1/1/1 12/23/10 9/15/8 
s 2
f 9/16/4 12/24/7 13/25/7 
f 13/25/7 10/17/4 9/16/4 
s 1
f 10/19/9 13/26/11 14/27/11 
f 14/27/11 11/20/9 10/19/9 
s 2
f 11/22/7 14/28/7 8/14/7 
s 1
f 1/29/1 15/30/12 12/31/10 
s 2
f 12/24/7 15/32/4 16/33/4 
f 16/33/4 13/25/7 12/24/7 
s 1
f 13/26/11 16/34/13 17/35/13 
f 17/35/13 14/27/11 13/26/11 
s 2
f 14/28/7 17/36/4 8/14/7 
s 1
f 1/29/1 18/37/14 15/30/12 
s 2
f 15/32/4 18/38/7 19/39/7 
f 19/39/7 16/33/4 15/32/4 
s 1
f 16/40/13 19/41/15 20/42/15 
f 20/42/15 17/43/13 16/40/13 
s 2
f 17/36/4 20/44/4 8/14/7 
s 1
f 1/29/1 21/45/16 18/37/14 
s 2
f 18/38/7 21/46/7 22/47/7 
f 22/47/7 19/39/7 18/38/7 
s 1
f 19/41/15 22/48/17 23/49/17 
f 23/49/17 20/42/15 19/41/15 
s 2
f 20/44/4 23/50/4 8/14/7 
s 1
f 1/51/1 24/52/18 21/53/16 
s 2
f 21/46/7 24/54/7 25/55/7 
f 25/55/7 22/47/7 21/46/7 
s 1
f 22/48/17 25/56/19 26/57/20 
f 26/57/20 23/49/17 22/48/17 
s 2
f 23/50/4 26/58/4 8/14/7 
s 1
f 1/51/1 27/59/21 24/52/18 
s 2
f 24/54/7 27/60/7 28/61/7 
f 28/61/7 25/55/7 24/54/7 
s 1
f 25/62/19 28/63/22 29/64/22 
f 29/64/22 26/65/20 25/62/19 
s 2
f 26/58/4 29/66/4 8/14/7 
s 1
f 1/51/1 30/67/23 27/59/21 
s 2
f 27/60/7 30/68/7 31/69/7 
f 31/69/7 28/61/7 27/60/7 
s 1
f 28/63/22 31/70/24 32/71/24 
f 32/71/24 29/64/22 28/63/22 
s 2
f 29/66/4 32/72/7 8/14/7 
s 1
f 1/73/1 33/74/25 30/75/23 
s 2
f 30/68/7 33/76/4 34/77/4 
f 34/77/4 31/69/7 30/68/7 
s 1
f 31/70/24 34/78/26 35/79/26 
f 35/79/26 32/71/24 31/70/24 
s 2
f 32/72/7 35/80/7 8/14/7 
s 1
f 1/1/1 36/81/27 33/82/25 
s 2
f 33/76/4 36/83/4 37/84/4 
f 37/84/4 34/77/4 33/76/4 
s 1
f 34/85/26 37/86/28 38/87/29 
f 38/87/29 35/88/26 34/85/26 
s 2
f 35/80/7 38/89/7 8/14/7 
s 1
f 1/1/1 3/3/3 36/81/27 
s 2
f 36/83/4 3/4/4 5/7/4 
f 5/7/4 37/84/4 36/83/4 
s 1
f 37/86/28 5/8/5 7/11/5 
f 7/11/5 38/87/29 37/86/28 
s 2
f 38/89/7 7/12/7 8/14/7 
# 72 faces

