# 3ds Max Wavefront OBJ Exporter v0.97b - (c)2007 guruware
# File Created: 30.07.2015 14:51:08

mtllib chip2.mtl

#
# object realgamechip
#

v  12.0000 0.0000 -0.0000
v  11.0866 4.5922 0.0000
v  11.0866 4.5922 0.8400
v  12.0000 -0.0000 0.8400
v  8.4853 8.4853 0.0000
v  8.4853 8.4853 0.8400
v  4.5922 11.0866 0.0000
v  4.5922 11.0866 0.8400
v  -0.0000 12.0000 0.0000
v  -0.0000 12.0000 0.8400
v  -4.5922 11.0866 0.0000
v  -4.5922 11.0866 0.8400
v  -8.4853 8.4853 0.0000
v  -8.4853 8.4853 0.8400
v  -11.0866 4.5922 0.0000
v  -11.0866 4.5922 0.8400
v  -12.0000 0.0000 -0.0000
v  -12.0000 0.0000 0.8400
v  -11.0866 -4.5922 -0.0000
v  -11.0866 -4.5922 0.8400
v  -8.4853 -8.4853 -0.0000
v  -8.4853 -8.4853 0.8400
v  -4.5922 -11.0866 -0.0000
v  -4.5922 -11.0866 0.8400
v  0.0000 -12.0000 -0.0000
v  0.0000 -12.0000 0.8400
v  4.5922 -11.0866 -0.0000
v  4.5922 -11.0866 0.8400
v  8.4853 -8.4853 -0.0000
v  8.4853 -8.4853 0.8400
v  11.0866 -4.5922 -0.0000
v  11.0866 -4.5922 0.8400
v  6.4086 2.6545 1.3210
v  4.9050 4.9050 1.3210
v  2.6545 6.4086 1.3210
v  6.4086 -2.6545 1.3210
v  -0.0000 6.9367 1.3210
v  -2.6545 6.4086 1.3210
v  -6.4086 2.6545 1.3210
v  -4.9050 4.9050 1.3210
v  -6.9367 0.0000 1.3210
v  -6.4086 -2.6545 1.3210
v  -2.6545 -6.4086 1.3210
v  -4.9050 -4.9050 1.3210
v  0.0000 -6.9367 1.3210
v  2.6545 -6.4086 1.3210
v  4.9050 -4.9050 1.3210
v  6.9367 -0.0000 1.3210
v  11.8403 -0.0000 1.0101
v  10.9390 4.5311 1.0101
v  8.3724 8.3724 1.0101
v  4.5311 10.9390 1.0101
v  -0.0000 11.8403 1.0101
v  -4.5311 10.9390 1.0101
v  -8.3724 8.3724 1.0101
v  -10.9390 4.5311 1.0101
v  -11.8403 0.0000 1.0101
v  -10.9390 -4.5311 1.0101
v  -8.3724 -8.3724 1.0101
v  -4.5311 -10.9390 1.0101
v  0.0000 -11.8403 1.0101
v  4.5311 -10.9390 1.0101
v  8.3724 -8.3724 1.0101
v  10.9390 -4.5311 1.0101
v  12.0000 0.0000 -0.8400
v  11.0866 4.5922 -0.8400
v  8.4853 8.4853 -0.8400
v  4.5922 11.0866 -0.8400
v  -0.0000 12.0000 -0.8400
v  -4.5922 11.0866 -0.8400
v  -8.4853 8.4853 -0.8400
v  -11.0866 4.5922 -0.8400
v  -12.0000 0.0000 -0.8400
v  -11.0866 -4.5922 -0.8400
v  -8.4853 -8.4853 -0.8400
v  -4.5922 -11.0866 -0.8400
v  0.0000 -12.0000 -0.8400
v  4.5922 -11.0866 -0.8400
v  8.4853 -8.4853 -0.8400
v  11.0866 -4.5922 -0.8400
v  6.4086 -2.6545 -1.3210
v  4.9050 -4.9050 -1.3210
v  2.6545 -6.4086 -1.3210
v  -2.6545 -6.4086 -1.3210
v  0.0000 -6.9367 -1.3210
v  -4.9050 -4.9050 -1.3210
v  -6.4086 -2.6545 -1.3210
v  -6.4086 2.6545 -1.3210
v  -6.9367 0.0000 -1.3210
v  2.6545 6.4086 -1.3210
v  -4.9050 4.9050 -1.3210
v  -2.6545 6.4086 -1.3210
v  -0.0000 6.9367 -1.3210
v  4.9050 4.9050 -1.3210
v  6.4086 2.6545 -1.3210
v  6.9367 -0.0000 -1.3210
v  11.8403 0.0000 -1.0101
v  10.9390 4.5311 -1.0101
v  8.3724 8.3724 -1.0101
v  4.5311 10.9390 -1.0101
v  -0.0000 11.8403 -1.0101
v  -4.5311 10.9390 -1.0101
v  -8.3724 8.3724 -1.0101
v  -10.9390 4.5311 -1.0101
v  -11.8403 0.0000 -1.0101
v  -10.9390 -4.5311 -1.0101
v  -8.3724 -8.3724 -1.0101
v  -4.5311 -10.9390 -1.0101
v  0.0000 -11.8403 -1.0101
v  4.5311 -10.9390 -1.0101
v  8.3724 -8.3724 -1.0101
v  10.9390 -4.5311 -1.0101
# 112 vertices

vn 0.9808 0.1951 0.0000
vn 0.8315 0.5556 0.0000
vn 0.5556 0.8315 0.0000
vn 0.1951 0.9808 0.0000
vn -0.1951 0.9808 0.0000
vn -0.5556 0.8315 0.0000
vn -0.8315 0.5556 0.0000
vn -0.9808 0.1951 0.0000
vn -0.9808 -0.1951 -0.0000
vn -0.8315 -0.5556 -0.0000
vn -0.5556 -0.8315 -0.0000
vn -0.3827 -0.9239 -0.0000
vn -0.0000 -1.0000 -0.0000
vn 0.0000 -1.0000 -0.0000
vn 0.3827 -0.9239 -0.0000
vn 0.5556 -0.8315 -0.0000
vn 0.8315 -0.5556 -0.0000
vn 0.9808 -0.1951 -0.0000
vn 0.0000 -0.0000 1.0000
vn 0.0633 0.0126 0.9979
vn 0.0536 0.0358 0.9979
vn 0.0358 0.0536 0.9979
vn 0.0126 0.0633 0.9979
vn -0.0126 0.0633 0.9979
vn -0.0358 0.0536 0.9979
vn -0.0536 0.0358 0.9979
vn -0.0633 0.0126 0.9979
vn -0.0633 -0.0126 0.9979
vn -0.0536 -0.0358 0.9979
vn -0.0358 -0.0536 0.9979
vn -0.0126 -0.0633 0.9979
vn 0.0126 -0.0633 0.9979
vn 0.0358 -0.0536 0.9979
vn 0.0536 -0.0358 0.9979
vn 0.0633 -0.0126 0.9979
vn 0.7216 0.1435 0.6773
vn 0.6117 0.4087 0.6773
vn 0.4087 0.6117 0.6773
vn 0.1435 0.7216 0.6773
vn -0.1435 0.7216 0.6773
vn -0.4087 0.6117 0.6773
vn -0.6117 0.4087 0.6773
vn -0.7216 0.1435 0.6773
vn -0.7216 -0.1435 0.6773
vn -0.6117 -0.4087 0.6773
vn -0.4087 -0.6117 0.6773
vn -0.1435 -0.7216 0.6773
vn 0.1435 -0.7216 0.6773
vn 0.4087 -0.6117 0.6773
vn 0.6117 -0.4087 0.6773
vn 0.7216 -0.1435 0.6773
vn 0.0000 0.0000 -1.0000
vn 0.0633 0.0126 -0.9979
vn 0.0536 0.0358 -0.9979
vn 0.0358 0.0536 -0.9979
vn 0.0126 0.0633 -0.9979
vn -0.0126 0.0633 -0.9979
vn -0.0358 0.0536 -0.9979
vn -0.0536 0.0358 -0.9979
vn -0.0633 0.0126 -0.9979
vn -0.0633 -0.0126 -0.9979
vn -0.0536 -0.0358 -0.9979
vn -0.0358 -0.0536 -0.9979
vn -0.0126 -0.0633 -0.9979
vn 0.0126 -0.0633 -0.9979
vn 0.0358 -0.0536 -0.9979
vn 0.0536 -0.0358 -0.9979
vn 0.0633 -0.0126 -0.9979
vn 0.7216 0.1435 -0.6773
vn 0.6117 0.4087 -0.6773
vn 0.4087 0.6117 -0.6773
vn 0.1435 0.7216 -0.6773
vn -0.1435 0.7216 -0.6773
vn -0.4087 0.6117 -0.6773
vn -0.6117 0.4087 -0.6773
vn -0.7216 0.1435 -0.6773
vn -0.7216 -0.1435 -0.6773
vn -0.6117 -0.4087 -0.6773
vn -0.4087 -0.6117 -0.6773
vn -0.1435 -0.7216 -0.6773
vn 0.1435 -0.7216 -0.6773
vn 0.4087 -0.6117 -0.6773
vn 0.6117 -0.4087 -0.6773
vn 0.7216 -0.1435 -0.6773
# 84 vertex normals

vt 0.2681 0.7492 0.0000
vt 0.4024 0.7492 0.0000
vt 0.4024 0.7738 0.0000
vt 0.2681 0.7738 0.0000
vt 0.5163 0.7492 0.0000
vt 0.5163 0.7738 0.0000
vt 0.0200 0.8261 0.0000
vt 0.1338 0.8261 0.0000
vt 0.1338 0.8507 0.0000
vt 0.0200 0.8507 0.0000
vt 0.2681 0.8261 0.0000
vt 0.2681 0.8507 0.0000
vt 0.4024 0.8261 0.0000
vt 0.4024 0.8507 0.0000
vt 0.5163 0.8261 0.0000
vt 0.5163 0.8507 0.0000
vt 0.0200 0.7877 0.0000
vt 0.1338 0.7877 0.0000
vt 0.1338 0.8122 0.0000
vt 0.0200 0.8122 0.0000
vt 0.2681 0.7877 0.0000
vt 0.2681 0.8122 0.0000
vt 0.4024 0.7877 0.0000
vt 0.4024 0.8122 0.0000
vt 0.5163 0.7877 0.0000
vt 0.5163 0.8122 0.0000
vt 0.0200 0.8646 0.0000
vt 0.1338 0.8646 0.0000
vt 0.1338 0.8892 0.0000
vt 0.0200 0.8892 0.0000
vt 0.2681 0.8646 0.0000
vt 0.2681 0.8892 0.0000
vt 0.4024 0.8646 0.0000
vt 0.4024 0.8892 0.0000
vt 0.5163 0.8646 0.0000
vt 0.5163 0.8892 0.0000
vt 0.0200 0.7492 0.0000
vt 0.1338 0.7492 0.0000
vt 0.1338 0.7738 0.0000
vt 0.0200 0.7738 0.0000
vt 0.5108 0.4465 0.0000
vt 0.4598 0.5019 0.0000
vt 0.3914 0.5336 0.0000
vt 0.5336 0.3004 0.0000
vt 0.3160 0.5368 0.0000
vt 0.2452 0.5108 0.0000
vt 0.1581 0.3914 0.0000
vt 0.1898 0.4598 0.0000
vt 0.1550 0.3160 0.0000
vt 0.1809 0.2452 0.0000
vt 0.3004 0.1581 0.0000
vt 0.2320 0.1898 0.0000
vt 0.3757 0.1550 0.0000
vt 0.4465 0.1809 0.0000
vt 0.5019 0.2320 0.0000
vt 0.5368 0.3757 0.0000
vt 0.6717 0.3968 0.0000
vt 0.6274 0.5176 0.0000
vt 0.5403 0.6123 0.0000
vt 0.4235 0.6664 0.0000
vt 0.2949 0.6717 0.0000
vt 0.1741 0.6274 0.0000
vt 0.0794 0.5403 0.0000
vt 0.0253 0.4235 0.0000
vt 0.0200 0.2949 0.0000
vt 0.0643 0.1741 0.0000
vt 0.1514 0.0794 0.0000
vt 0.2682 0.0253 0.0000
vt 0.3968 0.0200 0.0000
vt 0.5176 0.0643 0.0000
vt 0.6123 0.1514 0.0000
vt 0.6664 0.2682 0.0000
vt 0.9194 0.2058 0.0000
vt 0.9250 0.2056 0.0000
vt 0.9306 0.3559 0.0000
vt 0.9250 0.3541 0.0000
vt 0.7281 0.3406 0.0000
vt 0.7218 0.3425 0.0000
vt 0.7020 0.2123 0.0000
vt 0.7085 0.2122 0.0000
vt 0.7174 0.0869 0.0000
vt 0.7237 0.0884 0.0000
vt 0.9633 0.3835 0.0000
vt 0.9688 0.3813 0.0000
vt 0.9744 0.5316 0.0000
vt 0.9688 0.5319 0.0000
vt 0.9800 0.6820 0.0000
vt 0.9744 0.6802 0.0000
vt 0.9107 0.6617 0.0000
vt 0.9044 0.6636 0.0000
vt 0.8846 0.5334 0.0000
vt 0.8911 0.5333 0.0000
vt 0.9000 0.4080 0.0000
vt 0.9063 0.4095 0.0000
vt 0.8658 0.0592 0.0000
vt 0.8713 0.0570 0.0000
vt 0.8770 0.2074 0.0000
vt 0.8714 0.2076 0.0000
vt 0.8826 0.3577 0.0000
vt 0.8769 0.3559 0.0000
vt 0.8255 0.6649 0.0000
vt 0.8192 0.6668 0.0000
vt 0.7994 0.5366 0.0000
vt 0.8060 0.5365 0.0000
vt 0.8148 0.4112 0.0000
vt 0.8212 0.4127 0.0000
vt 0.7807 0.0624 0.0000
vt 0.7861 0.0602 0.0000
vt 0.7918 0.2105 0.0000
vt 0.7862 0.2107 0.0000
vt 0.7974 0.3609 0.0000
vt 0.7917 0.3591 0.0000
vt 0.7404 0.6681 0.0000
vt 0.7341 0.6700 0.0000
vt 0.7142 0.5398 0.0000
vt 0.7208 0.5397 0.0000
vt 0.7296 0.4143 0.0000
vt 0.7360 0.4159 0.0000
vt 0.9139 0.0574 0.0000
vt 0.9194 0.0552 0.0000
# 120 texture coords

g realgamechip
usemtl wire_227153153
s off
f 1/1/1 2/2/1 3/3/1 4/4/1 
f 2/2/2 5/5/2 6/6/2 3/3/2 
f 5/7/3 7/8/3 8/9/3 6/10/3 
f 7/8/4 9/11/4 10/12/4 8/9/4 
f 9/11/5 11/13/5 12/14/5 10/12/5 
f 11/13/6 13/15/6 14/16/6 12/14/6 
f 13/17/7 15/18/7 16/19/7 14/20/7 
f 15/18/8 17/21/8 18/22/8 16/19/8 
f 17/21/9 19/23/9 20/24/9 18/22/9 
f 19/23/10 21/25/10 22/26/10 20/24/10 
s 8
f 21/27/11 23/28/12 24/29/12 22/30/11 
f 23/28/12 25/31/13 26/32/14 24/29/12 
f 25/31/13 27/33/15 28/34/15 26/32/14 
f 27/33/15 29/35/16 30/36/16 28/34/15 
s off
f 29/37/17 31/38/17 32/39/17 30/40/17 
f 31/38/18 1/1/18 4/4/18 32/39/18 
f 33/41/19 34/42/19 35/43/19 36/44/19 
f 35/43/19 37/45/19 38/46/19 39/47/19 
f 38/46/19 40/48/19 39/47/19 
f 39/47/19 41/49/19 42/50/19 43/51/19 
f 42/50/19 44/52/19 43/51/19 
f 43/51/19 45/53/19 46/54/19 36/44/19 
f 46/54/19 47/55/19 36/44/19 
f 39/47/19 43/51/19 36/44/19 35/43/19 
f 48/56/19 33/41/19 36/44/19 
f 49/57/20 50/58/20 33/41/20 48/56/20 
f 50/58/21 51/59/21 34/42/21 33/41/21 
f 51/59/22 52/60/22 35/43/22 34/42/22 
f 52/60/23 53/61/23 37/45/23 35/43/23 
f 53/61/24 54/62/24 38/46/24 37/45/24 
f 54/62/25 55/63/25 40/48/25 38/46/25 
f 55/63/26 56/64/26 39/47/26 40/48/26 
f 56/64/27 57/65/27 41/49/27 39/47/27 
f 57/65/28 58/66/28 42/50/28 41/49/28 
f 58/66/29 59/67/29 44/52/29 42/50/29 
f 59/67/30 60/68/30 43/51/30 44/52/30 
f 60/68/31 61/69/31 45/53/31 43/51/31 
f 61/69/32 62/70/32 46/54/32 45/53/32 
f 62/70/33 63/71/33 47/55/33 46/54/33 
f 63/71/34 64/72/34 36/44/34 47/55/34 
f 64/72/35 49/57/35 48/56/35 36/44/35 
f 49/73/36 4/74/36 3/75/36 50/76/36 
f 50/77/37 3/78/37 6/79/37 51/80/37 
f 51/80/38 6/79/38 8/81/38 52/82/38 
f 52/83/39 8/84/39 10/85/39 53/86/39 
f 53/86/40 10/85/40 12/87/40 54/88/40 
f 54/89/41 12/90/41 14/91/41 55/92/41 
f 55/92/42 14/91/42 16/93/42 56/94/42 
f 56/95/43 16/96/43 18/97/43 57/98/43 
f 57/98/44 18/97/44 20/99/44 58/100/44 
f 58/101/45 20/102/45 22/103/45 59/104/45 
f 59/104/46 22/103/46 24/105/46 60/106/46 
f 60/107/47 24/108/47 26/109/47 61/110/47 
f 61/110/48 26/109/48 28/111/48 62/112/48 
f 62/113/49 28/114/49 30/115/49 63/116/49 
f 63/116/50 30/115/50 32/117/50 64/118/50 
f 64/119/51 32/120/51 4/74/51 49/73/51 
f 1/1/1 65/4/1 66/3/1 2/2/1 
f 2/2/2 66/3/2 67/6/2 5/5/2 
f 5/7/3 67/10/3 68/9/3 7/8/3 
f 7/8/4 68/9/4 69/12/4 9/11/4 
f 9/11/5 69/12/5 70/14/5 11/13/5 
f 11/13/6 70/14/6 71/16/6 13/15/6 
f 13/17/7 71/20/7 72/19/7 15/18/7 
f 15/18/8 72/19/8 73/22/8 17/21/8 
f 17/21/9 73/22/9 74/24/9 19/23/9 
f 19/23/10 74/24/10 75/26/10 21/25/10 
s 8
f 21/27/11 75/30/11 76/29/12 23/28/12 
f 23/28/12 76/29/12 77/32/14 25/31/13 
f 25/31/13 77/32/14 78/34/15 27/33/15 
f 27/33/15 78/34/15 79/36/16 29/35/16 
s off
f 29/37/17 79/40/17 80/39/17 31/38/17 
f 31/38/18 80/39/18 65/4/18 1/1/18 
f 81/44/52 82/55/52 83/54/52 84/51/52 
f 83/54/52 85/53/52 84/51/52 
f 84/51/52 86/52/52 87/50/52 88/47/52 
f 87/50/52 89/49/52 88/47/52 
f 81/44/52 84/51/52 88/47/52 90/43/52 
f 88/47/52 91/48/52 92/46/52 90/43/52 
f 92/46/52 93/45/52 90/43/52 
f 90/43/52 94/42/52 95/41/52 81/44/52 
f 96/56/52 81/44/52 95/41/52 
f 97/57/53 96/56/53 95/41/53 98/58/53 
f 98/58/54 95/41/54 94/42/54 99/59/54 
f 99/59/55 94/42/55 90/43/55 100/60/55 
f 100/60/56 90/43/56 93/45/56 101/61/56 
f 101/61/57 93/45/57 92/46/57 102/62/57 
f 102/62/58 92/46/58 91/48/58 103/63/58 
f 103/63/59 91/48/59 88/47/59 104/64/59 
f 104/64/60 88/47/60 89/49/60 105/65/60 
f 105/65/61 89/49/61 87/50/61 106/66/61 
f 106/66/62 87/50/62 86/52/62 107/67/62 
f 107/67/63 86/52/63 84/51/63 108/68/63 
f 108/68/64 84/51/64 85/53/64 109/69/64 
f 109/69/65 85/53/65 83/54/65 110/70/65 
f 110/70/66 83/54/66 82/55/66 111/71/66 
f 111/71/67 82/55/67 81/44/67 112/72/67 
f 112/72/68 81/44/68 96/56/68 97/57/68 
f 97/73/69 98/76/69 66/75/69 65/74/69 
f 98/77/70 99/80/70 67/79/70 66/78/70 
f 99/80/71 100/82/71 68/81/71 67/79/71 
f 100/83/72 101/86/72 69/85/72 68/84/72 
f 101/86/73 102/88/73 70/87/73 69/85/73 
f 102/89/74 103/92/74 71/91/74 70/90/74 
f 103/92/75 104/94/75 72/93/75 71/91/75 
f 104/95/76 105/98/76 73/97/76 72/96/76 
f 105/98/77 106/100/77 74/99/77 73/97/77 
f 106/101/78 107/104/78 75/103/78 74/102/78 
f 107/104/79 108/106/79 76/105/79 75/103/79 
f 108/107/80 109/110/80 77/109/80 76/108/80 
f 109/110/81 110/112/81 78/111/81 77/109/81 
f 110/113/82 111/116/82 79/115/82 78/114/82 
f 111/116/83 112/118/83 80/117/83 79/115/83 
f 112/119/84 97/73/84 65/74/84 80/120/84 
# 106 polygons - 8 triangles

