# 3ds Max Wavefront OBJ Exporter v0.97b - (c)2007 guruware
# File Created: 11.04.2016 22:20:20

mtllib angleShooter.mtl

#
# object angleshooter
#

v  13.8152 38.2275 3.9161
v  13.8152 38.2275 -3.9161
v  -38.2275 -13.8152 -3.9161
v  -38.2275 -13.8152 3.9161
v  44.8372 44.8372 10.9763
v  44.8372 44.8372 -10.9763
v  35.4283 54.2461 -10.9763
v  35.4283 54.2461 10.9763
v  -50.7353 -55.9288 -14.2290
v  -50.7353 -34.3391 -14.2290
v  -46.7380 -12.8303 -14.2290
v  42.5372 42.5372 -14.2290
v  12.8303 46.7380 -14.2290
v  34.3391 50.7353 -14.2290
v  -53.0353 -58.2288 -10.9763
v  -53.0353 -58.2288 10.9763
v  -54.2461 -35.4283 10.9763
v  -54.2461 -35.4283 -10.9763
v  42.5372 42.5372 14.2290
v  34.3391 50.7353 14.2290
v  12.8303 46.7380 14.2290
v  -50.7353 -55.9288 14.2290
v  -46.7380 -12.8303 14.2290
v  -50.7353 -34.3391 14.2290
v  11.2438 49.7516 10.9763
v  11.2438 49.7516 -10.9763
v  -49.7516 -11.2438 -10.9763
v  -49.7516 -11.2438 10.9763
v  9.9828 48.4905 -9.1929
v  9.9828 48.4905 9.1929
v  -48.4905 -9.9828 -9.1929
v  -48.4905 -9.9828 9.1929
v  9.2162 46.7845 -6.7148
v  9.2162 46.7845 6.7148
v  -46.7845 -9.2162 -6.7148
v  -46.7845 -9.2162 6.7148
v  -41.5845 -83.1582 14.2290
v  83.1722 -83.1582 14.2290
v  -44.8372 -83.1582 10.9763
v  -44.8372 -83.1582 -10.9763
v  -41.5845 -83.1582 -14.2290
v  83.1722 -83.1582 -14.2290
v  86.4249 -83.1582 -10.9763
v  86.4249 -83.1582 10.9763
# 44 vertices

vn -0.7071 0.7071 0.0000
vn 0.7917 0.4941 0.3592
vn 0.7916 0.4943 -0.3591
vn 0.2752 0.8870 -0.3709
vn 0.2752 0.8870 0.3709
vn -0.4561 -0.0677 -0.8873
vn -0.3906 0.0431 -0.9195
vn -0.3805 0.2003 -0.9028
vn 0.3801 0.2180 -0.8989
vn -0.2003 0.3805 -0.9028
vn 0.1309 0.4219 -0.8971
vn -0.9232 -0.1874 -0.3355
vn -0.9241 -0.1797 0.3373
vn -0.9209 0.0534 0.3862
vn -0.9234 0.0629 -0.3786
vn 0.3805 0.2178 0.8988
vn 0.1309 0.4219 0.8971
vn -0.2003 0.3805 0.9028
vn -0.4699 -0.0528 0.8812
vn -0.3805 0.2003 0.9028
vn -0.3944 0.0359 0.9182
vn -0.4330 0.8225 0.3687
vn -0.4330 0.8225 -0.3687
vn -0.8225 0.4330 -0.3687
vn -0.8225 0.4330 0.3687
vn -0.7320 0.6801 0.0402
vn -0.7320 0.6801 -0.0402
vn -0.6801 0.7320 0.0402
vn -0.6801 0.7320 -0.0402
vn -0.8258 0.5503 0.1234
vn -0.8258 0.5503 -0.1234
vn -0.5503 0.8258 0.1234
vn -0.5503 0.8258 -0.1234
vn -0.8808 -0.4734 0.0000
vn -0.2037 0.2037 0.9576
vn 0.4734 0.8808 -0.0000
vn -0.2037 0.2037 -0.9576
vn -0.3098 -0.1041 0.9451
vn 0.4395 0.1428 0.8868
vn -0.8726 -0.2895 0.3934
vn -0.8726 -0.2870 -0.3952
vn -0.3113 -0.1026 -0.9448
vn 0.4392 0.1420 -0.8871
vn 0.8936 0.2898 -0.3427
vn 0.8934 0.2903 0.3429
# 45 vertex normals

vt 0.3696 0.9729 0.0000
vt 0.3513 0.9729 0.0000
vt 0.3513 0.8006 0.0000
vt 0.3696 0.8006 0.0000
vt 0.3260 0.7687 0.0000
vt 0.2724 0.7687 0.0000
vt 0.2724 0.7362 0.0000
vt 0.3260 0.7362 0.0000
vt 0.4343 0.7760 0.0000
vt 0.4739 0.7447 0.0000
vt 0.5192 0.7208 0.0000
vt 0.7505 0.8042 0.0000
vt 0.7150 0.7436 0.0000
vt 0.7536 0.7772 0.0000
vt 0.3298 0.1799 0.0000
vt 0.3298 0.2395 0.0000
vt 0.2837 0.2395 0.0000
vt 0.2837 0.1799 0.0000
vt 0.7476 0.8583 0.0000
vt 0.7476 0.8854 0.0000
vt 0.7054 0.9144 0.0000
vt 0.4303 0.8497 0.0000
vt 0.5083 0.9144 0.0000
vt 0.4661 0.8854 0.0000
vt 0.0830 0.9185 0.0000
vt 0.0830 0.9800 0.0000
vt 0.0281 0.9800 0.0000
vt 0.0281 0.9185 0.0000
vt 0.1609 0.9158 0.0000
vt 0.1609 0.9748 0.0000
vt 0.1083 0.9748 0.0000
vt 0.1083 0.9158 0.0000
vt 0.1879 0.7208 0.0000
vt 0.1987 0.7236 0.0000
vt 0.1909 0.9225 0.0000
vt 0.1799 0.9244 0.0000
vt 0.2372 0.7208 0.0000
vt 0.2479 0.7236 0.0000
vt 0.2401 0.9225 0.0000
vt 0.2292 0.9244 0.0000
vt 0.2644 0.7687 0.0000
vt 0.2644 0.7404 0.0000
vt 0.3340 0.7404 0.0000
vt 0.3340 0.7687 0.0000
vt 0.4803 0.7937 0.0000
vt 0.4841 0.8037 0.0000
vt 0.4310 0.7968 0.0000
vt 0.4303 0.7854 0.0000
vt 0.3402 0.2354 0.0000
vt 0.3308 0.2301 0.0000
vt 0.3303 0.1794 0.0000
vt 0.3416 0.1818 0.0000
vt 0.2591 0.9659 0.0000
vt 0.2505 0.9732 0.0000
vt 0.0200 0.9757 0.0000
vt 0.0200 0.9210 0.0000
vt 0.1005 0.9707 0.0000
vt 0.1005 0.9182 0.0000
vt 0.2099 0.9659 0.0000
vt 0.2013 0.9732 0.0000
vt 0.0326 0.9148 0.0000
vt 0.0786 0.9148 0.0000
vt 0.0281 0.7406 0.0000
vt 0.0326 0.7443 0.0000
vt 0.0830 0.7406 0.0000
vt 0.0786 0.7443 0.0000
vt 0.1128 0.7494 0.0000
vt 0.1564 0.7494 0.0000
vt 0.1505 0.7537 0.0000
vt 0.1187 0.7537 0.0000
vt 0.0388 0.7488 0.0000
vt 0.0388 0.9121 0.0000
vt 0.0724 0.7488 0.0000
vt 0.0724 0.9121 0.0000
vt 0.1426 0.8782 0.0000
vt 0.1426 0.9103 0.0000
vt 0.1204 0.9036 0.0000
vt 0.1204 0.8849 0.0000
vt 0.3147 0.9748 0.0000
vt 0.3147 0.7853 0.0000
vt 0.3369 0.7920 0.0000
vt 0.3369 0.9681 0.0000
vt 0.1426 0.7747 0.0000
vt 0.1426 0.8068 0.0000
vt 0.1204 0.8001 0.0000
vt 0.1204 0.7814 0.0000
vt 0.2782 0.9748 0.0000
vt 0.2782 0.7853 0.0000
vt 0.3005 0.7920 0.0000
vt 0.3005 0.9681 0.0000
vt 0.3692 0.6632 0.0000
vt 0.5285 0.3887 0.0000
vt 0.5957 0.3912 0.0000
vt 0.6783 0.6713 0.0000
vt 0.3283 0.2584 0.0000
vt 0.3247 0.2686 0.0000
vt 0.2632 0.2676 0.0000
vt 0.2610 0.2570 0.0000
vt 0.2720 0.3590 0.0000
vt 0.2720 0.3046 0.0000
vt 0.3300 0.3046 0.0000
vt 0.3300 0.3590 0.0000
vt 0.2735 0.5275 0.0000
vt 0.2703 0.5172 0.0000
vt 0.3375 0.5185 0.0000
vt 0.3349 0.5289 0.0000
vt 0.4626 0.0743 0.0000
vt 0.5299 0.0744 0.0000
vt 0.6783 0.3550 0.0000
vt 0.3691 0.3509 0.0000
vt 0.0232 0.5764 0.0000
vt 0.0200 0.5661 0.0000
vt 0.3349 0.5743 0.0000
vt 0.3323 0.5848 0.0000
vt 0.0463 0.6753 0.0000
vt 0.0463 0.6208 0.0000
vt 0.3436 0.6208 0.0000
vt 0.3436 0.6753 0.0000
vt 0.6782 0.0241 0.0000
vt 0.6746 0.0343 0.0000
vt 0.3655 0.0305 0.0000
vt 0.3633 0.0200 0.0000
# 122 texture coords

g angleshooter
usemtl wire_006135058
s 1
f 1/1/1 2/2/1 3/3/1 
f 3/3/1 4/4/1 1/1/1 
s 2
f 5/5/2 6/6/3 7/7/4 
f 7/7/4 8/8/5 5/5/2 
f 9/9/6 10/10/7 11/11/8 
f 12/12/9 9/9/6 11/11/8 
f 11/11/8 13/13/10 14/14/11 
f 12/12/9 11/11/8 14/14/11 
f 15/15/12 16/16/13 17/17/14 
f 17/17/14 18/18/15 15/15/12 
f 19/19/16 20/20/17 21/21/18 
f 22/22/19 19/19/16 21/21/18 
f 21/21/18 23/23/20 24/24/21 
f 22/22/19 21/21/18 24/24/21 
f 25/25/22 8/26/5 7/27/4 
f 7/27/4 26/28/23 25/25/22 
f 27/29/24 18/30/15 17/31/14 
f 17/31/14 28/32/25 27/29/24 
f 26/33/23 13/34/10 11/35/8 
f 11/35/8 27/36/24 26/33/23 
f 28/37/25 23/38/20 21/39/18 
f 21/39/18 25/40/22 28/37/25 
f 6/6/3 12/41/9 14/42/11 
f 14/42/11 7/7/4 6/6/3 
f 8/8/5 20/43/17 19/44/16 
f 19/44/16 5/5/2 8/8/5 
f 9/45/6 15/46/12 18/47/15 
f 18/47/15 10/48/7 9/45/6 
f 16/49/13 22/50/19 24/51/21 
f 24/51/21 17/52/14 16/49/13 
f 25/40/22 21/39/18 20/53/17 
f 20/53/17 8/54/5 25/40/22 
f 7/27/4 14/55/11 13/56/10 
f 13/56/10 26/28/23 7/27/4 
f 17/31/14 24/57/21 23/58/20 
f 23/58/20 28/32/25 17/31/14 
f 27/36/24 11/35/8 10/59/7 
f 10/59/7 18/60/15 27/36/24 
f 25/25/22 26/28/23 29/61/26 
f 29/61/26 30/62/27 25/25/22 
f 26/28/23 27/63/24 31/64/28 
f 31/64/28 29/61/26 26/28/23 
f 27/63/24 28/65/25 32/66/29 
f 32/66/29 31/64/28 27/63/24 
f 28/65/25 25/25/22 30/62/27 
f 30/62/27 32/66/29 28/65/25 
f 30/67/27 29/68/26 33/69/30 
f 33/69/30 34/70/31 30/67/27 
f 29/61/26 31/64/28 35/71/32 
f 35/71/32 33/72/30 29/61/26 
f 31/64/28 32/66/29 36/73/33 
f 36/73/33 35/71/32 31/64/28 
f 32/66/29 30/62/27 34/74/31 
f 34/74/31 36/73/33 32/66/29 
s 4
f 34/75/34 33/76/34 2/77/34 
f 2/77/34 1/78/34 34/75/34 
s 8
f 33/79/35 35/80/35 3/81/35 
f 3/81/35 2/82/35 33/79/35 
s 4
f 35/83/36 36/84/36 4/85/36 
f 4/85/36 3/86/36 35/83/36 
s 8
f 36/87/37 34/88/37 1/89/37 
f 1/89/37 4/90/37 36/87/37 
s 2
f 19/91/16 22/92/19 37/93/38 
f 37/93/38 38/94/39 19/91/16 
f 22/95/19 16/96/13 39/97/40 
f 39/97/40 37/98/38 22/95/19 
f 16/99/13 15/100/12 40/101/41 
f 40/101/41 39/102/40 16/99/13 
f 15/103/12 9/104/6 41/105/42 
f 41/105/42 40/106/41 15/103/12 
f 41/107/42 9/108/6 12/109/9 
f 12/109/9 42/110/43 41/107/42 
f 12/111/9 6/112/3 43/113/44 
f 43/113/44 42/114/43 12/111/9 
f 6/115/3 5/116/2 44/117/45 
f 44/117/45 43/118/44 6/115/3 
f 5/119/2 19/120/16 38/121/39 
f 38/121/39 44/122/45 5/119/2 
# 78 faces

