# 3ds Max Wavefront OBJ Exporter v0.97b - (c)2007 guruware
# File Created: 11.04.2016 16:58:48

mtllib buttonframe.mtl

#
# object buttonring003
#

v  34.4279 0.0000 -0.0000
v  31.8072 13.1750 -0.0000
v  30.2317 12.5224 4.6804
v  32.7226 0.0000 4.6804
v  24.3442 24.3442 -0.0000
v  23.1383 23.1383 4.6804
v  13.1750 31.8072 -0.0000
v  12.5224 30.2317 4.6804
v  0.0000 34.4279 -0.0000
v  0.0000 32.7226 4.6804
v  -13.1750 31.8072 0.0000
v  -12.5224 30.2317 4.6804
v  -24.3442 24.3442 0.0000
v  -23.1383 23.1383 4.6803
v  -31.8072 13.1750 0.0000
v  -30.2317 12.5224 4.6803
v  -34.4279 0.0000 0.0000
v  -32.7226 0.0000 4.6803
v  -31.8072 -13.1750 0.0000
v  -30.2317 -12.5224 4.6803
v  -24.3442 -24.3442 0.0000
v  -23.1383 -23.1383 4.6803
v  -13.1750 -31.8072 0.0000
v  -12.5224 -30.2317 4.6803
v  0.0000 -34.4279 -0.0000
v  0.0000 -32.7226 4.6803
v  13.1750 -31.8072 -0.0000
v  12.5224 -30.2317 4.6804
v  24.3442 -24.3442 -0.0000
v  23.1383 -23.1383 4.6804
v  31.8072 -13.1750 -0.0000
v  30.2317 -12.5224 4.6804
v  27.6489 11.4526 5.4637
v  29.9270 0.0000 5.4637
v  21.1616 21.1616 5.4637
v  11.4526 27.6489 5.4637
v  0.0000 29.9270 5.4637
v  -11.4526 27.6489 5.4637
v  -21.1616 21.1616 5.4637
v  -27.6489 11.4526 5.4637
v  -29.9270 0.0000 5.4637
v  -27.6489 -11.4526 5.4637
v  -21.1616 -21.1616 5.4637
v  -11.4526 -27.6489 5.4637
v  0.0000 -29.9270 5.4637
v  11.4526 -27.6489 5.4637
v  21.1616 -21.1616 5.4637
v  27.6489 -11.4526 5.4637
v  25.7119 10.6502 5.4637
v  27.8303 0.0000 5.4637
v  19.6790 19.6790 5.4637
v  10.6502 25.7119 5.4637
v  0.0000 27.8303 5.4637
v  -10.6502 25.7119 5.4637
v  -19.6790 19.6790 5.4637
v  -25.7119 10.6502 5.4637
v  -27.8303 0.0000 5.4637
v  -25.7119 -10.6502 5.4637
v  -19.6790 -19.6790 5.4637
v  -10.6502 -25.7119 5.4637
v  0.0000 -27.8303 5.4637
v  10.6502 -25.7119 5.4637
v  19.6790 -19.6790 5.4637
v  25.7119 -10.6502 5.4637
# 64 vertices

vn 0.9396 0.0000 0.3423
vn 0.8681 0.3596 0.3423
vn 0.6644 0.6644 0.3423
vn 0.3596 0.8681 0.3423
vn 0.0000 0.9396 0.3423
vn -0.3596 0.8681 0.3423
vn -0.6644 0.6644 0.3423
vn -0.8681 0.3596 0.3423
vn -0.9396 0.0000 0.3423
vn -0.8681 -0.3596 0.3423
vn -0.6644 -0.6644 0.3423
vn -0.3596 -0.8681 0.3423
vn 0.0000 -0.9396 0.3423
vn 0.3596 -0.8681 0.3423
vn 0.6644 -0.6644 0.3423
vn 0.8681 -0.3596 0.3423
vn 0.2698 0.0000 0.9629
vn 0.2493 0.1033 0.9629
vn 0.1412 0.0585 0.9883
vn 0.1528 0.0000 0.9883
vn 0.1908 0.1908 0.9629
vn 0.1081 0.1081 0.9883
vn 0.1033 0.2493 0.9629
vn 0.0585 0.1412 0.9883
vn 0.0000 0.2698 0.9629
vn 0.0000 0.1528 0.9883
vn -0.1033 0.2493 0.9629
vn -0.0585 0.1412 0.9883
vn -0.1908 0.1908 0.9629
vn -0.1081 0.1081 0.9883
vn -0.2493 0.1033 0.9629
vn -0.1412 0.0585 0.9883
vn -0.2698 0.0000 0.9629
vn -0.1528 0.0000 0.9883
vn -0.2493 -0.1033 0.9629
vn -0.1412 -0.0585 0.9883
vn -0.1908 -0.1908 0.9629
vn -0.1081 -0.1081 0.9883
vn -0.1033 -0.2493 0.9629
vn -0.0585 -0.1412 0.9883
vn 0.0000 -0.2698 0.9629
vn 0.0000 -0.1528 0.9883
vn 0.1033 -0.2493 0.9629
vn 0.0585 -0.1412 0.9883
vn 0.1908 -0.1908 0.9629
vn 0.1081 -0.1081 0.9883
vn 0.2493 -0.1033 0.9629
vn 0.1412 -0.0585 0.9883
vn 0.0000 0.0000 1.0000
# 49 vertex normals

vt 0.2940 0.7112 0.0000
vt 0.4422 0.7112 0.0000
vt 0.4349 0.7639 0.0000
vt 0.2940 0.7639 0.0000
vt 0.5679 0.7112 0.0000
vt 0.5544 0.7639 0.0000
vt 0.0200 0.8553 0.0000
vt 0.1457 0.8553 0.0000
vt 0.1530 0.9080 0.0000
vt 0.0336 0.9080 0.0000
vt 0.2940 0.8553 0.0000
vt 0.2940 0.9080 0.0000
vt 0.4422 0.8553 0.0000
vt 0.4349 0.9080 0.0000
vt 0.5679 0.8553 0.0000
vt 0.5544 0.9080 0.0000
vt 0.0200 0.7832 0.0000
vt 0.1457 0.7832 0.0000
vt 0.1530 0.8359 0.0000
vt 0.0336 0.8359 0.0000
vt 0.2940 0.7832 0.0000
vt 0.2940 0.8359 0.0000
vt 0.4422 0.7832 0.0000
vt 0.4349 0.8359 0.0000
vt 0.5679 0.7832 0.0000
vt 0.5544 0.8359 0.0000
vt 0.0200 0.9273 0.0000
vt 0.1457 0.9273 0.0000
vt 0.1530 0.9800 0.0000
vt 0.0336 0.9800 0.0000
vt 0.2940 0.9273 0.0000
vt 0.2940 0.9800 0.0000
vt 0.4422 0.9273 0.0000
vt 0.4349 0.9800 0.0000
vt 0.5679 0.9273 0.0000
vt 0.5544 0.9800 0.0000
vt 0.0200 0.7112 0.0000
vt 0.1457 0.7112 0.0000
vt 0.1530 0.7639 0.0000
vt 0.0336 0.7639 0.0000
vt 0.2920 0.6956 0.0000
vt 0.1677 0.6447 0.0000
vt 0.1840 0.6202 0.0000
vt 0.2976 0.6668 0.0000
vt 0.0724 0.5502 0.0000
vt 0.0968 0.5337 0.0000
vt 0.0205 0.4263 0.0000
vt 0.0493 0.4205 0.0000
vt 0.0200 0.2920 0.0000
vt 0.0489 0.2976 0.0000
vt 0.0709 0.1677 0.0000
vt 0.0954 0.1840 0.0000
vt 0.1655 0.0724 0.0000
vt 0.1819 0.0968 0.0000
vt 0.2893 0.0205 0.0000
vt 0.2952 0.0493 0.0000
vt 0.4236 0.0200 0.0000
vt 0.4180 0.0489 0.0000
vt 0.5479 0.0709 0.0000
vt 0.5317 0.0954 0.0000
vt 0.6432 0.1655 0.0000
vt 0.6188 0.1819 0.0000
vt 0.6951 0.2893 0.0000
vt 0.6663 0.2952 0.0000
vt 0.6956 0.4236 0.0000
vt 0.6668 0.4180 0.0000
vt 0.6447 0.5479 0.0000
vt 0.6202 0.5317 0.0000
vt 0.5502 0.6432 0.0000
vt 0.5337 0.6188 0.0000
vt 0.4263 0.6951 0.0000
vt 0.4205 0.6663 0.0000
vt 0.1962 0.6018 0.0000
vt 0.3019 0.6451 0.0000
vt 0.1151 0.5214 0.0000
vt 0.0710 0.4161 0.0000
vt 0.0705 0.3019 0.0000
vt 0.1138 0.1962 0.0000
vt 0.1942 0.1151 0.0000
vt 0.2996 0.0710 0.0000
vt 0.4138 0.0705 0.0000
vt 0.5195 0.1138 0.0000
vt 0.6006 0.1942 0.0000
vt 0.6447 0.2996 0.0000
vt 0.6451 0.4138 0.0000
vt 0.6018 0.5195 0.0000
vt 0.5214 0.6006 0.0000
vt 0.4161 0.6447 0.0000
# 88 texture coords

g buttonring003
usemtl wire_006135058
s 1
f 1/1/1 2/2/2 3/3/2 
f 3/3/2 4/4/1 1/1/1 
f 2/2/2 5/5/3 6/6/3 
f 6/6/3 3/3/2 2/2/2 
f 5/7/3 7/8/4 8/9/4 
f 8/9/4 6/10/3 5/7/3 
f 7/8/4 9/11/5 10/12/5 
f 10/12/5 8/9/4 7/8/4 
f 9/11/5 11/13/6 12/14/6 
f 12/14/6 10/12/5 9/11/5 
f 11/13/6 13/15/7 14/16/7 
f 14/16/7 12/14/6 11/13/6 
f 13/17/7 15/18/8 16/19/8 
f 16/19/8 14/20/7 13/17/7 
f 15/18/8 17/21/9 18/22/9 
f 18/22/9 16/19/8 15/18/8 
f 17/21/9 19/23/10 20/24/10 
f 20/24/10 18/22/9 17/21/9 
f 19/23/10 21/25/11 22/26/11 
f 22/26/11 20/24/10 19/23/10 
f 21/27/11 23/28/12 24/29/12 
f 24/29/12 22/30/11 21/27/11 
f 23/28/12 25/31/13 26/32/13 
f 26/32/13 24/29/12 23/28/12 
f 25/31/13 27/33/14 28/34/14 
f 28/34/14 26/32/13 25/31/13 
f 27/33/14 29/35/15 30/36/15 
f 30/36/15 28/34/14 27/33/14 
f 29/37/15 31/38/16 32/39/16 
f 32/39/16 30/40/15 29/37/15 
f 31/38/16 1/1/1 4/4/1 
f 4/4/1 32/39/16 31/38/16 
s 2
f 4/41/17 3/42/18 33/43/19 
f 33/43/19 34/44/20 4/41/17 
f 3/42/18 6/45/21 35/46/22 
f 35/46/22 33/43/19 3/42/18 
f 6/45/21 8/47/23 36/48/24 
f 36/48/24 35/46/22 6/45/21 
f 8/47/23 10/49/25 37/50/26 
f 37/50/26 36/48/24 8/47/23 
f 10/49/25 12/51/27 38/52/28 
f 38/52/28 37/50/26 10/49/25 
f 12/51/27 14/53/29 39/54/30 
f 39/54/30 38/52/28 12/51/27 
f 14/53/29 16/55/31 40/56/32 
f 40/56/32 39/54/30 14/53/29 
f 16/55/31 18/57/33 41/58/34 
f 41/58/34 40/56/32 16/55/31 
f 18/57/33 20/59/35 42/60/36 
f 42/60/36 41/58/34 18/57/33 
f 20/59/35 22/61/37 43/62/38 
f 43/62/38 42/60/36 20/59/35 
f 22/61/37 24/63/39 44/64/40 
f 44/64/40 43/62/38 22/61/37 
f 24/63/39 26/65/41 45/66/42 
f 45/66/42 44/64/40 24/63/39 
f 26/65/41 28/67/43 46/68/44 
f 46/68/44 45/66/42 26/65/41 
f 28/67/43 30/69/45 47/70/46 
f 47/70/46 46/68/44 28/67/43 
f 30/69/45 32/71/47 48/72/48 
f 48/72/48 47/70/46 30/69/45 
f 32/71/47 4/41/17 34/44/20 
f 34/44/20 48/72/48 32/71/47 
f 34/44/20 33/43/19 49/73/49 
f 49/73/49 50/74/49 34/44/20 
f 33/43/19 35/46/22 51/75/49 
f 51/75/49 49/73/49 33/43/19 
f 35/46/22 36/48/24 52/76/49 
f 52/76/49 51/75/49 35/46/22 
f 36/48/24 37/50/26 53/77/49 
f 53/77/49 52/76/49 36/48/24 
f 37/50/26 38/52/28 54/78/49 
f 54/78/49 53/77/49 37/50/26 
f 38/52/28 39/54/30 55/79/49 
f 55/79/49 54/78/49 38/52/28 
f 39/54/30 40/56/32 56/80/49 
f 56/80/49 55/79/49 39/54/30 
f 40/56/32 41/58/34 57/81/49 
f 57/81/49 56/80/49 40/56/32 
f 41/58/34 42/60/36 58/82/49 
f 58/82/49 57/81/49 41/58/34 
f 42/60/36 43/62/38 59/83/49 
f 59/83/49 58/82/49 42/60/36 
f 43/62/38 44/64/40 60/84/49 
f 60/84/49 59/83/49 43/62/38 
f 44/64/40 45/66/42 61/85/49 
f 61/85/49 60/84/49 44/64/40 
f 45/66/42 46/68/44 62/86/49 
f 62/86/49 61/85/49 45/66/42 
f 46/68/44 47/70/46 63/87/49 
f 63/87/49 62/86/49 46/68/44 
f 47/70/46 48/72/48 64/88/49 
f 64/88/49 63/87/49 47/70/46 
f 48/72/48 34/44/20 50/74/49 
f 50/74/49 64/88/49 48/72/48 
# 96 faces

