# 3ds Max Wavefront OBJ Exporter v0.97b - (c)2007 guruware
# File Created: 11.04.2016 16:59:57

mtllib namecard.mtl

#
# object namecard003
#

v  47.9731 0.0000 2.7810
v  -47.9731 0.0000 2.7810
v  -47.9731 0.0000 -2.7810
v  47.9731 0.0000 -2.7810
v  47.9731 28.1861 2.7810
v  47.9731 28.1861 -2.7810
v  -47.9731 28.1861 -2.7810
v  -47.9731 28.1861 2.7810
v  -43.6230 4.3501 1.5080
v  43.6230 4.3501 1.5080
v  43.6230 23.8359 1.5080
v  -43.6230 23.8359 1.5080
v  45.7981 2.1751 2.7810
v  -45.7981 2.1751 2.7810
v  45.7981 26.0110 2.7810
v  -45.7981 26.0110 2.7810
# 16 vertices

vn 0.0000 -1.0000 -0.0000
vn 0.0000 1.0000 -0.0000
vn 1.0000 0.0000 -0.0000
vn -0.0000 0.0000 -1.0000
vn -1.0000 0.0000 0.0000
vn 0.2006 0.2006 0.9589
vn -0.2006 0.2006 0.9589
vn -0.2006 -0.2006 0.9589
vn 0.2006 -0.2006 0.9589
vn 0.0000 0.0000 1.0000
vn -0.0697 0.0697 0.9951
vn 0.0697 0.0697 0.9951
vn -0.0697 -0.0697 0.9951
vn 0.0697 -0.0697 0.9951
# 14 vertex normals

vt 0.0356 0.0200 0.0000
vt 0.8701 0.0200 0.0000
vt 0.8701 0.0684 0.0000
vt 0.0356 0.0684 0.0000
vt 0.8701 0.1263 0.0000
vt 0.8701 0.1746 0.0000
vt 0.0356 0.1746 0.0000
vt 0.0356 0.1263 0.0000
vt 0.4669 0.5651 0.0000
vt 0.4669 0.6135 0.0000
vt 0.2218 0.6135 0.0000
vt 0.2218 0.5651 0.0000
vt 0.0356 0.2186 0.0000
vt 0.8701 0.2186 0.0000
vt 0.8701 0.4637 0.0000
vt 0.0356 0.4637 0.0000
vt 0.4669 0.6281 0.0000
vt 0.4669 0.6765 0.0000
vt 0.2218 0.6765 0.0000
vt 0.2218 0.6281 0.0000
vt 0.0200 0.8105 0.0000
vt 0.7788 0.8105 0.0000
vt 0.7788 0.9800 0.0000
vt 0.0200 0.9800 0.0000
vt 0.0200 0.5036 0.0000
vt 0.8857 0.5036 0.0000
vt 0.8661 0.5233 0.0000
vt 0.0396 0.5233 0.0000
vt 0.8857 0.7580 0.0000
vt 0.8661 0.7383 0.0000
vt 0.0200 0.7580 0.0000
vt 0.0396 0.7383 0.0000
vt 0.8465 0.5429 0.0000
vt 0.0593 0.5429 0.0000
vt 0.8465 0.7187 0.0000
vt 0.0593 0.7187 0.0000
# 36 texture coords

g namecard003
usemtl wire_006135058
s 1
f 1/1/1 2/2/1 3/3/1 
f 3/3/1 4/4/1 1/1/1 
f 5/5/2 6/6/2 7/7/2 
f 7/7/2 8/8/2 5/5/2 
s 2
f 1/9/3 4/10/3 6/11/3 
f 6/11/3 5/12/3 1/9/3 
s 4
f 4/13/4 3/14/4 7/15/4 
f 7/15/4 6/16/4 4/13/4 
s 2
f 3/17/5 2/18/5 8/19/5 
f 8/19/5 7/20/5 3/17/5 
s 4
f 9/21/6 10/22/7 11/23/8 
f 11/23/8 12/24/9 9/21/6 
f 2/25/10 1/26/10 13/27/11 
f 13/27/11 14/28/12 2/25/10 
f 1/26/10 5/29/10 15/30/13 
f 15/30/13 13/27/11 1/26/10 
f 5/29/10 8/31/10 16/32/14 
f 16/32/14 15/30/13 5/29/10 
f 8/31/10 2/25/10 14/28/12 
f 14/28/12 16/32/14 8/31/10 
f 14/28/12 13/27/11 10/33/7 
f 10/33/7 9/34/6 14/28/12 
f 13/27/11 15/30/13 11/35/8 
f 11/35/8 10/33/7 13/27/11 
f 15/30/13 16/32/14 12/36/9 
f 12/36/9 11/35/8 15/30/13 
f 16/32/14 14/28/12 9/34/6 
f 9/34/6 12/36/9 16/32/14 
# 28 faces

