# 3ds Max Wavefront OBJ Exporter v0.97b - (c)2007 guruware
# File Created: 14.12.2015 11:48:57

mtllib arrow.mtl

#
# object Rectangle001
#

v  -0.4726 0.0547 0.4984
v  -0.2000 0.0547 0.4984
v  -0.2000 -0.0547 0.4984
v  -0.4726 -0.0547 0.4984
v  -0.0000 0.0547 0.9710
v  0.0000 -0.0547 0.9710
v  0.4726 0.0547 0.4984
v  0.4726 -0.0547 0.4984
v  0.2000 0.0547 0.4984
v  0.2000 -0.0547 0.4984
v  0.2000 0.0547 -0.0000
v  0.2000 -0.0547 -0.0000
v  -0.2000 0.0547 -0.0000
v  -0.2000 -0.0547 -0.0000
v  0.1469 -0.1028 0.5515
v  0.3445 -0.1028 0.5515
v  0.0000 -0.1028 0.8959
v  -0.3445 -0.1028 0.5515
v  -0.1469 -0.1028 0.5515
v  0.1469 -0.1028 0.0531
v  -0.1469 -0.1028 0.0531
v  0.1469 0.1028 0.0531
v  -0.1469 0.1028 0.0531
v  -0.1469 0.1028 0.5515
v  -0.3445 0.1028 0.5515
v  -0.0000 0.1028 0.8959
v  0.3445 0.1028 0.5515
v  0.1469 0.1028 0.5515
# 28 vertices

vn 0.0000 0.1536 -0.9881
vn 0.0000 0.2777 -0.9607
vn 0.0000 -0.2777 -0.9607
vn 0.0000 -0.1536 -0.9881
vn -0.6919 0.2060 0.6919
vn -0.6987 0.1536 0.6987
vn -0.6987 -0.1536 0.6987
vn -0.6919 -0.2060 0.6919
vn 0.6987 0.1536 0.6987
vn 0.6919 0.2060 0.6919
vn 0.6919 -0.2060 0.6919
vn 0.6987 -0.1536 0.6987
vn -0.0000 0.2777 -0.9607
vn -0.0000 0.1536 -0.9881
vn -0.0000 -0.1536 -0.9881
vn -0.0000 -0.2777 -0.9607
vn 0.9786 0.2060 0.0000
vn 0.9607 0.2777 0.0000
vn 0.9607 -0.2777 0.0000
vn 0.9786 -0.2060 0.0000
vn 0.0000 0.2060 -0.9786
vn 0.0000 -0.2060 -0.9786
vn -0.9607 0.2777 0.0000
vn -0.9786 0.2060 0.0000
vn -0.9786 -0.2060 0.0000
vn -0.9607 -0.2777 0.0000
vn 0.0000 -1.0000 0.0000
vn -0.0000 1.0000 -0.0000
vn 0.0000 -0.4789 -0.8779
vn -0.8779 -0.4789 0.0000
vn 0.8779 -0.4789 0.0000
vn -0.0000 -0.4789 -0.8779
vn 0.6208 -0.4789 0.6208
vn -0.6208 -0.4789 0.6208
vn 0.0000 0.4789 -0.8779
vn -0.6208 0.4789 0.6208
vn 0.6208 0.4789 0.6208
vn -0.0000 0.4789 -0.8779
vn 0.8779 0.4789 0.0000
vn -0.8779 0.4789 0.0000
# 40 vertex normals

vt 0.5511 0.0200 0.0000
vt 0.6427 0.0200 0.0000
vt 0.6427 0.1251 0.0000
vt 0.5511 0.1251 0.0000
vt 0.6696 0.4087 0.0000
vt 0.6696 0.1417 0.0000
vt 0.7579 0.1417 0.0000
vt 0.7579 0.4087 0.0000
vt 0.5585 0.4087 0.0000
vt 0.5585 0.1417 0.0000
vt 0.6469 0.1417 0.0000
vt 0.6469 0.4087 0.0000
vt 0.6621 0.0200 0.0000
vt 0.7537 0.0200 0.0000
vt 0.7537 0.1251 0.0000
vt 0.6621 0.1251 0.0000
vt 0.8916 0.4095 0.0000
vt 0.8916 0.2105 0.0000
vt 0.9800 0.2105 0.0000
vt 0.9800 0.4095 0.0000
vt 0.7806 0.1855 0.0000
vt 0.7806 0.0257 0.0000
vt 0.8690 0.0257 0.0000
vt 0.8690 0.1855 0.0000
vt 0.7806 0.4095 0.0000
vt 0.7806 0.2105 0.0000
vt 0.8690 0.2105 0.0000
vt 0.8690 0.4095 0.0000
vt 0.2529 0.3269 0.0000
vt 0.3087 0.2711 0.0000
vt 0.3087 0.4656 0.0000
vt 0.1141 0.4656 0.0000
vt 0.1699 0.4098 0.0000
vt 0.1121 0.1861 0.0000
vt 0.0291 0.2691 0.0000
vt 0.2257 0.6961 0.0000
vt 0.3087 0.7791 0.0000
vt 0.1679 0.9199 0.0000
vt 0.2237 0.9757 0.0000
vt 0.0291 0.9757 0.0000
vt 0.0291 0.7811 0.0000
vt 0.0850 0.8369 0.0000
vt 0.4516 0.4080 0.0000
vt 0.3427 0.4080 0.0000
vt 0.3215 0.3637 0.0000
vt 0.4004 0.3637 0.0000
vt 0.2275 0.0643 0.0000
vt 0.0284 0.0643 0.0000
vt 0.0496 0.0200 0.0000
vt 0.2487 0.0200 0.0000
vt 0.4816 0.4686 0.0000
vt 0.3219 0.4686 0.0000
vt 0.3431 0.4243 0.0000
vt 0.4604 0.4243 0.0000
vt 0.4897 0.0643 0.0000
vt 0.2907 0.0643 0.0000
vt 0.2694 0.0200 0.0000
vt 0.4685 0.0200 0.0000
vt 0.4304 0.3474 0.0000
vt 0.3215 0.3474 0.0000
vt 0.3727 0.3031 0.0000
vt 0.4516 0.3031 0.0000
vt 0.3050 0.1758 0.0000
vt 0.0200 0.1758 0.0000
vt 0.0426 0.1343 0.0000
vt 0.2503 0.1343 0.0000
vt 0.3050 0.1207 0.0000
vt 0.0200 0.1207 0.0000
vt 0.0746 0.0792 0.0000
vt 0.2823 0.0792 0.0000
vt 0.3427 0.8132 0.0000
vt 0.4516 0.8132 0.0000
vt 0.4004 0.8575 0.0000
vt 0.3215 0.8575 0.0000
vt 0.0200 0.5892 0.0000
vt 0.3050 0.5892 0.0000
vt 0.2823 0.6307 0.0000
vt 0.0746 0.6307 0.0000
vt 0.0200 0.6443 0.0000
vt 0.3050 0.6443 0.0000
vt 0.2503 0.6858 0.0000
vt 0.0426 0.6858 0.0000
vt 0.3215 0.8738 0.0000
vt 0.4304 0.8738 0.0000
vt 0.4516 0.9181 0.0000
vt 0.3727 0.9181 0.0000
vt 0.2907 0.5300 0.0000
vt 0.4897 0.5300 0.0000
vt 0.4685 0.5743 0.0000
vt 0.2694 0.5743 0.0000
vt 0.3219 0.9344 0.0000
vt 0.4816 0.9344 0.0000
vt 0.4604 0.9787 0.0000
vt 0.3431 0.9787 0.0000
vt 0.0284 0.5300 0.0000
vt 0.2275 0.5300 0.0000
vt 0.2487 0.5743 0.0000
vt 0.0496 0.5743 0.0000
# 98 texture coords

g Rectangle001
usemtl wire_135006006
s 1
f 1/1/1 2/2/2 3/3/3 
f 3/3/3 4/4/4 1/1/1 
s 2
f 5/5/5 1/6/6 4/7/7 
f 4/7/7 6/8/8 5/5/5 
s 1
f 7/9/9 5/10/10 6/11/11 
f 6/11/11 8/12/12 7/9/9 
s 2
f 9/13/13 7/14/14 8/15/15 
f 8/15/15 10/16/16 9/13/13 
s 1
f 11/17/17 9/18/18 10/19/19 
f 10/19/19 12/20/20 11/17/17 
s 2
f 13/21/21 11/22/21 12/23/22 
f 12/23/22 14/24/22 13/21/21 
s 4
f 2/25/23 13/26/24 14/27/25 
f 14/27/25 3/28/26 2/25/23 
s 8
f 15/29/27 16/30/27 17/31/27 
f 17/31/27 18/32/27 19/33/27 
f 15/29/27 17/31/27 19/33/27 
f 20/34/27 15/29/27 19/33/27 
f 20/34/27 19/33/27 21/35/27 
f 22/36/28 23/37/28 24/38/28 
f 24/38/28 25/39/28 26/40/28 
f 26/40/28 27/41/28 28/42/28 
f 24/38/28 26/40/28 28/42/28 
f 22/36/28 24/38/28 28/42/28 
s 1
f 4/43/4 3/44/3 19/45/29 
f 19/45/29 18/46/29 4/43/4 
s 4
f 3/47/26 14/48/25 21/49/30 
f 21/49/30 19/50/30 3/47/26 
s 2
f 14/51/22 12/52/22 20/53/29 
f 20/53/29 21/54/29 14/51/22 
s 1
f 12/55/20 10/56/19 15/57/31 
f 15/57/31 20/58/31 12/55/20 
s 2
f 10/59/16 8/60/15 16/61/32 
f 16/61/32 15/62/32 10/59/16 
s 1
f 8/63/12 6/64/11 17/65/33 
f 17/65/33 16/66/33 8/63/12 
s 2
f 6/67/8 4/68/7 18/69/34 
f 18/69/34 17/70/34 6/67/8 
s 1
f 2/71/2 1/72/1 25/73/35 
f 25/73/35 24/74/35 2/71/2 
s 2
f 1/75/6 5/76/5 26/77/36 
f 26/77/36 25/78/36 1/75/6 
s 1
f 5/79/10 7/80/9 27/81/37 
f 27/81/37 26/82/37 5/79/10 
s 2
f 7/83/14 9/84/13 28/85/38 
f 28/85/38 27/86/38 7/83/14 
s 1
f 9/87/18 11/88/17 22/89/39 
f 22/89/39 28/90/39 9/87/18 
s 2
f 11/91/21 13/92/21 23/93/35 
f 23/93/35 22/94/35 11/91/21 
s 4
f 13/95/24 2/96/23 24/97/40 
f 24/97/40 23/98/40 13/95/24 
# 52 faces

