# 3ds Max Wavefront OBJ Exporter v0.97b - (c)2007 guruware
# File Created: 12.02.2016 12:53:35

mtllib nodes.mtl

#
# object Plane004
#

v  34.0107 0.0000 268.2771
v  34.0107 0.0000 335.1392
v  103.5635 0.0000 268.2771
v  103.5635 0.0000 200.9626
v  103.5635 0.0000 134.9553
v  103.5635 0.0000 70.9863
v  103.5635 0.0000 0.0000
v  -0.0000 0.0000 0.0000
v  -0.0000 0.0000 -66.9573
v  34.0107 0.0000 -66.9573
v  34.0107 0.0000 -132.9101
v  103.5635 0.0000 -66.9573
v  174.5464 0.0000 0.0000
v  174.5464 0.0000 134.9553
v  174.5464 0.0000 200.9626
v  174.5464 0.0000 268.2771
v  244.3027 0.0000 268.2771
v  292.5355 0.0000 335.1392
v  292.5355 0.0000 268.2771
v  244.3027 0.0000 200.5502
v  292.5355 0.0000 200.5502
v  292.5355 0.0000 134.9553
v  354.3258 0.0000 0.0000
v  174.5464 0.0000 -132.9101
v  292.5355 0.0000 -132.9101
v  292.5355 0.0000 -198.7229
v  174.5464 0.0000 -198.7229
v  103.5635 0.0000 -132.9102
v  103.5635 0.0000 -198.7229
v  292.5355 0.0000 -288.8004
v  174.5464 0.0000 -288.8004
v  34.0107 0.0000 -288.8004
v  34.0107 0.0000 -198.7229
v  -36.9846 0.0000 -198.7229
v  -36.9846 0.0000 -288.8004
v  -176.3705 0.0000 -288.8004
v  -107.1600 0.0000 -198.7229
v  -37.6407 0.0000 -132.9102
v  -37.6407 0.0000 -66.9573
v  -107.1600 0.0000 -66.9573
v  -107.1600 0.0000 -132.9101
v  -176.3705 0.0000 -198.7229
v  -295.0898 0.0000 -288.8004
v  -295.0898 0.0000 -198.7229
v  -295.0898 0.0000 -132.4889
v  -176.3705 0.0000 -132.4889
v  -361.6191 0.0000 -0.0000
v  -295.0898 0.0000 134.9553
v  -295.0898 0.0000 200.9626
v  -243.6529 0.0000 200.9626
v  -295.0898 0.0000 268.2771
v  -295.0898 0.0000 335.1392
v  -243.6529 0.0000 268.2771
v  -176.3705 0.0000 268.2771
v  -176.3705 0.0000 200.9626
v  -176.3705 0.0000 134.9553
v  -176.3705 0.0000 0.0000
v  -107.1600 0.0000 0.0000
v  -107.1600 0.0000 70.9863
v  -107.1600 0.0000 134.9553
v  -107.1600 0.0000 200.9626
v  -107.1601 0.0000 268.2771
v  -37.6407 0.0000 335.1392
v  -37.6407 0.0000 268.2771
v  0.0000 0.0000 197.9455
v  -37.6407 0.0000 197.9455
v  -37.6407 0.0000 134.9553
v  34.0107 0.0000 134.9553
v  34.0107 0.0000 200.9626
# 69 vertices

vn 0.0000 1.0000 -0.0000
vn 0.0000 -1.0000 -0.0000
# 2 vertex normals

vt 241.5976 0.0000 0.0000
vt 241.9472 0.0000 0.0000
vt 242.5800 0.0000 0.0000
vt 243.6502 0.0000 0.0000
vt 247.0741 0.0000 0.0000
vt 279.0946 0.0000 0.0000
vt 279.0947 136.2227 0.0000
vt 0.0000 293.8693 0.0000
vt 0.0000 0.0000 0.0000
vt 4.5999 0.0000 0.0000
vt 10.4782 0.0000 0.0000
vt 10.6220 0.0000 0.0000
vt 10.7501 0.0000 0.0000
vt 10.7734 0.0000 0.0000
vt 10.7881 0.0000 0.0000
vt 10.7911 0.0000 0.0000
vt 10.7924 0.0000 0.0000
vt 10.7934 0.0000 0.0000
vt 10.7944 0.0000 0.0000
vt 10.7963 0.0000 0.0000
vt 10.7988 0.0000 0.0000
vt 10.8027 0.0000 0.0000
vt 10.8075 0.0000 0.0000
vt 10.9176 0.0000 0.0000
vt 11.0951 0.0000 0.0000
vt 11.5271 0.0000 0.0000
vt 11.6058 0.0000 0.0000
vt 11.6323 0.0000 0.0000
vt 11.6617 0.0000 0.0000
vt 11.7423 0.0000 0.0000
vt 12.2972 0.0000 0.0000
vt 13.6595 0.0000 0.0000
vt 15.3437 0.0000 0.0000
vt 17.0417 0.0000 0.0000
vt 23.5587 0.0000 0.0000
vt 26.3319 0.0000 0.0000
vt 27.3655 0.0000 0.0000
vt 27.5881 0.0000 0.0000
vt 27.6548 0.0000 0.0000
vt 27.7136 0.0000 0.0000
vt 27.7596 0.0000 0.0000
vt 28.3183 0.0000 0.0000
vt 31.3210 0.0000 0.0000
vt 35.1915 0.0000 0.0000
vt 38.7105 0.0000 0.0000
vt 47.4236 0.0000 0.0000
vt 62.6106 0.0000 0.0000
vt 64.5487 0.0000 0.0000
vt 66.9882 0.0000 0.0000
vt 69.0618 0.0000 0.0000
vt 69.3683 0.0000 0.0000
vt 69.6304 0.0000 0.0000
vt 69.7080 0.0000 0.0000
vt 70.0097 0.0000 0.0000
vt 70.6317 0.0000 0.0000
vt 71.3386 0.0000 0.0000
vt 78.2312 0.0000 0.0000
vt 115.8075 0.0000 0.0000
vt 188.4580 0.0000 0.0000
vt 206.1243 0.0000 0.0000
vt 213.6837 0.0000 0.0000
vt 214.9010 0.0000 0.0000
vt 216.6878 0.0000 0.0000
vt 217.5790 0.0000 0.0000
vt 218.9790 0.0000 0.0000
vt 219.7701 0.0000 0.0000
vt 224.0221 0.0000 0.0000
vt 239.2027 0.0000 0.0000
vt 240.9213 0.0000 0.0000
# 69 texture coords

g Plane004
usemtl wire_135006006
s 1
f 1/1/1 2/2/1 3/3/1 4/4/1 5/5/1 6/6/1 7/7/1 8/8/1 9/9/1 10/10/1 11/11/2 12/12/1 13/13/1 14/14/1 15/15/1 16/16/1 17/17/1 18/18/1 19/19/1 20/20/1 21/21/1 22/22/1 23/23/1 24/24/1 25/25/1 26/26/1 27/27/1 28/28/1 29/29/1 30/30/1 31/31/1 32/32/1 33/33/1 34/34/1 35/35/1 36/36/1 37/37/1 38/38/1 39/39/1 40/40/1 41/41/1 42/42/1 43/43/1 44/44/1 45/45/1 46/46/1 47/47/1 48/48/1 49/49/1 50/50/1 51/51/1 52/52/1 53/53/1 54/54/1 55/55/1 56/56/1 57/57/1 58/58/1 59/59/1 60/60/1 61/61/1 62/62/1 63/63/1 64/64/1 65/65/1 66/66/1 67/67/1 68/68/1 69/69/1 
# 1 polygons

