# 3ds Max Wavefront OBJ Exporter v0.97b - (c)2007 guruware
# File Created: 29.04.2017 09:40:40

mtllib arrow.mtl

#
# object Cone001
#

v  -1.1949 1.8650 -0.0000
v  -1.1949 1.3188 -1.3188
v  -2.3066 0.7101 -0.7101
v  -2.3066 1.0042 -0.0000
v  -1.1949 -0.0000 -1.8650
v  -2.3066 -0.0000 -1.0042
v  -1.1949 -1.3188 -1.3188
v  -2.3066 -0.7101 -0.7101
v  -1.1949 -1.8650 0.0000
v  -2.3066 -1.0042 0.0000
v  -1.1949 -1.3188 1.3188
v  -2.3066 -0.7101 0.7101
v  -1.1949 0.0000 1.8650
v  -2.3066 -0.0000 1.0042
v  -1.1949 1.3188 1.3188
v  -2.3066 0.7101 0.7101
v  -3.6035 -0.0000 -0.0000
v  -1.0096 1.2187 -1.2187
v  -1.0096 1.7235 -0.0000
v  -1.0096 0.8524 -0.0000
v  -1.0096 0.6028 -0.6028
v  -1.0096 -0.0000 -1.7235
v  -1.0096 -0.0000 -0.8524
v  -1.0096 -1.2187 -1.2187
v  -1.0096 -0.6028 -0.6028
v  -1.0096 -1.7235 0.0000
v  -1.0096 -0.8524 0.0000
v  -1.0096 -1.2187 1.2187
v  -1.0096 -0.6028 0.6028
v  -1.0096 0.0000 1.7235
v  -1.0096 0.0000 0.8524
v  -1.0096 1.2187 1.2187
v  -1.0096 0.6028 0.6028
v  1.0440 0.6627 -0.0000
v  1.0440 0.4686 -0.4686
v  1.0440 -0.0000 -0.6627
v  1.0440 -0.4686 -0.4686
v  1.0440 -0.6627 0.0000
v  1.0440 -0.4686 0.4686
v  1.0440 -0.0000 0.6627
v  1.0440 0.4686 0.4686
v  3.6035 0.3014 -0.3014
v  3.6035 0.4262 -0.0000
v  3.6035 -0.0000 -0.0000
v  3.6035 -0.0000 -0.4262
v  3.6035 -0.3014 -0.3014
v  3.6035 -0.4262 0.0000
v  3.6035 -0.3014 0.3014
v  3.6035 -0.0000 0.4262
v  3.6035 0.3014 0.3014
# 50 vertices

vn -0.0026 1.0000 -0.0000
vn -0.0026 0.7071 -0.7071
vn -0.5034 0.6110 -0.6110
vn -0.5034 0.8641 -0.0000
vn -0.0026 -0.0000 -1.0000
vn -0.5034 -0.0000 -0.8641
vn -0.0026 -0.7071 -0.7071
vn -0.5034 -0.6110 -0.6110
vn -0.0026 -1.0000 0.0000
vn -0.5034 -0.8641 0.0000
vn -0.0026 -0.7071 0.7071
vn -0.5034 -0.6110 0.6110
vn -0.0026 0.0000 1.0000
vn -0.5034 -0.0000 0.8641
vn -0.0026 0.7071 0.7071
vn -0.5034 0.6110 0.6110
vn -0.4739 0.8135 -0.3370
vn -0.4739 0.8135 0.3370
vn -0.4739 0.3370 -0.8135
vn -0.4739 -0.3370 -0.8135
vn -0.4739 -0.8135 -0.3370
vn -0.4739 -0.8135 0.3370
vn -0.4739 -0.3370 0.8135
vn -0.4739 0.3370 0.8135
vn 0.8125 0.4122 -0.4122
vn 0.8125 0.5829 0.0000
vn 0.8230 0.5681 0.0000
vn 0.8230 0.4017 -0.4017
vn 0.8125 -0.0000 -0.5829
vn 0.8230 0.0000 -0.5681
vn 0.8125 -0.4122 -0.4122
vn 0.8230 -0.4017 -0.4017
vn 0.8125 -0.5829 0.0000
vn 0.8230 -0.5681 0.0000
vn 0.8125 -0.4122 0.4122
vn 0.8230 -0.4017 0.4017
vn 0.8125 0.0000 0.5829
vn 0.8230 0.0000 0.5681
vn 0.8125 0.4122 0.4122
vn 0.8230 0.4017 0.4017
vn 0.0693 0.9976 0.0000
vn 0.0693 0.7054 -0.7054
vn 0.0693 -0.0000 -0.9976
vn 0.0693 -0.7054 -0.7054
vn 0.0693 -0.9976 0.0000
vn 0.0693 -0.7054 0.7054
vn 0.0693 -0.0000 0.9976
vn 0.0693 0.7054 0.7054
vn 0.6561 0.5336 -0.5336
vn 0.6561 0.7546 0.0000
vn 1.0000 0.0000 -0.0000
vn 0.6561 -0.0000 -0.7546
vn 0.6561 -0.5336 -0.5336
vn 0.6561 -0.7546 0.0000
vn 0.6561 -0.5336 0.5336
vn 0.6561 0.0000 0.7546
vn 0.6561 0.5336 0.5336
vn -0.0000 1.0000 -0.0000
# 58 vertex normals

vt 9.4647 0.2463 0.9286
vt 11.0422 0.2463 0.9286
vt 11.0422 1.7239 0.5000
vt 9.4647 1.7239 0.5000
vt 12.6197 0.2463 0.9286
vt 12.6197 1.7239 0.5000
vt 0.0000 0.2463 0.9286
vt 1.5775 0.2463 0.9286
vt 1.5775 1.7239 0.5000
vt 0.0000 1.7239 0.5000
vt 3.1549 0.2463 0.9286
vt 3.1549 1.7239 0.5000
vt 4.7324 0.2463 0.9286
vt 4.7324 1.7239 0.5000
vt 6.3098 0.2463 0.9286
vt 6.3098 1.7239 0.5000
vt 7.8873 0.2463 0.9286
vt 7.8873 1.7239 0.5000
vt 6.3098 3.4477 0.0000
vt 11.0422 0.0000 0.9178
vt 9.4647 0.0000 0.9178
vt 9.4647 0.0000 0.6667
vt 11.0422 0.0000 0.6667
vt 0.0000 0.0000 0.9178
vt -1.5775 0.0000 0.9178
vt -1.5775 0.0000 0.6667
vt 0.0000 0.0000 0.6667
vt 1.5775 0.0000 0.9178
vt 1.5775 0.0000 0.6667
vt 3.1549 0.0000 0.9178
vt 3.1549 0.0000 0.6667
vt 4.7324 0.0000 0.9178
vt 4.7324 0.0000 0.6667
vt 6.3098 0.0000 0.9178
vt 6.3098 0.0000 0.6667
vt 7.8873 0.0000 0.9178
vt 7.8873 0.0000 0.6667
vt 9.4647 0.0000 0.5183
vt 11.0422 0.0000 0.5183
vt -1.5775 0.0000 0.5183
vt 0.0000 0.0000 0.5183
vt 1.5775 0.0000 0.5183
vt 3.1549 0.0000 0.5183
vt 4.7324 0.0000 0.5183
vt 6.3098 0.0000 0.5183
vt 7.8873 0.0000 0.5183
vt 11.0422 0.0000 0.3333
vt 9.4647 0.0000 0.3333
vt 6.3098 0.0000 0.0000
vt -12.6197 0.0000 0.3333
vt -1.5775 0.0000 0.3333
vt -6.3098 0.0000 0.0000
vt 1.5775 0.0000 0.3333
vt 0.0000 0.0000 0.3333
vt 3.1549 0.0000 0.3333
vt 4.7324 0.0000 0.3333
vt 6.3098 0.0000 0.3333
vt 7.8873 0.0000 0.3333
vt -1.5975 0.5974 0.9524
vt 0.0201 0.5974 0.9524
# 60 texture coords

g Cone001
usemtl 19___Default
s 1
f 1/1/1 2/2/2 3/3/3 4/4/4 
f 2/2/2 5/5/5 6/6/6 3/3/3 
f 5/7/5 7/8/7 8/9/8 6/10/6 
f 7/8/7 9/11/9 10/12/10 8/9/8 
f 9/11/9 11/13/11 12/14/12 10/12/10 
f 11/13/11 13/15/13 14/16/14 12/14/12 
f 13/15/13 15/17/15 16/18/16 14/16/14 
f 15/17/15 1/1/1 4/4/4 16/18/16 
f 4/4/4 3/3/3 17/19/17 17/19/18 
f 3/3/3 6/6/6 17/19/19 17/19/17 
f 6/10/6 8/9/8 17/19/20 17/19/19 
f 8/9/8 10/12/10 17/19/21 17/19/20 
f 10/12/10 12/14/12 17/19/22 17/19/21 
f 12/14/12 14/16/14 17/19/23 17/19/22 
f 14/16/14 16/18/16 17/19/24 17/19/23 
f 16/18/16 4/4/4 17/19/18 17/19/24 
f 18/20/25 19/21/26 20/22/27 21/23/28 
f 22/24/29 18/25/25 21/26/28 23/27/30 
f 24/28/31 22/24/29 23/27/30 25/29/32 
f 26/30/33 24/28/31 25/29/32 27/31/34 
f 28/32/35 26/30/33 27/31/34 29/33/36 
f 30/34/37 28/32/35 29/33/36 31/35/38 
f 32/36/39 30/34/37 31/35/38 33/37/40 
f 19/21/26 32/36/39 33/37/40 20/22/27 
f 20/22/27 34/38/41 35/39/42 21/23/28 
f 21/26/28 35/40/42 36/41/43 23/27/30 
f 23/27/30 36/41/43 37/42/44 25/29/32 
f 25/29/32 37/42/44 38/43/45 27/31/34 
f 27/31/34 38/43/45 39/44/46 29/33/36 
f 29/33/36 39/44/46 40/45/47 31/35/38 
f 31/35/38 40/45/47 41/46/48 33/37/40 
f 33/37/40 41/46/48 34/38/41 20/22/27 
f 42/47/49 43/48/50 44/49/51 
f 45/50/52 42/51/49 44/52/51 
f 46/53/53 45/54/52 44/49/51 
f 47/55/54 46/53/53 44/49/51 
f 48/56/55 47/55/54 44/49/51 
f 49/57/56 48/56/55 44/49/51 
f 50/58/57 49/57/56 44/49/51 
f 43/48/50 50/58/57 44/49/51 
f 17/19/18 17/19/17 17/19/58 17/19/58 
f 17/19/17 17/19/19 17/19/58 17/19/58 
f 17/19/19 17/19/20 17/19/58 17/19/58 
f 17/19/20 17/19/21 17/19/58 17/19/58 
f 17/19/21 17/19/22 17/19/58 17/19/58 
f 17/19/22 17/19/23 17/19/58 17/19/58 
f 17/19/23 17/19/24 17/19/58 17/19/58 
f 17/19/24 17/19/18 17/19/58 17/19/58 
f 17/19/58 17/19/58 17/19/58 17/19/58 
f 17/19/58 17/19/58 17/19/58 17/19/58 
f 17/19/58 17/19/58 17/19/58 17/19/58 
f 17/19/58 17/19/58 17/19/58 17/19/58 
f 17/19/58 17/19/58 17/19/58 17/19/58 
f 17/19/58 17/19/58 17/19/58 17/19/58 
f 17/19/58 17/19/58 17/19/58 17/19/58 
f 17/19/58 17/19/58 17/19/58 17/19/58 
f 17/19/58 17/19/58 17/19/58 
f 17/19/58 17/19/58 17/19/58 
f 17/19/58 17/19/58 17/19/58 
f 17/19/58 17/19/58 17/19/58 
f 17/19/58 17/19/58 17/19/58 
f 17/19/58 17/19/58 17/19/58 
f 17/19/58 17/19/58 17/19/58 
f 17/19/58 17/19/58 17/19/58 
f 1/1/1 19/21/26 18/20/25 2/2/2 
f 2/59/2 18/25/25 22/24/29 5/60/5 
f 5/7/5 22/24/29 24/28/31 7/8/7 
f 7/8/7 24/28/31 26/30/33 9/11/9 
f 9/11/9 26/30/33 28/32/35 11/13/11 
f 11/13/11 28/32/35 30/34/37 13/15/13 
f 13/15/13 30/34/37 32/36/39 15/17/15 
f 15/17/15 32/36/39 19/21/26 1/1/1 
f 43/48/50 42/47/49 35/39/42 34/38/41 
f 42/51/49 45/54/52 36/41/43 35/40/42 
f 45/54/52 46/53/53 37/42/44 36/41/43 
f 46/53/53 47/55/54 38/43/45 37/42/44 
f 47/55/54 48/56/55 39/44/46 38/43/45 
f 48/56/55 49/57/56 40/45/47 39/44/46 
f 49/57/56 50/58/57 41/46/48 40/45/47 
f 50/58/57 43/48/50 34/38/41 41/46/48 
# 64 polygons - 16 triangles

