# 3ds Max Wavefront OBJ Exporter v0.97b - (c)2007 guruware
# File Created: 04.04.2017 10:38:38

mtllib hand_left.mtl

#
# object Sphere007
#

v  -7.4205 2.8227 -5.0404
v  -3.8343 4.5008 -2.6103
v  -4.6708 3.6386 -1.7593
v  -8.1034 2.2874 -2.5760
v  -5.3871 3.3041 -8.8016
v  -2.5156 5.2744 -4.6830
v  9.3240 3.8391 -2.9249
v  3.8937 6.1335 -1.3007
v  3.2232 6.1335 -3.8102
v  7.6476 3.8391 -7.3295
v  9.7520 3.8391 0.6249
v  4.0649 6.1335 0.1191
v  8.8743 3.8391 4.0911
v  3.7139 6.1335 1.5054
v  6.8086 3.8391 7.0096
v  2.8877 6.1335 2.6726
v  3.8313 3.8391 8.9896
v  1.6969 6.1335 3.4645
v  0.3411 3.8391 9.7660
v  0.3009 6.1335 3.7751
v  -8.3141 0.0149 -5.6916
v  -8.9633 0.0264 -2.8064
v  -6.0910 0.0073 -9.8925
v  10.7664 -0.0000 -3.3774
v  8.8307 -0.0000 -8.2706
v  11.2606 -0.0000 0.7216
v  10.2472 -0.0000 4.7240
v  7.8619 -0.0000 8.0940
v  4.4240 -0.0000 10.3803
v  0.3938 -0.0000 11.2768
v  0.3009 0.0938 3.7751
v  0.3009 3.7070 3.7751
v  -7.4205 -2.5409 -5.0404
v  -8.1034 -2.0316 -2.5760
v  -5.3871 -2.9935 -8.8016
v  9.3240 -3.4944 -2.9249
v  7.6476 -3.4944 -7.3295
v  9.7520 -3.4944 0.6249
v  8.8743 -3.4944 4.0911
v  6.8086 -3.4944 7.0096
v  3.8313 -3.4944 8.9896
v  0.3411 -3.4944 9.7660
v  0.3009 -3.4944 3.7751
v  -3.8343 -4.5967 -2.6103
v  -4.6708 -3.6870 -1.7593
v  -2.5156 -5.4074 -4.6830
v  3.8937 -6.3052 -1.3007
v  3.2232 -6.3052 -3.8102
v  4.0649 -6.3052 0.1191
v  3.7139 -6.3052 1.5054
v  2.8877 -6.3052 2.6726
v  1.6969 -6.3052 3.4645
v  0.3009 -6.3052 3.7751
v  -4.6708 2.2095 -1.7593
v  -4.8022 0.0384 2.3800
v  -7.1771 0.0449 3.0667
v  -6.6825 1.3400 2.9412
v  -4.8036 1.2968 2.3754
v  -6.5988 -1.3338 2.9194
v  -4.8018 -1.0473 2.3816
v  -0.6314 6.1335 -5.2036
v  -0.6314 -6.3052 -5.2036
v  0.7984 6.1335 -5.2338
v  0.7984 -6.3052 -5.2338
v  2.1433 6.1335 -4.7476
v  2.1433 -6.3052 -4.7476
v  -4.6708 0.0816 -1.7593
v  -4.6708 -2.0316 -1.7593
v  -7.4954 1.6806 0.9911
v  -8.1218 0.0371 1.1544
v  -5.0747 1.6249 0.2655
v  -5.0738 0.0816 0.2684
v  -5.0736 -1.5968 0.2693
v  -5.0733 -2.7463 0.2702
v  -7.4418 -1.5866 0.9773
v  -1.7490 5.0943 -7.5533
v  0.0208 6.0389 -8.1275
v  -4.2406 3.1153 -11.7548
v  -4.8219 0.0098 -12.8158
v  -4.2401 -2.8189 -11.7539
v  -1.7582 -5.2441 -7.5672
v  0.0116 -6.2321 -8.1411
v  1.0777 -6.2623 -8.1826
v  2.0232 -6.2637 -7.7807
v  3.1345 -6.2574 -6.6404
v  7.0130 -3.3689 -10.2757
v  7.9918 0.0016 -11.1962
v  7.0122 3.6995 -10.2741
v  3.1231 6.0611 -6.6290
v  2.0153 6.0668 -7.7647
v  1.0751 6.0655 -8.1645
v  0.1492 3.7258 -15.1051
v  1.6556 4.5176 -15.3605
v  -1.7775 2.2147 -16.8136
v  -2.1971 0.0335 -17.2145
v  -1.7759 -1.9524 -16.8124
v  0.1354 -3.8027 -15.1162
v  1.6397 -4.6313 -15.3710
v  2.5859 -4.6812 -15.3320
v  3.8894 -4.6788 -14.7140
v  6.9428 -2.4039 -16.2224
v  7.6491 0.0265 -16.5725
v  6.9420 2.6929 -16.2217
v  3.8705 4.5588 -14.7044
v  2.8434 4.5641 -15.2594
v  1.2645 3.4760 -28.7313
v  2.3975 4.0356 -28.7313
v  -0.2882 2.1505 -28.7314
v  -0.6241 0.0512 -28.7314
v  -0.2828 -1.8357 -28.7314
v  1.2952 -3.4623 -28.7313
v  2.4144 -4.0481 -28.7313
v  3.4641 -4.0481 -28.7313
v  4.4423 -4.0481 -28.7313
v  6.9388 -2.1564 -28.7313
v  7.5265 0.0463 -28.7314
v  6.9462 2.4872 -28.7314
v  4.4669 4.0356 -28.7313
v  3.4367 4.0356 -28.7313
v  1.6531 2.8864 -29.8993
v  2.5411 3.3249 -29.8993
v  0.3630 1.7850 -29.8993
v  0.0868 0.0584 -29.8993
v  0.3688 -1.5009 -29.8993
v  1.7199 -2.8936 -29.8993
v  2.5708 -3.3390 -29.8993
v  3.4641 -3.3390 -29.8993
v  4.2163 -3.3390 -29.8992
v  6.3233 -1.7447 -29.8993
v  6.8039 0.0562 -29.8993
v  6.3308 2.0462 -29.8993
v  4.2768 3.3249 -29.8992
v  3.4367 3.3249 -29.8993
# 133 vertices

vn -0.7109 0.6829 -0.1679
vn -0.5103 0.8560 0.0822
vn -0.5060 0.8349 0.2164
vn -0.8248 0.5647 0.0289
vn -0.6635 0.6895 -0.2905
vn -0.4801 0.8706 -0.1069
vn 0.7069 0.6862 -0.1715
vn 0.3705 0.9262 -0.0698
vn 0.3124 0.9469 -0.0754
vn 0.6894 0.6915 -0.2157
vn 0.7296 0.6822 0.0472
vn 0.3723 0.9278 0.0227
vn 0.6627 0.6835 0.3061
vn 0.3363 0.9292 0.1533
vn 0.5072 0.6849 0.5231
vn 0.2559 0.9308 0.2610
vn 0.2846 0.6863 0.6693
vn 0.1432 0.9324 0.3319
vn 0.1597 0.6778 0.7177
vn 0.0792 0.9311 0.3561
vn -0.9380 -0.0081 -0.3465
vn -0.9999 -0.0087 -0.0112
vn -0.9063 -0.0089 -0.4226
vn 0.9692 -0.0177 -0.2457
vn 0.9500 -0.0239 -0.3112
vn 0.9978 -0.0159 0.0639
vn 0.9080 -0.0159 0.4186
vn 0.6967 -0.0159 0.7172
vn 0.3920 -0.0159 0.9198
vn 0.2171 -0.0156 0.9760
vn -0.9999 -0.0053 0.0100
vn -0.9999 0.0004 0.0124
vn -1.0000 0.0000 0.0087
vn -1.0000 -0.0000 0.0067
vn -0.7326 -0.6551 -0.1848
vn -0.7691 -0.6351 0.0715
vn -0.6868 -0.6590 -0.3067
vn 0.7170 -0.6738 -0.1786
vn 0.6991 -0.6788 -0.2248
vn 0.7409 -0.6699 0.0480
vn 0.6728 -0.6714 0.3109
vn 0.5148 -0.6730 0.5310
vn 0.2888 -0.6747 0.6793
vn 0.1619 -0.6667 0.7276
vn -0.9999 0.0058 0.0102
vn -0.5060 -0.8562 0.1040
vn -0.4523 -0.8275 0.3326
vn -0.4897 -0.8644 -0.1143
vn 0.4445 -0.8908 -0.0938
vn 0.3916 -0.9160 -0.0872
vn 0.4410 -0.8971 0.0269
vn 0.3986 -0.8989 0.1818
vn 0.3035 -0.9011 0.3097
vn 0.1699 -0.9033 0.3939
vn 0.0940 -0.9015 0.4224
vn -0.2315 -0.0000 0.9728
vn 0.2837 0.0020 0.9589
vn 0.2778 0.0002 0.9606
vn 0.2809 -0.0081 0.9597
vn 0.2884 0.0038 0.9575
vn 0.2801 0.0106 0.9599
vn 0.2865 0.0015 0.9581
vn 0.8049 -0.0000 0.5934
vn 0.8039 -0.0000 0.5947
vn 0.5244 -0.0000 0.8515
vn 0.5214 0.0000 0.8533
vn 0.1260 0.0000 0.9920
vn 0.1252 -0.0000 0.9921
vn -0.1622 -0.0000 0.9868
vn -0.5063 -0.0000 0.8624
vn -0.8480 -0.0000 0.5299
vn -0.9819 -0.0000 0.1894
vn -0.9980 -0.0000 -0.0640
vn -0.9081 -0.0000 -0.4187
vn -0.6967 -0.0000 -0.7173
vn -0.3921 -0.0000 -0.9199
vn -0.3921 0.0000 -0.9199
vn -0.2172 0.0000 -0.9761
vn -0.2171 0.0000 -0.9761
vn -0.2171 -0.0000 -0.9761
vn -0.2172 -0.0000 -0.9761
vn 0.8195 0.0001 0.5731
vn 0.7132 0.0000 0.7010
vn 0.8840 0.0000 0.4675
vn 0.8841 0.0000 0.4674
vn 0.8355 -0.0000 0.5495
vn -0.8845 0.3588 0.2981
vn -0.9440 -0.0126 0.3297
vn 0.0186 0.9779 0.2082
vn -0.0423 0.9621 0.2694
vn 0.0360 0.9822 0.1846
vn 0.0678 0.9863 0.1503
vn 0.9994 0.0003 0.0342
vn 0.9984 0.0007 0.0563
vn 0.9949 0.0002 0.1005
vn 0.9809 0.0002 0.1946
vn -0.5738 -0.7318 0.3676
vn -0.1452 -0.7141 0.6848
vn -0.8372 0.3598 0.4120
vn -0.8965 -0.0162 0.4428
vn 0.0663 0.9872 0.1449
vn 0.0663 0.9872 0.1448
vn 0.9918 0.0004 -0.1275
vn 0.9919 0.0006 -0.1273
vn 0.9918 0.0002 -0.1276
vn -0.3938 -0.8740 0.2847
vn 0.1162 -0.9806 0.1581
vn 0.2316 -0.5773 0.7830
vn -0.2901 0.9502 -0.1137
vn -0.4489 0.8713 -0.1982
vn -0.2746 0.9460 -0.1720
vn -0.6377 0.6762 -0.3689
vn -0.8899 -0.0071 -0.4561
vn -0.6813 -0.6373 -0.3600
vn -0.4918 -0.8431 -0.2175
vn -0.2827 -0.9557 -0.0824
vn -0.2845 -0.9407 -0.1850
vn 0.0024 -0.9999 -0.0142
vn 0.0090 -0.9915 -0.1297
vn 0.0125 -0.9998 -0.0158
vn 0.0845 -0.9904 -0.1097
vn 0.3123 -0.9481 -0.0592
vn 0.7496 -0.6442 -0.1520
vn 0.9883 -0.0187 -0.1512
vn 0.7243 0.6704 -0.1610
vn 0.2456 0.9666 -0.0732
vn 0.0159 0.9996 -0.0228
vn 0.0880 0.9899 -0.1114
vn 0.0013 0.9996 -0.0266
vn 0.0081 0.9921 -0.1250
vn -0.4871 0.8512 -0.1956
vn -0.2528 0.9566 -0.1448
vn -0.7635 0.5939 -0.2536
vn -0.9514 -0.0045 -0.3078
vn -0.7838 -0.5582 -0.2722
vn -0.5093 -0.8323 -0.2186
vn -0.2729 -0.9492 -0.1566
vn 0.0047 -0.9928 -0.1197
vn 0.3423 -0.9331 -0.1103
vn 0.8179 -0.5733 -0.0482
vn 0.9994 -0.0134 -0.0328
vn 0.7991 0.5989 -0.0519
vn 0.2827 0.9525 -0.1136
vn 0.0178 0.9941 -0.1066
vn -0.5247 0.7993 -0.2931
vn -0.2139 0.9335 -0.2878
vn -0.8229 0.4735 -0.3140
vn -0.9454 -0.0078 -0.3258
vn -0.8394 -0.4387 -0.3210
vn -0.5660 -0.7678 -0.3003
vn -0.2248 -0.9302 -0.2901
vn -0.0006 -0.9566 -0.2914
vn 0.3110 -0.9081 -0.2803
vn 0.8002 -0.5361 -0.2690
vn 0.9637 -0.0139 -0.2668
vn 0.7818 0.5608 -0.2725
vn 0.2680 0.9226 -0.2776
vn 0.0003 0.9575 -0.2883
vn -0.4709 0.7145 -0.5174
vn -0.1953 0.8270 -0.5272
vn -0.7347 0.4123 -0.5387
vn -0.8542 -0.0087 -0.5199
vn -0.7535 -0.3871 -0.5313
vn -0.5113 -0.6848 -0.5193
vn -0.2046 -0.8243 -0.5279
vn 0.0000 -0.8548 -0.5190
vn 0.2700 -0.7990 -0.5374
vn 0.7008 -0.4712 -0.5356
vn 0.8503 -0.0116 -0.5262
vn 0.6810 0.4903 -0.5440
vn 0.2346 0.8132 -0.5326
vn 0.0000 0.8543 -0.5198
vn 0.0000 -0.0001 -1.0000
vn 0.0000 -0.0000 -1.0000
vn -0.0000 0.0000 -1.0000
vn 0.0000 0.0000 -1.0000
vn 0.0000 0.0001 -1.0000
vn -0.0000 -0.0001 -1.0000
# 178 vertex normals

vt 3.1398 17.8711 0.0000
vt 3.1398 22.3388 0.0000
vt 0.0000 22.3388 0.0000
vt 0.0000 17.8711 0.0000
vt 6.2797 17.8711 0.0000
vt 6.2797 22.3388 0.0000
vt 21.9789 17.8711 0.0000
vt 21.9789 22.3388 0.0000
vt 18.8391 22.3388 0.0000
vt 18.8391 17.8711 0.0000
vt 25.1188 17.8711 0.0000
vt 25.1188 22.3388 0.0000
vt 28.2586 17.8711 0.0000
vt 28.2586 22.3388 0.0000
vt 31.3985 17.8711 0.0000
vt 31.3985 22.3388 0.0000
vt 34.5383 17.8711 0.0000
vt 34.5383 22.3388 0.0000
vt 37.6781 17.8711 0.0000
vt 37.6781 22.3388 0.0000
vt 3.1398 13.4033 0.0000
vt 0.0000 13.4033 0.0000
vt 6.2797 13.4033 0.0000
vt 21.9789 13.4033 0.0000
vt 18.8391 13.4033 0.0000
vt 25.1188 13.4033 0.0000
vt 28.2586 13.4033 0.0000
vt 31.3985 13.4033 0.0000
vt 34.5383 13.4033 0.0000
vt 37.6781 13.4033 0.0000
vt 1.1432 11.6560 0.0000
vt 0.0000 7.3896 0.0000
vt 4.2664 7.3896 0.0000
vt 4.2664 11.6560 0.0000
vt 3.1398 8.9355 0.0000
vt 0.0000 8.9355 0.0000
vt 6.2797 8.9355 0.0000
vt 21.9789 8.9355 0.0000
vt 18.8391 8.9355 0.0000
vt 25.1188 8.9355 0.0000
vt 28.2586 8.9355 0.0000
vt 31.3985 8.9355 0.0000
vt 34.5383 8.9355 0.0000
vt 37.6781 8.9355 0.0000
vt 1.1432 3.1232 0.0000
vt 4.2664 3.1232 0.0000
vt 3.1398 4.4678 0.0000
vt 0.0000 4.4678 0.0000
vt 6.2797 4.4678 0.0000
vt 21.9789 4.4678 0.0000
vt 18.8391 4.4678 0.0000
vt 25.1188 4.4678 0.0000
vt 28.2586 4.4678 0.0000
vt 31.3985 4.4678 0.0000
vt 34.5383 4.4678 0.0000
vt 37.6781 4.4678 0.0000
vt 4.2664 0.0000 0.0000
vt 4.2664 11.6560 -0.0000
vt 7.3896 11.6560 -0.0000
vt 4.2664 14.7792 -0.0000
vt 8.5328 7.3896 0.0000
vt 7.3896 3.1232 0.0000
vt 4.2664 14.7792 0.0000
vt 9.4195 22.3388 0.0000
vt 9.4195 4.4678 0.0000
vt 12.5594 22.3388 0.0000
vt 12.5594 4.4678 0.0000
vt 15.6992 22.3388 0.0000
vt 15.6992 4.4678 0.0000
vt 14.1293 4.4678 0.0000
vt 14.1293 22.3388 0.0000
# 71 texture coords

g Sphere007
usemtl wire_188188188
s 1
f 4/4/4 3/3/3 2/2/2 1/1/1 
f 1/1/1 2/2/2 6/6/6 5/5/5 
f 10/10/10 9/9/9 8/8/8 7/7/7 
f 7/7/7 8/8/8 12/12/12 11/11/11 
f 11/11/11 12/12/12 14/14/14 13/13/13 
f 13/13/13 14/14/14 16/16/16 15/15/15 
f 15/15/15 16/16/16 18/18/18 17/17/17 
f 17/17/17 18/18/18 20/20/20 19/19/19 
f 22/22/22 4/4/4 1/1/1 21/21/21 
f 21/21/21 1/1/1 5/5/5 23/23/23 
f 25/25/25 10/10/10 7/7/7 24/24/24 
f 24/24/24 7/7/7 11/11/11 26/26/26 
f 26/26/26 11/11/11 13/13/13 27/27/27 
f 27/27/27 13/13/13 15/15/15 28/28/28 
f 28/28/28 15/15/15 17/17/17 29/29/29 
f 29/29/29 17/17/17 19/19/19 30/30/30 
s 2
f 32/34/34 31/33/33 30/32/32 19/31/31 
s 1
f 34/36/36 22/22/22 21/21/21 33/35/35 
f 33/35/35 21/21/21 23/23/23 35/37/37 
f 37/39/39 25/25/25 24/24/24 36/38/38 
f 36/38/38 24/24/24 26/26/26 38/40/40 
f 38/40/40 26/26/26 27/27/27 39/41/41 
f 39/41/41 27/27/27 28/28/28 40/42/42 
f 40/42/42 28/28/28 29/29/29 41/43/43 
f 41/43/43 29/29/29 30/30/30 42/44/44 
s 2
f 30/32/32 31/33/33 43/46/34 42/45/45 
s 1
f 45/48/47 34/36/36 33/35/35 44/47/46 
f 44/47/46 33/35/35 35/37/37 46/49/48 
f 48/51/50 37/39/39 36/38/38 47/50/49 
f 47/50/49 36/38/38 38/40/40 49/52/51 
f 49/52/51 38/40/40 39/41/41 50/53/52 
f 50/53/52 39/41/41 40/42/42 51/54/53 
f 51/54/53 40/42/42 41/43/43 52/55/54 
f 52/55/54 41/43/43 42/44/44 53/56/55 
s 2
f 43/46/34 53/57/34 42/45/45 
f 3/60/56 4/59/56 54/58/56 
f 58/58/60 57/59/59 56/61/58 55/33/57 
f 60/46/62 55/33/57 56/61/58 59/62/61 
f 32/34/34 19/31/31 20/63/34 
s 4
f 46/49/66 6/6/65 2/2/64 44/47/63 
f 62/65/68 61/64/67 6/6/65 46/49/66 
f 64/67/69 63/66/69 61/64/67 62/65/68 
f 66/69/70 65/68/70 63/66/69 64/67/69 
f 48/51/71 9/9/71 65/68/70 66/69/70 
f 47/50/72 8/8/72 9/9/71 48/51/71 
f 49/52/73 12/12/73 8/8/72 47/50/72 
f 12/12/73 49/52/73 50/53/74 14/14/74 
f 14/14/74 50/53/74 51/54/75 16/16/75 
f 18/18/77 16/16/75 51/54/75 52/55/76 
f 31/33/80 32/34/79 20/20/78 18/18/77 
f 53/56/81 43/46/80 31/33/80 18/18/77 
f 52/55/76 53/56/81 18/18/77 
f 67/33/84 2/2/64 3/3/83 54/58/82 
f 45/48/86 2/2/64 67/33/84 68/46/85 
f 44/47/63 2/2/64 45/48/86 
s 1
f 70/61/88 69/59/87 4/4/4 22/22/22 
s 8
f 69/59/92 71/58/91 54/58/90 4/59/89 
s 4
f 71/58/94 72/33/93 67/33/84 54/58/82 
f 72/33/93 73/46/95 68/46/85 67/33/84 
f 73/46/95 74/57/96 45/48/86 68/46/85 
s 1
f 74/57/98 75/62/97 34/36/36 45/48/47 
f 75/62/97 70/61/88 22/22/22 34/36/36 
f 56/61/100 57/59/99 69/59/87 70/61/88 
s 8
f 57/59/102 58/58/101 71/58/91 69/59/92 
s 4
f 58/58/104 55/33/103 72/33/93 71/58/94 
f 55/33/103 60/46/105 73/46/95 72/33/93 
s 1
f 73/46/108 60/46/107 59/62/106 75/62/97 
f 73/46/108 75/62/97 74/57/98 
f 59/62/106 56/61/100 70/61/88 75/62/97 
f 77/64/111 76/6/110 6/6/6 61/64/109 
f 76/6/110 78/5/112 5/5/5 6/6/6 
f 78/5/112 79/23/113 23/23/23 5/5/5 
f 79/23/113 80/37/114 35/37/37 23/23/23 
f 80/37/114 81/49/115 46/49/48 35/37/37 
f 81/49/115 82/65/117 62/65/116 46/49/48 
f 82/65/117 83/67/119 64/67/118 62/65/116 
f 83/67/119 84/69/121 66/69/120 64/67/118 
f 84/69/121 85/51/122 48/51/50 66/69/120 
f 85/51/122 86/39/123 37/39/39 48/51/50 
f 86/39/123 87/25/124 25/25/25 37/39/39 
f 87/25/124 88/10/125 10/10/10 25/25/25 
f 88/10/125 89/9/126 9/9/9 10/10/10 
f 89/9/126 90/68/128 65/68/127 9/9/9 
f 90/68/128 91/66/130 63/66/129 65/68/127 
f 91/66/130 77/64/111 61/64/109 63/66/129 
f 93/64/132 92/6/131 76/6/110 77/64/111 
f 92/6/131 94/5/133 78/5/112 76/6/110 
f 94/5/133 95/23/134 79/23/113 78/5/112 
f 95/23/134 96/37/135 80/37/114 79/23/113 
f 96/37/135 97/49/136 81/49/115 80/37/114 
f 97/49/136 98/65/137 82/65/117 81/49/115 
f 98/65/137 99/70/138 83/67/119 82/65/117 
f 99/70/138 84/69/121 83/67/119 
f 99/70/138 100/51/139 85/51/122 84/69/121 
f 100/51/139 101/39/140 86/39/123 85/51/122 
f 101/39/140 102/25/141 87/25/124 86/39/123 
f 102/25/141 103/10/142 88/10/125 87/25/124 
f 103/10/142 104/9/143 89/9/126 88/10/125 
f 104/9/143 105/71/144 90/68/128 89/9/126 
f 105/71/144 91/66/130 90/68/128 
f 105/71/144 93/64/132 77/64/111 91/66/130 
f 107/64/146 106/6/145 92/6/131 93/64/132 
f 106/6/145 108/5/147 94/5/133 92/6/131 
f 108/5/147 109/23/148 95/23/134 94/5/133 
f 109/23/148 110/37/149 96/37/135 95/23/134 
f 110/37/149 111/49/150 97/49/136 96/37/135 
f 111/49/150 112/65/151 98/65/137 97/49/136 
f 112/65/151 113/70/152 99/70/138 98/65/137 
f 113/70/152 114/51/153 100/51/139 99/70/138 
f 114/51/153 115/39/154 101/39/140 100/51/139 
f 115/39/154 116/25/155 102/25/141 101/39/140 
f 116/25/155 117/10/156 103/10/142 102/25/141 
f 117/10/156 118/9/157 104/9/143 103/10/142 
f 118/9/157 119/71/158 105/71/144 104/9/143 
f 119/71/158 107/64/146 93/64/132 105/71/144 
f 121/64/160 120/6/159 106/6/145 107/64/146 
f 120/6/159 122/5/161 108/5/147 106/6/145 
f 122/5/161 123/23/162 109/23/148 108/5/147 
f 123/23/162 124/37/163 110/37/149 109/23/148 
f 124/37/163 125/49/164 111/49/150 110/37/149 
f 125/49/164 126/65/165 112/65/151 111/49/150 
f 126/65/165 127/70/166 113/70/152 112/65/151 
f 127/70/166 128/51/167 114/51/153 113/70/152 
f 128/51/167 129/39/168 115/39/154 114/51/153 
f 129/39/168 130/25/169 116/25/155 115/39/154 
f 130/25/169 131/10/170 117/10/156 116/25/155 
f 131/10/170 132/9/171 118/9/157 117/10/156 
f 132/9/171 133/71/172 119/71/158 118/9/157 
f 133/71/172 121/64/160 107/64/146 119/71/158 
s 2
f 126/65/174 129/39/174 128/51/174 127/70/173 
f 133/71/176 131/10/175 130/25/174 129/39/174 
f 133/71/176 132/9/177 131/10/175 
f 123/23/176 120/6/176 121/64/173 133/71/176 
f 123/23/176 122/5/174 120/6/176 
f 126/65/174 123/23/176 133/71/176 129/39/174 
f 125/49/178 124/37/176 123/23/176 126/65/174 
# 126 polygons - 10 triangles

