# 3ds Max Wavefront OBJ Exporter v0.97b - (c)2007 guruware
# File Created: 04.04.2017 12:48:26

mtllib joint_selector.mtl

#
# object Circle013
#

v  -1.0947 -4.1029 -1.0947
v  -1.0947 0.0000 -1.0947
v  0.0000 0.0000 -1.5486
v  0.0000 -4.1029 -1.5486
v  -1.5486 -4.1029 0.0000
v  -1.5486 0.0000 0.0000
v  -1.0947 -4.1029 1.0947
v  -1.0947 0.0000 1.0947
v  0.0000 -4.1029 1.5486
v  0.0000 0.0000 1.5486
v  1.0948 -4.1029 1.0947
v  1.0947 -1.0947 1.0947
v  1.5486 -4.1029 -0.0000
v  1.5486 -1.5486 0.0000
v  1.0948 -4.1029 -1.0947
v  1.0947 -1.0947 -1.0947
v  -1.0947 4.1029 -1.0947
v  0.0000 4.1029 -1.5486
v  -1.5486 4.1029 0.0000
v  -1.0947 4.1029 1.0947
v  0.0000 4.1029 1.5486
v  1.0948 4.1029 1.0947
v  1.0947 1.0947 1.0947
v  1.5486 4.1029 0.0000
v  1.5486 1.5486 0.0000
v  1.0948 4.1029 -1.0947
v  1.0947 1.0947 -1.0947
v  12.8667 -1.0947 -1.0947
v  12.8667 0.0000 -1.5486
v  12.8667 -1.5486 -0.0000
v  12.8667 -1.0947 1.0947
v  12.8667 0.0000 1.5486
v  12.8667 1.0947 1.0947
v  12.8667 1.5486 -0.0000
v  12.8667 1.0947 -1.0947
v  13.4109 0.6875 -0.6875
v  13.4109 0.9725 0.0000
v  13.4109 0.6875 0.6875
v  13.4109 0.0000 -0.9725
v  13.4109 -0.6875 -0.6875
v  13.4109 -0.9725 -0.0000
v  13.4109 -0.6875 0.6875
v  13.4109 0.0000 0.9725
v  -44.3175 -4.1029 1.0947
v  -44.3175 -8.1639 1.0947
v  -43.2228 -8.1639 1.5486
v  -43.2228 -4.1029 1.5486
v  -44.7714 -4.1029 0.0000
v  -44.7714 -8.1639 -0.0000
v  -44.3175 -4.1029 -1.0947
v  -44.3175 -8.1639 -1.0947
v  -43.2228 -4.1029 -1.5486
v  -43.2228 -8.1639 -1.5486
v  -42.1281 -4.1029 -1.0947
v  -42.1281 -7.0691 -1.0947
v  -41.6742 -4.1029 0.0000
v  -41.6742 -6.6153 0.0000
v  -42.1281 -4.1029 1.0947
v  -42.1281 -7.0691 1.0947
v  -44.3175 -12.2248 -1.0947
v  -43.2228 -12.2248 -1.5486
v  -42.1281 -12.2248 -1.0947
v  -44.7714 -12.2248 -0.0000
v  -41.6742 -12.2248 -0.0000
v  -42.1281 -12.2248 1.0947
v  -43.2228 -12.2248 1.5486
v  -44.3175 -12.2248 1.0947
v  -42.1281 -9.2586 -1.0947
v  -41.6742 -9.7125 -0.0000
v  -42.1281 -9.2586 1.0947
v  -21.6617 -7.0691 1.0947
v  -21.6617 -8.1639 1.5486
v  -21.6617 -6.6153 0.0000
v  -21.6617 -7.0691 -1.0947
v  -21.6617 -8.1639 -1.5486
v  -21.6617 -9.2586 -1.0947
v  -21.6617 -9.7125 0.0000
v  -21.6617 -9.2586 1.0947
v  1.0948 -8.1639 -1.0947
v  0.0000 -8.1639 -1.5486
v  1.5486 -8.1639 -0.0000
v  1.0948 -8.1639 1.0947
v  0.0000 -8.1639 1.5486
v  -1.0947 -7.0691 1.0947
v  -1.5486 -6.6153 -0.0000
v  -1.0947 -7.0691 -1.0947
v  1.0948 -12.2248 1.0947
v  0.0000 -12.2248 1.5486
v  -1.0947 -12.2248 1.0947
v  1.5486 -12.2248 0.0000
v  -1.5486 -12.2248 0.0000
v  -1.0947 -12.2248 -1.0947
v  0.0000 -12.2248 -1.5486
v  1.0948 -12.2248 -1.0947
v  -1.0947 -9.2586 1.0947
v  -1.5486 -9.7125 -0.0000
v  -1.0947 -9.2586 -1.0947
v  -44.3175 12.2248 1.0947
v  -44.3175 8.1639 1.0947
v  -43.2228 8.1639 1.5486
v  -43.2228 12.2248 1.5486
v  -44.7714 12.2248 0.0000
v  -44.7714 8.1639 0.0000
v  -44.3175 12.2248 -1.0947
v  -44.3175 8.1639 -1.0947
v  -43.2228 12.2248 -1.5486
v  -43.2228 8.1639 -1.5486
v  -42.1281 12.2248 -1.0947
v  -42.1281 9.2586 -1.0947
v  -41.6742 12.2248 0.0000
v  -41.6742 9.7125 0.0000
v  -42.1281 12.2248 1.0947
v  -42.1281 9.2586 1.0947
v  -44.3175 4.1029 -1.0947
v  -43.2228 4.1029 -1.5486
v  -42.1281 4.1029 -1.0947
v  -44.7714 4.1029 0.0000
v  -41.6742 4.1029 0.0000
v  -42.1281 4.1029 1.0947
v  -43.2228 4.1029 1.5486
v  -44.3175 4.1029 1.0947
v  -42.1281 7.0691 -1.0947
v  -41.6742 6.6153 0.0000
v  -42.1281 7.0691 1.0947
v  -21.6617 9.2586 1.0947
v  -21.6617 8.1639 1.5486
v  -21.6617 9.7125 0.0000
v  -21.6617 9.2586 -1.0947
v  -21.6617 8.1639 -1.5486
v  -21.6617 7.0691 -1.0947
v  -21.6617 6.6153 0.0000
v  -21.6617 7.0691 1.0947
v  1.0948 12.2248 -1.0947
v  1.0948 8.1639 -1.0947
v  0.0000 8.1639 -1.5486
v  0.0000 12.2248 -1.5486
v  1.5486 12.2248 0.0000
v  1.5486 8.1639 0.0000
v  1.0948 12.2248 1.0947
v  1.0948 8.1639 1.0947
v  0.0000 12.2248 1.5486
v  0.0000 8.1639 1.5486
v  -1.0947 12.2248 1.0947
v  -1.0947 9.2586 1.0947
v  -1.5486 12.2248 0.0000
v  -1.5486 9.7125 0.0000
v  -1.0947 12.2248 -1.0947
v  -1.0947 9.2586 -1.0947
v  -1.0947 7.0691 1.0947
v  -1.5486 6.6153 0.0000
v  -1.0947 7.0691 -1.0947
# 151 vertices

vn -0.7071 -0.0000 -0.7071
vn -0.7071 0.0000 -0.7071
vn -0.3830 0.0000 -0.9238
vn -0.0000 0.0000 -1.0000
vn -1.0000 -0.0000 -0.0000
vn -0.9238 -0.0000 -0.3830
vn -0.7071 -0.0000 0.7071
vn -0.7071 0.0000 0.7071
vn -0.9238 0.0000 0.3830
vn -1.0000 -0.0000 0.0000
vn 0.0000 0.0000 1.0000
vn -0.3830 -0.0000 0.9238
vn 0.7071 0.0000 0.7071
vn 0.3378 -0.3378 0.8785
vn 0.1989 -0.1989 0.9596
vn 0.0000 -0.0000 1.0000
vn 1.0000 0.0000 -0.0000
vn 0.6100 -0.6100 0.5058
vn 0.7071 0.0000 -0.7071
vn 0.3378 -0.3378 -0.8785
vn 0.6100 -0.6100 -0.5058
vn 1.0000 0.0000 0.0000
vn 0.1989 -0.1989 -0.9596
vn -0.0000 -0.0000 -1.0000
vn -0.9238 0.0000 -0.3830
vn -0.0000 -0.0000 1.0000
vn 0.7071 -0.0000 0.7071
vn -0.0000 0.0000 1.0000
vn 0.1989 0.1989 0.9596
vn 0.3378 0.3378 0.8785
vn 0.9238 -0.0000 0.3830
vn 0.6100 0.6100 0.5058
vn 0.7071 -0.0000 -0.7071
vn 0.9238 -0.0000 -0.3830
vn 0.6100 0.6100 -0.5058
vn 0.3378 0.3378 -0.8785
vn 0.1989 0.1989 -0.9596
vn 0.0000 -0.7071 -0.7071
vn 0.0000 -0.3830 -0.9238
vn 0.0000 -0.9238 -0.3830
vn 0.0000 -0.7071 0.7071
vn -0.0000 -0.9238 0.3830
vn 0.0000 -0.3830 0.9238
vn -0.0000 0.7071 0.7071
vn -0.0000 0.3830 0.9238
vn -0.0000 0.9238 0.3830
vn -0.0000 0.7071 -0.7071
vn -0.0000 0.9238 -0.3830
vn -0.0000 0.3830 -0.9238
vn 1.0000 -0.0000 0.0000
vn 0.6992 -0.2738 -0.6604
vn 0.6992 0.2738 -0.6604
vn 0.6992 0.6604 -0.2738
vn 0.6992 0.6604 0.2738
vn 0.6992 0.2738 0.6604
vn 0.6992 -0.2738 0.6604
vn 0.6992 -0.6604 0.2738
vn 0.6992 -0.6604 -0.2738
vn -0.9238 -0.0000 0.3830
vn -0.3830 -0.0000 -0.9238
vn 0.3830 0.0000 -0.9238
vn 0.9238 0.0000 -0.3830
vn 0.9238 0.0000 0.3830
vn 0.3830 0.0000 0.9238
vn -0.0000 1.0000 -0.0000
vn 0.0000 1.0000 -0.0000
vn -0.0000 1.0000 0.0000
vn -0.0000 -1.0000 -0.0000
vn -0.0000 -1.0000 0.0000
vn 0.0000 -1.0000 0.0000
vn 0.0000 -1.0000 -0.0000
vn 0.3830 -0.0000 0.9238
vn 0.0000 0.7071 0.7071
vn 0.0000 0.3830 0.9238
vn 0.0000 0.7071 -0.7071
vn 0.0000 1.0000 0.0000
vn 0.0000 0.3830 -0.9238
vn -0.0000 -0.7071 -0.7071
vn -0.0000 -0.3830 -0.9238
vn -0.0000 -0.7071 0.7071
vn -0.0000 -0.3830 0.9238
vn -0.3378 0.3378 0.8785
vn -0.1989 0.1989 0.9596
vn -0.6100 0.6100 0.5058
vn -0.3378 0.3378 -0.8785
vn -0.6100 0.6100 -0.5058
vn -0.1989 0.1989 -0.9596
vn 0.3830 -0.0000 -0.9238
vn -0.3830 0.0000 0.9238
vn -0.1989 -0.1989 0.9596
vn -0.3378 -0.3378 0.8785
vn -0.6100 -0.6100 0.5058
vn -0.6100 -0.6100 -0.5058
vn -0.3378 -0.3378 -0.8785
vn -0.1989 -0.1989 -0.9596
# 95 vertex normals

g Circle013
usemtl wire_188188188
s 1
f 1//1 2//2 3//3 4//4 
f 5//5 6//6 2//2 1//1 
s 2
f 7//7 8//8 6//9 5//10 
f 9//11 10//12 8//8 7//7 
s 1
f 11//13 12//14 10//15 9//16 
f 13//17 14//18 12//14 11//13 
s 2
f 15//19 16//20 14//21 13//22 
f 4//4 3//23 16//20 15//19 
s 1
f 17//2 18//24 3//3 2//2 
f 19//25 17//2 2//2 6//6 
s 2
f 20//8 19//9 6//9 8//8 
f 21//26 20//8 8//8 10//12 
s 8
f 22//27 21//28 10//29 23//30 
f 24//31 22//27 23//30 25//32 
s 16
f 26//33 24//34 25//35 27//36 
f 18//4 26//33 27//36 3//37 
s 2
f 28//38 16//20 3//23 29//39 
f 30//40 14//21 16//20 28//38 
s 1
f 31//41 12//14 14//18 30//42 
f 32//43 10//15 12//14 31//41 
s 8
f 33//44 23//30 10//29 32//45 
f 34//46 25//32 23//30 33//44 
s 16
f 35//47 27//36 25//35 34//48 
f 29//49 3//37 27//36 35//47 
s 4
f 36//50 37//50 38//50 39//22 
f 40//22 39//22 38//50 41//22 
f 42//17 41//22 38//50 43//17 
s off
f 28//51 29//51 39//51 40//51 
f 29//52 35//52 36//52 39//52 
f 35//53 34//53 37//53 36//53 
f 34//54 33//54 38//54 37//54 
f 33//55 32//55 43//55 38//55 
f 32//56 31//56 42//56 43//56 
f 31//57 30//57 41//57 42//57 
f 30//58 28//58 40//58 41//58 
s 1
f 44//7 45//7 46//12 47//12 
f 48//59 49//59 45//7 44//7 
s 2
f 50//1 51//1 49//6 48//6 
f 52//60 53//60 51//1 50//1 
s 1
f 54//19 55//36 53//37 52//61 
f 56//62 57//35 55//36 54//19 
s 2
f 58//13 59//30 57//32 56//63 
f 47//64 46//29 59//30 58//13 
s 4
f 58//65 56//65 54//65 47//65 
f 44//66 47//65 54//65 48//66 
f 50//65 48//66 54//65 52//67 
f 60//68 61//69 62//70 63//69 
f 62//70 64//71 65//71 66//68 
f 62//70 66//68 67//69 63//69 
s 1
f 67//8 66//12 46//12 45//7 
f 63//9 67//8 45//7 49//59 
s 2
f 60//2 63//25 49//6 51//1 
f 61//3 60//2 51//1 53//60 
s 8
f 62//33 61//61 53//23 68//20 
f 64//34 62//33 68//20 69//21 
s 16
f 65//27 64//31 69//18 70//14 
f 66//72 65//27 70//14 46//15 
s 2
f 71//73 59//30 46//29 72//74 
f 73//66 57//32 59//30 71//73 
s 1
f 74//75 55//36 57//35 73//76 
f 75//77 53//37 55//36 74//75 
s 8
f 76//78 68//20 53//23 75//79 
f 77//69 69//21 68//20 76//78 
s 16
f 78//80 70//14 69//18 77//69 
f 72//81 46//15 70//14 78//80 
s 1
f 15//19 79//19 80//61 4//4 
f 13//17 81//62 79//19 15//19 
s 2
f 11//13 82//13 81//63 13//22 
f 9//11 83//64 82//13 11//13 
s 1
f 7//7 84//82 83//83 9//16 
f 5//5 85//84 84//82 7//7 
s 2
f 1//1 86//85 85//86 5//10 
f 4//4 80//87 86//85 1//1 
s 4
f 87//69 88//69 89//69 90//69 
f 89//69 91//69 92//71 93//68 
f 89//69 93//68 94//68 90//69 
s 1
f 94//33 93//88 80//61 79//19 
f 90//34 94//33 79//19 81//62 
s 2
f 87//27 90//31 81//63 82//13 
f 88//72 87//27 82//13 83//64 
s 8
f 89//7 88//89 83//90 95//91 
f 91//59 89//7 95//91 96//92 
s 16
f 92//1 91//25 96//93 97//94 
f 93//60 92//1 97//94 80//95 
s 2
f 74//75 86//85 80//87 75//49 
f 73//66 85//86 86//85 74//75 
s 1
f 71//73 84//82 85//84 73//76 
f 72//74 83//83 84//82 71//73 
s 8
f 78//80 95//91 83//90 72//81 
f 77//69 96//92 95//91 78//80 
s 16
f 76//38 97//94 96//93 77//69 
f 75//79 80//95 97//94 76//38 
s 1
f 98//7 99//7 100//12 101//12 
f 102//59 103//59 99//7 98//7 
s 2
f 104//1 105//1 103//6 102//6 
f 106//60 107//60 105//1 104//1 
s 1
f 108//19 109//36 107//37 106//61 
f 110//62 111//35 109//36 108//19 
s 2
f 112//13 113//30 111//32 110//63 
f 101//64 100//29 113//30 112//13 
s 4
f 112//65 110//65 108//67 101//66 
f 98//66 101//66 108//67 102//65 
f 104//76 102//65 108//67 106//76 
f 114//68 115//69 116//70 117//69 
f 116//70 118//71 119//71 120//68 
f 116//70 120//68 121//69 117//69 
s 1
f 121//8 120//12 100//12 99//7 
f 117//9 121//8 99//7 103//59 
s 2
f 114//2 117//25 103//6 105//1 
f 115//3 114//2 105//1 107//60 
s 8
f 116//33 115//61 107//23 122//20 
f 118//34 116//33 122//20 123//21 
s 16
f 119//27 118//31 123//18 124//14 
f 120//72 119//27 124//14 100//15 
s 2
f 125//73 113//30 100//29 126//74 
f 127//76 111//32 113//30 125//73 
s 1
f 128//75 109//36 111//35 127//76 
f 129//77 107//37 109//36 128//75 
s 8
f 130//78 122//20 107//23 129//79 
f 131//69 123//21 122//20 130//78 
s 16
f 132//80 124//14 123//18 131//69 
f 126//81 100//15 124//14 132//80 
s 1
f 133//33 134//33 135//88 136//88 
f 137//34 138//34 134//33 133//33 
s 2
f 139//27 140//27 138//31 137//31 
f 141//64 142//72 140//27 139//27 
s 1
f 143//8 144//82 142//83 141//89 
f 145//9 146//84 144//82 143//8 
s 2
f 147//2 148//85 146//86 145//25 
f 136//3 135//87 148//85 147//2 
s 4
f 147//66 145//66 143//66 136//65 
f 133//65 136//65 143//66 137//76 
f 139//76 137//76 143//66 141//66 
s 1
f 26//33 18//24 135//88 134//33 
f 24//34 26//33 134//33 138//34 
s 2
f 22//27 24//31 138//31 140//27 
f 21//26 22//27 140//27 142//72 
s 8
f 20//8 21//28 142//90 149//91 
f 19//9 20//8 149//91 150//92 
s 16
f 17//2 19//25 150//93 151//94 
f 18//4 17//2 151//94 135//95 
s 2
f 128//75 148//85 135//87 129//49 
f 127//76 146//86 148//85 128//75 
s 1
f 125//73 144//82 146//84 127//76 
f 126//74 142//83 144//82 125//73 
s 8
f 132//80 149//91 142//90 126//43 
f 131//69 150//92 149//91 132//80 
s 16
f 130//38 151//94 150//93 131//69 
f 129//79 135//95 151//94 130//38 
# 149 polygons

