# 3ds Max Wavefront OBJ Exporter v0.97b - (c)2007 guruware
# File Created: 04.04.2017 14:20:58

mtllib joint_frame.mtl

#
# object Loft004
#

v  -14.4592 39.3596 0.6705
v  -14.4039 39.0816 0.0000
v  14.4039 39.0816 0.0000
v  14.4592 39.3596 0.6705
v  -14.5926 40.0301 0.9485
v  14.5926 40.0301 0.9485
v  -14.7259 40.7006 0.6705
v  14.7259 40.7006 0.6705
v  -14.7812 40.9786 0.0000
v  14.7812 40.9786 0.0000
v  -14.7259 40.7006 -0.6705
v  14.7259 40.7006 -0.6705
v  -14.5926 40.0301 -0.9485
v  14.5926 40.0301 -0.9485
v  -14.4592 39.3596 -0.6705
v  14.4592 39.3596 -0.6705
v  -17.5411 38.0831 0.6705
v  -17.3836 37.8474 0.0000
v  -17.9209 38.6515 0.9485
v  -18.3007 39.2199 0.6705
v  -18.4582 39.4555 0.0000
v  -18.3007 39.2199 -0.6705
v  -17.9209 38.6515 -0.9485
v  -17.5411 38.0831 -0.6705
v  -19.6644 35.9598 0.6705
v  -19.4287 35.8023 0.0000
v  -20.2328 36.3396 0.9485
v  -20.8012 36.7194 0.6705
v  -21.0368 36.8769 0.0000
v  -20.8012 36.7194 -0.6705
v  -20.2328 36.3396 -0.9485
v  -19.6644 35.9598 -0.6705
v  -20.9409 32.8779 0.6705
v  -20.6629 32.8226 0.0000
v  -21.6114 33.0113 0.9485
v  -22.2819 33.1446 0.6705
v  -22.5599 33.1999 0.0000
v  -22.2819 33.1446 -0.6705
v  -21.6114 33.0113 -0.9485
v  -20.9409 32.8779 -0.6705
v  -20.9409 -32.8779 0.6705
v  -20.6629 -32.8226 -0.0000
v  -21.6114 -33.0113 0.9485
v  -22.2819 -33.1446 0.6705
v  -22.5599 -33.1999 -0.0000
v  -22.2819 -33.1446 -0.6705
v  -21.6114 -33.0113 -0.9485
v  -20.9409 -32.8779 -0.6705
v  -19.6644 -35.9598 0.6705
v  -19.4287 -35.8023 -0.0000
v  -20.2328 -36.3396 0.9485
v  -20.8012 -36.7194 0.6705
v  -21.0368 -36.8769 -0.0000
v  -20.8012 -36.7194 -0.6705
v  -20.2328 -36.3396 -0.9485
v  -19.6644 -35.9598 -0.6705
v  -17.5411 -38.0831 0.6705
v  -17.3836 -37.8474 -0.0000
v  -17.9209 -38.6515 0.9485
v  -18.3007 -39.2199 0.6705
v  -18.4582 -39.4556 -0.0000
v  -18.3007 -39.2199 -0.6705
v  -17.9209 -38.6515 -0.9485
v  -17.5411 -38.0831 -0.6705
v  -14.4592 -39.3596 0.6705
v  -14.4039 -39.0816 -0.0000
v  -14.5926 -40.0301 0.9485
v  -14.7259 -40.7006 0.6705
v  -14.7812 -40.9786 -0.0000
v  -14.7259 -40.7006 -0.6705
v  -14.5926 -40.0301 -0.9485
v  -14.4592 -39.3596 -0.6705
v  14.4592 -39.3596 0.6705
v  14.4039 -39.0816 -0.0000
v  14.5926 -40.0301 0.9485
v  14.7260 -40.7006 0.6705
v  14.7812 -40.9786 -0.0000
v  14.7260 -40.7006 -0.6705
v  14.5926 -40.0301 -0.9485
v  14.4592 -39.3596 -0.6705
v  17.5411 -38.0831 0.6705
v  17.3836 -37.8474 -0.0000
v  17.9209 -38.6515 0.9485
v  18.3007 -39.2199 0.6705
v  18.4582 -39.4555 -0.0000
v  18.3007 -39.2199 -0.6705
v  17.9209 -38.6515 -0.9485
v  17.5411 -38.0831 -0.6705
v  19.6644 -35.9598 0.6705
v  19.4287 -35.8023 -0.0000
v  20.2328 -36.3396 0.9485
v  20.8012 -36.7194 0.6705
v  21.0369 -36.8768 -0.0000
v  20.8012 -36.7194 -0.6705
v  20.2328 -36.3396 -0.9485
v  19.6644 -35.9598 -0.6705
v  20.9409 -32.8779 0.6705
v  20.6629 -32.8226 -0.0000
v  21.6114 -33.0113 0.9485
v  22.2819 -33.1446 0.6705
v  22.5599 -33.1999 -0.0000
v  22.2819 -33.1446 -0.6705
v  21.6114 -33.0113 -0.9485
v  20.9409 -32.8779 -0.6705
v  20.9409 32.8779 0.6705
v  20.6629 32.8226 0.0000
v  21.6114 33.0113 0.9485
v  22.2819 33.1447 0.6705
v  22.5599 33.2000 0.0000
v  22.2819 33.1447 -0.6705
v  21.6114 33.0113 -0.9485
v  20.9409 32.8779 -0.6705
v  19.6644 35.9598 0.6705
v  19.4287 35.8023 0.0000
v  20.2328 36.3396 0.9485
v  20.8012 36.7194 0.6705
v  21.0368 36.8769 0.0000
v  20.8012 36.7194 -0.6705
v  20.2328 36.3396 -0.9485
v  19.6644 35.9598 -0.6705
v  17.5411 38.0831 0.6705
v  17.3836 37.8474 0.0000
v  17.9209 38.6515 0.9485
v  18.3007 39.2199 0.6705
v  18.4581 39.4556 0.0000
v  18.3007 39.2199 -0.6705
v  17.9209 38.6515 -0.9485
v  17.5411 38.0831 -0.6705
# 128 vertices

vn 0.1320 -0.6634 0.7365
vn 0.1951 -0.9808 -0.0000
vn -0.1951 -0.9808 0.0000
vn -0.1320 -0.6634 0.7365
vn -0.0092 0.0461 0.9989
vn 0.0092 0.0461 0.9989
vn -0.1414 0.7109 0.6889
vn 0.1414 0.7109 0.6889
vn -0.1951 0.9808 -0.0000
vn 0.1951 0.9808 -0.0000
vn -0.1414 0.7109 -0.6889
vn 0.1414 0.7109 -0.6889
vn -0.0092 0.0461 -0.9989
vn 0.0092 0.0461 -0.9989
vn 0.1320 -0.6634 -0.7365
vn -0.1320 -0.6634 -0.7365
vn 0.3758 -0.5624 0.7365
vn 0.5556 -0.8315 -0.0000
vn -0.0261 0.0391 0.9989
vn -0.4027 0.6027 0.6889
vn -0.5556 0.8315 0.0000
vn -0.4027 0.6027 -0.6889
vn -0.0261 0.0391 -0.9989
vn 0.3758 -0.5624 -0.7365
vn 0.5624 -0.3758 0.7365
vn 0.8315 -0.5556 -0.0000
vn -0.0391 0.0261 0.9989
vn -0.6027 0.4027 0.6889
vn -0.8315 0.5556 -0.0000
vn -0.6027 0.4027 -0.6889
vn -0.0391 0.0261 -0.9989
vn 0.5624 -0.3758 -0.7365
vn 0.6634 -0.1320 0.7365
vn 0.9808 -0.1951 -0.0000
vn -0.0461 0.0092 0.9989
vn -0.7109 0.1414 0.6889
vn -0.9808 0.1951 0.0000
vn -0.7109 0.1414 -0.6889
vn -0.0461 0.0092 -0.9989
vn 0.6634 -0.1320 -0.7365
vn 0.6634 0.1320 0.7365
vn 0.9808 0.1951 -0.0000
vn -0.0461 -0.0092 0.9989
vn -0.7109 -0.1414 0.6889
vn -0.9808 -0.1951 0.0000
vn -0.7109 -0.1414 -0.6889
vn -0.0461 -0.0092 -0.9989
vn 0.6634 0.1320 -0.7365
vn 0.5624 0.3758 0.7365
vn 0.8315 0.5556 -0.0000
vn -0.0391 -0.0261 0.9989
vn -0.6027 -0.4027 0.6889
vn -0.8315 -0.5556 0.0000
vn -0.6027 -0.4027 -0.6889
vn -0.0391 -0.0261 -0.9989
vn 0.5624 0.3758 -0.7365
vn 0.3758 0.5624 0.7365
vn 0.5556 0.8315 -0.0000
vn -0.0261 -0.0391 0.9989
vn -0.4027 -0.6027 0.6889
vn -0.5556 -0.8315 -0.0000
vn -0.4027 -0.6027 -0.6889
vn -0.0261 -0.0391 -0.9989
vn 0.3758 0.5624 -0.7365
vn 0.1320 0.6634 0.7365
vn 0.1951 0.9808 0.0000
vn -0.0092 -0.0461 0.9989
vn -0.1414 -0.7109 0.6889
vn -0.1951 -0.9808 -0.0000
vn -0.1414 -0.7109 -0.6889
vn -0.0092 -0.0461 -0.9989
vn 0.1320 0.6634 -0.7365
vn -0.1320 0.6634 0.7365
vn -0.1951 0.9808 0.0000
vn 0.0092 -0.0461 0.9989
vn 0.1414 -0.7109 0.6889
vn 0.1414 -0.7109 -0.6889
vn 0.0092 -0.0461 -0.9989
vn -0.1320 0.6634 -0.7365
vn -0.3758 0.5624 0.7365
vn -0.5556 0.8315 -0.0000
vn 0.0261 -0.0391 0.9989
vn 0.4027 -0.6027 0.6889
vn 0.4027 -0.6027 -0.6889
vn 0.0261 -0.0391 -0.9989
vn -0.3758 0.5624 -0.7365
vn -0.5624 0.3758 0.7365
vn 0.0391 -0.0261 0.9989
vn 0.6027 -0.4027 0.6889
vn 0.8315 -0.5556 0.0000
vn 0.6027 -0.4027 -0.6889
vn 0.0391 -0.0261 -0.9989
vn -0.5624 0.3758 -0.7365
vn -0.6634 0.1320 0.7365
vn -0.9808 0.1951 -0.0000
vn 0.0461 -0.0092 0.9989
vn 0.7109 -0.1414 0.6889
vn 0.7109 -0.1414 -0.6889
vn 0.0461 -0.0092 -0.9989
vn -0.6634 0.1320 -0.7365
vn -0.6634 -0.1320 0.7365
vn -0.9808 -0.1951 -0.0000
vn 0.0461 0.0092 0.9989
vn 0.7109 0.1414 0.6889
vn 0.7109 0.1414 -0.6889
vn 0.0461 0.0092 -0.9989
vn -0.6634 -0.1320 -0.7365
vn -0.5624 -0.3758 0.7365
vn -0.8315 -0.5556 -0.0000
vn 0.0391 0.0261 0.9989
vn 0.6027 0.4027 0.6889
vn 0.8315 0.5556 0.0000
vn 0.6027 0.4027 -0.6889
vn 0.0391 0.0261 -0.9989
vn -0.5624 -0.3758 -0.7365
vn -0.3758 -0.5624 0.7365
vn 0.0261 0.0391 0.9989
vn 0.4027 0.6027 0.6889
vn 0.4027 0.6027 -0.6889
vn 0.0261 0.0391 -0.9989
vn -0.3758 -0.5624 -0.7365
# 121 vertex normals

g Loft004
usemtl wire_086086086
s 2049
f 1//1 2//2 3//3 4//4 
s 4099
f 5//5 1//1 4//4 6//6 
s 8194
f 7//7 5//5 6//6 8//8 
s 4098
f 9//9 7//7 8//8 10//10 
s 8194
f 11//11 9//9 10//10 12//12 
s 4098
f 13//13 11//11 12//12 14//14 
s 8194
f 15//15 13//13 14//14 16//16 
s 4099
f 2//2 15//15 16//16 3//3 
s 2056
f 17//17 18//18 2//2 1//1 
s 4120
f 19//19 17//17 1//1 5//5 
s 8208
f 20//20 19//19 5//5 7//7 
s 4112
f 21//21 20//20 7//7 9//9 
s 8208
f 22//22 21//21 9//9 11//11 
s 4112
f 23//23 22//22 11//11 13//13 
s 8208
f 24//24 23//23 13//13 15//15 
s 4120
f 18//18 24//24 15//15 2//2 
s 2049
f 25//25 26//26 18//18 17//17 
s 4099
f 27//27 25//25 17//17 19//19 
s 8194
f 28//28 27//27 19//19 20//20 
s 4098
f 29//29 28//28 20//20 21//21 
s 8194
f 30//30 29//29 21//21 22//22 
s 4098
f 31//31 30//30 22//22 23//23 
s 8194
f 32//32 31//31 23//23 24//24 
s 4099
f 26//26 32//32 24//24 18//18 
s 2056
f 33//33 34//34 26//26 25//25 
s 4120
f 35//35 33//33 25//25 27//27 
s 8208
f 36//36 35//35 27//27 28//28 
s 4112
f 37//37 36//36 28//28 29//29 
s 8208
f 38//38 37//37 29//29 30//30 
s 4112
f 39//39 38//38 30//30 31//31 
s 8208
f 40//40 39//39 31//31 32//32 
s 4120
f 34//34 40//40 32//32 26//26 
s 2049
f 41//41 42//42 34//34 33//33 
s 4099
f 43//43 41//41 33//33 35//35 
s 8194
f 44//44 43//43 35//35 36//36 
s 4098
f 45//45 44//44 36//36 37//37 
s 8194
f 46//46 45//45 37//37 38//38 
s 4098
f 47//47 46//46 38//38 39//39 
s 8194
f 48//48 47//47 39//39 40//40 
s 4099
f 42//42 48//48 40//40 34//34 
s 2056
f 49//49 50//50 42//42 41//41 
s 4120
f 51//51 49//49 41//41 43//43 
s 8208
f 52//52 51//51 43//43 44//44 
s 4112
f 53//53 52//52 44//44 45//45 
s 8208
f 54//54 53//53 45//45 46//46 
s 4112
f 55//55 54//54 46//46 47//47 
s 8208
f 56//56 55//55 47//47 48//48 
s 4120
f 50//50 56//56 48//48 42//42 
s 2049
f 57//57 58//58 50//50 49//49 
s 4099
f 59//59 57//57 49//49 51//51 
s 8194
f 60//60 59//59 51//51 52//52 
s 4098
f 61//61 60//60 52//52 53//53 
s 8194
f 62//62 61//61 53//53 54//54 
s 4098
f 63//63 62//62 54//54 55//55 
s 8194
f 64//64 63//63 55//55 56//56 
s 4099
f 58//58 64//64 56//56 50//50 
s 2056
f 65//65 66//66 58//58 57//57 
s 4120
f 67//67 65//65 57//57 59//59 
s 8208
f 68//68 67//67 59//59 60//60 
s 4112
f 69//69 68//68 60//60 61//61 
s 8208
f 70//70 69//69 61//61 62//62 
s 4112
f 71//71 70//70 62//62 63//63 
s 8208
f 72//72 71//71 63//63 64//64 
s 4120
f 66//66 72//72 64//64 58//58 
s 2049
f 73//73 74//74 66//66 65//65 
s 4099
f 75//75 73//73 65//65 67//67 
s 8194
f 76//76 75//75 67//67 68//68 
s 4098
f 77//2 76//76 68//68 69//69 
s 8194
f 78//77 77//2 69//69 70//70 
s 4098
f 79//78 78//77 70//70 71//71 
s 8194
f 80//79 79//78 71//71 72//72 
s 4099
f 74//74 80//79 72//72 66//66 
s 2056
f 81//80 82//81 74//74 73//73 
s 4120
f 83//82 81//80 73//73 75//75 
s 8208
f 84//83 83//82 75//75 76//76 
s 4112
f 85//18 84//83 76//76 77//2 
s 8208
f 86//84 85//18 77//2 78//77 
s 4112
f 87//85 86//84 78//77 79//78 
s 8208
f 88//86 87//85 79//78 80//79 
s 4120
f 82//81 88//86 80//79 74//74 
s 2049
f 89//87 90//29 82//81 81//80 
s 4099
f 91//88 89//87 81//80 83//82 
s 8194
f 92//89 91//88 83//82 84//83 
s 4098
f 93//90 92//89 84//83 85//18 
s 8194
f 94//91 93//90 85//18 86//84 
s 4098
f 95//92 94//91 86//84 87//85 
s 8194
f 96//93 95//92 87//85 88//86 
s 4099
f 90//29 96//93 88//86 82//81 
s 2056
f 97//94 98//95 90//29 89//87 
s 4120
f 99//96 97//94 89//87 91//88 
s 8208
f 100//97 99//96 91//88 92//89 
s 4112
f 101//34 100//97 92//89 93//90 
s 8208
f 102//98 101//34 93//90 94//91 
s 4112
f 103//99 102//98 94//91 95//92 
s 8208
f 104//100 103//99 95//92 96//93 
s 4120
f 98//95 104//100 96//93 90//29 
s 2049
f 105//101 106//102 98//95 97//94 
s 4099
f 107//103 105//101 97//94 99//96 
s 8194
f 108//104 107//103 99//96 100//97 
s 4098
f 109//42 108//104 100//97 101//34 
s 8194
f 110//105 109//42 101//34 102//98 
s 4098
f 111//106 110//105 102//98 103//99 
s 8194
f 112//107 111//106 103//99 104//100 
s 4099
f 106//102 112//107 104//100 98//95 
s 2056
f 113//108 114//109 106//102 105//101 
s 4120
f 115//110 113//108 105//101 107//103 
s 8208
f 116//111 115//110 107//103 108//104 
s 4112
f 117//112 116//111 108//104 109//42 
s 8208
f 118//113 117//112 109//42 110//105 
s 4112
f 119//114 118//113 110//105 111//106 
s 8208
f 120//115 119//114 111//106 112//107 
s 4120
f 114//109 120//115 112//107 106//102 
s 2049
f 121//116 122//61 114//109 113//108 
s 4099
f 123//117 121//116 113//108 115//110 
s 8194
f 124//118 123//117 115//110 116//111 
s 4098
f 125//58 124//118 116//111 117//112 
s 8194
f 126//119 125//58 117//112 118//113 
s 4098
f 127//120 126//119 118//113 119//114 
s 8194
f 128//121 127//120 119//114 120//115 
s 4099
f 122//61 128//121 120//115 114//109 
s 2056
f 4//4 3//3 122//61 121//116 
s 4120
f 6//6 4//4 121//116 123//117 
s 8208
f 8//8 6//6 123//117 124//118 
s 4112
f 10//10 8//8 124//118 125//58 
s 8208
f 12//12 10//10 125//58 126//119 
s 4112
f 14//14 12//12 126//119 127//120 
s 8208
f 16//16 14//14 127//120 128//121 
s 4120
f 3//3 16//16 128//121 122//61 
# 128 polygons

