# 3ds Max Wavefront OBJ Exporter v0.97b - (c)2007 guruware
# File Created: 04.04.2017 11:09:46

mtllib table.mtl

#
# object Cylinder002
#

v  46.1867 79.9794 -0.0000
v  42.6710 79.9794 -17.6749
v  42.6710 90.5467 -17.6749
v  46.1867 90.5467 -0.0000
v  32.6590 79.9794 -32.6590
v  32.6590 90.5467 -32.6590
v  17.6749 79.9794 -42.6710
v  17.6749 90.5467 -42.6710
v  -0.0000 79.9794 -46.1867
v  -0.0000 90.5467 -46.1867
v  -17.6749 79.9794 -42.6710
v  -17.6749 90.5467 -42.6710
v  -32.6590 79.9794 -32.6590
v  -32.6590 90.5467 -32.6590
v  -42.6710 79.9794 -17.6749
v  -42.6710 90.5467 -17.6749
v  -46.1867 79.9794 -0.0000
v  -46.1867 90.5467 -0.0000
v  -42.6710 79.9794 17.6749
v  -42.6710 90.5467 17.6749
v  -32.6590 79.9794 32.6589
v  -32.6590 90.5467 32.6589
v  -17.6749 79.9794 42.6710
v  -17.6749 90.5467 42.6710
v  0.0000 79.9794 46.1867
v  0.0000 90.5467 46.1867
v  17.6749 79.9794 42.6710
v  17.6749 90.5467 42.6710
v  32.6590 79.9794 32.6589
v  32.6590 90.5467 32.6589
v  42.6710 79.9794 17.6749
v  42.6710 90.5467 17.6749
v  40.5960 92.7495 -16.8154
v  31.0708 92.7495 -31.0708
v  16.8154 92.7495 -40.5960
v  40.5960 92.7495 16.8154
v  -0.0000 92.7495 -43.9408
v  -16.8154 92.7495 -40.5960
v  -40.5960 92.7495 -16.8154
v  -31.0708 92.7495 -31.0708
v  -43.9408 92.7495 -0.0000
v  -40.5960 92.7495 16.8154
v  -16.8154 92.7495 40.5960
v  -31.0708 92.7495 31.0708
v  0.0000 92.7495 43.9408
v  16.8154 92.7495 40.5960
v  31.0708 92.7495 31.0708
v  43.9408 92.7495 -0.0000
v  43.9408 77.7766 -0.0000
v  40.5960 77.7766 -16.8154
v  31.0708 77.7766 -31.0708
v  16.8154 77.7766 -40.5960
v  -0.0000 77.7766 -43.9408
v  -16.8154 77.7766 -40.5960
v  -31.0708 77.7766 -31.0708
v  -40.5960 77.7766 -16.8154
v  -43.9408 77.7766 -0.0000
v  -40.5960 77.7766 16.8154
v  -31.0708 77.7766 31.0708
v  -16.8154 77.7766 40.5960
v  0.0000 77.7766 43.9408
v  16.8154 77.7766 40.5960
v  31.0708 77.7766 31.0708
v  40.5960 77.7766 16.8154
v  15.0183 77.7766 15.0183
v  19.6223 77.7766 8.1278
v  8.1278 77.7766 19.6223
v  0.0000 77.7766 21.2391
v  -8.1278 77.7766 19.6223
v  -15.0183 77.7766 15.0183
v  -19.6223 77.7766 8.1278
v  -21.2391 77.7766 -0.0000
v  -19.6223 77.7766 -8.1278
v  -15.0183 77.7766 -15.0183
v  -8.1278 77.7766 -19.6223
v  -0.0000 77.7766 -21.2391
v  8.1278 77.7766 -19.6223
v  15.0183 77.7766 -15.0183
v  19.6223 77.7766 -8.1278
v  21.2391 77.7766 -0.0000
v  15.9369 0.0000 -6.6013
v  17.2499 0.0000 -0.0000
v  15.9369 0.0000 6.6012
v  12.1975 0.0000 12.1975
v  6.6013 0.0000 15.9369
v  0.0000 0.0000 17.2499
v  -6.6013 0.0000 15.9369
v  -12.1975 0.0000 12.1975
v  -15.9369 0.0000 6.6013
v  -17.2499 0.0000 -0.0000
v  -15.9369 0.0000 -6.6013
v  -12.1975 0.0000 -12.1975
v  -6.6013 0.0000 -15.9369
v  -0.0000 0.0000 -17.2499
v  6.6013 0.0000 -15.9369
v  12.1975 0.0000 -12.1975
v  17.2499 72.1057 -0.0000
v  15.9369 72.1057 -6.6013
v  15.9369 72.1057 6.6012
v  12.1975 72.1057 12.1975
v  6.6013 72.1057 15.9368
v  0.0000 72.1057 17.2499
v  -6.6013 72.1057 15.9368
v  -12.1975 72.1057 12.1975
v  -15.9369 72.1057 6.6013
v  -17.2499 72.1057 -0.0000
v  -15.9369 72.1057 -6.6013
v  -12.1975 72.1057 -12.1975
v  -6.6013 72.1057 -15.9369
v  -0.0000 72.1057 -17.2499
v  6.6013 72.1057 -15.9369
v  12.1975 72.1057 -12.1975
v  17.2499 36.5177 -0.0000
v  15.9369 36.5177 -6.6013
v  15.9369 36.5177 6.6012
v  12.1975 36.5177 12.1975
v  6.6013 36.5177 15.9368
v  0.0000 36.5177 17.2499
v  -6.6013 36.5177 15.9368
v  -12.1975 36.5177 12.1975
v  -15.9369 36.5177 6.6013
v  -17.2499 36.5177 -0.0000
v  -15.9369 36.5177 -6.6013
v  -12.1975 36.5177 -12.1975
v  -6.6013 36.5177 -15.9369
v  -0.0000 36.5177 -17.2499
v  6.6013 36.5177 -15.9369
v  12.1975 36.5177 -12.1975
# 128 vertices

vn 0.9286 -0.3710 -0.0000
vn 0.8580 -0.3710 -0.3554
vn 0.8580 0.3710 -0.3554
vn 0.9286 0.3710 -0.0000
vn 0.6567 -0.3710 -0.6567
vn 0.6567 0.3710 -0.6567
vn 0.3554 -0.3710 -0.8580
vn 0.3554 0.3710 -0.8580
vn -0.0000 -0.3710 -0.9286
vn 0.0000 0.3710 -0.9286
vn -0.3554 -0.3710 -0.8580
vn -0.3554 0.3710 -0.8580
vn -0.6567 -0.3710 -0.6567
vn -0.6567 0.3710 -0.6567
vn -0.8580 -0.3710 -0.3554
vn -0.8580 0.3710 -0.3554
vn -0.9286 -0.3710 -0.0000
vn -0.9286 0.3710 -0.0000
vn -0.8580 -0.3710 0.3554
vn -0.8580 0.3710 0.3554
vn -0.6567 -0.3710 0.6566
vn -0.6567 0.3710 0.6566
vn -0.3554 -0.3710 0.8580
vn -0.3554 0.3710 0.8580
vn -0.0000 -0.3710 0.9286
vn -0.0000 0.3710 0.9286
vn 0.3554 -0.3710 0.8580
vn 0.3554 0.3710 0.8580
vn 0.6567 -0.3710 0.6566
vn 0.6567 0.3710 0.6566
vn 0.8580 -0.3710 0.3554
vn 0.8580 0.3710 0.3554
vn -0.0000 1.0000 0.0000
vn 0.0000 1.0000 0.0000
vn 0.0000 1.0000 -0.0000
vn 0.4172 -0.9088 -0.0000
vn 0.3855 -0.9088 -0.1597
vn 0.6469 0.7139 -0.2680
vn 0.7002 0.7139 -0.0000
vn 0.2950 -0.9088 -0.2950
vn 0.4951 0.7139 -0.4951
vn 0.1597 -0.9088 -0.3855
vn 0.2680 0.7139 -0.6469
vn -0.0000 -0.9088 -0.4172
vn 0.0000 0.7139 -0.7002
vn -0.1597 -0.9088 -0.3855
vn -0.2680 0.7139 -0.6469
vn -0.2950 -0.9088 -0.2950
vn -0.4951 0.7139 -0.4951
vn -0.3855 -0.9088 -0.1597
vn -0.6469 0.7139 -0.2680
vn -0.4172 -0.9088 -0.0000
vn -0.7002 0.7139 -0.0000
vn -0.3855 -0.9088 0.1597
vn -0.6469 0.7139 0.2680
vn -0.2950 -0.9088 0.2950
vn -0.4951 0.7139 0.4951
vn -0.1597 -0.9088 0.3855
vn -0.2680 0.7139 0.6469
vn -0.0000 -0.9088 0.4172
vn -0.0000 0.7139 0.7002
vn 0.1597 -0.9088 0.3855
vn 0.2680 0.7139 0.6469
vn 0.2950 -0.9088 0.2950
vn 0.4951 0.7139 0.4951
vn 0.3855 -0.9088 0.1597
vn 0.6469 0.7139 0.2680
vn 0.0000 -1.0000 -0.0000
vn -0.0000 -1.0000 -0.0000
vn 0.0000 -1.0000 0.0000
vn 0.7557 -0.5753 -0.3130
vn 0.8179 -0.5753 -0.0000
vn 0.9497 -0.3131 -0.0000
vn 0.8774 -0.3131 -0.3634
vn 0.7557 -0.5753 0.3130
vn 0.8774 -0.3131 0.3634
vn 0.5783 -0.5753 0.5783
vn 0.6716 -0.3131 0.6716
vn 0.3130 -0.5753 0.7556
vn 0.3634 -0.3131 0.8774
vn -0.0000 -0.5753 0.8179
vn -0.0000 -0.3131 0.9497
vn -0.3130 -0.5753 0.7556
vn -0.3634 -0.3131 0.8774
vn -0.5783 -0.5753 0.5783
vn -0.6716 -0.3131 0.6716
vn -0.7557 -0.5753 0.3130
vn -0.8774 -0.3131 0.3634
vn -0.8179 -0.5753 -0.0000
vn -0.9497 -0.3131 -0.0000
vn -0.7557 -0.5753 -0.3130
vn -0.8774 -0.3131 -0.3634
vn -0.5783 -0.5753 -0.5783
vn -0.6716 -0.3131 -0.6716
vn -0.3130 -0.5753 -0.7557
vn -0.3634 -0.3131 -0.8774
vn -0.0000 -0.5753 -0.8179
vn -0.0000 -0.3131 -0.9497
vn 0.3130 -0.5753 -0.7557
vn 0.3634 -0.3131 -0.8774
vn 0.5783 -0.5753 -0.5783
vn 0.6716 -0.3131 -0.6716
vn 1.0000 -0.0000 -0.0000
vn 0.9239 -0.0000 -0.3827
vn 0.9239 0.0000 0.3827
vn 0.7071 0.0000 0.7071
vn 0.3827 0.0000 0.9239
vn 0.0000 0.0000 1.0000
vn -0.3827 0.0000 0.9239
vn -0.7071 0.0000 0.7071
vn -0.9239 0.0000 0.3827
vn -1.0000 0.0000 -0.0000
vn -0.9239 -0.0000 -0.3827
vn -0.7071 -0.0000 -0.7071
vn -0.3827 -0.0000 -0.9239
vn -0.0000 -0.0000 -1.0000
vn 0.3827 -0.0000 -0.9239
vn 0.7071 -0.0000 -0.7071
vn 1.0000 0.0000 -0.0000
vn -1.0000 -0.0000 -0.0000
vn 0.0000 -0.0000 -1.0000
# 121 vertex normals

vt 217.6499 2.2028 1.0000
vt 235.7874 2.2028 1.0000
vt 235.7874 12.7701 1.0000
vt 217.6499 12.7701 1.0000
vt 253.9249 2.2028 1.0000
vt 253.9249 12.7701 1.0000
vt 272.0623 2.2028 1.0000
vt 272.0623 12.7701 1.0000
vt 290.1998 2.2028 1.0000
vt 290.1998 12.7701 1.0000
vt 0.0000 2.2028 1.0000
vt 18.1375 2.2028 1.0000
vt 18.1375 12.7701 1.0000
vt 0.0000 12.7701 1.0000
vt 36.2750 2.2028 1.0000
vt 36.2750 12.7701 1.0000
vt 54.4125 2.2028 1.0000
vt 54.4125 12.7701 1.0000
vt 72.5499 2.2028 1.0000
vt 72.5499 12.7701 1.0000
vt 90.6874 2.2028 1.0000
vt 90.6874 12.7701 1.0000
vt 108.8249 2.2028 1.0000
vt 108.8249 12.7701 1.0000
vt 126.9624 2.2028 1.0000
vt 126.9624 12.7701 1.0000
vt 145.0999 2.2028 1.0000
vt 145.0999 12.7701 1.0000
vt 163.2374 2.2028 1.0000
vt 163.2374 12.7701 1.0000
vt 181.3749 2.2028 1.0000
vt 181.3749 12.7701 1.0000
vt 199.5124 2.2028 1.0000
vt 199.5124 12.7701 1.0000
vt 259.8777 14.9729 1.0000
vt 253.9248 14.9729 1.0000
vt 279.1183 14.9729 1.0000
vt 486.1842 14.9729 1.0000
vt 290.1998 14.9729 1.0000
vt 308.3373 14.9729 1.0000
vt 348.1403 14.9729 1.0000
vt 326.4748 14.9729 1.0000
vt 362.7498 14.9729 1.0000
vt 380.8872 14.9729 1.0000
vt 417.1623 14.9729 1.0000
vt 399.0248 14.9729 1.0000
vt 435.2997 14.9729 1.0000
vt 453.4372 14.9729 1.0000
vt 471.5748 14.9729 1.0000
vt 415.1556 14.9729 1.0000
vt -67.9067 -3.1538 1.0000
vt -69.0220 0.0000 1.0000
vt -54.4125 0.0000 1.0000
vt -54.8911 -3.1538 1.0000
vt 295.5232 -191.2437 1.0000
vt 367.1298 -191.2436 1.0000
vt -55.2661 5.6245 1.0000
vt -36.2750 0.0000 1.0000
vt -35.4213 5.6245 1.0000
vt -37.1287 5.6246 1.0000
vt -18.1375 0.0000 1.0000
vt -17.2838 5.6246 1.0000
vt -18.9911 5.6245 1.0000
vt 0.0000 0.0000 1.0000
vt 0.8537 5.6245 1.0000
vt 288.3888 26.9051 1.0000
vt 282.2026 26.9051 1.0000
vt 18.1375 0.0000 1.0000
vt 309.1910 9.3484 1.0000
vt 289.3462 9.3484 1.0000
vt 36.2750 0.0000 1.0000
vt 327.3284 9.3484 1.0000
vt 307.4836 9.3484 1.0000
vt 54.4125 0.0000 1.0000
vt 350.9630 0.5699 1.0000
vt 324.2888 0.5699 1.0000
vt 69.0220 0.0000 1.0000
vt 362.2711 18.1268 1.0000
vt 349.2556 18.1268 1.0000
vt 90.6874 0.0000 1.0000
vt 381.7408 9.3486 1.0000
vt 361.8961 9.3486 1.0000
vt 108.8249 0.0000 1.0000
vt 399.8785 9.3482 1.0000
vt 380.0335 9.3482 1.0000
vt 126.9624 0.0000 1.0000
vt 418.0159 9.3484 1.0000
vt 398.1711 9.3484 1.0000
vt 138.0440 0.0000 1.0000
vt 436.1534 9.3484 1.0000
vt 416.3086 9.3484 1.0000
vt 163.2374 0.0000 1.0000
vt 454.2909 9.3484 1.0000
vt 434.4461 9.3484 1.0000
vt 157.2845 0.0000 1.0000
vt 472.4285 9.3482 1.0000
vt 452.5836 9.3482 1.0000
vt 121.6392 206.2164 1.0000
vt 2.0065 0.0000 1.0000
vt 50.0325 206.2161 1.0000
vt 485.0689 18.1270 1.0000
vt 472.0535 18.1270 1.0000
vt 51.5534 -216.2393 1.0000
vt -101.2048 -216.2394 1.0000
vt 365.6087 231.2126 1.0000
vt 518.3671 231.2126 1.0000
vt 76.0245 0.0000 1.0000
vt 0.9698 0.0000 1.0000
vt 78.9018 0.0000 1.0000
vt 66.7244 0.0000 1.0000
vt 61.3681 0.0000 1.0000
vt 52.6012 0.0000 1.0000
vt 43.8344 0.0000 1.0000
vt 33.3622 0.0000 1.0000
vt 26.3006 0.0000 1.0000
vt 17.5337 0.0000 1.0000
vt 8.7669 0.0000 1.0000
vt -0.0000 0.0000 1.0000
vt -8.7669 0.0000 1.0000
vt -17.5338 0.0000 1.0000
vt -26.3006 0.0000 1.0000
vt -33.3622 0.0000 1.0000
# 122 texture coords

g Cylinder002
usemtl wire_086086086
s 1
f 1/1/1 2/2/2 3/3/3 4/4/4 
f 2/2/2 5/5/5 6/6/6 3/3/3 
f 5/5/5 7/7/7 8/8/8 6/6/6 
f 7/7/7 9/9/9 10/10/10 8/8/8 
f 9/11/9 11/12/11 12/13/12 10/14/10 
f 11/12/11 13/15/13 14/16/14 12/13/12 
f 13/15/13 15/17/15 16/18/16 14/16/14 
f 15/17/15 17/19/17 18/20/18 16/18/16 
f 17/19/17 19/21/19 20/22/20 18/20/18 
f 19/21/19 21/23/21 22/24/22 20/22/20 
f 21/23/21 23/25/23 24/26/24 22/24/22 
f 23/25/23 25/27/25 26/28/26 24/26/24 
f 25/27/25 27/29/27 28/30/28 26/28/26 
f 27/29/27 29/31/29 30/32/30 28/30/28 
f 29/31/29 31/33/31 32/34/32 30/32/30 
f 31/33/31 1/1/1 4/4/4 32/34/32 
s 2
f 33/35/33 34/36/33 35/37/33 36/38/34 
f 35/37/33 37/39/35 38/40/34 39/41/34 
f 38/40/34 40/42/34 39/41/34 
f 39/41/34 41/43/35 42/44/33 43/45/33 
f 42/44/33 44/46/33 43/45/33 
f 43/45/33 45/47/35 46/48/34 36/38/34 
f 46/48/34 47/49/34 36/38/34 
f 39/41/34 43/45/33 36/38/34 35/37/33 
f 48/50/35 33/35/33 36/38/34 
s 1
f 1/51/1 49/52/36 50/53/37 2/54/2 
f 3/55/3 33/35/38 48/50/39 4/56/4 
f 2/57/2 50/53/37 51/58/40 5/59/5 
f 6/6/6 34/36/41 33/35/38 3/3/3 
f 5/60/5 51/58/40 52/61/42 7/62/7 
f 8/8/8 35/37/43 34/36/41 6/6/6 
f 7/63/7 52/61/42 53/64/44 9/65/9 
f 10/66/10 37/39/45 35/37/43 8/67/8 
f 9/11/9 53/64/44 54/68/46 11/12/11 
f 12/69/12 38/40/47 37/39/45 10/70/10 
f 11/12/11 54/68/46 55/71/48 13/15/13 
f 14/72/14 40/42/49 38/40/47 12/73/12 
f 13/15/13 55/71/48 56/74/50 15/17/15 
f 16/75/16 39/41/51 40/42/49 14/76/14 
f 15/17/15 56/74/50 57/77/52 17/19/17 
f 18/78/18 41/43/53 39/41/51 16/79/16 
f 17/19/17 57/77/52 58/80/54 19/21/19 
f 20/81/20 42/44/55 41/43/53 18/82/18 
f 19/21/19 58/80/54 59/83/56 21/23/21 
f 22/84/22 44/46/57 42/44/55 20/85/20 
f 21/23/21 59/83/56 60/86/58 23/25/23 
f 24/87/24 43/45/59 44/46/57 22/88/22 
f 23/25/23 60/86/58 61/89/60 25/27/25 
f 26/90/26 45/47/61 43/45/59 24/91/24 
f 25/27/25 61/89/60 62/92/62 27/29/27 
f 28/93/28 46/48/63 45/47/61 26/94/26 
f 27/29/27 62/92/62 63/95/64 29/31/29 
f 30/96/30 47/49/65 46/48/63 28/97/28 
f 29/98/29 63/95/64 64/99/66 31/100/31 
f 32/101/32 36/38/67 47/49/65 30/102/30 
f 31/103/31 64/99/66 49/52/36 1/104/1 
f 4/105/4 48/50/39 36/38/67 32/106/32 
f 63/95/64 65/107/68 66/108/68 64/99/66 
f 62/92/62 67/109/69 65/107/68 63/95/64 
f 61/89/60 68/110/70 67/109/69 62/92/62 
f 60/86/58 69/111/69 68/110/70 61/89/60 
f 59/83/56 70/112/68 69/111/69 60/86/58 
f 58/80/54 71/113/68 70/112/68 59/83/56 
f 57/77/52 72/114/68 71/113/68 58/80/54 
f 56/74/50 73/115/68 72/114/68 57/77/52 
f 55/71/48 74/116/68 73/115/68 56/74/50 
f 54/68/46 75/117/69 74/116/68 55/71/48 
f 53/64/44 76/118/70 75/117/69 54/68/46 
f 52/61/42 77/119/69 76/118/70 53/64/44 
f 51/58/40 78/120/68 77/119/69 52/61/42 
f 50/53/37 79/121/68 78/120/68 51/58/40 
f 49/52/36 80/122/68 79/121/68 50/53/37 
f 64/99/66 66/108/68 80/122/68 49/52/36 
f 81/121/68 82/122/68 83/108/68 84/107/68 
f 81/121/68 84/107/68 85/109/68 86/110/68 
f 81/121/68 86/110/68 87/111/68 88/112/68 
f 81/121/68 88/112/68 89/113/68 90/114/68 
f 81/121/68 90/114/68 91/115/68 92/116/68 
f 81/121/68 92/116/68 93/117/68 94/118/68 
f 81/121/68 94/118/68 95/119/68 96/120/68 
s 2
f 79/121/71 80/122/72 97/122/73 98/121/74 
f 80/122/72 66/108/75 99/108/76 97/122/73 
f 66/108/75 65/107/77 100/107/78 99/108/76 
f 65/107/77 67/109/79 101/109/80 100/107/78 
f 67/109/79 68/110/81 102/110/82 101/109/80 
f 68/110/81 69/111/83 103/111/84 102/110/82 
f 69/111/83 70/112/85 104/112/86 103/111/84 
f 70/112/85 71/113/87 105/113/88 104/112/86 
f 71/113/87 72/114/89 106/114/90 105/113/88 
f 72/114/89 73/115/91 107/115/92 106/114/90 
f 73/115/91 74/116/93 108/116/94 107/115/92 
f 74/116/93 75/117/95 109/117/96 108/116/94 
f 75/117/95 76/118/97 110/118/98 109/117/96 
f 76/118/97 77/119/99 111/119/100 110/118/98 
f 77/119/99 78/120/101 112/120/102 111/119/100 
f 78/120/101 79/121/71 98/121/74 112/120/102 
f 97/122/73 113/122/103 114/121/104 98/121/74 
f 99/108/76 115/108/105 113/122/103 97/122/73 
f 100/107/78 116/107/106 115/108/105 99/108/76 
f 101/109/80 117/109/107 116/107/106 100/107/78 
f 102/110/82 118/110/108 117/109/107 101/109/80 
f 103/111/84 119/111/109 118/110/108 102/110/82 
f 104/112/86 120/112/110 119/111/109 103/111/84 
f 105/113/88 121/113/111 120/112/110 104/112/86 
f 106/114/90 122/114/112 121/113/111 105/113/88 
f 107/115/92 123/115/113 122/114/112 106/114/90 
f 108/116/94 124/116/114 123/115/113 107/115/92 
f 109/117/96 125/117/115 124/116/114 108/116/94 
f 110/118/98 126/118/116 125/117/115 109/117/96 
f 111/119/100 127/119/117 126/118/116 110/118/98 
f 112/120/102 128/120/118 127/119/117 111/119/100 
f 98/121/74 114/121/104 128/120/118 112/120/102 
f 82/122/119 81/121/104 114/121/104 113/122/103 
f 83/108/105 82/122/119 113/122/103 115/108/105 
f 84/107/106 83/108/105 115/108/105 116/107/106 
f 85/109/107 84/107/106 116/107/106 117/109/107 
f 86/110/108 85/109/107 117/109/107 118/110/108 
f 87/111/109 86/110/108 118/110/108 119/111/109 
f 88/112/110 87/111/109 119/111/109 120/112/110 
f 89/113/111 88/112/110 120/112/110 121/113/111 
f 90/114/120 89/113/111 121/113/111 122/114/112 
f 91/115/113 90/114/120 122/114/112 123/115/113 
f 92/116/114 91/115/113 123/115/113 124/116/114 
f 93/117/115 92/116/114 124/116/114 125/117/115 
f 94/118/121 93/117/115 125/117/115 126/118/116 
f 95/119/117 94/118/121 126/118/116 127/119/117 
f 96/120/118 95/119/117 127/119/117 128/120/118 
f 81/121/104 96/120/118 128/120/118 114/121/104 
# 124 polygons - 4 triangles

