# 3ds Max Wavefront OBJ Exporter v0.97b - (c)2007 guruware
# File Created: 04.04.2017 10:39:28

mtllib text.mtl

#
# object Text001
#

v  -24.2108 -6.4100 -1.5000
v  -24.2108 -0.3700 -1.5000
v  -24.2108 -0.3700 1.5000
v  -24.2108 -6.4100 1.5000
v  -16.8903 -0.3700 -1.5000
v  -16.8903 -0.3700 1.5000
v  -16.8903 -6.4100 -1.5000
v  -16.8903 -6.4100 1.5000
v  -15.0160 -6.4100 -1.5000
v  -15.0160 -6.4100 1.5000
v  -15.0160 6.4100 -1.5000
v  -15.0160 6.4100 1.5000
v  -16.8903 6.4100 -1.5000
v  -16.8903 6.4100 1.5000
v  -16.8903 1.1500 -1.5000
v  -16.8903 1.1500 1.5000
v  -24.2108 1.1500 -1.5000
v  -24.2108 1.1500 1.5000
v  -24.2108 6.4100 -1.5000
v  -24.2108 6.4100 1.5000
v  -26.0851 6.4100 -1.5000
v  -26.0851 6.4100 1.5000
v  -26.0851 -6.4100 -1.5000
v  -26.0851 -6.4100 1.5000
v  -1.3230 -6.4100 -1.5000
v  -1.3230 -4.8900 -1.5000
v  -1.3230 -4.8900 1.5000
v  -1.3230 -6.4100 1.5000
v  -9.9666 -4.8900 -1.5000
v  -9.9666 -4.8900 1.5000
v  -9.9666 -0.5300 -1.5000
v  -9.9666 -0.5300 1.5000
v  -2.1829 -0.5300 -1.5000
v  -2.1829 -0.5300 1.5000
v  -2.1829 0.9900 -1.5000
v  -2.1829 0.9900 1.5000
v  -9.9666 0.9900 -1.5000
v  -9.9666 0.9900 1.5000
v  -9.9666 4.8900 -1.5000
v  -9.9666 4.8900 1.5000
v  -1.6537 4.8900 -1.5000
v  -1.6537 4.8900 1.5000
v  -1.6537 6.4100 -1.5000
v  -1.6537 6.4100 1.5000
v  -11.8408 6.4100 -1.5000
v  -11.8408 6.4100 1.5000
v  -11.8408 -6.4100 -1.5000
v  -11.8408 -6.4100 1.5000
v  1.6978 -6.4100 -1.5000
v  3.2283 -2.5300 -1.5000
v  3.2283 -2.5300 1.5000
v  1.6978 -6.4100 1.5000
v  9.1690 -2.5300 -1.5000
v  9.1690 -2.5300 1.5000
v  10.8045 -6.4100 -1.5000
v  10.8045 -6.4100 1.5000
v  12.9333 -6.4100 -1.5000
v  12.9333 -6.4100 1.5000
v  7.1676 6.4100 -1.5000
v  7.1676 6.4100 1.5000
v  5.1087 6.4100 -1.5000
v  5.1087 6.4100 1.5000
v  -0.2846 -6.4100 -1.5000
v  -0.2846 -6.4100 1.5000
v  5.3133 2.6166 -1.5000
v  6.0968 5.0900 -1.5000
v  6.0968 5.0900 1.5000
v  5.3133 2.6166 1.5000
v  7.1235 2.4091 -1.5000
v  7.1235 2.4091 1.5000
v  8.5805 -1.1500 -1.5000
v  8.5805 -1.1500 1.5000
v  3.7798 -1.1500 -1.5000
v  3.7798 -1.1500 1.5000
v  19.5118 -6.4100 -1.5000
v  21.7783 -6.1914 -1.5000
v  21.7783 -6.1914 1.5000
v  19.5118 -6.4100 1.5000
v  23.4625 -5.5486 -1.5000
v  23.4625 -5.5486 1.5000
v  24.7473 -4.3855 -1.5000
v  24.7473 -4.3855 1.5000
v  25.7097 -2.5184 -1.5000
v  25.7097 -2.5184 1.5000
v  26.0851 0.0700 -1.5000
v  26.0851 0.0700 1.5000
v  25.5318 3.1177 -1.5000
v  25.5318 3.1177 1.5000
v  23.8618 5.3081 -1.5000
v  23.8618 5.3081 1.5000
v  21.7926 6.2262 -1.5000
v  21.7926 6.2262 1.5000
v  19.2810 6.4100 -1.5000
v  19.2810 6.4100 1.5000
v  14.4207 6.4100 -1.5000
v  14.4207 6.4100 1.5000
v  14.4207 -6.4100 -1.5000
v  14.4207 -6.4100 1.5000
v  16.2949 4.8900 -1.5000
v  19.2589 4.8900 -1.5000
v  19.2589 4.8900 1.5000
v  16.2949 4.8900 1.5000
v  21.6744 4.6281 -1.5000
v  21.6744 4.6281 1.5000
v  23.4401 3.1828 -1.5000
v  23.4401 3.1828 1.5000
v  24.1667 0.0959 -1.5000
v  24.1667 0.0959 1.5000
v  23.7962 -2.3708 -1.5000
v  23.7962 -2.3708 1.5000
v  22.7618 -3.9906 -1.5000
v  22.7618 -3.9906 1.5000
v  21.4963 -4.6542 -1.5000
v  21.4963 -4.6542 1.5000
v  19.3071 -4.8900 -1.5000
v  19.3071 -4.8900 1.5000
v  16.2949 -4.8900 -1.5000
v  16.2949 -4.8900 1.5000
# 118 vertices

vn 1.0000 0.0000 -0.0000
vn 0.0000 -1.0000 -0.0000
vn -1.0000 0.0000 -0.0000
vn 0.0000 1.0000 0.0000
vn 0.9416 -0.3369 -0.0000
vn -0.9341 -0.3571 -0.0000
vn 0.9259 0.3777 0.0000
vn -0.9343 0.3565 0.0000
vn 0.9611 -0.2761 -0.0000
vn -0.9446 -0.3281 -0.0000
vn -0.9375 -0.3481 -0.0000
vn 0.9381 -0.3464 -0.0000
vn 0.1057 -0.9944 -0.0000
vn 0.2495 -0.9684 -0.0000
vn 0.5575 -0.8302 -0.0000
vn 0.8186 -0.5744 -0.0000
vn 0.9599 -0.2803 -0.0000
vn 0.9999 0.0162 0.0000
vn 0.9271 0.3747 0.0000
vn 0.6521 0.7581 0.0000
vn 0.2645 0.9644 0.0000
vn 0.0804 0.9968 0.0000
vn -0.1187 -0.9929 -0.0000
vn -0.4137 -0.9104 -0.0000
vn -0.8661 -0.4999 -0.0000
vn -0.9993 -0.0375 -0.0000
vn -0.9460 0.3242 0.0000
vn -0.7068 0.7074 0.0000
vn -0.3157 0.9489 0.0000
vn -0.1179 0.9930 0.0000
vn 0.0000 0.0000 -1.0000
vn 0.0000 -0.0000 1.0000
# 32 vertex normals

g Text001
usemtl wire_255255255
s 1
f 1//1 2//1 3//1 4//1 
s 4
f 2//2 5//2 6//2 3//2 
s 2
f 5//3 7//3 8//3 6//3 
s 4
f 7//2 9//2 10//2 8//2 
s 2
f 9//1 11//1 12//1 10//1 
s 4
f 11//4 13//4 14//4 12//4 
s 2
f 13//3 15//3 16//3 14//3 
s 4
f 15//4 17//4 18//4 16//4 
s 2
f 17//1 19//1 20//1 18//1 
s 4
f 19//4 21//4 22//4 20//4 
s 2
f 21//3 23//3 24//3 22//3 
s 4
f 23//2 1//2 4//2 24//2 
s 1
f 25//1 26//1 27//1 28//1 
s 4
f 26//4 29//4 30//4 27//4 
s 2
f 29//1 31//1 32//1 30//1 
s 4
f 31//2 33//2 34//2 32//2 
s 2
f 33//1 35//1 36//1 34//1 
s 4
f 35//4 37//4 38//4 36//4 
s 2
f 37//1 39//1 40//1 38//1 
s 4
f 39//2 41//2 42//2 40//2 
s 2
f 41//1 43//1 44//1 42//1 
s 4
f 43//4 45//4 46//4 44//4 
s 2
f 45//3 47//3 48//3 46//3 
s 4
f 47//2 25//2 28//2 48//2 
s 1
f 49//5 50//5 51//5 52//5 
s 4
f 50//2 53//2 54//2 51//2 
s 2
f 53//6 55//6 56//6 54//6 
s 4
f 55//2 57//2 58//2 56//2 
s 2
f 57//7 59//7 60//7 58//7 
s 4
f 59//4 61//4 62//4 60//4 
s 2
f 61//8 63//8 64//8 62//8 
s 4
f 63//2 49//2 52//2 64//2 
s 1
f 65//9 66//9 67//9 68//9 
s 4
f 66//10 69//10 70//10 67//10 
s 2
f 69//11 71//11 72//11 70//11 
s 4
f 71//4 73//4 74//4 72//4 
s 2
f 73//12 65//12 68//12 74//12 
s 1
f 75//13 76//14 77//14 78//13 
s 3
f 76//14 79//15 80//15 77//14 
s 2
f 79//15 81//16 82//16 80//15 
f 81//16 83//17 84//17 82//16 
f 83//17 85//18 86//18 84//17 
f 85//18 87//19 88//19 86//18 
f 87//19 89//20 90//20 88//19 
f 89//20 91//21 92//21 90//20 
f 91//21 93//22 94//22 92//21 
s 4
f 93//4 95//4 96//4 94//4 
s 2
f 95//3 97//3 98//3 96//3 
s 4
f 97//2 75//2 78//2 98//2 
s 1
f 99//2 100//2 101//2 102//2 
s 4
f 100//23 103//24 104//24 101//23 
f 103//24 105//25 106//25 104//24 
f 105//25 107//26 108//26 106//25 
f 107//26 109//27 110//27 108//26 
f 109//27 111//28 112//28 110//27 
f 111//28 113//29 114//29 112//28 
f 113//29 115//30 116//30 114//29 
s 2
f 115//4 117//4 118//4 116//4 
s 4
f 117//1 99//1 102//1 118//1 
s 16
f 21//31 2//31 1//31 23//31 
f 17//31 2//31 21//31 19//31 
f 15//31 5//31 2//31 17//31 
f 11//31 9//31 15//31 13//31 
f 9//31 7//31 5//31 15//31 
f 41//31 39//31 45//31 43//31 
f 39//31 37//31 47//31 45//31 
f 33//31 31//31 37//31 35//31 
f 31//31 29//31 47//31 37//31 
f 29//31 26//31 25//31 47//31 
f 66//31 73//31 50//31 49//31 
f 55//31 53//31 59//31 57//31 
f 61//31 66//31 49//31 63//31 
f 59//31 53//31 66//31 61//31 
f 53//31 71//31 69//31 66//31 
f 50//31 73//31 71//31 53//31 
f 66//31 65//31 73//31 
f 75//31 115//31 113//31 111//31 
f 111//31 79//31 76//31 75//31 
f 111//31 109//31 81//31 79//31 
f 109//31 107//31 83//31 81//31 
f 97//31 117//31 115//31 75//31 
f 95//31 99//31 117//31 97//31 
f 93//31 100//31 99//31 95//31 
f 91//31 103//31 100//31 93//31 
f 89//31 105//31 103//31 91//31 
f 87//31 107//31 105//31 89//31 
f 85//31 83//31 107//31 87//31 
f 22//32 24//32 4//32 3//32 
f 18//32 20//32 22//32 3//32 
f 16//32 18//32 3//32 6//32 
f 12//32 14//32 16//32 10//32 
f 10//32 16//32 6//32 8//32 
f 42//32 44//32 46//32 40//32 
f 40//32 46//32 48//32 38//32 
f 34//32 36//32 38//32 32//32 
f 32//32 38//32 48//32 30//32 
f 30//32 48//32 28//32 27//32 
f 67//32 62//32 52//32 51//32 
f 56//32 58//32 60//32 54//32 
f 62//32 64//32 52//32 
f 60//32 62//32 67//32 54//32 
f 54//32 67//32 70//32 72//32 
f 51//32 54//32 72//32 74//32 
f 67//32 51//32 74//32 68//32 
f 78//32 77//32 112//32 114//32 
f 78//32 114//32 116//32 98//32 
f 112//32 77//32 80//32 82//32 
f 110//32 112//32 82//32 84//32 
f 98//32 116//32 118//32 96//32 
f 96//32 118//32 102//32 94//32 
f 94//32 102//32 101//32 92//32 
f 92//32 101//32 104//32 90//32 
f 90//32 104//32 106//32 88//32 
f 88//32 106//32 108//32 86//32 
f 84//32 86//32 108//32 110//32 
# 113 polygons - 2 triangles

