# 3ds Max Wavefront OBJ Exporter v0.97b - (c)2007 guruware
# File Created: 07.05.2017 11:28:26

mtllib torso_dummy.mtl

#
# object Sphere012
#

v  -0.0000 -50.1282 0.0000
v  -0.0000 -46.4188 10.1076
v  -5.0538 -46.4188 8.7534
v  -8.7534 -46.4188 5.0538
v  -10.1076 -46.4188 0.0000
v  -8.7534 -46.4188 -5.0538
v  -5.0538 -46.4188 -8.7534
v  -0.0000 -46.4188 -10.1076
v  5.0538 -46.4188 -8.7534
v  8.7534 -46.4188 -5.0538
v  10.1076 -46.4188 -0.0000
v  8.7534 -46.4188 5.0538
v  5.0538 -46.4188 8.7534
v  -0.0000 -36.2847 17.5069
v  -8.7534 -36.2847 15.1614
v  -15.1614 -36.2847 8.7534
v  -17.5069 -36.2847 0.0000
v  -15.1614 -36.2847 -8.7534
v  -8.7534 -36.2847 -15.1614
v  -0.0000 -36.2847 -17.5069
v  8.7534 -36.2847 -15.1614
v  15.1614 -36.2847 -8.7534
v  17.5069 -36.2847 -0.0000
v  15.1614 -36.2847 8.7534
v  8.7534 -36.2847 15.1614
v  -0.0000 -22.4413 20.2152
v  -10.1076 -22.4413 17.5069
v  -17.5069 -22.4413 10.1076
v  -20.2152 -22.4413 0.0000
v  -17.5069 -22.4413 -10.1076
v  -10.1076 -22.4413 -17.5069
v  -0.0000 -22.4413 -20.2152
v  10.1076 -22.4413 -17.5069
v  17.5068 -22.4413 -10.1076
v  20.2152 -22.4413 -0.0000
v  17.5069 -22.4413 10.1076
v  10.1076 -22.4413 17.5068
v  -0.0000 -8.5979 17.5068
v  -8.7534 -8.5979 15.1614
v  -15.1614 -8.5979 8.7534
v  -17.5069 -8.5979 -0.0000
v  -15.1614 -8.5979 -8.7534
v  -8.7534 -8.5979 -15.1614
v  -0.0000 -8.5979 -17.5069
v  8.7534 -8.5979 -15.1614
v  15.1614 -8.5979 -8.7534
v  17.5069 -8.5979 -0.0000
v  15.1614 -8.5979 8.7534
v  8.7534 -8.5979 15.1614
v  -0.0000 1.5362 10.1076
v  -5.0538 1.5362 8.7534
v  -8.7534 1.5362 5.0538
v  -10.1076 1.5362 -0.0000
v  -8.7534 1.5362 -5.0538
v  -5.0538 1.5362 -8.7534
v  -0.0000 1.5362 -10.1076
v  5.0538 1.5362 -8.7534
v  8.7534 1.5362 -5.0538
v  10.1076 1.5362 -0.0000
v  8.7534 1.5362 5.0538
v  5.0538 1.5362 8.7534
v  -0.0000 5.2456 -0.0000
# 62 vertices

vn 0.0000 -1.0000 0.0000
vn 0.0000 -0.8474 0.5309
vn -0.2654 -0.8474 0.4598
vn -0.4598 -0.8474 0.2655
vn -0.5309 -0.8474 0.0000
vn -0.4598 -0.8474 -0.2654
vn -0.2655 -0.8474 -0.4598
vn -0.0000 -0.8474 -0.5309
vn 0.2654 -0.8474 -0.4598
vn 0.4598 -0.8474 -0.2655
vn 0.5309 -0.8474 -0.0000
vn 0.4598 -0.8474 0.2654
vn 0.2655 -0.8474 0.4598
vn 0.0000 -0.4823 0.8760
vn -0.4380 -0.4823 0.7586
vn -0.7586 -0.4823 0.4380
vn -0.8760 -0.4823 0.0000
vn -0.7586 -0.4823 -0.4380
vn -0.4380 -0.4823 -0.7586
vn -0.0000 -0.4823 -0.8760
vn 0.4380 -0.4823 -0.7586
vn 0.7586 -0.4823 -0.4380
vn 0.8760 -0.4823 -0.0000
vn 0.7586 -0.4823 0.4380
vn 0.4380 -0.4823 0.7586
vn 0.0000 0.0000 1.0000
vn -0.5000 0.0000 0.8660
vn -0.8660 0.0000 0.5000
vn -1.0000 0.0000 0.0000
vn -0.8660 0.0000 -0.5000
vn -0.5000 -0.0000 -0.8660
vn -0.0000 -0.0000 -1.0000
vn 0.5000 -0.0000 -0.8660
vn 0.8660 0.0000 -0.5000
vn 1.0000 0.0000 -0.0000
vn 0.8660 0.0000 0.5000
vn 0.5000 0.0000 0.8660
vn 0.0000 0.4823 0.8760
vn -0.4380 0.4823 0.7586
vn -0.7586 0.4823 0.4380
vn -0.8760 0.4823 0.0000
vn -0.7586 0.4823 -0.4380
vn -0.4380 0.4823 -0.7586
vn -0.0000 0.4823 -0.8760
vn 0.4380 0.4823 -0.7586
vn 0.7586 0.4823 -0.4380
vn 0.8760 0.4823 -0.0000
vn 0.7586 0.4823 0.4380
vn 0.4380 0.4823 0.7586
vn 0.0000 0.8474 0.5309
vn -0.2654 0.8474 0.4598
vn -0.4598 0.8474 0.2654
vn -0.5309 0.8474 -0.0000
vn -0.4598 0.8474 -0.2654
vn -0.2655 0.8474 -0.4598
vn -0.0000 0.8474 -0.5309
vn 0.2654 0.8474 -0.4598
vn 0.4598 0.8474 -0.2655
vn 0.5309 0.8474 -0.0000
vn 0.4598 0.8474 0.2654
vn 0.2655 0.8474 0.4598
vn 0.0000 1.0000 -0.0000
# 62 vertex normals

vt 0.0000 15.3870 0.0000
vt 0.0000 12.8225 0.0000
vt 2.5645 12.8225 0.0000
vt 2.5645 15.3870 0.0000
vt 5.1290 12.8225 0.0000
vt 5.1290 15.3870 0.0000
vt 7.6935 12.8225 0.0000
vt 7.6935 15.3870 0.0000
vt 10.2580 12.8225 0.0000
vt 10.2580 15.3870 0.0000
vt 12.8225 12.8225 0.0000
vt 12.8225 15.3870 0.0000
vt 15.3870 12.8225 0.0000
vt 15.3870 15.3870 0.0000
vt 17.9515 12.8225 0.0000
vt 17.9515 15.3870 0.0000
vt 20.5160 12.8225 0.0000
vt 20.5160 15.3870 0.0000
vt 23.0805 12.8225 0.0000
vt 23.0805 15.3870 0.0000
vt 25.6450 12.8225 0.0000
vt 25.6450 15.3870 0.0000
vt 28.2095 12.8225 0.0000
vt 28.2095 15.3870 0.0000
vt 30.7740 12.8225 0.0000
vt 0.0000 10.2580 0.0000
vt 2.5645 10.2580 0.0000
vt 5.1290 10.2580 0.0000
vt 7.6935 10.2580 0.0000
vt 10.2580 10.2580 0.0000
vt 12.8225 10.2580 0.0000
vt 15.3870 10.2580 0.0000
vt 17.9515 10.2580 0.0000
vt 20.5160 10.2580 0.0000
vt 23.0805 10.2580 0.0000
vt 25.6450 10.2580 0.0000
vt 28.2095 10.2580 0.0000
vt 30.7740 10.2580 0.0000
vt 0.0000 7.6935 0.0000
vt 2.5645 7.6935 0.0000
vt 5.1290 7.6935 0.0000
vt 7.6935 7.6935 0.0000
vt 10.2580 7.6935 0.0000
vt 12.8225 7.6935 0.0000
vt 15.3870 7.6935 0.0000
vt 17.9515 7.6935 0.0000
vt 20.5160 7.6935 0.0000
vt 23.0805 7.6935 0.0000
vt 25.6450 7.6935 0.0000
vt 28.2095 7.6935 0.0000
vt 30.7740 7.6935 0.0000
vt 0.0000 5.1290 0.0000
vt 2.5645 5.1290 0.0000
vt 5.1290 5.1290 0.0000
vt 7.6935 5.1290 0.0000
vt 10.2580 5.1290 0.0000
vt 12.8225 5.1290 0.0000
vt 15.3870 5.1290 0.0000
vt 17.9515 5.1290 0.0000
vt 20.5160 5.1290 0.0000
vt 23.0805 5.1290 0.0000
vt 25.6450 5.1290 0.0000
vt 28.2095 5.1290 0.0000
vt 30.7740 5.1290 0.0000
vt 0.0000 2.5645 0.0000
vt 2.5645 2.5645 0.0000
vt 5.1290 2.5645 0.0000
vt 7.6935 2.5645 0.0000
vt 10.2580 2.5645 0.0000
vt 12.8225 2.5645 0.0000
vt 15.3870 2.5645 0.0000
vt 17.9515 2.5645 0.0000
vt 20.5160 2.5645 0.0000
vt 23.0805 2.5645 0.0000
vt 25.6450 2.5645 0.0000
vt 28.2095 2.5645 0.0000
vt 30.7740 2.5645 0.0000
vt 0.0000 0.0000 0.0000
vt 2.5645 0.0000 0.0000
vt 5.1290 0.0000 0.0000
vt 7.6935 0.0000 0.0000
vt 10.2580 0.0000 0.0000
vt 12.8225 0.0000 0.0000
vt 15.3870 0.0000 0.0000
vt 17.9515 0.0000 0.0000
vt 20.5160 0.0000 0.0000
vt 23.0805 0.0000 0.0000
vt 25.6450 0.0000 0.0000
vt 28.2095 0.0000 0.0000
# 89 texture coords

g Sphere012
usemtl dummies
s 1
f 1/1/1 2/2/2 3/3/3 
f 1/4/1 3/3/3 4/5/4 
f 1/6/1 4/5/4 5/7/5 
f 1/8/1 5/7/5 6/9/6 
f 1/10/1 6/9/6 7/11/7 
f 1/12/1 7/11/7 8/13/8 
f 1/14/1 8/13/8 9/15/9 
f 1/16/1 9/15/9 10/17/10 
f 1/18/1 10/17/10 11/19/11 
f 1/20/1 11/19/11 12/21/12 
f 1/22/1 12/21/12 13/23/13 
f 1/24/1 13/23/13 2/25/2 
f 2/2/2 14/26/14 15/27/15 3/3/3 
f 3/3/3 15/27/15 16/28/16 4/5/4 
f 4/5/4 16/28/16 17/29/17 5/7/5 
f 5/7/5 17/29/17 18/30/18 6/9/6 
f 6/9/6 18/30/18 19/31/19 7/11/7 
f 7/11/7 19/31/19 20/32/20 8/13/8 
f 8/13/8 20/32/20 21/33/21 9/15/9 
f 9/15/9 21/33/21 22/34/22 10/17/10 
f 10/17/10 22/34/22 23/35/23 11/19/11 
f 11/19/11 23/35/23 24/36/24 12/21/12 
f 12/21/12 24/36/24 25/37/25 13/23/13 
f 13/23/13 25/37/25 14/38/14 2/25/2 
f 14/26/14 26/39/26 27/40/27 15/27/15 
f 15/27/15 27/40/27 28/41/28 16/28/16 
f 16/28/16 28/41/28 29/42/29 17/29/17 
f 17/29/17 29/42/29 30/43/30 18/30/18 
f 18/30/18 30/43/30 31/44/31 19/31/19 
f 19/31/19 31/44/31 32/45/32 20/32/20 
f 20/32/20 32/45/32 33/46/33 21/33/21 
f 21/33/21 33/46/33 34/47/34 22/34/22 
f 22/34/22 34/47/34 35/48/35 23/35/23 
f 23/35/23 35/48/35 36/49/36 24/36/24 
f 24/36/24 36/49/36 37/50/37 25/37/25 
f 25/37/25 37/50/37 26/51/26 14/38/14 
f 26/39/26 38/52/38 39/53/39 27/40/27 
f 27/40/27 39/53/39 40/54/40 28/41/28 
f 28/41/28 40/54/40 41/55/41 29/42/29 
f 29/42/29 41/55/41 42/56/42 30/43/30 
f 30/43/30 42/56/42 43/57/43 31/44/31 
f 31/44/31 43/57/43 44/58/44 32/45/32 
f 32/45/32 44/58/44 45/59/45 33/46/33 
f 33/46/33 45/59/45 46/60/46 34/47/34 
f 34/47/34 46/60/46 47/61/47 35/48/35 
f 35/48/35 47/61/47 48/62/48 36/49/36 
f 36/49/36 48/62/48 49/63/49 37/50/37 
f 37/50/37 49/63/49 38/64/38 26/51/26 
f 38/52/38 50/65/50 51/66/51 39/53/39 
f 39/53/39 51/66/51 52/67/52 40/54/40 
f 40/54/40 52/67/52 53/68/53 41/55/41 
f 41/55/41 53/68/53 54/69/54 42/56/42 
f 42/56/42 54/69/54 55/70/55 43/57/43 
f 43/57/43 55/70/55 56/71/56 44/58/44 
f 44/58/44 56/71/56 57/72/57 45/59/45 
f 45/59/45 57/72/57 58/73/58 46/60/46 
f 46/60/46 58/73/58 59/74/59 47/61/47 
f 47/61/47 59/74/59 60/75/60 48/62/48 
f 48/62/48 60/75/60 61/76/61 49/63/49 
f 49/63/49 61/76/61 50/77/50 38/64/38 
f 62/78/62 51/66/51 50/65/50 
f 62/79/62 52/67/52 51/66/51 
f 62/80/62 53/68/53 52/67/52 
f 62/81/62 54/69/54 53/68/53 
f 62/82/62 55/70/55 54/69/54 
f 62/83/62 56/71/56 55/70/55 
f 62/84/62 57/72/57 56/71/56 
f 62/85/62 58/73/58 57/72/57 
f 62/86/62 59/74/59 58/73/58 
f 62/87/62 60/75/60 59/74/59 
f 62/88/62 61/76/61 60/75/60 
f 62/89/62 50/77/50 61/76/61 
# 48 polygons - 24 triangles

