# 3ds Max Wavefront OBJ Exporter v0.97b - (c)2007 guruware
# File Created: 21.04.2017 09:11:09

mtllib trashcan.mtl

#
# object Text005
#

v  -1.9113 -3.2050 -0.5000
v  0.0084 -0.5314 -0.5000
v  0.0084 -0.5314 0.5000
v  -1.9113 -3.2050 0.5000
v  1.8900 -3.2050 -0.5000
v  1.8900 -3.2050 0.5000
v  2.9300 -3.2050 0.5000
v  2.9300 -3.2050 -0.5000
v  0.5314 0.1542 0.5000
v  0.5314 0.1542 -0.5000
v  2.7500 3.2050 0.5000
v  2.7500 3.2050 -0.5000
v  1.8180 3.2050 0.5000
v  1.8180 3.2050 -0.5000
v  0.0395 0.7872 -0.5000
v  0.0395 0.7872 0.5000
v  -1.6469 3.2050 -0.5000
v  -1.6469 3.2050 0.5000
v  -2.6500 3.2050 0.5000
v  -2.6500 3.2050 -0.5000
v  -0.4661 0.1214 0.5000
v  -0.4661 0.1214 -0.5000
v  -2.9300 -3.2050 0.5000
v  -2.9300 -3.2050 -0.5000
# 24 vertices

vn 0.4565 -0.8897 -0.0000
vn -0.0047 -1.0000 -0.0000
vn -0.4607 -0.8876 -0.0000
vn 0.0000 -1.0000 -0.0000
vn 0.8138 0.5811 0.0000
vn 0.8088 -0.5881 -0.0000
vn -0.4514 0.8923 0.0000
vn 0.0000 1.0000 0.0000
vn 0.0126 0.9999 0.0000
vn 0.4626 0.8866 0.0000
vn -0.8161 -0.5780 -0.0000
vn -0.8036 0.5952 0.0000
vn 0.0000 0.0000 -1.0000
vn 0.0000 -0.0000 1.0000
# 14 vertex normals

g Text005
usemtl trashx
s 5
f 1//1 2//2 3//2 4//1 
s 6
f 2//2 5//3 6//3 3//2 
s 2
f 7//4 6//3 5//3 8//4 
s 4
f 9//5 7//5 8//5 10//5 
s 2
f 11//6 9//6 10//6 12//6 
s 4
f 13//7 11//8 12//8 14//7 
s 6
f 14//7 15//9 16//9 13//7 
f 15//9 17//10 18//10 16//9 
s 2
f 19//8 18//10 17//10 20//8 
s 4
f 21//11 19//11 20//11 22//11 
s 2
f 23//12 21//12 22//12 24//12 
s 4
f 4//1 23//4 24//4 1//1 
s 16
f 1//13 24//13 22//13 2//13 
f 22//13 20//13 17//13 15//13 
f 14//13 12//13 10//13 15//13 
f 22//13 15//13 10//13 2//13 
f 5//13 2//13 10//13 8//13 
f 6//14 7//14 9//14 3//14 
f 9//14 11//14 13//14 16//14 
f 18//14 19//14 21//14 16//14 
f 9//14 16//14 21//14 3//14 
f 21//14 23//14 4//14 3//14 
# 22 polygons

