# 3ds Max Wavefront OBJ Exporter v0.97b - (c)2007 guruware
# File Created: 19.04.2016 18:40:31

mtllib fuseOn.mtl

#
# object Object001
#

v  46.3045 103.7699 2.2500
v  24.7734 82.6325 2.2500
v  24.7734 82.6325 -2.2500
v  46.3045 103.7699 -2.2500
v  16.3542 100.1151 2.2500
v  16.3542 100.1151 -2.2500
v  13.2527 130.1278 2.2500
v  13.2527 130.1278 -2.2500
v  -2.5636 104.4330 2.2500
v  -2.5636 104.4330 -2.2500
v  -27.9622 120.7208 2.2500
v  -27.9622 120.7208 -2.2500
v  -17.7345 92.3346 2.2500
v  -17.7344 92.3346 -2.2500
v  -46.3045 82.6325 2.2500
v  -46.3045 82.6325 -2.2500
v  -17.7345 72.9304 2.2500
v  -17.7344 72.9304 -2.2500
v  -27.9621 44.5442 2.2500
v  -27.9621 44.5442 -2.2500
v  -2.5636 60.8320 2.2500
v  -2.5636 60.8320 -2.2500
v  13.2528 35.1372 2.2500
v  13.2528 35.1372 -2.2500
v  16.3542 65.1498 2.2500
v  16.3542 65.1498 -2.2500
v  46.3045 61.4951 2.2500
v  46.3045 61.4951 -2.2500
v  -0.2522 70.9589 -4.0508
v  -13.8525 62.2372 -4.0508
v  -8.3758 77.4372 -4.0508
v  -23.6743 82.6325 -4.0508
v  -8.3758 87.8277 -4.0508
v  -13.8525 103.0278 -4.0508
v  -0.2522 94.3061 -4.0508
v  8.2170 108.0650 -4.0508
v  9.8778 91.9940 -4.0508
v  25.9154 93.9510 -4.0508
v  14.3860 82.6325 -4.0508
v  25.9154 71.3140 -4.0508
v  9.8778 73.2710 -4.0508
v  8.2171 57.2000 -4.0508
v  -0.2522 70.9589 4.0508
v  8.2170 57.2000 4.0508
v  9.8778 73.2710 4.0508
v  25.9154 71.3140 4.0508
v  14.3860 82.6325 4.0508
v  25.9154 93.9510 4.0508
v  9.8778 91.9940 4.0508
v  8.2170 108.0650 4.0508
v  -0.2522 94.3061 4.0508
v  -13.8525 103.0278 4.0508
v  -8.3758 87.8277 4.0508
v  -23.6743 82.6325 4.0508
v  -8.3758 77.4372 4.0508
v  -13.8525 62.2372 4.0508
v  22.2480 82.6325 -4.0508
v  41.3476 101.3828 -4.0508
v  41.3476 63.8822 -4.0508
v  14.7797 67.1242 -4.0508
v  12.0285 40.5010 -4.0508
v  -2.0016 63.2940 -4.0508
v  -24.5318 48.8457 -4.0509
v  -15.4592 74.0261 -4.0508
v  -40.8027 82.6325 -4.0509
v  -15.4592 91.2389 -4.0508
v  -24.5319 116.4193 -4.0508
v  -2.0016 101.9710 -4.0508
v  12.0285 124.7640 -4.0508
v  14.7797 98.1407 -4.0508
v  41.3476 101.3827 4.0509
v  22.2480 82.6325 4.0508
v  14.7797 98.1407 4.0508
v  12.0285 124.7640 4.0508
v  -2.0016 101.9710 4.0508
v  -24.5319 116.4193 4.0508
v  -15.4592 91.2389 4.0508
v  -40.8027 82.6325 4.0508
v  -15.4592 74.0261 4.0508
v  -24.5318 48.8457 4.0508
v  -2.0016 63.2940 4.0508
v  12.0285 40.5010 4.0508
v  14.7797 67.1242 4.0508
v  41.3476 63.8822 4.0509
# 84 vertices

vn 0.6910 -0.7038 0.1648
vn 0.6291 -0.6408 0.4400
vn 0.6291 -0.6408 -0.4400
vn 0.6910 -0.7038 -0.1648
vn -0.1088 0.8914 0.4400
vn -0.1195 0.9791 0.1648
vn -0.1195 0.9791 -0.1648
vn -0.1088 0.8914 -0.4400
vn 0.9811 0.1014 0.1648
vn 0.8933 0.0923 0.4400
vn 0.8933 0.0923 -0.4400
vn 0.9811 0.1014 -0.1648
vn -0.7647 0.4707 0.4400
vn -0.8400 0.5170 0.1648
vn -0.8400 0.5170 -0.1648
vn -0.7647 0.4707 -0.4400
vn 0.5324 0.8303 0.1648
vn 0.4848 0.7559 0.4400
vn 0.4848 0.7559 -0.4400
vn 0.5324 0.8303 -0.1648
vn -0.8448 -0.3044 0.4400
vn -0.9279 -0.3343 0.1648
vn -0.9279 -0.3343 -0.1648
vn -0.8448 -0.3044 -0.4400
vn -0.3172 0.9339 0.1648
vn -0.2888 0.8503 0.4400
vn -0.2888 0.8503 -0.4400
vn -0.3172 0.9339 -0.1648
vn -0.2888 -0.8503 0.4400
vn -0.3172 -0.9339 0.1648
vn -0.3172 -0.9339 -0.1648
vn -0.2888 -0.8503 -0.4400
vn -0.9279 0.3343 0.1648
vn -0.8448 0.3044 0.4400
vn -0.8448 0.3044 -0.4400
vn -0.9279 0.3343 -0.1648
vn 0.4848 -0.7559 0.4400
vn 0.5324 -0.8303 0.1648
vn 0.5324 -0.8303 -0.1648
vn 0.4848 -0.7559 -0.4400
vn -0.8400 -0.5170 0.1648
vn -0.7647 -0.4707 0.4400
vn -0.7647 -0.4707 -0.4400
vn -0.8400 -0.5170 -0.1648
vn 0.8933 -0.0923 0.4400
vn 0.9811 -0.1014 0.1648
vn 0.9811 -0.1014 -0.1648
vn 0.8933 -0.0923 -0.4400
vn -0.1195 -0.9791 0.1648
vn -0.1088 -0.8914 0.4400
vn -0.1088 -0.8914 -0.4400
vn -0.1195 -0.9791 -0.1648
vn 0.6291 0.6408 0.4400
vn 0.6910 0.7038 0.1648
vn 0.6910 0.7038 -0.1648
vn 0.6291 0.6408 -0.4400
vn 0.0000 0.0000 -1.0000
vn -0.0000 -0.0000 1.0000
vn 0.4997 -0.5091 -0.7008
vn 0.4997 0.5091 -0.7008
vn -0.0864 -0.7081 -0.7008
vn 0.7096 -0.0733 -0.7008
vn -0.6075 -0.3739 -0.7008
vn 0.3851 -0.6005 -0.7008
vn -0.6711 0.2418 -0.7008
vn -0.2294 -0.6755 -0.7008
vn -0.2294 0.6755 -0.7008
vn -0.6711 -0.2418 -0.7008
vn 0.3851 0.6005 -0.7008
vn -0.6075 0.3739 -0.7008
vn 0.7096 0.0733 -0.7008
vn -0.0864 0.7081 -0.7008
vn 0.4997 -0.5091 0.7008
vn -0.0864 0.7081 0.7008
vn 0.7096 0.0733 0.7008
vn -0.6075 0.3739 0.7008
vn 0.3851 0.6005 0.7008
vn -0.6711 -0.2418 0.7008
vn -0.2294 0.6755 0.7008
vn -0.2294 -0.6755 0.7008
vn -0.6711 0.2418 0.7008
vn 0.3851 -0.6005 0.7008
vn -0.6075 -0.3739 0.7008
vn 0.7096 -0.0733 0.7008
vn -0.0864 -0.7081 0.7008
vn 0.4997 0.5091 0.7008
# 86 vertex normals

vt 0.7721 0.2823 0.0000
vt 0.6917 0.2823 0.0000
vt 0.6917 0.2655 0.0000
vt 0.7721 0.2655 0.0000
vt 0.7744 0.3837 0.0000
vt 0.8692 0.3837 0.0000
vt 0.8692 0.3979 0.0000
vt 0.7744 0.3979 0.0000
vt 0.7742 0.4092 0.0000
vt 0.8692 0.4092 0.0000
vt 0.8692 0.4234 0.0000
vt 0.7742 0.4234 0.0000
vt 0.7690 0.3072 0.0000
vt 0.6812 0.3072 0.0000
vt 0.6812 0.2918 0.0000
vt 0.7690 0.2918 0.0000
vt 0.6795 0.3830 0.0000
vt 0.7668 0.3830 0.0000
vt 0.7668 0.3985 0.0000
vt 0.6795 0.3985 0.0000
vt 0.8705 0.2813 0.0000
vt 0.7782 0.2813 0.0000
vt 0.7782 0.2666 0.0000
vt 0.8705 0.2666 0.0000
vt 0.7777 0.3378 0.0000
vt 0.8704 0.3378 0.0000
vt 0.8704 0.3524 0.0000
vt 0.7777 0.3524 0.0000
vt 0.8704 0.3296 0.0000
vt 0.7777 0.3296 0.0000
vt 0.7777 0.3150 0.0000
vt 0.8704 0.3150 0.0000
vt 0.8705 0.3068 0.0000
vt 0.7782 0.3068 0.0000
vt 0.7782 0.2922 0.0000
vt 0.8705 0.2922 0.0000
vt 0.7639 0.4240 0.0000
vt 0.6766 0.4240 0.0000
vt 0.6766 0.4086 0.0000
vt 0.7639 0.4086 0.0000
vt 0.7637 0.4495 0.0000
vt 0.6759 0.4495 0.0000
vt 0.6759 0.4341 0.0000
vt 0.7637 0.4341 0.0000
vt 0.7742 0.4347 0.0000
vt 0.8692 0.4347 0.0000
vt 0.8692 0.4490 0.0000
vt 0.7742 0.4490 0.0000
vt 0.8692 0.3751 0.0000
vt 0.7744 0.3751 0.0000
vt 0.7744 0.3608 0.0000
vt 0.8692 0.3608 0.0000
vt 0.6893 0.3595 0.0000
vt 0.7697 0.3595 0.0000
vt 0.7697 0.3764 0.0000
vt 0.6893 0.3764 0.0000
vt 0.8974 0.7820 0.0000
vt 0.8545 0.8095 0.0000
vt 0.8718 0.7615 0.0000
vt 0.8236 0.7451 0.0000
vt 0.8718 0.7288 0.0000
vt 0.8545 0.6808 0.0000
vt 0.8974 0.7083 0.0000
vt 0.9242 0.6649 0.0000
vt 0.9294 0.7156 0.0000
vt 0.9800 0.7094 0.0000
vt 0.9436 0.7451 0.0000
vt 0.9800 0.7809 0.0000
vt 0.9294 0.7747 0.0000
vt 0.9242 0.8254 0.0000
vt 0.7253 0.7820 0.0000
vt 0.6986 0.8254 0.0000
vt 0.6933 0.7747 0.0000
vt 0.6428 0.7809 0.0000
vt 0.6791 0.7451 0.0000
vt 0.6428 0.7094 0.0000
vt 0.6933 0.7156 0.0000
vt 0.6986 0.6649 0.0000
vt 0.7253 0.7083 0.0000
vt 0.7682 0.6808 0.0000
vt 0.7509 0.7288 0.0000
vt 0.7992 0.7451 0.0000
vt 0.7509 0.7615 0.0000
vt 0.7682 0.8095 0.0000
vt 0.2581 0.0666 0.0000
vt 0.3533 0.0673 0.0000
vt 0.3589 0.0753 0.0000
vt 0.2745 0.0747 0.0000
vt 0.6182 0.2194 0.0000
vt 0.5231 0.2163 0.0000
vt 0.5397 0.2089 0.0000
vt 0.6241 0.2116 0.0000
vt 0.1382 0.4538 0.0000
vt 0.0259 0.4538 0.0000
vt 0.0200 0.4471 0.0000
vt 0.1196 0.4471 0.0000
vt 0.5289 0.0746 0.0000
vt 0.6241 0.0742 0.0000
vt 0.6077 0.0822 0.0000
vt 0.5233 0.0826 0.0000
vt 0.3947 0.0570 0.0000
vt 0.4899 0.0584 0.0000
vt 0.4955 0.0664 0.0000
vt 0.4111 0.0652 0.0000
vt 0.6186 0.1148 0.0000
vt 0.5234 0.1160 0.0000
vt 0.5397 0.1079 0.0000
vt 0.6241 0.1068 0.0000
vt 0.1374 0.2445 0.0000
vt 0.2326 0.2462 0.0000
vt 0.2381 0.2542 0.0000
vt 0.1537 0.2527 0.0000
vt 0.2329 0.2186 0.0000
vt 0.1377 0.2194 0.0000
vt 0.1541 0.2113 0.0000
vt 0.2385 0.2106 0.0000
vt 0.3944 0.2467 0.0000
vt 0.4895 0.2440 0.0000
vt 0.4954 0.2518 0.0000
vt 0.4110 0.2542 0.0000
vt 0.4896 0.1083 0.0000
vt 0.3945 0.1062 0.0000
vt 0.4111 0.0986 0.0000
vt 0.4955 0.1004 0.0000
vt 0.3944 0.2118 0.0000
vt 0.4896 0.2095 0.0000
vt 0.4954 0.2173 0.0000
vt 0.4110 0.2194 0.0000
vt 0.4896 0.1847 0.0000
vt 0.3944 0.1823 0.0000
vt 0.4110 0.1748 0.0000
vt 0.4955 0.1768 0.0000
vt 0.1800 0.3283 0.0000
vt 0.0848 0.3314 0.0000
vt 0.0789 0.3237 0.0000
vt 0.1633 0.3209 0.0000
vt 0.0259 0.6101 0.0000
vt 0.1382 0.6101 0.0000
vt 0.1196 0.6169 0.0000
vt 0.0200 0.6169 0.0000
vt 0.1061 0.2824 0.0000
vt 0.2012 0.2854 0.0000
vt 0.1845 0.2928 0.0000
vt 0.1002 0.2901 0.0000
vt 0.1382 0.5962 0.0000
vt 0.0259 0.5962 0.0000
vt 0.0200 0.5895 0.0000
vt 0.1196 0.5895 0.0000
vt 0.2328 0.1843 0.0000
vt 0.1376 0.1847 0.0000
vt 0.1540 0.1766 0.0000
vt 0.2385 0.1763 0.0000
vt 0.3589 0.1501 0.0000
vt 0.2637 0.1487 0.0000
vt 0.2582 0.1407 0.0000
vt 0.3426 0.1419 0.0000
vt 0.2716 0.1766 0.0000
vt 0.3668 0.1754 0.0000
vt 0.3505 0.1836 0.0000
vt 0.2661 0.1847 0.0000
vt 0.3668 0.2194 0.0000
vt 0.2716 0.2177 0.0000
vt 0.2661 0.2097 0.0000
vt 0.3505 0.2111 0.0000
vt 0.2637 0.1003 0.0000
vt 0.3589 0.0995 0.0000
vt 0.3425 0.1076 0.0000
vt 0.2581 0.1083 0.0000
vt 0.6241 0.1819 0.0000
vt 0.5290 0.1846 0.0000
vt 0.5231 0.1769 0.0000
vt 0.6075 0.1744 0.0000
vt 0.4003 0.1405 0.0000
vt 0.4955 0.1425 0.0000
vt 0.4789 0.1501 0.0000
vt 0.3945 0.1483 0.0000
vt 0.3668 0.2519 0.0000
vt 0.2716 0.2542 0.0000
vt 0.2657 0.2464 0.0000
vt 0.3501 0.2443 0.0000
vt 0.5290 0.1403 0.0000
vt 0.6241 0.1426 0.0000
vt 0.6075 0.1501 0.0000
vt 0.5231 0.1481 0.0000
vt 0.5230 0.2468 0.0000
vt 0.6182 0.2437 0.0000
vt 0.6241 0.2514 0.0000
vt 0.5397 0.2542 0.0000
vt 0.0259 0.4677 0.0000
vt 0.1382 0.4677 0.0000
vt 0.1196 0.4745 0.0000
vt 0.0200 0.4745 0.0000
vt 0.2226 0.1502 0.0000
vt 0.1274 0.1495 0.0000
vt 0.1218 0.1415 0.0000
vt 0.2062 0.1421 0.0000
vt 0.5787 0.7387 0.0000
vt 0.5184 0.7978 0.0000
vt 0.4936 0.7978 0.0000
vt 0.5300 0.7621 0.0000
vt 0.5787 0.8570 0.0000
vt 0.5300 0.8335 0.0000
vt 0.4949 0.8468 0.0000
vt 0.4794 0.8274 0.0000
vt 0.4862 0.9307 0.0000
vt 0.4742 0.8781 0.0000
vt 0.4419 0.8588 0.0000
vt 0.4474 0.8347 0.0000
vt 0.3708 0.9044 0.0000
vt 0.4045 0.8622 0.0000
vt 0.3995 0.8250 0.0000
vt 0.4218 0.8142 0.0000
vt 0.3195 0.7978 0.0000
vt 0.3736 0.7978 0.0000
vt 0.3995 0.7707 0.0000
vt 0.4218 0.7814 0.0000
vt 0.3708 0.6912 0.0000
vt 0.4045 0.7335 0.0000
vt 0.4419 0.7368 0.0000
vt 0.4474 0.7610 0.0000
vt 0.4862 0.6649 0.0000
vt 0.4742 0.7176 0.0000
vt 0.4949 0.7489 0.0000
vt 0.4794 0.7683 0.0000
vt 0.0803 0.7978 0.0000
vt 0.0200 0.7387 0.0000
vt 0.0687 0.7621 0.0000
vt 0.1051 0.7978 0.0000
vt 0.1038 0.7489 0.0000
vt 0.1193 0.7683 0.0000
vt 0.1125 0.6649 0.0000
vt 0.1245 0.7176 0.0000
vt 0.1568 0.7368 0.0000
vt 0.1512 0.7610 0.0000
vt 0.2278 0.6912 0.0000
vt 0.1941 0.7335 0.0000
vt 0.1992 0.7707 0.0000
vt 0.1769 0.7814 0.0000
vt 0.2792 0.7978 0.0000
vt 0.2251 0.7978 0.0000
vt 0.1992 0.8250 0.0000
vt 0.1769 0.8142 0.0000
vt 0.2278 0.9044 0.0000
vt 0.1941 0.8622 0.0000
vt 0.1568 0.8588 0.0000
vt 0.1512 0.8347 0.0000
vt 0.1125 0.9307 0.0000
vt 0.1245 0.8781 0.0000
vt 0.1038 0.8468 0.0000
vt 0.1193 0.8274 0.0000
vt 0.0200 0.8570 0.0000
vt 0.0687 0.8335 0.0000
# 252 texture coords

g Object001
usemtl wire_006135058
s 1
f 1/1/1 2/2/2 3/3/3 
f 3/3/3 4/4/4 1/1/1 
s 2
f 5/5/5 1/6/6 4/7/7 
f 4/7/7 6/8/8 5/5/5 
s 1
f 7/9/9 5/10/10 6/11/11 
f 6/11/11 8/12/12 7/9/9 
s 2
f 9/13/13 7/14/14 8/15/15 
f 8/15/15 10/16/16 9/13/13 
s 1
f 11/17/17 9/18/18 10/19/19 
f 10/19/19 12/20/20 11/17/17 
s 2
f 13/21/21 11/22/22 12/23/23 
f 12/23/23 14/24/24 13/21/21 
s 1
f 15/25/25 13/26/26 14/27/27 
f 14/27/27 16/28/28 15/25/25 
s 2
f 17/29/29 15/30/30 16/31/31 
f 16/31/31 18/32/32 17/29/29 
s 1
f 19/33/33 17/34/34 18/35/35 
f 18/35/35 20/36/36 19/33/33 
s 2
f 21/37/37 19/38/38 20/39/39 
f 20/39/39 22/40/40 21/37/37 
s 1
f 23/41/41 21/42/42 22/43/43 
f 22/43/43 24/44/44 23/41/41 
s 2
f 25/45/45 23/46/46 24/47/47 
f 24/47/47 26/48/48 25/45/45 
s 1
f 27/49/49 25/50/50 26/51/51 
f 26/51/51 28/52/52 27/49/49 
s 2
f 2/53/53 27/54/54 28/55/55 
f 28/55/55 3/56/56 2/53/53 
s 4
f 29/57/57 30/58/57 31/59/57 
f 31/59/57 32/60/57 33/61/57 
f 33/61/57 34/62/57 35/63/57 
f 35/63/57 36/64/57 37/65/57 
f 37/65/57 38/66/57 39/67/57 
f 39/67/57 40/68/57 41/69/57 
f 37/65/57 39/67/57 41/69/57 
f 35/63/57 37/65/57 41/69/57 
f 33/61/57 35/63/57 41/69/57 
f 31/59/57 33/61/57 41/69/57 
f 29/57/57 31/59/57 41/69/57 
f 29/57/57 41/69/57 42/70/57 
f 43/71/58 44/72/58 45/73/58 
f 45/73/58 46/74/58 47/75/58 
f 47/75/58 48/76/58 49/77/58 
f 45/73/58 47/75/58 49/77/58 
f 49/77/58 50/78/58 51/79/58 
f 45/73/58 49/77/58 51/79/58 
f 51/79/58 52/80/58 53/81/58 
f 45/73/58 51/79/58 53/81/58 
f 53/81/58 54/82/58 55/83/58 
f 45/73/58 53/81/58 55/83/58 
f 43/71/58 45/73/58 55/83/58 
f 43/71/58 55/83/58 56/84/58 
s 1
f 4/85/4 3/86/3 57/87/59 
f 57/87/59 58/88/59 4/85/4 
s 2
f 3/89/56 28/90/55 59/91/60 
f 59/91/60 57/92/60 3/89/56 
s 1
f 28/93/52 26/94/51 60/95/61 
f 60/95/61 59/96/61 28/93/52 
s 2
f 26/97/48 24/98/47 61/99/62 
f 61/99/62 60/100/62 26/97/48 
s 1
f 24/101/44 22/102/43 62/103/63 
f 62/103/63 61/104/63 24/101/44 
s 2
f 22/105/40 20/106/39 63/107/64 
f 63/107/64 62/108/64 22/105/40 
s 1
f 20/109/36 18/110/35 64/111/65 
f 64/111/65 63/112/65 20/109/36 
s 2
f 18/113/32 16/114/31 65/115/66 
f 65/115/66 64/116/66 18/113/32 
s 1
f 16/117/28 14/118/27 66/119/67 
f 66/119/67 65/120/67 16/117/28 
s 2
f 14/121/24 12/122/23 67/123/68 
f 67/123/68 66/124/68 14/121/24 
s 1
f 12/125/20 10/126/19 68/127/69 
f 68/127/69 67/128/69 12/125/20 
s 2
f 10/129/16 8/130/15 69/131/70 
f 69/131/70 68/132/70 10/129/16 
s 1
f 8/133/12 6/134/11 70/135/71 
f 70/135/71 69/136/71 8/133/12 
s 2
f 6/137/8 4/138/7 58/139/72 
f 58/139/72 70/140/72 6/137/8 
s 1
f 2/141/2 1/142/1 71/143/73 
f 71/143/73 72/144/73 2/141/2 
s 2
f 1/145/6 5/146/5 73/147/74 
f 73/147/74 71/148/74 1/145/6 
s 1
f 5/149/10 7/150/9 74/151/75 
f 74/151/75 73/152/75 5/149/10 
s 2
f 7/153/14 9/154/13 75/155/76 
f 75/155/76 74/156/76 7/153/14 
s 1
f 9/157/18 11/158/17 76/159/77 
f 76/159/77 75/160/77 9/157/18 
s 2
f 11/161/22 13/162/21 77/163/78 
f 77/163/78 76/164/78 11/161/22 
s 1
f 13/165/26 15/166/25 78/167/79 
f 78/167/79 77/168/79 13/165/26 
s 2
f 15/169/30 17/170/29 79/171/80 
f 79/171/80 78/172/80 15/169/30 
s 1
f 17/173/34 19/174/33 80/175/81 
f 80/175/81 79/176/81 17/173/34 
s 2
f 19/177/38 21/178/37 81/179/82 
f 81/179/82 80/180/82 19/177/38 
s 1
f 21/181/42 23/182/41 82/183/83 
f 82/183/83 81/184/83 21/181/42 
s 2
f 23/185/46 25/186/45 83/187/84 
f 83/187/84 82/188/84 23/185/46 
s 1
f 25/189/50 27/190/49 84/191/85 
f 84/191/85 83/192/85 25/189/50 
s 2
f 27/193/54 2/194/53 72/195/86 
f 72/195/86 84/196/86 27/193/54 
s 4
f 58/197/57 57/198/57 39/199/57 
f 39/199/57 38/200/57 58/197/57 
f 57/198/57 59/201/57 40/202/57 
f 40/202/57 39/199/57 57/198/57 
f 59/201/57 60/203/57 41/204/57 
f 41/204/57 40/202/57 59/201/57 
f 60/203/57 61/205/57 42/206/57 
f 42/206/57 41/204/57 60/203/57 
f 61/205/57 62/207/57 29/208/57 
f 29/208/57 42/206/57 61/205/57 
f 62/207/57 63/209/57 30/210/57 
f 30/210/57 29/208/57 62/207/57 
f 63/209/57 64/211/57 31/212/57 
f 31/212/57 30/210/57 63/209/57 
f 64/211/57 65/213/57 32/214/57 
f 32/214/57 31/212/57 64/211/57 
f 65/213/57 66/215/57 33/216/57 
f 33/216/57 32/214/57 65/213/57 
f 66/215/57 67/217/57 34/218/57 
f 34/218/57 33/216/57 66/215/57 
f 67/217/57 68/219/57 35/220/57 
f 35/220/57 34/218/57 67/217/57 
f 68/219/57 69/221/57 36/222/57 
f 36/222/57 35/220/57 68/219/57 
f 69/221/57 70/223/57 37/224/57 
f 37/224/57 36/222/57 69/221/57 
f 70/223/57 58/197/57 38/200/57 
f 38/200/57 37/224/57 70/223/57 
f 72/225/58 71/226/58 48/227/58 
f 48/227/58 47/228/58 72/225/58 
f 71/226/58 73/229/58 49/230/58 
f 49/230/58 48/227/58 71/226/58 
f 73/229/58 74/231/58 50/232/58 
f 50/232/58 49/230/58 73/229/58 
f 74/231/58 75/233/58 51/234/58 
f 51/234/58 50/232/58 74/231/58 
f 75/233/58 76/235/58 52/236/58 
f 52/236/58 51/234/58 75/233/58 
f 76/235/58 77/237/58 53/238/58 
f 53/238/58 52/236/58 76/235/58 
f 77/237/58 78/239/58 54/240/58 
f 54/240/58 53/238/58 77/237/58 
f 78/239/58 79/241/58 55/242/58 
f 55/242/58 54/240/58 78/239/58 
f 79/241/58 80/243/58 56/244/58 
f 56/244/58 55/242/58 79/241/58 
f 80/243/58 81/245/58 43/246/58 
f 43/246/58 56/244/58 80/243/58 
f 81/245/58 82/247/58 44/248/58 
f 44/248/58 43/246/58 81/245/58 
f 82/247/58 83/249/58 45/250/58 
f 45/250/58 44/248/58 82/247/58 
f 83/249/58 84/251/58 46/252/58 
f 46/252/58 45/250/58 83/249/58 
f 84/251/58 72/225/58 47/228/58 
f 47/228/58 46/252/58 84/251/58 
# 164 faces

