# 3ds Max Wavefront OBJ Exporter v0.97b - (c)2007 guruware
# File Created: 19.04.2016 20:36:03

mtllib goal.mtl

#
# object Plane002
#

v  112.5739 185.7484 -1.1497
v  74.0607 183.2964 5.9059
v  75.1421 195.4568 4.4493
v  112.5642 197.9089 -0.0087
v  35.4496 181.2199 0.3222
v  38.7520 193.3804 -0.7819
v  -2.3042 179.5535 -0.9583
v  1.2105 191.7139 -1.1020
v  -39.5718 181.1200 -0.8076
v  -36.2694 193.2804 -1.0293
v  -75.9821 185.4272 0.4659
v  -74.9007 197.5876 1.3247
v  -112.4903 189.4319 -3.1466
v  -112.5000 201.5924 -1.6343
v  74.7780 207.6173 4.4276
v  111.3269 210.0693 0.6059
v  37.7595 205.5408 -1.4857
v  0.2226 203.8744 0.4059
v  -37.2618 205.4409 -1.1671
v  -75.2648 209.7481 -0.2483
v  -113.7373 213.7528 -2.4529
v  73.3711 219.7777 1.5514
v  110.5113 222.2298 0.1488
v  35.1634 217.7012 -3.5287
v  -2.3763 216.0348 2.1925
v  -39.8580 217.6013 -0.9300
v  -76.6716 221.9085 0.1202
v  -114.5528 225.9133 -3.3599
v  73.3142 231.9381 1.3557
v  110.7498 234.3902 -3.2324
v  35.0507 229.8617 -5.0717
v  -2.4402 228.1952 -0.1205
v  -39.9707 229.7617 -0.9874
v  -76.7286 234.0690 -1.8256
v  -114.3143 238.0737 -3.0645
v  -120.5245 0.0000 -0.0000
v  -118.7000 0.0000 4.4049
v  -118.7000 75.0664 4.4049
v  -120.5245 75.0664 -0.0000
v  -114.2951 0.0000 6.2294
v  -114.2951 75.0664 6.2294
v  -109.8903 0.0000 4.4049
v  -109.8903 75.0664 4.4049
v  -108.0657 0.0000 0.0000
v  -108.0657 75.0664 0.0000
v  -109.8903 0.0000 -4.4049
v  -109.8903 75.0664 -4.4049
v  -114.2951 0.0000 -6.2294
v  -114.2951 75.0664 -6.2294
v  -118.7000 0.0000 -4.4049
v  -118.7000 75.0664 -4.4049
v  -117.1693 245.1118 2.8741
v  -114.2951 245.1118 4.0646
v  -111.4210 245.1118 2.8741
v  -110.2305 245.1118 0.0000
v  -111.4210 245.1118 -2.8741
v  -114.2951 245.1118 -4.0646
v  -117.1693 245.1118 -2.8741
v  -118.3598 245.1118 -0.0000
v  -117.9346 76.6561 3.6395
v  -119.4422 76.6561 -0.0000
v  -114.2951 76.6561 5.1470
v  -110.6556 76.6561 3.6395
v  -109.1481 76.6561 0.0000
v  -110.6556 76.6561 -3.6395
v  -114.2951 76.6561 -5.1470
v  -117.9346 76.6561 -3.6395
v  -117.1693 77.2622 2.8741
v  -118.3598 77.2622 -0.0000
v  -114.2951 77.2622 4.0646
v  -111.4210 77.2622 2.8741
v  -110.2305 77.2622 0.0000
v  -111.4210 77.2622 -2.8741
v  -114.2951 77.2622 -4.0646
v  -117.1693 77.2622 -2.8741
v  106.5216 0.0000 -0.0000
v  108.3461 0.0000 4.4049
v  108.3461 75.0664 4.4049
v  106.5216 75.0664 -0.0000
v  112.7510 0.0000 6.2294
v  112.7510 75.0664 6.2294
v  117.1558 0.0000 4.4049
v  117.1558 75.0664 4.4049
v  118.9804 0.0000 0.0000
v  118.9804 75.0664 0.0000
v  117.1558 0.0000 -4.4049
v  117.1558 75.0664 -4.4049
v  112.7510 0.0000 -6.2294
v  112.7510 75.0664 -6.2294
v  108.3461 0.0000 -4.4049
v  108.3461 75.0664 -4.4049
v  109.8768 245.1118 2.8741
v  112.7510 245.1118 4.0646
v  115.6251 245.1118 2.8741
v  116.8156 245.1118 0.0000
v  115.6251 245.1118 -2.8741
v  112.7510 245.1118 -4.0646
v  109.8768 245.1118 -2.8741
v  108.6863 245.1118 -0.0000
v  109.1115 76.6561 3.6395
v  107.6039 76.6561 -0.0000
v  112.7510 76.6561 5.1470
v  116.3905 76.6561 3.6395
v  117.8980 76.6561 0.0000
v  116.3905 76.6561 -3.6395
v  112.7510 76.6561 -5.1470
v  109.1115 76.6561 -3.6395
v  109.8768 77.2622 2.8741
v  108.6863 77.2622 -0.0000
v  112.7510 77.2622 4.0646
v  115.6251 77.2622 2.8741
v  116.8156 77.2622 0.0000
v  115.6251 77.2622 -2.8741
v  112.7510 77.2622 -4.0646
v  109.8768 77.2622 -2.8741
v  112.5739 185.7484 0.2734
v  112.5642 197.9089 1.4144
v  75.1421 195.4568 5.8724
v  74.0607 183.2964 7.3289
v  38.7520 193.3804 0.6411
v  35.4496 181.2199 1.7452
v  1.2105 191.7139 0.3211
v  -2.3042 179.5535 0.4647
v  -36.2694 193.2804 0.3937
v  -39.5718 181.1200 0.6155
v  -74.9007 197.5876 2.7477
v  -75.9821 185.4272 1.8889
v  -112.5000 201.5924 -0.2113
v  -112.4903 189.4319 -1.7236
v  111.3269 210.0693 2.0289
v  74.7780 207.6173 5.8507
v  37.7595 205.5408 -0.0627
v  0.2226 203.8744 1.8289
v  -37.2618 205.4409 0.2560
v  -75.2648 209.7481 1.1747
v  -113.7373 213.7528 -1.0298
v  110.5113 222.2298 1.5719
v  73.3711 219.7777 2.9744
v  35.1634 217.7012 -2.1056
v  -2.3763 216.0348 3.6155
v  -39.8580 217.6013 0.4931
v  -76.6716 221.9085 1.5432
v  -114.5528 225.9133 -1.9368
v  110.7498 234.3902 -1.8093
v  73.3142 231.9381 2.7788
v  35.0507 229.8617 -3.6486
v  -2.4402 228.1952 1.3026
v  -39.9707 229.7617 0.4356
v  -76.7286 234.0690 -0.4025
v  -114.3143 238.0737 -1.6415
# 150 vertices

vn -0.1433 0.0526 -0.9883
vn 0.0031 -0.1190 -0.9929
vn -0.0004 -0.0514 -0.9987
vn -0.1242 0.0608 -0.9904
vn 0.0756 -0.1002 -0.9921
vn 0.0797 -0.0747 -0.9940
vn 0.0136 -0.0163 -0.9998
vn 0.0190 0.0406 -0.9990
vn -0.0343 -0.0003 -0.9994
vn -0.0255 -0.0166 -0.9995
vn 0.0329 0.0742 -0.9967
vn 0.0045 -0.0316 -0.9995
vn 0.1185 0.1226 -0.9854
vn 0.0932 0.0167 -0.9955
vn 0.0239 -0.1069 -0.9940
vn -0.0818 -0.0219 -0.9964
vn 0.0443 -0.0880 -0.9951
vn 0.0128 0.1196 -0.9927
vn 0.0022 0.0123 -0.9999
vn 0.0104 -0.0472 -0.9988
vn 0.0605 -0.0727 -0.9955
vn 0.0548 -0.1179 -0.9915
vn -0.0668 -0.1310 -0.9891
vn -0.0015 -0.1533 -0.9882
vn -0.0196 -0.0203 -0.9996
vn 0.0281 0.0069 -0.9996
vn 0.0188 -0.0534 -0.9984
vn 0.0836 -0.0091 -0.9965
vn 0.0578 -0.0438 -0.9974
vn -0.1069 -0.2645 -0.9584
vn 0.0140 -0.1144 -0.9933
vn -0.0656 -0.1806 -0.9814
vn 0.0469 -0.0231 -0.9986
vn -0.0064 -0.1425 -0.9898
vn 0.0824 -0.0166 -0.9965
vn -1.0000 -0.0000 -0.0000
vn -0.7233 -0.0000 0.6905
vn -0.6948 0.2696 0.6668
vn -0.9645 0.2641 0.0000
vn -0.0000 -0.0000 1.0000
vn -0.0000 0.2751 0.9614
vn 0.7233 -0.0000 0.6905
vn 0.6948 0.2696 0.6668
vn 1.0000 0.0000 0.0000
vn 0.9645 0.2641 -0.0000
vn 0.7233 0.0000 -0.6905
vn 0.6948 0.2696 -0.6668
vn 0.0000 0.0000 -1.0000
vn 0.0000 0.2751 -0.9614
vn -0.7233 0.0000 -0.6905
vn -0.6948 0.2696 -0.6668
vn -0.0000 -1.0000 0.0000
vn 0.0000 1.0000 -0.0000
vn -0.5185 0.6999 0.4912
vn -0.7225 0.6914 0.0000
vn -0.0000 0.7085 0.7057
vn 0.5185 0.6999 0.4912
vn 0.7225 0.6914 -0.0000
vn 0.5185 0.6999 -0.4912
vn 0.0000 0.7085 -0.7057
vn -0.5185 0.6999 -0.4912
vn -0.3686 0.8652 0.3400
vn -0.5132 0.8583 -0.0000
vn -0.0000 0.8725 0.4886
vn 0.3686 0.8652 0.3400
vn 0.5132 0.8583 0.0000
vn 0.3686 0.8652 -0.3400
vn 0.0000 0.8725 -0.4886
vn -0.3686 0.8652 -0.3400
vn -1.0000 0.0000 -0.0000
vn -0.7233 0.0000 0.6905
vn -0.4045 -0.0000 0.9145
vn -0.4045 0.0000 0.9145
vn 0.4045 0.0000 0.9145
vn 0.7233 0.0000 0.6905
vn 0.4045 -0.0000 0.9145
vn 1.0000 -0.0000 0.0000
vn 0.9323 -0.0000 -0.3617
vn 0.4045 0.0000 -0.9145
vn 0.4045 -0.0000 -0.9145
vn -0.4045 -0.0000 -0.9145
vn -0.4045 0.0000 -0.9145
vn -0.9323 -0.0000 -0.3617
vn 0.1433 -0.0526 0.9883
vn 0.1242 -0.0608 0.9904
vn 0.0004 0.0514 0.9987
vn -0.0031 0.1190 0.9929
vn -0.0797 0.0747 0.9940
vn -0.0756 0.1002 0.9921
vn -0.0190 -0.0406 0.9990
vn -0.0136 0.0163 0.9998
vn 0.0255 0.0166 0.9995
vn 0.0343 0.0003 0.9994
vn -0.0045 0.0316 0.9995
vn -0.0329 -0.0742 0.9967
vn -0.0932 -0.0167 0.9955
vn -0.1185 -0.1226 0.9854
vn 0.0818 0.0219 0.9964
vn -0.0239 0.1069 0.9940
vn -0.0443 0.0880 0.9951
vn -0.0128 -0.1196 0.9927
vn -0.0022 -0.0123 0.9999
vn -0.0104 0.0472 0.9988
vn -0.0605 0.0727 0.9955
vn 0.0668 0.1310 0.9891
vn -0.0548 0.1179 0.9915
vn 0.0015 0.1533 0.9882
vn 0.0196 0.0203 0.9996
vn -0.0281 -0.0069 0.9996
vn -0.0188 0.0534 0.9984
vn -0.0836 0.0091 0.9965
vn 0.1069 0.2645 0.9584
vn -0.0578 0.0438 0.9974
vn -0.0140 0.1144 0.9933
vn 0.0656 0.1806 0.9814
vn -0.0469 0.0231 0.9986
vn 0.0064 0.1425 0.9898
vn -0.0824 0.0166 0.9965
# 118 vertex normals

vt 0.0200 0.0396 0.0000
vt 0.1343 0.0319 0.0000
vt 0.1311 0.0704 0.0000
vt 0.0200 0.0782 0.0000
vt 0.2488 0.0253 0.0000
vt 0.2390 0.0638 0.0000
vt 0.3608 0.0200 0.0000
vt 0.3504 0.0585 0.0000
vt 0.4714 0.0250 0.0000
vt 0.4616 0.0635 0.0000
vt 0.5795 0.0386 0.0000
vt 0.5762 0.0771 0.0000
vt 0.6878 0.0513 0.0000
vt 0.6878 0.0898 0.0000
vt 0.1321 0.1089 0.0000
vt 0.0237 0.1167 0.0000
vt 0.2420 0.1023 0.0000
vt 0.3534 0.0971 0.0000
vt 0.4646 0.1020 0.0000
vt 0.5773 0.1157 0.0000
vt 0.6915 0.1283 0.0000
vt 0.1363 0.1474 0.0000
vt 0.0261 0.1552 0.0000
vt 0.2497 0.1409 0.0000
vt 0.3611 0.1356 0.0000
vt 0.4723 0.1405 0.0000
vt 0.5815 0.1542 0.0000
vt 0.6939 0.1669 0.0000
vt 0.1365 0.1860 0.0000
vt 0.0254 0.1937 0.0000
vt 0.2500 0.1794 0.0000
vt 0.3613 0.1741 0.0000
vt 0.4726 0.1791 0.0000
vt 0.5817 0.1927 0.0000
vt 0.6932 0.2054 0.0000
vt 0.7283 0.8076 0.0000
vt 0.7283 0.7932 0.0000
vt 0.9736 0.7932 0.0000
vt 0.9736 0.8076 0.0000
vt 0.7270 0.6484 0.0000
vt 0.7270 0.6348 0.0000
vt 0.9748 0.6348 0.0000
vt 0.9748 0.6484 0.0000
vt 0.7270 0.6212 0.0000
vt 0.9748 0.6212 0.0000
vt 0.9788 0.7498 0.0000
vt 0.9788 0.7642 0.0000
vt 0.7335 0.7642 0.0000
vt 0.7335 0.7498 0.0000
vt 0.9788 0.7786 0.0000
vt 0.7335 0.7786 0.0000
vt 0.9800 0.4817 0.0000
vt 0.9800 0.4953 0.0000
vt 0.7323 0.4953 0.0000
vt 0.7323 0.4817 0.0000
vt 0.9800 0.5089 0.0000
vt 0.7323 0.5089 0.0000
vt 0.7283 0.8220 0.0000
vt 0.9736 0.8220 0.0000
vt 0.6195 0.4982 0.0000
vt 0.6200 0.4840 0.0000
vt 0.6309 0.4738 0.0000
vt 0.6457 0.4736 0.0000
vt 0.6559 0.4835 0.0000
vt 0.6555 0.4977 0.0000
vt 0.6446 0.5079 0.0000
vt 0.6297 0.5081 0.0000
vt 0.5630 0.4736 0.0000
vt 0.5697 0.4801 0.0000
vt 0.5693 0.4894 0.0000
vt 0.5623 0.4960 0.0000
vt 0.5525 0.4961 0.0000
vt 0.5459 0.4897 0.0000
vt 0.5462 0.4804 0.0000
vt 0.5533 0.4738 0.0000
vt 0.9788 0.7957 0.0000
vt 0.9788 0.8076 0.0000
vt 0.9800 0.6348 0.0000
vt 0.9800 0.6460 0.0000
vt 0.9800 0.6236 0.0000
vt 0.7283 0.7642 0.0000
vt 0.7283 0.7523 0.0000
vt 0.7283 0.7761 0.0000
vt 0.7270 0.4953 0.0000
vt 0.7270 0.4840 0.0000
vt 0.7270 0.5065 0.0000
vt 0.9788 0.8195 0.0000
vt 0.6872 0.5717 0.0000
vt 0.7006 0.5715 0.0000
vt 0.6991 0.5748 0.0000
vt 0.6885 0.5749 0.0000
vt 0.7097 0.5804 0.0000
vt 0.7063 0.5818 0.0000
vt 0.7093 0.5932 0.0000
vt 0.7060 0.5919 0.0000
vt 0.6996 0.6023 0.0000
vt 0.6983 0.5991 0.0000
vt 0.6862 0.6025 0.0000
vt 0.6877 0.5992 0.0000
vt 0.6771 0.5936 0.0000
vt 0.6805 0.5922 0.0000
vt 0.6775 0.5808 0.0000
vt 0.6808 0.5821 0.0000
vt 0.0226 0.7600 0.0000
vt 0.0226 0.7507 0.0000
vt 0.5703 0.7507 0.0000
vt 0.5703 0.7600 0.0000
vt 0.0200 0.5772 0.0000
vt 0.0200 0.5683 0.0000
vt 0.5729 0.5683 0.0000
vt 0.5729 0.5772 0.0000
vt 0.0200 0.5595 0.0000
vt 0.5729 0.5595 0.0000
vt 0.5703 0.8222 0.0000
vt 0.5703 0.8316 0.0000
vt 0.0226 0.8316 0.0000
vt 0.0226 0.8222 0.0000
vt 0.5703 0.8410 0.0000
vt 0.0226 0.8410 0.0000
vt 0.5729 0.6802 0.0000
vt 0.5729 0.6891 0.0000
vt 0.0200 0.6891 0.0000
vt 0.0200 0.6802 0.0000
vt 0.5729 0.6980 0.0000
vt 0.0200 0.6980 0.0000
vt 0.0226 0.7694 0.0000
vt 0.5703 0.7694 0.0000
vt 0.7283 0.6773 0.0000
vt 0.7283 0.6629 0.0000
vt 0.9736 0.6629 0.0000
vt 0.9736 0.6773 0.0000
vt 0.7270 0.5554 0.0000
vt 0.7270 0.5418 0.0000
vt 0.9748 0.5418 0.0000
vt 0.9748 0.5554 0.0000
vt 0.7270 0.5282 0.0000
vt 0.9748 0.5282 0.0000
vt 0.9788 0.7064 0.0000
vt 0.9788 0.7208 0.0000
vt 0.7335 0.7208 0.0000
vt 0.7335 0.7064 0.0000
vt 0.9788 0.7351 0.0000
vt 0.7335 0.7351 0.0000
vt 0.9800 0.5747 0.0000
vt 0.9800 0.5883 0.0000
vt 0.7323 0.5883 0.0000
vt 0.7323 0.5747 0.0000
vt 0.9800 0.6019 0.0000
vt 0.7323 0.6019 0.0000
vt 0.7283 0.6917 0.0000
vt 0.9736 0.6917 0.0000
vt 0.6719 0.4982 0.0000
vt 0.6724 0.4840 0.0000
vt 0.6833 0.4738 0.0000
vt 0.6981 0.4736 0.0000
vt 0.7083 0.4835 0.0000
vt 0.7078 0.4977 0.0000
vt 0.6970 0.5079 0.0000
vt 0.6821 0.5081 0.0000
vt 0.5630 0.5139 0.0000
vt 0.5697 0.5204 0.0000
vt 0.5693 0.5297 0.0000
vt 0.5623 0.5363 0.0000
vt 0.5525 0.5364 0.0000
vt 0.5459 0.5300 0.0000
vt 0.5462 0.5207 0.0000
vt 0.5533 0.5141 0.0000
vt 0.9788 0.6654 0.0000
vt 0.9788 0.6773 0.0000
vt 0.9800 0.5418 0.0000
vt 0.9800 0.5530 0.0000
vt 0.9800 0.5305 0.0000
vt 0.7283 0.7208 0.0000
vt 0.7283 0.7089 0.0000
vt 0.7283 0.7326 0.0000
vt 0.7270 0.5883 0.0000
vt 0.7270 0.5770 0.0000
vt 0.7270 0.5995 0.0000
vt 0.9788 0.6892 0.0000
vt 0.6872 0.6182 0.0000
vt 0.7006 0.6180 0.0000
vt 0.6991 0.6213 0.0000
vt 0.6885 0.6214 0.0000
vt 0.7097 0.6269 0.0000
vt 0.7063 0.6283 0.0000
vt 0.7093 0.6397 0.0000
vt 0.7060 0.6384 0.0000
vt 0.6996 0.6488 0.0000
vt 0.6983 0.6456 0.0000
vt 0.6862 0.6490 0.0000
vt 0.6877 0.6457 0.0000
vt 0.6771 0.6401 0.0000
vt 0.6805 0.6387 0.0000
vt 0.6775 0.6273 0.0000
vt 0.6808 0.6286 0.0000
vt 0.0226 0.7243 0.0000
vt 0.0226 0.7149 0.0000
vt 0.5703 0.7149 0.0000
vt 0.5703 0.7243 0.0000
vt 0.0200 0.6577 0.0000
vt 0.0200 0.6488 0.0000
vt 0.5729 0.6488 0.0000
vt 0.5729 0.6577 0.0000
vt 0.0200 0.6400 0.0000
vt 0.5729 0.6400 0.0000
vt 0.5703 0.7864 0.0000
vt 0.5703 0.7958 0.0000
vt 0.0226 0.7958 0.0000
vt 0.0226 0.7864 0.0000
vt 0.5703 0.8052 0.0000
vt 0.0226 0.8052 0.0000
vt 0.5729 0.5997 0.0000
vt 0.5729 0.6086 0.0000
vt 0.0200 0.6086 0.0000
vt 0.0200 0.5997 0.0000
vt 0.5729 0.6174 0.0000
vt 0.0200 0.6174 0.0000
vt 0.0226 0.7336 0.0000
vt 0.5703 0.7336 0.0000
vt 0.0200 0.4074 0.0000
vt 0.0200 0.3689 0.0000
vt 0.1311 0.3767 0.0000
vt 0.1343 0.4152 0.0000
vt 0.2390 0.3832 0.0000
vt 0.2488 0.4218 0.0000
vt 0.3504 0.3885 0.0000
vt 0.3608 0.4270 0.0000
vt 0.4616 0.3836 0.0000
vt 0.4714 0.4221 0.0000
vt 0.5762 0.3699 0.0000
vt 0.5795 0.4084 0.0000
vt 0.6878 0.3572 0.0000
vt 0.6878 0.3957 0.0000
vt 0.0237 0.3304 0.0000
vt 0.1321 0.3381 0.0000
vt 0.2420 0.3447 0.0000
vt 0.3534 0.3500 0.0000
vt 0.4646 0.3450 0.0000
vt 0.5773 0.3314 0.0000
vt 0.6915 0.3187 0.0000
vt 0.0261 0.2918 0.0000
vt 0.1363 0.2996 0.0000
vt 0.2497 0.3062 0.0000
vt 0.3611 0.3115 0.0000
vt 0.4723 0.3065 0.0000
vt 0.5815 0.2929 0.0000
vt 0.6939 0.2802 0.0000
vt 0.0254 0.2533 0.0000
vt 0.1365 0.2611 0.0000
vt 0.2500 0.2677 0.0000
vt 0.3613 0.2729 0.0000
vt 0.4726 0.2680 0.0000
vt 0.5817 0.2543 0.0000
vt 0.6932 0.2416 0.0000
# 254 texture coords

g Plane002
usemtl wire_006135058
s 1
f 1/1/1 2/2/2 3/3/3 
f 3/3/3 4/4/4 1/1/1 
f 2/2/2 5/5/5 6/6/6 
f 6/6/6 3/3/3 2/2/2 
f 5/5/5 7/7/7 8/8/8 
f 8/8/8 6/6/6 5/5/5 
f 7/7/7 9/9/9 10/10/10 
f 10/10/10 8/8/8 7/7/7 
f 9/9/9 11/11/11 12/12/12 
f 12/12/12 10/10/10 9/9/9 
f 11/11/11 13/13/13 14/14/14 
f 14/14/14 12/12/12 11/11/11 
f 4/4/4 3/3/3 15/15/15 
f 15/15/15 16/16/16 4/4/4 
f 3/3/3 6/6/6 17/17/17 
f 17/17/17 15/15/15 3/3/3 
f 6/6/6 8/8/8 18/18/18 
f 18/18/18 17/17/17 6/6/6 
f 8/8/8 10/10/10 19/19/19 
f 19/19/19 18/18/18 8/8/8 
f 10/10/10 12/12/12 20/20/20 
f 20/20/20 19/19/19 10/10/10 
f 12/12/12 14/14/14 21/21/21 
f 21/21/21 20/20/20 12/12/12 
f 16/16/16 15/15/15 22/22/22 
f 22/22/22 23/23/23 16/16/16 
f 15/15/15 17/17/17 24/24/24 
f 24/24/24 22/22/22 15/15/15 
f 17/17/17 18/18/18 25/25/25 
f 25/25/25 24/24/24 17/17/17 
f 18/18/18 19/19/19 26/26/26 
f 26/26/26 25/25/25 18/18/18 
f 19/19/19 20/20/20 27/27/27 
f 27/27/27 26/26/26 19/19/19 
f 20/20/20 21/21/21 28/28/28 
f 28/28/28 27/27/27 20/20/20 
f 23/23/23 22/22/22 29/29/29 
f 29/29/29 30/30/30 23/23/23 
f 22/22/22 24/24/24 31/31/31 
f 31/31/31 29/29/29 22/22/22 
f 24/24/24 25/25/25 32/32/32 
f 32/32/32 31/31/31 24/24/24 
f 25/25/25 26/26/26 33/33/33 
f 33/33/33 32/32/32 25/25/25 
f 26/26/26 27/27/27 34/34/34 
f 34/34/34 33/33/33 26/26/26 
f 27/27/27 28/28/28 35/35/35 
f 35/35/35 34/34/34 27/27/27 
f 36/36/36 37/37/37 38/38/38 
f 38/38/38 39/39/39 36/36/36 
f 37/40/37 40/41/40 41/42/41 
f 41/42/41 38/43/38 37/40/37 
f 40/41/40 42/44/42 43/45/43 
f 43/45/43 41/42/41 40/41/40 
f 42/46/42 44/47/44 45/48/45 
f 45/48/45 43/49/43 42/46/42 
f 44/47/44 46/50/46 47/51/47 
f 47/51/47 45/48/45 44/47/44 
f 46/52/46 48/53/48 49/54/49 
f 49/54/49 47/55/47 46/52/46 
f 48/53/48 50/56/50 51/57/51 
f 51/57/51 49/54/49 48/53/48 
f 50/58/50 36/36/36 39/39/39 
f 39/39/39 51/59/51 50/58/50 
s 2
f 48/60/52 46/61/52 44/62/52 
f 44/62/52 42/63/52 40/64/52 
f 40/64/52 37/65/52 36/66/52 
f 44/62/52 40/64/52 36/66/52 
f 48/60/52 44/62/52 36/66/52 
f 50/67/52 48/60/52 36/66/52 
s 1
f 52/68/53 53/69/53 54/70/53 
f 54/70/53 55/71/53 56/72/53 
f 56/72/53 57/73/53 58/74/53 
f 54/70/53 56/72/53 58/74/53 
f 52/68/53 54/70/53 58/74/53 
f 59/75/53 52/68/53 58/74/53 
f 39/39/39 38/38/38 60/76/54 
f 60/76/54 61/77/55 39/39/39 
f 38/43/38 41/42/41 62/78/56 
f 62/78/56 60/79/54 38/43/38 
f 41/42/41 43/45/43 63/80/57 
f 63/80/57 62/78/56 41/42/41 
f 43/49/43 45/48/45 64/81/58 
f 64/81/58 63/82/57 43/49/43 
f 45/48/45 47/51/47 65/83/59 
f 65/83/59 64/81/58 45/48/45 
f 47/55/47 49/54/49 66/84/60 
f 66/84/60 65/85/59 47/55/47 
f 49/54/49 51/57/51 67/86/61 
f 67/86/61 66/84/60 49/54/49 
f 51/59/51 39/39/39 61/77/55 
f 61/77/55 67/87/61 51/59/51 
f 61/88/55 60/89/54 68/90/62 
f 68/90/62 69/91/63 61/88/55 
f 60/89/54 62/92/56 70/93/64 
f 70/93/64 68/90/62 60/89/54 
f 62/92/56 63/94/57 71/95/65 
f 71/95/65 70/93/64 62/92/56 
f 63/94/57 64/96/58 72/97/66 
f 72/97/66 71/95/65 63/94/57 
f 64/96/58 65/98/59 73/99/67 
f 73/99/67 72/97/66 64/96/58 
f 65/98/59 66/100/60 74/101/68 
f 74/101/68 73/99/67 65/98/59 
f 66/100/60 67/102/61 75/103/69 
f 75/103/69 74/101/68 66/100/60 
f 67/102/61 61/88/55 69/91/63 
f 69/91/63 75/103/69 67/102/61 
s 2
f 69/104/70 68/105/37 52/106/71 
f 52/106/71 59/107/36 69/104/70 
f 68/108/37 70/109/72 53/110/73 
f 53/110/73 52/111/71 68/108/37 
s 4
f 70/109/74 71/112/75 54/113/42 
f 54/113/42 53/110/76 70/109/74 
f 71/114/75 72/115/77 55/116/44 
f 55/116/44 54/117/42 71/114/75 
f 72/115/77 73/118/78 56/119/78 
f 56/119/78 55/116/44 72/115/77 
s 8
f 73/120/79 74/121/48 57/122/48 
f 57/122/48 56/123/80 73/120/79 
f 74/121/48 75/124/81 58/125/82 
f 58/125/82 57/122/48 74/121/48 
s 2
f 75/126/83 69/104/70 59/107/36 
f 59/107/36 58/127/83 75/126/83 
s 1
f 76/128/36 77/129/37 78/130/38 
f 78/130/38 79/131/39 76/128/36 
f 77/132/37 80/133/40 81/134/41 
f 81/134/41 78/135/38 77/132/37 
f 80/133/40 82/136/42 83/137/43 
f 83/137/43 81/134/41 80/133/40 
f 82/138/42 84/139/44 85/140/45 
f 85/140/45 83/141/43 82/138/42 
f 84/139/44 86/142/46 87/143/47 
f 87/143/47 85/140/45 84/139/44 
f 86/144/46 88/145/48 89/146/49 
f 89/146/49 87/147/47 86/144/46 
f 88/145/48 90/148/50 91/149/51 
f 91/149/51 89/146/49 88/145/48 
f 90/150/50 76/128/36 79/131/39 
f 79/131/39 91/151/51 90/150/50 
s 2
f 88/152/52 86/153/52 84/154/52 
f 84/154/52 82/155/52 80/156/52 
f 80/156/52 77/157/52 76/158/52 
f 84/154/52 80/156/52 76/158/52 
f 88/152/52 84/154/52 76/158/52 
f 90/159/52 88/152/52 76/158/52 
s 1
f 92/160/53 93/161/53 94/162/53 
f 94/162/53 95/163/53 96/164/53 
f 96/164/53 97/165/53 98/166/53 
f 94/162/53 96/164/53 98/166/53 
f 92/160/53 94/162/53 98/166/53 
f 99/167/53 92/160/53 98/166/53 
f 79/131/39 78/130/38 100/168/54 
f 100/168/54 101/169/55 79/131/39 
f 78/135/38 81/134/41 102/170/56 
f 102/170/56 100/171/54 78/135/38 
f 81/134/41 83/137/43 103/172/57 
f 103/172/57 102/170/56 81/134/41 
f 83/141/43 85/140/45 104/173/58 
f 104/173/58 103/174/57 83/141/43 
f 85/140/45 87/143/47 105/175/59 
f 105/175/59 104/173/58 85/140/45 
f 87/147/47 89/146/49 106/176/60 
f 106/176/60 105/177/59 87/147/47 
f 89/146/49 91/149/51 107/178/61 
f 107/178/61 106/176/60 89/146/49 
f 91/151/51 79/131/39 101/169/55 
f 101/169/55 107/179/61 91/151/51 
f 101/180/55 100/181/54 108/182/62 
f 108/182/62 109/183/63 101/180/55 
f 100/181/54 102/184/56 110/185/64 
f 110/185/64 108/182/62 100/181/54 
f 102/184/56 103/186/57 111/187/65 
f 111/187/65 110/185/64 102/184/56 
f 103/186/57 104/188/58 112/189/66 
f 112/189/66 111/187/65 103/186/57 
f 104/188/58 105/190/59 113/191/67 
f 113/191/67 112/189/66 104/188/58 
f 105/190/59 106/192/60 114/193/68 
f 114/193/68 113/191/67 105/190/59 
f 106/192/60 107/194/61 115/195/69 
f 115/195/69 114/193/68 106/192/60 
f 107/194/61 101/180/55 109/183/63 
f 109/183/63 115/195/69 107/194/61 
s 2
f 109/196/70 108/197/37 92/198/71 
f 92/198/71 99/199/36 109/196/70 
f 108/200/37 110/201/72 93/202/73 
f 93/202/73 92/203/71 108/200/37 
s 4
f 110/201/74 111/204/75 94/205/42 
f 94/205/42 93/202/76 110/201/74 
f 111/206/75 112/207/77 95/208/44 
f 95/208/44 94/209/42 111/206/75 
f 112/207/77 113/210/78 96/211/78 
f 96/211/78 95/208/44 112/207/77 
s 8
f 113/212/79 114/213/48 97/214/48 
f 97/214/48 96/215/80 113/212/79 
f 114/213/48 115/216/81 98/217/82 
f 98/217/82 97/214/48 114/213/48 
s 2
f 115/218/83 109/196/70 99/199/36 
f 99/199/36 98/219/83 115/218/83 
s 1
f 116/220/84 117/221/85 118/222/86 
f 118/222/86 119/223/87 116/220/84 
f 119/223/87 118/222/86 120/224/88 
f 120/224/88 121/225/89 119/223/87 
f 121/225/89 120/224/88 122/226/90 
f 122/226/90 123/227/91 121/225/89 
f 123/227/91 122/226/90 124/228/92 
f 124/228/92 125/229/93 123/227/91 
f 125/229/93 124/228/92 126/230/94 
f 126/230/94 127/231/95 125/229/93 
f 127/231/95 126/230/94 128/232/96 
f 128/232/96 129/233/97 127/231/95 
f 117/221/85 130/234/98 131/235/99 
f 131/235/99 118/222/86 117/221/85 
f 118/222/86 131/235/99 132/236/100 
f 132/236/100 120/224/88 118/222/86 
f 120/224/88 132/236/100 133/237/101 
f 133/237/101 122/226/90 120/224/88 
f 122/226/90 133/237/101 134/238/102 
f 134/238/102 124/228/92 122/226/90 
f 124/228/92 134/238/102 135/239/103 
f 135/239/103 126/230/94 124/228/92 
f 126/230/94 135/239/103 136/240/104 
f 136/240/104 128/232/96 126/230/94 
f 130/234/98 137/241/105 138/242/106 
f 138/242/106 131/235/99 130/234/98 
f 131/235/99 138/242/106 139/243/107 
f 139/243/107 132/236/100 131/235/99 
f 132/236/100 139/243/107 140/244/108 
f 140/244/108 133/237/101 132/236/100 
f 133/237/101 140/244/108 141/245/109 
f 141/245/109 134/238/102 133/237/101 
f 134/238/102 141/245/109 142/246/110 
f 142/246/110 135/239/103 134/238/102 
f 135/239/103 142/246/110 143/247/111 
f 143/247/111 136/240/104 135/239/103 
f 137/241/105 144/248/112 145/249/113 
f 145/249/113 138/242/106 137/241/105 
f 138/242/106 145/249/113 146/250/114 
f 146/250/114 139/243/107 138/242/106 
f 139/243/107 146/250/114 147/251/115 
f 147/251/115 140/244/108 139/243/107 
f 140/244/108 147/251/115 148/252/116 
f 148/252/116 141/245/109 140/244/108 
f 141/245/109 148/252/116 149/253/117 
f 149/253/117 142/246/110 141/245/109 
f 142/246/110 149/253/117 150/254/118 
f 150/254/118 143/247/111 142/246/110 
# 248 faces

