# 3ds Max Wavefront OBJ Exporter v0.97b - (c)2007 guruware
# File Created: 30.10.2016 12:26:02

mtllib gameButtonOff.mtl

#
# object gameButtonOff
#

v  13.4431 6.6294 -4.8929
v  10.9589 6.6294 -9.1956
v  7.1529 6.6294 -12.3893
v  2.4842 6.6294 -14.0885
v  -2.4842 6.6294 -14.0885
v  -7.1529 6.6294 -12.3893
v  -10.9589 6.6294 -9.1956
v  -13.4431 6.6294 -4.8929
v  -14.3059 6.6294 -0.0000
v  -13.4431 6.6294 4.8929
v  -10.9589 6.6294 9.1956
v  -7.1529 6.6294 12.3893
v  -2.4842 6.6294 14.0885
v  2.4842 6.6294 14.0885
v  7.1529 6.6294 12.3893
v  10.9589 6.6294 9.1957
v  13.4431 6.6294 4.8929
v  14.3059 6.6294 -0.0000
v  18.0970 5.0754 -0.0000
v  18.6462 3.5064 -0.0000
v  17.5217 3.5064 -6.3774
v  17.0056 5.0754 -6.1895
v  14.2838 3.5064 -11.9855
v  13.8631 5.0754 -11.6325
v  9.3231 3.5064 -16.1480
v  9.0485 5.0754 -15.6724
v  3.2379 3.5064 -18.3629
v  3.1425 5.0754 -17.8220
v  -3.2379 3.5064 -18.3629
v  -3.1425 5.0754 -17.8220
v  -9.3231 3.5064 -16.1480
v  -9.0485 5.0754 -15.6724
v  -14.2838 3.5064 -11.9855
v  -13.8631 5.0754 -11.6325
v  -17.5217 3.5064 -6.3774
v  -17.0056 5.0754 -6.1895
v  -18.6462 3.5064 -0.0000
v  -18.0970 5.0754 -0.0000
v  -17.5217 3.5064 6.3774
v  -17.0056 5.0754 6.1895
v  -14.2838 3.5064 11.9855
v  -13.8631 5.0754 11.6325
v  -9.3231 3.5064 16.1480
v  -9.0485 5.0754 15.6724
v  -3.2379 3.5064 18.3629
v  -3.1425 5.0754 17.8220
v  3.2379 3.5064 18.3629
v  3.1425 5.0754 17.8220
v  9.3231 3.5064 16.1481
v  9.0485 5.0754 15.6724
v  14.2838 3.5064 11.9855
v  13.8631 5.0754 11.6325
v  17.5217 3.5064 6.3774
v  17.0056 5.0754 6.1895
v  18.6462 0.0000 -0.0000
v  17.5217 0.0000 -6.3774
v  14.2838 0.0000 -11.9855
v  9.3231 0.0000 -16.1480
v  3.2379 0.0000 -18.3629
v  -3.2379 0.0000 -18.3629
v  -9.3231 0.0000 -16.1480
v  -14.2838 0.0000 -11.9855
v  -17.5217 0.0000 -6.3774
v  -18.6462 0.0000 -0.0000
v  -17.5217 0.0000 6.3774
v  -14.2838 0.0000 11.9855
v  -9.3231 0.0000 16.1480
v  -3.2379 0.0000 18.3629
v  3.2379 0.0000 18.3629
v  9.3231 0.0000 16.1481
v  14.2838 0.0000 11.9855
v  17.5217 0.0000 6.3774
v  15.9707 5.8524 -5.8129
v  16.9956 5.8524 -0.0000
v  13.0194 5.8524 -10.9246
v  8.4978 5.8524 -14.7187
v  2.9513 5.8524 -16.7374
v  -2.9513 5.8524 -16.7374
v  -8.4978 5.8524 -14.7187
v  -13.0194 5.8524 -10.9246
v  -15.9707 5.8524 -5.8129
v  -16.9956 5.8524 -0.0000
v  -15.9707 5.8524 5.8128
v  -13.0194 5.8524 10.9246
v  -8.4978 5.8524 14.7187
v  -2.9513 5.8524 16.7374
v  2.9513 5.8524 16.7374
v  8.4978 5.8524 14.7187
v  13.0194 5.8524 10.9246
v  15.9707 5.8524 5.8129
# 90 vertices

vn 0.1174 0.9922 -0.0427
vn 0.0957 0.9922 -0.0803
vn 0.0625 0.9922 -0.1082
vn 0.0217 0.9922 -0.1231
vn -0.0217 0.9922 -0.1231
vn -0.0625 0.9922 -0.1082
vn -0.0957 0.9922 -0.0803
vn -0.1174 0.9922 -0.0427
vn -0.1250 0.9922 0.0000
vn -0.1174 0.9922 0.0427
vn -0.0957 0.9922 0.0803
vn -0.0625 0.9922 0.1082
vn -0.0217 0.9922 0.1231
vn 0.0217 0.9922 0.1231
vn 0.0625 0.9922 0.1082
vn 0.0957 0.9922 0.0803
vn 0.1174 0.9922 0.0427
vn 0.1250 0.9922 -0.0000
vn 0.7555 0.6552 0.0000
vn 0.9795 0.2014 0.0000
vn 0.9204 0.2014 -0.3350
vn 0.7099 0.6552 -0.2584
vn 0.7503 0.2014 -0.6296
vn 0.5787 0.6552 -0.4856
vn 0.4898 0.2014 -0.8483
vn 0.3777 0.6552 -0.6542
vn 0.1701 0.2014 -0.9646
vn 0.1312 0.6552 -0.7440
vn -0.1701 0.2014 -0.9646
vn -0.1312 0.6552 -0.7440
vn -0.4898 0.2014 -0.8483
vn -0.3777 0.6552 -0.6542
vn -0.7503 0.2014 -0.6296
vn -0.5787 0.6552 -0.4856
vn -0.9204 0.2014 -0.3350
vn -0.7099 0.6552 -0.2584
vn -0.9795 0.2014 -0.0000
vn -0.7555 0.6552 0.0000
vn -0.9204 0.2014 0.3350
vn -0.7099 0.6552 0.2584
vn -0.7503 0.2014 0.6296
vn -0.5787 0.6552 0.4856
vn -0.4898 0.2014 0.8483
vn -0.3777 0.6552 0.6542
vn -0.1701 0.2014 0.9646
vn -0.1312 0.6552 0.7440
vn 0.1701 0.2014 0.9646
vn 0.1312 0.6552 0.7440
vn 0.4898 0.2014 0.8483
vn 0.3777 0.6552 0.6542
vn 0.7503 0.2014 0.6296
vn 0.5787 0.6552 0.4856
vn 0.9204 0.2014 0.3350
vn 0.7099 0.6552 0.2584
vn 1.0000 -0.0000 0.0000
vn 0.9397 0.0000 -0.3420
vn 0.7660 0.0000 -0.6428
vn 0.5000 0.0000 -0.8660
vn 0.1736 0.0000 -0.9848
vn -0.1736 0.0000 -0.9848
vn -0.5000 0.0000 -0.8660
vn -0.7660 0.0000 -0.6428
vn -0.9397 0.0000 -0.3420
vn -1.0000 0.0000 0.0000
vn -0.9397 0.0000 0.3420
vn -0.7660 0.0000 0.6428
vn -0.5000 0.0000 0.8660
vn -0.1736 0.0000 0.9848
vn 0.1736 0.0000 0.9848
vn 0.5000 0.0000 0.8660
vn 0.7660 0.0000 0.6428
vn 0.9397 -0.0000 0.3420
vn 0.3512 0.9275 -0.1278
vn 0.3738 0.9275 0.0000
vn 0.2863 0.9275 -0.2403
vn 0.1869 0.9275 -0.3237
vn 0.0649 0.9275 -0.3681
vn -0.0649 0.9275 -0.3681
vn -0.1869 0.9275 -0.3237
vn -0.2863 0.9275 -0.2403
vn -0.3512 0.9275 -0.1278
vn -0.3738 0.9275 0.0000
vn -0.3512 0.9275 0.1278
vn -0.2863 0.9275 0.2403
vn -0.1869 0.9275 0.3237
vn -0.0649 0.9275 0.3681
vn 0.0649 0.9275 0.3681
vn 0.1869 0.9275 0.3237
vn 0.2863 0.9275 0.2403
vn 0.3512 0.9275 0.1278
vn -0.0000 -1.0000 -0.0000
vn -0.0000 -1.0000 0.0000
vn 0.0000 -1.0000 -0.0000
vn 0.0000 -1.0000 0.0000
# 94 vertex normals

vt 0.8318 0.7534 0.0000
vt 0.7902 0.8255 0.0000
vt 0.7265 0.8790 0.0000
vt 0.6483 0.9074 0.0000
vt 0.5650 0.9074 0.0000
vt 0.4868 0.8790 0.0000
vt 0.4231 0.8255 0.0000
vt 0.3815 0.7534 0.0000
vt 0.3670 0.6714 0.0000
vt 0.3815 0.5895 0.0000
vt 0.4231 0.5174 0.0000
vt 0.4868 0.4639 0.0000
vt 0.5650 0.4354 0.0000
vt 0.6483 0.4354 0.0000
vt 0.7265 0.4639 0.0000
vt 0.7902 0.5174 0.0000
vt 0.8318 0.5895 0.0000
vt 0.8463 0.6714 0.0000
vt 0.2662 0.1090 0.0000
vt 0.2662 0.0872 0.0000
vt 0.3774 0.0872 0.0000
vt 0.3741 0.1090 0.0000
vt 0.4752 0.0872 0.0000
vt 0.4690 0.1090 0.0000
vt 0.2979 0.2027 0.0000
vt 0.2963 0.1802 0.0000
vt 0.4035 0.1802 0.0000
vt 0.4019 0.2027 0.0000
vt 0.5118 0.3282 0.0000
vt 0.5070 0.3062 0.0000
vt 0.6142 0.3062 0.0000
vt 0.6159 0.3282 0.0000
vt 0.7283 0.3062 0.0000
vt 0.7266 0.3282 0.0000
vt 0.8356 0.3062 0.0000
vt 0.8307 0.3282 0.0000
vt 0.1656 0.1561 0.0000
vt 0.1640 0.1336 0.0000
vt 0.2712 0.1336 0.0000
vt 0.2696 0.1561 0.0000
vt 0.5074 0.1060 0.0000
vt 0.5012 0.0842 0.0000
vt 0.5990 0.0842 0.0000
vt 0.6023 0.1060 0.0000
vt 0.7102 0.0842 0.0000
vt 0.7102 0.1060 0.0000
vt 0.8214 0.0842 0.0000
vt 0.8182 0.1060 0.0000
vt 0.9192 0.0842 0.0000
vt 0.9131 0.1060 0.0000
vt 0.1614 0.1978 0.0000
vt 0.1598 0.1753 0.0000
vt 0.2670 0.1753 0.0000
vt 0.2654 0.1978 0.0000
vt 0.5118 0.2173 0.0000
vt 0.5070 0.1953 0.0000
vt 0.6142 0.1953 0.0000
vt 0.6159 0.2173 0.0000
vt 0.7283 0.1953 0.0000
vt 0.7266 0.2173 0.0000
vt 0.8356 0.1953 0.0000
vt 0.8307 0.2173 0.0000
vt 0.2912 0.1595 0.0000
vt 0.2896 0.1370 0.0000
vt 0.3968 0.1370 0.0000
vt 0.3952 0.1595 0.0000
vt 0.0633 0.1090 0.0000
vt 0.0572 0.0872 0.0000
vt 0.1550 0.0872 0.0000
vt 0.1582 0.1090 0.0000
vt 0.2662 0.0386 0.0000
vt 0.3774 0.0386 0.0000
vt 0.4752 0.0386 0.0000
vt 0.4196 0.2571 0.0000
vt 0.5070 0.2571 0.0000
vt 0.4196 0.3062 0.0000
vt 0.6142 0.2571 0.0000
vt 0.7283 0.2571 0.0000
vt 0.8356 0.2571 0.0000
vt 0.9230 0.2571 0.0000
vt 0.9230 0.3062 0.0000
vt 0.5012 0.0356 0.0000
vt 0.5990 0.0356 0.0000
vt 0.7102 0.0356 0.0000
vt 0.8214 0.0356 0.0000
vt 0.9192 0.0356 0.0000
vt 0.4196 0.1462 0.0000
vt 0.5070 0.1462 0.0000
vt 0.4196 0.1953 0.0000
vt 0.6142 0.1462 0.0000
vt 0.7283 0.1462 0.0000
vt 0.8356 0.1462 0.0000
vt 0.9230 0.1462 0.0000
vt 0.9230 0.1953 0.0000
vt 0.0572 0.0386 0.0000
vt 0.1550 0.0386 0.0000
vt 0.9098 0.6714 0.0000
vt 0.8915 0.7751 0.0000
vt 0.8742 0.7688 0.0000
vt 0.8913 0.6714 0.0000
vt 0.8389 0.8663 0.0000
vt 0.8247 0.8544 0.0000
vt 0.7582 0.9340 0.0000
vt 0.7490 0.9180 0.0000
vt 0.6593 0.9700 0.0000
vt 0.6561 0.9518 0.0000
vt 0.5540 0.9700 0.0000
vt 0.5572 0.9518 0.0000
vt 0.4551 0.9340 0.0000
vt 0.4643 0.9180 0.0000
vt 0.3744 0.8663 0.0000
vt 0.3886 0.8544 0.0000
vt 0.3218 0.7751 0.0000
vt 0.3391 0.7688 0.0000
vt 0.3035 0.6714 0.0000
vt 0.3219 0.6714 0.0000
vt 0.3218 0.5677 0.0000
vt 0.3391 0.5741 0.0000
vt 0.3744 0.4766 0.0000
vt 0.3886 0.4884 0.0000
vt 0.4551 0.4089 0.0000
vt 0.4643 0.4249 0.0000
vt 0.5540 0.3729 0.0000
vt 0.5572 0.3910 0.0000
vt 0.6593 0.3729 0.0000
vt 0.6561 0.3910 0.0000
vt 0.7582 0.4089 0.0000
vt 0.7490 0.4249 0.0000
vt 0.8389 0.4766 0.0000
vt 0.8247 0.4884 0.0000
vt 0.8915 0.5677 0.0000
vt 0.8742 0.5741 0.0000
vt 0.3652 0.4529 0.0000
vt 0.3360 0.5035 0.0000
vt 0.2912 0.5410 0.0000
vt 0.2364 0.5610 0.0000
vt 0.1780 0.5610 0.0000
vt 0.1231 0.5410 0.0000
vt 0.0783 0.5035 0.0000
vt 0.0491 0.4529 0.0000
vt 0.0390 0.3954 0.0000
vt 0.0491 0.3379 0.0000
vt 0.0783 0.2873 0.0000
vt 0.1231 0.2498 0.0000
vt 0.1780 0.2298 0.0000
vt 0.2364 0.2298 0.0000
vt 0.2912 0.2498 0.0000
vt 0.3360 0.2873 0.0000
vt 0.3652 0.3379 0.0000
vt 0.3753 0.3954 0.0000
# 150 texture coords

g gameButtonOff
usemtl gameButtonOffComplete
s 1
f 1/1/1 2/2/2 3/3/3 
f 3/3/3 4/4/4 5/5/5 
f 5/5/5 6/6/6 7/7/7 
f 3/3/3 5/5/5 7/7/7 
f 7/7/7 8/8/8 9/9/9 
f 9/9/9 10/10/10 11/11/11 
f 7/7/7 9/9/9 11/11/11 
f 11/11/11 12/12/12 13/13/13 
f 13/13/13 14/14/14 15/15/15 
f 11/11/11 13/13/13 15/15/15 
f 7/7/7 11/11/11 15/15/15 
f 3/3/3 7/7/7 15/15/15 
f 15/15/15 16/16/16 17/17/17 
f 3/3/3 15/15/15 17/17/17 
f 1/1/1 3/3/3 17/17/17 
f 18/18/18 1/1/1 17/17/17 
f 19/19/19 20/20/20 21/21/21 
f 21/21/21 22/22/22 19/19/19 
f 22/22/22 21/21/21 23/23/23 
f 23/23/23 24/24/24 22/22/22 
f 24/25/24 23/26/23 25/27/25 
f 25/27/25 26/28/26 24/25/24 
f 26/29/26 25/30/25 27/31/27 
f 27/31/27 28/32/28 26/29/26 
f 28/32/28 27/31/27 29/33/29 
f 29/33/29 30/34/30 28/32/28 
f 30/34/30 29/33/29 31/35/31 
f 31/35/31 32/36/32 30/34/30 
f 32/37/32 31/38/31 33/39/33 
f 33/39/33 34/40/34 32/37/32 
f 34/41/34 33/42/33 35/43/35 
f 35/43/35 36/44/36 34/41/34 
f 36/44/36 35/43/35 37/45/37 
f 37/45/37 38/46/38 36/44/36 
f 38/46/38 37/45/37 39/47/39 
f 39/47/39 40/48/40 38/46/38 
f 40/48/40 39/47/39 41/49/41 
f 41/49/41 42/50/42 40/48/40 
f 42/51/42 41/52/41 43/53/43 
f 43/53/43 44/54/44 42/51/42 
f 44/55/44 43/56/43 45/57/45 
f 45/57/45 46/58/46 44/55/44 
f 46/58/46 45/57/45 47/59/47 
f 47/59/47 48/60/48 46/58/46 
f 48/60/48 47/59/47 49/61/49 
f 49/61/49 50/62/50 48/60/48 
f 50/63/50 49/64/49 51/65/51 
f 51/65/51 52/66/52 50/63/50 
f 52/67/52 51/68/51 53/69/53 
f 53/69/53 54/70/54 52/67/52 
f 54/70/54 53/69/53 20/20/20 
f 20/20/20 19/19/19 54/70/54 
f 55/71/55 56/72/56 21/21/21 
f 21/21/21 20/20/20 55/71/55 
f 56/72/56 57/73/57 23/23/23 
f 23/23/23 21/21/21 56/72/56 
f 57/74/57 58/75/58 25/30/25 
f 25/30/25 23/76/23 57/74/57 
f 58/75/58 59/77/59 27/31/27 
f 27/31/27 25/30/25 58/75/58 
f 59/77/59 60/78/60 29/33/29 
f 29/33/29 27/31/27 59/77/59 
f 60/78/60 61/79/61 31/35/31 
f 31/35/31 29/33/29 60/78/60 
f 61/79/61 62/80/62 33/81/33 
f 33/81/33 31/35/31 61/79/61 
f 62/82/62 63/83/63 35/43/35 
f 35/43/35 33/42/33 62/82/62 
f 63/83/63 64/84/64 37/45/37 
f 37/45/37 35/43/35 63/83/63 
f 64/84/64 65/85/65 39/47/39 
f 39/47/39 37/45/37 64/84/64 
f 65/85/65 66/86/66 41/49/41 
f 41/49/41 39/47/39 65/85/65 
f 66/87/66 67/88/67 43/56/43 
f 43/56/43 41/89/41 66/87/66 
f 67/88/67 68/90/68 45/57/45 
f 45/57/45 43/56/43 67/88/67 
f 68/90/68 69/91/69 47/59/47 
f 47/59/47 45/57/45 68/90/68 
f 69/91/69 70/92/70 49/61/49 
f 49/61/49 47/59/47 69/91/69 
f 70/92/70 71/93/71 51/94/51 
f 51/94/51 49/61/49 70/92/70 
f 71/95/71 72/96/72 53/69/53 
f 53/69/53 51/68/51 71/95/71 
f 72/96/72 55/71/55 20/20/20 
f 20/20/20 53/69/53 72/96/72 
f 19/97/19 22/98/22 73/99/73 
f 73/99/73 74/100/74 19/97/19 
f 22/98/22 24/101/24 75/102/75 
f 75/102/75 73/99/73 22/98/22 
f 24/101/24 26/103/26 76/104/76 
f 76/104/76 75/102/75 24/101/24 
f 26/103/26 28/105/28 77/106/77 
f 77/106/77 76/104/76 26/103/26 
f 28/105/28 30/107/30 78/108/78 
f 78/108/78 77/106/77 28/105/28 
f 30/107/30 32/109/32 79/110/79 
f 79/110/79 78/108/78 30/107/30 
f 32/109/32 34/111/34 80/112/80 
f 80/112/80 79/110/79 32/109/32 
f 34/111/34 36/113/36 81/114/81 
f 81/114/81 80/112/80 34/111/34 
f 36/113/36 38/115/38 82/116/82 
f 82/116/82 81/114/81 36/113/36 
f 38/115/38 40/117/40 83/118/83 
f 83/118/83 82/116/82 38/115/38 
f 40/117/40 42/119/42 84/120/84 
f 84/120/84 83/118/83 40/117/40 
f 42/119/42 44/121/44 85/122/85 
f 85/122/85 84/120/84 42/119/42 
f 44/121/44 46/123/46 86/124/86 
f 86/124/86 85/122/85 44/121/44 
f 46/123/46 48/125/48 87/126/87 
f 87/126/87 86/124/86 46/123/46 
f 48/125/48 50/127/50 88/128/88 
f 88/128/88 87/126/87 48/125/48 
f 50/127/50 52/129/52 89/130/89 
f 89/130/89 88/128/88 50/127/50 
f 52/129/52 54/131/54 90/132/90 
f 90/132/90 89/130/89 52/129/52 
f 54/131/54 19/97/19 74/100/74 
f 74/100/74 90/132/90 54/131/54 
f 74/100/74 73/99/73 1/1/1 
f 1/1/1 18/18/18 74/100/74 
f 73/99/73 75/102/75 2/2/2 
f 2/2/2 1/1/1 73/99/73 
f 75/102/75 76/104/76 3/3/3 
f 3/3/3 2/2/2 75/102/75 
f 76/104/76 77/106/77 4/4/4 
f 4/4/4 3/3/3 76/104/76 
f 77/106/77 78/108/78 5/5/5 
f 5/5/5 4/4/4 77/106/77 
f 78/108/78 79/110/79 6/6/6 
f 6/6/6 5/5/5 78/108/78 
f 79/110/79 80/112/80 7/7/7 
f 7/7/7 6/6/6 79/110/79 
f 80/112/80 81/114/81 8/8/8 
f 8/8/8 7/7/7 80/112/80 
f 81/114/81 82/116/82 9/9/9 
f 9/9/9 8/8/8 81/114/81 
f 82/116/82 83/118/83 10/10/10 
f 10/10/10 9/9/9 82/116/82 
f 83/118/83 84/120/84 11/11/11 
f 11/11/11 10/10/10 83/118/83 
f 84/120/84 85/122/85 12/12/12 
f 12/12/12 11/11/11 84/120/84 
f 85/122/85 86/124/86 13/13/13 
f 13/13/13 12/12/12 85/122/85 
f 86/124/86 87/126/87 14/14/14 
f 14/14/14 13/13/13 86/124/86 
f 87/126/87 88/128/88 15/15/15 
f 15/15/15 14/14/14 87/126/87 
f 88/128/88 89/130/89 16/16/16 
f 16/16/16 15/15/15 88/128/88 
f 89/130/89 90/132/90 17/17/17 
f 17/17/17 16/16/16 89/130/89 
f 90/132/90 74/100/74 18/18/18 
f 18/18/18 17/17/17 90/132/90 
s 2
f 72/133/91 71/134/92 70/135/91 
f 70/135/91 69/136/93 68/137/93 
f 68/137/93 67/138/92 66/139/93 
f 70/135/91 68/137/93 66/139/93 
f 66/139/93 65/140/93 64/141/93 
f 64/141/93 63/142/93 62/143/93 
f 66/139/93 64/141/93 62/143/93 
f 62/143/93 61/144/94 60/145/91 
f 60/145/91 59/146/91 58/147/93 
f 62/143/93 60/145/91 58/147/93 
f 66/139/93 62/143/93 58/147/93 
f 70/135/91 66/139/93 58/147/93 
f 58/147/93 57/148/93 56/149/91 
f 70/135/91 58/147/93 56/149/91 
f 72/133/91 70/135/91 56/149/91 
f 55/150/91 72/133/91 56/149/91 
# 176 faces

