# 3ds Max Wavefront OBJ Exporter v0.97b - (c)2007 guruware
# File Created: 02.02.2016 08:22:34

mtllib mole.mtl

#
# object Object001
#

v  3.7563 -1.5247 -1.5560
v  4.0659 -1.5247 -0.0000
v  4.0659 -9.7834 -0.0000
v  -2.8750 -9.7834 2.8750
v  -2.8750 -1.5247 2.8750
v  -3.7563 -1.5247 1.5559
v  2.8750 -9.7834 -2.8750
v  2.8750 -1.5247 -2.8750
v  -1.5559 -9.7834 3.7563
v  -1.5559 -1.5247 3.7563
v  1.5559 -1.5247 -3.7564
v  0.0000 -1.5247 4.0658
v  -1.5559 -9.7834 -3.7564
v  -1.5559 -1.5247 -3.7564
v  0.0000 -1.5247 -4.0658
v  0.0000 -9.7834 -4.0658
v  1.5559 -9.7834 3.7563
v  1.5559 -1.5247 3.7563
v  -2.8750 -1.5247 -2.8750
v  2.8750 -1.5247 2.8750
v  -3.7563 -9.7834 -1.5560
v  -3.7563 -1.5247 -1.5560
v  3.7563 -9.7834 1.5559
v  3.7563 -1.5247 1.5559
v  -4.0659 -1.5247 -0.0000
v  -4.0659 -9.7834 -0.0000
v  3.6592 0.0000 -0.0000
v  3.3807 0.0000 1.4003
v  -3.3807 0.0000 1.4003
v  -3.6592 0.0000 -0.0000
v  3.3807 0.0000 -1.4004
v  -2.5875 0.0000 2.5875
v  2.5875 0.0000 -2.5875
v  -1.4003 0.0000 3.3807
v  1.4003 0.0000 -3.3807
v  0.0000 0.0000 3.6593
v  -1.4003 0.0000 -3.3807
v  0.0000 0.0000 -3.6593
v  1.4003 0.0000 3.3807
v  -2.5875 0.0000 -2.5875
v  2.5875 0.0000 2.5875
v  -3.3807 0.0000 -1.4004
v  -2.0700 1.2706 -2.0700
v  -1.1203 1.2706 -2.7046
v  2.0700 1.2706 2.0700
v  1.1203 1.2706 2.7045
v  -2.7046 1.2706 -1.1203
v  2.7046 1.2706 1.1203
v  -2.9274 2.0023 -0.0000
v  2.9274 2.0023 -0.0000
v  -2.7046 1.2706 1.1203
v  2.7046 1.2706 -1.1203
v  -2.0700 1.2706 2.0700
v  2.0700 1.2706 -2.0700
v  -1.1203 1.2706 2.7045
v  1.1203 1.2706 -2.7046
v  0.0000 1.2706 2.9274
v  0.0000 1.2706 -2.9274
v  -0.6049 2.1600 1.4604
v  -1.1178 2.1600 1.1178
v  0.6049 2.1600 -1.4605
v  1.1178 2.1600 -1.1178
v  0.0000 2.1600 1.5808
v  -0.6049 2.1600 -1.4605
v  0.0000 2.1600 -1.5808
v  0.6049 2.1600 1.4604
v  -1.1178 2.1600 -1.1178
v  1.1178 2.1600 1.1178
v  -1.4605 2.1600 -0.6049
v  1.4605 2.1600 0.6050
v  -1.5808 2.7726 -0.0000
v  1.5808 2.7726 -0.0000
v  -1.4605 2.1600 0.6050
v  1.4605 2.1600 -0.6049
v  0.7904 2.4141 -0.0000
v  0.7302 2.4141 0.3024
v  -0.7303 2.4141 0.3024
v  -0.7904 2.4141 -0.0000
v  0.7302 2.4141 -0.3025
v  -0.5589 2.4141 0.5589
v  0.5589 2.4141 -0.5589
v  -0.3025 2.4141 0.7302
v  0.3025 2.4141 -0.7302
v  0.0000 2.4141 0.7904
v  -0.3025 2.4141 -0.7302
v  0.0000 2.4141 -0.7904
v  0.3025 2.4141 0.7302
v  -0.5589 2.4141 -0.5589
v  0.5589 2.4141 0.5589
v  -0.7303 2.4141 -0.3025
v  0.0000 2.4141 -0.0000
v  3.7563 -9.7834 -1.5560
v  -3.7563 -9.7834 1.5559
v  1.5559 -9.7834 -3.7564
v  0.0000 -9.7834 4.0658
v  -2.8750 -9.7834 -2.8750
v  2.8750 -9.7834 2.8750
# 97 vertices

vn 0.9163 0.1279 -0.3796
vn 0.9918 0.1279 0.0000
vn 1.0000 0.0000 0.0000
vn -0.7071 0.0000 0.7071
vn -0.7013 0.1279 0.7013
vn -0.9163 0.1279 0.3795
vn 0.7071 0.0000 -0.7071
vn 0.7013 0.1279 -0.7013
vn -0.3827 0.0000 0.9239
vn -0.3795 0.1279 0.9163
vn 0.3795 0.1279 -0.9163
vn 0.0000 0.1279 0.9918
vn -0.3827 0.0000 -0.9239
vn -0.3795 0.1279 -0.9163
vn -0.0000 0.1279 -0.9918
vn 0.0000 0.0000 -1.0000
vn 0.3827 0.0000 0.9239
vn 0.3795 0.1279 0.9163
vn -0.7013 0.1279 -0.7013
vn 0.7013 0.1279 0.7013
vn -0.9239 0.0000 -0.3827
vn -0.9163 0.1279 -0.3795
vn 0.9239 0.0000 0.3827
vn 0.9163 0.1279 0.3795
vn -0.9918 0.1279 0.0000
vn -1.0000 0.0000 0.0000
vn 0.9392 0.3435 -0.0000
vn 0.8561 0.3761 0.3546
vn -0.8561 0.3760 0.3546
vn -0.9392 0.3435 -0.0000
vn 0.8561 0.3761 -0.3546
vn -0.6552 0.3760 0.6552
vn 0.6552 0.3761 -0.6552
vn -0.3546 0.3760 0.8561
vn 0.3546 0.3761 -0.8561
vn 0.0000 0.3760 0.9266
vn -0.3546 0.3760 -0.8561
vn 0.0000 0.3760 -0.9266
vn 0.3546 0.3761 0.8561
vn -0.6552 0.3760 -0.6552
vn 0.6552 0.3761 0.6552
vn -0.8561 0.3761 -0.3546
vn -0.5242 0.6712 -0.5242
vn -0.2837 0.6712 -0.6849
vn 0.5242 0.6712 0.5242
vn 0.2837 0.6712 0.6849
vn -0.6760 0.6072 -0.4176
vn 0.6760 0.6072 0.4176
vn -0.6938 0.7201 -0.0000
vn 0.6938 0.7201 -0.0000
vn -0.6760 0.6072 0.4176
vn 0.6760 0.6072 -0.4176
vn -0.5242 0.6712 0.5242
vn 0.5242 0.6712 -0.5242
vn -0.2837 0.6712 0.6849
vn 0.2837 0.6712 -0.6849
vn 0.0000 0.6712 0.7413
vn 0.0000 0.6712 -0.7413
vn -0.1707 0.8949 0.4122
vn -0.3155 0.8949 0.3155
vn 0.1708 0.8949 -0.4122
vn 0.3155 0.8949 -0.3155
vn 0.0000 0.8949 0.4462
vn -0.1708 0.8949 -0.4122
vn 0.0000 0.8949 -0.4462
vn 0.1707 0.8949 0.4122
vn -0.3155 0.8949 -0.3155
vn 0.3155 0.8949 0.3155
vn -0.2711 0.8476 -0.4562
vn 0.2711 0.8476 0.4562
vn -0.0703 0.9975 -0.0000
vn 0.0703 0.9975 -0.0000
vn -0.2711 0.8476 0.4562
vn 0.2711 0.8476 -0.4563
vn 0.0018 1.0000 -0.0000
vn 0.1605 0.9848 0.0665
vn -0.1605 0.9848 0.0665
vn -0.0018 1.0000 -0.0000
vn 0.1605 0.9848 -0.0665
vn -0.1228 0.9848 0.1228
vn 0.1228 0.9848 -0.1228
vn -0.0665 0.9848 0.1605
vn 0.0665 0.9848 -0.1605
vn 0.0000 0.9848 0.1737
vn -0.0665 0.9848 -0.1605
vn 0.0000 0.9848 -0.1737
vn 0.0665 0.9848 0.1605
vn -0.1228 0.9848 -0.1228
vn 0.1228 0.9848 0.1228
vn -0.1605 0.9848 -0.0665
vn 0.0000 1.0000 -0.0000
vn 0.9239 0.0000 -0.3827
vn -0.9239 0.0000 0.3827
vn 0.3827 0.0000 -0.9239
vn 0.0000 0.0000 1.0000
vn -0.7071 0.0000 -0.7071
vn 0.7071 0.0000 0.7071
# 97 vertex normals

vt 0.6446 0.7623 0.0000
vt 0.6300 0.7578 0.0000
vt 0.6421 0.6800 0.0000
vt 0.5482 0.6755 0.0000
vt 0.5549 0.7516 0.0000
vt 0.5422 0.7541 0.0000
vt 0.4210 0.6700 0.0000
vt 0.4224 0.7455 0.0000
vt 0.4077 0.7473 0.0000
vt 0.5639 0.6739 0.0000
vt 0.5673 0.7501 0.0000
vt 0.4360 0.7444 0.0000
vt 0.5795 0.7496 0.0000
vt 0.4654 0.6704 0.0000
vt 0.4625 0.7449 0.0000
vt 0.4493 0.7442 0.0000
vt 0.4506 0.6698 0.0000
vt 0.5957 0.6740 0.0000
vt 0.5918 0.7501 0.0000
vt 0.4761 0.7465 0.0000
vt 0.6041 0.7516 0.0000
vt 0.4949 0.6718 0.0000
vt 0.4908 0.7487 0.0000
vt 0.6267 0.6777 0.0000
vt 0.6167 0.7542 0.0000
vt 0.5289 0.7576 0.0000
vt 0.5142 0.7619 0.0000
vt 0.5020 0.6819 0.0000
vt 0.5174 0.6796 0.0000
vt 0.6246 0.7716 0.0000
vt 0.6129 0.7668 0.0000
vt 0.5459 0.7668 0.0000
vt 0.5342 0.7715 0.0000
vt 0.6371 0.7782 0.0000
vt 0.5572 0.7640 0.0000
vt 0.4248 0.7595 0.0000
vt 0.4115 0.7634 0.0000
vt 0.5684 0.7624 0.0000
vt 0.4372 0.7575 0.0000
vt 0.5796 0.7619 0.0000
vt 0.4609 0.7579 0.0000
vt 0.4491 0.7570 0.0000
vt 0.5907 0.7624 0.0000
vt 0.4732 0.7604 0.0000
vt 0.6018 0.7639 0.0000
vt 0.4864 0.7647 0.0000
vt 0.5216 0.7780 0.0000
vt 0.4688 0.7732 0.0000
vt 0.4588 0.7703 0.0000
vt 0.5991 0.7755 0.0000
vt 0.5895 0.7743 0.0000
vt 0.4791 0.7787 0.0000
vt 0.6083 0.7786 0.0000
vt 0.5436 0.7874 0.0000
vt 0.5319 0.7905 0.0000
vt 0.6150 0.7874 0.0000
vt 0.5504 0.7787 0.0000
vt 0.6267 0.7906 0.0000
vt 0.5597 0.7758 0.0000
vt 0.4288 0.7727 0.0000
vt 0.4184 0.7779 0.0000
vt 0.5694 0.7745 0.0000
vt 0.4389 0.7700 0.0000
vt 0.5796 0.7742 0.0000
vt 0.4488 0.7692 0.0000
vt 0.5704 0.7902 0.0000
vt 0.5630 0.7904 0.0000
vt 0.4419 0.7850 0.0000
vt 0.4357 0.7876 0.0000
vt 0.5791 0.7920 0.0000
vt 0.4550 0.7850 0.0000
vt 0.4485 0.7842 0.0000
vt 0.5879 0.7901 0.0000
vt 0.4614 0.7876 0.0000
vt 0.5954 0.7901 0.0000
vt 0.4671 0.7921 0.0000
vt 0.6021 0.7920 0.0000
vt 0.5505 0.7965 0.0000
vt 0.5445 0.8012 0.0000
vt 0.6080 0.7965 0.0000
vt 0.5564 0.7921 0.0000
vt 0.6140 0.8013 0.0000
vt 0.4301 0.7918 0.0000
vt 0.6030 0.8024 0.0000
vt 0.5990 0.8006 0.0000
vt 0.5593 0.8007 0.0000
vt 0.5553 0.8024 0.0000
vt 0.6055 0.8057 0.0000
vt 0.5637 0.8000 0.0000
vt 0.4410 0.7959 0.0000
vt 0.4382 0.7988 0.0000
vt 0.5681 0.8007 0.0000
vt 0.4445 0.7940 0.0000
vt 0.5724 0.8029 0.0000
vt 0.4523 0.7941 0.0000
vt 0.4484 0.7935 0.0000
vt 0.5902 0.8007 0.0000
vt 0.5860 0.8030 0.0000
vt 0.4559 0.7960 0.0000
vt 0.5946 0.8000 0.0000
vt 0.4586 0.7991 0.0000
vt 0.5529 0.8057 0.0000
vt 0.4483 0.8043 0.0000
vt 0.5951 0.8114 0.0000
vt 0.5632 0.8114 0.0000
vt 0.6574 0.6825 0.0000
vt 0.5327 0.6774 0.0000
vt 0.4062 0.6703 0.0000
vt 0.4358 0.6698 0.0000
vt 0.5798 0.6728 0.0000
vt 0.4801 0.6710 0.0000
vt 0.6113 0.6757 0.0000
# 112 texture coords

g Object001
usemtl mokewhack
s 1
f 1/1/1 2/2/2 3/3/3 
f 4/4/4 5/5/5 6/6/6 
f 7/7/7 8/8/8 1/9/1 
f 9/10/9 10/11/10 5/5/5 
f 11/12/11 8/8/8 7/7/7 
f 12/13/12 10/11/10 9/10/9 
f 13/14/13 14/15/14 15/16/15 
f 16/17/16 15/16/15 11/12/11 
f 17/18/17 18/19/18 12/13/12 
f 19/20/19 14/15/14 13/14/13 
f 20/21/20 18/19/18 17/18/17 
f 21/22/21 22/23/22 19/20/19 
f 23/24/23 24/25/24 20/21/20 
f 25/26/25 22/27/22 21/28/21 
f 2/2/2 24/25/24 23/24/23 
f 6/6/6 25/26/25 26/29/26 
f 27/30/27 28/31/28 24/25/24 
f 29/32/29 30/33/30 25/26/25 
f 1/1/1 31/34/31 27/30/27 
f 5/5/5 32/35/32 29/32/29 
f 33/36/33 31/37/31 1/9/1 
f 34/38/34 32/35/32 5/5/5 
f 11/12/11 35/39/35 33/36/33 
f 36/40/36 34/38/34 10/11/10 
f 37/41/37 38/42/38 15/16/15 
f 15/16/15 38/42/38 35/39/35 
f 18/19/18 39/43/39 36/40/36 
f 40/44/40 37/41/37 14/15/14 
f 20/21/20 41/45/41 39/43/39 
f 22/23/22 42/46/42 40/44/40 
f 24/25/24 28/31/28 41/45/41 
f 25/26/25 30/33/30 42/47/42 
f 43/48/43 44/49/44 37/41/37 
f 41/45/41 45/50/45 46/51/46 
f 47/52/47 43/48/43 40/44/40 
f 28/31/28 48/53/48 45/50/45 
f 30/33/30 49/54/49 47/55/47 
f 27/30/27 50/56/50 48/53/48 
f 51/57/51 49/54/49 30/33/30 
f 52/58/52 50/56/50 27/30/27 
f 53/59/53 51/57/51 29/32/29 
f 54/60/54 52/61/52 31/37/31 
f 34/38/34 55/62/55 53/59/53 
f 35/39/35 56/63/56 54/60/54 
f 57/64/57 55/62/55 34/38/34 
f 37/41/37 44/49/44 58/65/58 
f 58/65/58 56/63/56 35/39/35 
f 46/51/46 57/64/57 36/40/36 
f 55/62/55 59/66/59 60/67/60 
f 56/63/56 61/68/61 62/69/62 
f 63/70/63 59/66/59 55/62/55 
f 64/71/64 65/72/65 58/65/58 
f 58/65/58 65/72/65 61/68/61 
f 46/51/46 66/73/66 63/70/63 
f 67/74/67 64/71/64 44/49/44 
f 68/75/68 66/73/66 46/51/46 
f 69/76/69 67/74/67 43/48/43 
f 48/53/48 70/77/70 68/75/68 
f 49/54/49 71/78/71 69/79/69 
f 50/56/50 72/80/72 70/77/70 
f 73/81/73 71/78/71 49/54/49 
f 74/82/74 72/80/72 50/56/50 
f 60/67/60 73/81/73 51/57/51 
f 54/60/54 62/69/62 74/83/74 
f 75/84/75 76/85/76 70/77/70 
f 73/81/73 77/86/77 78/87/78 
f 74/82/74 79/88/79 75/84/75 
f 80/89/80 77/86/77 73/81/73 
f 62/69/62 81/90/81 79/91/79 
f 59/66/59 82/92/82 80/89/80 
f 83/93/83 81/90/81 62/69/62 
f 63/70/63 84/94/84 82/92/82 
f 85/95/85 86/96/86 65/72/65 
f 65/72/65 86/96/86 83/93/83 
f 66/73/66 87/97/87 84/98/84 
f 67/74/67 88/99/88 85/95/85 
f 89/100/89 87/97/87 66/73/66 
f 90/101/90 88/99/88 67/74/67 
f 70/77/70 76/85/76 89/100/89 
f 78/87/78 90/102/90 69/79/69 
f 88/99/88 91/103/91 85/95/85 
f 89/100/89 91/104/91 87/97/87 
f 90/101/90 91/103/91 88/99/88 
f 76/85/76 91/104/91 89/100/89 
f 78/87/78 91/105/91 90/102/90 
f 75/84/75 91/104/91 76/85/76 
f 77/86/77 91/105/91 78/87/78 
f 79/88/79 91/104/91 75/84/75 
f 80/89/80 91/105/91 77/86/77 
f 81/90/81 91/103/91 79/91/79 
f 82/92/82 91/105/91 80/89/80 
f 83/93/83 91/103/91 81/90/81 
f 84/94/84 91/105/91 82/92/82 
f 85/95/85 91/103/91 86/96/86 
f 86/96/86 91/103/91 83/93/83 
f 87/97/87 91/104/91 84/98/84 
f 92/106/92 1/1/1 3/3/3 
f 93/107/93 4/4/4 6/6/6 
f 92/108/92 7/7/7 1/9/1 
f 4/4/4 9/10/9 5/5/5 
f 94/109/94 11/12/11 7/7/7 
f 95/110/95 12/13/12 9/10/9 
f 16/17/16 13/14/13 15/16/15 
f 94/109/94 16/17/16 11/12/11 
f 95/110/95 17/18/17 12/13/12 
f 96/111/96 19/20/19 13/14/13 
f 97/112/97 20/21/20 17/18/17 
f 96/111/96 21/22/21 19/20/19 
f 97/112/97 23/24/23 20/21/20 
f 26/29/26 25/26/25 21/28/21 
f 3/3/3 2/2/2 23/24/23 
f 93/107/93 6/6/6 26/29/26 
f 2/2/2 27/30/27 24/25/24 
f 6/6/6 29/32/29 25/26/25 
f 2/2/2 1/1/1 27/30/27 
f 6/6/6 5/5/5 29/32/29 
f 8/8/8 33/36/33 1/9/1 
f 10/11/10 34/38/34 5/5/5 
f 8/8/8 11/12/11 33/36/33 
f 12/13/12 36/40/36 10/11/10 
f 14/15/14 37/41/37 15/16/15 
f 11/12/11 15/16/15 35/39/35 
f 12/13/12 18/19/18 36/40/36 
f 19/20/19 40/44/40 14/15/14 
f 18/19/18 20/21/20 39/43/39 
f 19/20/19 22/23/22 40/44/40 
f 20/21/20 24/25/24 41/45/41 
f 22/27/22 25/26/25 42/47/42 
f 40/44/40 43/48/43 37/41/37 
f 39/43/39 41/45/41 46/51/46 
f 42/46/42 47/52/47 40/44/40 
f 41/45/41 28/31/28 45/50/45 
f 42/47/42 30/33/30 47/55/47 
f 28/31/28 27/30/27 48/53/48 
f 29/32/29 51/57/51 30/33/30 
f 31/34/31 52/58/52 27/30/27 
f 32/35/32 53/59/53 29/32/29 
f 33/36/33 54/60/54 31/37/31 
f 32/35/32 34/38/34 53/59/53 
f 33/36/33 35/39/35 54/60/54 
f 36/40/36 57/64/57 34/38/34 
f 38/42/38 37/41/37 58/65/58 
f 38/42/38 58/65/58 35/39/35 
f 39/43/39 46/51/46 36/40/36 
f 53/59/53 55/62/55 60/67/60 
f 54/60/54 56/63/56 62/69/62 
f 57/64/57 63/70/63 55/62/55 
f 44/49/44 64/71/64 58/65/58 
f 56/63/56 58/65/58 61/68/61 
f 57/64/57 46/51/46 63/70/63 
f 43/48/43 67/74/67 44/49/44 
f 45/50/45 68/75/68 46/51/46 
f 47/52/47 69/76/69 43/48/43 
f 45/50/45 48/53/48 68/75/68 
f 47/55/47 49/54/49 69/79/69 
f 48/53/48 50/56/50 70/77/70 
f 51/57/51 73/81/73 49/54/49 
f 52/58/52 74/82/74 50/56/50 
f 53/59/53 60/67/60 51/57/51 
f 52/61/52 54/60/54 74/83/74 
f 72/80/72 75/84/75 70/77/70 
f 71/78/71 73/81/73 78/87/78 
f 72/80/72 74/82/74 75/84/75 
f 60/67/60 80/89/80 73/81/73 
f 74/83/74 62/69/62 79/91/79 
f 60/67/60 59/66/59 80/89/80 
f 61/68/61 83/93/83 62/69/62 
f 59/66/59 63/70/63 82/92/82 
f 64/71/64 85/95/85 65/72/65 
f 61/68/61 65/72/65 83/93/83 
f 63/70/63 66/73/66 84/98/84 
f 64/71/64 67/74/67 85/95/85 
f 68/75/68 89/100/89 66/73/66 
f 69/76/69 90/101/90 67/74/67 
f 68/75/68 70/77/70 89/100/89 
f 71/78/71 78/87/78 69/79/69 
# 176 faces

