# 3ds Max Wavefront OBJ Exporter v0.97b - (c)2007 guruware
# File Created: 04.02.2016 15:51:13

mtllib hawktrailb.mtl

#
# object Sphere001
#

v  4.1063 -1.1706 -4.9916
v  4.1063 0.0620 -4.9916
v  2.9976 1.1706 -4.9916
v  -3.3043 1.1706 -4.9916
v  -3.8328 -1.1706 -4.9916
v  4.6161 -2.1706 0.0060
v  4.6161 0.6746 0.0060
v  4.6161 0.6746 -3.4978
v  4.6161 -2.1706 -3.4978
v  3.1201 2.1706 0.0060
v  3.1201 2.1706 -3.4978
v  -3.6362 2.1706 0.0060
v  -3.6362 2.1706 -3.4978
v  -4.6161 -2.1706 0.0060
v  -4.6161 -2.1706 -3.4978
v  -3.8328 -1.1706 1.4998
v  -3.3043 1.1706 1.4998
v  2.9976 1.1706 1.4998
v  4.1063 0.0620 1.4998
v  4.1063 -1.1706 1.4998
# 20 vertices

vn 0.3765 -0.3765 -0.8465
vn 0.4636 0.2840 -0.8393
vn 0.1206 0.5021 -0.8564
vn -0.2967 0.4559 -0.8391
vn -0.4095 -0.2665 -0.8725
vn 0.6693 -0.6693 0.3226
vn 0.8142 0.4988 0.2973
vn 0.8142 0.4988 -0.2973
vn 0.6693 -0.6693 -0.3226
vn 0.2239 0.9320 0.2851
vn 0.2239 0.9320 -0.2851
vn -0.5205 0.7996 0.2994
vn -0.5205 0.7996 -0.2994
vn -0.7822 -0.5091 0.3592
vn -0.7822 -0.5091 -0.3592
vn -0.4095 -0.2665 0.8725
vn -0.2967 0.4559 0.8391
vn 0.1206 0.5021 0.8564
vn 0.4636 0.2840 0.8393
vn 0.3765 -0.3765 0.8465
# 20 vertex normals

vt 1.0000 5.1554 0.0000
vt 1.0000 9.8585 0.0000
vt -0.5730 12.1395 0.0000
vt -6.4757 12.1395 0.0000
vt -6.4757 5.1554 0.0000
# 5 texture coords

g Sphere001
usemtl wire_225087143
s 1
f 3/3/3 2/2/2 1/1/1 
f 4/4/4 3/3/3 1/1/1 
f 5/5/5 4/4/4 1/1/1 
f 8/2/8 7/2/7 6/1/6 
f 6/1/6 9/1/9 8/2/8 
f 11/3/11 10/3/10 7/2/7 
f 7/2/7 8/2/8 11/3/11 
f 13/4/13 12/4/12 10/3/10 
f 10/3/10 11/3/11 13/4/13 
f 15/5/15 14/5/14 12/4/12 
f 12/4/12 13/4/13 15/5/15 
f 9/1/9 6/1/6 14/5/14 
f 14/5/14 15/5/15 9/1/9 
f 18/3/18 17/4/17 16/5/16 
f 19/2/19 18/3/18 16/5/16 
f 19/2/19 16/5/16 20/1/20 
f 2/2/2 8/2/8 9/1/9 
f 9/1/9 1/1/1 2/2/2 
f 3/3/3 11/3/11 8/2/8 
f 8/2/8 2/2/2 3/3/3 
f 4/4/4 13/4/13 11/3/11 
f 11/3/11 3/3/3 4/4/4 
f 5/5/5 15/5/15 13/4/13 
f 13/4/13 4/4/4 5/5/5 
f 1/1/1 9/1/9 15/5/15 
f 15/5/15 5/5/5 1/1/1 
f 20/1/20 6/1/6 7/2/7 
f 7/2/7 19/2/19 20/1/20 
f 16/5/16 14/5/14 6/1/6 
f 6/1/6 20/1/20 16/5/16 
f 17/4/17 12/4/12 14/5/14 
f 14/5/14 16/5/16 17/4/17 
f 18/3/18 10/3/10 12/4/12 
f 12/4/12 17/4/17 18/3/18 
f 19/2/19 7/2/7 10/3/10 
f 10/3/10 18/3/18 19/2/19 
# 36 faces

