# 3ds Max Wavefront OBJ Exporter v0.97b - (c)2007 guruware
# File Created: 21.08.2015 10:41:47

mtllib car_offsets.mtl

#
# object Plane001
#

v  -6.6925 4.5403 -12.1386
v  -5.9119 3.9407 7.5309
v  0.0991 7.9420 -3.8947
v  5.6814 3.9407 7.5309
v  6.7449 4.5403 -12.1386
# 5 vertices

vn -0.4915 0.8697 0.0460
vn 0.0000 0.9438 0.3305
vn 0.5069 0.8603 0.0536
vn -0.0000 0.9244 -0.3814
# 4 vertex normals

vt 0.0000 10.0000 0.0000
vt 0.0000 0.0000 0.0000
vt 5.0000 5.0000 0.0000
vt 10.0000 0.0000 0.0000
vt 10.0000 10.0000 0.0000
# 5 texture coords

g Plane001
usemtl wire_227153153
s off
f 1/1/1 2/2/1 3/3/1 
f 2/2/2 4/4/2 3/3/2 
f 4/4/3 5/5/3 3/3/3 
f 5/5/4 1/1/4 3/3/4 
# 0 polygons - 4 triangles

