# 3ds Max Wavefront OBJ Exporter v0.97b - (c)2007 guruware
# File Created: 22.08.2015 17:13:31

mtllib e.mtl

#
# object Object010
#

v  4.2218 -5.7956 1.2958
v  2.7263 -8.7170 1.2958
v  2.7263 -8.7170 -1.2958
v  4.2218 -5.7956 -1.2958
v  -5.9396 -5.7956 1.2958
v  -5.9396 -5.7956 -1.2958
v  -3.4556 -1.0837 1.2958
v  -3.4556 -1.0837 -1.2958
v  5.5986 -1.0837 1.2958
v  5.5986 -1.0837 -1.2958
v  7.0772 1.8376 1.2958
v  7.0772 1.8376 -1.2958
v  -1.9931 1.8376 1.2958
v  -1.9931 1.8376 -1.2958
v  0.0534 5.7956 1.2958
v  0.0534 5.7956 -1.2958
v  9.4065 5.7956 1.2958
v  9.4065 5.7956 -1.2958
v  10.8844 8.7170 1.2958
v  10.8844 8.7170 -1.2958
v  -2.0151 8.7170 1.2958
v  -2.0151 8.7170 -1.2958
v  -10.8844 -8.7170 1.2958
v  -10.8844 -8.7170 -1.2958
# 24 vertices

vn 0.9162 -0.4008 -0.0000
vn 0.0000 1.0000 -0.0000
vn 0.9118 -0.4107 -0.0000
vn 0.0000 -1.0000 -0.0000
vn 0.9178 -0.3970 -0.0000
vn 0.9147 -0.4041 -0.0000
vn 0.9179 -0.3968 -0.0000
vn -0.9171 0.3987 -0.0000
vn 0.0000 0.0000 -1.0000
vn -0.0000 0.0000 -1.0000
vn 0.0000 -0.0000 1.0000
vn -0.0000 -0.0000 1.0000
vn 0.0000 0.0000 1.0000
# 13 vertex normals

vt 0.2941 0.5314 0.0000
vt 0.3112 0.5314 0.0000
vt 0.3112 0.5444 0.0000
vt 0.2941 0.5444 0.0000
vt 0.3399 0.5833 0.0000
vt 0.3399 0.6320 0.0000
vt 0.3275 0.6320 0.0000
vt 0.3275 0.5833 0.0000
vt 0.0503 0.3753 0.0000
vt 0.0779 0.3753 0.0000
vt 0.0779 0.3883 0.0000
vt 0.0503 0.3883 0.0000
vt 0.5967 0.2295 0.0000
vt 0.5533 0.2295 0.0000
vt 0.5533 0.2171 0.0000
vt 0.5967 0.2171 0.0000
vt 0.1155 0.1085 0.0000
vt 0.1326 0.1085 0.0000
vt 0.1326 0.1214 0.0000
vt 0.1155 0.1214 0.0000
vt 0.5392 0.3379 0.0000
vt 0.5826 0.3379 0.0000
vt 0.5826 0.3503 0.0000
vt 0.5392 0.3503 0.0000
vt 0.4172 0.5599 0.0000
vt 0.4172 0.5831 0.0000
vt 0.4042 0.5831 0.0000
vt 0.4042 0.5599 0.0000
vt 0.5506 0.4638 0.0000
vt 0.5058 0.4638 0.0000
vt 0.5058 0.4514 0.0000
vt 0.5506 0.4514 0.0000
vt 0.3890 0.0500 0.0000
vt 0.4061 0.0500 0.0000
vt 0.4061 0.0629 0.0000
vt 0.3890 0.0629 0.0000
vt 0.3870 0.6766 0.0000
vt 0.3252 0.6766 0.0000
vt 0.3252 0.6642 0.0000
vt 0.3870 0.6642 0.0000
vt 0.1594 0.4403 0.0000
vt 0.0573 0.4403 0.0000
vt 0.0573 0.4274 0.0000
vt 0.1594 0.4274 0.0000
vt 0.3218 0.5317 0.0000
vt 0.3870 0.5317 0.0000
vt 0.3870 0.5441 0.0000
vt 0.3218 0.5441 0.0000
vt 0.3733 0.3718 0.0000
vt 0.3807 0.4199 0.0000
vt 0.3635 0.4153 0.0000
vt 0.3535 0.3509 0.0000
vt 0.4566 0.3780 0.0000
vt 0.4012 0.3795 0.0000
vt 0.4660 0.4390 0.0000
vt 0.4487 0.4346 0.0000
vt 0.4419 0.3903 0.0000
vt 0.4185 0.3840 0.0000
vt 0.4078 0.4224 0.0000
vt 0.4251 0.4269 0.0000
vt 0.6523 0.4513 0.0000
vt 0.6347 0.4483 0.0000
vt 0.6584 0.4118 0.0000
vt 0.6344 0.4080 0.0000
vt 0.6100 0.4456 0.0000
vt 0.5924 0.4426 0.0000
vt 0.6261 0.3908 0.0000
vt 0.6957 0.4630 0.0000
vt 0.6781 0.4601 0.0000
vt 0.7046 0.4193 0.0000
vt 0.7312 0.4083 0.0000
vt 0.6759 0.4149 0.0000
# 72 texture coords

g Object010
usemtl wire_227153153
s 1
f 1/1/1 2/2/1 3/3/1 
f 3/3/1 4/4/1 1/1/1 
s 4
f 5/5/2 1/6/2 4/7/2 
f 4/7/2 6/8/2 5/5/2 
s 2
f 7/9/3 5/10/3 6/11/3 
f 6/11/3 8/12/3 7/9/3 
s 4
f 9/13/4 7/14/4 8/15/4 
f 8/15/4 10/16/4 9/13/4 
s 2
f 11/17/5 9/18/5 10/19/5 
f 10/19/5 12/20/5 11/17/5 
s 4
f 13/21/2 11/22/2 12/23/2 
f 12/23/2 14/24/2 13/21/2 
s 2
f 15/25/6 13/26/6 14/27/6 
f 14/27/6 16/28/6 15/25/6 
s 4
f 17/29/4 15/30/4 16/31/4 
f 16/31/4 18/32/4 17/29/4 
s 2
f 19/33/7 17/34/7 18/35/7 
f 18/35/7 20/36/7 19/33/7 
s 4
f 21/37/2 19/38/2 20/39/2 
f 20/39/2 22/40/2 21/37/2 
s 2
f 23/41/8 21/42/8 22/43/8 
f 22/43/8 24/44/8 23/41/8 
s 4
f 2/45/4 23/46/4 24/47/4 
f 24/47/4 3/48/4 2/45/4 
s 16
f 6/49/9 4/50/9 3/51/9 
f 6/49/9 3/51/9 24/52/9 
f 6/49/9 24/52/9 22/53/9 
f 8/54/10 6/49/9 22/53/9 
f 20/55/9 18/56/9 16/57/9 
f 22/53/9 20/55/9 16/57/9 
f 22/53/9 16/57/9 14/58/9 
f 8/54/10 22/53/9 14/58/9 
f 10/59/9 8/54/10 14/58/9 
f 10/59/9 14/58/9 12/60/9 
f 9/61/11 11/62/11 13/63/12 
f 15/64/11 17/65/11 19/66/11 
f 15/64/11 19/66/11 21/67/11 
f 13/63/12 15/64/11 21/67/11 
f 2/68/13 1/69/13 5/70/11 
f 23/71/11 2/68/13 5/70/11 
f 21/67/11 23/71/11 5/70/11 
f 21/67/11 5/70/11 7/72/12 
f 13/63/12 21/67/11 7/72/12 
f 9/61/11 13/63/12 7/72/12 
# 44 faces

