# 3ds Max Wavefront OBJ Exporter v0.97b - (c)2007 guruware
# File Created: 22.08.2015 15:03:38

mtllib frontright2.mtl

#
# object Object013
#

v  -0.6120 -0.6261 3.5509
v  -0.6120 0.7804 3.5202
v  -1.7019 0.8493 3.8308
v  -1.7019 -0.6814 3.8642
v  -0.6120 2.0682 2.9536
v  -1.7019 2.2506 3.2142
v  -0.6120 3.0410 1.9373
v  -1.7019 3.3093 2.1083
v  -0.6120 3.5509 0.6261
v  -1.7019 3.8642 0.6814
v  -0.6120 3.5202 -0.7804
v  -1.7019 3.8308 -0.8493
v  -0.6120 2.9536 -2.0681
v  -1.7019 3.2142 -2.2506
v  -0.6120 1.9373 -3.0410
v  -1.7019 2.1083 -3.3093
v  -0.6120 0.6261 -3.5509
v  -1.7019 0.6814 -3.8642
v  -0.6120 -0.7804 -3.5202
v  -1.7019 -0.8493 -3.8308
v  -0.6120 -2.0681 -2.9536
v  -1.7019 -2.2506 -3.2142
v  -0.6120 -3.0410 -1.9373
v  -1.7019 -3.3093 -2.1083
v  -0.6120 -3.5509 -0.6261
v  -1.7019 -3.8642 -0.6814
v  -0.6120 -3.5202 0.7804
v  -1.7019 -3.8308 0.8493
v  -0.6120 -2.9536 2.0682
v  -1.7019 -3.2142 2.2506
v  -0.6120 -1.9373 3.0410
v  -1.7019 -2.1083 3.3093
v  -2.7918 0.8493 3.8308
v  -2.7918 -0.6814 3.8642
v  -2.7918 2.2506 3.2142
v  -2.7918 3.3093 2.1083
v  -2.7918 3.8642 0.6814
v  -2.7918 3.8308 -0.8493
v  -2.7918 3.2142 -2.2506
v  -2.7918 2.1083 -3.3093
v  -2.7918 0.6814 -3.8642
v  -2.7918 -0.8493 -3.8308
v  -2.7918 -2.2506 -3.2142
v  -2.7918 -3.3093 -2.1083
v  -2.7918 -3.8642 -0.6814
v  -2.7918 -3.8308 0.8493
v  -2.7918 -3.2142 2.2506
v  -2.7918 -2.1083 3.3093
v  -3.8818 0.7804 3.5202
v  -3.8818 -0.6261 3.5509
v  -3.8818 2.0681 2.9536
v  -3.8818 3.0410 1.9373
v  -3.8818 3.5509 0.6261
v  -3.8818 3.5202 -0.7804
v  -3.8818 2.9536 -2.0681
v  -3.8818 1.9373 -3.0410
v  -3.8818 0.6261 -3.5509
v  -3.8818 -0.7804 -3.5202
v  -3.8818 -2.0681 -2.9536
v  -3.8818 -3.0410 -1.9373
v  -3.8818 -3.5509 -0.6261
v  -3.8818 -3.5202 0.7804
v  -3.8818 -2.9536 2.0682
v  -3.8818 -1.9373 3.0410
v  0.0000 -2.0561 1.4397
v  0.0000 -2.4505 0.5433
v  0.0000 -2.4719 -0.4359
v  -0.0000 -2.1169 -1.3486
v  -0.0000 -1.4397 -2.0561
v  -0.0000 -0.5433 -2.4505
v  -0.0000 0.4359 -2.4719
v  -0.0000 1.3486 -2.1169
v  -0.0000 2.0561 -1.4397
v  -0.0000 2.4505 -0.5433
v  -0.0000 2.4719 0.4359
v  0.0000 2.1169 1.3486
v  0.0000 1.4397 2.0561
v  0.0000 0.5433 2.4505
v  0.0000 -0.4359 2.4719
v  0.0000 -1.3486 2.1169
v  -3.8918 0.2723 1.2281
v  -3.8918 0.7215 1.0305
v  -3.8918 1.0610 0.6759
v  -3.8918 1.2388 0.2184
v  -3.8918 1.2281 -0.2723
v  -3.8918 1.0305 -0.7215
v  -3.8918 0.6759 -1.0609
v  -3.8918 0.2184 -1.2388
v  -3.8918 -0.2723 -1.2281
v  -3.8918 -0.7215 -1.0305
v  -3.8918 -1.0610 -0.6759
v  -3.8918 -1.2388 -0.2184
v  -3.8918 -1.2281 0.2723
v  -3.8918 -1.0305 0.7215
v  -3.8918 -0.6759 1.0610
v  -3.8918 -0.2184 1.2388
v  -4.4938 0.5433 2.4505
v  -4.4938 -0.4359 2.4719
v  -4.4938 1.4397 2.0561
v  -4.4938 2.1169 1.3486
v  -4.4938 2.4719 0.4359
v  -4.4938 2.4505 -0.5433
v  -4.4938 2.0561 -1.4397
v  -4.4938 1.3486 -2.1169
v  -4.4938 0.4359 -2.4719
v  -4.4938 -0.5433 -2.4505
v  -4.4938 -1.4397 -2.0561
v  -4.4938 -2.1169 -1.3486
v  -4.4938 -2.4719 -0.4359
v  -4.4938 -2.4505 0.5433
v  -4.4938 -2.0561 1.4397
v  -4.4938 -1.3486 2.1169
v  -4.4938 0.4078 1.8393
v  -4.4938 -0.3272 1.8554
v  -4.4938 1.0806 1.5433
v  -4.4938 1.5889 1.0123
v  -4.4938 1.8554 0.3272
v  -4.4938 1.5433 -1.0806
v  -4.4938 1.8393 -0.4078
v  -4.4938 1.0123 -1.5889
v  -4.4938 0.3272 -1.8554
v  -4.4938 -0.4078 -1.8393
v  -4.4938 -1.0806 -1.5433
v  -4.4938 -1.5889 -1.0123
v  -4.4938 -1.8554 -0.3271
v  -4.4938 -1.5433 1.0806
v  -4.4938 -1.8393 0.4078
v  -4.4938 -1.0123 1.5889
v  -5.3968 1.6890 -0.5520
v  -5.3740 1.6661 0.4138
v  -5.0471 1.3393 -0.3874
v  -5.0300 1.3222 0.3375
v  -5.3962 -1.8140 0.5522
v  -5.3725 -1.7903 -0.4133
v  -5.0485 -1.4663 0.3869
v  -5.0307 -1.4485 -0.3378
# 136 vertices

vn 0.6010 -0.1388 0.7871
vn 0.6010 0.1730 0.7803
vn 0.1391 0.2143 0.9668
vn 0.1391 -0.1720 0.9752
vn 0.6010 0.4584 0.6547
vn 0.1391 0.5680 0.8112
vn 0.6010 0.6740 0.4294
vn 0.1391 0.8352 0.5321
vn 0.6010 0.7871 0.1388
vn 0.1391 0.9752 0.1720
vn 0.6010 0.7803 -0.1730
vn 0.1391 0.9668 -0.2143
vn 0.6010 0.6547 -0.4584
vn 0.1391 0.8112 -0.5680
vn 0.6010 0.4294 -0.6740
vn 0.1391 0.5321 -0.8352
vn 0.6010 0.1388 -0.7871
vn 0.1391 0.1720 -0.9752
vn 0.6010 -0.1730 -0.7803
vn 0.1391 -0.2143 -0.9668
vn 0.6010 -0.4584 -0.6547
vn 0.1391 -0.5680 -0.8112
vn 0.6010 -0.6740 -0.4294
vn 0.1391 -0.8352 -0.5321
vn 0.6010 -0.7871 -0.1388
vn 0.1391 -0.9752 -0.1720
vn 0.6010 -0.7803 0.1730
vn 0.1391 -0.9668 0.2143
vn 0.6010 -0.6547 0.4584
vn 0.1391 -0.8112 0.5680
vn 0.6010 -0.4294 0.6740
vn 0.1391 -0.5321 0.8352
vn -0.1391 0.2143 0.9668
vn -0.1391 -0.1720 0.9752
vn -0.1391 0.5680 0.8112
vn -0.1391 0.8352 0.5321
vn -0.1391 0.9752 0.1720
vn -0.1391 0.9668 -0.2143
vn -0.1391 0.8112 -0.5680
vn -0.1391 0.5321 -0.8352
vn -0.1391 0.1720 -0.9752
vn -0.1391 -0.2143 -0.9668
vn -0.1391 -0.5680 -0.8112
vn -0.1391 -0.8352 -0.5321
vn -0.1391 -0.9752 -0.1720
vn -0.1391 -0.9668 0.2143
vn -0.1391 -0.8112 0.5680
vn -0.1391 -0.5321 0.8352
vn -0.6010 0.1730 0.7803
vn -0.6010 -0.1388 0.7871
vn -0.6010 0.4584 0.6547
vn -0.6010 0.6740 0.4294
vn -0.6010 0.7871 0.1388
vn -0.6010 0.7803 -0.1730
vn -0.6010 0.6547 -0.4584
vn -0.6010 0.4294 -0.6740
vn -0.6010 0.1388 -0.7871
vn -0.6010 -0.1730 -0.7803
vn -0.6010 -0.4584 -0.6547
vn -0.6010 -0.6740 -0.4294
vn -0.6010 -0.7871 -0.1388
vn -0.6010 -0.7803 0.1730
vn -0.6010 -0.6547 0.4584
vn -0.6010 -0.4294 0.6740
vn 1.0000 0.0000 -0.0000
vn 1.0000 -0.0000 -0.0000
vn -0.9110 -0.0892 -0.4026
vn -0.9110 -0.2365 -0.3378
vn -0.9110 -0.3478 -0.2216
vn -0.9110 -0.4061 -0.0716
vn -0.9110 -0.4026 0.0892
vn -0.9110 -0.3378 0.2365
vn -0.9110 -0.2216 0.3478
vn -0.9110 -0.0716 0.4061
vn -0.9110 0.0892 0.4026
vn -0.9110 0.2365 0.3378
vn -0.9110 0.3478 0.2216
vn -0.9110 0.4061 0.0716
vn -0.9110 0.4026 -0.0892
vn -0.9110 0.3378 -0.2365
vn -0.9110 0.2216 -0.3478
vn -0.9110 0.0716 -0.4061
vn 0.8730 -0.0847 0.4802
vn 0.8730 0.1055 0.4761
vn 0.8730 -0.2620 0.4113
vn 0.8730 -0.3995 0.2797
vn 0.8730 -0.4761 0.1055
vn 0.8730 -0.4802 -0.0847
vn 0.8730 -0.4113 -0.2620
vn 0.8730 -0.2797 -0.3995
vn 0.8730 -0.1055 -0.4761
vn 0.8730 0.0847 -0.4802
vn 0.8730 0.2620 -0.4113
vn 0.8730 0.3995 -0.2797
vn 0.8730 0.4761 -0.1055
vn 0.8730 0.4802 0.0847
vn 0.8730 0.4113 0.2620
vn 0.8730 0.2797 0.3995
vn -0.9597 0.0608 0.2743
vn -0.9597 -0.0488 0.2767
vn -0.9597 0.1611 0.2301
vn -0.9597 0.2370 0.1510
vn -0.8856 0.4617 0.0493
vn -0.8824 0.4662 -0.0638
vn -0.9597 0.2301 -0.1611
vn -0.9597 0.1510 -0.2370
vn -0.9597 0.0488 -0.2767
vn -0.9597 -0.0608 -0.2743
vn -0.9597 -0.1611 -0.2301
vn -0.9597 -0.2370 -0.1510
vn -0.8765 -0.4788 -0.0500
vn -0.8726 -0.4842 0.0647
vn -0.9597 -0.2301 0.1611
vn -0.9597 -0.1510 0.2370
vn -0.9432 -0.0719 -0.3242
vn -0.9432 0.0577 -0.3271
vn -0.9432 -0.1905 -0.2720
vn -0.9432 -0.2801 -0.1784
vn -0.8889 -0.4512 -0.0796
vn -0.9432 -0.2720 0.1905
vn -0.8889 -0.4473 0.0992
vn -0.9432 -0.1784 0.2801
vn -0.9432 -0.0577 0.3271
vn -0.9432 0.0719 0.3242
vn -0.9432 0.1905 0.2720
vn -0.9432 0.2801 0.1784
vn -0.8889 0.4512 0.0796
vn -0.9432 0.2720 -0.1905
vn -0.8889 0.4473 -0.0992
vn -0.9432 0.1784 -0.2801
vn -0.6622 0.7493 0.0115
vn -0.6753 0.7368 0.0334
vn 0.1824 -0.2251 -0.9571
vn 0.1576 -0.2137 -0.9641
vn 0.3293 -0.1043 -0.9385
vn 0.2766 -0.1610 -0.9474
vn 0.6882 -0.7255 -0.0083
vn 0.7052 -0.7089 0.0155
vn 0.6875 -0.7261 -0.0092
vn 0.6694 -0.7422 -0.0334
vn 0.1296 -0.1545 0.9795
vn 0.1331 -0.1721 0.9760
vn 0.1689 -0.0697 0.9832
vn 0.2041 -0.0192 0.9788
vn -0.5964 -0.8026 -0.0104
vn -0.6131 -0.7893 -0.0345
vn 0.1481 0.2361 0.9604
vn 0.1082 0.2152 0.9706
vn 0.3159 0.1153 0.9417
vn 0.2697 0.1718 0.9475
vn 0.5798 0.8147 0.0095
vn 0.6041 0.7967 -0.0174
vn 0.5823 0.8130 0.0068
vn 0.5568 0.8299 0.0341
vn 0.1078 0.1570 -0.9817
vn 0.1087 0.1726 -0.9790
vn 0.1593 0.0754 -0.9843
vn 0.1952 0.0274 -0.9804
vn -0.9999 -0.0041 0.0154
vn -0.9997 -0.0060 0.0235
vn -0.9999 0.0035 -0.0164
vn -0.9997 0.0054 -0.0244
vn 0.9999 -0.0049 -0.0158
vn 0.9997 -0.0071 -0.0238
vn 0.9999 0.0041 0.0167
vn 0.9997 0.0063 0.0247
# 166 vertex normals

vt 0.3341 0.6766 0.0000
vt 0.3341 0.6878 0.0000
vt 0.3254 0.6883 0.0000
vt 0.3254 0.6762 0.0000
vt 0.3341 0.6980 0.0000
vt 0.3254 0.6995 0.0000
vt 0.2434 0.8944 0.0000
vt 0.2328 0.8941 0.0000
vt 0.2326 0.8855 0.0000
vt 0.2441 0.8858 0.0000
vt 0.2624 0.7525 0.0000
vt 0.2624 0.7421 0.0000
vt 0.2711 0.7425 0.0000
vt 0.2711 0.7538 0.0000
vt 0.2624 0.7309 0.0000
vt 0.2711 0.7304 0.0000
vt 0.2624 0.7207 0.0000
vt 0.2711 0.7192 0.0000
vt 0.0722 0.6591 0.0000
vt 0.0616 0.6592 0.0000
vt 0.0610 0.6506 0.0000
vt 0.0726 0.6505 0.0000
vt 0.3341 0.7294 0.0000
vt 0.3341 0.7398 0.0000
vt 0.3254 0.7393 0.0000
vt 0.3254 0.7280 0.0000
vt 0.3341 0.7509 0.0000
vt 0.3254 0.7515 0.0000
vt 0.3341 0.7612 0.0000
vt 0.3254 0.7626 0.0000
vt 0.0447 0.9290 0.0000
vt 0.0553 0.9293 0.0000
vt 0.0555 0.9378 0.0000
vt 0.0440 0.9375 0.0000
vt 0.3341 0.8001 0.0000
vt 0.3341 0.8105 0.0000
vt 0.3254 0.8101 0.0000
vt 0.3254 0.7987 0.0000
vt 0.3341 0.8217 0.0000
vt 0.3254 0.8222 0.0000
vt 0.3341 0.8319 0.0000
vt 0.3254 0.8333 0.0000
vt 0.3088 0.6116 0.0000
vt 0.3194 0.6115 0.0000
vt 0.3199 0.6200 0.0000
vt 0.3084 0.6201 0.0000
vt 0.3341 0.6662 0.0000
vt 0.3254 0.6649 0.0000
vt 0.3168 0.6883 0.0000
vt 0.3168 0.6762 0.0000
vt 0.3168 0.6995 0.0000
vt 0.2711 0.7626 0.0000
vt 0.2797 0.7538 0.0000
vt 0.2797 0.7626 0.0000
vt 0.2797 0.7425 0.0000
vt 0.2797 0.7304 0.0000
vt 0.2797 0.7192 0.0000
vt 0.3254 0.7192 0.0000
vt 0.3168 0.7280 0.0000
vt 0.3168 0.7192 0.0000
vt 0.3168 0.7393 0.0000
vt 0.3168 0.7515 0.0000
vt 0.3168 0.7626 0.0000
vt 0.3254 0.7900 0.0000
vt 0.3168 0.7987 0.0000
vt 0.3168 0.7900 0.0000
vt 0.3168 0.8101 0.0000
vt 0.3168 0.8222 0.0000
vt 0.3168 0.8333 0.0000
vt 0.3254 0.6561 0.0000
vt 0.3168 0.6649 0.0000
vt 0.3168 0.6561 0.0000
vt 0.3081 0.6878 0.0000
vt 0.3081 0.6766 0.0000
vt 0.3081 0.6980 0.0000
vt 0.2448 0.8774 0.0000
vt 0.2323 0.8770 0.0000
vt 0.2330 0.8692 0.0000
vt 0.2445 0.8695 0.0000
vt 0.2884 0.7421 0.0000
vt 0.2884 0.7525 0.0000
vt 0.2884 0.7309 0.0000
vt 0.2884 0.7207 0.0000
vt 0.0730 0.6420 0.0000
vt 0.0604 0.6422 0.0000
vt 0.0608 0.6343 0.0000
vt 0.0724 0.6342 0.0000
vt 0.3081 0.7398 0.0000
vt 0.3081 0.7294 0.0000
vt 0.3081 0.7509 0.0000
vt 0.3081 0.7612 0.0000
vt 0.0432 0.9459 0.0000
vt 0.0558 0.9463 0.0000
vt 0.0550 0.9542 0.0000
vt 0.0435 0.9538 0.0000
vt 0.3081 0.8105 0.0000
vt 0.3081 0.8001 0.0000
vt 0.3081 0.8217 0.0000
vt 0.3081 0.8319 0.0000
vt 0.3080 0.6286 0.0000
vt 0.3205 0.6285 0.0000
vt 0.3201 0.6364 0.0000
vt 0.3086 0.6365 0.0000
vt 0.3081 0.6662 0.0000
vt 0.1648 0.2960 0.0000
vt 0.1716 0.2988 0.0000
vt 0.1769 0.3040 0.0000
vt 0.1797 0.3108 0.0000
vt 0.1797 0.3182 0.0000
vt 0.1769 0.3250 0.0000
vt 0.1717 0.3303 0.0000
vt 0.1649 0.3331 0.0000
vt 0.1575 0.3331 0.0000
vt 0.1507 0.3303 0.0000
vt 0.1454 0.3251 0.0000
vt 0.1426 0.3183 0.0000
vt 0.1426 0.3109 0.0000
vt 0.1454 0.3041 0.0000
vt 0.1506 0.2988 0.0000
vt 0.1574 0.2960 0.0000
vt 0.2120 0.3740 0.0000
vt 0.2083 0.3726 0.0000
vt 0.2055 0.3698 0.0000
vt 0.2039 0.3662 0.0000
vt 0.2039 0.3623 0.0000
vt 0.2053 0.3586 0.0000
vt 0.2081 0.3558 0.0000
vt 0.2117 0.3542 0.0000
vt 0.2156 0.3541 0.0000
vt 0.2193 0.3556 0.0000
vt 0.2221 0.3583 0.0000
vt 0.2237 0.3619 0.0000
vt 0.2238 0.3659 0.0000
vt 0.2223 0.3696 0.0000
vt 0.2196 0.3724 0.0000
vt 0.2159 0.3739 0.0000
vt 0.1355 0.7623 0.0000
vt 0.1435 0.7703 0.0000
vt 0.1362 0.7753 0.0000
vt 0.1306 0.7697 0.0000
vt 0.1479 0.7808 0.0000
vt 0.1392 0.7826 0.0000
vt 0.1479 0.7922 0.0000
vt 0.1392 0.7905 0.0000
vt 0.1436 0.8027 0.0000
vt 0.1362 0.7978 0.0000
vt 0.1356 0.8108 0.0000
vt 0.1306 0.8034 0.0000
vt 0.1251 0.8152 0.0000
vt 0.1233 0.8065 0.0000
vt 0.1137 0.8152 0.0000
vt 0.1154 0.8065 0.0000
vt 0.1031 0.8109 0.0000
vt 0.1080 0.8035 0.0000
vt 0.0951 0.8028 0.0000
vt 0.1024 0.7979 0.0000
vt 0.0907 0.7923 0.0000
vt 0.0994 0.7906 0.0000
vt 0.0907 0.7809 0.0000
vt 0.0994 0.7827 0.0000
vt 0.0950 0.7704 0.0000
vt 0.1024 0.7753 0.0000
vt 0.1030 0.7623 0.0000
vt 0.1080 0.7697 0.0000
vt 0.1135 0.7580 0.0000
vt 0.1153 0.7667 0.0000
vt 0.1249 0.7579 0.0000
vt 0.1232 0.7666 0.0000
vt 0.2556 0.9574 0.0000
vt 0.2554 0.9460 0.0000
vt 0.2642 0.9476 0.0000
vt 0.2643 0.9556 0.0000
vt 0.2596 0.9355 0.0000
vt 0.2671 0.9403 0.0000
vt 0.2676 0.9273 0.0000
vt 0.2726 0.9346 0.0000
vt 0.2780 0.9228 0.0000
vt 0.2799 0.9314 0.0000
vt 0.2894 0.9226 0.0000
vt 0.2878 0.9313 0.0000
vt 0.3000 0.9268 0.0000
vt 0.2952 0.9342 0.0000
vt 0.3082 0.9347 0.0000
vt 0.3009 0.9397 0.0000
vt 0.3127 0.9451 0.0000
vt 0.3040 0.9470 0.0000
vt 0.3129 0.9565 0.0000
vt 0.3041 0.9549 0.0000
vt 0.3087 0.9671 0.0000
vt 0.3012 0.9623 0.0000
vt 0.3007 0.9753 0.0000
vt 0.2957 0.9680 0.0000
vt 0.2903 0.9798 0.0000
vt 0.2884 0.9712 0.0000
vt 0.2789 0.9800 0.0000
vt 0.2805 0.9713 0.0000
vt 0.2683 0.9758 0.0000
vt 0.2731 0.9684 0.0000
vt 0.2601 0.9679 0.0000
vt 0.2674 0.9628 0.0000
vt 0.2181 0.3838 0.0000
vt 0.2102 0.3839 0.0000
vt 0.2111 0.3790 0.0000
vt 0.2170 0.3789 0.0000
vt 0.2029 0.3810 0.0000
vt 0.2056 0.3768 0.0000
vt 0.1972 0.3755 0.0000
vt 0.2014 0.3727 0.0000
vt 0.1941 0.3683 0.0000
vt 0.1990 0.3673 0.0000
vt 0.1940 0.3604 0.0000
vt 0.1969 0.3531 0.0000
vt 0.2011 0.3559 0.0000
vt 0.1989 0.3613 0.0000
vt 0.2024 0.3475 0.0000
vt 0.2052 0.3516 0.0000
vt 0.2096 0.3444 0.0000
vt 0.2106 0.3493 0.0000
vt 0.2174 0.3442 0.0000
vt 0.2165 0.3492 0.0000
vt 0.2248 0.3471 0.0000
vt 0.2220 0.3514 0.0000
vt 0.2304 0.3526 0.0000
vt 0.2263 0.3555 0.0000
vt 0.2335 0.3598 0.0000
vt 0.2286 0.3609 0.0000
vt 0.2336 0.3677 0.0000
vt 0.2307 0.3750 0.0000
vt 0.2265 0.3723 0.0000
vt 0.2287 0.3668 0.0000
vt 0.2253 0.3807 0.0000
vt 0.2224 0.3765 0.0000
vt 0.8452 0.3279 0.0000
vt 0.8366 0.3279 0.0000
vt 0.8366 0.3200 0.0000
vt 0.8450 0.3202 0.0000
vt 0.6242 0.3652 0.0000
vt 0.6289 0.3652 0.0000
vt 0.6328 0.3695 0.0000
vt 0.6301 0.3722 0.0000
vt 0.6100 0.2372 0.0000
vt 0.6099 0.2317 0.0000
vt 0.6156 0.2316 0.0000
vt 0.6156 0.2371 0.0000
vt 0.6538 0.1903 0.0000
vt 0.6586 0.1903 0.0000
vt 0.6524 0.1971 0.0000
vt 0.6497 0.1944 0.0000
vt 0.6156 0.3363 0.0000
vt 0.6239 0.3363 0.0000
vt 0.6240 0.3439 0.0000
vt 0.6158 0.3437 0.0000
vt 0.6205 0.1903 0.0000
vt 0.6253 0.1903 0.0000
vt 0.6281 0.1946 0.0000
vt 0.6255 0.1973 0.0000
vt 0.9410 0.1029 0.0000
vt 0.9410 0.1090 0.0000
vt 0.9365 0.1091 0.0000
vt 0.9364 0.1031 0.0000
vt 0.6575 0.3652 0.0000
vt 0.6622 0.3652 0.0000
vt 0.6570 0.3720 0.0000
vt 0.6543 0.3694 0.0000
vt 0.6583 0.1612 0.0000
vt 0.6584 0.1685 0.0000
vt 0.6322 0.1674 0.0000
vt 0.6320 0.1601 0.0000
vt 0.9019 0.1117 0.0000
vt 0.9020 0.1062 0.0000
vt 0.9231 0.1058 0.0000
vt 0.9229 0.1113 0.0000
# 272 texture coords

g Object013
usemtl wire_227153153
s 1
f 1/1/1 2/2/2 3/3/3 
f 3/3/3 4/4/4 1/1/1 
f 2/2/2 5/5/5 6/6/6 
f 6/6/6 3/3/3 2/2/2 
f 5/7/5 7/8/7 8/9/8 
f 8/9/8 6/10/6 5/7/5 
f 7/11/7 9/12/9 10/13/10 
f 10/13/10 8/14/8 7/11/7 
f 9/12/9 11/15/11 12/16/12 
f 12/16/12 10/13/10 9/12/9 
f 11/15/11 13/17/13 14/18/14 
f 14/18/14 12/16/12 11/15/11 
f 13/19/13 15/20/15 16/21/16 
f 16/21/16 14/22/14 13/19/13 
f 15/23/15 17/24/17 18/25/18 
f 18/25/18 16/26/16 15/23/15 
f 17/24/17 19/27/19 20/28/20 
f 20/28/20 18/25/18 17/24/17 
f 19/27/19 21/29/21 22/30/22 
f 22/30/22 20/28/20 19/27/19 
f 21/31/21 23/32/23 24/33/24 
f 24/33/24 22/34/22 21/31/21 
f 23/35/23 25/36/25 26/37/26 
f 26/37/26 24/38/24 23/35/23 
f 25/36/25 27/39/27 28/40/28 
f 28/40/28 26/37/26 25/36/25 
f 27/39/27 29/41/29 30/42/30 
f 30/42/30 28/40/28 27/39/27 
f 29/43/29 31/44/31 32/45/32 
f 32/45/32 30/46/30 29/43/29 
f 31/47/31 1/1/1 4/4/4 
f 4/4/4 32/48/32 31/47/31 
f 4/4/4 3/3/3 33/49/33 
f 33/49/33 34/50/34 4/4/4 
f 3/3/3 6/6/6 35/51/35 
f 35/51/35 33/49/33 3/3/3 
f 6/52/6 8/14/8 36/53/36 
f 36/53/36 35/54/35 6/52/6 
f 8/14/8 10/13/10 37/55/37 
f 37/55/37 36/53/36 8/14/8 
f 10/13/10 12/16/12 38/56/38 
f 38/56/38 37/55/37 10/13/10 
f 12/16/12 14/18/14 39/57/39 
f 39/57/39 38/56/38 12/16/12 
f 14/58/14 16/26/16 40/59/40 
f 40/59/40 39/60/39 14/58/14 
f 16/26/16 18/25/18 41/61/41 
f 41/61/41 40/59/40 16/26/16 
f 18/25/18 20/28/20 42/62/42 
f 42/62/42 41/61/41 18/25/18 
f 20/28/20 22/30/22 43/63/43 
f 43/63/43 42/62/42 20/28/20 
f 22/64/22 24/38/24 44/65/44 
f 44/65/44 43/66/43 22/64/22 
f 24/38/24 26/37/26 45/67/45 
f 45/67/45 44/65/44 24/38/24 
f 26/37/26 28/40/28 46/68/46 
f 46/68/46 45/67/45 26/37/26 
f 28/40/28 30/42/30 47/69/47 
f 47/69/47 46/68/46 28/40/28 
f 30/70/30 32/48/32 48/71/48 
f 48/71/48 47/72/47 30/70/30 
f 32/48/32 4/4/4 34/50/34 
f 34/50/34 48/71/48 32/48/32 
f 34/50/34 33/49/33 49/73/49 
f 49/73/49 50/74/50 34/50/34 
f 33/49/33 35/51/35 51/75/51 
f 51/75/51 49/73/49 33/49/33 
f 35/76/35 36/77/36 52/78/52 
f 52/78/52 51/79/51 35/76/35 
f 36/53/36 37/55/37 53/80/53 
f 53/80/53 52/81/52 36/53/36 
f 37/55/37 38/56/38 54/82/54 
f 54/82/54 53/80/53 37/55/37 
f 38/56/38 39/57/39 55/83/55 
f 55/83/55 54/82/54 38/56/38 
f 39/84/39 40/85/40 56/86/56 
f 56/86/56 55/87/55 39/84/39 
f 40/59/40 41/61/41 57/88/57 
f 57/88/57 56/89/56 40/59/40 
f 41/61/41 42/62/42 58/90/58 
f 58/90/58 57/88/57 41/61/41 
f 42/62/42 43/63/43 59/91/59 
f 59/91/59 58/90/58 42/62/42 
f 43/92/43 44/93/44 60/94/60 
f 60/94/60 59/95/59 43/92/43 
f 44/65/44 45/67/45 61/96/61 
f 61/96/61 60/97/60 44/65/44 
f 45/67/45 46/68/46 62/98/62 
f 62/98/62 61/96/61 45/67/45 
f 46/68/46 47/69/47 63/99/63 
f 63/99/63 62/98/62 46/68/46 
f 47/100/47 48/101/48 64/102/64 
f 64/102/64 63/103/63 47/100/47 
f 48/71/48 34/50/34 50/74/50 
f 50/74/50 64/104/64 48/71/48 
s off
f 65/105/65 66/106/65 67/107/65 
f 67/107/66 68/108/66 69/109/66 
f 69/109/66 70/110/66 71/111/66 
f 67/107/65 69/109/65 71/111/65 
f 71/111/65 72/112/65 73/113/65 
f 73/113/65 74/114/65 75/115/65 
f 71/111/65 73/113/65 75/115/65 
f 75/115/66 76/116/66 77/117/66 
f 77/117/66 78/118/66 79/119/66 
f 75/115/65 77/117/65 79/119/65 
f 71/111/65 75/115/65 79/119/65 
f 67/107/65 71/111/65 79/119/65 
f 65/105/65 67/107/65 79/119/65 
f 80/120/65 65/105/65 79/119/65 
s 1
f 81/121/67 82/122/68 83/123/69 
f 83/123/69 84/124/70 85/125/71 
f 85/125/71 86/126/72 87/127/73 
f 83/123/69 85/125/71 87/127/73 
f 87/127/73 88/128/74 89/129/75 
f 89/129/75 90/130/76 91/131/77 
f 87/127/73 89/129/75 91/131/77 
f 91/131/77 92/132/78 93/133/79 
f 93/133/79 94/134/80 95/135/81 
f 91/131/77 93/133/79 95/135/81 
f 87/127/73 91/131/77 95/135/81 
f 83/123/69 87/127/73 95/135/81 
f 81/121/67 83/123/69 95/135/81 
f 96/136/82 81/121/67 95/135/81 
f 2/137/2 1/138/1 79/139/83 
f 79/139/83 78/140/84 2/137/2 
f 1/138/1 31/141/31 80/142/85 
f 80/142/85 79/139/83 1/138/1 
f 31/141/31 29/143/29 65/144/86 
f 65/144/86 80/142/85 31/141/31 
f 29/143/29 27/145/27 66/146/87 
f 66/146/87 65/144/86 29/143/29 
f 27/145/27 25/147/25 67/148/88 
f 67/148/88 66/146/87 27/145/27 
f 25/147/25 23/149/23 68/150/89 
f 68/150/89 67/148/88 25/147/25 
f 23/149/23 21/151/21 69/152/90 
f 69/152/90 68/150/89 23/149/23 
f 21/151/21 19/153/19 70/154/91 
f 70/154/91 69/152/90 21/151/21 
f 19/153/19 17/155/17 71/156/92 
f 71/156/92 70/154/91 19/153/19 
f 17/155/17 15/157/15 72/158/93 
f 72/158/93 71/156/92 17/155/17 
f 15/157/15 13/159/13 73/160/94 
f 73/160/94 72/158/93 15/157/15 
f 13/159/13 11/161/11 74/162/95 
f 74/162/95 73/160/94 13/159/13 
f 11/161/11 9/163/9 75/164/96 
f 75/164/96 74/162/95 11/161/11 
f 9/163/9 7/165/7 76/166/97 
f 76/166/97 75/164/96 9/163/9 
f 7/165/7 5/167/5 77/168/98 
f 77/168/98 76/166/97 7/165/7 
f 5/167/5 2/137/2 78/140/84 
f 78/140/84 77/168/98 5/167/5 
f 50/169/50 49/170/49 97/171/99 
f 97/171/99 98/172/100 50/169/50 
f 49/170/49 51/173/51 99/174/101 
f 99/174/101 97/171/99 49/170/49 
f 51/173/51 52/175/52 100/176/102 
f 100/176/102 99/174/101 51/173/51 
f 52/175/52 53/177/53 101/178/103 
f 101/178/103 100/176/102 52/175/52 
f 53/177/53 54/179/54 102/180/104 
f 102/180/104 101/178/103 53/177/53 
f 54/179/54 55/181/55 103/182/105 
f 103/182/105 102/180/104 54/179/54 
f 55/181/55 56/183/56 104/184/106 
f 104/184/106 103/182/105 55/181/55 
f 56/183/56 57/185/57 105/186/107 
f 105/186/107 104/184/106 56/183/56 
f 57/185/57 58/187/58 106/188/108 
f 106/188/108 105/186/107 57/185/57 
f 58/187/58 59/189/59 107/190/109 
f 107/190/109 106/188/108 58/187/58 
f 59/189/59 60/191/60 108/192/110 
f 108/192/110 107/190/109 59/189/59 
f 60/191/60 61/193/61 109/194/111 
f 109/194/111 108/192/110 60/191/60 
f 61/193/61 62/195/62 110/196/112 
f 110/196/112 109/194/111 61/193/61 
f 62/195/62 63/197/63 111/198/113 
f 111/198/113 110/196/112 62/195/62 
f 63/197/63 64/199/64 112/200/114 
f 112/200/114 111/198/113 63/197/63 
f 64/199/64 50/169/50 98/172/100 
f 98/172/100 112/200/114 64/199/64 
f 98/201/100 97/202/99 113/203/115 
f 113/203/115 114/204/116 98/201/100 
f 97/202/99 99/205/101 115/206/117 
f 115/206/117 113/203/115 97/202/99 
f 99/205/101 100/207/102 116/208/118 
f 116/208/118 115/206/117 99/205/101 
f 100/207/102 101/209/103 117/210/119 
f 117/210/119 116/208/118 100/207/102 
f 102/211/104 103/212/105 118/213/120 
f 118/213/120 119/214/121 102/211/104 
f 103/212/105 104/215/106 120/216/122 
f 120/216/122 118/213/120 103/212/105 
f 104/215/106 105/217/107 121/218/123 
f 121/218/123 120/216/122 104/215/106 
f 105/217/107 106/219/108 122/220/124 
f 122/220/124 121/218/123 105/217/107 
f 106/219/108 107/221/109 123/222/125 
f 123/222/125 122/220/124 106/219/108 
f 107/221/109 108/223/110 124/224/126 
f 124/224/126 123/222/125 107/221/109 
f 108/223/110 109/225/111 125/226/127 
f 125/226/127 124/224/126 108/223/110 
f 110/227/112 111/228/113 126/229/128 
f 126/229/128 127/230/129 110/227/112 
f 111/228/113 112/231/114 128/232/130 
f 128/232/130 126/229/128 111/228/113 
f 112/231/114 98/201/100 114/204/116 
f 114/204/116 128/232/130 112/231/114 
f 114/204/116 113/203/115 81/121/67 
f 81/121/67 96/136/82 114/204/116 
f 113/203/115 115/206/117 82/122/68 
f 82/122/68 81/121/67 113/203/115 
f 115/206/117 116/208/118 83/123/69 
f 83/123/69 82/122/68 115/206/117 
f 116/208/118 117/210/119 84/124/70 
f 84/124/70 83/123/69 116/208/118 
f 117/210/119 119/214/121 85/125/71 
f 85/125/71 84/124/70 117/210/119 
f 119/214/121 118/213/120 86/126/72 
f 86/126/72 85/125/71 119/214/121 
f 118/213/120 120/216/122 87/127/73 
f 87/127/73 86/126/72 118/213/120 
f 120/216/122 121/218/123 88/128/74 
f 88/128/74 87/127/73 120/216/122 
f 121/218/123 122/220/124 89/129/75 
f 89/129/75 88/128/74 121/218/123 
f 122/220/124 123/222/125 90/130/76 
f 90/130/76 89/129/75 122/220/124 
f 123/222/125 124/224/126 91/131/77 
f 91/131/77 90/130/76 123/222/125 
f 124/224/126 125/226/127 92/132/78 
f 92/132/78 91/131/77 124/224/126 
f 125/226/127 127/230/129 93/133/79 
f 93/133/79 92/132/78 125/226/127 
f 127/230/129 126/229/128 94/134/80 
f 94/134/80 93/133/79 127/230/129 
f 126/229/128 128/232/130 95/135/81 
f 95/135/81 94/134/80 126/229/128 
f 128/232/130 114/204/116 96/136/82 
f 96/136/82 95/135/81 128/232/130 
f 101/233/103 102/234/104 129/235/131 
f 129/235/131 130/236/132 101/233/103 
s 2
f 102/237/133 119/238/134 131/239/135 
f 131/239/135 129/240/136 102/237/133 
s 4
f 119/241/137 117/242/138 132/243/139 
f 132/243/139 131/244/140 119/241/137 
s 2
f 117/245/141 101/246/142 130/247/143 
f 130/247/143 132/248/144 117/245/141 
s 1
f 109/249/111 110/250/112 133/251/145 
f 133/251/145 134/252/146 109/249/111 
s 2
f 110/253/147 127/254/148 135/255/149 
f 135/255/149 133/256/150 110/253/147 
s 4
f 127/257/151 125/258/152 136/259/153 
f 136/259/153 135/260/154 127/257/151 
s 2
f 125/261/155 109/262/156 134/263/157 
f 134/263/157 136/264/158 125/261/155 
s 4
f 130/265/159 129/266/160 134/267/161 
f 134/267/161 133/268/162 130/265/159 
s 2
f 129/240/136 131/239/135 136/264/158 
f 136/264/158 134/263/157 129/240/136 
s 1
f 131/269/163 132/270/164 135/271/165 
f 135/271/165 136/272/166 131/269/163 
s 2
f 132/248/144 130/247/143 133/256/150 
f 133/256/150 135/255/149 132/248/144 
# 272 faces

