# 3ds Max Wavefront OBJ Exporter v0.97b - (c)2007 guruware
# File Created: 22.08.2015 15:03:27

mtllib frontleft1.mtl

#
# object Object014
#

v  0.8425 -0.6261 3.5509
v  1.9324 -0.6814 3.8642
v  1.9324 0.8493 3.8308
v  0.8425 0.7804 3.5202
v  1.9324 2.2506 3.2142
v  0.8425 2.0681 2.9536
v  1.9324 3.3093 2.1083
v  0.8425 3.0410 1.9373
v  1.9324 3.8642 0.6814
v  0.8425 3.5509 0.6261
v  1.9324 3.8308 -0.8493
v  0.8425 3.5202 -0.7804
v  1.9324 3.2142 -2.2506
v  0.8425 2.9536 -2.0681
v  1.9324 2.1083 -3.3093
v  0.8425 1.9373 -3.0410
v  1.9324 0.6814 -3.8642
v  0.8425 0.6261 -3.5509
v  1.9324 -0.8493 -3.8308
v  0.8425 -0.7804 -3.5202
v  1.9324 -2.2506 -3.2142
v  0.8425 -2.0681 -2.9536
v  1.9324 -3.3093 -2.1083
v  0.8425 -3.0410 -1.9373
v  1.9324 -3.8642 -0.6814
v  0.8425 -3.5509 -0.6261
v  1.9324 -3.8308 0.8493
v  0.8425 -3.5202 0.7804
v  1.9324 -3.2142 2.2506
v  0.8425 -2.9536 2.0682
v  1.9324 -2.1083 3.3093
v  0.8425 -1.9373 3.0410
v  3.0223 -0.6814 3.8642
v  3.0223 0.8493 3.8308
v  3.0223 2.2506 3.2142
v  3.0223 3.3093 2.1083
v  3.0223 3.8642 0.6814
v  3.0223 3.8308 -0.8493
v  3.0223 3.2142 -2.2506
v  3.0223 2.1083 -3.3093
v  3.0223 0.6814 -3.8642
v  3.0223 -0.8493 -3.8308
v  3.0223 -2.2506 -3.2142
v  3.0223 -3.3093 -2.1083
v  3.0223 -3.8642 -0.6814
v  3.0223 -3.8308 0.8493
v  3.0223 -3.2142 2.2506
v  3.0223 -2.1083 3.3093
v  4.1122 -0.6261 3.5509
v  4.1122 0.7804 3.5202
v  4.1122 2.0681 2.9536
v  4.1122 3.0410 1.9373
v  4.1122 3.5509 0.6261
v  4.1122 3.5202 -0.7804
v  4.1122 2.9536 -2.0681
v  4.1122 1.9373 -3.0410
v  4.1122 0.6261 -3.5509
v  4.1122 -0.7804 -3.5202
v  4.1122 -2.0681 -2.9536
v  4.1122 -3.0410 -1.9373
v  4.1122 -3.5509 -0.6261
v  4.1122 -3.5202 0.7804
v  4.1122 -2.9536 2.0682
v  4.1122 -1.9373 3.0410
v  0.2305 -0.4359 2.4719
v  0.2305 0.5433 2.4505
v  0.2305 1.4397 2.0561
v  0.2305 2.1169 1.3486
v  0.2305 2.4719 0.4359
v  0.2305 2.4505 -0.5433
v  0.2305 2.0561 -1.4397
v  0.2305 1.3486 -2.1169
v  0.2305 0.4359 -2.4719
v  0.2305 -0.5433 -2.4505
v  0.2305 -1.4397 -2.0561
v  0.2305 -2.1169 -1.3486
v  0.2305 -2.4719 -0.4359
v  0.2305 -2.4505 0.5433
v  0.2305 -2.0561 1.4397
v  0.2305 -1.3486 2.1169
v  4.1223 -0.6759 1.0610
v  4.1223 -1.0305 0.7215
v  4.1223 -1.2281 0.2723
v  4.1223 -1.2388 -0.2184
v  4.1223 -1.0610 -0.6759
v  4.1223 -0.7215 -1.0305
v  4.1223 -0.2723 -1.2281
v  4.1223 0.2184 -1.2388
v  4.1223 0.6759 -1.0609
v  4.1223 1.0305 -0.7215
v  4.1223 1.2281 -0.2723
v  4.1223 1.2388 0.2184
v  4.1223 1.0610 0.6759
v  4.1223 0.7215 1.0305
v  4.1223 0.2723 1.2281
v  4.1223 -0.2184 1.2389
v  4.7242 -0.4359 2.4719
v  4.7242 0.5433 2.4505
v  4.7242 1.4397 2.0561
v  4.7242 2.1169 1.3486
v  4.7242 2.4719 0.4359
v  4.7242 2.4505 -0.5433
v  4.7242 2.0561 -1.4397
v  4.7242 1.3486 -2.1169
v  4.7242 0.4359 -2.4719
v  4.7242 -0.5433 -2.4505
v  4.7242 -1.4397 -2.0561
v  4.7242 -2.1169 -1.3486
v  4.7242 -2.4719 -0.4359
v  4.7242 -2.4505 0.5433
v  4.7242 -2.0561 1.4397
v  4.7242 -1.3486 2.1169
v  4.7242 -0.3272 1.8554
v  4.7242 0.4078 1.8393
v  4.7242 1.0806 1.5433
v  4.7242 1.5889 1.0123
v  4.7242 1.8554 0.3272
v  4.7242 1.8393 -0.4078
v  4.7242 1.5433 -1.0806
v  4.7242 1.0123 -1.5889
v  4.7242 0.3272 -1.8554
v  4.7242 -0.4078 -1.8393
v  4.7242 -1.0806 -1.5433
v  4.7242 -1.5889 -1.0123
v  4.7242 -1.8554 -0.3271
v  4.7242 -1.8393 0.4078
v  4.7242 -1.5433 1.0806
v  4.7242 -1.0123 1.5889
v  5.6044 1.6661 0.4138
v  5.6273 1.6890 -0.5520
v  5.2776 1.3393 -0.3874
v  5.2605 1.3222 0.3375
v  5.6030 -1.7903 -0.4133
v  5.6267 -1.8140 0.5522
v  5.2790 -1.4663 0.3869
v  5.2612 -1.4485 -0.3378
# 136 vertices

vn -0.6010 -0.1388 0.7871
vn -0.1391 -0.1720 0.9752
vn -0.1391 0.2143 0.9668
vn -0.6010 0.1730 0.7803
vn -0.1391 0.5680 0.8112
vn -0.6010 0.4584 0.6547
vn -0.1391 0.8352 0.5321
vn -0.6010 0.6740 0.4294
vn -0.1391 0.9752 0.1720
vn -0.6010 0.7871 0.1388
vn -0.1391 0.9668 -0.2143
vn -0.6010 0.7803 -0.1730
vn -0.1391 0.8112 -0.5680
vn -0.6010 0.6547 -0.4584
vn -0.1391 0.5321 -0.8352
vn -0.6010 0.4294 -0.6740
vn -0.1391 0.1720 -0.9752
vn -0.6010 0.1388 -0.7871
vn -0.1391 -0.2143 -0.9668
vn -0.6010 -0.1730 -0.7803
vn -0.1391 -0.5680 -0.8112
vn -0.6010 -0.4584 -0.6547
vn -0.1391 -0.8352 -0.5321
vn -0.6010 -0.6740 -0.4294
vn -0.1391 -0.9752 -0.1720
vn -0.6010 -0.7871 -0.1388
vn -0.1391 -0.9668 0.2143
vn -0.6010 -0.7803 0.1730
vn -0.1391 -0.8112 0.5680
vn -0.6010 -0.6547 0.4584
vn -0.1391 -0.5321 0.8352
vn -0.6010 -0.4294 0.6740
vn 0.1391 -0.1720 0.9752
vn 0.1391 0.2143 0.9668
vn 0.1391 0.5680 0.8112
vn 0.1391 0.8352 0.5321
vn 0.1391 0.9752 0.1720
vn 0.1391 0.9668 -0.2143
vn 0.1391 0.8112 -0.5680
vn 0.1391 0.5321 -0.8352
vn 0.1391 0.1720 -0.9752
vn 0.1391 -0.2143 -0.9668
vn 0.1391 -0.5680 -0.8112
vn 0.1391 -0.8352 -0.5321
vn 0.1391 -0.9752 -0.1720
vn 0.1391 -0.9668 0.2143
vn 0.1391 -0.8112 0.5680
vn 0.1391 -0.5321 0.8352
vn 0.6010 -0.1388 0.7871
vn 0.6010 0.1730 0.7803
vn 0.6010 0.4584 0.6547
vn 0.6010 0.6740 0.4294
vn 0.6010 0.7871 0.1388
vn 0.6010 0.7803 -0.1730
vn 0.6010 0.6547 -0.4584
vn 0.6010 0.4294 -0.6740
vn 0.6010 0.1388 -0.7871
vn 0.6010 -0.1730 -0.7803
vn 0.6010 -0.4584 -0.6547
vn 0.6010 -0.6740 -0.4294
vn 0.6010 -0.7871 -0.1388
vn 0.6010 -0.7803 0.1730
vn 0.6010 -0.6547 0.4584
vn 0.6010 -0.4294 0.6740
vn -1.0000 -0.0000 -0.0000
vn -1.0000 0.0000 -0.0000
vn -1.0000 0.0000 0.0000
vn 0.9110 0.2216 -0.3478
vn 0.9110 0.3378 -0.2365
vn 0.9110 0.4026 -0.0892
vn 0.9110 0.4061 0.0716
vn 0.9110 0.3478 0.2216
vn 0.9110 0.2365 0.3378
vn 0.9110 0.0892 0.4026
vn 0.9110 -0.0716 0.4061
vn 0.9110 -0.2216 0.3478
vn 0.9110 -0.3378 0.2365
vn 0.9110 -0.4026 0.0892
vn 0.9110 -0.4061 -0.0716
vn 0.9110 -0.3478 -0.2216
vn 0.9110 -0.2365 -0.3378
vn 0.9110 -0.0892 -0.4026
vn 0.9110 0.0716 -0.4061
vn -0.8730 0.1055 0.4761
vn -0.8730 -0.0847 0.4802
vn -0.8730 -0.2620 0.4113
vn -0.8730 -0.3995 0.2797
vn -0.8730 -0.4761 0.1055
vn -0.8730 -0.4802 -0.0847
vn -0.8730 -0.4113 -0.2620
vn -0.8730 -0.2797 -0.3995
vn -0.8730 -0.1055 -0.4761
vn -0.8730 0.0847 -0.4802
vn -0.8730 0.2620 -0.4113
vn -0.8730 0.3995 -0.2797
vn -0.8730 0.4761 -0.1055
vn -0.8730 0.4802 0.0847
vn -0.8730 0.4113 0.2620
vn -0.8730 0.2797 0.3995
vn 0.9597 -0.0488 0.2767
vn 0.9597 0.0608 0.2743
vn 0.9597 0.1611 0.2301
vn 0.9597 0.2370 0.1510
vn 0.8856 0.4617 0.0493
vn 0.8824 0.4662 -0.0638
vn 0.9597 0.2301 -0.1611
vn 0.9597 0.1510 -0.2370
vn 0.9597 0.0488 -0.2767
vn 0.9597 -0.0608 -0.2743
vn 0.9597 -0.1611 -0.2301
vn 0.9597 -0.2370 -0.1510
vn 0.8765 -0.4788 -0.0500
vn 0.8726 -0.4842 0.0647
vn 0.9597 -0.2301 0.1611
vn 0.9597 -0.1510 0.2370
vn 0.9432 0.0577 -0.3271
vn 0.9432 -0.0719 -0.3242
vn 0.9432 -0.1905 -0.2720
vn 0.9432 -0.2801 -0.1784
vn 0.8889 -0.4512 -0.0796
vn 0.8889 -0.4473 0.0992
vn 0.9432 -0.2720 0.1905
vn 0.9432 -0.1784 0.2801
vn 0.9432 -0.0577 0.3271
vn 0.9432 0.0719 0.3242
vn 0.9432 0.1905 0.2720
vn 0.9432 0.2801 0.1784
vn 0.8889 0.4512 0.0796
vn 0.8889 0.4473 -0.0992
vn 0.9432 0.2720 -0.1905
vn 0.9432 0.1784 -0.2801
vn 0.6753 0.7368 0.0334
vn 0.6622 0.7493 0.0115
vn -0.1824 -0.2251 -0.9571
vn -0.2766 -0.1610 -0.9474
vn -0.3293 -0.1043 -0.9385
vn -0.1576 -0.2137 -0.9641
vn -0.6882 -0.7255 -0.0083
vn -0.6694 -0.7422 -0.0334
vn -0.6875 -0.7261 -0.0092
vn -0.7052 -0.7089 0.0155
vn -0.1296 -0.1545 0.9795
vn -0.2041 -0.0192 0.9788
vn -0.1689 -0.0697 0.9832
vn -0.1331 -0.1721 0.9760
vn 0.6131 -0.7893 -0.0345
vn 0.5964 -0.8026 -0.0104
vn -0.1481 0.2361 0.9604
vn -0.2697 0.1718 0.9475
vn -0.3159 0.1153 0.9417
vn -0.1081 0.2152 0.9706
vn -0.5798 0.8147 0.0095
vn -0.5568 0.8299 0.0341
vn -0.5823 0.8130 0.0068
vn -0.6041 0.7967 -0.0174
vn -0.1078 0.1570 -0.9817
vn -0.1952 0.0274 -0.9804
vn -0.1593 0.0754 -0.9843
vn -0.1087 0.1726 -0.9790
vn 0.9999 -0.0041 0.0154
vn 0.9997 0.0054 -0.0244
vn 0.9999 0.0035 -0.0164
vn 0.9997 -0.0060 0.0235
vn -0.9999 -0.0049 -0.0158
vn -0.9997 0.0063 0.0247
vn -0.9999 0.0041 0.0167
vn -0.9997 -0.0071 -0.0238
# 167 vertex normals

vt 0.2624 0.6766 0.0000
vt 0.2711 0.6762 0.0000
vt 0.2711 0.6883 0.0000
vt 0.2624 0.6878 0.0000
vt 0.2711 0.6995 0.0000
vt 0.2624 0.6980 0.0000
vt 0.2740 0.6116 0.0000
vt 0.2744 0.6201 0.0000
vt 0.2628 0.6200 0.0000
vt 0.2634 0.6115 0.0000
vt 0.3797 0.8232 0.0000
vt 0.3711 0.8245 0.0000
vt 0.3711 0.8132 0.0000
vt 0.3797 0.8128 0.0000
vt 0.3711 0.8011 0.0000
vt 0.3797 0.8016 0.0000
vt 0.3711 0.7900 0.0000
vt 0.3797 0.7914 0.0000
vt 0.1480 0.7284 0.0000
vt 0.1487 0.7370 0.0000
vt 0.1371 0.7373 0.0000
vt 0.1374 0.7287 0.0000
vt 0.3538 0.7294 0.0000
vt 0.3624 0.7280 0.0000
vt 0.3624 0.7393 0.0000
vt 0.3538 0.7398 0.0000
vt 0.3624 0.7515 0.0000
vt 0.3538 0.7509 0.0000
vt 0.3624 0.7626 0.0000
vt 0.3538 0.7612 0.0000
vt 0.1717 0.6285 0.0000
vt 0.1713 0.6199 0.0000
vt 0.1829 0.6200 0.0000
vt 0.1823 0.6286 0.0000
vt 0.1711 0.6587 0.0000
vt 0.1797 0.6573 0.0000
vt 0.1797 0.6686 0.0000
vt 0.1711 0.6691 0.0000
vt 0.1797 0.6808 0.0000
vt 0.1711 0.6802 0.0000
vt 0.1797 0.6919 0.0000
vt 0.1711 0.6905 0.0000
vt 0.0217 0.6489 0.0000
vt 0.0210 0.6404 0.0000
vt 0.0326 0.6401 0.0000
vt 0.0323 0.6487 0.0000
vt 0.2624 0.6662 0.0000
vt 0.2711 0.6649 0.0000
vt 0.2797 0.6762 0.0000
vt 0.2797 0.6883 0.0000
vt 0.2797 0.6995 0.0000
vt 0.3711 0.8333 0.0000
vt 0.3624 0.8333 0.0000
vt 0.3624 0.8245 0.0000
vt 0.3624 0.8132 0.0000
vt 0.3624 0.8011 0.0000
vt 0.3624 0.7900 0.0000
vt 0.3624 0.7192 0.0000
vt 0.3711 0.7192 0.0000
vt 0.3711 0.7280 0.0000
vt 0.3711 0.7393 0.0000
vt 0.3711 0.7515 0.0000
vt 0.3711 0.7626 0.0000
vt 0.1797 0.6485 0.0000
vt 0.1884 0.6485 0.0000
vt 0.1884 0.6573 0.0000
vt 0.1884 0.6686 0.0000
vt 0.1884 0.6808 0.0000
vt 0.1884 0.6919 0.0000
vt 0.2711 0.6561 0.0000
vt 0.2797 0.6561 0.0000
vt 0.2797 0.6649 0.0000
vt 0.2884 0.6766 0.0000
vt 0.2884 0.6878 0.0000
vt 0.2884 0.6980 0.0000
vt 0.2748 0.6286 0.0000
vt 0.2742 0.6365 0.0000
vt 0.2626 0.6364 0.0000
vt 0.2622 0.6285 0.0000
vt 0.3538 0.8232 0.0000
vt 0.3538 0.8128 0.0000
vt 0.3538 0.8016 0.0000
vt 0.3538 0.7914 0.0000
vt 0.1494 0.7454 0.0000
vt 0.1491 0.7533 0.0000
vt 0.1376 0.7536 0.0000
vt 0.1369 0.7458 0.0000
vt 0.3797 0.7294 0.0000
vt 0.3797 0.7398 0.0000
vt 0.3797 0.7509 0.0000
vt 0.3797 0.7612 0.0000
vt 0.1709 0.6114 0.0000
vt 0.1715 0.6036 0.0000
vt 0.1831 0.6037 0.0000
vt 0.1835 0.6116 0.0000
vt 0.1970 0.6587 0.0000
vt 0.1970 0.6691 0.0000
vt 0.1970 0.6802 0.0000
vt 0.1970 0.6905 0.0000
vt 0.0203 0.6320 0.0000
vt 0.0206 0.6241 0.0000
vt 0.0321 0.6238 0.0000
vt 0.0328 0.6316 0.0000
vt 0.2884 0.6662 0.0000
vt 0.1330 0.4226 0.0000
vt 0.1332 0.4300 0.0000
vt 0.1304 0.4369 0.0000
vt 0.1253 0.4422 0.0000
vt 0.1185 0.4451 0.0000
vt 0.1111 0.4452 0.0000
vt 0.1043 0.4425 0.0000
vt 0.0989 0.4374 0.0000
vt 0.0960 0.4306 0.0000
vt 0.0959 0.4232 0.0000
vt 0.0986 0.4163 0.0000
vt 0.1038 0.4110 0.0000
vt 0.1105 0.4081 0.0000
vt 0.1179 0.4080 0.0000
vt 0.1248 0.4107 0.0000
vt 0.1301 0.4158 0.0000
vt 0.2119 0.2519 0.0000
vt 0.2158 0.2519 0.0000
vt 0.2195 0.2534 0.0000
vt 0.2223 0.2562 0.0000
vt 0.2238 0.2598 0.0000
vt 0.2238 0.2638 0.0000
vt 0.2223 0.2674 0.0000
vt 0.2195 0.2702 0.0000
vt 0.2159 0.2717 0.0000
vt 0.2119 0.2717 0.0000
vt 0.2083 0.2702 0.0000
vt 0.2055 0.2675 0.0000
vt 0.2040 0.2638 0.0000
vt 0.2040 0.2599 0.0000
vt 0.2055 0.2562 0.0000
vt 0.2082 0.2534 0.0000
vt 0.0200 0.7702 0.0000
vt 0.0287 0.7717 0.0000
vt 0.0288 0.7797 0.0000
vt 0.0202 0.7815 0.0000
vt 0.0320 0.7870 0.0000
vt 0.0247 0.7920 0.0000
vt 0.0377 0.7925 0.0000
vt 0.0329 0.7999 0.0000
vt 0.0451 0.7954 0.0000
vt 0.0435 0.8041 0.0000
vt 0.0530 0.7953 0.0000
vt 0.0549 0.8039 0.0000
vt 0.0603 0.7921 0.0000
vt 0.0653 0.7994 0.0000
vt 0.0658 0.7864 0.0000
vt 0.0732 0.7912 0.0000
vt 0.0687 0.7791 0.0000
vt 0.0774 0.7807 0.0000
vt 0.0686 0.7711 0.0000
vt 0.0772 0.7693 0.0000
vt 0.0654 0.7639 0.0000
vt 0.0727 0.7588 0.0000
vt 0.0597 0.7583 0.0000
vt 0.0645 0.7509 0.0000
vt 0.0524 0.7554 0.0000
vt 0.0540 0.7467 0.0000
vt 0.0444 0.7555 0.0000
vt 0.0426 0.7469 0.0000
vt 0.0372 0.7587 0.0000
vt 0.0321 0.7514 0.0000
vt 0.0316 0.7644 0.0000
vt 0.0242 0.7596 0.0000
vt 0.2234 0.8502 0.0000
vt 0.2160 0.8551 0.0000
vt 0.2104 0.8495 0.0000
vt 0.2153 0.8421 0.0000
vt 0.2031 0.8465 0.0000
vt 0.2048 0.8378 0.0000
vt 0.1952 0.8465 0.0000
vt 0.1934 0.8378 0.0000
vt 0.1878 0.8496 0.0000
vt 0.1829 0.8422 0.0000
vt 0.1823 0.8552 0.0000
vt 0.1749 0.8503 0.0000
vt 0.1792 0.8625 0.0000
vt 0.1705 0.8608 0.0000
vt 0.1793 0.8705 0.0000
vt 0.1706 0.8722 0.0000
vt 0.1823 0.8778 0.0000
vt 0.1749 0.8827 0.0000
vt 0.1879 0.8834 0.0000
vt 0.1830 0.8908 0.0000
vt 0.1953 0.8864 0.0000
vt 0.1935 0.8951 0.0000
vt 0.2032 0.8864 0.0000
vt 0.2049 0.8951 0.0000
vt 0.2105 0.8833 0.0000
vt 0.2154 0.8907 0.0000
vt 0.2161 0.8777 0.0000
vt 0.2235 0.8826 0.0000
vt 0.2191 0.8704 0.0000
vt 0.2278 0.8721 0.0000
vt 0.2191 0.8624 0.0000
vt 0.2278 0.8607 0.0000
vt 0.2026 0.2451 0.0000
vt 0.2054 0.2493 0.0000
vt 0.2013 0.2535 0.0000
vt 0.1971 0.2507 0.0000
vt 0.1990 0.2589 0.0000
vt 0.1941 0.2579 0.0000
vt 0.1990 0.2648 0.0000
vt 0.1941 0.2658 0.0000
vt 0.2013 0.2703 0.0000
vt 0.1971 0.2731 0.0000
vt 0.2027 0.2786 0.0000
vt 0.2055 0.2744 0.0000
vt 0.2110 0.2767 0.0000
vt 0.2100 0.2816 0.0000
vt 0.2169 0.2767 0.0000
vt 0.2179 0.2816 0.0000
vt 0.2223 0.2744 0.0000
vt 0.2251 0.2786 0.0000
vt 0.2265 0.2702 0.0000
vt 0.2307 0.2730 0.0000
vt 0.2287 0.2647 0.0000
vt 0.2337 0.2657 0.0000
vt 0.2287 0.2588 0.0000
vt 0.2336 0.2579 0.0000
vt 0.2264 0.2534 0.0000
vt 0.2306 0.2506 0.0000
vt 0.2250 0.2450 0.0000
vt 0.2223 0.2492 0.0000
vt 0.2168 0.2470 0.0000
vt 0.2178 0.2421 0.0000
vt 0.2109 0.2470 0.0000
vt 0.2099 0.2421 0.0000
vt 0.8652 0.3630 0.0000
vt 0.8650 0.3707 0.0000
vt 0.8565 0.3709 0.0000
vt 0.8566 0.3630 0.0000
vt 0.6205 0.2659 0.0000
vt 0.6264 0.2590 0.0000
vt 0.6291 0.2617 0.0000
vt 0.6253 0.2659 0.0000
vt 0.8373 0.3118 0.0000
vt 0.8374 0.3062 0.0000
vt 0.8429 0.3062 0.0000
vt 0.8428 0.3119 0.0000
vt 0.6562 0.1286 0.0000
vt 0.6521 0.1244 0.0000
vt 0.6547 0.1218 0.0000
vt 0.6610 0.1286 0.0000
vt 0.6233 0.0497 0.0000
vt 0.6235 0.0423 0.0000
vt 0.6317 0.0421 0.0000
vt 0.6316 0.0497 0.0000
vt 0.6229 0.1286 0.0000
vt 0.6278 0.1216 0.0000
vt 0.6305 0.1243 0.0000
vt 0.6276 0.1286 0.0000
vt 0.6187 0.0734 0.0000
vt 0.6185 0.0781 0.0000
vt 0.6125 0.0779 0.0000
vt 0.6126 0.0734 0.0000
vt 0.6538 0.2659 0.0000
vt 0.6507 0.2618 0.0000
vt 0.6533 0.2591 0.0000
vt 0.6586 0.2659 0.0000
vt 0.6798 0.3637 0.0000
vt 0.7061 0.3626 0.0000
vt 0.7059 0.3699 0.0000
vt 0.6796 0.3710 0.0000
vt 0.8164 0.3116 0.0000
vt 0.8167 0.2905 0.0000
vt 0.8222 0.2904 0.0000
vt 0.8218 0.3114 0.0000
# 272 texture coords

g Object014
usemtl wire_227153153
s 1
f 1/1/1 2/2/2 3/3/3 
f 3/3/3 4/4/4 1/1/1 
f 4/4/4 3/3/3 5/5/5 
f 5/5/5 6/6/6 4/4/4 
f 6/7/6 5/8/5 7/9/7 
f 7/9/7 8/10/8 6/7/6 
f 8/11/8 7/12/7 9/13/9 
f 9/13/9 10/14/10 8/11/8 
f 10/14/10 9/13/9 11/15/11 
f 11/15/11 12/16/12 10/14/10 
f 12/16/12 11/15/11 13/17/13 
f 13/17/13 14/18/14 12/16/12 
f 14/19/14 13/20/13 15/21/15 
f 15/21/15 16/22/16 14/19/14 
f 16/23/16 15/24/15 17/25/17 
f 17/25/17 18/26/18 16/23/16 
f 18/26/18 17/25/17 19/27/19 
f 19/27/19 20/28/20 18/26/18 
f 20/28/20 19/27/19 21/29/21 
f 21/29/21 22/30/22 20/28/20 
f 22/31/22 21/32/21 23/33/23 
f 23/33/23 24/34/24 22/31/22 
f 24/35/24 23/36/23 25/37/25 
f 25/37/25 26/38/26 24/35/24 
f 26/38/26 25/37/25 27/39/27 
f 27/39/27 28/40/28 26/38/26 
f 28/40/28 27/39/27 29/41/29 
f 29/41/29 30/42/30 28/40/28 
f 30/43/30 29/44/29 31/45/31 
f 31/45/31 32/46/32 30/43/30 
f 32/47/32 31/48/31 2/2/2 
f 2/2/2 1/1/1 32/47/32 
f 2/2/2 33/49/33 34/50/34 
f 34/50/34 3/3/3 2/2/2 
f 3/3/3 34/50/34 35/51/35 
f 35/51/35 5/5/5 3/3/3 
f 5/52/5 35/53/35 36/54/36 
f 36/54/36 7/12/7 5/52/5 
f 7/12/7 36/54/36 37/55/37 
f 37/55/37 9/13/9 7/12/7 
f 9/13/9 37/55/37 38/56/38 
f 38/56/38 11/15/11 9/13/9 
f 11/15/11 38/56/38 39/57/39 
f 39/57/39 13/17/13 11/15/11 
f 13/58/13 39/59/39 40/60/40 
f 40/60/40 15/24/15 13/58/13 
f 15/24/15 40/60/40 41/61/41 
f 41/61/41 17/25/17 15/24/15 
f 17/25/17 41/61/41 42/62/42 
f 42/62/42 19/27/19 17/25/17 
f 19/27/19 42/62/42 43/63/43 
f 43/63/43 21/29/21 19/27/19 
f 21/64/21 43/65/43 44/66/44 
f 44/66/44 23/36/23 21/64/21 
f 23/36/23 44/66/44 45/67/45 
f 45/67/45 25/37/25 23/36/23 
f 25/37/25 45/67/45 46/68/46 
f 46/68/46 27/39/27 25/37/25 
f 27/39/27 46/68/46 47/69/47 
f 47/69/47 29/41/29 27/39/27 
f 29/70/29 47/71/47 48/72/48 
f 48/72/48 31/48/31 29/70/29 
f 31/48/31 48/72/48 33/49/33 
f 33/49/33 2/2/2 31/48/31 
f 33/49/33 49/73/49 50/74/50 
f 50/74/50 34/50/34 33/49/33 
f 34/50/34 50/74/50 51/75/51 
f 51/75/51 35/51/35 34/50/34 
f 35/76/35 51/77/51 52/78/52 
f 52/78/52 36/79/36 35/76/35 
f 36/54/36 52/80/52 53/81/53 
f 53/81/53 37/55/37 36/54/36 
f 37/55/37 53/81/53 54/82/54 
f 54/82/54 38/56/38 37/55/37 
f 38/56/38 54/82/54 55/83/55 
f 55/83/55 39/57/39 38/56/38 
f 39/84/39 55/85/55 56/86/56 
f 56/86/56 40/87/40 39/84/39 
f 40/60/40 56/88/56 57/89/57 
f 57/89/57 41/61/41 40/60/40 
f 41/61/41 57/89/57 58/90/58 
f 58/90/58 42/62/42 41/61/41 
f 42/62/42 58/90/58 59/91/59 
f 59/91/59 43/63/43 42/62/42 
f 43/92/43 59/93/59 60/94/60 
f 60/94/60 44/95/44 43/92/43 
f 44/66/44 60/96/60 61/97/61 
f 61/97/61 45/67/45 44/66/44 
f 45/67/45 61/97/61 62/98/62 
f 62/98/62 46/68/46 45/67/45 
f 46/68/46 62/98/62 63/99/63 
f 63/99/63 47/69/47 46/68/46 
f 47/100/47 63/101/63 64/102/64 
f 64/102/64 48/103/48 47/100/47 
f 48/72/48 64/104/64 49/73/49 
f 49/73/49 33/49/33 48/72/48 
s off
f 65/105/65 66/106/65 67/107/65 
f 67/107/65 68/108/65 69/109/65 
f 65/105/66 67/107/66 69/109/66 
f 69/109/67 70/110/67 71/111/67 
f 71/111/67 72/112/67 73/113/67 
f 69/109/67 71/111/67 73/113/67 
f 65/105/66 69/109/66 73/113/66 
f 73/113/65 74/114/65 75/115/65 
f 75/115/65 76/116/65 77/117/65 
f 73/113/66 75/115/66 77/117/66 
f 65/105/66 73/113/66 77/117/66 
f 77/117/67 78/118/67 79/119/67 
f 65/105/67 77/117/67 79/119/67 
f 80/120/67 65/105/67 79/119/67 
s 1
f 81/121/68 82/122/69 83/123/70 
f 83/123/70 84/124/71 85/125/72 
f 81/121/68 83/123/70 85/125/72 
f 85/125/72 86/126/73 87/127/74 
f 87/127/74 88/128/75 89/129/76 
f 85/125/72 87/127/74 89/129/76 
f 81/121/68 85/125/72 89/129/76 
f 89/129/76 90/130/77 91/131/78 
f 91/131/78 92/132/79 93/133/80 
f 89/129/76 91/131/78 93/133/80 
f 81/121/68 89/129/76 93/133/80 
f 93/133/80 94/134/81 95/135/82 
f 81/121/68 93/133/80 95/135/82 
f 96/136/83 81/121/68 95/135/82 
f 4/137/4 66/138/84 65/139/85 
f 65/139/85 1/140/1 4/137/4 
f 1/140/1 65/139/85 80/141/86 
f 80/141/86 32/142/32 1/140/1 
f 32/142/32 80/141/86 79/143/87 
f 79/143/87 30/144/30 32/142/32 
f 30/144/30 79/143/87 78/145/88 
f 78/145/88 28/146/28 30/144/30 
f 28/146/28 78/145/88 77/147/89 
f 77/147/89 26/148/26 28/146/28 
f 26/148/26 77/147/89 76/149/90 
f 76/149/90 24/150/24 26/148/26 
f 24/150/24 76/149/90 75/151/91 
f 75/151/91 22/152/22 24/150/24 
f 22/152/22 75/151/91 74/153/92 
f 74/153/92 20/154/20 22/152/22 
f 20/154/20 74/153/92 73/155/93 
f 73/155/93 18/156/18 20/154/20 
f 18/156/18 73/155/93 72/157/94 
f 72/157/94 16/158/16 18/156/18 
f 16/158/16 72/157/94 71/159/95 
f 71/159/95 14/160/14 16/158/16 
f 14/160/14 71/159/95 70/161/96 
f 70/161/96 12/162/12 14/160/14 
f 12/162/12 70/161/96 69/163/97 
f 69/163/97 10/164/10 12/162/12 
f 10/164/10 69/163/97 68/165/98 
f 68/165/98 8/166/8 10/164/10 
f 8/166/8 68/165/98 67/167/99 
f 67/167/99 6/168/6 8/166/8 
f 6/168/6 67/167/99 66/138/84 
f 66/138/84 4/137/4 6/168/6 
f 49/169/49 97/170/100 98/171/101 
f 98/171/101 50/172/50 49/169/49 
f 50/172/50 98/171/101 99/173/102 
f 99/173/102 51/174/51 50/172/50 
f 51/174/51 99/173/102 100/175/103 
f 100/175/103 52/176/52 51/174/51 
f 52/176/52 100/175/103 101/177/104 
f 101/177/104 53/178/53 52/176/52 
f 53/178/53 101/177/104 102/179/105 
f 102/179/105 54/180/54 53/178/53 
f 54/180/54 102/179/105 103/181/106 
f 103/181/106 55/182/55 54/180/54 
f 55/182/55 103/181/106 104/183/107 
f 104/183/107 56/184/56 55/182/55 
f 56/184/56 104/183/107 105/185/108 
f 105/185/108 57/186/57 56/184/56 
f 57/186/57 105/185/108 106/187/109 
f 106/187/109 58/188/58 57/186/57 
f 58/188/58 106/187/109 107/189/110 
f 107/189/110 59/190/59 58/188/58 
f 59/190/59 107/189/110 108/191/111 
f 108/191/111 60/192/60 59/190/59 
f 60/192/60 108/191/111 109/193/112 
f 109/193/112 61/194/61 60/192/60 
f 61/194/61 109/193/112 110/195/113 
f 110/195/113 62/196/62 61/194/61 
f 62/196/62 110/195/113 111/197/114 
f 111/197/114 63/198/63 62/196/62 
f 63/198/63 111/197/114 112/199/115 
f 112/199/115 64/200/64 63/198/63 
f 64/200/64 112/199/115 97/170/100 
f 97/170/100 49/169/49 64/200/64 
f 97/201/100 113/202/116 114/203/117 
f 114/203/117 98/204/101 97/201/100 
f 98/204/101 114/203/117 115/205/118 
f 115/205/118 99/206/102 98/204/101 
f 99/206/102 115/205/118 116/207/119 
f 116/207/119 100/208/103 99/206/102 
f 100/208/103 116/207/119 117/209/120 
f 117/209/120 101/210/104 100/208/103 
f 102/211/105 118/212/121 119/213/122 
f 119/213/122 103/214/106 102/211/105 
f 103/214/106 119/213/122 120/215/123 
f 120/215/123 104/216/107 103/214/106 
f 104/216/107 120/215/123 121/217/124 
f 121/217/124 105/218/108 104/216/107 
f 105/218/108 121/217/124 122/219/125 
f 122/219/125 106/220/109 105/218/108 
f 106/220/109 122/219/125 123/221/126 
f 123/221/126 107/222/110 106/220/109 
f 107/222/110 123/221/126 124/223/127 
f 124/223/127 108/224/111 107/222/110 
f 108/224/111 124/223/127 125/225/128 
f 125/225/128 109/226/112 108/224/111 
f 110/227/113 126/228/129 127/229/130 
f 127/229/130 111/230/114 110/227/113 
f 111/230/114 127/229/130 128/231/131 
f 128/231/131 112/232/115 111/230/114 
f 112/232/115 128/231/131 113/202/116 
f 113/202/116 97/201/100 112/232/115 
f 113/202/116 96/136/83 95/135/82 
f 95/135/82 114/203/117 113/202/116 
f 114/203/117 95/135/82 94/134/81 
f 94/134/81 115/205/118 114/203/117 
f 115/205/118 94/134/81 93/133/80 
f 93/133/80 116/207/119 115/205/118 
f 116/207/119 93/133/80 92/132/79 
f 92/132/79 117/209/120 116/207/119 
f 117/209/120 92/132/79 91/131/78 
f 91/131/78 118/212/121 117/209/120 
f 118/212/121 91/131/78 90/130/77 
f 90/130/77 119/213/122 118/212/121 
f 119/213/122 90/130/77 89/129/76 
f 89/129/76 120/215/123 119/213/122 
f 120/215/123 89/129/76 88/128/75 
f 88/128/75 121/217/124 120/215/123 
f 121/217/124 88/128/75 87/127/74 
f 87/127/74 122/219/125 121/217/124 
f 122/219/125 87/127/74 86/126/73 
f 86/126/73 123/221/126 122/219/125 
f 123/221/126 86/126/73 85/125/72 
f 85/125/72 124/223/127 123/221/126 
f 124/223/127 85/125/72 84/124/71 
f 84/124/71 125/225/128 124/223/127 
f 125/225/128 84/124/71 83/123/70 
f 83/123/70 126/228/129 125/225/128 
f 126/228/129 83/123/70 82/122/69 
f 82/122/69 127/229/130 126/228/129 
f 127/229/130 82/122/69 81/121/68 
f 81/121/68 128/231/131 127/229/130 
f 128/231/131 81/121/68 96/136/83 
f 96/136/83 113/202/116 128/231/131 
f 101/233/104 129/234/132 130/235/133 
f 130/235/133 102/236/105 101/233/104 
s 2
f 102/237/134 130/238/135 131/239/136 
f 131/239/136 118/240/137 102/237/134 
s 4
f 118/241/138 131/242/139 132/243/140 
f 132/243/140 117/244/141 118/241/138 
s 2
f 117/245/142 132/246/143 129/247/144 
f 129/247/144 101/248/145 117/245/142 
s 1
f 109/249/112 133/250/146 134/251/147 
f 134/251/147 110/252/113 109/249/112 
s 2
f 110/253/148 134/254/149 135/255/150 
f 135/255/150 126/256/151 110/253/148 
s 4
f 126/257/152 135/258/153 136/259/154 
f 136/259/154 125/260/155 126/257/152 
s 2
f 125/261/156 136/262/157 133/263/158 
f 133/263/158 109/264/159 125/261/156 
s 4
f 129/265/160 134/266/161 133/267/162 
f 133/267/162 130/268/163 129/265/160 
s 2
f 130/238/135 133/263/158 136/262/157 
f 136/262/157 131/239/136 130/238/135 
s 1
f 131/269/164 136/270/165 135/271/166 
f 135/271/166 132/272/167 131/269/164 
s 2
f 132/246/143 135/255/150 134/254/149 
f 134/254/149 129/247/144 132/246/143 
# 272 faces

