# 3ds Max Wavefront OBJ Exporter v0.97b - (c)2007 guruware
# File Created: 22.08.2015 17:13:03

mtllib r.mtl

#
# object Object007
#

v  -1.7076 -1.5078 1.2958
v  -3.1779 -1.5078 1.2958
v  -3.1779 -1.5078 -1.2958
v  -1.7076 -1.5078 -1.2958
v  -0.5086 -1.6535 1.2958
v  -0.5086 -1.6535 -1.2958
v  0.2217 -2.0905 1.2958
v  0.2217 -2.0905 -1.2958
v  0.6660 -3.1283 1.2958
v  0.6660 -3.1283 -1.2958
v  1.0071 -5.0763 1.2958
v  1.0071 -5.0763 -1.2958
v  1.2263 -7.1880 1.2958
v  1.2263 -7.1880 -1.2958
v  1.3046 -8.7170 1.2958
v  1.3046 -8.7170 -1.2958
v  5.2095 -8.7170 1.2958
v  5.2095 -8.7170 -1.2958
v  4.4783 -3.8700 1.2958
v  4.4783 -3.8700 -1.2958
v  3.4491 -1.3061 1.2958
v  3.4491 -1.3061 -1.2958
v  7.9715 0.3933 1.2958
v  7.9715 0.3933 -1.2958
v  10.4339 4.1428 1.2958
v  10.4339 4.1428 -1.2958
v  10.0613 7.5734 1.2958
v  10.0613 7.5734 -1.2958
v  6.1990 8.7170 1.2958
v  6.1990 8.7170 -1.2958
v  -1.5638 8.7170 1.2958
v  -1.5638 8.7170 -1.2958
v  -10.4339 -8.7170 1.2958
v  -10.4339 -8.7170 -1.2958
v  -6.8455 -8.7170 1.2958
v  -6.8455 -8.7170 -1.2958
v  4.5385 5.7956 1.2958
v  0.5386 5.7956 1.2958
v  0.5386 5.7956 -1.2958
v  4.5385 5.7956 -1.2958
v  6.5536 5.3691 1.2958
v  6.5536 5.3691 -1.2958
v  6.8841 4.0898 1.2958
v  6.8841 4.0898 -1.2958
v  6.1579 2.7439 1.2958
v  6.1579 2.7439 -1.2958
v  4.9161 1.8295 1.2958
v  4.9161 1.8295 -1.2958
v  2.9577 1.3055 1.2958
v  2.9577 1.3055 -1.2958
v  0.0815 1.1308 1.2958
v  0.0815 1.1308 -1.2958
v  -1.8349 1.1308 1.2958
v  -1.8349 1.1308 -1.2958
# 54 vertices

vn 0.0000 -1.0000 -0.0000
vn -0.3673 -0.9301 -0.0000
vn -0.1408 -0.9900 -0.0000
vn -0.7929 -0.6094 -0.0000
vn -0.9690 -0.2470 -0.0000
vn -0.9930 -0.1182 -0.0000
vn -0.9978 -0.0660 -0.0000
vn -0.9990 -0.0437 -0.0000
vn 0.9738 0.2273 -0.0000
vn 0.9918 0.1279 -0.0000
vn 0.9459 0.3245 -0.0000
vn 0.6720 -0.7406 -0.0000
vn 0.4026 -0.9154 -0.0000
vn 0.9782 -0.2079 -0.0000
vn 0.7870 0.6170 -0.0000
vn 0.3274 0.9449 -0.0000
vn 0.0000 1.0000 -0.0000
vn -0.9171 0.3987 -0.0000
vn 0.9171 -0.3987 -0.0000
vn -0.7161 -0.6980 -0.0000
vn -0.2404 -0.9707 -0.0000
vn -0.9942 0.1072 -0.0000
vn -0.7986 0.6018 -0.0000
vn -0.4859 0.8740 -0.0000
vn -0.1861 0.9825 -0.0000
vn -0.0709 0.9975 -0.0000
vn -0.0000 0.0000 -1.0000
vn 0.0000 0.0000 -1.0000
vn 0.0000 -0.0000 1.0000
vn -0.0000 -0.0000 1.0000
vn 0.0000 0.0000 1.0000
# 31 vertex normals

vt 0.0336 0.1734 0.0000
vt 0.0264 0.1734 0.0000
vt 0.0264 0.1607 0.0000
vt 0.0336 0.1607 0.0000
vt 0.0395 0.1734 0.0000
vt 0.0395 0.1607 0.0000
vt 0.0430 0.1734 0.0000
vt 0.0430 0.1607 0.0000
vt 0.5654 0.1873 0.0000
vt 0.5595 0.1873 0.0000
vt 0.5595 0.1748 0.0000
vt 0.5654 0.1748 0.0000
vt 0.5764 0.1873 0.0000
vt 0.5764 0.1748 0.0000
vt 0.5883 0.1873 0.0000
vt 0.5883 0.1748 0.0000
vt 0.5969 0.1873 0.0000
vt 0.5969 0.1748 0.0000
vt 0.5196 0.1872 0.0000
vt 0.5009 0.1872 0.0000
vt 0.5009 0.1748 0.0000
vt 0.5196 0.1748 0.0000
vt 0.4397 0.1445 0.0000
vt 0.4672 0.1445 0.0000
vt 0.4672 0.1571 0.0000
vt 0.4397 0.1571 0.0000
vt 0.4252 0.1445 0.0000
vt 0.4252 0.1571 0.0000
vt 0.2688 0.6498 0.0000
vt 0.2688 0.6272 0.0000
vt 0.2818 0.6272 0.0000
vt 0.2818 0.6498 0.0000
vt 0.3022 0.1085 0.0000
vt 0.3240 0.1085 0.0000
vt 0.3240 0.1214 0.0000
vt 0.3022 0.1214 0.0000
vt 0.2822 0.1085 0.0000
vt 0.2822 0.1214 0.0000
vt 0.3246 0.5727 0.0000
vt 0.3059 0.5727 0.0000
vt 0.3059 0.5602 0.0000
vt 0.3246 0.5602 0.0000
vt 0.3621 0.5727 0.0000
vt 0.3621 0.5602 0.0000
vt 0.1733 0.5165 0.0000
vt 0.0713 0.5165 0.0000
vt 0.0713 0.5036 0.0000
vt 0.1733 0.5036 0.0000
vt 0.2429 0.0691 0.0000
vt 0.2257 0.0691 0.0000
vt 0.2257 0.0567 0.0000
vt 0.2429 0.0567 0.0000
vt 0.1167 0.3753 0.0000
vt 0.1589 0.3753 0.0000
vt 0.1589 0.3883 0.0000
vt 0.1167 0.3883 0.0000
vt 0.3755 0.1570 0.0000
vt 0.3562 0.1570 0.0000
vt 0.3562 0.1445 0.0000
vt 0.3755 0.1445 0.0000
vt 0.3852 0.1570 0.0000
vt 0.3852 0.1445 0.0000
vt 0.0686 0.1214 0.0000
vt 0.0612 0.1214 0.0000
vt 0.0612 0.1086 0.0000
vt 0.0686 0.1086 0.0000
vt 0.0764 0.1214 0.0000
vt 0.0764 0.1086 0.0000
vt 0.5771 0.2955 0.0000
vt 0.5833 0.2955 0.0000
vt 0.5833 0.3082 0.0000
vt 0.5771 0.3082 0.0000
vt 0.5675 0.2955 0.0000
vt 0.5675 0.3082 0.0000
vt 0.5533 0.2955 0.0000
vt 0.5533 0.3082 0.0000
vt 0.5438 0.2955 0.0000
vt 0.5438 0.3082 0.0000
vt 0.2967 0.0564 0.0000
vt 0.3240 0.0564 0.0000
vt 0.3240 0.0694 0.0000
vt 0.2967 0.0694 0.0000
vt 0.2476 0.3931 0.0000
vt 0.2287 0.3932 0.0000
vt 0.2217 0.3896 0.0000
vt 0.2307 0.3766 0.0000
vt 0.2134 0.3892 0.0000
vt 0.2068 0.3735 0.0000
vt 0.2074 0.3933 0.0000
vt 0.1896 0.3824 0.0000
vt 0.1906 0.4019 0.0000
vt 0.2088 0.4032 0.0000
vt 0.2159 0.4209 0.0000
vt 0.2045 0.4364 0.0000
vt 0.2444 0.4217 0.0000
vt 0.2830 0.3698 0.0000
vt 0.2900 0.3871 0.0000
vt 0.2822 0.3907 0.0000
vt 0.2716 0.3961 0.0000
vt 0.2591 0.3832 0.0000
vt 0.2621 0.4017 0.0000
vt 0.2575 0.4058 0.0000
vt 0.2565 0.4100 0.0000
vt 0.2579 0.4156 0.0000
vt 0.2606 0.4222 0.0000
vt 0.2349 0.4008 0.0000
vt 0.2410 0.4132 0.0000
vt 0.3046 0.4234 0.0000
vt 0.3110 0.4393 0.0000
vt 0.1581 0.6105 0.0000
vt 0.0517 0.6174 0.0000
vt 0.0575 0.6012 0.0000
vt 0.1015 0.5984 0.0000
vt 0.0787 0.5677 0.0000
vt 0.0708 0.5645 0.0000
vt 0.0771 0.5469 0.0000
vt 0.0895 0.5727 0.0000
vt 0.1015 0.5594 0.0000
vt 0.0992 0.5780 0.0000
vt 0.1133 0.5689 0.0000
vt 0.1039 0.5819 0.0000
vt 0.1322 0.5682 0.0000
vt 0.1051 0.5860 0.0000
vt 0.1039 0.5917 0.0000
vt 0.1263 0.5760 0.0000
vt 0.1207 0.5887 0.0000
vt 0.1176 0.5973 0.0000
vt 0.1461 0.5955 0.0000
vt 0.1391 0.5643 0.0000
vt 0.1296 0.5517 0.0000
vt 0.1474 0.5636 0.0000
vt 0.1534 0.5477 0.0000
vt 0.1536 0.5675 0.0000
vt 0.1709 0.5559 0.0000
vt 0.1707 0.5755 0.0000
vt 0.1525 0.5774 0.0000
# 136 texture coords

g Object007
usemtl wire_227153153
s 1
f 1/1/1 2/2/1 3/3/1 
f 3/3/1 4/4/1 1/1/1 
s 4
f 5/5/2 1/1/3 4/4/3 
f 4/4/3 6/6/2 5/5/2 
f 7/7/4 5/5/2 6/6/2 
f 6/6/2 8/8/4 7/7/4 
f 9/9/5 7/10/4 8/11/4 
f 8/11/4 10/12/5 9/9/5 
f 11/13/6 9/9/5 10/12/5 
f 10/12/5 12/14/6 11/13/6 
f 13/15/7 11/13/6 12/14/6 
f 12/14/6 14/16/7 13/15/7 
f 15/17/8 13/15/7 14/16/7 
f 14/16/7 16/18/8 15/17/8 
s 2
f 17/19/1 15/20/1 16/21/1 
f 16/21/1 18/22/1 17/19/1 
s 4
f 19/23/9 17/24/10 18/25/10 
f 18/25/10 20/26/9 19/23/9 
f 21/27/11 19/23/9 20/26/9 
f 20/26/9 22/28/11 21/27/11 
s 2
f 23/29/12 21/30/13 22/31/13 
f 22/31/13 24/32/12 23/29/12 
f 25/33/14 23/34/12 24/35/12 
f 24/35/12 26/36/14 25/33/14 
f 27/37/15 25/33/14 26/36/14 
f 26/36/14 28/38/15 27/37/15 
f 29/39/16 27/40/15 28/41/15 
f 28/41/15 30/42/16 29/39/16 
s 4
f 31/43/17 29/39/17 30/42/17 
f 30/42/17 32/44/17 31/43/17 
s 2
f 33/45/18 31/46/18 32/47/18 
f 32/47/18 34/48/18 33/45/18 
s 4
f 35/49/1 33/50/1 34/51/1 
f 34/51/1 36/52/1 35/49/1 
s 2
f 2/53/19 35/54/19 36/55/19 
f 36/55/19 3/56/19 2/53/19 
s 1
f 37/57/1 38/58/1 39/59/1 
f 39/59/1 40/60/1 37/57/1 
s 4
f 41/61/20 37/57/21 40/60/21 
f 40/60/21 42/62/20 41/61/20 
f 43/63/22 41/64/20 42/65/20 
f 42/65/20 44/66/22 43/63/22 
f 45/67/23 43/63/22 44/66/22 
f 44/66/22 46/68/23 45/67/23 
f 47/69/24 45/70/23 46/71/23 
f 46/71/23 48/72/24 47/69/24 
f 49/73/25 47/69/24 48/72/24 
f 48/72/24 50/74/25 49/73/25 
f 51/75/26 49/73/25 50/74/25 
f 50/74/25 52/76/26 51/75/26 
s 2
f 53/77/17 51/75/17 52/76/17 
f 52/76/17 54/78/17 53/77/17 
s 4
f 38/79/19 53/80/19 54/81/19 
f 54/81/19 39/82/19 38/79/19 
s 16
f 22/83/27 48/84/28 46/85/27 
f 24/86/27 22/83/27 46/85/27 
f 24/86/27 46/85/27 44/87/27 
f 26/88/28 24/86/27 44/87/27 
f 26/88/28 44/87/27 42/89/27 
f 28/90/28 26/88/28 42/89/27 
f 30/91/27 28/90/28 42/89/27 
f 30/91/27 42/89/27 40/92/27 
f 30/91/27 40/92/27 39/93/28 
f 32/94/28 30/91/27 39/93/28 
f 32/94/28 39/93/28 54/95/28 
f 18/96/28 16/97/28 14/98/28 
f 18/96/28 14/98/28 12/99/28 
f 20/100/28 18/96/28 12/99/28 
f 20/100/28 12/99/28 10/101/28 
f 22/83/27 20/100/28 10/101/28 
f 22/83/27 10/101/28 8/102/28 
f 48/84/28 22/83/27 8/102/28 
f 48/84/28 8/102/28 6/103/28 
f 48/84/28 6/103/28 4/104/28 
f 48/84/28 4/104/28 3/105/27 
f 50/106/27 48/84/28 3/105/27 
f 52/107/27 50/106/27 3/105/27 
f 54/95/28 52/107/27 3/105/27 
f 32/94/28 54/95/28 3/105/27 
f 32/94/28 3/105/27 36/108/27 
f 32/94/28 36/108/27 34/109/28 
f 31/110/29 33/111/29 35/112/29 
f 31/110/29 35/112/29 2/113/29 
f 13/114/30 15/115/31 17/116/30 
f 11/117/30 13/114/30 17/116/30 
f 11/117/30 17/116/30 19/118/29 
f 9/119/31 11/117/30 19/118/29 
f 9/119/31 19/118/29 21/120/29 
f 7/121/30 9/119/31 21/120/29 
f 7/121/30 21/120/29 47/122/29 
f 5/123/30 7/121/30 47/122/29 
f 1/124/30 5/123/30 47/122/29 
f 2/113/29 1/124/30 47/122/29 
f 2/113/29 47/122/29 49/125/29 
f 2/113/29 49/125/29 51/126/29 
f 2/113/29 51/126/29 53/127/30 
f 31/110/29 2/113/29 53/127/30 
f 31/110/29 53/127/30 38/128/29 
f 45/129/29 47/122/29 21/120/29 
f 45/129/29 21/120/29 23/130/29 
f 43/131/29 45/129/29 23/130/29 
f 43/131/29 23/130/29 25/132/30 
f 41/133/30 43/131/29 25/132/30 
f 41/133/30 25/132/30 27/134/30 
f 41/133/30 27/134/30 29/135/30 
f 37/136/30 41/133/30 29/135/30 
f 38/128/29 37/136/30 29/135/30 
f 31/110/29 38/128/29 29/135/30 
# 108 faces

