# 3ds Max Wavefront OBJ Exporter v0.97b - (c)2007 guruware
# File Created: 22.08.2015 15:03:16

mtllib rearleft2.mtl

#
# object Object015
#

v  0.5595 -3.7810 1.7631
v  1.6495 -4.1145 1.9186
v  1.6495 -3.0671 3.3471
v  0.5595 -2.8184 3.0758
v  1.6495 -1.5527 4.2661
v  0.5595 -1.4268 3.9202
v  1.6495 0.1980 4.5355
v  0.5595 0.1820 4.1679
v  1.6495 1.9186 4.1145
v  0.5595 1.7631 3.7810
v  1.6495 3.3471 3.0671
v  0.5595 3.0758 2.8184
v  1.6495 4.2661 1.5527
v  0.5595 3.9202 1.4269
v  1.6495 4.5355 -0.1980
v  0.5595 4.1679 -0.1820
v  1.6495 4.1145 -1.9186
v  0.5595 3.7810 -1.7631
v  1.6495 3.0671 -3.3471
v  0.5595 2.8184 -3.0758
v  1.6495 1.5527 -4.2661
v  0.5595 1.4269 -3.9202
v  1.6495 -0.1980 -4.5355
v  0.5595 -0.1820 -4.1679
v  1.6495 -1.9186 -4.1145
v  0.5595 -1.7631 -3.7810
v  1.6495 -3.3471 -3.0671
v  0.5595 -3.0758 -2.8184
v  1.6495 -4.2661 -1.5527
v  0.5595 -3.9202 -1.4268
v  1.6495 -4.5355 0.1980
v  0.5595 -4.1679 0.1820
v  2.7394 -4.1145 1.9186
v  2.7394 -3.0671 3.3471
v  2.7394 -1.5527 4.2661
v  2.7394 0.1980 4.5355
v  2.7394 1.9186 4.1145
v  2.7394 3.3471 3.0671
v  2.7394 4.2661 1.5527
v  2.7394 4.5355 -0.1980
v  2.7394 4.1145 -1.9186
v  2.7394 3.0671 -3.3471
v  2.7394 1.5527 -4.2661
v  2.7394 -0.1980 -4.5355
v  2.7394 -1.9186 -4.1145
v  2.7394 -3.3471 -3.0671
v  2.7394 -4.2661 -1.5527
v  2.7394 -4.5355 0.1980
v  3.8293 -3.7810 1.7631
v  3.8293 -2.8184 3.0758
v  3.8293 -1.4268 3.9202
v  3.8293 0.1820 4.1679
v  3.8293 1.7631 3.7810
v  3.8293 3.0758 2.8184
v  3.8293 3.9202 1.4269
v  3.8293 4.1679 -0.1820
v  3.8293 3.7810 -1.7631
v  3.8293 2.8184 -3.0758
v  3.8293 1.4269 -3.9202
v  3.8293 -0.1820 -4.1679
v  3.8293 -1.7631 -3.7810
v  3.8293 -3.0758 -2.8184
v  3.8293 -3.9202 -1.4268
v  3.8293 -4.1679 0.1820
v  -0.0525 -2.6320 1.2273
v  -0.0525 -1.9620 2.1411
v  -0.0525 -0.9933 2.7290
v  -0.0525 0.1267 2.9013
v  -0.0525 1.2273 2.6320
v  -0.0525 2.1411 1.9620
v  -0.0525 2.7290 0.9933
v  -0.0525 2.9013 -0.1267
v  -0.0525 2.6320 -1.2273
v  -0.0525 1.9620 -2.1411
v  -0.0525 0.9933 -2.7290
v  -0.0525 -0.1267 -2.9013
v  -0.0525 -1.2273 -2.6320
v  -0.0525 -2.1411 -1.9620
v  -0.0525 -2.7290 -0.9933
v  -0.0525 -2.9013 0.1267
v  3.8394 -1.4541 0.0635
v  3.8394 -1.3677 -0.4978
v  3.8394 -1.0731 -0.9833
v  3.8394 -0.6151 -1.3191
v  3.8394 -0.0635 -1.4541
v  3.8394 0.4978 -1.3677
v  3.8394 0.9833 -1.0731
v  3.8394 1.3191 -0.6151
v  3.8394 1.4541 -0.0635
v  3.8394 1.3677 0.4978
v  3.8394 1.0731 0.9833
v  3.8394 0.6151 1.3191
v  3.8394 0.0635 1.4541
v  3.8394 -0.4978 1.3677
v  3.8394 -0.9833 1.0731
v  3.8394 -1.3191 0.6151
v  4.4413 -2.6320 1.2273
v  4.4413 -1.9620 2.1411
v  4.4413 -0.9933 2.7290
v  4.4413 0.1267 2.9013
v  4.4413 1.2273 2.6320
v  4.4413 2.1411 1.9620
v  4.4413 2.7290 0.9933
v  4.4413 2.9013 -0.1267
v  4.4413 2.6320 -1.2273
v  4.4413 1.9620 -2.1411
v  4.4413 0.9933 -2.7290
v  4.4413 -0.1267 -2.9013
v  4.4413 -1.2273 -2.6320
v  4.4413 -2.1411 -1.9620
v  4.4413 -2.7290 -0.9933
v  4.4413 -2.9013 0.1267
v  4.4413 -1.9756 0.9212
v  4.4413 -1.4726 1.6071
v  4.4413 -0.7455 2.0483
v  4.4413 0.0951 2.1777
v  4.4413 0.9212 1.9756
v  4.4413 1.6071 1.4726
v  4.4413 2.0483 0.7455
v  4.4413 2.1777 -0.0951
v  4.4413 1.9756 -0.9212
v  4.4413 1.4726 -1.6071
v  4.4413 0.7455 -2.0483
v  4.4413 -0.0951 -2.1777
v  4.4413 -0.9212 -1.9756
v  4.4413 -1.6071 -1.4726
v  4.4413 -2.0483 -0.7455
v  4.4413 -2.1777 0.0951
v  5.3215 0.7135 1.8537
v  5.3443 1.6440 1.2344
v  4.9947 1.2559 1.0123
v  4.9775 0.5575 1.4771
v  5.3200 -0.7964 -1.9711
v  5.3438 -1.7272 -1.3529
v  4.9960 -1.3398 -1.1330
v  4.9782 -0.6412 -1.5970
# 136 vertices

vn -0.6389 -0.6972 0.3251
vn -0.1590 -0.8948 0.4172
vn -0.1590 -0.6670 0.7279
vn -0.6389 -0.5197 0.5672
vn -0.1590 -0.3377 0.9277
vn -0.6389 -0.2631 0.7229
vn -0.1590 0.0431 0.9863
vn -0.6389 0.0336 0.7686
vn -0.1590 0.4172 0.8948
vn -0.6389 0.3251 0.6972
vn -0.1590 0.7279 0.6670
vn -0.6389 0.5672 0.5197
vn -0.1590 0.9277 0.3377
vn -0.6389 0.7229 0.2631
vn -0.1590 0.9863 -0.0431
vn -0.6389 0.7686 -0.0336
vn -0.1590 0.8948 -0.4172
vn -0.6389 0.6972 -0.3251
vn -0.1590 0.6670 -0.7279
vn -0.6389 0.5197 -0.5672
vn -0.1590 0.3377 -0.9277
vn -0.6389 0.2631 -0.7229
vn -0.1590 -0.0431 -0.9863
vn -0.6389 -0.0336 -0.7686
vn -0.1590 -0.4172 -0.8948
vn -0.6389 -0.3251 -0.6972
vn -0.1590 -0.7279 -0.6670
vn -0.6389 -0.5672 -0.5197
vn -0.1590 -0.9277 -0.3377
vn -0.6389 -0.7229 -0.2631
vn -0.1590 -0.9863 0.0431
vn -0.6389 -0.7686 0.0336
vn 0.1590 -0.8948 0.4172
vn 0.1590 -0.6670 0.7279
vn 0.1590 -0.3377 0.9277
vn 0.1590 0.0431 0.9863
vn 0.1590 0.4172 0.8948
vn 0.1590 0.7279 0.6670
vn 0.1590 0.9277 0.3377
vn 0.1590 0.9863 -0.0431
vn 0.1590 0.8948 -0.4172
vn 0.1590 0.6670 -0.7279
vn 0.1590 0.3377 -0.9277
vn 0.1590 -0.0431 -0.9863
vn 0.1590 -0.4172 -0.8948
vn 0.1590 -0.7279 -0.6670
vn 0.1590 -0.9277 -0.3377
vn 0.1590 -0.9863 0.0431
vn 0.6389 -0.6972 0.3251
vn 0.6389 -0.5197 0.5672
vn 0.6389 -0.2631 0.7229
vn 0.6389 0.0336 0.7686
vn 0.6389 0.3251 0.6972
vn 0.6389 0.5672 0.5197
vn 0.6389 0.7229 0.2631
vn 0.6389 0.7686 -0.0336
vn 0.6389 0.6972 -0.3251
vn 0.6389 0.5197 -0.5672
vn 0.6389 0.2631 -0.7229
vn 0.6389 -0.0336 -0.7686
vn 0.6389 -0.3251 -0.6972
vn 0.6389 -0.5672 -0.5197
vn 0.6389 -0.7229 -0.2631
vn 0.6389 -0.7686 0.0336
vn -1.0000 0.0000 -0.0000
vn -1.0000 0.0000 0.0000
vn -1.0000 -0.0000 -0.0000
vn -1.0000 -0.0000 0.0000
vn 0.9265 0.3759 -0.0164
vn 0.9265 0.3535 0.1287
vn 0.9265 0.2774 0.2542
vn 0.9265 0.1590 0.3410
vn 0.9265 0.0164 0.3759
vn 0.9265 -0.1287 0.3535
vn 0.9265 -0.2542 0.2774
vn 0.9265 -0.3410 0.1590
vn 0.9265 -0.3759 0.0164
vn 0.9265 -0.3535 -0.1287
vn 0.9265 -0.2774 -0.2542
vn 0.9265 -0.1590 -0.3410
vn 0.9265 -0.0164 -0.3759
vn 0.9265 0.1287 -0.3535
vn 0.9265 0.2542 -0.2774
vn 0.9265 0.3410 -0.1590
vn -0.9006 -0.2937 0.3205
vn -0.9006 -0.3940 0.1837
vn -0.9006 -0.4343 0.0190
vn -0.9006 -0.4085 -0.1487
vn -0.9006 -0.3205 -0.2937
vn -0.9006 -0.1837 -0.3940
vn -0.9006 -0.0190 -0.4343
vn -0.9006 0.1487 -0.4085
vn -0.9006 0.2937 -0.3205
vn -0.9006 0.3940 -0.1837
vn -0.9006 0.4343 -0.0190
vn -0.9006 0.4085 0.1487
vn -0.9006 0.3205 0.2937
vn -0.9006 0.1837 0.3940
vn -0.9006 0.0190 0.4343
vn -0.9006 -0.1487 0.4085
vn 0.9685 -0.2258 0.1053
vn 0.9685 -0.1683 0.1837
vn 0.9685 -0.0852 0.2341
vn 0.9685 0.0109 0.2489
vn 0.9081 0.2027 0.3663
vn 0.9051 0.2882 0.3127
vn 0.9685 0.2341 0.0852
vn 0.9685 0.2489 -0.0109
vn 0.9685 0.2258 -0.1053
vn 0.9685 0.1683 -0.1837
vn 0.9685 0.0852 -0.2341
vn 0.9685 -0.0109 -0.2489
vn 0.8998 -0.2123 -0.3812
vn 0.8959 -0.2998 -0.3278
vn 0.9685 -0.2341 -0.0852
vn 0.9685 -0.2489 0.0109
vn 0.9536 0.2730 -0.1273
vn 0.9536 0.2035 -0.2221
vn 0.9536 0.1030 -0.2830
vn 0.9536 -0.0131 -0.3009
vn 0.9093 -0.1759 -0.3772
vn 0.9093 -0.3069 -0.2812
vn 0.9536 -0.2830 -0.1030
vn 0.9536 -0.3009 0.0131
vn 0.9536 -0.2730 0.1273
vn 0.9536 -0.2035 0.2221
vn 0.9536 -0.1030 0.2830
vn 0.9536 0.0131 0.3009
vn 0.9093 0.1759 0.3772
vn 0.9093 0.3069 0.2812
vn 0.9536 0.2830 0.1030
vn 0.9536 0.3009 -0.0131
vn 0.7272 0.3679 0.5795
vn 0.7142 0.3936 0.5788
vn -0.2112 0.6506 -0.7295
vn -0.3079 0.6709 -0.6746
vn -0.3792 0.6979 -0.6076
vn -0.1816 0.6644 -0.7250
vn -0.7384 -0.3796 -0.5574
vn -0.7217 -0.3712 -0.5843
vn -0.7393 -0.3801 -0.5559
vn -0.7548 -0.3879 -0.5290
vn -0.1494 -0.8881 0.4347
vn -0.2380 -0.8043 0.5446
vn -0.1884 -0.8455 0.4996
vn -0.1535 -0.8956 0.4176
vn 0.6681 -0.3998 -0.6276
vn 0.6509 -0.4285 -0.6267
vn -0.1731 -0.6477 0.7420
vn -0.2987 -0.6646 0.6849
vn -0.3643 -0.6955 0.6193
vn -0.1249 -0.6703 0.7315
vn -0.6342 0.4348 0.6393
vn -0.6129 0.4263 0.6653
vn -0.6394 0.4368 0.6327
vn -0.6594 0.4446 0.6063
vn -0.1244 0.8920 -0.4346
vn -0.2281 0.8107 -0.5393
vn -0.1765 0.8508 -0.4949
vn -0.1255 0.8991 -0.4193
vn 0.9999 -0.0130 0.0047
vn 0.9998 0.0200 -0.0083
vn 0.9999 0.0133 -0.0056
vn 0.9998 -0.0196 0.0074
vn -0.9999 0.0088 -0.0113
vn -0.9998 -0.0144 0.0167
vn -0.9999 -0.0098 0.0112
vn -0.9998 0.0134 -0.0168
# 168 vertex normals

vt 0.0910 0.7411 0.0000
vt 0.0998 0.7423 0.0000
vt 0.0998 0.7539 0.0000
vt 0.0910 0.7517 0.0000
vt 0.3171 0.9301 0.0000
vt 0.3259 0.9281 0.0000
vt 0.3259 0.9403 0.0000
vt 0.3171 0.9413 0.0000
vt 0.3259 0.9545 0.0000
vt 0.3171 0.9543 0.0000
vt 0.3259 0.9683 0.0000
vt 0.3171 0.9671 0.0000
vt 0.3259 0.9799 0.0000
vt 0.3171 0.9777 0.0000
vt 0.2886 0.8317 0.0000
vt 0.2798 0.8337 0.0000
vt 0.2798 0.8215 0.0000
vt 0.2886 0.8205 0.0000
vt 0.2798 0.8074 0.0000
vt 0.2886 0.8075 0.0000
vt 0.2798 0.7935 0.0000
vt 0.2886 0.7948 0.0000
vt 0.2798 0.7820 0.0000
vt 0.2886 0.7842 0.0000
vt 0.3628 0.9301 0.0000
vt 0.3716 0.9281 0.0000
vt 0.3716 0.9403 0.0000
vt 0.3628 0.9413 0.0000
vt 0.3716 0.9545 0.0000
vt 0.3628 0.9543 0.0000
vt 0.3716 0.9683 0.0000
vt 0.3628 0.9671 0.0000
vt 0.3716 0.9799 0.0000
vt 0.3628 0.9777 0.0000
vt 0.0910 0.7041 0.0000
vt 0.0998 0.7021 0.0000
vt 0.0998 0.7143 0.0000
vt 0.0910 0.7153 0.0000
vt 0.0998 0.7285 0.0000
vt 0.0910 0.7283 0.0000
vt 0.1086 0.7423 0.0000
vt 0.1086 0.7539 0.0000
vt 0.3347 0.9281 0.0000
vt 0.3347 0.9403 0.0000
vt 0.3347 0.9545 0.0000
vt 0.3347 0.9683 0.0000
vt 0.3347 0.9799 0.0000
vt 0.2710 0.8337 0.0000
vt 0.2710 0.8215 0.0000
vt 0.2710 0.8074 0.0000
vt 0.2710 0.7935 0.0000
vt 0.2710 0.7820 0.0000
vt 0.3804 0.9281 0.0000
vt 0.3804 0.9403 0.0000
vt 0.3804 0.9545 0.0000
vt 0.3804 0.9683 0.0000
vt 0.3804 0.9799 0.0000
vt 0.1086 0.7021 0.0000
vt 0.1086 0.7143 0.0000
vt 0.1086 0.7285 0.0000
vt 0.1173 0.7411 0.0000
vt 0.1173 0.7517 0.0000
vt 0.3435 0.9301 0.0000
vt 0.3435 0.9413 0.0000
vt 0.3435 0.9543 0.0000
vt 0.3435 0.9671 0.0000
vt 0.3435 0.9777 0.0000
vt 0.2622 0.8317 0.0000
vt 0.2622 0.8205 0.0000
vt 0.2622 0.8075 0.0000
vt 0.2622 0.7948 0.0000
vt 0.2622 0.7842 0.0000
vt 0.3892 0.9301 0.0000
vt 0.3892 0.9413 0.0000
vt 0.3892 0.9543 0.0000
vt 0.3892 0.9671 0.0000
vt 0.3892 0.9777 0.0000
vt 0.1173 0.7041 0.0000
vt 0.1173 0.7153 0.0000
vt 0.1173 0.7283 0.0000
vt 0.2153 0.2900 0.0000
vt 0.2231 0.2933 0.0000
vt 0.2291 0.2995 0.0000
vt 0.2323 0.3074 0.0000
vt 0.2322 0.3159 0.0000
vt 0.2289 0.3238 0.0000
vt 0.2228 0.3298 0.0000
vt 0.2148 0.3330 0.0000
vt 0.2063 0.3329 0.0000
vt 0.1984 0.3295 0.0000
vt 0.1924 0.3234 0.0000
vt 0.1892 0.3155 0.0000
vt 0.1893 0.3069 0.0000
vt 0.1927 0.2991 0.0000
vt 0.1988 0.2931 0.0000
vt 0.2067 0.2899 0.0000
vt 0.0981 0.5379 0.0000
vt 0.0981 0.5334 0.0000
vt 0.0998 0.5292 0.0000
vt 0.1030 0.5261 0.0000
vt 0.1071 0.5243 0.0000
vt 0.1116 0.5243 0.0000
vt 0.1158 0.5261 0.0000
vt 0.1190 0.5292 0.0000
vt 0.1207 0.5334 0.0000
vt 0.1207 0.5379 0.0000
vt 0.1190 0.5421 0.0000
vt 0.1158 0.5452 0.0000
vt 0.1116 0.5470 0.0000
vt 0.1071 0.5470 0.0000
vt 0.1030 0.5452 0.0000
vt 0.0998 0.5421 0.0000
vt 0.0806 0.8599 0.0000
vt 0.0722 0.8542 0.0000
vt 0.0758 0.8459 0.0000
vt 0.0856 0.8480 0.0000
vt 0.0758 0.8369 0.0000
vt 0.0858 0.8350 0.0000
vt 0.0725 0.8285 0.0000
vt 0.0809 0.8230 0.0000
vt 0.0662 0.8221 0.0000
vt 0.0719 0.8137 0.0000
vt 0.0579 0.8185 0.0000
vt 0.0599 0.8086 0.0000
vt 0.0488 0.8184 0.0000
vt 0.0470 0.8085 0.0000
vt 0.0405 0.8218 0.0000
vt 0.0349 0.8133 0.0000
vt 0.0340 0.8281 0.0000
vt 0.0257 0.8224 0.0000
vt 0.0305 0.8364 0.0000
vt 0.0206 0.8343 0.0000
vt 0.0304 0.8454 0.0000
vt 0.0205 0.8473 0.0000
vt 0.0337 0.8538 0.0000
vt 0.0253 0.8593 0.0000
vt 0.0401 0.8603 0.0000
vt 0.0344 0.8686 0.0000
vt 0.0484 0.8638 0.0000
vt 0.0463 0.8737 0.0000
vt 0.0574 0.8639 0.0000
vt 0.0593 0.8738 0.0000
vt 0.0658 0.8605 0.0000
vt 0.0713 0.8690 0.0000
vt 0.1052 0.8344 0.0000
vt 0.1108 0.8428 0.0000
vt 0.1045 0.8492 0.0000
vt 0.0961 0.8436 0.0000
vt 0.1010 0.8575 0.0000
vt 0.0911 0.8556 0.0000
vt 0.1010 0.8666 0.0000
vt 0.0911 0.8685 0.0000
vt 0.1045 0.8749 0.0000
vt 0.0961 0.8805 0.0000
vt 0.1109 0.8813 0.0000
vt 0.1053 0.8897 0.0000
vt 0.1192 0.8847 0.0000
vt 0.1172 0.8946 0.0000
vt 0.1282 0.8847 0.0000
vt 0.1302 0.8946 0.0000
vt 0.1366 0.8813 0.0000
vt 0.1422 0.8897 0.0000
vt 0.1429 0.8749 0.0000
vt 0.1513 0.8805 0.0000
vt 0.1464 0.8665 0.0000
vt 0.1563 0.8685 0.0000
vt 0.1464 0.8575 0.0000
vt 0.1563 0.8555 0.0000
vt 0.1429 0.8492 0.0000
vt 0.1513 0.8436 0.0000
vt 0.1366 0.8428 0.0000
vt 0.1422 0.8344 0.0000
vt 0.1282 0.8393 0.0000
vt 0.1302 0.8294 0.0000
vt 0.1192 0.8394 0.0000
vt 0.1172 0.8294 0.0000
vt 0.0903 0.5484 0.0000
vt 0.0950 0.5453 0.0000
vt 0.0998 0.5500 0.0000
vt 0.0966 0.5548 0.0000
vt 0.1060 0.5526 0.0000
vt 0.1049 0.5582 0.0000
vt 0.1128 0.5526 0.0000
vt 0.1139 0.5582 0.0000
vt 0.1190 0.5500 0.0000
vt 0.1222 0.5548 0.0000
vt 0.1285 0.5484 0.0000
vt 0.1238 0.5452 0.0000
vt 0.1263 0.5390 0.0000
vt 0.1320 0.5401 0.0000
vt 0.1263 0.5323 0.0000
vt 0.1320 0.5312 0.0000
vt 0.1237 0.5260 0.0000
vt 0.1285 0.5229 0.0000
vt 0.1190 0.5213 0.0000
vt 0.1222 0.5165 0.0000
vt 0.1128 0.5187 0.0000
vt 0.1139 0.5131 0.0000
vt 0.1060 0.5187 0.0000
vt 0.1049 0.5131 0.0000
vt 0.0998 0.5213 0.0000
vt 0.0966 0.5165 0.0000
vt 0.0903 0.5229 0.0000
vt 0.0950 0.5261 0.0000
vt 0.0924 0.5323 0.0000
vt 0.0868 0.5312 0.0000
vt 0.0925 0.5390 0.0000
vt 0.0868 0.5402 0.0000
vt 0.7924 0.3205 0.0000
vt 0.7997 0.3210 0.0000
vt 0.7991 0.3297 0.0000
vt 0.7923 0.3293 0.0000
vt 0.8735 0.3569 0.0000
vt 0.8644 0.3572 0.0000
vt 0.8653 0.3526 0.0000
vt 0.8711 0.3528 0.0000
vt 0.7226 0.0779 0.0000
vt 0.7181 0.0777 0.0000
vt 0.7180 0.0712 0.0000
vt 0.7228 0.0713 0.0000
vt 0.8012 0.0342 0.0000
vt 0.8061 0.0381 0.0000
vt 0.8034 0.0415 0.0000
vt 0.7957 0.0350 0.0000
vt 0.8766 0.2195 0.0000
vt 0.8758 0.2284 0.0000
vt 0.8674 0.2279 0.0000
vt 0.8680 0.2191 0.0000
vt 0.6069 0.1647 0.0000
vt 0.6155 0.1644 0.0000
vt 0.6143 0.1688 0.0000
vt 0.6089 0.1689 0.0000
vt 0.8442 0.2943 0.0000
vt 0.8436 0.2996 0.0000
vt 0.8373 0.2992 0.0000
vt 0.8378 0.2938 0.0000
vt 0.6445 0.0707 0.0000
vt 0.6479 0.0752 0.0000
vt 0.6449 0.0782 0.0000
vt 0.6389 0.0709 0.0000
vt 0.8312 0.3210 0.0000
vt 0.8307 0.3297 0.0000
vt 0.6722 0.0774 0.0000
vt 0.6702 0.0745 0.0000
vt 0.6931 0.0773 0.0000
vt 0.6930 0.0708 0.0000
vt 0.8282 0.0348 0.0000
vt 0.8305 0.0375 0.0000
# 248 texture coords

g Object015
usemtl wire_227153153
s 1
f 1/1/1 2/2/2 3/3/3 
f 3/3/3 4/4/4 1/1/1 
f 4/5/4 3/6/3 5/7/5 
f 5/7/5 6/8/6 4/5/4 
f 6/8/6 5/7/5 7/9/7 
f 7/9/7 8/10/8 6/8/6 
f 8/10/8 7/9/7 9/11/9 
f 9/11/9 10/12/10 8/10/8 
f 10/12/10 9/11/9 11/13/11 
f 11/13/11 12/14/12 10/12/10 
f 12/15/12 11/16/11 13/17/13 
f 13/17/13 14/18/14 12/15/12 
f 14/18/14 13/17/13 15/19/15 
f 15/19/15 16/20/16 14/18/14 
f 16/20/16 15/19/15 17/21/17 
f 17/21/17 18/22/18 16/20/16 
f 18/22/18 17/21/17 19/23/19 
f 19/23/19 20/24/20 18/22/18 
f 20/25/20 19/26/19 21/27/21 
f 21/27/21 22/28/22 20/25/20 
f 22/28/22 21/27/21 23/29/23 
f 23/29/23 24/30/24 22/28/22 
f 24/30/24 23/29/23 25/31/25 
f 25/31/25 26/32/26 24/30/24 
f 26/32/26 25/31/25 27/33/27 
f 27/33/27 28/34/28 26/32/26 
f 28/35/28 27/36/27 29/37/29 
f 29/37/29 30/38/30 28/35/28 
f 30/38/30 29/37/29 31/39/31 
f 31/39/31 32/40/32 30/38/30 
f 32/40/32 31/39/31 2/2/2 
f 2/2/2 1/1/1 32/40/32 
f 2/2/2 33/41/33 34/42/34 
f 34/42/34 3/3/3 2/2/2 
f 3/6/3 34/43/34 35/44/35 
f 35/44/35 5/7/5 3/6/3 
f 5/7/5 35/44/35 36/45/36 
f 36/45/36 7/9/7 5/7/5 
f 7/9/7 36/45/36 37/46/37 
f 37/46/37 9/11/9 7/9/7 
f 9/11/9 37/46/37 38/47/38 
f 38/47/38 11/13/11 9/11/9 
f 11/16/11 38/48/38 39/49/39 
f 39/49/39 13/17/13 11/16/11 
f 13/17/13 39/49/39 40/50/40 
f 40/50/40 15/19/15 13/17/13 
f 15/19/15 40/50/40 41/51/41 
f 41/51/41 17/21/17 15/19/15 
f 17/21/17 41/51/41 42/52/42 
f 42/52/42 19/23/19 17/21/17 
f 19/26/19 42/53/42 43/54/43 
f 43/54/43 21/27/21 19/26/19 
f 21/27/21 43/54/43 44/55/44 
f 44/55/44 23/29/23 21/27/21 
f 23/29/23 44/55/44 45/56/45 
f 45/56/45 25/31/25 23/29/23 
f 25/31/25 45/56/45 46/57/46 
f 46/57/46 27/33/27 25/31/25 
f 27/36/27 46/58/46 47/59/47 
f 47/59/47 29/37/29 27/36/27 
f 29/37/29 47/59/47 48/60/48 
f 48/60/48 31/39/31 29/37/29 
f 31/39/31 48/60/48 33/41/33 
f 33/41/33 2/2/2 31/39/31 
f 33/41/33 49/61/49 50/62/50 
f 50/62/50 34/42/34 33/41/33 
f 34/43/34 50/63/50 51/64/51 
f 51/64/51 35/44/35 34/43/34 
f 35/44/35 51/64/51 52/65/52 
f 52/65/52 36/45/36 35/44/35 
f 36/45/36 52/65/52 53/66/53 
f 53/66/53 37/46/37 36/45/36 
f 37/46/37 53/66/53 54/67/54 
f 54/67/54 38/47/38 37/46/37 
f 38/48/38 54/68/54 55/69/55 
f 55/69/55 39/49/39 38/48/38 
f 39/49/39 55/69/55 56/70/56 
f 56/70/56 40/50/40 39/49/39 
f 40/50/40 56/70/56 57/71/57 
f 57/71/57 41/51/41 40/50/40 
f 41/51/41 57/71/57 58/72/58 
f 58/72/58 42/52/42 41/51/41 
f 42/53/42 58/73/58 59/74/59 
f 59/74/59 43/54/43 42/53/42 
f 43/54/43 59/74/59 60/75/60 
f 60/75/60 44/55/44 43/54/43 
f 44/55/44 60/75/60 61/76/61 
f 61/76/61 45/56/45 44/55/44 
f 45/56/45 61/76/61 62/77/62 
f 62/77/62 46/57/46 45/56/45 
f 46/58/46 62/78/62 63/79/63 
f 63/79/63 47/59/47 46/58/46 
f 47/59/47 63/79/63 64/80/64 
f 64/80/64 48/60/48 47/59/47 
f 48/60/48 64/80/64 49/61/49 
f 49/61/49 33/41/33 48/60/48 
s off
f 65/81/65 66/82/65 67/83/65 
f 67/83/66 68/84/66 69/85/66 
f 65/81/67 67/83/67 69/85/67 
f 69/85/66 70/86/66 71/87/66 
f 71/87/66 72/88/66 73/89/66 
f 69/85/66 71/87/66 73/89/66 
f 65/81/68 69/85/68 73/89/68 
f 73/89/65 74/90/65 75/91/65 
f 75/91/66 76/92/66 77/93/66 
f 73/89/67 75/91/67 77/93/67 
f 65/81/68 73/89/68 77/93/68 
f 77/93/66 78/94/66 79/95/66 
f 65/81/66 77/93/66 79/95/66 
f 80/96/66 65/81/66 79/95/66 
s 1
f 81/97/69 82/98/70 83/99/71 
f 83/99/71 84/100/72 85/101/73 
f 81/97/69 83/99/71 85/101/73 
f 85/101/73 86/102/74 87/103/75 
f 87/103/75 88/104/76 89/105/77 
f 85/101/73 87/103/75 89/105/77 
f 81/97/69 85/101/73 89/105/77 
f 89/105/77 90/106/78 91/107/79 
f 91/107/79 92/108/80 93/109/81 
f 89/105/77 91/107/79 93/109/81 
f 81/97/69 89/105/77 93/109/81 
f 93/109/81 94/110/82 95/111/83 
f 81/97/69 93/109/81 95/111/83 
f 96/112/84 81/97/69 95/111/83 
f 4/113/4 66/114/85 65/115/86 
f 65/115/86 1/116/1 4/113/4 
f 1/116/1 65/115/86 80/117/87 
f 80/117/87 32/118/32 1/116/1 
f 32/118/32 80/117/87 79/119/88 
f 79/119/88 30/120/30 32/118/32 
f 30/120/30 79/119/88 78/121/89 
f 78/121/89 28/122/28 30/120/30 
f 28/122/28 78/121/89 77/123/90 
f 77/123/90 26/124/26 28/122/28 
f 26/124/26 77/123/90 76/125/91 
f 76/125/91 24/126/24 26/124/26 
f 24/126/24 76/125/91 75/127/92 
f 75/127/92 22/128/22 24/126/24 
f 22/128/22 75/127/92 74/129/93 
f 74/129/93 20/130/20 22/128/22 
f 20/130/20 74/129/93 73/131/94 
f 73/131/94 18/132/18 20/130/20 
f 18/132/18 73/131/94 72/133/95 
f 72/133/95 16/134/16 18/132/18 
f 16/134/16 72/133/95 71/135/96 
f 71/135/96 14/136/14 16/134/16 
f 14/136/14 71/135/96 70/137/97 
f 70/137/97 12/138/12 14/136/14 
f 12/138/12 70/137/97 69/139/98 
f 69/139/98 10/140/10 12/138/12 
f 10/140/10 69/139/98 68/141/99 
f 68/141/99 8/142/8 10/140/10 
f 8/142/8 68/141/99 67/143/100 
f 67/143/100 6/144/6 8/142/8 
f 6/144/6 67/143/100 66/114/85 
f 66/114/85 4/113/4 6/144/6 
f 49/145/49 97/146/101 98/147/102 
f 98/147/102 50/148/50 49/145/49 
f 50/148/50 98/147/102 99/149/103 
f 99/149/103 51/150/51 50/148/50 
f 51/150/51 99/149/103 100/151/104 
f 100/151/104 52/152/52 51/150/51 
f 52/152/52 100/151/104 101/153/105 
f 101/153/105 53/154/53 52/152/52 
f 53/154/53 101/153/105 102/155/106 
f 102/155/106 54/156/54 53/154/53 
f 54/156/54 102/155/106 103/157/107 
f 103/157/107 55/158/55 54/156/54 
f 55/158/55 103/157/107 104/159/108 
f 104/159/108 56/160/56 55/158/55 
f 56/160/56 104/159/108 105/161/109 
f 105/161/109 57/162/57 56/160/56 
f 57/162/57 105/161/109 106/163/110 
f 106/163/110 58/164/58 57/162/57 
f 58/164/58 106/163/110 107/165/111 
f 107/165/111 59/166/59 58/164/58 
f 59/166/59 107/165/111 108/167/112 
f 108/167/112 60/168/60 59/166/59 
f 60/168/60 108/167/112 109/169/113 
f 109/169/113 61/170/61 60/168/60 
f 61/170/61 109/169/113 110/171/114 
f 110/171/114 62/172/62 61/170/61 
f 62/172/62 110/171/114 111/173/115 
f 111/173/115 63/174/63 62/172/62 
f 63/174/63 111/173/115 112/175/116 
f 112/175/116 64/176/64 63/174/63 
f 64/176/64 112/175/116 97/146/101 
f 97/146/101 49/145/49 64/176/64 
f 97/177/101 113/178/117 114/179/118 
f 114/179/118 98/180/102 97/177/101 
f 98/180/102 114/179/118 115/181/119 
f 115/181/119 99/182/103 98/180/102 
f 99/182/103 115/181/119 116/183/120 
f 116/183/120 100/184/104 99/182/103 
f 100/184/104 116/183/120 117/185/121 
f 117/185/121 101/186/105 100/184/104 
f 102/187/106 118/188/122 119/189/123 
f 119/189/123 103/190/107 102/187/106 
f 103/190/107 119/189/123 120/191/124 
f 120/191/124 104/192/108 103/190/107 
f 104/192/108 120/191/124 121/193/125 
f 121/193/125 105/194/109 104/192/108 
f 105/194/109 121/193/125 122/195/126 
f 122/195/126 106/196/110 105/194/109 
f 106/196/110 122/195/126 123/197/127 
f 123/197/127 107/198/111 106/196/110 
f 107/198/111 123/197/127 124/199/128 
f 124/199/128 108/200/112 107/198/111 
f 108/200/112 124/199/128 125/201/129 
f 125/201/129 109/202/113 108/200/112 
f 110/203/114 126/204/130 127/205/131 
f 127/205/131 111/206/115 110/203/114 
f 111/206/115 127/205/131 128/207/132 
f 128/207/132 112/208/116 111/206/115 
f 112/208/116 128/207/132 113/178/117 
f 113/178/117 97/177/101 112/208/116 
f 113/178/117 96/112/84 95/111/83 
f 95/111/83 114/179/118 113/178/117 
f 114/179/118 95/111/83 94/110/82 
f 94/110/82 115/181/119 114/179/118 
f 115/181/119 94/110/82 93/109/81 
f 93/109/81 116/183/120 115/181/119 
f 116/183/120 93/109/81 92/108/80 
f 92/108/80 117/185/121 116/183/120 
f 117/185/121 92/108/80 91/107/79 
f 91/107/79 118/188/122 117/185/121 
f 118/188/122 91/107/79 90/106/78 
f 90/106/78 119/189/123 118/188/122 
f 119/189/123 90/106/78 89/105/77 
f 89/105/77 120/191/124 119/189/123 
f 120/191/124 89/105/77 88/104/76 
f 88/104/76 121/193/125 120/191/124 
f 121/193/125 88/104/76 87/103/75 
f 87/103/75 122/195/126 121/193/125 
f 122/195/126 87/103/75 86/102/74 
f 86/102/74 123/197/127 122/195/126 
f 123/197/127 86/102/74 85/101/73 
f 85/101/73 124/199/128 123/197/127 
f 124/199/128 85/101/73 84/100/72 
f 84/100/72 125/201/129 124/199/128 
f 125/201/129 84/100/72 83/99/71 
f 83/99/71 126/204/130 125/201/129 
f 126/204/130 83/99/71 82/98/70 
f 82/98/70 127/205/131 126/204/130 
f 127/205/131 82/98/70 81/97/69 
f 81/97/69 128/207/132 127/205/131 
f 128/207/132 81/97/69 96/112/84 
f 96/112/84 113/178/117 128/207/132 
f 101/209/105 129/210/133 130/211/134 
f 130/211/134 102/212/106 101/209/105 
s 2
f 102/213/135 130/214/136 131/215/137 
f 131/215/137 118/216/138 102/213/135 
s 4
f 118/217/139 131/218/140 132/219/141 
f 132/219/141 117/220/142 118/217/139 
s 2
f 117/221/143 132/222/144 129/223/145 
f 129/223/145 101/224/146 117/221/143 
s 1
f 109/225/113 133/226/147 134/227/148 
f 134/227/148 110/228/114 109/225/113 
s 2
f 110/229/149 134/230/150 135/231/151 
f 135/231/151 126/232/152 110/229/149 
s 4
f 126/233/153 135/234/154 136/235/155 
f 136/235/155 125/236/156 126/233/153 
s 2
f 125/237/157 136/238/158 133/239/159 
f 133/239/159 109/240/160 125/237/157 
s 4
f 129/210/161 134/241/162 133/242/163 
f 133/242/163 130/211/164 129/210/161 
s 2
f 130/243/136 133/239/159 136/238/158 
f 136/238/158 131/244/137 130/243/136 
s 1
f 131/218/165 136/245/166 135/246/167 
f 135/246/167 132/219/168 131/218/165 
s 2
f 132/222/144 135/247/151 134/248/150 
f 134/248/150 129/223/145 132/222/144 
# 272 faces

