{
  "accessors": {
    "accessor_index_0": {
      "bufferView": "bufferView_1",
      "byteOffset": 0,
      "byteStride": 0,
      "componentType": 5123,
      "count": 3840,
      "type": "SCALAR",
      "min": [
        0
      ],
      "max": [
        879
      ]
    },
    "accessor_position": {
      "bufferView": "bufferView_0",
      "byteOffset": 0,
      "byteStride": 0,
      "componentType": 5126,
      "count": 672,
      "min": [
        -486.443603515625,
        97.4198989868164,
        -643.9702758789062
      ],
      "max": [
        648.6585083007812,
        748.5344848632812,
        511.02630615234375
      ],
      "type": "VEC3"
    },
    "accessor_normal": {
      "bufferView": "bufferView_0",
      "byteOffset": 8064,
      "byteStride": 0,
      "componentType": 5126,
      "count": 672,
      "type": "VEC3",
      "min": [
        -0.9993348121643066,
        -0.997747540473938,
        -0.9997536540031433
      ],
      "max": [
        0.9993348121643066,
        0.997747540473938,
        0.9997536540031433
      ]
    }
  },
  "asset": {
    "generator": "OBJ2GLTF",
    "premultipliedAlpha": true,
    "profile": {
      "api": "WebGL",
      "version": "1.0"
    },
    "version": "1.0"
  },
  "buffers": {
    "buffer_0": {
      "type": "arraybuffer",
      "byteLength": 23808,
      "uri": "data:application/octet-stream;base64,"
    }
  },
  "bufferViews": {
    "bufferView_0": {
      "buffer": "buffer_0",
      "byteLength": 16128,
      "byteOffset": 0,
      "target": 34962
    },
    "bufferView_1": {
      "buffer": "buffer_0",
      "byteLength": 7680,
      "byteOffset": 16128,
      "target": 34963
    }
  },
  "images": {},
  "materials": {
    "material_czmDefaultMat": {
      "name": "czmDefaultMat",
      "extensions": {},
      "values": {
        "ambient": [
          0,
          0,
          0,
          1
        ],
        "diffuse": [
          0.5,
          0.5,
          0.5,
          1
        ],
        "emission": [
          0,
          0,
          0,
          1
        ],
        "specular": [
          0,
          0,
          0,
          1
        ],
        "shininess": 0,
        "transparency": 1
      },
      "technique": "technique0"
    }
  },
  "meshes": {
    "mesh_input": {
      "name": "input",
      "primitives": [
        {
          "attributes": {
            "POSITION": "accessor_position",
            "NORMAL": "accessor_normal"
          },
          "indices": "accessor_index_0",
          "material": "material_czmDefaultMat",
          "mode": 4
        }
      ]
    }
  },
  "nodes": {
    "rootNode": {
      "children": [],
      "meshes": [
        "mesh_input"
      ],
      "matrix": [
        1,
        0,
        0,
        0,
        0,
        1,
        0,
        0,
        0,
        0,
        1,
        0,
        0,
        0,
        0,
        1
      ]
    }
  },
  "samplers": {},
  "scene": "scene_input",
  "scenes": {
    "scene_input": {
      "nodes": [
        "rootNode"
      ]
    }
  },
  "textures": {},
  "extensionsUsed": [],
  "animations": {},
  "cameras": {},
  "techniques": {
    "technique0": {
      "attributes": {
        "a_position": "position",
        "a_normal": "normal"
      },
      "parameters": {
        "modelViewMatrix": {
          "semantic": "MODELVIEW",
          "type": 35676
        },
        "projectionMatrix": {
          "semantic": "PROJECTION",
          "type": 35676
        },
        "normalMatrix": {
          "semantic": "MODELVIEWINVERSETRANSPOSE",
          "type": 35675
        },
        "ambient": {
          "type": 35666
        },
        "diffuse": {
          "type": 35666
        },
        "emission": {
          "type": 35666
        },
        "specular": {
          "type": 35666
        },
        "shininess": {
          "type": 5126
        },
        "transparency": {
          "type": 5126
        },
        "position": {
          "semantic": "POSITION",
          "type": 35665
        },
        "normal": {
          "semantic": "NORMAL",
          "type": 35665
        }
      },
      "program": "program0",
      "states": {
        "enable": [
          2884,
          2929
        ]
      },
      "uniforms": {
        "u_modelViewMatrix": "modelViewMatrix",
        "u_projectionMatrix": "projectionMatrix",
        "u_normalMatrix": "normalMatrix",
        "u_ambient": "ambient",
        "u_diffuse": "diffuse",
        "u_emission": "emission",
        "u_specular": "specular",
        "u_shininess": "shininess",
        "u_transparency": "transparency"
      }
    }
  },
  "programs": {
    "program0": {
      "attributes": [
        "a_position",
        "a_normal"
      ],
      "fragmentShader": "fragmentShader0",
      "vertexShader": "vertexShader0"
    }
  },
  "shaders": {
    "vertexShader0": {
      "type": 35633,
      "uri": "data:text/plain;base64,"
    },
    "fragmentShader0": {
      "type": 35632,
      "uri": "data:text/plain;base64,"
    }
  },
  "skins": {},
  "extensions": {}
}
