# 3ds Max Wavefront OBJ Exporter v0.97b - (c)2007 guruware
# File Created: 31.10.2016 08:29:48

mtllib gameButton.mtl

#
# object gameButtonLow
#

v  18.5285 0.0000 -0.0000
v  16.0462 0.0000 -9.2643
v  16.0462 3.5589 -9.2643
v  18.5285 3.5589 -0.0000
v  9.2643 0.0000 -16.0462
v  9.2643 3.5589 -16.0462
v  -0.0000 0.0000 -18.5285
v  -0.0000 3.5589 -18.5285
v  -9.2643 0.0000 -16.0462
v  -9.2643 3.5589 -16.0462
v  -16.0462 0.0000 -9.2643
v  -16.0462 3.5589 -9.2643
v  -18.5285 0.0000 -0.0000
v  -18.5285 3.5589 -0.0000
v  -16.0462 0.0000 9.2643
v  -16.0462 3.5589 9.2643
v  -9.2643 0.0000 16.0462
v  -9.2643 3.5589 16.0462
v  -0.0000 0.0000 18.5285
v  -0.0000 3.5589 18.5285
v  9.2643 0.0000 16.0462
v  9.2643 3.5589 16.0462
v  16.0462 0.0000 9.2643
v  16.0462 3.5589 9.2643
v  12.3836 6.5838 -7.1497
v  7.1497 6.5838 -12.3836
v  -0.0000 6.5838 -14.2993
v  -7.1497 6.5838 -12.3836
v  -12.3836 6.5838 -7.1497
v  -14.2993 6.5838 -0.0000
v  -12.3836 6.5838 7.1496
v  -7.1497 6.5838 12.3836
v  -0.0000 6.5838 14.2993
v  7.1496 6.5838 12.3836
v  12.3836 6.5838 7.1497
v  14.2993 6.5838 -0.0000
v  14.7736 5.4386 -8.5295
v  17.0590 5.4386 0.0000
v  8.5295 5.4386 -14.7736
v  -0.0000 5.4386 -17.0590
v  -8.5295 5.4386 -14.7736
v  -14.7736 5.4386 -8.5295
v  -17.0590 5.4386 -0.0000
v  -14.7736 5.4386 8.5295
v  -8.5295 5.4386 14.7736
v  -0.0000 5.4386 17.0590
v  8.5295 5.4386 14.7736
v  14.7736 5.4386 8.5295
# 48 vertices

vn 0.7572 -0.6532 0.0000
vn 0.6557 -0.6532 -0.3786
vn 0.8233 0.3103 -0.4753
vn 0.9506 0.3103 0.0000
vn 0.3786 -0.6532 -0.6557
vn 0.4753 0.3103 -0.8233
vn 0.0000 -0.6532 -0.7572
vn -0.0000 0.3103 -0.9506
vn -0.3786 -0.6532 -0.6557
vn -0.4753 0.3103 -0.8233
vn -0.6557 -0.6532 -0.3786
vn -0.8233 0.3103 -0.4753
vn -0.7572 -0.6532 -0.0000
vn -0.9506 0.3103 -0.0000
vn -0.6557 -0.6532 0.3786
vn -0.8233 0.3103 0.4753
vn -0.3786 -0.6532 0.6557
vn -0.4753 0.3103 0.8233
vn -0.0000 -0.6532 0.7572
vn -0.0000 0.3103 0.9506
vn 0.3786 -0.6532 0.6557
vn 0.4753 0.3103 0.8233
vn 0.6557 -0.6532 0.3786
vn 0.8233 0.3103 0.4753
vn 0.1960 0.9741 -0.1131
vn 0.1131 0.9741 -0.1960
vn 0.0000 0.9741 -0.2263
vn -0.1131 0.9741 -0.1960
vn -0.1960 0.9741 -0.1131
vn -0.2263 0.9741 -0.0000
vn -0.1960 0.9741 0.1131
vn -0.1131 0.9741 0.1960
vn -0.0000 0.9741 0.2263
vn 0.1131 0.9741 0.1960
vn 0.1960 0.9741 0.1131
vn 0.2263 0.9741 0.0000
vn 0.5463 0.7759 -0.3154
vn 0.6308 0.7759 0.0000
vn 0.3154 0.7759 -0.5463
vn -0.0000 0.7759 -0.6308
vn -0.3154 0.7759 -0.5463
vn -0.5463 0.7759 -0.3154
vn -0.6308 0.7759 -0.0000
vn -0.5463 0.7759 0.3154
vn -0.3154 0.7759 0.5463
vn -0.0000 0.7759 0.6308
vn 0.3154 0.7759 0.5463
vn 0.5463 0.7759 0.3154
# 48 vertex normals

vt 0.8143 0.6818 0.0000
vt 0.9629 0.6818 0.0000
vt 0.9629 0.7388 0.0000
vt 0.8143 0.7388 0.0000
vt 0.5452 0.8366 0.0000
vt 0.6592 0.8366 0.0000
vt 0.6592 0.8965 0.0000
vt 0.5452 0.8965 0.0000
vt 0.8149 0.8366 0.0000
vt 0.8149 0.8965 0.0000
vt 0.9706 0.8366 0.0000
vt 0.9706 0.8965 0.0000
vt 0.4249 0.9140 0.0000
vt 0.5418 0.9140 0.0000
vt 0.5418 0.9754 0.0000
vt 0.4249 0.9754 0.0000
vt 0.7015 0.9140 0.0000
vt 0.7015 0.9754 0.0000
vt 0.8612 0.9140 0.0000
vt 0.8612 0.9754 0.0000
vt 0.9781 0.9140 0.0000
vt 0.9781 0.9754 0.0000
vt 0.5452 0.7585 0.0000
vt 0.7009 0.7585 0.0000
vt 0.7009 0.8183 0.0000
vt 0.5452 0.8183 0.0000
vt 0.8566 0.7585 0.0000
vt 0.8566 0.8183 0.0000
vt 0.9706 0.7585 0.0000
vt 0.9706 0.8183 0.0000
vt 0.6657 0.6818 0.0000
vt 0.6657 0.7388 0.0000
vt 0.7204 0.0631 0.0000
vt 0.7824 0.0268 0.0000
vt 0.8542 0.0265 0.0000
vt 0.9166 0.0620 0.0000
vt 0.9529 0.1241 0.0000
vt 0.9532 0.1959 0.0000
vt 0.9177 0.2583 0.0000
vt 0.8557 0.2945 0.0000
vt 0.7838 0.2949 0.0000
vt 0.7214 0.2593 0.0000
vt 0.6852 0.1973 0.0000
vt 0.6848 0.1255 0.0000
vt 0.5945 0.3206 0.0000
vt 0.6528 0.4234 0.0000
vt 0.6520 0.5416 0.0000
vt 0.5921 0.6436 0.0000
vt 0.4893 0.7019 0.0000
vt 0.3711 0.7011 0.0000
vt 0.2692 0.6412 0.0000
vt 0.2108 0.5384 0.0000
vt 0.2116 0.4202 0.0000
vt 0.2715 0.3183 0.0000
vt 0.3743 0.2599 0.0000
vt 0.4925 0.2607 0.0000
vt 0.7598 0.4832 0.0000
vt 0.7598 0.6496 0.0000
vt 0.7261 0.6364 0.0000
vt 0.7261 0.4832 0.0000
vt 0.4895 0.0507 0.0000
vt 0.4895 0.2020 0.0000
vt 0.4523 0.1960 0.0000
vt 0.4523 0.0567 0.0000
vt 0.8273 0.3169 0.0000
vt 0.8273 0.4832 0.0000
vt 0.7936 0.4832 0.0000
vt 0.7936 0.3300 0.0000
vt 0.8273 0.6496 0.0000
vt 0.7936 0.6364 0.0000
vt 0.5649 0.0507 0.0000
vt 0.5649 0.2020 0.0000
vt 0.5278 0.1960 0.0000
vt 0.5278 0.0567 0.0000
vt 0.8948 0.3169 0.0000
vt 0.8948 0.4832 0.0000
vt 0.8611 0.4832 0.0000
vt 0.8611 0.3300 0.0000
vt 0.8948 0.6496 0.0000
vt 0.8611 0.6364 0.0000
vt 0.6403 0.0507 0.0000
vt 0.6403 0.2020 0.0000
vt 0.6032 0.1960 0.0000
vt 0.6032 0.0567 0.0000
vt 0.9623 0.3169 0.0000
vt 0.9623 0.4832 0.0000
vt 0.9286 0.4832 0.0000
vt 0.9286 0.3300 0.0000
vt 0.9623 0.6496 0.0000
vt 0.9286 0.6364 0.0000
vt 0.4141 0.0507 0.0000
vt 0.4141 0.2020 0.0000
vt 0.3769 0.1960 0.0000
vt 0.3769 0.0567 0.0000
vt 0.7598 0.3169 0.0000
vt 0.7261 0.3300 0.0000
vt 0.5042 0.2183 0.0000
vt 0.6258 0.2896 0.0000
vt 0.6955 0.4123 0.0000
vt 0.6945 0.5533 0.0000
vt 0.6231 0.6749 0.0000
vt 0.5005 0.7446 0.0000
vt 0.3594 0.7436 0.0000
vt 0.2378 0.6722 0.0000
vt 0.1681 0.5495 0.0000
vt 0.1692 0.4085 0.0000
vt 0.2405 0.2869 0.0000
vt 0.3632 0.2172 0.0000
# 108 texture coords

g gameButtonLow
usemtl wire_006135058
s 1
f 1/1/1 2/2/2 3/3/3 
f 3/3/3 4/4/4 1/1/1 
f 2/5/2 5/6/5 6/7/6 
f 6/7/6 3/8/3 2/5/2 
f 5/6/5 7/9/7 8/10/8 
f 8/10/8 6/7/6 5/6/5 
f 7/9/7 9/11/9 10/12/10 
f 10/12/10 8/10/8 7/9/7 
f 9/13/9 11/14/11 12/15/12 
f 12/15/12 10/16/10 9/13/9 
f 11/14/11 13/17/13 14/18/14 
f 14/18/14 12/15/12 11/14/11 
f 13/17/13 15/19/15 16/20/16 
f 16/20/16 14/18/14 13/17/13 
f 15/19/15 17/21/17 18/22/18 
f 18/22/18 16/20/16 15/19/15 
f 17/23/17 19/24/19 20/25/20 
f 20/25/20 18/26/18 17/23/17 
f 19/24/19 21/27/21 22/28/22 
f 22/28/22 20/25/20 19/24/19 
f 21/27/21 23/29/23 24/30/24 
f 24/30/24 22/28/22 21/27/21 
f 23/31/23 1/1/1 4/4/4 
f 4/4/4 24/32/24 23/31/23 
f 21/33/21 19/34/19 17/35/17 
f 17/35/17 15/36/15 13/37/13 
f 13/37/13 11/38/11 9/39/9 
f 17/35/17 13/37/13 9/39/9 
f 9/39/9 7/40/7 5/41/5 
f 5/41/5 2/42/2 1/43/1 
f 9/39/9 5/41/5 1/43/1 
f 17/35/17 9/39/9 1/43/1 
f 21/33/21 17/35/17 1/43/1 
f 23/44/23 21/33/21 1/43/1 
f 25/45/25 26/46/26 27/47/27 
f 27/47/27 28/48/28 29/49/29 
f 29/49/29 30/50/30 31/51/31 
f 27/47/27 29/49/29 31/51/31 
f 31/51/31 32/52/32 33/53/33 
f 33/53/33 34/54/34 35/55/35 
f 31/51/31 33/53/33 35/55/35 
f 27/47/27 31/51/31 35/55/35 
f 25/45/25 27/47/27 35/55/35 
f 36/56/36 25/45/25 35/55/35 
f 4/57/4 3/58/3 37/59/37 
f 37/59/37 38/60/38 4/57/4 
f 3/61/3 6/62/6 39/63/39 
f 39/63/39 37/64/37 3/61/3 
f 6/65/6 8/66/8 40/67/40 
f 40/67/40 39/68/39 6/65/6 
f 8/66/8 10/69/10 41/70/41 
f 41/70/41 40/67/40 8/66/8 
f 10/71/10 12/72/12 42/73/42 
f 42/73/42 41/74/41 10/71/10 
f 12/75/12 14/76/14 43/77/43 
f 43/77/43 42/78/42 12/75/12 
f 14/76/14 16/79/16 44/80/44 
f 44/80/44 43/77/43 14/76/14 
f 16/81/16 18/82/18 45/83/45 
f 45/83/45 44/84/44 16/81/16 
f 18/85/18 20/86/20 46/87/46 
f 46/87/46 45/88/45 18/85/18 
f 20/86/20 22/89/22 47/90/47 
f 47/90/47 46/87/46 20/86/20 
f 22/91/22 24/92/24 48/93/48 
f 48/93/48 47/94/47 22/91/22 
f 24/95/24 4/57/4 38/60/38 
f 38/60/38 48/96/48 24/95/24 
f 38/97/38 37/98/37 25/45/25 
f 25/45/25 36/56/36 38/97/38 
f 37/98/37 39/99/39 26/46/26 
f 26/46/26 25/45/25 37/98/37 
f 39/99/39 40/100/40 27/47/27 
f 27/47/27 26/46/26 39/99/39 
f 40/100/40 41/101/41 28/48/28 
f 28/48/28 27/47/27 40/100/40 
f 41/101/41 42/102/42 29/49/29 
f 29/49/29 28/48/28 41/101/41 
f 42/102/42 43/103/43 30/50/30 
f 30/50/30 29/49/29 42/102/42 
f 43/103/43 44/104/44 31/51/31 
f 31/51/31 30/50/30 43/103/43 
f 44/104/44 45/105/45 32/52/32 
f 32/52/32 31/51/31 44/104/44 
f 45/105/45 46/106/46 33/53/33 
f 33/53/33 32/52/32 45/105/45 
f 46/106/46 47/107/47 34/54/34 
f 34/54/34 33/53/33 46/106/46 
f 47/107/47 48/108/48 35/55/35 
f 35/55/35 34/54/34 47/107/47 
f 48/108/48 38/97/38 36/56/36 
f 36/56/36 35/55/35 48/108/48 
# 92 faces

