# 3ds Max Wavefront OBJ Exporter v0.97b - (c)2007 guruware
# File Created: 20.02.2016 18:32:19

mtllib autogun_tower.mtl

#
# object Box031
#

v  -5.9704 -0.0000 3.7682
v  5.9704 -0.0000 3.7682
v  5.9704 -0.0000 5.9704
v  -5.9704 -0.0000 5.9704
v  -6.5504 0.4040 6.5504
v  6.5504 0.4040 6.5504
v  5.7137 4.7684 5.7137
v  -5.7137 4.7684 5.7137
v  6.5504 0.4040 3.7682
v  5.7137 4.7684 3.7682
v  6.5504 0.4040 -6.5504
v  -6.5504 0.4040 -6.5504
v  -5.7137 4.7684 -5.7137
v  5.7137 4.7684 -5.7137
v  -6.5504 0.4040 -3.7682
v  -5.7137 4.7684 -3.7682
v  5.1337 5.3794 5.1337
v  -5.1337 5.3794 5.1337
v  5.1337 5.3794 3.7682
v  -5.1337 5.3794 -5.1337
v  5.1337 5.3794 -5.1337
v  -5.1337 5.3794 -3.7682
v  3.7682 5.3794 3.7682
v  -3.7682 5.3794 3.7682
v  -3.7682 5.3794 -3.7682
v  3.7682 5.3794 -3.7682
v  -5.9704 -0.0000 -5.9704
v  5.9704 -0.0000 -5.9704
v  5.9704 -0.0000 -3.7682
v  -5.9704 -0.0000 -3.7682
v  6.5504 0.4040 -3.7682
v  5.7137 4.7684 -3.7682
v  -6.5504 0.4040 3.7682
v  -5.7137 4.7684 3.7682
v  5.1337 5.3794 -3.7682
v  -5.1337 5.3794 3.7682
v  -5.1337 17.6444 0.6568
v  -3.7682 17.6444 0.6568
v  -3.7682 17.6444 -0.6568
v  -5.1337 17.6444 -0.6568
v  5.1337 17.6444 -0.6568
v  3.7682 17.6444 -0.6568
v  3.7682 17.6444 0.6568
v  5.1337 17.6444 0.6568
v  -3.7682 15.3794 -3.7682
v  -3.7682 15.3794 3.7682
v  -5.1337 15.3794 -3.7682
v  -5.1337 15.3794 3.7682
v  3.7682 15.3794 3.7682
v  3.7682 15.3794 -3.7682
v  5.1337 15.3794 3.7682
v  5.1337 15.3794 -3.7682
v  -3.7682 16.3394 -3.1661
v  -3.7682 16.3394 3.1661
v  -5.1337 16.3394 -3.1661
v  -5.1337 16.3394 3.1661
v  3.7682 16.3394 3.1661
v  3.7682 16.3394 -3.1661
v  5.1337 16.3394 3.1661
v  5.1337 16.3394 -3.1661
v  -3.7682 17.0814 -2.1872
v  -3.7682 17.0814 2.1872
v  -5.1337 17.0814 -2.1872
v  -5.1337 17.0814 2.1872
v  3.7682 17.0814 2.1872
v  3.7682 17.0814 -2.1872
v  5.1337 17.0814 2.1872
v  5.1337 17.0814 -2.1872
# 68 vertices

vn 0.0000 -1.0000 -0.0000
vn 0.0000 0.1883 0.9821
vn 0.9821 0.1883 -0.0000
vn 0.0000 0.1883 -0.9821
vn -0.9821 0.1883 -0.0000
vn -0.9821 0.1883 0.0000
vn 0.0000 0.6885 0.7253
vn 0.7253 0.6885 0.0000
vn 0.7253 0.6885 -0.0000
vn 0.0000 0.6885 -0.7253
vn -0.7253 0.6885 -0.0000
vn 0.0000 1.0000 -0.0000
vn 0.9821 0.1883 0.0000
vn -0.7253 0.6885 0.0000
vn 1.0000 0.0000 -0.0000
vn 0.0000 0.0000 -1.0000
vn -1.0000 0.0000 -0.0000
vn 0.0000 0.0000 1.0000
vn -0.0000 0.0000 1.0000
vn -0.0000 0.0000 -1.0000
vn 0.0000 0.5314 -0.8471
vn 0.0000 0.5314 0.8472
vn 0.0000 0.5314 0.8471
vn -0.0000 0.5314 0.8471
vn -0.0000 0.5314 0.8472
vn 1.0000 -0.0000 -0.0000
vn -0.0000 0.5314 -0.8471
vn 0.0000 0.7969 -0.6041
vn 0.0000 0.7969 0.6041
vn -1.0000 -0.0000 0.0000
vn -0.0000 0.7969 0.6041
vn -0.0000 0.7969 -0.6041
vn 0.0000 0.9385 -0.3452
vn 0.0000 0.9385 0.3452
vn -1.0000 0.0000 0.0000
vn -0.0000 0.9385 0.3452
vn -0.0000 0.9385 -0.3452
vn -0.5716 -0.8206 -0.0000
vn 0.0000 -0.8206 -0.5716
vn 0.5716 -0.8206 -0.0000
vn 0.0000 -0.8206 0.5716
# 41 vertex normals

vt 0.2336 0.9015 0.0000
vt 0.1433 0.9015 0.0000
vt 0.1433 0.8849 0.0000
vt 0.2336 0.8849 0.0000
vt 0.0200 0.8162 0.0000
vt 0.1184 0.8162 0.0000
vt 0.1121 0.8496 0.0000
vt 0.0263 0.8496 0.0000
vt 0.3954 0.7759 0.0000
vt 0.3626 0.7759 0.0000
vt 0.3626 0.7613 0.0000
vt 0.3954 0.7550 0.0000
vt 0.1392 0.7344 0.0000
vt 0.2376 0.7344 0.0000
vt 0.2313 0.7678 0.0000
vt 0.1455 0.7678 0.0000
vt 0.3954 0.9017 0.0000
vt 0.3626 0.9017 0.0000
vt 0.3626 0.8871 0.0000
vt 0.3954 0.8808 0.0000
vt 0.1078 0.8549 0.0000
vt 0.0306 0.8549 0.0000
vt 0.3580 0.7759 0.0000
vt 0.3580 0.7656 0.0000
vt 0.2270 0.7731 0.0000
vt 0.1499 0.7731 0.0000
vt 0.3580 0.9017 0.0000
vt 0.3580 0.8915 0.0000
vt 0.3963 0.6514 0.0000
vt 0.3862 0.6616 0.0000
vt 0.3302 0.6616 0.0000
vt 0.3201 0.6514 0.0000
vt 0.3963 0.6616 0.0000
vt 0.3201 0.7277 0.0000
vt 0.3302 0.7175 0.0000
vt 0.3862 0.7175 0.0000
vt 0.3963 0.7277 0.0000
vt 0.3201 0.7175 0.0000
vt 0.2336 0.9752 0.0000
vt 0.1433 0.9752 0.0000
vt 0.1433 0.9585 0.0000
vt 0.2336 0.9585 0.0000
vt 0.3954 0.8325 0.0000
vt 0.3954 0.8534 0.0000
vt 0.3626 0.8471 0.0000
vt 0.3626 0.8325 0.0000
vt 0.3954 0.9583 0.0000
vt 0.3626 0.9583 0.0000
vt 0.3580 0.8427 0.0000
vt 0.3580 0.8325 0.0000
vt 0.3580 0.9583 0.0000
vt 0.3963 0.7175 0.0000
vt 0.1314 0.6515 0.0000
vt 0.1314 0.6621 0.0000
vt 0.1211 0.6621 0.0000
vt 0.1211 0.6515 0.0000
vt 0.2100 0.6301 0.0000
vt 0.2100 0.6194 0.0000
vt 0.2203 0.6194 0.0000
vt 0.2203 0.6301 0.0000
vt 0.3954 0.9792 0.0000
vt 0.3626 0.9730 0.0000
vt 0.3580 0.9686 0.0000
vt 0.3201 0.6616 0.0000
vt 0.1281 0.9240 0.0000
vt 0.1281 0.9800 0.0000
vt 0.0539 0.9800 0.0000
vt 0.0539 0.9240 0.0000
vt 0.3511 0.8785 0.0000
vt 0.3511 0.8888 0.0000
vt 0.2763 0.8888 0.0000
vt 0.2763 0.8785 0.0000
vt 0.2829 0.9583 0.0000
vt 0.2829 0.9017 0.0000
vt 0.3511 0.7527 0.0000
vt 0.3511 0.7629 0.0000
vt 0.2763 0.7629 0.0000
vt 0.2763 0.7527 0.0000
vt 0.2373 0.7982 0.0000
vt 0.2373 0.8542 0.0000
vt 0.1630 0.8542 0.0000
vt 0.1630 0.7982 0.0000
vt 0.3511 0.8400 0.0000
vt 0.3511 0.8502 0.0000
vt 0.2763 0.8502 0.0000
vt 0.2763 0.8400 0.0000
vt 0.2829 0.8325 0.0000
vt 0.2829 0.7759 0.0000
vt 0.3511 0.9658 0.0000
vt 0.3511 0.9761 0.0000
vt 0.2763 0.9761 0.0000
vt 0.2763 0.9658 0.0000
vt 0.0468 0.9755 0.0000
vt 0.0468 0.9285 0.0000
vt 0.2691 0.8888 0.0000
vt 0.2691 0.8785 0.0000
vt 0.2757 0.9538 0.0000
vt 0.2757 0.9062 0.0000
vt 0.2691 0.7629 0.0000
vt 0.2691 0.7527 0.0000
vt 0.1559 0.8497 0.0000
vt 0.1559 0.8027 0.0000
vt 0.2691 0.8502 0.0000
vt 0.2691 0.8400 0.0000
vt 0.2757 0.8280 0.0000
vt 0.2757 0.7804 0.0000
vt 0.2691 0.9761 0.0000
vt 0.2691 0.9658 0.0000
vt 0.0413 0.9683 0.0000
vt 0.0413 0.9358 0.0000
vt 0.1015 0.6621 0.0000
vt 0.1015 0.6515 0.0000
vt 0.1091 0.6515 0.0000
vt 0.1091 0.6621 0.0000
vt 0.2701 0.9465 0.0000
vt 0.2701 0.9136 0.0000
vt 0.1510 0.6515 0.0000
vt 0.1510 0.6621 0.0000
vt 0.1434 0.6621 0.0000
vt 0.1434 0.6515 0.0000
vt 0.1504 0.8424 0.0000
vt 0.1504 0.8099 0.0000
vt 0.2400 0.6194 0.0000
vt 0.2400 0.6301 0.0000
vt 0.2323 0.6301 0.0000
vt 0.2323 0.6194 0.0000
vt 0.2701 0.8206 0.0000
vt 0.2701 0.7878 0.0000
vt 0.1904 0.6301 0.0000
vt 0.1904 0.6194 0.0000
vt 0.1981 0.6194 0.0000
vt 0.1981 0.6301 0.0000
vt 0.0371 0.9569 0.0000
vt 0.0371 0.9471 0.0000
vt 0.2659 0.9350 0.0000
vt 0.2659 0.9251 0.0000
vt 0.1462 0.8311 0.0000
vt 0.1462 0.8213 0.0000
vt 0.2659 0.8091 0.0000
vt 0.2659 0.7993 0.0000
vt 0.2380 0.8805 0.0000
vt 0.2380 0.9015 0.0000
vt 0.2380 0.9585 0.0000
vt 0.2380 0.9796 0.0000
vt 0.1389 0.9796 0.0000
vt 0.1389 0.9585 0.0000
vt 0.1389 0.9015 0.0000
vt 0.1389 0.8805 0.0000
# 148 texture coords

g Box031
usemtl wire_006135113
s 2
f 1/1/1 2/2/1 3/3/1 
f 3/3/1 4/4/1 1/1/1 
s 8
f 5/5/2 6/6/2 7/7/2 
f 7/7/2 8/8/2 5/5/2 
s 16
f 9/9/3 10/10/3 7/11/3 
f 7/11/3 6/12/3 9/9/3 
s 32
f 11/13/4 12/14/4 13/15/4 
f 13/15/4 14/16/4 11/13/4 
s 64
f 15/17/5 16/18/6 13/19/5 
f 13/19/5 12/20/5 15/17/5 
s off
f 8/8/7 7/7/7 17/21/7 
f 17/21/7 18/22/7 8/8/7 
f 10/10/8 19/23/8 17/24/8 
f 17/24/9 7/11/9 10/10/9 
f 14/16/10 13/15/10 20/25/10 
f 20/25/10 21/26/10 14/16/10 
f 16/18/11 22/27/11 20/28/11 
f 20/28/11 13/19/11 16/18/11 
s 4
f 17/29/12 23/30/12 24/31/12 
f 24/31/12 18/32/12 17/29/12 
f 17/29/12 19/33/12 23/30/12 
f 20/34/12 25/35/12 26/36/12 
f 26/36/12 21/37/12 20/34/12 
f 20/34/12 22/38/12 25/35/12 
f 24/31/12 23/30/12 26/36/12 
f 26/36/12 25/35/12 24/31/12 
s 2
f 27/39/1 28/40/1 29/41/1 
f 29/41/1 30/42/1 27/39/1 
s 16
f 31/43/13 11/44/3 14/45/3 
f 14/45/3 32/46/13 31/43/13 
s 64
f 33/47/5 34/48/5 16/18/6 
f 16/18/6 15/17/5 33/47/5 
s off
f 32/46/9 14/45/9 21/49/9 
f 21/49/9 35/50/9 32/46/9 
f 34/48/11 36/51/11 22/27/11 
f 22/27/14 16/18/14 34/48/14 
s 4
f 35/52/12 21/37/12 26/36/12 
f 37/53/12 38/54/12 39/55/12 
f 39/55/12 40/56/12 37/53/12 
s 2
f 30/42/1 29/41/1 2/2/1 
f 2/2/1 1/1/1 30/42/1 
s 16
f 31/43/13 32/46/13 10/10/3 
f 10/10/3 9/9/3 31/43/13 
s off
f 32/46/9 35/50/9 19/23/9 
f 19/23/8 10/10/8 32/46/8 
s 4
f 41/57/12 42/58/12 43/59/12 
f 43/59/12 44/60/12 41/57/12 
s 64
f 33/47/5 5/61/5 8/62/5 
f 8/62/5 34/48/5 33/47/5 
s off
f 34/48/11 8/62/11 18/63/11 
f 18/63/11 36/51/11 34/48/11 
s 4
f 36/64/12 18/32/12 24/31/12 
s off
f 24/65/15 25/66/15 45/67/15 
f 45/67/15 46/68/15 24/65/15 
f 25/69/16 22/70/16 47/71/16 
f 47/71/16 45/72/16 25/69/16 
f 22/27/17 36/51/17 48/73/17 
f 48/73/17 47/74/17 22/27/17 
f 36/75/18 24/76/18 46/77/18 
f 46/77/18 48/78/18 36/75/18 
f 26/79/17 23/80/17 49/81/17 
f 49/81/17 50/82/17 26/79/17 
f 23/83/19 19/84/19 51/85/19 
f 51/85/19 49/86/19 23/83/19 
f 19/23/15 35/50/15 52/87/15 
f 52/87/15 51/88/15 19/23/15 
f 35/89/20 26/90/20 50/91/20 
f 50/91/20 52/92/20 35/89/20 
f 46/68/15 45/67/15 53/93/15 
f 53/93/15 54/94/15 46/68/15 
f 45/72/21 47/71/21 55/95/21 
f 55/95/21 53/96/21 45/72/21 
f 47/74/17 48/73/17 56/97/17 
f 56/97/17 55/98/17 47/74/17 
f 48/78/22 46/77/22 54/99/22 
f 54/99/23 56/100/23 48/78/23 
f 50/82/17 49/81/17 57/101/17 
f 57/101/17 58/102/17 50/82/17 
f 49/86/24 51/85/24 59/103/24 
f 59/103/25 57/104/25 49/86/25 
f 51/88/15 52/87/15 60/105/15 
f 60/105/26 59/106/26 51/88/26 
f 52/92/27 50/91/27 58/107/27 
f 58/107/27 60/108/27 52/92/27 
f 54/94/15 53/93/15 61/109/15 
f 61/109/26 62/110/26 54/94/26 
f 53/111/28 55/112/28 63/113/28 
f 63/113/28 61/114/28 53/111/28 
f 55/98/17 56/97/17 64/115/17 
f 64/115/17 63/116/17 55/98/17 
f 56/117/29 54/118/29 62/119/29 
f 62/119/29 64/120/29 56/117/29 
f 58/102/17 57/101/17 65/121/17 
f 65/121/30 66/122/30 58/102/30 
f 57/123/31 59/124/31 67/125/31 
f 67/125/31 65/126/31 57/123/31 
f 59/106/15 60/105/15 68/127/15 
f 68/127/26 67/128/26 59/106/26 
f 60/129/32 58/130/32 66/131/32 
f 66/131/32 68/132/32 60/129/32 
f 62/110/15 61/109/15 39/133/15 
f 39/133/26 38/134/26 62/110/26 
f 61/114/33 63/113/33 40/56/33 
f 40/56/33 39/55/33 61/114/33 
f 63/116/17 64/115/17 37/135/17 
f 37/135/17 40/136/17 63/116/17 
f 64/120/34 62/119/34 38/54/34 
f 38/54/34 37/53/34 64/120/34 
f 66/122/35 65/121/35 43/137/35 
f 43/137/30 42/138/30 66/122/30 
f 65/126/36 67/125/36 44/60/36 
f 44/60/36 43/59/36 65/126/36 
f 67/128/15 68/127/15 41/139/15 
f 41/139/26 44/140/26 67/128/26 
f 68/132/37 66/131/37 42/58/37 
f 42/58/37 41/57/37 68/132/37 
f 5/141/38 33/142/38 1/1/38 
f 1/1/38 4/4/38 5/141/38 
f 33/142/38 15/143/38 30/42/38 
f 30/42/38 1/1/38 33/142/38 
f 15/143/38 12/144/38 27/39/38 
f 27/39/38 30/42/38 15/143/38 
f 12/144/39 11/145/39 28/40/39 
f 28/40/39 27/39/39 12/144/39 
f 11/145/40 31/146/40 29/41/40 
f 29/41/40 28/40/40 11/145/40 
f 31/146/40 9/147/40 2/2/40 
f 2/2/40 29/41/40 31/146/40 
f 9/147/40 6/148/40 3/3/40 
f 3/3/40 2/2/40 9/147/40 
f 6/148/41 5/141/41 4/4/41 
f 4/4/41 3/3/41 6/148/41 
# 132 faces

