# 3ds Max Wavefront OBJ Exporter v0.97b - (c)2007 guruware
# File Created: 20.02.2016 18:26:13

mtllib manualgun_base.mtl

#
# object Object002
#

v  -6.5504 0.0000 6.5504
v  -6.5504 0.0000 -6.5504
v  6.5504 0.0000 -6.5504
v  6.5504 0.0000 6.5504
v  -5.1337 8.8410 5.1337
v  5.1337 8.8410 5.1337
v  5.1337 8.8410 -5.1337
v  -5.1337 8.8410 -5.1337
v  5.7137 8.2300 5.7137
v  -5.7137 8.2300 5.7137
v  5.7137 8.2300 -5.7137
v  -5.7137 8.2300 -5.7137
# 12 vertices

vn 0.0000 -1.0000 -0.0000
vn 0.0000 1.0000 -0.0000
vn 0.0000 0.1011 0.9949
vn 0.9949 0.1011 -0.0000
vn 0.0000 0.1011 -0.9949
vn -0.9949 0.1011 -0.0000
vn 0.0000 0.6885 0.7253
vn 0.7253 0.6885 -0.0000
vn 0.0000 0.6885 -0.7253
vn -0.7253 0.6885 -0.0000
# 10 vertex normals

vt 0.5501 0.4203 0.0000
vt 0.5501 0.5499 0.0000
vt 0.4205 0.5499 0.0000
vt 0.4205 0.4203 0.0000
vt 0.5506 0.4088 0.0000
vt 0.4490 0.4088 0.0000
vt 0.4490 0.3073 0.0000
vt 0.5506 0.3073 0.0000
vt 0.2780 0.3508 0.0000
vt 0.4094 0.3508 0.0000
vt 0.4010 0.4333 0.0000
vt 0.2864 0.4333 0.0000
vt 0.2780 0.2390 0.0000
vt 0.4094 0.2390 0.0000
vt 0.4010 0.3215 0.0000
vt 0.2864 0.3215 0.0000
vt 0.2780 0.4626 0.0000
vt 0.4094 0.4626 0.0000
vt 0.4010 0.5452 0.0000
vt 0.2864 0.5452 0.0000
vt 0.1224 0.4626 0.0000
vt 0.2538 0.4626 0.0000
vt 0.2454 0.5452 0.0000
vt 0.1308 0.5452 0.0000
vt 0.3952 0.4395 0.0000
vt 0.2922 0.4395 0.0000
vt 0.3952 0.3276 0.0000
vt 0.2922 0.3276 0.0000
vt 0.3952 0.5513 0.0000
vt 0.2922 0.5513 0.0000
vt 0.2396 0.5513 0.0000
vt 0.1366 0.5513 0.0000
# 32 texture coords

g Object002
usemtl wire_006135113
s 2
f 1/1/1 2/2/1 3/3/1 
f 3/3/1 4/4/1 1/1/1 
s 4
f 5/5/2 6/6/2 7/7/2 
f 7/7/2 8/8/2 5/5/2 
s 8
f 1/9/3 4/10/3 9/11/3 
f 9/11/3 10/12/3 1/9/3 
s 16
f 4/13/4 3/14/4 11/15/4 
f 11/15/4 9/16/4 4/13/4 
s 32
f 3/17/5 2/18/5 12/19/5 
f 12/19/5 11/20/5 3/17/5 
s 64
f 2/21/6 1/22/6 10/23/6 
f 10/23/6 12/24/6 2/21/6 
s off
f 10/12/7 9/11/7 6/25/7 
f 6/25/7 5/26/7 10/12/7 
f 9/16/8 11/15/8 7/27/8 
f 7/27/8 6/28/8 9/16/8 
f 11/20/9 12/19/9 8/29/9 
f 8/29/9 7/30/9 11/20/9 
f 12/24/10 10/23/10 5/31/10 
f 5/31/10 8/32/10 12/24/10 
# 20 faces

