# 3ds Max Wavefront OBJ Exporter v0.97b - (c)2007 guruware
# File Created: 20.02.2016 18:36:34

mtllib missile_door_b.mtl

#
# object Object001
#

v  11.5751 1.4931 -4.7946
v  8.8592 1.4931 -8.8592
v  4.7946 1.4931 -11.5751
v  -0.0000 1.4931 -12.5288
v  -0.0000 1.4931 12.5288
v  4.7946 1.4931 11.5751
v  8.8592 1.4931 8.8592
v  11.5751 1.4931 4.7946
v  12.5288 1.4931 0.0000
v  12.9204 0.1968 0.0000
v  11.9369 0.1968 -4.9444
v  11.9369 1.3061 -4.9444
v  12.9204 1.3061 0.0000
v  9.1361 0.1968 -9.1361
v  9.1361 1.3061 -9.1361
v  4.9444 0.1968 -11.9369
v  4.9444 1.3061 -11.9369
v  -0.0000 0.1968 -12.9204
v  -0.0000 1.3061 -12.9204
v  0.0000 0.1968 12.9204
v  4.9444 0.1968 11.9369
v  4.9444 1.3061 11.9369
v  0.0000 1.3061 12.9204
v  9.1361 0.1968 9.1361
v  9.1361 1.3061 9.1361
v  11.9369 0.1968 4.9444
v  11.9369 1.3061 4.9444
v  11.5519 -0.0076 4.7849
v  8.8414 -0.0076 8.8414
v  4.7849 -0.0076 11.5519
v  -0.0000 -0.0076 12.5036
v  -0.0000 -0.0076 -12.5036
v  4.7849 -0.0076 -11.5519
v  8.8414 -0.0076 -8.8414
v  11.5519 -0.0076 -4.7849
v  12.5036 -0.0076 0.0000
# 36 vertices

vn 0.0000 1.0000 -0.0000
vn 0.0000 1.0000 0.0000
vn -0.0000 1.0000 0.0000
vn -0.0000 1.0000 -0.0000
vn 0.9808 0.0000 -0.1951
vn 0.9808 -0.0000 -0.1951
vn 0.8315 0.0000 -0.5556
vn 0.5556 0.0000 -0.8315
vn 0.1951 0.0000 -0.9808
vn 0.1951 0.0000 0.9808
vn 0.5556 0.0000 0.8315
vn 0.8315 0.0000 0.5556
vn 0.9808 0.0000 0.1951
vn 0.4294 0.8991 -0.0854
vn 0.3640 0.8991 -0.2432
vn 0.2432 0.8991 -0.3640
vn 0.0854 0.8991 -0.4294
vn 0.0854 0.8991 0.4294
vn 0.2432 0.8991 0.3640
vn 0.3640 0.8991 0.2432
vn 0.4294 0.8991 0.0854
vn 0.0000 -1.0000 -0.0000
vn 0.4386 -0.8944 -0.0872
vn 0.4386 -0.8944 0.0872
vn 0.3718 -0.8944 0.2485
vn 0.2485 -0.8944 0.3718
vn 0.0872 -0.8944 0.4386
vn 0.0872 -0.8944 -0.4386
vn 0.2485 -0.8944 -0.3718
vn 0.3718 -0.8944 -0.2485
vn -1.0000 0.0000 0.0000
vn -1.0000 -0.0000 0.0000
vn -1.0000 0.0000 -0.0000
# 33 vertex normals

vt 0.1770 0.8955 0.0000
vt 0.1897 0.8765 0.0000
vt 0.2087 0.8638 0.0000
vt 0.2311 0.8594 0.0000
vt 0.2311 0.9765 0.0000
vt 0.2087 0.9721 0.0000
vt 0.1897 0.9594 0.0000
vt 0.1770 0.9404 0.0000
vt 0.1725 0.9179 0.0000
vt 0.2315 0.6859 0.0000
vt 0.2315 0.7101 0.0000
vt 0.2261 0.7101 0.0000
vt 0.2261 0.6859 0.0000
vt 0.2315 0.7306 0.0000
vt 0.2261 0.7306 0.0000
vt 0.1124 0.6438 0.0000
vt 0.1124 0.6643 0.0000
vt 0.1069 0.6643 0.0000
vt 0.1069 0.6438 0.0000
vt 0.1124 0.6885 0.0000
vt 0.1069 0.6885 0.0000
vt 0.0480 0.6293 0.0000
vt 0.0480 0.6535 0.0000
vt 0.0426 0.6535 0.0000
vt 0.0426 0.6293 0.0000
vt 0.0480 0.6741 0.0000
vt 0.0426 0.6741 0.0000
vt 0.2315 0.6412 0.0000
vt 0.2315 0.6617 0.0000
vt 0.2261 0.6617 0.0000
vt 0.2261 0.6412 0.0000
vt 0.1707 0.9179 0.0000
vt 0.1753 0.8948 0.0000
vt 0.1884 0.8752 0.0000
vt 0.2080 0.8621 0.0000
vt 0.2311 0.8575 0.0000
vt 0.2311 0.9784 0.0000
vt 0.2080 0.9738 0.0000
vt 0.1884 0.9607 0.0000
vt 0.1753 0.9411 0.0000
vt 0.0937 0.8956 0.0000
vt 0.1064 0.8766 0.0000
vt 0.1253 0.8639 0.0000
vt 0.1477 0.8594 0.0000
vt 0.1477 0.9764 0.0000
vt 0.1253 0.9720 0.0000
vt 0.1064 0.9593 0.0000
vt 0.0937 0.9403 0.0000
vt 0.0892 0.9179 0.0000
vt 0.0919 0.9411 0.0000
vt 0.0873 0.9179 0.0000
vt 0.0919 0.8948 0.0000
vt 0.1050 0.8752 0.0000
vt 0.1246 0.8621 0.0000
vt 0.1477 0.8575 0.0000
vt 0.1477 0.9784 0.0000
vt 0.1246 0.9738 0.0000
vt 0.1050 0.9607 0.0000
vt 0.0270 0.6526 0.0000
vt 0.0270 0.7691 0.0000
vt 0.0260 0.7711 0.0000
vt 0.0209 0.7711 0.0000
vt 0.0200 0.7693 0.0000
vt 0.0200 0.6525 0.0000
vt 0.0209 0.6506 0.0000
vt 0.0260 0.6506 0.0000
# 66 texture coords

g Object001
usemtl wire_006135113
s 1
f 1/1/1 2/2/1 3/3/1 
f 3/3/1 4/4/2 5/5/3 
f 5/5/3 6/6/3 7/7/4 
f 3/3/1 5/5/3 7/7/4 
f 1/1/1 3/3/1 7/7/4 
f 1/1/1 7/7/4 8/8/1 
f 9/9/1 1/1/1 8/8/1 
s off
f 10/10/5 11/11/5 12/12/5 
f 12/12/6 13/13/6 10/10/6 
f 11/11/7 14/14/7 15/15/7 
f 15/15/7 12/12/7 11/11/7 
f 14/16/8 16/17/8 17/18/8 
f 17/18/8 15/19/8 14/16/8 
f 16/17/9 18/20/9 19/21/9 
f 19/21/9 17/18/9 16/17/9 
f 20/22/10 21/23/10 22/24/10 
f 22/24/10 23/25/10 20/22/10 
f 21/23/11 24/26/11 25/27/11 
f 25/27/11 22/24/11 21/23/11 
f 24/28/12 26/29/12 27/30/12 
f 27/30/12 25/31/12 24/28/12 
f 26/29/13 10/10/13 13/13/13 
f 13/13/13 27/30/13 26/29/13 
f 13/32/14 12/33/14 1/1/14 
f 1/1/14 9/9/14 13/32/14 
f 12/33/15 15/34/15 2/2/15 
f 2/2/15 1/1/15 12/33/15 
f 15/34/16 17/35/16 3/3/16 
f 3/3/16 2/2/16 15/34/16 
f 17/35/17 19/36/17 4/4/17 
f 4/4/17 3/3/17 17/35/17 
f 23/37/18 22/38/18 6/6/18 
f 6/6/18 5/5/18 23/37/18 
f 22/38/19 25/39/19 7/7/19 
f 7/7/19 6/6/19 22/38/19 
f 25/39/20 27/40/20 8/8/20 
f 8/8/20 7/7/20 25/39/20 
f 27/40/21 13/32/21 9/9/21 
f 9/9/21 8/8/21 27/40/21 
s 2
f 28/41/22 29/42/22 30/43/22 
f 30/43/22 31/44/22 32/45/22 
f 32/45/22 33/46/22 34/47/22 
f 30/43/22 32/45/22 34/47/22 
f 28/41/22 30/43/22 34/47/22 
f 28/41/22 34/47/22 35/48/22 
f 36/49/22 28/41/22 35/48/22 
s off
f 11/50/23 10/51/23 36/49/23 
f 36/49/23 35/48/23 11/50/23 
f 10/51/24 26/52/24 28/41/24 
f 28/41/24 36/49/24 10/51/24 
f 26/52/25 24/53/25 29/42/25 
f 29/42/25 28/41/25 26/52/25 
f 24/53/26 21/54/26 30/43/26 
f 30/43/26 29/42/26 24/53/26 
f 21/54/27 20/55/27 31/44/27 
f 31/44/27 30/43/27 21/54/27 
f 18/56/28 16/57/28 33/46/28 
f 33/46/28 32/45/28 18/56/28 
f 16/57/29 14/58/29 34/47/29 
f 34/47/29 33/46/29 16/57/29 
f 14/58/30 11/50/30 35/48/30 
f 35/48/30 34/47/30 14/58/30 
s 4
f 32/59/31 31/60/31 20/61/31 
f 20/61/31 23/62/31 5/63/32 
f 32/59/31 20/61/31 5/63/32 
f 5/63/32 4/64/32 19/65/32 
f 32/59/31 5/63/32 19/65/32 
f 18/66/33 32/59/31 19/65/32 
# 68 faces

