# 3ds Max Wavefront OBJ Exporter v0.97b - (c)2007 guruware
# File Created: 20.02.2016 18:31:03

mtllib autogun_base.mtl

#
# object Object002
#

v  -6.9074 0.0000 6.9074
v  -6.9074 0.0000 -6.9074
v  6.9074 0.0000 -6.9074
v  6.9074 0.0000 6.9074
v  -6.4074 3.3983 6.4074
v  6.4074 3.3983 6.4074
v  6.4074 3.3983 -6.4074
v  -6.4074 3.3983 -6.4074
v  6.9074 2.9943 6.9074
v  -6.9074 2.9943 6.9074
v  6.9074 2.9943 -6.9074
v  -6.9074 2.9943 -6.9074
# 12 vertices

vn 0.0000 -1.0000 -0.0000
vn 0.0000 1.0000 -0.0000
vn 0.0000 0.0000 1.0000
vn 1.0000 0.0000 -0.0000
vn 0.0000 0.0000 -1.0000
vn -1.0000 0.0000 -0.0000
vn 0.0000 0.7778 0.6285
vn 0.6285 0.7778 -0.0000
vn 0.0000 0.7778 -0.6285
vn -0.6285 0.7778 -0.0000
# 10 vertex normals

vt 0.5720 0.3955 0.0000
vt 0.5720 0.4980 0.0000
vt 0.4694 0.4980 0.0000
vt 0.4694 0.3955 0.0000
vt 0.5692 0.3792 0.0000
vt 0.4722 0.3792 0.0000
vt 0.4722 0.2822 0.0000
vt 0.5692 0.2822 0.0000
vt 0.0727 0.4175 0.0000
vt 0.1752 0.4175 0.0000
vt 0.1752 0.4397 0.0000
vt 0.0727 0.4397 0.0000
vt 0.0728 0.3585 0.0000
vt 0.1754 0.3585 0.0000
vt 0.1754 0.3807 0.0000
vt 0.0728 0.3807 0.0000
vt 0.0690 0.4784 0.0000
vt 0.1715 0.4784 0.0000
vt 0.1715 0.5006 0.0000
vt 0.0690 0.5006 0.0000
vt 0.3534 0.2596 0.0000
vt 0.4560 0.2596 0.0000
vt 0.4560 0.2818 0.0000
vt 0.3534 0.2818 0.0000
vt 0.5730 0.3830 0.0000
vt 0.4684 0.3830 0.0000
vt 0.4684 0.2784 0.0000
vt 0.5730 0.2784 0.0000
# 28 texture coords

g Object002
usemtl wire_006135113
s 2
f 1/1/1 2/2/1 3/3/1 
f 3/3/1 4/4/1 1/1/1 
s 4
f 5/5/2 6/6/2 7/7/2 
f 7/7/2 8/8/2 5/5/2 
s 8
f 1/9/3 4/10/3 9/11/3 
f 9/11/3 10/12/3 1/9/3 
s 16
f 4/13/4 3/14/4 11/15/4 
f 11/15/4 9/16/4 4/13/4 
s 32
f 3/17/5 2/18/5 12/19/5 
f 12/19/5 11/20/5 3/17/5 
s 64
f 2/21/6 1/22/6 10/23/6 
f 10/23/6 12/24/6 2/21/6 
s off
f 10/25/7 9/26/7 6/6/7 
f 6/6/7 5/5/7 10/25/7 
f 9/26/8 11/27/8 7/7/8 
f 7/7/8 6/6/8 9/26/8 
f 11/27/9 12/28/9 8/8/9 
f 8/8/9 7/7/9 11/27/9 
f 12/28/10 10/25/10 5/5/10 
f 5/5/10 8/8/10 12/28/10 
# 20 faces

