# 3ds Max Wavefront OBJ Exporter v0.97b - (c)2007 guruware
# File Created: 10.11.2015 14:49:52

mtllib moveGizmo.mtl

#
# object Object001
#

v  0.0000 1.6977 -0.0000
v  0.8926 1.4442 -0.0000
v  0.2758 1.4442 -0.8489
v  1.5185 0.7592 -0.0000
v  1.1684 0.8926 -0.8489
v  0.4692 0.7592 -1.4442
v  -0.7221 1.4442 -0.5246
v  -0.4463 0.8926 -1.3735
v  -1.2285 0.7592 -0.8926
v  -0.7221 1.4442 0.5246
v  -1.4442 0.8926 0.0000
v  -1.2285 0.7592 0.8926
v  0.2758 1.4442 0.8489
v  -0.4463 0.8926 1.3735
v  0.4692 0.7592 1.4442
v  1.1684 0.8926 0.8489
v  1.6146 0.0000 0.5246
v  1.6146 0.0000 -0.5246
v  1.2285 -0.7592 0.8926
v  1.4442 -0.8926 0.0000
v  1.2285 -0.7592 -0.8926
v  0.9979 0.0000 -1.3735
v  -0.0000 0.0000 -1.6977
v  0.4463 -0.8926 -1.3735
v  -0.4692 -0.7592 -1.4442
v  -0.9979 0.0000 -1.3735
v  -1.6146 0.0000 -0.5246
v  -1.1684 -0.8926 -0.8489
v  -1.5185 -0.7592 0.0000
v  -1.6146 0.0000 0.5246
v  -0.9979 0.0000 1.3735
v  -1.1684 -0.8926 0.8489
v  -0.4692 -0.7592 1.4442
v  0.0000 0.0000 1.6977
v  0.9979 0.0000 1.3735
v  0.4463 -0.8926 1.3735
v  0.0000 -1.6977 -0.0000
v  -0.2758 -1.4442 -0.8489
v  0.7221 -1.4442 -0.5246
v  -0.8926 -1.4442 0.0000
v  -0.2758 -1.4442 0.8489
v  0.7221 -1.4442 0.5246
# 42 vertices

vn 0.0000 1.0000 -0.0000
vn 0.5257 0.8507 -0.0000
vn 0.1625 0.8507 -0.5000
vn 0.8944 0.4472 0.0000
vn 0.6882 0.5257 -0.5000
vn 0.2764 0.4472 -0.8507
vn -0.4253 0.8507 -0.3090
vn -0.2629 0.5257 -0.8090
vn -0.7236 0.4472 -0.5257
vn -0.4253 0.8507 0.3090
vn -0.8507 0.5257 0.0000
vn -0.7236 0.4472 0.5257
vn 0.1625 0.8507 0.5000
vn -0.2629 0.5257 0.8090
vn 0.2764 0.4472 0.8507
vn 0.6882 0.5257 0.5000
vn 0.9511 -0.0000 0.3090
vn 0.9511 -0.0000 -0.3090
vn 0.7236 -0.4472 0.5257
vn 0.8507 -0.5257 0.0000
vn 0.7236 -0.4472 -0.5257
vn 0.5878 -0.0000 -0.8090
vn -0.0000 0.0000 -1.0000
vn 0.2629 -0.5257 -0.8090
vn -0.2764 -0.4472 -0.8507
vn -0.5878 0.0000 -0.8090
vn -0.9511 -0.0000 -0.3090
vn -0.6882 -0.5257 -0.5000
vn -0.8944 -0.4472 0.0000
vn -0.9511 -0.0000 0.3090
vn -0.5878 -0.0000 0.8090
vn -0.6882 -0.5257 0.5000
vn -0.2764 -0.4472 0.8507
vn 0.0000 -0.0000 1.0000
vn 0.5878 -0.0000 0.8090
vn 0.2629 -0.5257 0.8090
vn -0.0000 -1.0000 0.0000
vn -0.1625 -0.8507 -0.5000
vn 0.4253 -0.8507 -0.3090
vn -0.5257 -0.8507 0.0000
vn -0.1625 -0.8507 0.5000
vn 0.4253 -0.8507 0.3090
# 42 vertex normals

vt 0.4462 0.0867 0.0000
vt 0.4462 0.0946 0.0000
vt 0.4387 0.0892 0.0000
vt 0.3671 0.0616 0.0000
vt 0.3704 0.0565 0.0000
vt 0.3760 0.0616 0.0000
vt 0.4387 0.0970 0.0000
vt 0.3116 0.0659 0.0000
vt 0.3165 0.0730 0.0000
vt 0.3089 0.0730 0.0000
vt 0.4416 0.0804 0.0000
vt 0.4200 0.0893 0.0000
vt 0.4139 0.0908 0.0000
vt 0.4153 0.0828 0.0000
vt 0.4341 0.0828 0.0000
vt 0.2224 0.3183 0.0000
vt 0.2311 0.3184 0.0000
vt 0.2267 0.3247 0.0000
vt 0.4508 0.0804 0.0000
vt 0.2197 0.3261 0.0000
vt 0.4462 0.0741 0.0000
vt 0.2224 0.3408 0.0000
vt 0.2311 0.3409 0.0000
vt 0.2267 0.3472 0.0000
vt 0.4536 0.0892 0.0000
vt 0.2197 0.3485 0.0000
vt 0.4582 0.0828 0.0000
vt 0.3591 0.0893 0.0000
vt 0.3637 0.0828 0.0000
vt 0.3652 0.0908 0.0000
vt 0.2236 0.2173 0.0000
vt 0.2311 0.2174 0.0000
vt 0.2283 0.2244 0.0000
vt 0.4536 0.0970 0.0000
vt 0.3635 0.0534 0.0000
vt 0.3702 0.0484 0.0000
vt 0.3779 0.0534 0.0000
vt 0.3711 0.0410 0.0000
vt 0.3783 0.0443 0.0000
vt 0.3843 0.0495 0.0000
vt 0.4070 0.0952 0.0000
vt 0.4073 0.0864 0.0000
vt 0.4002 0.0970 0.0000
vt 0.3993 0.0900 0.0000
vt 0.4008 0.0820 0.0000
vt 0.3990 0.0568 0.0000
vt 0.3991 0.0488 0.0000
vt 0.4054 0.0529 0.0000
vt 0.4077 0.0776 0.0000
vt 0.3999 0.0758 0.0000
vt 0.4073 0.0447 0.0000
vt 0.4129 0.0498 0.0000
vt 0.4123 0.0653 0.0000
vt 0.4132 0.0579 0.0000
vt 0.4195 0.0620 0.0000
vt 0.4199 0.0529 0.0000
vt 0.3714 0.0776 0.0000
vt 0.3792 0.0758 0.0000
vt 0.3783 0.0820 0.0000
vt 0.3717 0.0864 0.0000
vt 0.3721 0.0952 0.0000
vt 0.3798 0.0901 0.0000
vt 0.3788 0.0970 0.0000
vt 0.3842 0.0575 0.0000
vt 0.4148 0.0970 0.0000
vt 0.4144 0.0758 0.0000
vt 0.4050 0.0620 0.0000
vt 0.3647 0.0758 0.0000
vt 0.3639 0.0443 0.0000
vt 0.3643 0.0970 0.0000
vt 0.4462 0.0471 0.0000
vt 0.4536 0.0447 0.0000
vt 0.4508 0.0534 0.0000
vt 0.3947 0.0835 0.0000
vt 0.4582 0.0510 0.0000
vt 0.2284 0.2663 0.0000
vt 0.2197 0.2662 0.0000
vt 0.2241 0.2599 0.0000
vt 0.4462 0.0393 0.0000
vt 0.4162 0.0447 0.0000
vt 0.4536 0.0369 0.0000
vt 0.2061 0.4532 0.0000
vt 0.2013 0.4461 0.0000
vt 0.2088 0.4461 0.0000
vt 0.4387 0.0447 0.0000
vt 0.2311 0.2438 0.0000
vt 0.2236 0.2436 0.0000
vt 0.2264 0.2366 0.0000
vt 0.4387 0.0369 0.0000
vt 0.4416 0.0534 0.0000
vt 0.2224 0.3710 0.0000
vt 0.2265 0.3644 0.0000
vt 0.2311 0.3706 0.0000
vt 0.4341 0.0510 0.0000
vt 0.3844 0.0835 0.0000
vt 0.2311 0.2585 0.0000
vt 0.4462 0.0598 0.0000
vt 0.2194 0.3633 0.0000
# 98 texture coords

g Object001
usemtl wire_135059008
s 1
f 1/1/1 2/2/2 3/3/3 
f 2/4/2 4/5/4 5/6/5 
f 2/2/2 5/7/5 3/3/3 
f 3/8/3 5/9/5 6/10/6 
f 1/1/1 3/3/3 7/11/7 
f 3/12/3 6/13/6 8/14/8 
f 3/3/3 8/15/8 7/11/7 
f 7/16/7 8/17/8 9/18/9 
f 1/1/1 7/11/7 10/19/10 
f 7/16/7 9/18/9 11/20/11 
f 7/11/7 11/21/11 10/19/10 
f 10/22/10 11/23/11 12/24/12 
f 1/1/1 10/19/10 13/25/13 
f 10/22/10 12/24/12 14/26/14 
f 10/19/10 14/27/14 13/25/13 
f 13/28/13 14/29/14 15/30/15 
f 1/1/1 13/25/13 2/2/2 
f 13/31/13 15/32/15 16/33/16 
f 13/25/13 16/34/16 2/2/2 
f 2/4/2 16/35/16 4/5/4 
f 4/5/4 17/36/17 18/37/18 
f 17/36/17 19/38/19 20/39/20 
f 17/36/17 20/39/20 18/37/18 
f 18/37/18 20/39/20 21/40/21 
f 6/13/6 22/41/22 23/42/23 
f 22/41/22 21/43/21 24/44/24 
f 22/41/22 24/44/24 23/42/23 
f 23/42/23 24/44/24 25/45/25 
f 9/46/9 26/47/26 27/48/27 
f 26/49/26 25/45/25 28/50/28 
f 26/47/26 28/51/28 27/48/27 
f 27/48/27 28/51/28 29/52/29 
f 12/53/12 30/54/30 31/55/31 
f 30/54/30 29/52/29 32/56/32 
f 30/54/30 32/56/32 31/55/31 
f 31/57/31 32/58/32 33/59/33 
f 15/30/15 34/60/34 35/61/35 
f 34/60/34 33/59/33 36/62/36 
f 34/60/34 36/62/36 35/61/35 
f 35/61/35 36/62/36 19/63/19 
f 21/40/21 22/64/22 18/37/18 
f 22/41/22 6/13/6 5/65/5 
f 22/64/22 5/6/5 18/37/18 
f 18/37/18 5/6/5 4/5/4 
f 25/45/25 26/49/26 23/42/23 
f 26/49/26 9/66/9 8/14/8 
f 26/49/26 8/14/8 23/42/23 
f 23/42/23 8/14/8 6/13/6 
f 29/52/29 30/54/30 27/48/27 
f 30/54/30 12/53/12 11/67/11 
f 30/54/30 11/67/11 27/48/27 
f 27/48/27 11/67/11 9/46/9 
f 33/59/33 34/60/34 31/57/31 
f 34/60/34 15/30/15 14/29/14 
f 34/60/34 14/29/14 31/57/31 
f 31/57/31 14/29/14 12/68/12 
f 19/38/19 17/36/17 35/69/35 
f 17/36/17 4/5/4 16/35/16 
f 17/36/17 16/35/16 35/69/35 
f 35/61/35 16/70/16 15/30/15 
f 37/71/37 38/72/38 39/73/39 
f 38/74/38 25/45/25 24/44/24 
f 38/72/38 24/75/24 39/73/39 
f 39/76/39 24/77/24 21/78/21 
f 37/71/37 40/79/40 38/72/38 
f 40/80/40 29/52/29 28/51/28 
f 40/79/40 28/81/28 38/72/38 
f 38/82/38 28/83/28 25/84/25 
f 37/71/37 41/85/41 40/79/40 
f 41/86/41 33/87/33 32/88/32 
f 41/85/41 32/89/32 40/79/40 
f 40/80/40 32/56/32 29/52/29 
f 37/71/37 42/90/42 41/85/41 
f 42/91/42 19/92/19 36/93/36 
f 42/90/42 36/94/36 41/85/41 
f 41/95/41 36/62/36 33/59/33 
f 37/71/37 39/73/39 42/90/42 
f 39/76/39 21/78/21 20/96/20 
f 39/73/39 20/97/20 42/90/42 
f 42/91/42 20/98/20 19/92/19 
# 80 faces

