# 3ds Max Wavefront OBJ Exporter v0.97b - (c)2007 guruware
# File Created: 10.11.2015 14:50:26

mtllib moveGizmoY.mtl

#
# object Object002
#

v  0.5000 0.0000 -0.0000
v  0.2500 0.0000 -0.4330
v  0.2500 54.2681 -0.4330
v  0.5000 54.2681 -0.0000
v  -0.2500 0.0000 -0.4330
v  -0.2500 54.2681 -0.4330
v  -0.5000 0.0000 0.0000
v  -0.5000 54.2681 0.0000
v  -0.2500 0.0000 0.4330
v  -0.2500 54.2681 0.4330
v  0.2500 0.0000 0.4330
v  0.2500 54.2681 0.4330
v  2.8260 54.7022 -0.0000
v  1.9983 54.7022 -1.9983
v  1.7183 56.1946 -1.7183
v  2.4301 56.1946 -0.0000
v  -0.0000 54.7022 -2.8260
v  -0.0000 56.1946 -2.4301
v  -1.9983 54.7022 -1.9983
v  -1.7183 56.1946 -1.7183
v  -2.8260 54.7022 0.0000
v  -2.4301 56.1946 0.0000
v  -1.9983 54.7022 1.9983
v  -1.7183 56.1946 1.7183
v  0.0000 54.7022 2.8260
v  0.0000 56.1946 2.4301
v  1.9983 54.7022 1.9983
v  1.7183 56.1946 1.7183
v  1.4384 57.6869 -1.4384
v  2.0342 57.6869 -0.0000
v  -0.0000 57.6869 -2.0342
v  -1.4384 57.6869 -1.4384
v  -2.0342 57.6869 0.0000
v  -1.4384 57.6869 1.4384
v  0.0000 57.6869 2.0342
v  1.4384 57.6869 1.4384
v  1.1584 59.1793 -1.1584
v  1.6382 59.1793 -0.0000
v  -0.0000 59.1793 -1.6382
v  -1.1584 59.1793 -1.1584
v  -1.6382 59.1793 0.0000
v  -1.1584 59.1793 1.1584
v  0.0000 59.1793 1.6382
v  1.1584 59.1793 1.1584
v  0.8784 60.6717 -0.8784
v  1.2423 60.6717 -0.0000
v  -0.0000 60.6717 -1.2423
v  -0.8784 60.6717 -0.8784
v  -1.2423 60.6717 0.0000
v  -0.8784 60.6717 0.8784
v  0.0000 60.6717 1.2423
v  0.8784 60.6717 0.8784
v  0.5985 62.1640 -0.5985
v  0.8464 62.1640 -0.0000
v  -0.0000 62.1640 -0.8464
v  -0.5985 62.1640 -0.5985
v  -0.8464 62.1640 0.0000
v  -0.5985 62.1640 0.5985
v  0.0000 62.1640 0.8464
v  0.5985 62.1640 0.5985
v  0.0000 53.8582 2.2329
v  -1.5789 53.8582 1.5789
v  -2.2329 53.8582 0.0000
v  -1.5789 53.8582 -1.5789
v  -0.0000 53.8582 -2.2329
v  1.5789 53.8582 -1.5789
v  2.2329 53.8582 -0.0000
v  1.5789 53.8582 1.5789
v  0.4561 62.3800 -0.4561
v  -0.0000 62.3800 -0.6450
v  -0.4561 62.3800 -0.4561
v  -0.6450 62.3800 0.0000
v  -0.4561 62.3800 0.4561
v  0.0000 62.3800 0.6450
v  0.4561 62.3800 0.4561
v  0.6450 62.3800 0.0000
v  2.6247 54.1722 -0.0000
v  1.8559 54.1722 -1.8559
v  1.8559 54.1722 1.8559
v  0.0000 54.1722 2.6247
v  -1.8559 54.1722 1.8559
v  -2.6247 54.1722 0.0000
v  -1.8559 54.1722 -1.8559
v  -0.0000 54.1722 -2.6247
# 84 vertices

vn 1.0000 0.0000 0.0000
vn 0.5000 0.0000 -0.8660
vn -0.5000 0.0000 -0.8660
vn -1.0000 0.0000 0.0000
vn -0.5000 0.0000 0.8660
vn 0.5000 0.0000 0.8660
vn 0.9988 -0.0483 -0.0000
vn 0.7063 -0.0483 -0.7063
vn 0.6835 0.2564 -0.6835
vn 0.9666 0.2564 0.0000
vn -0.0000 -0.0483 -0.9988
vn -0.0000 0.2564 -0.9666
vn -0.7063 -0.0483 -0.7063
vn -0.6835 0.2564 -0.6835
vn -0.9988 -0.0483 0.0000
vn -0.9666 0.2564 0.0000
vn -0.7063 -0.0483 0.7063
vn -0.6835 0.2564 0.6835
vn 0.0000 -0.0483 0.9988
vn -0.0000 0.2564 0.9666
vn 0.7063 -0.0483 0.7063
vn 0.6835 0.2564 0.6835
vn 0.9666 0.2564 -0.0000
vn 0.0000 0.2564 0.9666
vn 0.6278 0.4601 -0.6278
vn 0.8879 0.4601 -0.0000
vn -0.0000 0.4601 -0.8879
vn -0.6278 0.4601 -0.6278
vn -0.8879 0.4601 0.0000
vn -0.6278 0.4601 0.6278
vn -0.0000 0.4601 0.8879
vn 0.6278 0.4601 0.6278
vn -0.0000 -0.9162 0.4007
vn -0.2834 -0.9162 0.2834
vn -0.4007 -0.9162 0.0000
vn -0.2834 -0.9162 -0.2834
vn 0.0000 -0.9162 -0.4007
vn 0.2834 -0.9162 -0.2834
vn 0.4007 -0.9162 0.0000
vn 0.2834 -0.9162 0.2834
vn 0.3364 0.8796 -0.3364
vn -0.0000 0.8796 -0.4757
vn -0.3364 0.8796 -0.3364
vn -0.4757 0.8796 -0.0000
vn -0.3364 0.8796 0.3364
vn -0.0000 0.8796 0.4757
vn 0.3364 0.8796 0.3364
vn 0.4757 0.8796 -0.0000
vn 0.8288 -0.5596 -0.0000
vn 0.5860 -0.5596 -0.5860
vn 0.5860 -0.5596 0.5860
vn -0.0000 -0.5596 0.8288
vn -0.5860 -0.5596 0.5860
vn -0.8288 -0.5596 0.0000
vn -0.5860 -0.5596 -0.5860
vn -0.0000 -0.5596 -0.8288
# 56 vertex normals

vt 0.4947 0.9762 0.0000
vt 0.4947 0.9800 0.0000
vt 0.0200 0.9800 0.0000
vt 0.0200 0.9762 0.0000
vt 0.4782 0.9375 0.0000
vt 0.4782 0.9416 0.0000
vt 0.0365 0.9416 0.0000
vt 0.0365 0.9375 0.0000
vt 0.4947 0.9533 0.0000
vt 0.4947 0.9571 0.0000
vt 0.0200 0.9571 0.0000
vt 0.0200 0.9533 0.0000
vt 0.4947 0.9609 0.0000
vt 0.0200 0.9609 0.0000
vt 0.4782 0.9215 0.0000
vt 0.4782 0.9256 0.0000
vt 0.0365 0.9256 0.0000
vt 0.0365 0.9215 0.0000
vt 0.4947 0.9724 0.0000
vt 0.0200 0.9724 0.0000
vt 0.4828 0.8928 0.0000
vt 0.4828 0.9100 0.0000
vt 0.4700 0.9075 0.0000
vt 0.4700 0.8928 0.0000
vt 0.4828 0.7844 0.0000
vt 0.4828 0.8016 0.0000
vt 0.4700 0.8016 0.0000
vt 0.4700 0.7868 0.0000
vt 0.4828 0.8188 0.0000
vt 0.4700 0.8164 0.0000
vt 0.4828 0.8300 0.0000
vt 0.4828 0.8472 0.0000
vt 0.4700 0.8472 0.0000
vt 0.4700 0.8324 0.0000
vt 0.4828 0.8644 0.0000
vt 0.4700 0.8620 0.0000
vt 0.4035 0.8756 0.0000
vt 0.4035 0.8928 0.0000
vt 0.3906 0.8928 0.0000
vt 0.3906 0.8780 0.0000
vt 0.4035 0.9100 0.0000
vt 0.3906 0.9075 0.0000
vt 0.4828 0.8756 0.0000
vt 0.4700 0.8780 0.0000
vt 0.4571 0.9051 0.0000
vt 0.4571 0.8928 0.0000
vt 0.4571 0.8016 0.0000
vt 0.4571 0.7892 0.0000
vt 0.4571 0.8140 0.0000
vt 0.4571 0.8472 0.0000
vt 0.4571 0.8348 0.0000
vt 0.4571 0.8596 0.0000
vt 0.3778 0.8928 0.0000
vt 0.3778 0.8804 0.0000
vt 0.3778 0.9051 0.0000
vt 0.4571 0.8804 0.0000
vt 0.4443 0.9027 0.0000
vt 0.4443 0.8928 0.0000
vt 0.4443 0.8016 0.0000
vt 0.4443 0.7916 0.0000
vt 0.4443 0.8116 0.0000
vt 0.4443 0.8472 0.0000
vt 0.4443 0.8372 0.0000
vt 0.4443 0.8571 0.0000
vt 0.3649 0.8928 0.0000
vt 0.3649 0.8828 0.0000
vt 0.3649 0.9027 0.0000
vt 0.4443 0.8828 0.0000
vt 0.4315 0.9003 0.0000
vt 0.4315 0.8928 0.0000
vt 0.4315 0.8016 0.0000
vt 0.4315 0.7940 0.0000
vt 0.4315 0.8092 0.0000
vt 0.4315 0.8472 0.0000
vt 0.4315 0.8396 0.0000
vt 0.4315 0.8547 0.0000
vt 0.3521 0.8928 0.0000
vt 0.3521 0.8852 0.0000
vt 0.3521 0.9003 0.0000
vt 0.4315 0.8852 0.0000
vt 0.4186 0.8979 0.0000
vt 0.4186 0.8928 0.0000
vt 0.4186 0.8016 0.0000
vt 0.4186 0.7965 0.0000
vt 0.4186 0.8068 0.0000
vt 0.4186 0.8472 0.0000
vt 0.4186 0.8420 0.0000
vt 0.4186 0.8523 0.0000
vt 0.3393 0.8928 0.0000
vt 0.3393 0.8876 0.0000
vt 0.3393 0.8979 0.0000
vt 0.4186 0.8876 0.0000
vt 0.4044 0.8364 0.0000
vt 0.4043 0.8509 0.0000
vt 0.3939 0.8611 0.0000
vt 0.3794 0.8609 0.0000
vt 0.3692 0.8506 0.0000
vt 0.3694 0.8361 0.0000
vt 0.3798 0.8259 0.0000
vt 0.3943 0.8260 0.0000
vt 0.3251 0.8998 0.0000
vt 0.3279 0.9026 0.0000
vt 0.3278 0.9067 0.0000
vt 0.3250 0.9095 0.0000
vt 0.3210 0.9094 0.0000
vt 0.3181 0.9066 0.0000
vt 0.3182 0.9025 0.0000
vt 0.3210 0.8997 0.0000
vt 0.4774 0.7685 0.0000
vt 0.4830 0.7685 0.0000
vt 0.4823 0.7710 0.0000
vt 0.4780 0.7710 0.0000
vt 0.4869 0.7711 0.0000
vt 0.4853 0.7730 0.0000
vt 0.3977 0.8160 0.0000
vt 0.4031 0.8148 0.0000
vt 0.4030 0.8173 0.0000
vt 0.3989 0.8183 0.0000
vt 0.4075 0.8164 0.0000
vt 0.4063 0.8185 0.0000
vt 0.3536 0.8616 0.0000
vt 0.3590 0.8604 0.0000
vt 0.3589 0.8629 0.0000
vt 0.3548 0.8638 0.0000
vt 0.3633 0.8620 0.0000
vt 0.3622 0.8641 0.0000
vt 0.4408 0.8168 0.0000
vt 0.4356 0.8168 0.0000
vt 0.4362 0.8145 0.0000
vt 0.4402 0.8145 0.0000
vt 0.4734 0.7711 0.0000
vt 0.4750 0.7730 0.0000
vt 0.4874 0.8928 0.0000
vt 0.4874 0.9087 0.0000
vt 0.4874 0.8768 0.0000
vt 0.4080 0.8928 0.0000
vt 0.4080 0.9087 0.0000
vt 0.4080 0.8768 0.0000
vt 0.4874 0.8472 0.0000
vt 0.4874 0.8632 0.0000
vt 0.4874 0.8312 0.0000
vt 0.4874 0.8016 0.0000
vt 0.4874 0.8176 0.0000
vt 0.4874 0.7856 0.0000
vt 0.3663 0.8348 0.0000
vt 0.3785 0.8228 0.0000
vt 0.3956 0.8230 0.0000
vt 0.4075 0.8352 0.0000
vt 0.4074 0.8522 0.0000
vt 0.3952 0.8642 0.0000
vt 0.3781 0.8640 0.0000
vt 0.3662 0.8518 0.0000
# 152 texture coords

g Object002
usemtl wire_135059008
s 8
f 1/1/1 2/2/2 3/3/2 
f 3/3/2 4/4/1 1/1/1 
f 2/5/2 5/6/3 6/7/3 
f 6/7/3 3/8/2 2/5/2 
f 5/9/3 7/10/4 8/11/4 
f 8/11/4 6/12/3 5/9/3 
f 7/10/4 9/13/5 10/14/5 
f 10/14/5 8/11/4 7/10/4 
f 9/15/5 11/16/6 12/17/6 
f 12/17/6 10/18/5 9/15/5 
f 11/19/6 1/1/1 4/4/1 
f 4/4/1 12/20/6 11/19/6 
s 1
f 13/21/7 14/22/8 15/23/9 
f 15/23/9 16/24/10 13/21/7 
f 14/25/8 17/26/11 18/27/12 
f 18/27/12 15/28/9 14/25/8 
f 17/26/11 19/29/13 20/30/14 
f 20/30/14 18/27/12 17/26/11 
f 19/31/13 21/32/15 22/33/16 
f 22/33/16 20/34/14 19/31/13 
f 21/32/15 23/35/17 24/36/18 
f 24/36/18 22/33/16 21/32/15 
f 23/37/17 25/38/19 26/39/20 
f 26/39/20 24/40/18 23/37/17 
f 25/38/19 27/41/21 28/42/22 
f 28/42/22 26/39/20 25/38/19 
f 27/43/21 13/21/7 16/24/10 
f 16/24/10 28/44/22 27/43/21 
f 16/24/10 15/23/9 29/45/9 
f 29/45/9 30/46/23 16/24/10 
f 15/28/9 18/27/12 31/47/12 
f 31/47/12 29/48/9 15/28/9 
f 18/27/12 20/30/14 32/49/14 
f 32/49/14 31/47/12 18/27/12 
f 20/34/14 22/33/16 33/50/16 
f 33/50/16 32/51/14 20/34/14 
f 22/33/16 24/36/18 34/52/18 
f 34/52/18 33/50/16 22/33/16 
f 24/40/18 26/39/20 35/53/24 
f 35/53/24 34/54/18 24/40/18 
f 26/39/20 28/42/22 36/55/22 
f 36/55/22 35/53/24 26/39/20 
f 28/44/22 16/24/10 30/46/23 
f 30/46/23 36/56/22 28/44/22 
f 30/46/23 29/45/9 37/57/9 
f 37/57/9 38/58/10 30/46/23 
f 29/48/9 31/47/12 39/59/12 
f 39/59/12 37/60/9 29/48/9 
f 31/47/12 32/49/14 40/61/14 
f 40/61/14 39/59/12 31/47/12 
f 32/51/14 33/50/16 41/62/16 
f 41/62/16 40/63/14 32/51/14 
f 33/50/16 34/52/18 42/64/18 
f 42/64/18 41/62/16 33/50/16 
f 34/54/18 35/53/24 43/65/20 
f 43/65/20 42/66/18 34/54/18 
f 35/53/24 36/55/22 44/67/22 
f 44/67/22 43/65/20 35/53/24 
f 36/56/22 30/46/23 38/58/10 
f 38/58/10 44/68/22 36/56/22 
f 38/58/10 37/57/9 45/69/9 
f 45/69/9 46/70/23 38/58/10 
f 37/60/9 39/59/12 47/71/12 
f 47/71/12 45/72/9 37/60/9 
f 39/59/12 40/61/14 48/73/14 
f 48/73/14 47/71/12 39/59/12 
f 40/63/14 41/62/16 49/74/16 
f 49/74/16 48/75/14 40/63/14 
f 41/62/16 42/64/18 50/76/18 
f 50/76/18 49/74/16 41/62/16 
f 42/66/18 43/65/20 51/77/20 
f 51/77/20 50/78/18 42/66/18 
f 43/65/20 44/67/22 52/79/22 
f 52/79/22 51/77/20 43/65/20 
f 44/68/22 38/58/10 46/70/23 
f 46/70/23 52/80/22 44/68/22 
f 46/70/23 45/69/9 53/81/25 
f 53/81/25 54/82/26 46/70/23 
f 45/72/9 47/71/12 55/83/27 
f 55/83/27 53/84/25 45/72/9 
f 47/71/12 48/73/14 56/85/28 
f 56/85/28 55/83/27 47/71/12 
f 48/75/14 49/74/16 57/86/29 
f 57/86/29 56/87/28 48/75/14 
f 49/74/16 50/76/18 58/88/30 
f 58/88/30 57/86/29 49/74/16 
f 50/78/18 51/77/20 59/89/31 
f 59/89/31 58/90/30 50/78/18 
f 51/77/20 52/79/22 60/91/32 
f 60/91/32 59/89/31 51/77/20 
f 52/80/22 46/70/23 54/82/26 
f 54/82/26 60/92/32 52/80/22 
f 61/93/33 62/94/34 63/95/35 
f 63/95/35 64/96/36 65/97/37 
f 65/97/37 66/98/38 67/99/39 
f 63/95/35 65/97/37 67/99/39 
f 61/93/33 63/95/35 67/99/39 
f 68/100/40 61/93/33 67/99/39 
f 69/101/41 70/102/42 71/103/43 
f 71/103/43 72/104/44 73/105/45 
f 73/105/45 74/106/46 75/107/47 
f 71/103/43 73/105/45 75/107/47 
f 69/101/41 71/103/43 75/107/47 
f 76/108/48 69/101/41 75/107/47 
f 54/109/26 53/110/25 69/111/41 
f 69/111/41 76/112/48 54/109/26 
f 53/110/25 55/113/27 70/114/42 
f 70/114/42 69/111/41 53/110/25 
f 55/115/27 56/116/28 71/117/43 
f 71/117/43 70/118/42 55/115/27 
f 56/116/28 57/119/29 72/120/44 
f 72/120/44 71/117/43 56/116/28 
f 57/121/29 58/122/30 73/123/45 
f 73/123/45 72/124/44 57/121/29 
f 58/122/30 59/125/31 74/126/46 
f 74/126/46 73/123/45 58/122/30 
f 59/127/31 60/128/32 75/129/47 
f 75/129/47 74/130/46 59/127/31 
f 60/131/32 54/109/26 76/112/48 
f 76/112/48 75/132/47 60/131/32 
f 14/22/8 13/21/7 77/133/49 
f 77/133/49 78/134/50 14/22/8 
f 13/21/7 27/43/21 79/135/51 
f 79/135/51 77/133/49 13/21/7 
f 27/41/21 25/38/19 80/136/52 
f 80/136/52 79/137/51 27/41/21 
f 25/38/19 23/37/17 81/138/53 
f 81/138/53 80/136/52 25/38/19 
f 23/35/17 21/32/15 82/139/54 
f 82/139/54 81/140/53 23/35/17 
f 21/32/15 19/31/13 83/141/55 
f 83/141/55 82/139/54 21/32/15 
f 19/29/13 17/26/11 84/142/56 
f 84/142/56 83/143/55 19/29/13 
f 17/26/11 14/25/8 78/144/50 
f 78/144/50 84/142/56 17/26/11 
f 78/145/50 77/146/49 67/99/39 
f 67/99/39 66/98/38 78/145/50 
f 77/146/49 79/147/51 68/100/40 
f 68/100/40 67/99/39 77/146/49 
f 79/147/51 80/148/52 61/93/33 
f 61/93/33 68/100/40 79/147/51 
f 80/148/52 81/149/53 62/94/34 
f 62/94/34 61/93/33 80/148/52 
f 81/149/53 82/150/54 63/95/35 
f 63/95/35 62/94/34 81/149/53 
f 82/150/54 83/151/55 64/96/36 
f 64/96/36 63/95/35 82/150/54 
f 83/151/55 84/152/56 65/97/37 
f 65/97/37 64/96/36 83/151/55 
f 84/152/56 78/145/50 66/98/38 
f 66/98/38 65/97/37 84/152/56 
# 152 faces

