# 3ds Max Wavefront OBJ Exporter v0.97b - (c)2007 guruware
# File Created: 03.11.2016 09:19:52

mtllib barrel.mtl

#
# object Cylinder001
#

v  1.1161 0.0000 4.3928
v  0.9666 0.5580 4.3928
v  0.9666 0.5580 11.2515
v  1.1161 0.0000 11.2515
v  0.5581 0.9666 4.3928
v  0.5581 0.9666 11.2515
v  -0.0000 1.1161 4.3928
v  -0.0000 1.1161 11.2515
v  -0.5580 0.9666 4.3928
v  -0.5580 0.9666 11.2515
v  -0.9665 0.5580 4.3928
v  -0.9665 0.5580 11.2515
v  -1.1161 0.0000 4.3928
v  -1.1161 0.0000 11.2515
v  -0.9665 -0.5580 4.3928
v  -0.9665 -0.5580 11.2515
v  -0.5580 -0.9666 4.3928
v  -0.5580 -0.9666 11.2515
v  -0.0000 -1.1161 4.3928
v  -0.0000 -1.1161 11.2515
v  0.5581 -0.9666 4.3928
v  0.5581 -0.9666 11.2515
v  0.9666 -0.5580 4.3928
v  0.9666 -0.5580 11.2515
v  0.6599 -1.1430 -2.1008
v  -0.0000 -1.3198 -2.1008
v  -0.6600 -1.1430 -2.1008
v  -1.1430 -0.6599 -2.1008
v  -1.3198 0.0000 -2.1008
v  -1.1430 0.6599 -2.1008
v  -0.6600 1.1430 -2.1008
v  -0.0000 1.3198 -2.1008
v  0.6599 1.1430 -2.1008
v  1.1430 0.6599 -2.1008
v  1.3198 0.0000 -2.1008
v  1.1430 -0.6599 -2.1008
v  0.6231 0.3597 13.8513
v  0.3598 0.6231 13.8513
v  -0.0000 0.7195 13.8513
v  -0.3598 0.6231 13.8513
v  -0.6231 0.3597 13.8513
v  -0.7194 0.0000 13.8513
v  -0.6231 -0.3597 13.8513
v  -0.3598 -0.6231 13.8513
v  -0.0000 -0.7195 13.8513
v  0.3598 -0.6231 13.8513
v  0.6231 -0.3597 13.8513
v  0.7195 0.0000 13.8513
v  1.3198 0.0000 4.3928
v  1.1430 0.6599 4.3928
v  1.1430 -0.6599 4.3928
v  0.6599 -1.1430 4.3928
v  -0.0000 -1.3198 4.3928
v  -0.6600 -1.1430 4.3928
v  -1.1430 -0.6599 4.3928
v  -1.3198 0.0000 4.3928
v  -1.1430 0.6599 4.3928
v  -0.6600 1.1430 4.3928
v  -0.0000 1.3198 4.3928
v  0.6599 1.1430 4.3928
v  1.3288 0.7672 12.8413
v  1.5344 0.0000 12.8413
v  0.7672 1.3288 12.8413
v  -0.0000 1.5343 12.8413
v  -0.7672 1.3288 12.8413
v  -1.3289 0.7672 12.8413
v  -1.5343 0.0000 12.8413
v  -1.3289 -0.7672 12.8413
v  -0.7672 -1.3288 12.8413
v  -0.0000 -1.5343 12.8413
v  0.7672 -1.3288 12.8413
v  1.3288 -0.7672 12.8413
v  1.3288 0.7672 15.6400
v  1.5344 0.0000 15.6400
v  0.7672 1.3288 15.6400
v  -0.0000 1.5343 15.6400
v  -0.7672 1.3288 15.6400
v  -1.3289 0.7672 15.6400
v  -1.5343 0.0000 15.6400
v  -1.3289 -0.7672 15.6400
v  -0.7672 -1.3288 15.6400
v  -0.0000 -1.5343 15.6400
v  0.7672 -1.3288 15.6400
v  1.3288 -0.7672 15.6400
v  0.9759 0.5635 15.6400
v  1.1269 0.0000 15.6400
v  0.5635 0.9759 15.6400
v  -0.0000 1.1269 15.6400
v  -0.5634 0.9759 15.6400
v  -0.9760 0.5635 15.6400
v  -1.1270 0.0000 15.6400
v  -0.9760 -0.5635 15.6400
v  -0.5634 -0.9759 15.6400
v  -0.0000 -1.1269 15.6400
v  0.5635 -0.9759 15.6400
v  0.9759 -0.5635 15.6400
# 96 vertices

vn 1.0000 0.0000 -0.0000
vn 0.8660 0.5000 -0.0000
vn 0.8586 0.4957 -0.1311
vn 0.9914 0.0000 -0.1311
vn 0.5000 0.8660 -0.0000
vn 0.4957 0.8586 -0.1311
vn 0.0000 1.0000 -0.0000
vn 0.0000 0.9914 -0.1311
vn -0.5000 0.8660 -0.0000
vn -0.4957 0.8586 -0.1311
vn -0.8660 0.5000 -0.0000
vn -0.8586 0.4957 -0.1311
vn -1.0000 0.0000 -0.0000
vn -0.9914 0.0000 -0.1311
vn -0.8660 -0.5000 -0.0000
vn -0.8586 -0.4957 -0.1311
vn -0.5000 -0.8660 -0.0000
vn -0.4957 -0.8586 -0.1311
vn 0.0000 -1.0000 -0.0000
vn 0.0000 -0.9914 -0.1311
vn 0.5000 -0.8660 -0.0000
vn 0.4957 -0.8586 -0.1311
vn 0.8660 -0.5000 -0.0000
vn 0.8586 -0.4957 -0.1311
vn 0.0000 0.0000 -1.0000
vn 0.0000 0.0000 1.0000
vn 0.8592 0.4960 -0.1257
vn 0.9921 0.0000 -0.1257
vn 0.4960 0.8592 -0.1257
vn 0.0000 0.9921 -0.1257
vn -0.4960 0.8592 -0.1257
vn -0.8592 0.4960 -0.1257
vn -0.9921 0.0000 -0.1257
vn -0.8592 -0.4960 -0.1257
vn -0.4960 -0.8592 -0.1257
vn 0.0000 -0.9921 -0.1257
vn 0.4960 -0.8592 -0.1257
vn 0.8592 -0.4960 -0.1257
vn -0.9750 0.0000 0.2221
vn -0.8444 -0.4875 0.2221
vn -0.4875 -0.8444 0.2221
vn 0.0000 -0.9750 0.2221
vn 0.4875 -0.8444 0.2221
vn 0.8444 -0.4875 0.2221
vn 0.9750 0.0000 0.2221
vn 0.8444 0.4875 0.2221
vn 0.4875 0.8444 0.2221
vn 0.0000 0.9750 0.2221
vn -0.4875 0.8444 0.2221
vn -0.8444 0.4875 0.2221
# 50 vertex normals

vt 0.9756 0.7792 0.0000
vt 0.9756 0.7963 0.0000
vt 0.7725 0.7963 0.0000
vt 0.7725 0.7792 0.0000
vt 0.9756 0.8111 0.0000
vt 0.7725 0.8111 0.0000
vt 0.9744 0.5918 0.0000
vt 0.9744 0.6087 0.0000
vt 0.7737 0.6087 0.0000
vt 0.7737 0.5918 0.0000
vt 0.9744 0.6234 0.0000
vt 0.7737 0.6234 0.0000
vt 0.9744 0.6451 0.0000
vt 0.9744 0.6620 0.0000
vt 0.7737 0.6620 0.0000
vt 0.7737 0.6451 0.0000
vt 0.9744 0.6766 0.0000
vt 0.7737 0.6766 0.0000
vt 0.7520 0.7114 0.0000
vt 0.7520 0.7283 0.0000
vt 0.5513 0.7283 0.0000
vt 0.5513 0.7114 0.0000
vt 0.7520 0.7429 0.0000
vt 0.5513 0.7429 0.0000
vt 0.7520 0.6451 0.0000
vt 0.7520 0.6620 0.0000
vt 0.5513 0.6620 0.0000
vt 0.5513 0.6451 0.0000
vt 0.7520 0.6766 0.0000
vt 0.5513 0.6766 0.0000
vt 0.9710 0.5535 0.0000
vt 0.9710 0.5698 0.0000
vt 0.7771 0.5698 0.0000
vt 0.7771 0.5535 0.0000
vt 0.9756 0.7644 0.0000
vt 0.7725 0.7644 0.0000
vt 0.4416 0.8884 0.0000
vt 0.4609 0.8885 0.0000
vt 0.4775 0.8983 0.0000
vt 0.4871 0.9151 0.0000
vt 0.4869 0.9344 0.0000
vt 0.4772 0.9511 0.0000
vt 0.4604 0.9606 0.0000
vt 0.4411 0.9605 0.0000
vt 0.4244 0.9507 0.0000
vt 0.4149 0.9339 0.0000
vt 0.4150 0.9146 0.0000
vt 0.4248 0.8979 0.0000
vt 0.1630 0.0893 0.0000
vt 0.1538 0.0945 0.0000
vt 0.1433 0.0945 0.0000
vt 0.1342 0.0891 0.0000
vt 0.1290 0.0800 0.0000
vt 0.1291 0.0695 0.0000
vt 0.1344 0.0604 0.0000
vt 0.1436 0.0552 0.0000
vt 0.1541 0.0553 0.0000
vt 0.1632 0.0606 0.0000
vt 0.1684 0.0697 0.0000
vt 0.1683 0.0803 0.0000
vt 0.4288 0.7014 0.0000
vt 0.4206 0.7155 0.0000
vt 0.4150 0.7139 0.0000
vt 0.4248 0.6973 0.0000
vt 0.4204 0.7318 0.0000
vt 0.4149 0.7332 0.0000
vt 0.4285 0.7460 0.0000
vt 0.4244 0.7500 0.0000
vt 0.4426 0.7542 0.0000
vt 0.4411 0.7598 0.0000
vt 0.4589 0.7544 0.0000
vt 0.4604 0.7599 0.0000
vt 0.4731 0.7463 0.0000
vt 0.4772 0.7504 0.0000
vt 0.4814 0.7322 0.0000
vt 0.4869 0.7337 0.0000
vt 0.4815 0.7159 0.0000
vt 0.4871 0.7144 0.0000
vt 0.4734 0.7017 0.0000
vt 0.4775 0.6976 0.0000
vt 0.4593 0.6934 0.0000
vt 0.4609 0.6879 0.0000
vt 0.4430 0.6933 0.0000
vt 0.4416 0.6877 0.0000
vt 0.1281 0.7690 0.0000
vt 0.1480 0.7690 0.0000
vt 0.1480 0.9647 0.0000
vt 0.1281 0.9647 0.0000
vt 0.1679 0.7690 0.0000
vt 0.1679 0.9647 0.0000
vt 0.1919 0.7690 0.0000
vt 0.2065 0.7690 0.0000
vt 0.2065 0.9647 0.0000
vt 0.1919 0.9647 0.0000
vt 0.2264 0.7690 0.0000
vt 0.2264 0.9647 0.0000
vt 0.2462 0.7690 0.0000
vt 0.2462 0.9647 0.0000
vt 0.1919 0.5535 0.0000
vt 0.2065 0.5535 0.0000
vt 0.2065 0.7492 0.0000
vt 0.1919 0.7492 0.0000
vt 0.2264 0.5535 0.0000
vt 0.2264 0.7492 0.0000
vt 0.2462 0.5535 0.0000
vt 0.2462 0.7492 0.0000
vt 0.1136 0.5535 0.0000
vt 0.1281 0.5535 0.0000
vt 0.1281 0.7492 0.0000
vt 0.1136 0.7492 0.0000
vt 0.1480 0.5535 0.0000
vt 0.1480 0.7492 0.0000
vt 0.1679 0.5535 0.0000
vt 0.1679 0.7492 0.0000
vt 0.1136 0.7690 0.0000
vt 0.1136 0.9647 0.0000
vt 0.5252 0.3611 0.0000
vt 0.5252 0.3784 0.0000
vt 0.4761 0.3817 0.0000
vt 0.4761 0.3579 0.0000
vt 0.5273 0.3934 0.0000
vt 0.4791 0.4022 0.0000
vt 0.2146 0.4655 0.0000
vt 0.2146 0.4825 0.0000
vt 0.1661 0.4857 0.0000
vt 0.1661 0.4623 0.0000
vt 0.2167 0.4973 0.0000
vt 0.1690 0.5060 0.0000
vt 0.4110 0.1832 0.0000
vt 0.4110 0.2003 0.0000
vt 0.3625 0.2035 0.0000
vt 0.3625 0.1800 0.0000
vt 0.4131 0.2151 0.0000
vt 0.3654 0.2238 0.0000
vt 0.2135 0.3611 0.0000
vt 0.2135 0.3782 0.0000
vt 0.1651 0.3814 0.0000
vt 0.1651 0.3580 0.0000
vt 0.2156 0.3930 0.0000
vt 0.1680 0.4017 0.0000
vt 0.3724 0.4501 0.0000
vt 0.3724 0.4668 0.0000
vt 0.3248 0.4668 0.0000
vt 0.3248 0.4438 0.0000
vt 0.3724 0.4835 0.0000
vt 0.3248 0.4897 0.0000
vt 0.1010 0.0256 0.0000
vt 0.1010 0.0420 0.0000
vt 0.0546 0.0450 0.0000
vt 0.0546 0.0226 0.0000
vt 0.5273 0.3462 0.0000
vt 0.4791 0.3373 0.0000
vt 0.3951 0.3817 0.0000
vt 0.3951 0.3579 0.0000
vt 0.3980 0.4022 0.0000
vt 0.0860 0.4857 0.0000
vt 0.0860 0.4623 0.0000
vt 0.0889 0.5060 0.0000
vt 0.2824 0.2035 0.0000
vt 0.2824 0.1800 0.0000
vt 0.2853 0.2238 0.0000
vt 0.0849 0.3814 0.0000
vt 0.0849 0.3580 0.0000
vt 0.0878 0.4017 0.0000
vt 0.2412 0.4668 0.0000
vt 0.2412 0.4438 0.0000
vt 0.2412 0.4897 0.0000
vt 0.3248 0.5065 0.0000
vt 0.2412 0.5065 0.0000
vt 0.3980 0.3373 0.0000
vt 0.4709 0.1085 0.0000
vt 0.4516 0.0972 0.0000
vt 0.4598 0.0891 0.0000
vt 0.4740 0.0974 0.0000
vt 0.4405 0.0777 0.0000
vt 0.4516 0.0748 0.0000
vt 0.4406 0.0552 0.0000
vt 0.4517 0.0583 0.0000
vt 0.4520 0.0359 0.0000
vt 0.4601 0.0441 0.0000
vt 0.4715 0.0248 0.0000
vt 0.4744 0.0359 0.0000
vt 0.4940 0.0249 0.0000
vt 0.4909 0.0360 0.0000
vt 0.5133 0.0363 0.0000
vt 0.5051 0.0444 0.0000
vt 0.5244 0.0558 0.0000
vt 0.5133 0.0587 0.0000
vt 0.5243 0.0783 0.0000
vt 0.5132 0.0752 0.0000
vt 0.5129 0.0976 0.0000
vt 0.5048 0.0894 0.0000
vt 0.4934 0.1087 0.0000
vt 0.4905 0.0976 0.0000
vt 0.3574 0.1390 0.0000
vt 0.3574 0.1218 0.0000
vt 0.4115 0.1249 0.0000
vt 0.4115 0.1359 0.0000
vt 0.3593 0.1068 0.0000
vt 0.4127 0.1153 0.0000
vt 0.2027 0.2236 0.0000
vt 0.2020 0.2066 0.0000
vt 0.2556 0.2076 0.0000
vt 0.2560 0.2185 0.0000
vt 0.2033 0.1917 0.0000
vt 0.2564 0.1982 0.0000
vt 0.0406 0.2236 0.0000
vt 0.0400 0.2066 0.0000
vt 0.0936 0.2076 0.0000
vt 0.0940 0.2185 0.0000
vt 0.0413 0.1917 0.0000
vt 0.0944 0.1982 0.0000
vt 0.1963 0.1537 0.0000
vt 0.1957 0.1366 0.0000
vt 0.2492 0.1377 0.0000
vt 0.2497 0.1486 0.0000
vt 0.1969 0.1218 0.0000
vt 0.2501 0.1283 0.0000
vt 0.1153 0.1537 0.0000
vt 0.1146 0.1366 0.0000
vt 0.1682 0.1377 0.0000
vt 0.1686 0.1486 0.0000
vt 0.1159 0.1218 0.0000
vt 0.1690 0.1283 0.0000
vt 0.1974 0.0365 0.0000
vt 0.1974 0.0200 0.0000
vt 0.2492 0.0230 0.0000
vt 0.2492 0.0335 0.0000
vt 0.3593 0.1539 0.0000
vt 0.4127 0.1454 0.0000
# 230 texture coords

g Cylinder001
usemtl wire_006135113
s 1
f 1/1/1 2/2/2 3/3/3 
f 3/3/3 4/4/4 1/1/1 
f 2/2/2 5/5/5 6/6/6 
f 6/6/6 3/3/3 2/2/2 
f 5/7/5 7/8/7 8/9/8 
f 8/9/8 6/10/6 5/7/5 
f 7/8/7 9/11/9 10/12/10 
f 10/12/10 8/9/8 7/8/7 
f 9/13/9 11/14/11 12/15/12 
f 12/15/12 10/16/10 9/13/9 
f 11/14/11 13/17/13 14/18/14 
f 14/18/14 12/15/12 11/14/11 
f 13/19/13 15/20/15 16/21/16 
f 16/21/16 14/22/14 13/19/13 
f 15/20/15 17/23/17 18/24/18 
f 18/24/18 16/21/16 15/20/15 
f 17/25/17 19/26/19 20/27/20 
f 20/27/20 18/28/18 17/25/17 
f 19/26/19 21/29/21 22/30/22 
f 22/30/22 20/27/20 19/26/19 
f 21/31/21 23/32/23 24/33/24 
f 24/33/24 22/34/22 21/31/21 
f 23/35/23 1/1/1 4/4/4 
f 4/4/4 24/36/24 23/35/23 
f 25/37/25 26/38/25 27/39/25 
f 27/39/25 28/40/25 29/41/25 
f 29/41/25 30/42/25 31/43/25 
f 27/39/25 29/41/25 31/43/25 
f 31/43/25 32/44/25 33/45/25 
f 33/45/25 34/46/25 35/47/25 
f 31/43/25 33/45/25 35/47/25 
f 27/39/25 31/43/25 35/47/25 
f 25/37/25 27/39/25 35/47/25 
f 36/48/25 25/37/25 35/47/25 
f 37/49/26 38/50/26 39/51/26 
f 39/51/26 40/52/26 41/53/26 
f 41/53/26 42/54/26 43/55/26 
f 39/51/26 41/53/26 43/55/26 
f 43/55/26 44/56/26 45/57/26 
f 45/57/26 46/58/26 47/59/26 
f 43/55/26 45/57/26 47/59/26 
f 39/51/26 43/55/26 47/59/26 
f 37/49/26 39/51/26 47/59/26 
f 48/60/26 37/49/26 47/59/26 
s 2
f 2/61/26 1/62/26 49/63/26 
f 49/63/26 50/64/26 2/61/26 
f 1/62/26 23/65/26 51/66/26 
f 51/66/26 49/63/26 1/62/26 
f 23/65/26 21/67/26 52/68/26 
f 52/68/26 51/66/26 23/65/26 
f 21/67/26 19/69/26 53/70/26 
f 53/70/26 52/68/26 21/67/26 
f 19/69/26 17/71/26 54/72/26 
f 54/72/26 53/70/26 19/69/26 
f 17/71/26 15/73/26 55/74/26 
f 55/74/26 54/72/26 17/71/26 
f 15/73/26 13/75/26 56/76/26 
f 56/76/26 55/74/26 15/73/26 
f 13/75/26 11/77/26 57/78/26 
f 57/78/26 56/76/26 13/75/26 
f 11/77/26 9/79/26 58/80/26 
f 58/80/26 57/78/26 11/77/26 
f 9/79/26 7/81/26 59/82/26 
f 59/82/26 58/80/26 9/79/26 
f 7/81/26 5/83/26 60/84/26 
f 60/84/26 59/82/26 7/81/26 
f 5/83/26 2/61/26 50/64/26 
f 50/64/26 60/84/26 5/83/26 
s 4
f 50/85/2 49/86/1 35/87/1 
f 35/87/1 34/88/2 50/85/2 
f 49/86/1 51/89/23 36/90/23 
f 36/90/23 35/87/1 49/86/1 
f 51/91/23 52/92/21 25/93/21 
f 25/93/21 36/94/23 51/91/23 
f 52/92/21 53/95/19 26/96/19 
f 26/96/19 25/93/21 52/92/21 
f 53/95/19 54/97/17 27/98/17 
f 27/98/17 26/96/19 53/95/19 
f 54/99/17 55/100/15 28/101/15 
f 28/101/15 27/102/17 54/99/17 
f 55/100/15 56/103/13 29/104/13 
f 29/104/13 28/101/15 55/100/15 
f 56/103/13 57/105/11 30/106/11 
f 30/106/11 29/104/13 56/103/13 
f 57/107/11 58/108/9 31/109/9 
f 31/109/9 30/110/11 57/107/11 
f 58/108/9 59/111/7 32/112/7 
f 32/112/7 31/109/9 58/108/9 
f 59/111/7 60/113/5 33/114/5 
f 33/114/5 32/112/7 59/111/7 
f 60/115/5 50/85/2 34/88/2 
f 34/88/2 33/116/5 60/115/5 
s 1
f 4/117/4 3/118/3 61/119/27 
f 61/119/27 62/120/28 4/117/4 
f 3/118/3 6/121/6 63/122/29 
f 63/122/29 61/119/27 3/118/3 
f 6/123/6 8/124/8 64/125/30 
f 64/125/30 63/126/29 6/123/6 
f 8/124/8 10/127/10 65/128/31 
f 65/128/31 64/125/30 8/124/8 
f 10/129/10 12/130/12 66/131/32 
f 66/131/32 65/132/31 10/129/10 
f 12/130/12 14/133/14 67/134/33 
f 67/134/33 66/131/32 12/130/12 
f 14/135/14 16/136/16 68/137/34 
f 68/137/34 67/138/33 14/135/14 
f 16/136/16 18/139/18 69/140/35 
f 69/140/35 68/137/34 16/136/16 
f 18/141/18 20/142/20 70/143/36 
f 70/143/36 69/144/35 18/141/18 
f 20/142/20 22/145/22 71/146/37 
f 71/146/37 70/143/36 20/142/20 
f 22/147/22 24/148/24 72/149/38 
f 72/149/38 71/150/37 22/147/22 
f 24/151/24 4/117/4 62/120/28 
f 62/120/28 72/152/38 24/151/24 
f 62/120/28 61/119/27 73/153/2 
f 73/153/2 74/154/1 62/120/28 
f 61/119/27 63/122/29 75/155/5 
f 75/155/5 73/153/2 61/119/27 
f 63/126/29 64/125/30 76/156/7 
f 76/156/7 75/157/5 63/126/29 
f 64/125/30 65/128/31 77/158/9 
f 77/158/9 76/156/7 64/125/30 
f 65/132/31 66/131/32 78/159/11 
f 78/159/11 77/160/9 65/132/31 
f 66/131/32 67/134/33 79/161/13 
f 79/161/13 78/159/11 66/131/32 
f 67/138/33 68/137/34 80/162/15 
f 80/162/15 79/163/13 67/138/33 
f 68/137/34 69/140/35 81/164/17 
f 81/164/17 80/162/15 68/137/34 
f 69/144/35 70/143/36 82/165/19 
f 82/165/19 81/166/17 69/144/35 
f 70/143/36 71/146/37 83/167/21 
f 83/167/21 82/165/19 70/143/36 
f 71/146/37 72/168/38 84/169/23 
f 84/169/23 83/167/21 71/146/37 
f 72/152/38 62/120/28 74/154/1 
f 74/154/1 84/170/23 72/152/38 
s 2
f 74/171/26 73/172/26 85/173/26 
f 85/173/26 86/174/26 74/171/26 
f 73/172/26 75/175/26 87/176/26 
f 87/176/26 85/173/26 73/172/26 
f 75/175/26 76/177/26 88/178/26 
f 88/178/26 87/176/26 75/175/26 
f 76/177/26 77/179/26 89/180/26 
f 89/180/26 88/178/26 76/177/26 
f 77/179/26 78/181/26 90/182/26 
f 90/182/26 89/180/26 77/179/26 
f 78/181/26 79/183/26 91/184/26 
f 91/184/26 90/182/26 78/181/26 
f 79/183/26 80/185/26 92/186/26 
f 92/186/26 91/184/26 79/183/26 
f 80/185/26 81/187/26 93/188/26 
f 93/188/26 92/186/26 80/185/26 
f 81/187/26 82/189/26 94/190/26 
f 94/190/26 93/188/26 81/187/26 
f 82/189/26 83/191/26 95/192/26 
f 95/192/26 94/190/26 82/189/26 
f 83/191/26 84/193/26 96/194/26 
f 96/194/26 95/192/26 83/191/26 
f 84/193/26 74/171/26 86/174/26 
f 86/174/26 96/194/26 84/193/26 
s 4
f 86/195/39 85/196/40 37/197/40 
f 37/197/40 48/198/39 86/195/39 
f 85/196/40 87/199/41 38/200/41 
f 38/200/41 37/197/40 85/196/40 
f 87/201/41 88/202/42 39/203/42 
f 39/203/42 38/204/41 87/201/41 
f 88/202/42 89/205/43 40/206/43 
f 40/206/43 39/203/42 88/202/42 
f 89/207/43 90/208/44 41/209/44 
f 41/209/44 40/210/43 89/207/43 
f 90/208/44 91/211/45 42/212/45 
f 42/212/45 41/209/44 90/208/44 
f 91/213/45 92/214/46 43/215/46 
f 43/215/46 42/216/45 91/213/45 
f 92/214/46 93/217/47 44/218/47 
f 44/218/47 43/215/46 92/214/46 
f 93/219/47 94/220/48 45/221/48 
f 45/221/48 44/222/47 93/219/47 
f 94/220/48 95/223/49 46/224/49 
f 46/224/49 45/221/48 94/220/48 
f 95/225/49 96/226/50 47/227/50 
f 47/227/50 46/228/49 95/225/49 
f 96/229/50 86/195/39 48/198/39 
f 48/198/39 47/230/50 96/229/50 
# 188 faces

