# 3ds Max Wavefront OBJ Exporter v0.97b - (c)2007 guruware
# File Created: 27.10.2016 15:42:51

mtllib chopper3_blades2.mtl

#
# object catoon_Ka28_fan1
#

v  1.0341 1.3624 -0.4993
v  0.1304 1.3624 -1.0363
v  0.1304 1.8017 -1.0363
v  1.0341 1.8017 -0.4993
v  -0.7865 1.3624 -0.5222
v  -0.7865 1.8017 -0.5222
v  -0.7997 1.3624 0.5289
v  -0.7997 1.8017 0.5289
v  0.1040 1.3624 1.0659
v  0.1040 1.8017 1.0659
v  1.0209 1.3624 0.5518
v  1.0209 1.8017 0.5518
v  1.4599 0.4565 -0.7380
v  0.1366 0.4565 -1.5244
v  0.1366 1.0998 -1.5244
v  1.4599 1.0998 -0.7380
v  -1.2061 0.4565 -0.7716
v  -1.2061 1.0998 -0.7716
v  -1.2255 0.4565 0.7677
v  -1.2255 1.0998 0.7677
v  0.0979 0.4565 1.5541
v  0.0979 1.0998 1.5541
v  1.4406 0.4565 0.8012
v  1.4406 1.0998 0.8012
v  1.0720 -0.0868 -0.5205
v  0.1310 -0.0868 -1.0797
v  0.1310 0.3707 -1.0797
v  1.0720 0.3707 -0.5205
v  -0.8238 -0.0868 -0.5443
v  -0.8238 0.3707 -0.5443
v  -0.8375 -0.0868 0.5502
v  -0.8375 0.3707 0.5502
v  0.1035 -0.0868 1.1093
v  0.1035 0.3707 1.1093
v  1.0582 -0.0868 0.5740
v  1.0582 0.3707 0.5740
v  2.3178 0.6310 2.4990
v  2.6032 0.6310 0.4732
v  30.7479 0.6310 4.4380
v  30.4625 0.6310 6.4638
v  2.3178 0.6688 2.4990
v  30.4625 0.6688 6.4638
v  30.7479 0.9322 4.4380
v  2.6032 0.9322 0.4732
v  30.7886 0.9406 4.1491
v  30.7886 0.6310 4.1491
v  2.6439 0.6310 0.1843
v  2.6439 0.9406 0.1843
v  0.1451 0.4864 0.3349
v  0.2427 0.4864 -0.3584
v  1.6168 0.4864 -0.1649
v  1.5191 0.4864 0.5285
v  0.1451 1.0568 0.3349
v  1.5191 1.0568 0.5285
v  1.6168 1.0568 -0.1649
v  0.2427 1.0568 -0.3584
v  1.7961 0.6605 0.3330
v  1.8290 0.6605 0.0996
v  2.6297 0.6605 0.2124
v  2.5969 0.6605 0.4458
v  1.7961 0.8962 0.3330
v  2.5969 0.8962 0.4458
v  2.6297 0.8962 0.2124
v  1.8290 0.8962 0.0996
v  0.7373 0.5694 0.2690
v  0.7937 0.5694 -0.1314
v  2.1678 0.5694 0.0621
v  2.1114 0.5694 0.4626
v  0.7373 0.9738 0.2690
v  2.1114 0.9738 0.4626
v  2.1678 0.9738 0.0621
v  0.7937 0.9738 -0.1314
v  1.0053 0.6310 -3.2568
v  -0.8918 0.6310 -2.4910
v  -11.5305 0.6310 -28.8474
v  -9.6334 0.6310 -29.6132
v  1.0053 0.6688 -3.2568
v  -9.6334 0.6688 -29.6132
v  -11.5305 0.9322 -28.8474
v  -0.8918 0.9322 -2.4910
v  -11.8010 0.9406 -28.7382
v  -11.8010 0.6310 -28.7382
v  -1.1624 0.6310 -2.3818
v  -1.1624 0.9406 -2.3818
v  0.2175 0.4864 -0.2931
v  -0.4318 0.4864 -0.0310
v  -0.9512 0.4864 -1.3177
v  -0.3019 0.4864 -1.5798
v  0.2175 1.0568 -0.2931
v  -0.3019 1.0568 -1.5798
v  -0.9512 1.0568 -1.3177
v  -0.4318 1.0568 -0.0310
v  -0.6097 0.6605 -1.7219
v  -0.8283 0.6605 -1.6337
v  -1.1309 0.6605 -2.3836
v  -0.9124 0.6605 -2.4718
v  -0.6097 0.8962 -1.7219
v  -0.9124 0.8962 -2.4718
v  -1.1309 0.8962 -2.3836
v  -0.8282 0.8962 -1.6337
v  -0.1357 0.5694 -0.7730
v  -0.5107 0.5694 -0.6217
v  -1.0301 0.5694 -1.9084
v  -0.6551 0.5694 -2.0598
v  -0.1357 0.9738 -0.7730
v  -0.6551 0.9738 -2.0598
v  -1.0301 0.9738 -1.9084
v  -0.5107 0.9738 -0.6217
v  -3.3231 0.6310 0.7578
v  -1.7114 0.6310 2.0179
v  -19.2174 0.6310 24.4094
v  -20.8291 0.6310 23.1494
v  -3.3231 0.6688 0.7578
v  -20.8291 0.6688 23.1494
v  -19.2174 0.9322 24.4094
v  -1.7114 0.9322 2.0179
v  -18.9875 0.9406 24.5891
v  -18.9875 0.6310 24.5891
v  -1.4816 0.6310 2.1976
v  -1.4816 0.9406 2.1976
v  -0.3626 0.4864 -0.0418
v  0.1890 0.4864 0.3894
v  -0.6656 0.4864 1.4826
v  -1.2172 0.4864 1.0513
v  -0.3626 1.0568 -0.0418
v  -1.2172 1.0568 1.0513
v  -0.6656 1.0568 1.4826
v  0.1890 1.0568 0.3894
v  -1.1864 0.6605 1.3890
v  -1.0008 0.6605 1.5342
v  -1.4988 0.6605 2.1712
v  -1.6845 0.6605 2.0261
v  -1.1864 0.8962 1.3890
v  -1.6845 0.8962 2.0261
v  -1.4988 0.8962 2.1712
v  -1.0008 0.8962 1.5341
v  -0.6016 0.5694 0.5041
v  -0.2831 0.5694 0.7531
v  -1.1377 0.5694 1.8463
v  -1.4563 0.5694 1.5972
v  -0.6016 0.9738 0.5041
v  -1.4563 0.9738 1.5972
v  -1.1377 0.9738 1.8463
v  -0.2831 0.9738 0.7531
# 144 vertices

vn 0.5108 0.0000 -0.8597
vn -0.4891 0.0000 -0.8722
vn -0.9999 0.0000 -0.0126
vn -0.5109 0.0000 0.8597
vn 0.4891 0.0000 0.8722
vn 0.9999 -0.0000 0.0126
vn -0.0000 1.0000 -0.0000
vn 0.0000 -1.0000 0.0000
vn -0.0178 0.9918 0.1264
vn -0.1395 0.0000 0.9902
vn 0.1395 0.0000 -0.9902
vn 0.9902 0.0000 0.1395
vn -0.0040 0.9996 0.0285
vn -0.9902 0.0000 -0.1395
vn 0.0000 -1.0000 -0.0000
vn 0.0000 1.0000 -0.0000
vn -0.0000 -1.0000 -0.0000
vn 0.1184 0.9918 -0.0478
vn 0.9273 0.0000 -0.3743
vn -0.9273 0.0000 0.3743
vn -0.3743 0.0000 -0.9273
vn 0.0267 0.9996 -0.0108
vn 0.3743 0.0000 0.9273
vn -0.0000 -1.0000 0.0000
vn -0.1006 0.9918 -0.0787
vn -0.7878 0.0000 -0.6159
vn 0.7878 0.0000 0.6159
vn -0.6159 0.0000 0.7878
vn -0.0227 0.9996 -0.0177
vn 0.6159 0.0000 -0.7878
# 30 vertex normals

vt 0.9492 0.0982 0.0000
vt 0.9158 0.1181 0.0000
vt 0.9157 0.1080 0.0000
vt 0.9404 0.0933 0.0000
vt 0.8819 0.0991 0.0000
vt 0.8906 0.0939 0.0000
vt 0.8814 0.0602 0.0000
vt 0.8902 0.0651 0.0000
vt 0.9148 0.0403 0.0000
vt 0.9150 0.0504 0.0000
vt 0.9487 0.0593 0.0000
vt 0.9401 0.0645 0.0000
vt 0.5020 0.9841 0.0000
vt 0.5021 0.9493 0.0000
vt 0.9853 0.9505 0.0000
vt 0.9852 0.9853 0.0000
vt 0.5022 0.8992 0.0000
vt 0.9854 0.9002 0.0000
vt 0.9853 0.9353 0.0000
vt 0.5021 0.9342 0.0000
vt 0.5022 0.8985 0.0000
vt 0.9854 0.8995 0.0000
vt 0.9853 0.9403 0.0000
vt 0.9853 0.9456 0.0000
vt 0.5021 0.9443 0.0000
vt 0.5021 0.9391 0.0000
vt 0.9904 0.9506 0.0000
vt 0.9906 0.9456 0.0000
vt 0.9859 0.9853 0.0000
vt 0.5014 0.9841 0.0000
vt 0.4970 0.9493 0.0000
vt 0.4968 0.9443 0.0000
vt 0.7860 0.0211 0.0000
vt 0.8333 0.0211 0.0000
vt 0.7860 0.0597 0.0000
vt 0.8333 0.0597 0.0000
vt 0.8147 0.0298 0.0000
vt 0.8306 0.0298 0.0000
vt 0.8147 0.0457 0.0000
vt 0.8306 0.0457 0.0000
vt 0.8068 0.0276 0.0000
vt 0.8342 0.0276 0.0000
vt 0.8068 0.0549 0.0000
vt 0.8342 0.0549 0.0000
# 44 texture coords

g catoon_Ka28_fan1
usemtl catoon_Ka28
s off
f 1/1/1 2/2/1 3/3/1 
f 3/3/1 4/4/1 1/1/1 
f 2/2/2 5/5/2 6/6/2 
f 6/6/2 3/3/2 2/2/2 
f 5/5/3 7/7/3 8/8/3 
f 8/8/3 6/6/3 5/5/3 
f 7/7/4 9/9/4 10/10/4 
f 10/10/4 8/8/4 7/7/4 
f 9/9/5 11/11/5 12/12/5 
f 12/12/5 10/10/5 9/9/5 
f 11/11/6 1/1/6 4/4/6 
f 4/4/6 12/12/6 11/11/6 
f 12/12/7 4/4/7 3/3/7 
f 12/12/7 3/3/7 6/6/7 
f 12/12/7 6/6/7 8/8/7 
f 12/12/7 8/8/7 10/10/7 
f 13/1/1 14/2/1 15/3/1 
f 15/3/1 16/4/1 13/1/1 
f 14/2/2 17/5/2 18/6/2 
f 18/6/2 15/3/2 14/2/2 
f 17/5/3 19/7/3 20/8/3 
f 20/8/3 18/6/3 17/5/3 
f 19/7/4 21/9/4 22/10/4 
f 22/10/4 20/8/4 19/7/4 
f 21/9/5 23/11/5 24/12/5 
f 24/12/5 22/10/5 21/9/5 
f 23/11/6 13/1/6 16/4/6 
f 16/4/6 24/12/6 23/11/6 
f 24/12/7 16/4/7 15/3/7 
f 24/12/7 15/3/7 18/6/7 
f 24/12/7 18/6/7 20/8/7 
f 24/12/7 20/8/7 22/10/7 
f 25/1/1 26/2/1 27/3/1 
f 27/3/1 28/4/1 25/1/1 
f 26/2/2 29/5/2 30/6/2 
f 30/6/2 27/3/2 26/2/2 
f 29/5/3 31/7/3 32/8/3 
f 32/8/3 30/6/3 29/5/3 
f 31/7/4 33/9/4 34/10/4 
f 34/10/4 32/8/4 31/7/4 
f 33/9/5 35/11/5 36/12/5 
f 36/12/5 34/10/5 33/9/5 
f 35/11/6 25/1/6 28/4/6 
f 28/4/6 36/12/6 35/11/6 
f 36/12/7 28/4/7 27/3/7 
f 36/12/7 27/3/7 30/6/7 
f 36/12/7 30/6/7 32/8/7 
f 36/12/7 32/8/7 34/10/7 
f 37/13/8 38/14/8 39/15/8 
f 39/15/8 40/16/8 37/13/8 
f 41/17/9 42/18/9 43/19/9 
f 43/19/9 44/20/9 41/17/9 
f 41/17/10 37/21/10 40/22/10 
f 40/22/10 42/18/10 41/17/10 
f 45/23/11 46/24/11 47/25/11 
f 47/25/11 48/26/11 45/23/11 
f 43/27/12 39/15/12 46/24/12 
f 46/24/12 45/28/12 43/27/12 
f 38/14/8 47/25/8 46/24/8 
f 46/24/8 39/15/8 38/14/8 
f 43/19/13 45/23/13 48/26/13 
f 48/26/13 44/20/13 43/19/13 
f 42/29/12 40/16/12 39/15/12 
f 39/15/12 43/27/12 42/29/12 
f 41/30/14 44/31/14 48/32/14 
f 41/30/14 48/32/14 47/25/14 
f 41/30/14 47/25/14 38/14/14 
f 41/30/14 38/14/14 37/13/14 
f 49/33/15 50/34/15 51/34/15 
f 51/34/15 52/33/15 49/33/15 
f 53/35/16 54/35/16 55/36/16 
f 55/36/16 56/36/16 53/35/16 
f 49/33/10 52/33/10 54/35/10 
f 54/35/10 53/35/10 49/33/10 
f 51/34/11 50/34/11 56/36/11 
f 56/36/11 55/36/11 51/34/11 
f 55/36/12 54/35/12 52/33/12 
f 52/33/12 51/34/12 55/36/12 
f 57/37/15 58/38/15 59/38/15 
f 59/38/15 60/37/15 57/37/15 
f 61/39/16 62/39/16 63/40/16 
f 63/40/16 64/40/16 61/39/16 
f 57/37/10 60/37/10 62/39/10 
f 62/39/10 61/39/10 57/37/10 
f 59/38/11 58/38/11 64/40/11 
f 64/40/11 63/40/11 59/38/11 
f 63/40/12 62/39/12 60/37/12 
f 60/37/12 59/38/12 63/40/12 
f 65/41/15 66/42/15 67/42/15 
f 67/42/15 68/41/15 65/41/15 
f 69/43/16 70/43/16 71/44/16 
f 71/44/16 72/44/16 69/43/16 
f 65/41/10 68/41/10 70/43/10 
f 70/43/10 69/43/10 65/41/10 
f 67/42/11 66/42/11 72/44/11 
f 72/44/11 71/44/11 67/42/11 
f 71/44/12 70/43/12 68/41/12 
f 68/41/12 67/42/12 71/44/12 
f 73/13/17 74/14/17 75/15/17 
f 75/15/17 76/16/17 73/13/17 
f 77/17/18 78/18/18 79/19/18 
f 79/19/18 80/20/18 77/17/18 
f 77/17/19 73/21/19 76/22/19 
f 76/22/19 78/18/19 77/17/19 
f 81/23/20 82/24/20 83/25/20 
f 83/25/20 84/26/20 81/23/20 
f 79/27/21 75/15/21 82/24/21 
f 82/24/21 81/28/21 79/27/21 
f 74/14/17 83/25/17 82/24/17 
f 82/24/17 75/15/17 74/14/17 
f 79/19/22 81/23/22 84/26/22 
f 84/26/22 80/20/22 79/19/22 
f 78/29/21 76/16/21 75/15/21 
f 75/15/21 79/27/21 78/29/21 
f 77/30/23 80/31/23 84/32/23 
f 77/30/23 84/32/23 83/25/23 
f 77/30/23 83/25/23 74/14/23 
f 77/30/23 74/14/23 73/13/23 
f 85/33/15 86/34/15 87/34/15 
f 87/34/15 88/33/15 85/33/15 
f 89/35/16 90/35/16 91/36/16 
f 91/36/16 92/36/16 89/35/16 
f 85/33/19 88/33/19 90/35/19 
f 90/35/19 89/35/19 85/33/19 
f 87/34/20 86/34/20 92/36/20 
f 92/36/20 91/36/20 87/34/20 
f 91/36/21 90/35/21 88/33/21 
f 88/33/21 87/34/21 91/36/21 
f 93/37/15 94/38/15 95/38/15 
f 95/38/15 96/37/15 93/37/15 
f 97/39/16 98/39/16 99/40/16 
f 99/40/16 100/40/16 97/39/16 
f 93/37/19 96/37/19 98/39/19 
f 98/39/19 97/39/19 93/37/19 
f 95/38/20 94/38/20 100/40/20 
f 100/40/20 99/40/20 95/38/20 
f 99/40/21 98/39/21 96/37/21 
f 96/37/21 95/38/21 99/40/21 
f 101/41/15 102/42/15 103/42/15 
f 103/42/15 104/41/15 101/41/15 
f 105/43/16 106/43/16 107/44/16 
f 107/44/16 108/44/16 105/43/16 
f 101/41/19 104/41/19 106/43/19 
f 106/43/19 105/43/19 101/41/19 
f 103/42/20 102/42/20 108/44/20 
f 108/44/20 107/44/20 103/42/20 
f 107/44/21 106/43/21 104/41/21 
f 104/41/21 103/42/21 107/44/21 
f 109/13/24 110/14/24 111/15/24 
f 111/15/24 112/16/24 109/13/24 
f 113/17/25 114/18/25 115/19/25 
f 115/19/25 116/20/25 113/17/25 
f 113/17/26 109/21/26 112/22/26 
f 112/22/26 114/18/26 113/17/26 
f 117/23/27 118/24/27 119/25/27 
f 119/25/27 120/26/27 117/23/27 
f 115/27/28 111/15/28 118/24/28 
f 118/24/28 117/28/28 115/27/28 
f 110/14/24 119/25/24 118/24/24 
f 118/24/24 111/15/24 110/14/24 
f 115/19/29 117/23/29 120/26/29 
f 120/26/29 116/20/29 115/19/29 
f 114/29/28 112/16/28 111/15/28 
f 111/15/28 115/27/28 114/29/28 
f 113/30/30 116/31/30 120/32/30 
f 113/30/30 120/32/30 119/25/30 
f 113/30/30 119/25/30 110/14/30 
f 113/30/30 110/14/30 109/13/30 
f 121/33/15 122/34/15 123/34/15 
f 123/34/15 124/33/15 121/33/15 
f 125/35/16 126/35/16 127/36/16 
f 127/36/16 128/36/16 125/35/16 
f 121/33/26 124/33/26 126/35/26 
f 126/35/26 125/35/26 121/33/26 
f 123/34/27 122/34/27 128/36/27 
f 128/36/27 127/36/27 123/34/27 
f 127/36/28 126/35/28 124/33/28 
f 124/33/28 123/34/28 127/36/28 
f 129/37/15 130/38/15 131/38/15 
f 131/38/15 132/37/15 129/37/15 
f 133/39/16 134/39/16 135/40/16 
f 135/40/16 136/40/16 133/39/16 
f 129/37/26 132/37/26 134/39/26 
f 134/39/26 133/39/26 129/37/26 
f 131/38/27 130/38/27 136/40/27 
f 136/40/27 135/40/27 131/38/27 
f 135/40/28 134/39/28 132/37/28 
f 132/37/28 131/38/28 135/40/28 
f 137/41/15 138/42/15 139/42/15 
f 139/42/15 140/41/15 137/41/15 
f 141/43/16 142/43/16 143/44/16 
f 143/44/16 144/44/16 141/43/16 
f 137/41/26 140/41/26 142/43/26 
f 142/43/26 141/43/26 137/41/26 
f 139/42/27 138/42/27 144/44/27 
f 144/44/27 143/44/27 139/42/27 
f 143/44/28 142/43/28 140/41/28 
f 140/41/28 139/42/28 143/44/28 
# 198 faces

