# 3ds Max Wavefront OBJ Exporter v0.97b - (c)2007 guruware
# File Created: 15.10.2016 14:44:44

mtllib chopper2_blades.mtl

#
# object Catoon_AH1_fan
#

v  -0.4124 2.4885 0.0094
v  -0.2980 -2.5674 0.2955
v  -0.2980 2.5054 0.2851
v  -0.4124 -2.5843 0.0199
v  -0.0222 -2.5605 0.4096
v  -0.0222 2.5123 0.3991
v  0.2535 2.5054 0.2847
v  0.2535 -2.5674 0.2952
v  0.3676 2.4885 0.0089
v  0.3676 -2.5843 0.0194
v  0.2532 2.4717 -0.2667
v  0.2532 -2.6011 -0.2563
v  -0.0226 2.4647 -0.3808
v  -0.0226 -2.6081 -0.3703
v  -0.2983 -2.6011 -0.2559
v  -0.2983 2.4717 -0.2664
v  -0.6949 2.6078 0.6674
v  -0.9741 2.6071 -0.0053
v  -0.9741 2.3926 0.0202
v  -0.6949 2.3933 0.6929
v  -0.0218 2.3936 0.9712
v  -0.0218 2.6081 0.9457
v  0.6509 2.6078 0.6666
v  0.6509 2.3933 0.6921
v  0.9293 2.3926 0.0191
v  0.9293 2.6071 -0.0065
v  0.6501 2.3919 -0.6537
v  0.6501 2.6064 -0.6792
v  -0.0230 2.6061 -0.9575
v  -0.0230 2.3916 -0.9320
v  -0.6957 2.3919 -0.6528
v  -0.6958 2.6064 -0.6784
v  -0.0762 1.0830 -0.4653
v  1.7516 1.0830 -0.4664
v  -0.0756 1.0830 0.4570
v  1.7522 1.0830 0.4559
v  1.7516 1.8344 -0.4664
v  -0.0762 1.8344 -0.4653
v  -0.0756 1.8344 0.4570
v  1.7522 1.8344 0.4559
v  0.0762 1.0830 0.4653
v  -1.7522 1.0830 -0.4559
v  0.0756 1.0830 -0.4570
v  -1.7516 1.0830 0.4664
v  -1.7522 1.8344 -0.4559
v  0.0762 1.8344 0.4653
v  0.0756 1.8344 -0.4570
v  -1.7516 1.8344 0.4664
v  0.6844 1.1924 -0.2710
v  2.5125 1.1924 0.2606
v  0.6847 1.1924 0.2617
v  2.5122 1.1924 -0.2721
v  0.6844 1.7251 -0.2710
v  2.5125 1.7251 0.2606
v  2.5122 1.7251 -0.2721
v  0.6847 1.7251 0.2617
v  2.0772 1.3124 -0.1607
v  3.1424 1.3124 -0.1613
v  2.0774 1.3124 0.1497
v  3.1426 1.3124 0.1491
v  3.1424 1.6229 -0.1613
v  2.0772 1.6229 -0.1607
v  2.0774 1.6229 0.1497
v  3.1426 1.6229 0.1491
v  40.5971 1.2735 2.8556
v  3.1560 1.2735 0.1837
v  40.5955 1.2735 0.1608
v  3.1576 1.2735 2.8785
v  3.1560 1.6703 0.1837
v  40.5971 1.3233 2.8556
v  40.5955 1.6703 0.1608
v  3.1576 1.3233 2.8785
v  40.5953 1.6814 -0.2235
v  3.1557 1.2735 -0.2006
v  3.1557 1.6814 -0.2006
v  40.5953 1.2735 -0.2235
v  -2.5122 1.1924 0.2721
v  -0.6847 1.1924 -0.2617
v  -0.6843 1.1924 0.2710
v  -2.5125 1.1924 -0.2606
v  -2.5122 1.7251 0.2721
v  -0.6847 1.7251 -0.2617
v  -2.5125 1.7251 -0.2606
v  -0.6843 1.7251 0.2710
v  -3.1424 1.3124 0.1613
v  -2.0774 1.3124 -0.1497
v  -2.0772 1.3124 0.1607
v  -3.1426 1.3124 -0.1491
v  -3.1424 1.6229 0.1613
v  -2.0774 1.6229 -0.1497
v  -3.1426 1.6229 -0.1491
v  -2.0772 1.6229 0.1607
v  -40.5971 1.2735 -2.8556
v  -3.1576 1.2735 -2.8785
v  -40.5955 1.2735 -0.1608
v  -3.1560 1.2735 -0.1837
v  -3.1576 1.3233 -2.8785
v  -40.5971 1.3233 -2.8556
v  -40.5955 1.6703 -0.1608
v  -3.1560 1.6703 -0.1837
v  -40.5953 1.6814 0.2235
v  -3.1557 1.2735 0.2006
v  -3.1557 1.6814 0.2006
v  -40.5953 1.2735 0.2235
v  1.4278 1.1825 0.0640
v  0.4856 -2.5815 -0.0568
v  1.4278 1.1825 -0.0573
v  0.4856 -2.5815 0.0646
v  1.3105 1.2139 -0.0573
v  0.3683 -2.5501 -0.0567
v  1.3106 1.2139 0.0641
v  0.3684 -2.5501 0.0647
v  -1.4152 1.2194 -0.0556
v  -0.4730 -2.5445 0.0652
v  -1.4152 1.2194 0.0658
v  -0.4731 -2.5445 -0.0562
v  -1.2980 1.2508 -0.0557
v  -0.3558 -2.5131 0.0651
v  -0.3558 -2.5131 -0.0562
v  -1.2979 1.2508 0.0657
# 120 vertices

vn -0.9237 0.0008 0.3832
vn -0.3821 0.0019 0.9241
vn 0.3833 0.0019 0.9236
vn 0.9241 0.0008 0.3821
vn 0.9237 -0.0008 -0.3832
vn 0.3821 -0.0019 -0.9241
vn -0.3833 -0.0019 -0.9236
vn -0.9241 -0.0008 -0.3821
vn -0.0000 0.9981 -0.0610
vn -0.9227 0.0455 0.3828
vn -0.3799 0.1092 0.9186
vn 0.3810 0.1092 0.9181
vn 0.9232 0.0455 0.3817
vn 0.9227 -0.0455 -0.3828
vn 0.3799 -0.1093 -0.9186
vn -0.3810 -0.1093 -0.9181
vn -0.9232 -0.0455 -0.3817
vn -0.0000 1.0000 -0.0011
vn 0.0000 -1.0000 -0.0000
vn 0.0000 1.0000 -0.0000
vn 0.0006 0.0000 1.0000
vn -0.0006 0.0000 -1.0000
vn 1.0000 0.0000 -0.0006
vn -1.0000 0.0000 0.0006
vn 0.0001 0.9918 0.1277
vn 0.0000 0.9996 0.0288
vn -0.0001 0.9918 -0.1277
vn -0.0000 0.9996 -0.0288
vn 0.9701 -0.2428 -0.0006
vn -0.9701 0.2428 0.0006
vn 0.0006 -0.0000 1.0000
vn 0.2588 0.9659 -0.0002
vn -0.9701 -0.2428 0.0006
vn 0.9701 0.2428 -0.0006
vn -0.2588 0.9659 0.0002
# 35 vertex normals

vt 0.6649 0.8462 0.0000
vt 0.5685 0.8397 0.0000
vt 0.6653 0.8405 0.0000
vt 0.5682 0.8454 0.0000
vt 0.5687 0.8340 0.0000
vt 0.6655 0.8348 0.0000
vt 0.6654 0.8291 0.0000
vt 0.5686 0.8283 0.0000
vt 0.6651 0.8234 0.0000
vt 0.5684 0.8226 0.0000
vt 0.6649 0.8177 0.0000
vt 0.5681 0.8169 0.0000
vt 0.6644 0.8575 0.0000
vt 0.5677 0.8625 0.0000
vt 0.5676 0.8568 0.0000
vt 0.6645 0.8632 0.0000
vt 0.5678 0.8511 0.0000
vt 0.6646 0.8518 0.0000
vt 0.6693 0.8273 0.0000
vt 0.6750 0.8270 0.0000
vt 0.6687 0.8135 0.0000
vt 0.6744 0.8133 0.0000
vt 0.6788 0.8228 0.0000
vt 0.6786 0.8171 0.0000
vt 0.0995 0.9191 0.0000
vt 0.0888 0.9453 0.0000
vt 0.0814 0.9445 0.0000
vt 0.0946 0.9134 0.0000
vt 0.1257 0.9006 0.0000
vt 0.1257 0.9082 0.0000
vt 0.1519 0.9191 0.0000
vt 0.1568 0.9134 0.0000
vt 0.1700 0.9445 0.0000
vt 0.1626 0.9453 0.0000
vt 0.1572 0.9760 0.0000
vt 0.1517 0.9713 0.0000
vt 0.1257 0.9820 0.0000
vt 0.1257 0.9892 0.0000
vt 0.0942 0.9760 0.0000
vt 0.0997 0.9713 0.0000
vt 0.7395 0.8191 0.0000
vt 0.7395 0.8500 0.0000
vt 0.7239 0.8191 0.0000
vt 0.7239 0.8500 0.0000
vt 0.7522 0.8500 0.0000
vt 0.7522 0.8191 0.0000
vt 0.7677 0.8191 0.0000
vt 0.7677 0.8500 0.0000
vt 0.7113 0.8500 0.0000
vt 0.7113 0.8191 0.0000
vt 0.7239 0.8626 0.0000
vt 0.7395 0.8626 0.0000
vt 0.7677 0.8189 0.0000
vt 0.7521 0.8498 0.0000
vt 0.7521 0.8189 0.0000
vt 0.7677 0.8498 0.0000
vt 0.7394 0.8498 0.0000
vt 0.7239 0.8189 0.0000
vt 0.7394 0.8189 0.0000
vt 0.7239 0.8498 0.0000
vt 0.7112 0.8498 0.0000
vt 0.7112 0.8189 0.0000
vt 0.7521 0.8653 0.0000
vt 0.7394 0.8653 0.0000
vt 0.8609 0.7359 0.0000
vt 0.8404 0.8060 0.0000
vt 0.8404 0.7359 0.0000
vt 0.8609 0.8060 0.0000
vt 0.7995 0.7359 0.0000
vt 0.8200 0.8060 0.0000
vt 0.7995 0.8060 0.0000
vt 0.8200 0.7359 0.0000
vt 0.8813 0.7359 0.0000
vt 0.8813 0.8060 0.0000
vt 0.8404 0.8265 0.0000
vt 0.8200 0.8265 0.0000
vt 0.8202 0.7341 0.0000
vt 0.8202 0.8058 0.0000
vt 0.7993 0.7341 0.0000
vt 0.7993 0.8058 0.0000
vt 0.8411 0.8058 0.0000
vt 0.8411 0.7341 0.0000
vt 0.8620 0.7341 0.0000
vt 0.8620 0.8058 0.0000
vt 0.8829 0.7341 0.0000
vt 0.8829 0.8058 0.0000
vt 0.8411 0.8267 0.0000
vt 0.8202 0.8267 0.0000
vt 0.3237 0.9295 0.0000
vt 0.9789 0.9749 0.0000
vt 0.3238 0.9767 0.0000
vt 0.9788 0.9277 0.0000
vt 0.9787 0.8792 0.0000
vt 0.3237 0.9287 0.0000
vt 0.3236 0.8813 0.0000
vt 0.9788 0.9268 0.0000
vt 0.3239 0.9905 0.0000
vt 0.9790 0.9817 0.0000
vt 0.9790 0.9888 0.0000
vt 0.3239 0.9834 0.0000
vt 0.3167 0.9834 0.0000
vt 0.3169 0.9767 0.0000
vt 0.3235 0.8746 0.0000
vt 0.9786 0.8724 0.0000
vt 0.3228 0.9295 0.0000
vt 0.9797 0.9277 0.0000
vt 0.9859 0.9749 0.0000
vt 0.9861 0.9816 0.0000
vt 0.9790 0.9816 0.0000
vt 0.8397 0.8068 0.0000
vt 0.8193 0.7366 0.0000
vt 0.8397 0.7366 0.0000
vt 0.8193 0.8068 0.0000
vt 0.8602 0.8068 0.0000
vt 0.8806 0.7366 0.0000
vt 0.8806 0.8068 0.0000
vt 0.8602 0.7366 0.0000
vt 0.7989 0.8068 0.0000
vt 0.7989 0.7366 0.0000
vt 0.8193 0.8272 0.0000
vt 0.8397 0.8272 0.0000
vt 0.8200 0.8056 0.0000
vt 0.7991 0.7338 0.0000
vt 0.8200 0.7338 0.0000
vt 0.7991 0.8056 0.0000
vt 0.8409 0.8056 0.0000
vt 0.8618 0.7338 0.0000
vt 0.8618 0.8056 0.0000
vt 0.8409 0.7338 0.0000
vt 0.8827 0.7338 0.0000
vt 0.8827 0.8056 0.0000
vt 0.8409 0.8265 0.0000
vt 0.8618 0.8265 0.0000
vt 0.9457 0.8633 0.0000
vt 0.9511 0.7190 0.0000
vt 0.9502 0.8633 0.0000
vt 0.9466 0.7189 0.0000
vt 0.9367 0.8633 0.0000
vt 0.9376 0.7190 0.0000
vt 0.9412 0.8633 0.0000
vt 0.9421 0.7190 0.0000
vt 0.9322 0.8632 0.0000
vt 0.9330 0.7189 0.0000
vt 0.9412 0.8679 0.0000
vt 0.9367 0.8679 0.0000
vt 0.9511 0.7203 0.0000
vt 0.9463 0.8646 0.0000
vt 0.9466 0.7203 0.0000
vt 0.9508 0.8646 0.0000
vt 0.9376 0.7202 0.0000
vt 0.9418 0.8646 0.0000
vt 0.9373 0.8645 0.0000
vt 0.9421 0.7202 0.0000
vt 0.9331 0.7202 0.0000
vt 0.9328 0.8646 0.0000
vt 0.6969 1.1236 0.0000
vt 0.6012 1.1248 0.0000
vt 0.5999 1.0291 0.0000
vt 0.6956 1.0278 0.0000
# 159 texture coords

g Catoon_AH1_fan
usemtl dfs222d
s off
f 1/1/1 2/2/1 3/3/1 
f 2/2/1 1/1/1 4/4/1 
f 3/3/2 5/5/2 6/6/2 
f 5/5/2 3/3/2 2/2/2 
f 7/7/3 5/5/3 8/8/3 
f 5/5/3 7/7/3 6/6/3 
f 7/7/4 8/8/4 9/9/4 
f 9/9/4 8/8/4 10/10/4 
f 9/9/5 10/10/5 11/11/5 
f 11/11/5 10/10/5 12/12/5 
f 13/13/6 12/14/6 14/15/6 
f 12/14/6 13/13/6 11/16/6 
f 13/13/7 15/17/7 16/18/7 
f 15/17/7 13/13/7 14/15/7 
f 16/18/8 4/4/8 1/1/8 
f 4/4/8 16/18/8 15/17/8 
f 11/11/9 7/19/9 9/9/9 
f 7/19/9 11/11/9 6/20/9 
f 6/20/9 13/21/9 16/22/9 
f 13/21/9 6/20/9 11/11/9 
f 16/22/9 3/23/9 6/20/9 
f 3/23/9 16/22/9 1/24/9 
f 17/25/10 18/26/10 19/27/10 
f 17/25/10 19/27/10 20/28/10 
f 17/25/11 21/29/11 22/30/11 
f 21/29/11 17/25/11 20/28/11 
f 23/31/12 21/29/12 24/32/12 
f 21/29/12 23/31/12 22/30/12 
f 23/31/13 25/33/13 26/34/13 
f 25/33/13 23/31/13 24/32/13 
f 26/34/14 27/35/14 28/36/14 
f 27/35/14 26/34/14 25/33/14 
f 29/37/15 27/35/15 30/38/15 
f 27/35/15 29/37/15 28/36/15 
f 29/37/16 31/39/16 32/40/16 
f 31/39/16 29/37/16 30/38/16 
f 18/26/17 32/40/17 31/39/17 
f 18/26/17 31/39/17 19/27/17 
f 28/36/18 23/31/18 26/34/18 
f 28/36/18 22/30/18 23/31/18 
f 22/30/18 29/37/18 32/40/18 
f 29/37/18 22/30/18 28/36/18 
f 32/40/18 17/25/18 22/30/18 
f 17/25/18 32/40/18 18/26/18 
f 33/41/19 34/42/19 35/43/19 
f 36/44/19 35/43/19 34/42/19 
f 37/45/20 38/46/20 39/47/20 
f 37/45/20 39/47/20 40/48/20 
f 40/49/21 39/50/21 35/43/21 
f 40/49/21 35/43/21 36/44/21 
f 38/46/22 37/45/22 34/42/22 
f 38/46/22 34/42/22 33/41/22 
f 40/51/23 34/42/23 37/52/23 
f 34/42/23 40/51/23 36/44/23 
f 41/53/19 42/54/19 43/55/19 
f 42/54/19 41/53/19 44/56/19 
f 45/57/20 46/58/20 47/59/20 
f 46/58/20 45/57/20 48/60/20 
f 45/57/22 47/59/22 43/55/22 
f 45/57/22 43/55/22 42/54/22 
f 46/58/21 48/60/21 44/61/21 
f 46/58/21 44/61/21 41/62/21 
f 45/57/24 44/63/24 48/64/24 
f 44/63/24 45/57/24 42/54/24 
f 49/65/19 50/66/19 51/67/19 
f 50/66/19 49/65/19 52/68/19 
f 53/69/20 54/70/20 55/71/20 
f 54/70/20 53/69/20 56/72/20 
f 54/70/21 56/72/21 51/67/21 
f 54/70/21 51/67/21 50/66/21 
f 53/73/22 55/74/22 52/68/22 
f 53/73/22 52/68/22 49/65/22 
f 54/70/23 52/75/23 55/76/23 
f 52/75/23 54/70/23 50/66/23 
f 57/77/19 58/78/19 59/79/19 
f 60/80/19 59/79/19 58/78/19 
f 61/81/20 62/82/20 63/83/20 
f 61/81/20 63/83/20 64/84/20 
f 64/84/21 63/83/21 59/85/21 
f 64/84/21 59/85/21 60/86/21 
f 62/82/22 61/81/22 58/78/22 
f 62/82/22 58/78/22 57/77/22 
f 64/87/23 58/78/23 61/81/23 
f 58/78/23 64/87/23 60/88/23 
f 65/89/19 66/90/19 67/91/19 
f 66/90/19 65/89/19 68/92/19 
f 69/93/25 70/94/25 71/95/25 
f 70/94/25 69/93/25 72/96/25 
f 72/96/21 65/89/21 70/94/21 
f 65/89/21 72/96/21 68/92/21 
f 73/97/22 74/98/22 75/99/22 
f 74/98/22 73/97/22 76/100/22 
f 73/101/23 71/102/23 76/100/23 
f 71/102/23 67/91/23 76/100/23 
f 66/90/19 76/100/19 67/91/19 
f 76/100/19 66/90/19 74/98/19 
f 69/93/26 73/103/26 75/104/26 
f 73/103/26 69/93/26 71/95/26 
f 65/89/23 67/91/23 70/105/23 
f 71/102/23 70/105/23 67/91/23 
f 72/106/24 69/107/24 66/90/24 
f 72/106/24 66/90/24 68/92/24 
f 69/107/24 75/108/24 74/109/24 
f 74/109/24 66/90/24 69/107/24 
f 77/110/19 78/111/19 79/112/19 
f 78/111/19 77/110/19 80/113/19 
f 81/114/20 82/115/20 83/116/20 
f 82/115/20 81/114/20 84/117/20 
f 83/118/22 82/119/22 78/111/22 
f 83/118/22 78/111/22 80/113/22 
f 84/117/21 81/114/21 77/110/21 
f 84/117/21 77/110/21 79/112/21 
f 83/120/24 77/110/24 81/121/24 
f 77/110/24 83/120/24 80/113/24 
f 85/122/19 86/123/19 87/124/19 
f 86/123/19 85/122/19 88/125/19 
f 89/126/20 90/127/20 91/128/20 
f 90/127/20 89/126/20 92/129/20 
f 91/128/22 90/127/22 86/130/22 
f 91/128/22 86/130/22 88/131/22 
f 92/129/21 89/126/21 85/122/21 
f 92/129/21 85/122/21 87/124/21 
f 91/128/24 85/132/24 89/126/24 
f 85/132/24 91/128/24 88/133/24 
f 93/89/19 94/92/19 95/91/19 
f 96/90/19 95/91/19 94/92/19 
f 97/96/27 98/94/27 99/95/27 
f 97/96/27 99/95/27 100/93/27 
f 97/96/22 93/89/22 98/94/22 
f 93/89/22 97/96/22 94/92/22 
f 101/97/21 102/98/21 103/99/21 
f 102/98/21 101/97/21 104/100/21 
f 101/101/24 99/102/24 104/100/24 
f 99/102/24 95/91/24 104/100/24 
f 95/91/19 96/90/19 104/100/19 
f 102/98/19 104/100/19 96/90/19 
f 100/93/28 101/103/28 103/104/28 
f 101/103/28 100/93/28 99/95/28 
f 93/89/24 95/91/24 98/105/24 
f 99/102/24 98/105/24 95/91/24 
f 97/106/23 100/107/23 96/90/23 
f 97/106/23 96/90/23 94/92/23 
f 100/107/23 103/108/23 102/109/23 
f 102/109/23 96/90/23 100/107/23 
f 105/134/29 106/135/29 107/136/29 
f 106/135/29 105/134/29 108/137/29 
f 109/138/30 110/139/30 111/140/30 
f 111/140/30 110/139/30 112/141/30 
f 110/139/22 107/142/22 106/143/22 
f 107/142/22 110/139/22 109/138/22 
f 111/140/31 112/141/31 105/134/31 
f 105/134/31 112/141/31 108/137/31 
f 109/138/32 105/144/32 107/145/32 
f 105/144/32 109/138/32 111/140/32 
f 113/146/33 114/147/33 115/148/33 
f 114/147/33 113/146/33 116/149/33 
f 117/150/34 118/151/34 119/152/34 
f 118/151/34 117/150/34 120/153/34 
f 113/154/22 119/152/22 116/155/22 
f 119/152/22 113/154/22 117/150/22 
f 118/151/21 120/153/21 115/148/21 
f 115/148/21 114/147/21 118/151/21 
f 117/156/35 113/157/35 115/158/35 
f 117/156/35 115/158/35 120/159/35 
# 164 faces

