# 3ds Max Wavefront OBJ Exporter v0.97b - (c)2007 guruware
# File Created: 27.10.2016 16:03:07

mtllib chopper4_blades2.mtl

#
# object Catoon_CH47_fan
#

v  0.5437 0.3962 0.6093
v  0.8505 0.0000 0.2011
v  0.7713 0.3713 0.1668
v  0.5977 0.0277 0.6927
v  0.6951 0.3524 -0.3254
v  0.7659 -0.0210 -0.3455
v  0.3443 0.3468 -0.6792
v  0.3762 -0.0272 -0.7385
v  -0.1698 -0.0162 -0.8277
v  -0.1472 0.3567 -0.7595
v  -0.5917 0.3782 -0.5356
v  -0.6634 0.0077 -0.5791
v  -0.9162 0.0354 -0.0876
v  -0.8192 0.4031 -0.0931
v  -0.7431 0.4220 0.3991
v  -0.8316 0.0564 0.4591
v  -0.3922 0.4276 0.7529
v  -0.4419 0.0626 0.8521
v  0.1041 0.0516 0.9413
v  0.0993 0.4178 0.8332
v  0.4785 0.5202 0.5338
v  0.6787 0.4982 0.1444
v  0.6117 0.4816 -0.2886
v  0.3030 0.4767 -0.5999
v  -0.1294 0.4854 -0.6705
v  -0.5204 0.5043 -0.4736
v  -0.7207 0.5263 -0.0842
v  -0.6536 0.5429 0.3488
v  -0.3450 0.5478 0.6601
v  0.0875 0.5391 0.7307
v  0.1744 1.1435 0.1780
v  0.2245 0.4247 -0.0307
v  0.2415 1.1312 -0.0688
v  0.1575 0.4370 0.2161
v  0.0442 0.4219 -0.2125
v  0.0612 1.1284 -0.2506
v  -0.2031 0.4313 -0.1475
v  -0.1862 1.1378 -0.1856
v  -0.2532 1.1501 0.0612
v  -0.2702 0.4436 0.0993
v  -0.0729 1.1530 0.2430
v  -0.0899 0.4465 0.2811
v  0.2344 0.8097 -0.4952
v  0.0943 0.8006 0.0477
v  -0.0678 0.8074 -0.0665
v  0.3965 0.8029 -0.3809
v  0.2400 1.0319 -0.4901
v  0.0999 1.0229 0.0529
v  0.4022 1.0251 -0.3758
v  -0.0622 1.0296 -0.0614
v  0.2738 0.8449 -0.4928
v  0.3830 0.8403 -0.4158
v  0.2776 0.9946 -0.4893
v  0.3869 0.9901 -0.4123
v  0.8817 0.8879 -1.3527
v  0.9910 0.8833 -1.2757
v  0.9928 0.9561 -1.2740
v  0.8836 0.9607 -1.3511
v  1.3602 0.8131 -2.0922
v  2.3957 0.7786 -1.7394
v  2.4016 1.0106 -1.7340
v  1.3661 1.0452 -2.0868
v  11.4919 0.8933 -16.6803
v  12.4527 0.8531 -16.0031
v  11.4979 1.1253 -16.6749
v  12.4586 1.0852 -15.9977
v  0.3050 0.7844 0.5159
v  -0.0950 0.8037 0.1234
v  0.0851 0.8011 0.0400
v  0.1249 0.7871 0.5992
v  0.3107 1.0067 0.5211
v  -0.0894 1.0259 0.1285
v  0.1305 1.0093 0.6044
v  0.0907 1.0233 0.0452
v  0.1639 0.8222 0.6055
v  0.2853 0.8204 0.5493
v  0.1677 0.9720 0.6089
v  0.2891 0.9702 0.5528
v  0.6066 0.8273 1.5620
v  0.7280 0.8255 1.5058
v  0.6084 0.9001 1.5637
v  0.7298 0.8984 1.5075
v  1.1242 0.7176 2.2885
v  0.3004 0.7219 3.0092
v  0.3063 0.9539 3.0146
v  1.1301 0.9497 2.2939
v  7.6189 0.1688 18.8438
v  8.6861 0.1531 18.3500
v  8.6920 0.3851 18.3554
v  7.6248 0.4008 18.8492
v  -0.5880 0.8220 -0.1256
v  -0.0838 0.8035 0.1192
v  -0.6059 0.8179 0.0720
v  -0.0658 0.8076 -0.0784
v  -0.6003 1.0401 0.0772
v  -0.0781 1.0257 0.1244
v  -0.5823 1.0442 -0.1204
v  -0.0601 1.0299 -0.0732
v  -0.6229 0.8554 0.0388
v  -0.6108 0.8582 -0.0944
v  -0.6191 1.0052 0.0422
v  -0.6070 1.0079 -0.0910
v  -1.6584 0.9255 -0.1883
v  -1.6705 0.9227 -0.0552
v  -1.6566 0.9983 -0.1866
v  -1.6687 0.9956 -0.0535
v  -2.5513 0.8666 -0.1040
v  -2.7631 0.8968 -1.1774
v  -2.7572 1.1289 -1.1720
v  -2.5454 1.0986 -0.0986
v  -20.2450 1.3509 -1.5773
v  -20.1384 1.3753 -2.7483
v  -20.2391 1.5830 -1.5720
v  -20.1325 1.6074 -2.7429
# 114 vertices

vn 0.6495 0.4341 0.6243
vn 0.9644 0.2194 0.1479
vn 0.9067 0.4022 0.1274
vn 0.6890 0.2544 0.6786
vn 0.8225 0.3758 -0.4269
vn 0.8752 0.1899 -0.4450
vn 0.4275 0.3651 -0.8270
vn 0.4527 0.1773 -0.8739
vn -0.1426 0.1865 -0.9720
vn -0.1284 0.3742 -0.9184
vn -0.6311 0.3996 -0.6649
vn -0.6810 0.2140 -0.7003
vn -0.9544 0.2491 -0.1644
vn -0.8870 0.4315 -0.1646
vn -0.7992 0.4578 0.3895
vn -0.8597 0.2784 0.4282
vn -0.4032 0.4684 0.7861
vn -0.4359 0.2908 0.8517
vn 0.1549 0.2817 0.9469
vn 0.1496 0.4594 0.8755
vn 0.3780 0.8689 0.3197
vn 0.5213 0.8523 0.0434
vn 0.4749 0.8391 -0.2652
vn 0.2551 0.8345 -0.4884
vn -0.0547 0.8402 -0.5395
vn -0.3349 0.8540 -0.3981
vn -0.4772 0.8707 -0.1192
vn -0.4281 0.8837 0.1893
vn -0.2076 0.8882 0.4098
vn 0.0999 0.8826 0.4594
vn 0.5737 0.6218 0.5332
vn 0.9675 -0.0368 -0.2504
vn 0.7815 0.5799 -0.2300
vn 0.7033 0.0215 0.7106
vn 0.2639 -0.0583 -0.9628
vn 0.2236 0.5671 -0.7927
vn -0.7060 -0.0212 -0.7079
vn -0.5428 0.5964 -0.5913
vn -0.7501 0.6384 0.1725
vn -0.9655 0.0371 0.2576
vn -0.1920 0.6510 0.7344
vn -0.2603 0.0583 0.9638
vn -0.2630 -0.6066 -0.7503
vn 0.1242 -0.5992 0.7909
vn -0.8190 -0.5598 0.1260
vn 0.7600 -0.6493 -0.0292
vn -0.2310 0.6532 -0.7211
vn 0.1536 0.5548 0.8177
vn 0.7920 0.6105 -0.0000
vn -0.7896 0.5942 0.1528
vn -0.0145 -0.4647 -0.8854
vn 0.8118 -0.4992 -0.3029
vn 0.0102 0.5053 -0.8629
vn 0.8365 0.4708 -0.2805
vn -0.6186 -0.6754 -0.4014
vn 0.3429 -0.7876 0.5119
vn 0.3819 0.7446 0.5474
vn -0.5830 0.7238 -0.3690
vn -0.6157 -0.6930 -0.3750
vn 0.4311 -0.6704 0.6039
vn 0.4639 0.6190 0.6337
vn -0.5792 0.7400 -0.3418
vn -0.1565 -0.5544 -0.8174
vn 0.7896 -0.5942 -0.1528
vn -0.1272 0.5989 -0.7907
vn 0.8190 0.5598 -0.1261
vn 0.7447 -0.6528 0.1390
vn -0.7807 -0.5510 -0.2948
vn 0.2672 -0.5664 -0.7796
vn -0.3918 -0.6361 0.6648
vn 0.7767 0.6070 0.1681
vn -0.7513 0.6030 -0.2680
vn -0.3597 0.6237 0.6940
vn 0.2965 0.5876 -0.7529
vn -0.1722 -0.5008 0.8482
vn 0.7457 -0.5144 0.4235
vn -0.1475 0.4692 0.8707
vn 0.7704 0.4557 0.4460
vn -0.6596 -0.7510 0.0316
vn 0.6165 -0.7082 -0.3442
vn -0.6206 0.7813 0.0671
vn 0.6521 0.6911 -0.3118
vn 0.5912 -0.7242 -0.3550
vn -0.7763 -0.6272 0.0636
vn -0.7435 0.6622 0.0934
vn 0.6276 0.7089 -0.3218
vn -0.2965 -0.5876 0.7529
vn 0.7526 -0.6026 0.2654
vn 0.7819 0.5507 0.2921
vn -0.2672 0.5664 0.7796
vn -0.4163 -0.6043 -0.6793
vn 0.5078 -0.6048 0.6135
vn -0.5297 -0.6303 0.5675
vn 0.6124 -0.5808 -0.5362
vn -0.4977 0.6295 0.5967
vn 0.5372 0.5492 0.6402
vn -0.3842 0.6555 -0.6502
vn 0.6418 0.5732 -0.5095
vn -0.7682 -0.4759 0.4281
vn -0.6766 -0.4549 -0.5790
vn -0.7435 0.4941 0.4506
vn -0.6519 0.5151 -0.5565
vn 0.2582 -0.7598 -0.5968
vn -0.0512 -0.7153 0.6969
vn 0.2972 0.7725 -0.5613
vn -0.0156 0.6840 0.7293
vn -0.0302 -0.7324 0.6802
vn 0.2959 -0.6365 -0.7122
vn 0.3287 0.6529 -0.6824
vn 0.0063 0.7007 0.7134
vn -0.6401 -0.5729 0.5119
vn -0.5372 -0.5492 -0.6402
vn -0.6108 0.5804 0.5386
vn -0.5078 0.6048 -0.6134
# 114 vertex normals

vt 0.9053 0.3669 0.0000
vt 0.9070 0.3468 0.0000
vt 0.9003 0.3516 0.0000
vt 0.9136 0.3669 0.0000
vt 0.8873 0.3422 0.0000
vt 0.8899 0.3343 0.0000
vt 0.8712 0.3422 0.0000
vt 0.8686 0.3343 0.0000
vt 0.8515 0.3468 0.0000
vt 0.8582 0.3516 0.0000
vt 0.8532 0.3669 0.0000
vt 0.8449 0.3669 0.0000
vt 0.8515 0.3871 0.0000
vt 0.8582 0.3822 0.0000
vt 0.8712 0.3917 0.0000
vt 0.8686 0.3996 0.0000
vt 0.8873 0.3917 0.0000
vt 0.8899 0.3996 0.0000
vt 0.9070 0.3871 0.0000
vt 0.9003 0.3822 0.0000
vt 0.9018 0.3669 0.0000
vt 0.8975 0.3537 0.0000
vt 0.8862 0.3455 0.0000
vt 0.8723 0.3455 0.0000
vt 0.8610 0.3537 0.0000
vt 0.8567 0.3669 0.0000
vt 0.8610 0.3802 0.0000
vt 0.8723 0.3884 0.0000
vt 0.8862 0.3884 0.0000
vt 0.8975 0.3802 0.0000
vt 0.9055 0.4105 0.0000
vt 0.9064 0.4059 0.0000
vt 0.9046 0.4090 0.0000
vt 0.9090 0.4105 0.0000
vt 0.9010 0.4059 0.0000
vt 0.9028 0.4090 0.0000
vt 0.8984 0.4105 0.0000
vt 0.9019 0.4105 0.0000
vt 0.9028 0.4121 0.0000
vt 0.9010 0.4151 0.0000
vt 0.9046 0.4121 0.0000
vt 0.9064 0.4151 0.0000
vt 0.0574 0.1039 0.0000
vt 0.0661 0.0806 0.0000
vt 0.0571 0.0805 0.0000
vt 0.0649 0.1039 0.0000
vt 0.0488 0.1042 0.0000
vt 0.0383 0.0818 0.0000
vt 0.0407 0.1052 0.0000
vt 0.0472 0.0809 0.0000
vt 0.0742 0.1048 0.0000
vt 0.0760 0.0812 0.0000
vt 0.0667 0.0717 0.0000
vt 0.0765 0.0724 0.0000
vt 0.0574 0.1059 0.0000
vt 0.0646 0.1059 0.0000
vt 0.0494 0.1062 0.0000
vt 0.0430 0.1069 0.0000
vt 0.0718 0.1064 0.0000
vt 0.0566 0.1532 0.0000
vt 0.0634 0.1533 0.0000
vt 0.0458 0.1535 0.0000
vt 0.0523 0.1534 0.0000
vt 0.0666 0.1526 0.0000
vt 0.0581 0.1925 0.0000
vt 0.1043 0.2049 0.0000
vt 0.0021 0.2045 0.0000
vt 0.0488 0.1925 0.0000
vt 0.1131 0.2016 0.0000
vt 0.0662 0.9825 0.0000
vt 0.1186 0.9808 0.0000
vt 0.0557 0.9826 0.0000
vt 0.0033 0.9825 0.0000
vt 0.1289 0.9800 0.0000
vt 0.0033 0.9930 0.0000
vt 0.0556 0.9931 0.0000
# 76 texture coords

g Catoon_CH47_fan
usemtl fbadf35
s off
f 1/1/1 2/2/2 3/3/3 
f 2/2/2 1/1/1 4/4/4 
f 5/5/5 2/2/2 6/6/6 
f 2/2/2 5/5/5 3/3/3 
f 6/6/6 7/7/7 5/5/5 
f 7/7/7 6/6/6 8/8/8 
f 7/7/7 9/9/9 10/10/10 
f 9/9/9 7/7/7 8/8/8 
f 9/9/9 11/11/11 10/10/10 
f 11/11/11 9/9/9 12/12/12 
f 11/11/11 13/13/13 14/14/14 
f 13/13/13 11/11/11 12/12/12 
f 15/15/15 13/13/13 16/16/16 
f 13/13/13 15/15/15 14/14/14 
f 16/16/16 17/17/17 15/15/15 
f 17/17/17 16/16/16 18/18/18 
f 17/17/17 19/19/19 20/20/20 
f 19/19/19 17/17/17 18/18/18 
f 1/1/1 19/19/19 4/4/4 
f 19/19/19 1/1/1 20/20/20 
f 21/21/21 3/3/3 22/22/22 
f 3/3/3 21/21/21 1/1/1 
f 3/3/3 23/23/23 22/22/22 
f 23/23/23 3/3/3 5/5/5 
f 23/23/23 7/7/7 24/24/24 
f 7/7/7 23/23/23 5/5/5 
f 24/24/24 10/10/10 25/25/25 
f 10/10/10 24/24/24 7/7/7 
f 10/10/10 26/26/26 25/25/25 
f 26/26/26 10/10/10 11/11/11 
f 26/26/26 14/14/14 27/27/27 
f 14/14/14 26/26/26 11/11/11 
f 14/14/14 28/28/28 27/27/27 
f 28/28/28 14/14/14 15/15/15 
f 29/29/29 15/15/15 17/17/17 
f 15/15/15 29/29/29 28/28/28 
f 29/29/29 20/20/20 30/30/30 
f 20/20/20 29/29/29 17/17/17 
f 20/20/20 21/21/21 30/30/30 
f 21/21/21 20/20/20 1/1/1 
f 22/22/22 30/30/30 21/21/21 
f 24/24/24 28/28/28 23/23/23 
f 29/29/29 23/23/23 28/28/28 
f 27/27/27 25/25/25 26/26/26 
f 24/24/24 27/27/27 28/28/28 
f 30/30/30 23/23/23 29/29/29 
f 23/23/23 30/30/30 22/22/22 
f 25/25/25 27/27/27 24/24/24 
f 31/31/31 32/32/32 33/33/33 
f 32/32/32 31/31/31 34/34/34 
f 33/33/33 35/35/35 36/36/36 
f 35/35/35 33/33/33 32/32/32 
f 36/36/36 37/37/37 38/38/38 
f 37/37/37 36/36/36 35/35/35 
f 39/39/39 37/37/37 40/40/40 
f 37/37/37 39/39/39 38/38/38 
f 41/41/41 40/40/40 42/42/42 
f 40/40/40 41/41/41 39/39/39 
f 31/31/31 42/42/42 34/34/34 
f 42/42/42 31/31/31 41/41/41 
f 36/36/36 39/39/39 41/41/41 
f 41/41/41 33/33/33 36/36/36 
f 33/33/33 41/41/41 31/31/31 
f 39/39/39 36/36/36 38/38/38 
f 43/43/43 44/44/44 45/45/45 
f 44/44/44 43/43/43 46/46/46 
f 47/47/47 48/48/48 49/49/49 
f 48/48/48 47/47/47 50/50/50 
f 49/51/49 44/44/44 46/46/46 
f 44/44/44 49/51/49 48/52/48 
f 47/47/47 45/45/45 50/50/50 
f 45/45/45 47/47/47 43/43/43 
f 48/52/48 45/53/45 44/44/44 
f 45/53/45 48/52/48 50/54/50 
f 46/46/46 51/55/51 52/56/52 
f 51/55/51 46/46/46 43/43/43 
f 53/57/53 49/49/49 54/58/54 
f 47/47/47 49/49/49 53/57/53 
f 49/51/49 52/56/52 54/59/54 
f 52/56/52 49/51/49 46/46/46 
f 53/57/53 43/43/43 47/47/47 
f 43/43/43 53/57/53 51/55/51 
f 55/60/55 52/56/52 51/55/51 
f 52/56/52 55/60/55 56/61/56 
f 57/62/57 53/57/53 54/58/54 
f 53/57/53 57/62/57 58/63/58 
f 57/64/57 54/59/54 52/56/52 
f 57/64/57 52/56/52 56/61/56 
f 58/63/58 51/55/51 53/57/53 
f 51/55/51 58/63/58 55/60/55 
f 59/65/59 56/61/56 55/60/55 
f 59/65/59 60/66/60 56/61/56 
f 57/62/57 61/67/61 62/68/62 
f 57/62/57 62/68/62 58/63/58 
f 57/64/57 60/66/60 61/69/61 
f 60/66/60 57/64/57 56/61/56 
f 62/68/62 55/60/55 58/63/58 
f 55/60/55 62/68/62 59/65/59 
f 63/70/63 60/66/60 59/65/59 
f 64/71/64 60/66/60 63/70/63 
f 65/72/65 62/68/62 61/67/61 
f 61/67/61 66/73/66 65/72/65 
f 66/74/66 61/69/61 60/66/60 
f 66/74/66 60/66/60 64/71/64 
f 65/72/65 59/65/59 62/68/62 
f 59/65/59 65/72/65 63/70/63 
f 64/75/64 63/76/63 66/73/66 
f 65/72/65 66/73/66 63/76/63 
f 67/43/67 68/44/68 69/45/69 
f 68/44/68 67/43/67 70/46/70 
f 71/47/71 72/48/72 73/49/73 
f 72/48/72 71/47/71 74/50/74 
f 73/51/73 68/44/68 70/46/70 
f 68/44/68 73/51/73 72/52/72 
f 71/47/71 69/45/69 74/50/74 
f 69/45/69 71/47/71 67/43/67 
f 72/52/72 69/53/69 68/44/68 
f 69/53/69 72/52/72 74/54/74 
f 67/43/67 75/56/75 70/46/70 
f 75/56/75 67/43/67 76/55/76 
f 77/58/77 71/47/71 73/49/73 
f 71/47/71 77/58/77 78/57/78 
f 73/51/73 70/46/70 77/59/77 
f 77/59/77 70/46/70 75/56/75 
f 76/55/76 71/47/71 78/57/78 
f 67/43/67 71/47/71 76/55/76 
f 79/61/79 76/55/76 80/60/80 
f 76/55/76 79/61/79 75/56/75 
f 77/58/77 81/62/81 82/63/82 
f 77/58/77 82/63/82 78/57/78 
f 81/64/81 77/59/77 75/56/75 
f 81/64/81 75/56/75 79/61/79 
f 82/63/82 76/55/76 78/57/78 
f 76/55/76 82/63/82 80/60/80 
f 83/65/83 79/61/79 80/60/80 
f 83/65/83 84/66/84 79/61/79 
f 81/62/81 85/67/85 86/68/86 
f 81/62/81 86/68/86 82/63/82 
f 81/64/81 84/66/84 85/69/85 
f 84/66/84 81/64/81 79/61/79 
f 86/68/86 80/60/80 82/63/82 
f 80/60/80 86/68/86 83/65/83 
f 87/71/87 84/66/84 88/70/88 
f 88/70/88 84/66/84 83/65/83 
f 89/72/89 86/68/86 85/67/85 
f 85/67/85 90/73/90 89/72/89 
f 90/74/90 85/69/85 84/66/84 
f 90/74/90 84/66/84 87/71/87 
f 89/72/89 83/65/83 86/68/86 
f 83/65/83 89/72/89 88/70/88 
f 87/75/87 88/76/88 90/73/90 
f 89/72/89 90/73/90 88/76/88 
f 91/46/91 92/45/92 93/43/93 
f 92/45/92 91/46/91 94/44/94 
f 95/47/95 96/50/96 97/49/97 
f 98/48/98 97/49/97 96/50/96 
f 98/52/98 91/46/91 97/51/97 
f 91/46/91 98/52/98 94/44/94 
f 96/50/96 93/43/93 92/45/92 
f 93/43/93 96/50/96 95/47/95 
f 98/52/98 92/53/92 94/44/94 
f 92/53/92 98/52/98 96/54/96 
f 91/46/91 99/55/99 100/56/100 
f 99/55/99 91/46/91 93/43/93 
f 101/57/101 97/49/97 102/58/102 
f 95/47/95 97/49/97 101/57/101 
f 97/51/97 100/56/100 102/59/102 
f 100/56/100 97/51/97 91/46/91 
f 99/55/99 95/47/95 101/57/101 
f 93/43/93 95/47/95 99/55/99 
f 103/61/103 99/55/99 104/60/104 
f 99/55/99 103/61/103 100/56/100 
f 102/58/102 105/62/105 106/63/106 
f 102/58/102 106/63/106 101/57/101 
f 102/59/102 103/61/103 105/64/105 
f 103/61/103 102/59/102 100/56/100 
f 104/60/104 101/57/101 106/63/106 
f 101/57/101 104/60/104 99/55/99 
f 107/65/107 103/61/103 104/60/104 
f 107/65/107 108/66/108 103/61/103 
f 105/62/105 109/67/109 110/68/110 
f 105/62/105 110/68/110 106/63/106 
f 105/64/105 108/66/108 109/69/109 
f 108/66/108 105/64/105 103/61/103 
f 106/63/106 110/68/110 107/65/107 
f 106/63/106 107/65/107 104/60/104 
f 111/70/111 108/66/108 107/65/107 
f 112/71/112 108/66/108 111/70/111 
f 113/72/113 110/68/110 109/67/109 
f 109/67/109 114/73/114 113/72/113 
f 109/69/109 112/71/112 114/74/114 
f 112/71/112 109/69/109 108/66/108 
f 111/70/111 107/65/107 110/68/110 
f 110/68/110 113/72/113 111/70/111 
f 112/75/112 111/76/111 114/73/114 
f 113/72/113 114/73/114 111/76/111 
# 196 faces

