# 3ds Max Wavefront OBJ Exporter v0.97b - (c)2007 guruware
# File Created: 15.10.2016 14:51:40

mtllib chopper2_blades_back.mtl

#
# object Catoon_AH1_fan2
#

v  1.4964 -0.0770 -0.0890
v  -0.0160 0.0104 -0.1185
v  1.5014 0.0080 -0.1165
v  -0.0210 -0.0746 -0.0910
v  -0.0139 0.0898 -0.0778
v  1.5035 0.0875 -0.0758
v  1.5014 0.1149 0.0091
v  -0.0160 0.1173 0.0071
v  -0.0210 0.0767 0.0866
v  1.4964 0.0743 0.0886
v  -0.0260 -0.0083 0.1141
v  1.4914 -0.0106 0.1161
v  1.4893 -0.0901 0.0755
v  -0.0281 -0.0877 0.0734
v  -0.0260 -0.1152 -0.0115
v  1.4914 -0.1176 -0.0095
v  1.1330 5.8943 5.1427
v  1.1330 1.3013 0.1471
v  1.1330 5.3009 5.6883
v  1.1330 0.7079 0.6927
v  1.1479 1.3013 0.1471
v  1.2517 5.3009 5.6883
v  1.2517 0.7079 0.6927
v  1.1479 5.8943 5.1427
v  1.1330 5.2163 5.7661
v  1.1330 0.6233 0.7705
v  1.2550 5.2163 5.7661
v  1.2550 0.6233 0.7705
v  1.1330 -5.6803 -5.3275
v  1.1330 -0.6665 -0.6839
v  1.1330 -5.0666 -5.8502
v  1.1330 -1.2802 -0.1612
v  1.1479 -5.6803 -5.3275
v  1.2517 -0.6665 -0.6839
v  1.1479 -1.2802 -0.1612
v  1.2517 -5.0666 -5.8502
v  1.1330 -4.9791 -5.9247
v  1.1330 -0.5790 -0.7584
v  1.2550 -4.9791 -5.9247
v  1.2550 -0.5790 -0.7584
v  1.0760 0.2803 0.5153
v  1.0760 0.1134 -0.0739
v  1.0760 -0.0897 0.1129
v  1.0760 0.4834 0.3286
v  1.3008 0.2803 0.5153
v  1.3008 -0.0897 0.1129
v  1.3008 0.1134 -0.0739
v  1.3008 0.4834 0.3286
v  1.0760 -0.4560 -0.3115
v  1.0760 -0.1015 0.1047
v  1.0760 -0.2460 -0.4904
v  1.0760 0.1085 -0.0742
v  1.3008 -0.2460 -0.4904
v  1.3008 -0.1015 0.1047
v  1.3008 -0.4560 -0.3115
v  1.3008 0.1085 -0.0742
v  1.1087 0.4772 0.6433
v  1.1087 0.2244 0.1330
v  1.1087 0.1071 0.2409
v  1.1087 0.5945 0.5355
v  1.2680 0.4772 0.6433
v  1.2680 0.1071 0.2409
v  1.2680 0.2244 0.1330
v  1.2680 0.5945 0.5355
v  1.1087 -0.5591 -0.5225
v  1.1087 -0.2046 -0.1063
v  1.1087 -0.4378 -0.6258
v  1.1087 -0.0833 -0.2096
v  1.2680 -0.4378 -0.6258
v  1.2680 -0.2046 -0.1063
v  1.2680 -0.5591 -0.5225
v  1.2680 -0.0833 -0.2096
v  1.1446 -0.6560 -0.6876
v  1.1446 -0.4494 -0.4450
v  1.1446 -0.5853 -0.7478
v  1.1446 -0.3787 -0.5052
v  1.2375 -0.5853 -0.7478
v  1.2375 -0.4494 -0.4450
v  1.2375 -0.6560 -0.6876
v  1.2375 -0.3787 -0.5052
v  1.1446 0.4136 0.5251
v  1.1446 0.6976 0.6968
v  1.1446 0.4819 0.4622
v  1.1446 0.6292 0.7596
v  1.2375 0.4136 0.5251
v  1.2375 0.6976 0.6968
v  1.2375 0.6292 0.7596
v  1.2375 0.4819 0.4622
v  -0.0202 0.1099 0.1047
v  1.1057 0.2650 0.3428
v  1.1057 0.2926 0.3193
v  -0.0202 0.0822 0.1282
v  -0.0108 0.0872 0.0780
v  1.1151 0.2422 0.3161
v  -0.0108 0.0595 0.1015
v  1.1151 0.2699 0.2926
v  1.1168 -0.2588 -0.3282
v  -0.0091 -0.1037 -0.0901
v  -0.0091 -0.0760 -0.1136
v  1.1168 -0.2864 -0.3046
v  1.1262 -0.2360 -0.3015
v  0.0003 -0.0533 -0.0869
v  0.0003 -0.0809 -0.0634
v  1.1262 -0.2637 -0.2779
# 104 vertices

vn 0.0008 -0.3077 -0.9515
vn 0.0019 0.4552 -0.8904
vn 0.0019 0.9515 -0.3077
vn 0.0008 0.8904 0.4553
vn -0.0008 0.3077 0.9515
vn -0.0019 -0.4552 0.8904
vn -0.0019 -0.9515 0.3077
vn -0.0008 -0.8904 -0.4552
vn 0.9981 -0.0464 0.0395
vn -1.0000 0.0000 -0.0000
vn 0.9918 0.0940 -0.0864
vn 0.0000 0.7361 -0.6768
vn 0.0000 -0.7361 0.6768
vn 0.0000 0.6768 0.7361
vn 0.9996 0.0212 -0.0195
vn 0.0000 -0.6768 -0.7361
vn 0.9918 -0.0972 0.0828
vn 0.0000 -0.7613 0.6484
vn 0.0000 0.7613 -0.6484
vn 0.0000 -0.6484 -0.7613
vn 0.9996 -0.0219 0.0187
vn 0.0000 0.6484 0.7613
vn 1.0000 0.0000 -0.0000
vn -0.2428 0.6290 0.7385
vn 0.2428 -0.6290 -0.7385
vn -0.0000 -0.7613 0.6484
vn -0.0000 0.7613 -0.6484
vn 0.9659 0.1678 0.1971
vn -0.2428 -0.6290 -0.7385
vn 0.2428 0.6290 0.7385
vn 0.9659 -0.1678 -0.1970
# 31 vertex normals

vt 0.6649 0.8462 0.0000
vt 0.5685 0.8397 0.0000
vt 0.6653 0.8405 0.0000
vt 0.5682 0.8454 0.0000
vt 0.5687 0.8340 0.0000
vt 0.6655 0.8348 0.0000
vt 0.6654 0.8291 0.0000
vt 0.5686 0.8283 0.0000
vt 0.5684 0.8226 0.0000
vt 0.6651 0.8234 0.0000
vt 0.5681 0.8169 0.0000
vt 0.6649 0.8177 0.0000
vt 0.5677 0.8625 0.0000
vt 0.6644 0.8575 0.0000
vt 0.6645 0.8632 0.0000
vt 0.5676 0.8568 0.0000
vt 0.5678 0.8511 0.0000
vt 0.6646 0.8518 0.0000
vt 0.6693 0.8273 0.0000
vt 0.6750 0.8270 0.0000
vt 0.6687 0.8135 0.0000
vt 0.6744 0.8133 0.0000
vt 0.6788 0.8228 0.0000
vt 0.6786 0.8171 0.0000
vt 0.3237 0.9295 0.0000
vt 0.9788 0.9277 0.0000
vt 0.3238 0.9767 0.0000
vt 0.9789 0.9749 0.0000
vt 0.9788 0.9268 0.0000
vt 0.3236 0.8813 0.0000
vt 0.9787 0.8792 0.0000
vt 0.3237 0.9287 0.0000
vt 0.3239 0.9834 0.0000
vt 0.9790 0.9817 0.0000
vt 0.3239 0.9905 0.0000
vt 0.9790 0.9888 0.0000
vt 0.3169 0.9767 0.0000
vt 0.3167 0.9834 0.0000
vt 0.9786 0.8724 0.0000
vt 0.3235 0.8746 0.0000
vt 0.3228 0.9295 0.0000
vt 0.9797 0.9277 0.0000
vt 0.9790 0.9816 0.0000
vt 0.9859 0.9749 0.0000
vt 0.9861 0.9816 0.0000
vt 0.7549 0.8511 0.0000
vt 0.7391 0.8199 0.0000
vt 0.7549 0.8199 0.0000
vt 0.7391 0.8511 0.0000
vt 0.7105 0.8511 0.0000
vt 0.7106 0.8199 0.0000
vt 0.7263 0.8199 0.0000
vt 0.7263 0.8511 0.0000
vt 0.7677 0.8199 0.0000
vt 0.7677 0.8511 0.0000
vt 0.7391 0.8639 0.0000
vt 0.7549 0.8639 0.0000
vt 0.7517 0.8512 0.0000
vt 0.7517 0.8200 0.0000
vt 0.7675 0.8512 0.0000
vt 0.7675 0.8200 0.0000
vt 0.7232 0.8512 0.0000
vt 0.7389 0.8200 0.0000
vt 0.7389 0.8512 0.0000
vt 0.7232 0.8200 0.0000
vt 0.7103 0.8512 0.0000
vt 0.7103 0.8200 0.0000
vt 0.7389 0.8669 0.0000
vt 0.7517 0.8669 0.0000
vt 0.8827 0.8062 0.0000
vt 0.8616 0.7337 0.0000
vt 0.8827 0.7337 0.0000
vt 0.8616 0.8062 0.0000
vt 0.8194 0.8062 0.0000
vt 0.8194 0.7337 0.0000
vt 0.8405 0.7337 0.0000
vt 0.8405 0.8062 0.0000
vt 0.7983 0.8062 0.0000
vt 0.7983 0.7337 0.0000
vt 0.8405 0.8273 0.0000
vt 0.8194 0.8273 0.0000
vt 0.8197 0.8045 0.0000
vt 0.8197 0.7320 0.0000
vt 0.8408 0.8045 0.0000
vt 0.8408 0.7320 0.0000
vt 0.8619 0.8045 0.0000
vt 0.8830 0.7320 0.0000
vt 0.8830 0.8045 0.0000
vt 0.8619 0.7320 0.0000
vt 0.7986 0.8045 0.0000
vt 0.7986 0.7320 0.0000
vt 0.7986 0.8256 0.0000
vt 0.8197 0.8256 0.0000
vt 0.7150 0.8534 0.0000
vt 0.7150 0.8168 0.0000
vt 0.7257 0.8534 0.0000
vt 0.7257 0.8168 0.0000
vt 0.7364 0.8534 0.0000
vt 0.7470 0.8168 0.0000
vt 0.7470 0.8534 0.0000
vt 0.7364 0.8168 0.0000
vt 0.7577 0.8168 0.0000
vt 0.7577 0.8534 0.0000
vt 0.7364 0.8641 0.0000
vt 0.7470 0.8641 0.0000
vt 0.7470 0.8175 0.0000
vt 0.7363 0.8542 0.0000
vt 0.7363 0.8175 0.0000
vt 0.7470 0.8542 0.0000
vt 0.7149 0.8175 0.0000
vt 0.7256 0.8542 0.0000
vt 0.7149 0.8542 0.0000
vt 0.7256 0.8175 0.0000
vt 0.7577 0.8175 0.0000
vt 0.7577 0.8542 0.0000
vt 0.7363 0.8649 0.0000
vt 0.7470 0.8649 0.0000
vt 0.9321 0.7150 0.0000
vt 0.9375 0.8633 0.0000
vt 0.9329 0.8633 0.0000
vt 0.9367 0.7150 0.0000
vt 0.9275 0.7151 0.0000
vt 0.9236 0.8634 0.0000
vt 0.9228 0.7151 0.0000
vt 0.9283 0.8634 0.0000
vt 0.9414 0.7150 0.0000
vt 0.9422 0.8633 0.0000
vt 0.9330 0.8679 0.0000
vt 0.9284 0.8680 0.0000
vt 0.9539 0.8637 0.0000
vt 0.9482 0.7153 0.0000
vt 0.9528 0.7153 0.0000
vt 0.9493 0.8637 0.0000
vt 0.9586 0.8637 0.0000
vt 0.9575 0.7153 0.0000
vt 0.9621 0.7153 0.0000
vt 0.9632 0.8637 0.0000
vt 0.9435 0.7154 0.0000
vt 0.9447 0.8638 0.0000
vt 0.9539 0.8683 0.0000
vt 0.9585 0.8684 0.0000
# 141 texture coords

g Catoon_AH1_fan2
usemtl dfs222d
s off
f 1/1/1 2/2/1 3/3/1 
f 2/2/1 1/1/1 4/4/1 
f 3/3/2 5/5/2 6/6/2 
f 5/5/2 3/3/2 2/2/2 
f 5/5/3 7/7/3 6/6/3 
f 7/7/3 5/5/3 8/8/3 
f 9/9/4 10/10/4 8/8/4 
f 7/7/4 8/8/4 10/10/4 
f 11/11/5 12/12/5 9/9/5 
f 10/10/5 9/9/5 12/12/5 
f 11/13/6 13/14/6 12/15/6 
f 13/14/6 11/13/6 14/16/6 
f 13/14/7 14/16/7 15/17/7 
f 13/14/7 15/17/7 16/18/7 
f 16/18/8 15/17/8 4/4/8 
f 16/18/8 4/4/8 1/1/8 
f 12/12/9 7/19/9 10/10/9 
f 6/20/9 13/21/9 16/22/9 
f 7/19/9 12/12/9 6/20/9 
f 13/21/9 6/20/9 12/12/9 
f 16/22/9 3/23/9 6/20/9 
f 3/23/9 16/22/9 1/24/9 
f 17/25/10 18/26/10 19/27/10 
f 20/28/10 19/27/10 18/26/10 
f 21/29/11 22/30/11 23/31/11 
f 22/30/11 21/29/11 24/32/11 
f 18/26/12 24/32/12 21/29/12 
f 24/32/12 18/26/12 17/25/12 
f 25/33/13 26/34/13 27/35/13 
f 27/35/13 26/34/13 28/36/13 
f 19/27/14 25/33/14 22/37/14 
f 22/37/14 25/33/14 27/38/14 
f 19/27/10 26/34/10 25/33/10 
f 26/34/10 19/27/10 20/28/10 
f 23/31/15 22/30/15 28/39/15 
f 28/39/15 22/30/15 27/40/15 
f 17/25/14 19/27/14 24/41/14 
f 24/41/14 19/27/14 22/37/14 
f 21/42/16 20/28/16 18/26/16 
f 26/43/16 23/44/16 28/45/16 
f 20/28/16 21/42/16 23/44/16 
f 23/44/16 26/43/16 20/28/16 
f 29/25/10 30/28/10 31/27/10 
f 30/28/10 29/25/10 32/26/10 
f 33/32/17 34/31/17 35/29/17 
f 34/31/17 33/32/17 36/30/17 
f 32/26/18 33/32/18 35/29/18 
f 33/32/18 32/26/18 29/25/18 
f 37/33/19 38/34/19 39/35/19 
f 39/35/19 38/34/19 40/36/19 
f 37/33/20 39/38/20 36/37/20 
f 37/33/20 36/37/20 31/27/20 
f 30/28/10 37/33/10 31/27/10 
f 37/33/10 30/28/10 38/34/10 
f 39/40/21 34/31/21 36/30/21 
f 34/31/21 39/40/21 40/39/21 
f 36/37/20 33/41/20 31/27/20 
f 31/27/20 33/41/20 29/25/20 
f 30/28/22 34/44/22 38/43/22 
f 35/42/22 34/44/22 30/28/22 
f 30/28/22 32/26/22 35/42/22 
f 40/45/22 38/43/22 34/44/22 
f 41/46/10 42/47/10 43/48/10 
f 42/47/10 41/46/10 44/49/10 
f 45/50/23 46/51/23 47/52/23 
f 47/52/23 48/53/23 45/50/23 
f 48/53/12 47/52/12 42/47/12 
f 42/47/12 44/49/12 48/53/12 
f 46/54/13 45/55/13 41/46/13 
f 41/46/13 43/48/13 46/54/13 
f 48/56/14 44/49/14 41/46/14 
f 48/56/14 41/46/14 45/57/14 
f 49/58/10 50/59/10 51/60/10 
f 50/59/10 52/61/10 51/60/10 
f 53/62/23 54/63/23 55/64/23 
f 54/63/23 53/62/23 56/65/23 
f 55/64/18 54/63/18 50/59/18 
f 50/59/18 49/58/18 55/64/18 
f 56/65/19 53/62/19 51/66/19 
f 51/66/19 52/67/19 56/65/19 
f 53/68/20 55/64/20 51/69/20 
f 51/69/20 55/64/20 49/58/20 
f 57/70/10 58/71/10 59/72/10 
f 58/71/10 57/70/10 60/73/10 
f 61/74/23 62/75/23 63/76/23 
f 63/76/23 64/77/23 61/74/23 
f 64/77/12 63/76/12 58/71/12 
f 58/71/12 60/73/12 64/77/12 
f 62/75/13 61/74/13 57/78/13 
f 57/78/13 59/79/13 62/75/13 
f 64/77/14 60/80/14 57/81/14 
f 64/77/14 57/81/14 61/74/14 
f 65/82/10 66/83/10 67/84/10 
f 66/83/10 68/85/10 67/84/10 
f 69/86/23 70/87/23 71/88/23 
f 70/87/23 69/86/23 72/89/23 
f 71/90/18 70/91/18 66/83/18 
f 66/83/18 65/82/18 71/90/18 
f 72/89/19 69/86/19 67/84/19 
f 67/84/19 68/85/19 72/89/19 
f 69/92/20 71/90/20 67/93/20 
f 67/93/20 71/90/20 65/82/20 
f 73/94/10 74/95/10 75/96/10 
f 74/95/10 76/97/10 75/96/10 
f 77/98/23 78/99/23 79/100/23 
f 78/99/23 77/98/23 80/101/23 
f 79/100/18 78/99/18 74/102/18 
f 74/102/18 73/103/18 79/100/18 
f 80/101/19 77/98/19 75/96/19 
f 75/96/19 76/97/19 80/101/19 
f 77/98/20 79/100/20 75/104/20 
f 75/104/20 79/100/20 73/105/20 
f 81/106/10 82/107/10 83/108/10 
f 82/107/10 81/106/10 84/109/10 
f 85/110/23 86/111/23 87/112/23 
f 86/111/23 85/110/23 88/113/23 
f 86/111/12 88/113/12 83/108/12 
f 83/108/12 82/107/12 86/111/12 
f 85/114/13 87/115/13 84/109/13 
f 84/109/13 81/106/13 85/114/13 
f 86/116/14 82/107/14 84/109/14 
f 86/116/14 84/109/14 87/117/14 
f 89/118/24 90/119/24 91/120/24 
f 90/119/24 89/118/24 92/121/24 
f 93/122/25 94/123/25 95/124/25 
f 94/123/25 93/122/25 96/125/25 
f 95/126/26 90/119/26 92/121/26 
f 90/119/26 95/126/26 94/127/26 
f 93/122/27 91/120/27 96/125/27 
f 91/120/27 93/122/27 89/118/27 
f 96/125/28 90/128/28 94/129/28 
f 90/128/28 96/125/28 91/120/28 
f 97/130/29 98/131/29 99/132/29 
f 100/133/29 98/131/29 97/130/29 
f 101/134/30 102/135/30 103/136/30 
f 101/134/30 103/136/30 104/137/30 
f 103/138/26 100/133/26 104/139/26 
f 100/133/26 103/138/26 98/131/26 
f 102/135/19 97/130/19 99/132/19 
f 97/130/19 102/135/19 101/134/19 
f 100/140/31 101/134/31 104/141/31 
f 101/134/31 100/140/31 97/130/31 
# 142 faces

