# 3ds Max Wavefront OBJ Exporter v0.97b - (c)2007 guruware
# File Created: 27.10.2016 18:30:45

mtllib plane5_blades2.mtl

#
# object Catoon_B26_fan
#

v  2.9433 -3.4710 0.6243
v  4.0729 -8.0110 1.1666
v  1.7342 -4.2031 0.7117
v  5.2820 -7.2789 1.0792
v  4.0729 -7.9529 1.6534
v  2.9433 -3.4128 1.1110
v  1.7342 -4.1449 1.1985
v  5.2820 -7.2207 1.5659
v  5.0725 -8.0090 1.4580
v  4.8532 -8.1418 1.4738
v  4.8532 -8.1523 1.3856
v  5.0725 -8.0195 1.3697
v  -5.0725 8.0090 -0.5450
v  -4.8532 8.1523 -0.4726
v  -4.8532 8.1418 -0.5609
v  -5.0725 8.0196 -0.4567
v  -4.0729 8.0110 -0.2537
v  -1.7341 4.2031 0.2012
v  -4.0729 7.9529 -0.7404
v  -1.7341 4.1449 -0.2855
v  -5.2820 7.2207 -0.6530
v  -5.2820 7.2789 -0.1662
v  -0.0479 -0.0313 0.4407
v  -2.9432 3.4128 -0.1981
v  0.0479 0.0267 0.4337
v  -0.0479 -0.0267 0.4792
v  -2.9432 3.4709 0.2887
v  0.0479 0.0313 0.4723
v  -0.4809 -0.9419 -5.3111
v  -0.2765 -0.5300 0.9856
v  -0.5947 0.0147 0.9014
v  -0.2206 -2.0887 -5.2422
v  0.3001 -2.0887 -5.2422
v  0.3601 -0.5300 0.9856
v  0.5604 -0.9419 -5.3111
v  0.6783 0.0147 0.9014
v  0.3001 -0.4963 -5.3800
v  0.3601 0.5595 0.8171
v  -0.2206 -0.4963 -5.3800
v  -0.2765 0.5595 0.8171
v  -8.0110 -4.0729 1.1666
v  -3.4710 -2.9433 0.6243
v  -7.2789 -5.2820 1.0792
v  -4.2031 -1.7342 0.7117
v  -7.2208 -5.2820 1.5659
v  -3.4128 -2.9433 1.1110
v  -7.9529 -4.0729 1.6534
v  -4.1449 -1.7342 1.1985
v  -8.0090 -5.0725 1.4580
v  -8.1418 -4.8532 1.4738
v  -8.1523 -4.8532 1.3856
v  -8.0195 -5.0725 1.3697
v  8.0090 5.0725 -0.5450
v  8.1523 4.8532 -0.4726
v  8.1418 4.8532 -0.5609
v  8.0195 5.0725 -0.4567
v  4.1449 1.7342 -0.2855
v  7.9529 4.0729 -0.7404
v  4.2031 1.7342 0.2012
v  8.0110 4.0729 -0.2537
v  7.2207 5.2820 -0.6530
v  7.2789 5.2820 -0.1662
v  -0.0313 0.0479 0.4407
v  0.0267 -0.0479 0.4337
v  3.4128 2.9433 -0.1981
v  0.0313 -0.0479 0.4723
v  -0.0267 0.0479 0.4792
v  3.4709 2.9433 0.2887
# 68 vertices

vn 0.5751 0.3441 -0.7422
vn -0.4090 -0.7212 -0.5591
vn -0.6453 -0.3949 -0.6539
vn 0.7650 -0.0103 -0.6440
vn -0.4090 -0.5692 0.7132
vn 0.5752 0.5092 0.6402
vn -0.6453 -0.2298 0.7285
vn 0.7650 0.1417 0.6283
vn 0.6670 -0.4968 0.5553
vn 0.1917 -0.7845 0.5897
vn 0.1917 -0.9014 -0.3883
vn 0.6670 -0.6136 -0.4227
vn -0.6670 0.4968 -0.5553
vn -0.1917 0.9014 0.3883
vn -0.1917 0.7845 -0.5897
vn -0.6670 0.6136 0.4227
vn 0.4090 0.7212 0.5591
vn 0.6453 0.3949 0.6539
vn 0.4090 0.5692 -0.7132
vn 0.6453 0.2298 -0.7285
vn -0.7650 -0.1417 -0.6283
vn -0.7650 0.0103 0.6440
vn -0.5836 -0.4399 -0.6826
vn -0.5752 -0.5092 -0.6402
vn 0.5835 0.2668 -0.7670
vn -0.5835 -0.2668 0.7670
vn -0.5751 -0.3441 0.7422
vn 0.5836 0.4399 0.6826
vn -0.9963 0.0832 -0.0199
vn -0.4550 -0.5007 0.7364
vn -0.8042 0.1674 0.5703
vn -0.5439 -0.8177 0.1884
vn 0.5438 -0.8179 0.1881
vn 0.4552 -0.5007 0.7363
vn 0.9963 0.0831 -0.0205
vn 0.8043 0.1674 0.5701
vn 0.4998 0.8531 -0.1502
vn 0.3989 0.7747 0.4906
vn -0.4999 0.8530 -0.1498
vn -0.3988 0.7747 0.4907
vn -0.7212 0.4090 -0.5591
vn 0.3441 -0.5751 -0.7422
vn -0.0103 -0.7650 -0.6440
vn -0.3949 0.6453 -0.6539
vn 0.1417 -0.7650 0.6283
vn 0.5092 -0.5752 0.6402
vn -0.5692 0.4090 0.7132
vn -0.2298 0.6453 0.7285
vn -0.4968 -0.6670 0.5553
vn -0.7845 -0.1917 0.5897
vn -0.9014 -0.1917 -0.3883
vn -0.6136 -0.6670 -0.4227
vn 0.4968 0.6670 -0.5553
vn 0.9014 0.1917 0.3883
vn 0.7845 0.1917 -0.5897
vn 0.6136 0.6670 0.4227
vn 0.2298 -0.6453 -0.7285
vn 0.5692 -0.4090 -0.7132
vn 0.3949 -0.6453 0.6539
vn 0.7212 -0.4090 0.5591
vn -0.1417 0.7650 -0.6283
vn 0.0103 0.7650 0.6440
vn -0.4399 0.5836 -0.6826
vn 0.2668 -0.5835 -0.7670
vn -0.5092 0.5752 -0.6402
vn 0.4399 -0.5836 0.6826
vn -0.2668 0.5835 0.7670
vn -0.3441 0.5751 0.7422
# 68 vertex normals

vt 0.9546 0.3153 0.0000
vt 0.9267 0.2701 0.0000
vt 0.9391 0.3192 0.0000
vt 0.9422 0.2662 0.0000
vt 0.9682 0.5758 0.0000
vt 0.9693 0.4776 0.0000
vt 0.9410 0.4862 0.0000
vt 0.9965 0.5672 0.0000
vt 0.9344 0.2618 0.0000
vt 0.9316 0.2625 0.0000
vt 0.9840 0.4708 0.0000
vt 0.9868 0.4701 0.0000
vt 0.9916 0.4625 0.0000
vt 0.9792 0.4135 0.0000
vt 0.9761 0.4664 0.0000
vt 0.8594 0.2171 0.0000
vt 0.8726 0.2004 0.0000
vt 0.8674 0.2020 0.0000
vt 0.8877 0.2085 0.0000
vt 0.9884 0.5824 0.0000
vt 0.9833 0.5839 0.0000
vt 0.9585 0.3665 0.0000
vt 0.9638 0.4173 0.0000
vt 0.9598 0.3662 0.0000
vt 0.9268 0.3925 0.0000
vt 0.9148 0.2982 0.0000
vt 0.8866 0.3067 0.0000
vt 0.9290 0.3918 0.0000
vt 0.9386 0.5665 0.0000
vt 0.8686 0.5840 0.0000
vt 0.8675 0.5769 0.0000
vt 0.9418 0.5795 0.0000
vt 0.8631 0.5409 0.0000
vt 0.9366 0.5353 0.0000
vt 0.8643 0.5481 0.0000
vt 0.9356 0.5295 0.0000
vt 0.9365 0.5487 0.0000
vt 0.8649 0.5552 0.0000
vt 0.9371 0.5547 0.0000
vt 0.8656 0.5625 0.0000
vt 0.9378 0.5606 0.0000
vt 0.8665 0.5697 0.0000
vt 0.8524 0.5565 0.0000
vt 0.8597 0.5667 0.0000
vt 0.8583 0.5522 0.0000
vt 0.8531 0.5637 0.0000
# 46 texture coords

g Catoon_B26_fan
usemtl f343f3
s off
f 1/1/1 2/2/2 3/3/3 
f 2/2/2 1/1/1 4/4/4 
f 5/5/5 6/6/6 7/7/7 
f 6/6/6 5/5/5 8/8/8 
f 9/9/9 10/10/10 11/10/11 
f 9/9/9 11/10/11 12/9/12 
f 2/2/2 7/3/7 3/3/3 
f 7/3/7 2/2/2 5/2/5 
f 13/11/13 14/12/14 15/12/15 
f 14/12/14 13/11/13 16/11/16 
f 17/13/17 18/14/18 19/13/19 
f 19/13/19 18/14/18 20/14/20 
f 21/15/21 13/11/13 19/13/19 
f 19/13/19 13/11/13 15/12/15 
f 11/10/11 4/4/4 12/9/12 
f 4/4/4 11/10/11 2/2/2 
f 22/16/22 14/17/14 16/18/16 
f 22/16/22 17/19/17 14/17/14 
f 5/5/5 9/20/9 8/8/8 
f 9/20/9 5/5/5 10/21/10 
f 13/11/13 22/15/22 16/11/16 
f 22/15/22 13/11/13 21/15/21 
f 5/2/5 11/10/11 10/10/10 
f 11/10/11 5/2/5 2/2/2 
f 8/4/8 9/9/9 4/4/4 
f 4/4/4 9/9/9 12/9/12 
f 14/12/14 19/13/19 15/12/15 
f 19/13/19 14/12/14 17/13/17 
f 20/14/20 23/22/23 24/23/24 
f 23/22/23 20/14/20 25/24/25 
f 26/25/26 18/26/18 27/27/27 
f 18/26/18 26/25/26 28/28/28 
f 24/23/24 26/22/26 27/23/27 
f 26/22/26 24/23/24 23/22/23 
f 28/24/28 6/1/6 25/24/25 
f 25/24/25 6/1/6 1/1/1 
f 25/24/25 3/3/3 23/22/23 
f 3/3/3 25/24/25 1/1/1 
f 7/7/7 28/28/28 26/25/26 
f 28/28/28 7/7/7 6/6/6 
f 23/22/23 7/3/7 26/22/26 
f 7/3/7 23/22/23 3/3/3 
f 18/14/18 28/24/28 20/14/20 
f 20/14/20 28/24/28 25/24/25 
f 19/13/19 24/23/24 21/15/21 
f 24/23/24 19/13/19 20/14/20 
f 27/27/27 17/19/17 22/16/22 
f 17/19/17 27/27/27 18/26/18 
f 21/15/21 27/23/27 22/15/22 
f 27/23/27 21/15/21 24/23/24 
f 6/1/6 4/4/4 1/1/1 
f 4/4/4 6/1/6 8/4/8 
f 29/29/29 30/30/30 31/31/31 
f 32/32/32 30/30/30 29/29/29 
f 30/33/30 33/34/33 34/35/34 
f 33/34/33 30/33/30 32/36/32 
f 34/35/34 35/37/35 36/38/36 
f 35/37/35 34/35/34 33/34/33 
f 36/38/36 37/39/37 38/40/38 
f 37/39/37 36/38/36 35/37/35 
f 39/41/39 40/42/40 37/39/37 
f 37/39/37 40/42/40 38/40/38 
f 39/41/39 31/31/31 40/42/40 
f 29/29/29 31/31/31 39/41/39 
f 30/43/30 38/40/38 40/44/40 
f 38/40/38 34/45/34 36/38/36 
f 30/43/30 40/44/40 31/46/31 
f 34/45/34 38/40/38 30/43/30 
f 41/2/41 42/1/42 43/4/43 
f 42/1/42 41/2/41 44/3/44 
f 45/8/45 46/6/46 47/5/47 
f 47/5/47 46/6/46 48/7/48 
f 49/9/49 50/10/50 51/10/51 
f 51/10/51 52/9/52 49/9/49 
f 41/2/41 48/3/48 44/3/44 
f 48/3/48 41/2/41 47/2/47 
f 53/11/53 54/12/54 55/12/55 
f 54/12/54 53/11/53 56/11/56 
f 57/14/57 58/13/58 59/14/59 
f 60/13/60 59/14/59 58/13/58 
f 58/13/58 61/15/61 53/11/53 
f 58/13/58 53/11/53 55/12/55 
f 51/10/51 43/4/43 52/9/52 
f 43/4/43 51/10/51 41/2/41 
f 62/16/62 60/19/60 54/17/54 
f 62/16/62 54/17/54 56/18/56 
f 49/20/49 47/5/47 50/21/50 
f 47/5/47 49/20/49 45/8/45 
f 53/11/53 62/15/62 56/11/56 
f 62/15/62 53/11/53 61/15/61 
f 41/2/41 51/10/51 47/2/47 
f 47/2/47 51/10/51 50/10/50 
f 52/9/52 43/4/43 49/9/49 
f 45/4/45 49/9/49 43/4/43 
f 54/12/54 58/13/58 55/12/55 
f 58/13/58 54/12/54 60/13/60 
f 63/22/63 57/14/57 64/24/64 
f 57/14/57 63/22/63 65/23/65 
f 66/28/66 59/26/59 67/25/67 
f 59/26/59 68/27/68 67/25/67 
f 65/23/65 67/22/67 68/23/68 
f 67/22/67 65/23/65 63/22/63 
f 42/1/42 64/24/64 46/1/46 
f 66/24/66 46/1/46 64/24/64 
f 44/3/44 64/24/64 42/1/42 
f 64/24/64 44/3/44 63/22/63 
f 46/6/46 66/28/66 48/7/48 
f 48/7/48 66/28/66 67/25/67 
f 63/22/63 48/3/48 67/22/67 
f 48/3/48 63/22/63 44/3/44 
f 64/24/64 57/14/57 66/24/66 
f 59/14/59 66/24/66 57/14/57 
f 65/23/65 58/13/58 57/14/57 
f 58/13/58 65/23/65 61/15/61 
f 59/26/59 60/19/60 68/27/68 
f 68/27/68 60/19/60 62/16/62 
f 61/15/61 68/23/68 62/15/62 
f 68/23/68 61/15/61 65/23/65 
f 43/4/43 46/1/46 45/4/45 
f 46/1/46 43/4/43 42/1/42 
# 120 faces

