# 3ds Max Wavefront OBJ Exporter v0.97b - (c)2007 guruware
# File Created: 27.10.2016 17:32:56

mtllib plane_blades.mtl

#
# object Cartoon_AN2__fan
#

v  0.3800 -1.2406 0.6269
v  0.6202 -1.1411 0.4022
v  0.6202 -1.1411 0.6269
v  0.3800 -1.2406 0.4022
v  0.9290 0.0125 1.0774
v  0.6574 -0.6433 1.0774
v  0.9290 0.0125 -0.0483
v  0.6574 -0.6433 -0.0483
v  1.1552 0.6310 0.6269
v  1.2547 0.3908 0.6269
v  1.1552 0.6310 0.4022
v  1.2547 0.3908 0.4022
v  0.6574 0.6682 -0.0483
v  0.0016 0.9399 1.0774
v  0.6574 0.6682 1.0774
v  0.0016 0.9399 -0.0483
v  -0.3767 1.2655 0.4022
v  -0.6169 1.1660 0.4022
v  -0.3767 1.2655 0.6269
v  -0.6169 1.1660 0.6269
v  -0.6541 0.6682 1.0774
v  -0.6541 0.6682 -0.0483
v  -0.9258 0.0125 -0.0483
v  -0.9258 0.0125 1.0774
v  -1.2514 -0.3659 0.6269
v  -1.2514 -0.3659 0.4022
v  -1.1520 -0.6061 0.4022
v  -1.1520 -0.6061 0.6269
v  -0.6541 -0.6433 1.0774
v  0.0016 -0.9150 -0.0483
v  0.0016 -0.9150 1.0774
v  -0.6541 -0.6433 -0.0483
v  -0.1981 0.2122 1.4108
v  0.2013 0.2122 1.4108
v  0.0016 0.2949 1.4108
v  -0.1981 -0.1873 1.4108
v  0.2013 -0.1873 1.4108
v  0.0016 -0.2700 1.4108
v  -0.2808 0.0125 1.4108
v  0.2841 0.0125 1.4108
v  0.0016 -0.6689 1.0774
v  0.4835 -0.4694 1.0774
v  0.6830 0.0125 1.0774
v  0.4835 0.4943 1.0774
v  0.0016 0.6939 1.0774
v  -0.4802 0.4943 1.0774
v  -0.6798 0.0125 1.0774
v  -0.4802 -0.4694 1.0774
v  0.5437 -0.6904 0.1189
v  0.1153 -0.8679 0.1189
v  0.5437 -0.6904 0.9101
v  0.1153 -0.8679 0.9101
v  0.8820 0.1262 0.9101
v  0.8820 0.1262 0.1189
v  0.7045 0.5545 0.1189
v  0.7045 0.5545 0.9101
v  -0.1121 0.8928 0.1189
v  -0.1121 0.8928 0.9101
v  -0.5404 0.7153 0.1189
v  -0.5404 0.7153 0.9101
v  -0.8787 -0.1013 0.1189
v  -0.8787 -0.1013 0.9101
v  -0.7012 -0.5296 0.1189
v  -0.7012 -0.5296 0.9101
v  3.0658 0.8284 1.1716
v  1.2169 0.5527 0.4883
v  2.0067 0.7223 1.0882
v  1.2232 0.4996 0.6652
v  6.3449 2.7556 0.9060
v  6.6190 1.9750 0.9796
v  6.7914 2.4751 0.9549
v  4.5992 2.1357 0.6351
v  4.8588 1.3512 1.1134
v  2.8864 1.4147 0.4398
v  -0.8284 3.0658 1.1716
v  -0.5527 1.2169 0.4883
v  -0.7223 2.0067 1.0882
v  -0.4997 1.2232 0.6652
v  -2.1357 4.5992 0.6351
v  -1.9750 6.6190 0.9796
v  -2.7556 6.3449 0.9060
v  -2.4751 6.7914 0.9549
v  -1.4147 2.8864 0.4398
v  -1.3512 4.8588 1.1134
v  -1.2232 -0.4997 0.6652
v  -2.0067 -0.7223 1.0882
v  -1.2169 -0.5527 0.4883
v  -3.0658 -0.8284 1.1716
v  -6.3449 -2.7557 0.9060
v  -4.5992 -2.1357 0.6351
v  -6.6190 -1.9750 0.9796
v  -6.7914 -2.4751 0.9549
v  -2.8864 -1.4147 0.4398
v  -4.8588 -1.3512 1.1134
v  0.8284 -3.0658 1.1716
v  0.5527 -1.2169 0.4883
v  0.7223 -2.0068 1.0882
v  0.4997 -1.2232 0.6652
v  2.7556 -6.3449 0.9060
v  1.9750 -6.6190 0.9796
v  2.4751 -6.7914 0.9549
v  2.1357 -4.5992 0.6351
v  1.3512 -4.8588 1.1134
v  1.4147 -2.8864 0.4398
# 104 vertices

vn 0.3827 -0.9239 -0.0000
vn 0.9239 -0.3827 -0.0000
vn 0.9239 0.3827 -0.0000
vn 0.3827 0.9239 -0.0000
vn -0.3827 0.9239 -0.0000
vn -0.9239 0.3827 -0.0000
vn -0.9239 -0.3826 -0.0000
vn -0.3827 -0.9239 -0.0000
vn 0.0000 0.0000 1.0000
vn 0.0000 -0.0000 1.0000
vn -0.0000 0.0001 1.0000
vn -0.0001 0.0000 1.0000
vn -0.0001 -0.0000 1.0000
vn -0.0000 -0.0001 1.0000
vn 0.4535 -0.4534 0.7673
vn 0.0000 -0.6413 0.7673
vn 0.6413 -0.0000 0.7673
vn 0.4535 0.4534 0.7673
vn 0.0000 0.6413 0.7673
vn -0.4535 0.4534 0.7673
vn -0.6413 -0.0000 0.7673
vn -0.4535 -0.4534 0.7673
vn 0.3827 -0.9239 0.0000
vn 0.9239 0.3827 0.0000
vn -0.3827 0.9239 0.0000
vn -0.9239 -0.3827 -0.0000
vn -0.9239 -0.3827 0.0000
vn 0.2053 -0.4956 -0.8440
vn 0.9859 0.1672 -0.0000
vn 0.2053 -0.4956 0.8440
vn -0.8154 -0.5789 -0.0000
vn 0.5789 -0.8154 -0.0000
vn 0.4956 0.2053 -0.8440
vn -0.1672 0.9859 -0.0000
vn 0.4956 0.2053 0.8440
vn 0.8154 0.5789 -0.0000
vn -0.2053 0.4956 -0.8440
vn -0.9859 -0.1672 -0.0000
vn -0.2053 0.4956 0.8440
vn -0.5789 0.8154 -0.0000
vn -0.4956 -0.2053 -0.8440
vn 0.1672 -0.9859 -0.0000
vn -0.4956 -0.2053 0.8440
vn -0.1554 0.9851 -0.0739
vn -0.1503 0.0403 0.9878
vn -0.1945 0.4629 0.8648
vn -0.2677 0.7188 0.6416
vn -0.9851 -0.1554 -0.0739
vn -0.0403 -0.1503 0.9878
vn -0.4629 -0.1945 0.8648
vn -0.7188 -0.2677 0.6416
vn 0.1554 -0.9851 -0.0739
vn 0.1503 -0.0403 0.9878
vn 0.1945 -0.4629 0.8648
vn 0.2677 -0.7188 0.6416
vn 0.9851 0.1554 -0.0739
vn 0.0403 0.1503 0.9878
vn 0.4629 0.1945 0.8648
vn 0.7188 0.2677 0.6416
# 59 vertex normals

vt 0.8650 0.4228 0.0000
vt 0.8591 0.4281 0.0000
vt 0.8591 0.4228 0.0000
vt 0.8650 0.4281 0.0000
vt 0.5325 0.8829 0.0000
vt 0.5081 0.8785 0.0000
vt 0.5488 0.8415 0.0000
vt 0.5188 0.8349 0.0000
vt 0.8838 0.3890 0.0000
vt 0.8897 0.3890 0.0000
vt 0.8838 0.3943 0.0000
vt 0.8897 0.3943 0.0000
vt 0.5792 0.8490 0.0000
vt 0.5754 0.9010 0.0000
vt 0.5563 0.8874 0.0000
vt 0.6055 0.8677 0.0000
vt 0.8596 0.3889 0.0000
vt 0.8655 0.3889 0.0000
vt 0.8596 0.3942 0.0000
vt 0.8655 0.3942 0.0000
vt 0.5910 0.9190 0.0000
vt 0.6264 0.8915 0.0000
vt 0.6427 0.9191 0.0000
vt 0.6030 0.9395 0.0000
vt 0.8842 0.4283 0.0000
vt 0.8842 0.4230 0.0000
vt 0.8901 0.4230 0.0000
vt 0.8901 0.4283 0.0000
vt 0.6032 0.9643 0.0000
vt 0.6517 0.9794 0.0000
vt 0.6050 0.9902 0.0000
vt 0.6453 0.9500 0.0000
vt 0.5177 0.9325 0.0000
vt 0.5285 0.9207 0.0000
vt 0.5256 0.9289 0.0000
vt 0.5059 0.9217 0.0000
vt 0.5169 0.9098 0.0000
vt 0.5087 0.9136 0.0000
vt 0.5096 0.9296 0.0000
vt 0.5249 0.9129 0.0000
vt 0.4836 0.8905 0.0000
vt 0.4922 0.8990 0.0000
vt 0.5105 0.8892 0.0000
vt 0.5317 0.8909 0.0000
vt 0.5520 0.8967 0.0000
vt 0.5692 0.9083 0.0000
vt 0.5832 0.9240 0.0000
vt 0.5930 0.9424 0.0000
vt 0.5953 0.9635 0.0000
vt 0.5918 0.9843 0.0000
vt 0.5294 0.9110 0.0000
vt 0.5432 0.9158 0.0000
vt 0.5556 0.9242 0.0000
vt 0.5658 0.9354 0.0000
vt 0.5726 0.9481 0.0000
vt 0.5750 0.9609 0.0000
vt 0.5729 0.9711 0.0000
vt 0.4918 0.8455 0.0000
vt 0.5142 0.8420 0.0000
vt 0.4970 0.8514 0.0000
vt 0.5034 0.8729 0.0000
vt 0.4873 0.8831 0.0000
vt 0.5379 0.8777 0.0000
vt 0.5523 0.8493 0.0000
vt 0.5714 0.8530 0.0000
vt 0.5553 0.8801 0.0000
vt 0.6048 0.8766 0.0000
vt 0.5826 0.8989 0.0000
vt 0.6176 0.8912 0.0000
vt 0.5939 0.9121 0.0000
vt 0.6378 0.9263 0.0000
vt 0.6101 0.9415 0.0000
vt 0.6380 0.9458 0.0000
vt 0.6089 0.9594 0.0000
vt 0.8716 0.4386 0.0000
vt 0.8525 0.4386 0.0000
vt 0.8525 0.4122 0.0000
vt 0.8716 0.4122 0.0000
vt 0.8964 0.3784 0.0000
vt 0.8964 0.4049 0.0000
vt 0.8772 0.4049 0.0000
vt 0.8772 0.3784 0.0000
vt 0.8530 0.3784 0.0000
vt 0.8530 0.4048 0.0000
vt 0.8721 0.3784 0.0000
vt 0.8721 0.4048 0.0000
vt 0.8776 0.4124 0.0000
vt 0.8776 0.4388 0.0000
vt 0.8967 0.4124 0.0000
vt 0.8967 0.4388 0.0000
vt 0.7986 0.0034 0.0000
vt 0.7087 0.0392 0.0000
vt 0.7470 0.0088 0.0000
vt 0.7083 0.0308 0.0000
vt 0.9810 0.0470 0.0000
vt 0.9801 0.0066 0.0000
vt 0.9965 0.0265 0.0000
vt 0.8899 0.0498 0.0000
vt 0.8893 0.0032 0.0000
vt 0.7994 0.0499 0.0000
# 100 texture coords

g Cartoon_AN2__fan
usemtl f3433
s off
f 1/1/1 2/2/1 3/3/1 
f 2/2/1 1/1/1 4/4/1 
f 5/5/2 6/6/2 7/7/2 
f 7/7/2 6/6/2 8/8/2 
f 9/9/3 10/10/3 11/11/3 
f 11/11/3 10/10/3 12/12/3 
f 13/13/4 14/14/4 15/15/4 
f 14/14/4 13/13/4 16/16/4 
f 17/17/5 18/18/5 19/19/5 
f 18/18/5 20/20/5 19/19/5 
f 21/21/6 22/22/6 23/23/6 
f 21/21/6 23/23/6 24/24/6 
f 25/25/7 26/26/7 27/27/7 
f 25/25/7 27/27/7 28/28/7 
f 29/29/8 30/30/8 31/31/8 
f 30/30/8 29/29/8 32/32/8 
f 33/33/9 34/34/9 35/35/9 
f 36/36/9 37/37/9 34/34/9 
f 37/37/9 36/36/9 38/38/9 
f 36/36/9 33/33/9 39/39/9 
f 34/34/9 37/37/9 40/40/9 
f 34/34/9 33/33/9 36/36/9 
f 31/41/10 6/6/10 41/42/10 
f 41/42/10 6/6/10 42/43/10 
f 43/44/9 6/6/9 5/5/9 
f 6/6/9 43/44/9 42/43/9 
f 15/15/9 43/44/9 5/5/9 
f 43/44/9 15/15/9 44/45/9 
f 15/15/9 45/46/9 44/45/9 
f 45/46/9 15/15/9 14/14/9 
f 45/46/11 21/21/11 46/47/11 
f 14/14/11 21/21/11 45/46/11 
f 21/21/12 47/48/12 46/47/12 
f 47/48/12 21/21/12 24/24/12 
f 48/49/13 47/48/13 29/29/13 
f 24/24/13 29/29/13 47/48/13 
f 41/50/14 29/29/14 31/31/14 
f 29/29/14 41/50/14 48/49/14 
f 42/43/15 38/38/16 41/42/16 
f 38/38/16 42/43/15 37/37/15 
f 40/51/17 42/43/15 43/44/17 
f 42/43/15 40/51/17 37/37/15 
f 44/45/18 40/51/17 43/44/17 
f 40/51/17 44/45/18 34/52/18 
f 44/45/18 35/53/19 34/52/18 
f 35/53/19 44/45/18 45/46/19 
f 35/53/19 46/47/20 33/54/20 
f 45/46/19 46/47/20 35/53/19 
f 47/48/21 33/54/20 46/47/20 
f 33/54/20 47/48/21 39/55/21 
f 47/48/21 36/56/22 39/55/21 
f 36/56/22 47/48/21 48/49/22 
f 38/57/16 48/49/22 41/50/16 
f 48/49/22 38/57/16 36/56/22 
f 30/58/1 49/59/1 50/60/1 
f 49/59/1 30/58/1 8/8/1 
f 51/61/1 8/8/1 6/6/1 
f 8/8/1 51/61/1 49/59/1 
f 52/62/23 6/6/23 31/41/23 
f 6/6/23 52/62/23 51/61/23 
f 31/41/1 50/60/1 52/62/1 
f 50/60/1 31/41/1 30/58/1 
f 53/63/3 7/7/3 54/64/3 
f 5/5/3 7/7/3 53/63/3 
f 54/64/3 13/13/3 55/65/3 
f 7/7/3 13/13/3 54/64/3 
f 56/66/3 13/13/3 15/15/3 
f 13/13/3 56/66/3 55/65/3 
f 15/15/24 53/63/24 56/66/24 
f 53/63/24 15/15/24 5/5/24 
f 57/67/5 14/14/5 16/16/5 
f 14/14/5 57/67/5 58/68/5 
f 59/69/5 16/16/5 22/22/5 
f 16/16/5 59/69/5 57/67/5 
f 22/22/5 21/21/5 59/69/5 
f 59/69/5 21/21/5 60/70/5 
f 14/14/25 60/70/25 21/21/25 
f 60/70/25 14/14/25 58/68/25 
f 61/71/26 24/24/26 23/23/26 
f 24/24/26 61/71/26 62/72/26 
f 23/23/26 32/32/26 61/71/26 
f 61/71/26 32/32/26 63/73/26 
f 63/73/26 29/29/26 64/74/26 
f 32/32/26 29/29/26 63/73/26 
f 64/74/27 24/24/27 62/72/27 
f 29/29/27 24/24/27 64/74/27 
f 4/4/28 50/75/28 49/76/28 
f 4/4/28 49/76/28 2/2/28 
f 2/2/29 51/77/29 3/3/29 
f 49/76/29 51/77/29 2/2/29 
f 1/1/30 51/77/30 52/78/30 
f 51/77/30 1/1/30 3/3/30 
f 1/1/31 50/75/31 4/4/31 
f 52/78/31 50/75/31 1/1/31 
f 10/10/32 53/79/32 54/80/32 
f 10/10/32 54/80/32 12/12/32 
f 54/80/33 55/81/33 12/12/33 
f 55/81/33 11/11/33 12/12/33 
f 11/11/34 55/81/34 56/82/34 
f 11/11/34 56/82/34 9/9/34 
f 56/82/35 10/10/35 9/9/35 
f 10/10/35 56/82/35 53/79/35 
f 57/83/36 19/19/36 58/84/36 
f 19/19/36 57/83/36 17/17/36 
f 17/17/37 59/85/37 18/18/37 
f 59/85/37 17/17/37 57/83/37 
f 60/86/38 18/18/38 59/85/38 
f 18/18/38 60/86/38 20/20/38 
f 60/86/39 19/19/39 20/20/39 
f 19/19/39 60/86/39 58/84/39 
f 25/25/40 61/87/40 26/26/40 
f 62/88/40 61/87/40 25/25/40 
f 63/89/41 26/26/41 61/87/41 
f 26/26/41 63/89/41 27/27/41 
f 27/27/42 64/90/42 28/28/42 
f 63/89/42 64/90/42 27/27/42 
f 25/25/43 64/90/43 62/88/43 
f 64/90/43 25/25/43 28/28/43 
f 65/91/44 66/92/44 67/93/44 
f 67/93/44 66/92/44 68/94/44 
f 69/95/45 70/96/45 71/97/45 
f 72/98/45 70/96/45 69/95/45 
f 70/96/46 72/98/46 73/99/46 
f 74/100/46 73/99/46 72/98/46 
f 73/99/47 74/100/47 65/91/47 
f 66/92/47 65/91/47 74/100/47 
f 75/91/48 76/92/48 77/93/48 
f 77/93/48 76/92/48 78/94/48 
f 79/98/49 80/96/49 81/95/49 
f 80/96/49 82/97/49 81/95/49 
f 83/100/50 84/99/50 79/98/50 
f 84/99/50 80/96/50 79/98/50 
f 76/92/51 75/91/51 83/100/51 
f 75/91/51 84/99/51 83/100/51 
f 85/94/52 86/93/52 87/92/52 
f 88/91/52 87/92/52 86/93/52 
f 89/95/53 90/98/53 91/96/53 
f 89/95/53 91/96/53 92/97/53 
f 90/98/54 93/100/54 94/99/54 
f 94/99/54 91/96/54 90/98/54 
f 94/99/55 93/100/55 88/91/55 
f 93/100/55 87/92/55 88/91/55 
f 95/91/56 96/92/56 97/93/56 
f 97/93/56 96/92/56 98/94/56 
f 99/95/57 100/96/57 101/97/57 
f 100/96/57 99/95/57 102/98/57 
f 100/96/58 102/98/58 103/99/58 
f 102/98/58 104/100/58 103/99/58 
f 103/99/59 104/100/59 95/91/59 
f 96/92/59 95/91/59 104/100/59 
# 150 faces

