# 3ds Max Wavefront OBJ Exporter v0.97b - (c)2007 guruware
# File Created: 27.10.2016 18:43:36

mtllib plane5_blades.mtl

#
# object Catoon_B26_fan2
#

v  -4.0729 -8.0110 1.1666
v  -2.9433 -3.4710 0.6243
v  -1.7342 -4.2031 0.7117
v  -5.2820 -7.2789 1.0792
v  -4.0729 -7.9529 1.6534
v  -1.7342 -4.1449 1.1985
v  -2.9433 -3.4128 1.1110
v  -5.2820 -7.2207 1.5659
v  -5.0725 -8.0090 1.4580
v  -4.8532 -8.1523 1.3856
v  -4.8532 -8.1418 1.4738
v  -5.0725 -8.0195 1.3697
v  4.8532 8.1523 -0.4726
v  5.0725 8.0090 -0.5450
v  4.8532 8.1418 -0.5609
v  5.0725 8.0196 -0.4567
v  1.7341 4.2031 0.2012
v  4.0729 7.9529 -0.7404
v  1.7341 4.1449 -0.2855
v  4.0729 8.0110 -0.2537
v  5.2820 7.2207 -0.6530
v  5.2820 7.2789 -0.1662
v  0.0479 -0.0313 0.4407
v  2.9432 3.4128 -0.1981
v  -0.0479 0.0267 0.4337
v  0.0479 -0.0267 0.4792
v  2.9432 3.4709 0.2887
v  -0.0479 0.0313 0.4723
v  0.4809 -0.9419 -5.3111
v  0.5947 0.0147 0.9014
v  0.2765 -0.5300 0.9856
v  0.2206 -2.0887 -5.2422
v  -0.3001 -2.0887 -5.2422
v  -0.3601 -0.5300 0.9856
v  -0.5604 -0.9419 -5.3111
v  -0.6783 0.0147 0.9014
v  -0.3001 -0.4963 -5.3800
v  -0.3601 0.5595 0.8171
v  0.2765 0.5595 0.8171
v  0.2206 -0.4963 -5.3800
v  8.0110 -4.0729 1.1666
v  3.4710 -2.9433 0.6243
v  4.2031 -1.7342 0.7117
v  7.2789 -5.2820 1.0792
v  7.9529 -4.0729 1.6534
v  3.4128 -2.9433 1.1110
v  7.2208 -5.2820 1.5659
v  4.1449 -1.7342 1.1985
v  8.1418 -4.8532 1.4738
v  8.0090 -5.0725 1.4580
v  8.1523 -4.8532 1.3856
v  8.0195 -5.0725 1.3697
v  -8.0090 5.0725 -0.5450
v  -8.1523 4.8532 -0.4726
v  -8.0195 5.0725 -0.4567
v  -8.1418 4.8532 -0.5609
v  -7.9529 4.0729 -0.7404
v  -4.2031 1.7342 0.2012
v  -8.0110 4.0729 -0.2537
v  -4.1449 1.7342 -0.2855
v  -7.2207 5.2820 -0.6530
v  -7.2789 5.2820 -0.1662
v  0.0313 0.0479 0.4407
v  -0.0267 -0.0479 0.4337
v  -3.4128 2.9433 -0.1981
v  0.0267 0.0479 0.4792
v  -3.4709 2.9433 0.2887
v  -0.0313 -0.0479 0.4723
# 68 vertices

vn 0.4090 -0.7212 -0.5591
vn -0.5751 0.3441 -0.7422
vn 0.6453 -0.3949 -0.6539
vn -0.7650 -0.0103 -0.6440
vn 0.4090 -0.5692 0.7132
vn 0.6453 -0.2298 0.7285
vn -0.5752 0.5092 0.6402
vn -0.7650 0.1417 0.6283
vn -0.6670 -0.4968 0.5553
vn -0.1917 -0.9014 -0.3883
vn -0.1917 -0.7845 0.5897
vn -0.6670 -0.6136 -0.4227
vn 0.1917 0.9014 0.3883
vn 0.6670 0.4968 -0.5553
vn 0.1917 0.7845 -0.5897
vn 0.6670 0.6136 0.4227
vn -0.6453 0.3949 0.6539
vn -0.4090 0.5692 -0.7132
vn -0.6453 0.2298 -0.7285
vn -0.4090 0.7212 0.5591
vn 0.7650 -0.1417 -0.6283
vn 0.7650 0.0103 0.6440
vn 0.5836 -0.4399 -0.6826
vn 0.5752 -0.5092 -0.6402
vn -0.5835 0.2668 -0.7670
vn 0.5835 -0.2668 0.7670
vn 0.5751 -0.3441 0.7422
vn -0.5836 0.4399 0.6826
vn 0.9963 0.0832 -0.0199
vn 0.8042 0.1674 0.5703
vn 0.4550 -0.5007 0.7364
vn 0.5439 -0.8177 0.1884
vn -0.5438 -0.8179 0.1881
vn -0.4552 -0.5007 0.7363
vn -0.9963 0.0831 -0.0205
vn -0.8043 0.1674 0.5701
vn -0.4998 0.8531 -0.1502
vn -0.3989 0.7747 0.4906
vn 0.3988 0.7747 0.4907
vn 0.4999 0.8530 -0.1498
vn 0.7212 0.4090 -0.5591
vn -0.3441 -0.5751 -0.7422
vn 0.3949 0.6453 -0.6539
vn 0.0103 -0.7650 -0.6440
vn 0.5692 0.4090 0.7132
vn -0.5092 -0.5752 0.6402
vn -0.1417 -0.7650 0.6283
vn 0.2298 0.6453 0.7285
vn 0.7845 -0.1917 0.5897
vn 0.4968 -0.6670 0.5553
vn 0.9014 -0.1917 -0.3883
vn 0.6136 -0.6670 -0.4227
vn -0.4968 0.6670 -0.5553
vn -0.9014 0.1917 0.3883
vn -0.6136 0.6670 0.4227
vn -0.7845 0.1917 -0.5897
vn -0.5692 -0.4090 -0.7132
vn -0.3949 -0.6453 0.6539
vn -0.7212 -0.4090 0.5591
vn -0.2298 -0.6453 -0.7285
vn 0.1417 0.7650 -0.6283
vn -0.0103 0.7650 0.6440
vn 0.4399 0.5836 -0.6826
vn -0.2668 -0.5835 -0.7670
vn 0.5092 0.5752 -0.6402
vn 0.2668 0.5835 0.7670
vn 0.3441 0.5751 0.7422
vn -0.4399 -0.5836 0.6826
# 68 vertex normals

vt 0.9267 0.2701 0.0000
vt 0.9546 0.3153 0.0000
vt 0.9391 0.3192 0.0000
vt 0.9422 0.2662 0.0000
vt 0.9682 0.5758 0.0000
vt 0.9410 0.4862 0.0000
vt 0.9693 0.4776 0.0000
vt 0.9965 0.5672 0.0000
vt 0.9344 0.2618 0.0000
vt 0.9316 0.2625 0.0000
vt 0.9868 0.4701 0.0000
vt 0.9840 0.4708 0.0000
vt 0.9792 0.4135 0.0000
vt 0.9916 0.4625 0.0000
vt 0.9761 0.4664 0.0000
vt 0.8594 0.2171 0.0000
vt 0.8726 0.2004 0.0000
vt 0.8877 0.2085 0.0000
vt 0.8674 0.2020 0.0000
vt 0.9884 0.5824 0.0000
vt 0.9833 0.5839 0.0000
vt 0.9585 0.3665 0.0000
vt 0.9638 0.4173 0.0000
vt 0.9598 0.3662 0.0000
vt 0.9268 0.3925 0.0000
vt 0.8866 0.3067 0.0000
vt 0.9148 0.2982 0.0000
vt 0.9290 0.3918 0.0000
vt 0.9386 0.5665 0.0000
vt 0.8675 0.5769 0.0000
vt 0.8686 0.5840 0.0000
vt 0.9418 0.5795 0.0000
vt 0.8631 0.5409 0.0000
vt 0.9366 0.5353 0.0000
vt 0.9356 0.5295 0.0000
vt 0.8643 0.5481 0.0000
vt 0.9365 0.5487 0.0000
vt 0.8649 0.5552 0.0000
vt 0.9371 0.5547 0.0000
vt 0.8656 0.5625 0.0000
vt 0.8665 0.5697 0.0000
vt 0.9378 0.5606 0.0000
vt 0.8597 0.5667 0.0000
vt 0.8583 0.5522 0.0000
vt 0.8524 0.5565 0.0000
vt 0.8531 0.5637 0.0000
# 46 texture coords

g Catoon_B26_fan2
usemtl f343f3
s off
f 1/1/1 2/2/2 3/3/3 
f 2/2/2 1/1/1 4/4/4 
f 5/5/5 6/6/6 7/7/7 
f 5/5/5 7/7/7 8/8/8 
f 9/9/9 10/10/10 11/10/11 
f 10/10/10 9/9/9 12/9/12 
f 1/1/1 3/3/3 6/3/6 
f 6/3/6 5/1/5 1/1/1 
f 13/11/13 14/12/14 15/11/15 
f 14/12/14 13/11/13 16/12/16 
f 17/13/17 18/14/18 19/13/19 
f 18/14/18 17/13/17 20/14/20 
f 21/15/21 18/14/18 14/12/14 
f 14/12/14 18/14/18 15/11/15 
f 10/10/10 4/4/4 1/1/1 
f 4/4/4 10/10/10 12/9/12 
f 22/16/22 13/17/13 20/18/20 
f 22/16/22 16/19/16 13/17/13 
f 5/5/5 9/20/9 11/21/11 
f 9/20/9 5/5/5 8/8/8 
f 14/12/14 22/15/22 21/15/21 
f 22/15/22 14/12/14 16/12/16 
f 5/1/5 11/10/11 10/10/10 
f 5/1/5 10/10/10 1/1/1 
f 4/4/4 9/9/9 8/4/8 
f 9/9/9 4/4/4 12/9/12 
f 18/14/18 13/11/13 15/11/15 
f 13/11/13 18/14/18 20/14/20 
f 23/22/23 19/13/19 24/23/24 
f 19/13/19 23/22/23 25/24/25 
f 26/25/26 27/26/27 17/27/17 
f 26/25/26 17/27/17 28/28/28 
f 24/23/24 26/22/26 23/22/23 
f 26/22/26 24/23/24 27/23/27 
f 7/2/7 25/24/25 2/2/2 
f 25/24/25 7/2/7 28/24/28 
f 3/3/3 25/24/25 23/22/23 
f 25/24/25 3/3/3 2/2/2 
f 6/6/6 26/25/26 28/28/28 
f 6/6/6 28/28/28 7/7/7 
f 23/22/23 6/3/6 3/3/3 
f 6/3/6 23/22/23 26/22/26 
f 28/24/28 19/13/19 25/24/25 
f 19/13/19 28/24/28 17/13/17 
f 24/23/24 18/14/18 21/15/21 
f 18/14/18 24/23/24 19/13/19 
f 27/26/27 22/16/22 20/18/20 
f 27/26/27 20/18/20 17/27/17 
f 21/15/21 27/23/27 24/23/24 
f 27/23/27 21/15/21 22/15/22 
f 4/4/4 7/2/7 2/2/2 
f 7/2/7 4/4/4 8/4/8 
f 29/29/29 30/30/30 31/31/31 
f 29/29/29 31/31/31 32/32/32 
f 31/33/31 33/34/33 32/35/32 
f 33/34/33 31/33/31 34/36/34 
f 35/37/35 34/36/34 36/38/36 
f 34/36/34 35/37/35 33/34/33 
f 37/39/37 36/38/36 38/40/38 
f 36/38/36 37/39/37 35/37/35 
f 37/39/37 39/41/39 40/42/40 
f 39/41/39 37/39/37 38/40/38 
f 40/42/40 39/41/39 30/30/30 
f 40/42/40 30/30/30 29/29/29 
f 39/43/39 34/44/34 31/45/31 
f 34/44/34 38/40/38 36/38/36 
f 38/40/38 34/44/34 39/43/39 
f 39/43/39 31/45/31 30/46/30 
f 41/1/41 42/2/42 43/3/43 
f 42/2/42 41/1/41 44/4/44 
f 45/5/45 46/7/46 47/8/47 
f 46/7/46 45/5/45 48/6/48 
f 49/10/49 50/9/50 51/10/51 
f 51/10/51 50/9/50 52/9/52 
f 41/1/41 43/3/43 48/3/48 
f 41/1/41 48/3/48 45/1/45 
f 53/12/53 54/11/54 55/12/55 
f 54/11/54 53/12/53 56/11/56 
f 57/14/57 58/13/58 59/14/59 
f 58/13/58 57/14/57 60/13/60 
f 61/15/61 57/14/57 53/12/53 
f 53/12/53 57/14/57 56/11/56 
f 44/4/44 51/10/51 52/9/52 
f 51/10/51 44/4/44 41/1/41 
f 59/18/59 62/16/62 54/17/54 
f 54/17/54 62/16/62 55/19/55 
f 45/5/45 50/20/50 49/21/49 
f 50/20/50 45/5/45 47/8/47 
f 53/12/53 62/15/62 61/15/61 
f 62/15/62 53/12/53 55/12/55 
f 45/1/45 51/10/51 41/1/41 
f 51/10/51 45/1/45 49/10/49 
f 50/9/50 47/4/47 44/4/44 
f 50/9/50 44/4/44 52/9/52 
f 54/11/54 57/14/57 59/14/59 
f 57/14/57 54/11/54 56/11/56 
f 60/13/60 63/22/63 64/24/64 
f 63/22/63 60/13/60 65/23/65 
f 58/27/58 66/25/66 67/26/67 
f 66/25/66 58/27/58 68/28/68 
f 65/23/65 66/22/66 63/22/63 
f 66/22/66 65/23/65 67/23/67 
f 64/24/64 46/2/46 68/24/68 
f 46/2/46 64/24/64 42/2/42 
f 43/3/43 64/24/64 63/22/63 
f 64/24/64 43/3/43 42/2/42 
f 48/6/48 68/28/68 46/7/46 
f 68/28/68 48/6/48 66/25/66 
f 63/22/63 48/3/48 43/3/43 
f 48/3/48 63/22/63 66/22/66 
f 60/13/60 68/24/68 58/13/58 
f 68/24/68 60/13/60 64/24/64 
f 65/23/65 57/14/57 61/15/61 
f 57/14/57 65/23/65 60/13/60 
f 67/26/67 59/18/59 58/27/58 
f 59/18/59 67/26/67 62/16/62 
f 61/15/61 67/23/67 65/23/65 
f 67/23/67 61/15/61 62/15/62 
f 46/2/46 44/4/44 47/4/47 
f 44/4/44 46/2/46 42/2/42 
# 120 faces

