# 3ds Max Wavefront OBJ Exporter v0.97b - (c)2007 guruware
# File Created: 03.11.2016 13:53:50

mtllib player_laser.mtl

#
# object Cylinder001
#

v  0.0000 0.0000 -6.5467
v  0.6397 0.6397 -1.3358
v  0.9047 0.0000 -1.3358
v  0.0000 0.9047 -1.3358
v  -0.6398 0.6397 -1.3358
v  -0.9047 0.0000 -1.3358
v  0.7629 0.7629 -0.3340
v  1.0789 0.0000 -0.3340
v  0.0000 1.0789 -0.3340
v  -0.7629 0.7629 -0.3340
v  -1.0789 0.0000 -0.3340
v  0.6397 0.6398 0.5820
v  0.9047 0.0000 0.5820
v  0.0000 0.9047 0.5820
v  -0.6398 0.6398 0.5820
v  -0.9047 0.0000 0.5820
v  0.0000 0.0000 2.4637
v  0.6397 -0.6397 -1.3358
v  0.0000 -0.9047 -1.3358
v  -0.6398 -0.6397 -1.3358
v  0.7629 -0.7629 -0.3340
v  0.0000 -1.0789 -0.3340
v  -0.7629 -0.7629 -0.3340
v  0.6397 -0.6398 0.5820
v  0.0000 -0.9047 0.5820
v  -0.6398 -0.6398 0.5820
# 26 vertices

vn 0.0000 0.0000 -1.0000
vn 0.6967 0.6967 -0.1712
vn 0.9852 0.0000 -0.1712
vn 0.0000 0.9852 -0.1712
vn -0.6967 0.6967 -0.1712
vn -0.9852 0.0000 -0.1712
vn 0.7071 0.7071 0.0076
vn 1.0000 0.0000 0.0076
vn 0.0000 1.0000 0.0076
vn -0.7071 0.7071 0.0076
vn -1.0000 0.0000 0.0076
vn 0.6737 0.6737 0.3037
vn 0.9528 0.0000 0.3037
vn 0.0000 0.9528 0.3037
vn -0.6737 0.6737 0.3037
vn -0.9528 0.0000 0.3037
vn 0.0000 0.0000 1.0000
vn 0.6967 -0.6967 -0.1712
vn 0.0000 -0.9852 -0.1712
vn -0.6967 -0.6967 -0.1712
vn 0.7071 -0.7071 0.0076
vn 0.0000 -1.0000 0.0076
vn -0.7071 -0.7071 0.0076
vn 0.6737 -0.6737 0.3037
vn 0.0000 -0.9528 0.3037
vn -0.6737 -0.6737 0.3037
# 26 vertex normals

vt 0.2257 0.9545 0.0000
vt 0.2973 0.3981 0.0000
vt 0.3714 0.4055 0.0000
vt 0.2256 0.3962 0.0000
vt 0.1540 0.3982 0.0000
vt 0.0801 0.4055 0.0000
vt 0.2978 0.3023 0.0000
vt 0.3777 0.2949 0.0000
vt 0.2263 0.3046 0.0000
vt 0.1548 0.3019 0.0000
vt 0.0749 0.2938 0.0000
vt 0.2873 0.2204 0.0000
vt 0.3493 0.1986 0.0000
vt 0.2264 0.2270 0.0000
vt 0.1655 0.2205 0.0000
vt 0.1033 0.1988 0.0000
vt 0.2263 0.0338 0.0000
# 17 texture coords

g Cylinder001
usemtl 17___Default
s 1
f 1/1/1 2/2/2 3/3/3 
f 1/1/1 4/4/4 2/2/2 
f 1/1/1 5/5/5 4/4/4 
f 1/1/1 6/6/6 5/5/5 
f 2/2/2 7/7/7 8/8/8 
f 8/8/8 3/3/3 2/2/2 
f 4/4/4 9/9/9 7/7/7 
f 7/7/7 2/2/2 4/4/4 
f 5/5/5 10/10/10 9/9/9 
f 9/9/9 4/4/4 5/5/5 
f 6/6/6 11/11/11 10/10/10 
f 10/10/10 5/5/5 6/6/6 
f 7/7/7 12/12/12 13/13/13 
f 13/13/13 8/8/8 7/7/7 
f 9/9/9 14/14/14 12/12/12 
f 12/12/12 7/7/7 9/9/9 
f 10/10/10 15/15/15 14/14/14 
f 14/14/14 9/9/9 10/10/10 
f 11/11/11 16/16/16 15/15/15 
f 15/15/15 10/10/10 11/11/11 
f 13/13/13 12/12/12 17/17/17 
f 12/12/12 14/14/14 17/17/17 
f 14/14/14 15/15/15 17/17/17 
f 15/15/15 16/16/16 17/17/17 
f 1/1/1 3/3/3 18/2/18 
f 1/1/1 18/2/18 19/4/19 
f 1/1/1 19/4/19 20/5/20 
f 1/1/1 20/5/20 6/6/6 
f 8/8/8 21/7/21 18/2/18 
f 18/2/18 3/3/3 8/8/8 
f 21/7/21 22/9/22 19/4/19 
f 19/4/19 18/2/18 21/7/21 
f 22/9/22 23/10/23 20/5/20 
f 20/5/20 19/4/19 22/9/22 
f 23/10/23 11/11/11 6/6/6 
f 6/6/6 20/5/20 23/10/23 
f 13/13/13 24/12/24 21/7/21 
f 21/7/21 8/8/8 13/13/13 
f 24/12/24 25/14/25 22/9/22 
f 22/9/22 21/7/21 24/12/24 
f 25/14/25 26/15/26 23/10/23 
f 23/10/23 22/9/22 25/14/25 
f 26/15/26 16/16/16 11/11/11 
f 11/11/11 23/10/23 26/15/26 
f 13/13/13 17/17/17 24/12/24 
f 24/12/24 17/17/17 25/14/25 
f 25/14/25 17/17/17 26/15/26 
f 26/15/26 17/17/17 16/16/16 
# 48 faces

