# 3ds Max Wavefront OBJ Exporter v0.97b - (c)2007 guruware
# File Created: 14.11.2016 14:58:26

mtllib powerupGunBox.mtl

#
# object box
#

v  -2.7978 -5.4468 -10.7874
v  -2.7978 -5.4468 -10.3940
v  -4.1253 -5.4468 -10.3940
v  -4.1253 -5.4468 -10.7874
v  -2.7978 4.9124 -10.7874
v  -4.1253 4.9124 -10.7874
v  -4.1253 4.9124 -10.3940
v  -2.7978 4.9124 -10.3940
v  4.2460 -5.4468 -10.7874
v  4.2460 -5.4468 -10.3940
v  2.9185 -5.4468 -10.3940
v  2.9185 -5.4468 -10.7874
v  4.2460 4.9124 -10.7874
v  2.9185 4.9124 -10.7874
v  2.9185 4.9124 -10.3940
v  4.2459 4.9124 -10.3940
v  4.2459 -5.4468 10.3940
v  4.2459 -5.4468 10.7874
v  2.9185 -5.4468 10.7874
v  2.9185 -5.4468 10.3940
v  4.2459 4.9124 10.3940
v  2.9185 4.9124 10.3940
v  2.9185 4.9124 10.7874
v  4.2459 4.9124 10.7874
v  -2.7978 -5.4468 10.3940
v  -2.7978 -5.4468 10.7874
v  -4.1253 -5.4468 10.7874
v  -4.1253 -5.4468 10.3940
v  -2.7978 4.9124 10.3940
v  -4.1253 4.9124 10.3940
v  -4.1253 4.9124 10.7874
v  -2.7978 4.9124 10.7874
v  7.1743 -5.4468 -3.9787
v  6.7809 -5.4468 -3.9787
v  6.7809 -5.4468 -5.3062
v  7.1743 -5.4468 -5.3062
v  7.1743 4.9124 -3.9787
v  7.1743 4.9124 -5.3062
v  6.7809 4.9124 -5.3062
v  6.7809 4.9124 -3.9787
v  7.1743 -5.4468 5.5368
v  6.7809 -5.4468 5.5368
v  6.7809 -5.4468 4.2093
v  7.1743 -5.4468 4.2093
v  7.1743 4.9124 5.5368
v  7.1743 4.9124 4.2093
v  6.7809 4.9124 4.2093
v  6.7809 4.9124 5.5368
v  -6.7809 -5.4468 5.5368
v  -7.1743 -5.4468 5.5368
v  -7.1743 -5.4468 4.2093
v  -6.7809 -5.4468 4.2093
v  -6.7809 4.9124 5.5368
v  -6.7809 4.9124 4.2093
v  -7.1743 4.9124 4.2093
v  -7.1743 4.9124 5.5368
v  -6.7809 -5.4468 -3.9787
v  -7.1743 -5.4468 -3.9787
v  -7.1743 -5.4468 -5.3062
v  -6.7809 -5.4468 -5.3062
v  -6.7809 4.9124 -3.9787
v  -6.7809 4.9124 -5.3062
v  -7.1743 4.9124 -5.3062
v  -7.1743 4.9124 -3.9787
v  6.3815 -5.0186 -8.6774
v  5.4898 -5.0186 -8.6774
v  5.4898 -5.0186 -10.0048
v  6.3815 -5.0186 -10.0048
v  6.3815 5.1216 -8.6774
v  6.3815 5.1216 -10.0048
v  5.4898 5.1216 -10.0048
v  5.4898 5.1216 -8.6774
v  6.3815 -5.0186 10.0349
v  5.4898 -5.0186 10.0349
v  5.4898 -5.0186 8.7074
v  6.3815 -5.0186 8.7074
v  6.3815 5.1216 10.0349
v  6.3815 5.1216 8.7074
v  5.4898 5.1216 8.7074
v  5.4898 5.1216 10.0349
v  -5.4767 -5.0186 10.0349
v  -6.3684 -5.0186 10.0349
v  -6.3684 -5.0186 8.7074
v  -5.4767 -5.0186 8.7074
v  -5.4767 5.1216 10.0349
v  -5.4767 5.1216 8.7074
v  -6.3684 5.1216 8.7074
v  -6.3684 5.1216 10.0349
v  -5.4767 -5.0186 -8.6774
v  -6.3684 -5.0186 -8.6774
v  -6.3684 -5.0186 -10.0048
v  -5.4767 -5.0186 -10.0048
v  -5.4767 5.1216 -8.6774
v  -5.4767 5.1216 -10.0048
v  -6.3684 5.1216 -10.0048
v  -6.3684 5.1216 -8.6774
v  6.8288 -5.5017 10.4448
v  -6.8272 -5.5017 10.4448
v  -6.8272 -5.5017 -10.4108
v  6.8288 -5.5017 -10.4108
v  6.8288 5.0201 10.4448
v  -6.8272 5.0201 10.4448
v  -6.8272 5.0201 -10.4108
v  6.8288 5.0201 -10.4108
v  6.3765 5.0201 10.0331
v  -6.3749 5.0201 10.0331
v  -6.3749 5.0201 -9.9991
v  6.3765 5.0201 -9.9991
v  6.3765 -4.9925 10.0331
v  -6.3749 -4.9925 10.0331
v  -6.3749 -4.9925 -9.9991
v  6.3765 -4.9925 -9.9991
# 112 vertices

vn 0.1440 -0.9173 -0.3714
vn -0.1440 0.9173 0.3714
vn 0.9831 0.0898 0.1596
vn -0.1130 -0.3881 0.9147
vn -0.9831 -0.0898 -0.1596
vn 0.1130 0.3881 -0.9147
vn 0.1440 -0.9172 -0.3714
# 7 vertex normals

vt 0.7435 0.1648 0.0000
vt 0.7474 0.1649 0.0000
vt 0.7462 0.1791 0.0000
vt 0.7423 0.1789 0.0000
vt 0.3401 0.0521 0.0000
vt 0.3397 0.0663 0.0000
vt 0.3358 0.0660 0.0000
vt 0.3362 0.0518 0.0000
vt 0.6164 0.1595 0.0000
vt 0.6248 0.0532 0.0000
vt 0.6288 0.0536 0.0000
vt 0.6205 0.1599 0.0000
vt 0.6161 0.5875 0.0000
vt 0.6243 0.4842 0.0000
vt 0.6384 0.4844 0.0000
vt 0.6302 0.5877 0.0000
vt 0.8028 0.1684 0.0000
vt 0.7988 0.2749 0.0000
vt 0.7947 0.2748 0.0000
vt 0.7987 0.1684 0.0000
vt 0.7030 0.5013 0.0000
vt 0.6992 0.6049 0.0000
vt 0.6852 0.6035 0.0000
vt 0.6890 0.4999 0.0000
vt 0.9101 0.2800 0.0000
vt 0.9140 0.2802 0.0000
vt 0.9128 0.2944 0.0000
vt 0.9089 0.2942 0.0000
vt 0.7990 0.0454 0.0000
vt 0.7985 0.0596 0.0000
vt 0.7946 0.0593 0.0000
vt 0.7951 0.0451 0.0000
vt 0.7948 0.4304 0.0000
vt 0.8031 0.3241 0.0000
vt 0.8072 0.3245 0.0000
vt 0.7988 0.4307 0.0000
vt 0.7975 0.9772 0.0000
vt 0.8057 0.8738 0.0000
vt 0.8198 0.8741 0.0000
vt 0.8116 0.9774 0.0000
vt 0.8622 0.3243 0.0000
vt 0.8582 0.4308 0.0000
vt 0.8541 0.4307 0.0000
vt 0.8581 0.3242 0.0000
vt 0.4848 0.0767 0.0000
vt 0.4810 0.1803 0.0000
vt 0.4670 0.1788 0.0000
vt 0.4708 0.0753 0.0000
vt 0.9530 0.4177 0.0000
vt 0.9569 0.4179 0.0000
vt 0.9557 0.4321 0.0000
vt 0.9518 0.4319 0.0000
vt 0.2139 0.0508 0.0000
vt 0.2134 0.0650 0.0000
vt 0.2095 0.0647 0.0000
vt 0.2100 0.0505 0.0000
vt 0.8542 0.5862 0.0000
vt 0.8625 0.4800 0.0000
vt 0.8665 0.4803 0.0000
vt 0.8582 0.5866 0.0000
vt 0.2786 0.2709 0.0000
vt 0.2868 0.1676 0.0000
vt 0.3009 0.1678 0.0000
vt 0.2927 0.2711 0.0000
vt 0.9695 0.4801 0.0000
vt 0.9655 0.5866 0.0000
vt 0.9615 0.5865 0.0000
vt 0.9655 0.4800 0.0000
vt 0.2965 0.0303 0.0000
vt 0.2927 0.1339 0.0000
vt 0.2787 0.1325 0.0000
vt 0.2824 0.0289 0.0000
vt 0.7958 0.1061 0.0000
vt 0.7997 0.1063 0.0000
vt 0.7985 0.1205 0.0000
vt 0.7946 0.1203 0.0000
vt 0.8583 0.1128 0.0000
vt 0.8579 0.1270 0.0000
vt 0.8540 0.1268 0.0000
vt 0.8544 0.1125 0.0000
vt 0.7948 0.5862 0.0000
vt 0.8031 0.4800 0.0000
vt 0.8072 0.4803 0.0000
vt 0.7988 0.5866 0.0000
vt 0.6851 0.7419 0.0000
vt 0.6933 0.6386 0.0000
vt 0.7075 0.6388 0.0000
vt 0.6993 0.7422 0.0000
vt 0.6934 0.2218 0.0000
vt 0.6894 0.3282 0.0000
vt 0.6854 0.3282 0.0000
vt 0.6894 0.2217 0.0000
vt 0.9372 0.8738 0.0000
vt 0.9334 0.9774 0.0000
vt 0.9193 0.9760 0.0000
vt 0.9231 0.8724 0.0000
vt 0.7469 0.1182 0.0000
vt 0.7427 0.1182 0.0000
vt 0.7423 0.1050 0.0000
vt 0.7465 0.1051 0.0000
vt 0.6310 0.7941 0.0000
vt 0.6319 0.7810 0.0000
vt 0.6361 0.7811 0.0000
vt 0.6352 0.7942 0.0000
vt 0.3358 0.7983 0.0000
vt 0.2321 0.7980 0.0000
vt 0.2318 0.7938 0.0000
vt 0.3355 0.7941 0.0000
vt 0.5650 0.3225 0.0000
vt 0.5610 0.4290 0.0000
vt 0.5473 0.4287 0.0000
vt 0.5513 0.3223 0.0000
vt 0.7423 0.3170 0.0000
vt 0.7461 0.2134 0.0000
vt 0.7502 0.2138 0.0000
vt 0.7464 0.3174 0.0000
vt 0.5693 0.6340 0.0000
vt 0.5610 0.7402 0.0000
vt 0.5473 0.7389 0.0000
vt 0.5557 0.6327 0.0000
vt 0.9564 0.3712 0.0000
vt 0.9522 0.3712 0.0000
vt 0.9518 0.3580 0.0000
vt 0.9560 0.3580 0.0000
vt 0.7976 0.7906 0.0000
vt 0.7985 0.7775 0.0000
vt 0.8027 0.7776 0.0000
vt 0.8018 0.7907 0.0000
vt 0.8584 0.1730 0.0000
vt 0.8582 0.2766 0.0000
vt 0.8540 0.2769 0.0000
vt 0.8542 0.1732 0.0000
vt 0.3537 0.1627 0.0000
vt 0.3497 0.2692 0.0000
vt 0.3360 0.2689 0.0000
vt 0.3400 0.1625 0.0000
vt 0.9073 0.7417 0.0000
vt 0.9111 0.6381 0.0000
vt 0.9153 0.6386 0.0000
vt 0.9115 0.7422 0.0000
vt 0.2318 0.1630 0.0000
vt 0.2235 0.2692 0.0000
vt 0.2098 0.2679 0.0000
vt 0.2182 0.1617 0.0000
vt 0.9135 0.2335 0.0000
vt 0.9093 0.2335 0.0000
vt 0.9089 0.2203 0.0000
vt 0.9131 0.2203 0.0000
vt 0.9721 0.8390 0.0000
vt 0.9730 0.8258 0.0000
vt 0.9772 0.8260 0.0000
vt 0.9763 0.8391 0.0000
vt 0.6897 0.0705 0.0000
vt 0.6894 0.1741 0.0000
vt 0.6853 0.1744 0.0000
vt 0.6855 0.0707 0.0000
vt 0.8726 0.8690 0.0000
vt 0.8686 0.9755 0.0000
vt 0.8549 0.9752 0.0000
vt 0.8589 0.8687 0.0000
vt 0.9089 0.4322 0.0000
vt 0.9127 0.3287 0.0000
vt 0.9168 0.3291 0.0000
vt 0.9130 0.4327 0.0000
vt 0.7507 0.8692 0.0000
vt 0.7423 0.9755 0.0000
vt 0.7287 0.9742 0.0000
vt 0.7370 0.8679 0.0000
vt 0.9652 0.2944 0.0000
vt 0.9610 0.2943 0.0000
vt 0.9606 0.2812 0.0000
vt 0.9648 0.2812 0.0000
vt 0.1694 0.2024 0.0000
vt 0.1703 0.1893 0.0000
vt 0.1746 0.1894 0.0000
vt 0.1736 0.2025 0.0000
vt 0.9546 0.6382 0.0000
vt 0.9544 0.7419 0.0000
vt 0.9502 0.7422 0.0000
vt 0.9505 0.6385 0.0000
vt 0.4202 0.0719 0.0000
vt 0.4162 0.1783 0.0000
vt 0.4025 0.1781 0.0000
vt 0.4065 0.0716 0.0000
vt 0.9720 0.9770 0.0000
vt 0.9758 0.8734 0.0000
vt 0.9800 0.8738 0.0000
vt 0.9762 0.9774 0.0000
vt 0.4245 0.3833 0.0000
vt 0.4162 0.4895 0.0000
vt 0.4025 0.4882 0.0000
vt 0.4109 0.3820 0.0000
vt 0.2101 0.0998 0.0000
vt 0.2196 0.1007 0.0000
vt 0.2190 0.1138 0.0000
vt 0.2095 0.1130 0.0000
vt 0.3358 0.1143 0.0000
vt 0.3367 0.1011 0.0000
vt 0.3462 0.1014 0.0000
vt 0.3453 0.1146 0.0000
vt 0.5470 0.1211 0.0000
vt 0.5550 0.0200 0.0000
vt 0.5645 0.0201 0.0000
vt 0.5564 0.1213 0.0000
vt 0.4891 0.2286 0.0000
vt 0.4852 0.3328 0.0000
vt 0.4715 0.3325 0.0000
vt 0.4754 0.2283 0.0000
vt 0.7423 0.4525 0.0000
vt 0.7460 0.3511 0.0000
vt 0.7554 0.3521 0.0000
vt 0.7517 0.4535 0.0000
vt 0.4936 0.3856 0.0000
vt 0.4854 0.4896 0.0000
vt 0.4717 0.4883 0.0000
vt 0.4799 0.3843 0.0000
vt 0.7290 0.8061 0.0000
vt 0.7385 0.8069 0.0000
vt 0.7379 0.8200 0.0000
vt 0.7284 0.8192 0.0000
vt 0.4670 0.0407 0.0000
vt 0.4679 0.0275 0.0000
vt 0.4775 0.0278 0.0000
vt 0.4766 0.0410 0.0000
vt 0.7422 0.5883 0.0000
vt 0.7502 0.4872 0.0000
vt 0.7597 0.4873 0.0000
vt 0.7517 0.5885 0.0000
vt 0.6341 0.3443 0.0000
vt 0.6302 0.4486 0.0000
vt 0.6165 0.4483 0.0000
vt 0.6204 0.3441 0.0000
vt 0.9133 0.5875 0.0000
vt 0.9170 0.4861 0.0000
vt 0.9264 0.4871 0.0000
vt 0.9227 0.5885 0.0000
vt 0.5691 0.4795 0.0000
vt 0.5610 0.5835 0.0000
vt 0.5473 0.5822 0.0000
vt 0.5555 0.4782 0.0000
vt 0.5865 0.7803 0.0000
vt 0.5961 0.7811 0.0000
vt 0.5955 0.7942 0.0000
vt 0.5859 0.7934 0.0000
vt 0.8546 0.8205 0.0000
vt 0.8555 0.8074 0.0000
vt 0.8651 0.8077 0.0000
vt 0.8642 0.8208 0.0000
vt 0.8069 0.7420 0.0000
vt 0.8150 0.6409 0.0000
vt 0.8244 0.6410 0.0000
vt 0.8164 0.7421 0.0000
vt 0.7602 0.6360 0.0000
vt 0.7563 0.7403 0.0000
vt 0.7425 0.7400 0.0000
vt 0.7464 0.6357 0.0000
vt 0.6852 0.4653 0.0000
vt 0.6889 0.3639 0.0000
vt 0.6984 0.3648 0.0000
vt 0.6946 0.4662 0.0000
vt 0.6383 0.6363 0.0000
vt 0.6302 0.7403 0.0000
vt 0.6165 0.7390 0.0000
vt 0.6247 0.6350 0.0000
vt 0.7982 0.8256 0.0000
vt 0.8077 0.8264 0.0000
vt 0.8071 0.8396 0.0000
vt 0.7976 0.8388 0.0000
vt 0.9194 0.8378 0.0000
vt 0.9203 0.8247 0.0000
vt 0.9299 0.8250 0.0000
vt 0.9290 0.8381 0.0000
vt 0.6162 0.2966 0.0000
vt 0.6242 0.1955 0.0000
vt 0.6337 0.1956 0.0000
vt 0.6256 0.2968 0.0000
vt 0.5649 0.1688 0.0000
vt 0.5610 0.2731 0.0000
vt 0.5473 0.2728 0.0000
vt 0.5512 0.1686 0.0000
vt 0.8593 0.7412 0.0000
vt 0.8630 0.6398 0.0000
vt 0.8724 0.6407 0.0000
vt 0.8687 0.7421 0.0000
vt 0.4244 0.2288 0.0000
vt 0.4162 0.3328 0.0000
vt 0.4025 0.3315 0.0000
vt 0.4107 0.2275 0.0000
vt 0.0296 0.7590 0.0000
vt 0.1754 0.7713 0.0000
vt 0.1658 0.9780 0.0000
vt 0.0200 0.9656 0.0000
vt 0.2089 0.3162 0.0000
vt 0.3141 0.3206 0.0000
vt 0.3174 0.4659 0.0000
vt 0.2122 0.4615 0.0000
vt 0.0267 0.2401 0.0000
vt 0.1349 0.2441 0.0000
vt 0.1304 0.4595 0.0000
vt 0.0222 0.4554 0.0000
vt 0.5889 0.8324 0.0000
vt 0.6941 0.8282 0.0000
vt 0.6905 0.9735 0.0000
vt 0.5853 0.9777 0.0000
vt 0.0428 0.4997 0.0000
vt 0.1507 0.5082 0.0000
vt 0.1303 0.7226 0.0000
vt 0.0224 0.7141 0.0000
vt 0.2087 0.7711 0.0000
vt 0.3550 0.7645 0.0000
vt 0.3501 0.7688 0.0000
vt 0.2136 0.7750 0.0000
vt 0.2102 0.9779 0.0000
vt 0.2150 0.9736 0.0000
vt 0.3564 0.9713 0.0000
vt 0.3516 0.9675 0.0000
vt 0.2323 0.9487 0.0000
vt 0.2357 0.8130 0.0000
vt 0.3358 0.8090 0.0000
vt 0.3324 0.9447 0.0000
vt 0.2110 0.7084 0.0000
vt 0.2306 0.5025 0.0000
vt 0.3333 0.5105 0.0000
vt 0.3137 0.7165 0.0000
vt 0.1203 0.0677 0.0000
vt 0.1234 0.2033 0.0000
vt 0.0233 0.1992 0.0000
vt 0.0202 0.0635 0.0000
vt 0.5108 0.5322 0.0000
vt 0.5065 0.7390 0.0000
vt 0.4036 0.7352 0.0000
vt 0.4079 0.5283 0.0000
vt 0.4014 0.9736 0.0000
vt 0.4152 0.7754 0.0000
vt 0.5518 0.7797 0.0000
vt 0.5380 0.9779 0.0000
# 336 texture coords

g box
usemtl wire_255255255
s off
f 1/1/1 2/2/1 3/3/1 
f 3/3/1 4/4/1 1/1/1 
f 5/5/2 6/6/2 7/7/2 
f 7/7/2 8/8/2 5/5/2 
f 1/9/3 5/10/3 8/11/3 
f 8/11/3 2/12/3 1/9/3 
f 2/13/4 8/14/4 7/15/4 
f 7/15/4 3/16/4 2/13/4 
f 3/17/5 7/18/5 6/19/5 
f 6/19/5 4/20/5 3/17/5 
f 5/21/6 1/22/6 4/23/6 
f 4/23/6 6/24/6 5/21/6 
f 9/25/1 10/26/1 11/27/1 
f 11/27/1 12/28/1 9/25/1 
f 13/29/2 14/30/2 15/31/2 
f 15/31/2 16/32/2 13/29/2 
f 9/33/3 13/34/3 16/35/3 
f 16/35/3 10/36/3 9/33/3 
f 10/37/4 16/38/4 15/39/4 
f 15/39/4 11/40/4 10/37/4 
f 11/41/5 15/42/5 14/43/5 
f 14/43/5 12/44/5 11/41/5 
f 13/45/6 9/46/6 12/47/6 
f 12/47/6 14/48/6 13/45/6 
f 17/49/1 18/50/1 19/51/1 
f 19/51/1 20/52/1 17/49/1 
f 21/53/2 22/54/2 23/55/2 
f 23/55/2 24/56/2 21/53/2 
f 17/57/3 21/58/3 24/59/3 
f 24/59/3 18/60/3 17/57/3 
f 18/61/4 24/62/4 23/63/4 
f 23/63/4 19/64/4 18/61/4 
f 19/65/5 23/66/5 22/67/5 
f 22/67/5 20/68/5 19/65/5 
f 21/69/6 17/70/6 20/71/6 
f 20/71/6 22/72/6 21/69/6 
f 25/73/7 26/74/7 27/75/7 
f 27/75/1 28/76/1 25/73/1 
f 29/77/2 30/78/2 31/79/2 
f 31/79/2 32/80/2 29/77/2 
f 25/81/3 29/82/3 32/83/3 
f 32/83/3 26/84/3 25/81/3 
f 26/85/4 32/86/4 31/87/4 
f 31/87/4 27/88/4 26/85/4 
f 27/89/5 31/90/5 30/91/5 
f 30/91/5 28/92/5 27/89/5 
f 29/93/6 25/94/6 28/95/6 
f 28/95/6 30/96/6 29/93/6 
f 33/97/1 34/98/1 35/99/1 
f 35/99/1 36/100/1 33/97/1 
f 37/101/2 38/102/2 39/103/2 
f 39/103/2 40/104/2 37/101/2 
f 33/105/4 37/106/4 40/107/4 
f 40/107/4 34/108/4 33/105/4 
f 34/109/5 40/110/5 39/111/5 
f 39/111/5 35/112/5 34/109/5 
f 35/113/6 39/114/6 38/115/6 
f 38/115/6 36/116/6 35/113/6 
f 37/117/3 33/118/3 36/119/3 
f 36/119/3 38/120/3 37/117/3 
f 41/121/1 42/122/1 43/123/1 
f 43/123/1 44/124/1 41/121/1 
f 45/125/2 46/126/2 47/127/2 
f 47/127/2 48/128/2 45/125/2 
f 41/129/4 45/130/4 48/131/4 
f 48/131/4 42/132/4 41/129/4 
f 42/133/5 48/134/5 47/135/5 
f 47/135/5 43/136/5 42/133/5 
f 43/137/6 47/138/6 46/139/6 
f 46/139/6 44/140/6 43/137/6 
f 45/141/3 41/142/3 44/143/3 
f 44/143/3 46/144/3 45/141/3 
f 49/145/1 50/146/1 51/147/1 
f 51/147/1 52/148/1 49/145/1 
f 53/149/2 54/150/2 55/151/2 
f 55/151/2 56/152/2 53/149/2 
f 49/153/4 53/154/4 56/155/4 
f 56/155/4 50/156/4 49/153/4 
f 50/157/5 56/158/5 55/159/5 
f 55/159/5 51/160/5 50/157/5 
f 51/161/6 55/162/6 54/163/6 
f 54/163/6 52/164/6 51/161/6 
f 53/165/3 49/166/3 52/167/3 
f 52/167/3 54/168/3 53/165/3 
f 57/169/1 58/170/1 59/171/1 
f 59/171/1 60/172/1 57/169/1 
f 61/173/2 62/174/2 63/175/2 
f 63/175/2 64/176/2 61/173/2 
f 57/177/4 61/178/4 64/179/4 
f 64/179/4 58/180/4 57/177/4 
f 58/181/5 64/182/5 63/183/5 
f 63/183/5 59/184/5 58/181/5 
f 59/185/6 63/186/6 62/187/6 
f 62/187/6 60/188/6 59/185/6 
f 61/189/3 57/190/3 60/191/3 
f 60/191/3 62/192/3 61/189/3 
f 65/193/1 66/194/1 67/195/1 
f 67/195/1 68/196/1 65/193/1 
f 69/197/2 70/198/2 71/199/2 
f 71/199/2 72/200/2 69/197/2 
f 65/201/4 69/202/4 72/203/4 
f 72/203/4 66/204/4 65/201/4 
f 66/205/5 72/206/5 71/207/5 
f 71/207/5 67/208/5 66/205/5 
f 67/209/6 71/210/6 70/211/6 
f 70/211/6 68/212/6 67/209/6 
f 69/213/3 65/214/3 68/215/3 
f 68/215/3 70/216/3 69/213/3 
f 73/217/1 74/218/1 75/219/1 
f 75/219/1 76/220/1 73/217/1 
f 77/221/2 78/222/2 79/223/2 
f 79/223/2 80/224/2 77/221/2 
f 73/225/4 77/226/4 80/227/4 
f 80/227/4 74/228/4 73/225/4 
f 74/229/5 80/230/5 79/231/5 
f 79/231/5 75/232/5 74/229/5 
f 75/233/6 79/234/6 78/235/6 
f 78/235/6 76/236/6 75/233/6 
f 77/237/3 73/238/3 76/239/3 
f 76/239/3 78/240/3 77/237/3 
f 81/241/1 82/242/1 83/243/1 
f 83/243/1 84/244/1 81/241/1 
f 85/245/2 86/246/2 87/247/2 
f 87/247/2 88/248/2 85/245/2 
f 81/249/4 85/250/4 88/251/4 
f 88/251/4 82/252/4 81/249/4 
f 82/253/5 88/254/5 87/255/5 
f 87/255/5 83/256/5 82/253/5 
f 83/257/6 87/258/6 86/259/6 
f 86/259/6 84/260/6 83/257/6 
f 85/261/3 81/262/3 84/263/3 
f 84/263/3 86/264/3 85/261/3 
f 89/265/1 90/266/1 91/267/1 
f 91/267/1 92/268/1 89/265/1 
f 93/269/2 94/270/2 95/271/2 
f 95/271/2 96/272/2 93/269/2 
f 89/273/4 93/274/4 96/275/4 
f 96/275/4 90/276/4 89/273/4 
f 90/277/5 96/278/5 95/279/5 
f 95/279/5 91/280/5 90/277/5 
f 91/281/6 95/282/6 94/283/6 
f 94/283/6 92/284/6 91/281/6 
f 93/285/3 89/286/3 92/287/3 
f 92/287/3 94/288/3 93/285/3 
f 97/289/1 98/290/1 99/291/1 
f 99/291/1 100/292/1 97/289/1 
f 97/293/4 101/294/4 102/295/4 
f 102/295/4 98/296/4 97/293/4 
f 98/297/5 102/298/5 103/299/5 
f 103/299/5 99/300/5 98/297/5 
f 99/301/6 103/302/6 104/303/6 
f 104/303/6 100/304/6 99/301/6 
f 101/305/3 97/306/3 100/307/3 
f 100/307/3 104/308/3 101/305/3 
f 102/309/2 101/310/2 105/311/2 
f 105/311/2 106/312/2 102/309/2 
f 103/313/2 102/309/2 106/312/2 
f 106/312/2 107/314/2 103/313/2 
f 104/315/2 103/313/2 107/314/2 
f 107/314/2 108/316/2 104/315/2 
f 101/310/2 104/315/2 108/316/2 
f 108/316/2 105/311/2 101/310/2 
f 106/317/6 105/318/6 109/319/6 
f 109/319/6 110/320/6 106/317/6 
f 107/321/3 106/322/3 110/323/3 
f 110/323/3 111/324/3 107/321/3 
f 108/325/4 107/326/4 111/327/4 
f 111/327/4 112/328/4 108/325/4 
f 105/329/5 108/330/5 112/331/5 
f 112/331/5 109/332/5 105/329/5 
f 109/333/2 112/334/2 111/335/2 
f 111/335/2 110/336/2 109/333/2 
# 172 faces

