# 3ds Max Wavefront OBJ Exporter v0.97b - (c)2007 guruware
# File Created: 21.10.2016 13:08:12

mtllib pumpkin1.mtl

#
# object pumpkin1
#

v  1.3247 -6.7189 4.6934
v  -2.3096 -6.6809 4.0576
v  1.2274 -7.2319 1.7174
v  -3.4726 -6.6955 2.8288
v  -1.7431 -7.2302 0.8597
v  1.1601 -6.6454 -0.0501
v  -1.8378 -7.2302 -0.6722
v  1.0960 -7.1682 -2.0206
v  -1.0025 -5.0452 8.2043
v  -3.9694 -5.0721 7.0693
v  -6.4383 -5.0984 5.0188
v  -8.2112 -5.1065 2.1142
v  -4.9327 -6.7015 1.2385
v  -8.1292 -5.1089 -1.0901
v  -4.5120 -6.7016 -0.6314
v  -7.4811 -5.0977 -4.4731
v  -4.2754 -6.6951 -2.5828
v  -5.0491 -5.0768 -6.4056
v  -2.7289 -6.6831 -3.5475
v  -2.1190 -5.0454 -8.7750
v  0.9853 -6.5599 -5.1593
v  -8.1141 -2.2473 6.2458
v  -10.2304 -2.2582 2.6921
v  -10.1697 -2.2602 -1.3458
v  -9.2913 -2.2465 -5.5303
v  -6.3636 -2.2206 -8.0047
v  -2.6995 -2.1823 -10.4029
v  -8.2170 2.0072 6.4434
v  -10.4251 1.9956 2.7396
v  -10.3661 1.9935 -1.3633
v  -9.4697 2.0075 -5.6100
v  -6.5034 2.0338 -8.1266
v  -2.7789 2.0726 -10.5537
v  -1.0209 2.0761 10.9055
v  -1.5960 4.6057 9.2860
v  -4.3323 4.8818 8.3275
v  -5.1918 2.0382 9.2554
v  -7.6852 4.2170 5.8864
v  -0.9646 7.1157 7.0293
v  -3.5164 7.0926 6.0583
v  -6.0935 6.7354 4.6880
v  -7.7717 6.7281 1.9626
v  -9.6997 4.2069 2.5252
v  -7.6838 6.7256 -1.0117
v  -9.6327 4.2048 -1.2655
v  -7.0993 6.7360 -4.1736
v  -8.8225 4.2178 -5.2122
v  -4.8041 6.7555 -5.9566
v  -6.0419 4.2422 -7.5259
v  -2.1323 6.7842 -7.8810
v  -2.6085 4.2782 -9.8140
v  -1.2824 8.2994 3.4717
v  -3.5293 8.4706 1.6210
v  -3.8086 8.4692 -1.4002
v  -1.6617 8.7970 -4.0026
v  1.9982 10.0008 -0.9127
v  1.1781 10.2452 -1.6707
v  0.7898 10.0749 -1.1315
v  1.1557 8.2858 3.8101
v  1.0745 7.5759 1.2903
v  -0.0710 7.6138 0.8978
v  -0.5589 7.6098 -0.1371
v  -0.0840 7.6115 -1.6506
v  0.9633 7.8201 -1.9810
v  0.2697 8.4842 -0.3855
v  0.6540 8.5493 -1.1635
v  2.0386 9.8822 0.2079
v  0.9539 9.8740 -0.2795
v  -6.2738 0.2556 8.5609
v  -3.4834 -4.2245 8.1774
v  1.4655 -4.1334 9.5429
v  -1.5624 -2.4192 10.3533
v  -0.7823 0.0837 10.8958
v  1.4944 -2.1764 10.8920
v  -3.6148 -1.7662 9.5187
v  1.3972 4.3275 9.8486
v  1.4627 2.0992 11.1253
v  1.2927 7.0088 7.5796
v  1.1598 8.2479 4.1139
v  1.4402 -5.1627 8.5448
v  0.8417 -5.3585 -8.8010
v  0.7538 -2.5316 -10.5586
v  0.7065 2.1055 -10.6726
v  0.7168 4.4663 -9.7480
v  0.7678 6.9321 -7.6329
v  0.8816 8.4112 -4.7074
v  0.5169 8.4095 0.3296
v  1.3621 8.3982 0.6631
v  -0.6124 0.6471 9.5345
v  -3.4450 -1.2027 8.1575
v  -3.3135 -3.6611 6.8161
v  -1.3925 -1.8557 8.9920
v  -6.1039 0.8191 7.1997
v  1.4338 -1.2254 9.4145
v  1.4008 -3.6287 7.8306
v  -1.7860 2.0702 8.9268
v  -4.7745 2.0429 7.9769
v  -4.2536 4.1609 7.0058
v  1.2916 8.5678 -1.4531
v  4.9182 -6.6134 3.8046
v  3.6562 -7.1753 0.5681
v  6.0035 -6.5981 2.5279
v  4.1175 -7.1745 -0.8807
v  6.7445 -4.9720 6.6943
v  3.8643 -4.9997 8.0340
v  9.0751 -4.9446 4.5066
v  7.3109 -6.5911 0.8249
v  10.6026 -4.9347 1.4707
v  6.6746 -6.5900 -1.0497
v  10.2109 -4.9304 -1.7587
v  6.5793 -6.5953 -3.0719
v  9.6049 -4.9396 -5.1803
v  4.9481 -6.6066 -3.9024
v  7.0228 -4.9593 -6.9144
v  3.8290 -4.9899 -8.9515
v  12.6038 -2.0488 1.9078
v  10.7791 -2.0619 5.6153
v  12.1750 -2.0444 -2.1547
v  11.2832 -2.0558 -6.3596
v  8.1687 -2.0800 -8.5996
v  4.2408 -2.1175 -10.6142
v  12.6287 2.2078 1.9443
v  10.7229 2.1939 5.8080
v  12.2903 2.2123 -2.1830
v  11.3762 2.2007 -6.4489
v  8.2203 2.1761 -8.7282
v  4.2300 2.1381 -10.7674
v  3.9386 2.1224 10.7319
v  7.0088 4.9877 7.9305
v  4.3518 4.6612 9.0778
v  7.9839 2.1613 8.7942
v  10.2056 4.3930 5.2910
v  5.9951 7.1814 5.7253
v  3.5174 7.1576 6.8724
v  8.4873 6.8805 4.2085
v  11.9422 4.4051 1.7827
v  9.9329 6.8894 1.3579
v  11.5244 4.4095 -2.0327
v  9.5513 6.8937 -1.6417
v  10.7174 4.3988 -6.0053
v  9.0243 6.8851 -4.8471
v  7.7607 4.3759 -8.0953
v  6.5890 6.8667 -6.4417
v  4.0706 4.3406 -10.0161
v  3.6840 6.8386 -8.0529
v  3.5635 8.3447 3.3021
v  5.6562 8.5613 1.3454
v  5.7910 8.5645 -1.8720
v  3.5917 8.8509 -4.2411
v  3.1868 10.0973 -1.2154
v  2.7268 10.2597 -1.7249
v  2.1750 7.6347 0.8192
v  2.5894 7.6393 -0.2473
v  1.8595 7.6283 -1.7133
v  1.9204 8.5612 -1.2078
v  2.3714 8.5038 -0.4591
v  3.0864 9.8939 -0.3541
v  9.0478 0.3988 8.0246
v  6.3215 -4.1329 7.8342
v  4.5240 -2.3623 10.1402
v  3.7371 0.1259 10.7376
v  6.5005 -1.6717 9.1646
v  2.1763 8.4250 0.2715
v  3.4620 0.6852 9.3919
v  4.2488 -1.8030 8.7946
v  6.0464 -3.5736 6.4885
v  6.2254 -1.1124 7.8190
v  8.7727 0.9581 6.6789
v  7.4783 2.1574 7.5480
v  4.5635 2.1295 8.7045
v  6.8512 4.2646 6.6170
v  1.9638 10.0853 -2.1045
# 172 vertices

vn 0.0191 -0.9559 0.2930
vn -0.1413 -0.9497 0.2795
vn 0.0062 -0.9996 -0.0271
vn -0.2095 -0.9532 0.2180
vn -0.0377 -0.9989 0.0281
vn 0.0010 -0.9996 -0.0277
vn -0.0353 -0.9987 -0.0381
vn 0.0072 -0.9998 -0.0162
vn -0.1540 -0.7999 0.5800
vn -0.3518 -0.7480 0.5628
vn -0.4805 -0.7411 0.4689
vn -0.6270 -0.7608 0.1677
vn -0.3092 -0.9471 0.0860
vn -0.6399 -0.7648 -0.0757
vn -0.2974 -0.9540 -0.0384
vn -0.5523 -0.7617 -0.3387
vn -0.2530 -0.9523 -0.1706
vn -0.3670 -0.7761 -0.5128
vn -0.1346 -0.9582 -0.2524
vn -0.2382 -0.7456 -0.6224
vn -0.0038 -0.9626 -0.2710
vn -0.7045 -0.3466 0.6193
vn -0.9144 -0.3218 0.2457
vn -0.9411 -0.3215 -0.1049
vn -0.8121 -0.3206 -0.4875
vn -0.5718 -0.3109 -0.7592
vn -0.3081 -0.2818 -0.9087
vn -0.7733 0.1668 0.6116
vn -0.9568 0.1374 0.2563
vn -0.9848 0.1345 -0.1096
vn -0.8507 0.1395 -0.5068
vn -0.5930 0.1388 -0.7932
vn -0.2971 0.1503 -0.9430
vn -0.2017 0.1918 0.9605
vn -0.1767 0.5905 0.7875
vn -0.4153 0.5954 0.6878
vn -0.5393 0.1098 0.8349
vn -0.6717 0.4879 0.5576
vn -0.1257 0.8356 0.5348
vn -0.2782 0.8325 0.4790
vn -0.4674 0.7846 0.4073
vn -0.6098 0.7760 0.1613
vn -0.8523 0.4712 0.2272
vn -0.6225 0.7804 -0.0579
vn -0.8806 0.4639 -0.0964
vn -0.5572 0.7678 -0.3163
vn -0.7564 0.4742 -0.4505
vn -0.4113 0.7675 -0.4918
vn -0.5314 0.4679 -0.7062
vn -0.1967 0.7555 -0.6249
vn -0.2618 0.4816 -0.8364
vn -0.0287 0.9947 0.0986
vn -0.1144 0.9909 0.0714
vn -0.1450 0.9889 -0.0322
vn -0.0430 0.9932 -0.1079
vn -0.0012 0.9742 0.2255
vn -0.0015 0.9734 0.2292
vn 0.1114 0.9747 0.1937
vn 0.0112 0.9644 0.2644
vn -0.0070 0.9983 0.0583
vn -0.0177 0.9719 -0.2346
vn 0.1667 0.9723 -0.1636
vn 0.2335 0.9722 -0.0181
vn 0.1184 0.9422 0.3133
vn 0.0084 0.9340 0.3571
vn -0.5853 0.6727 -0.4527
vn -0.7066 0.7051 0.0594
vn -0.8354 0.5497 0.0046
vn -0.6803 0.3807 -0.6264
vn -0.0056 0.9944 0.1055
vn -0.0145 0.9847 0.1734
vn -0.6047 -0.1097 0.7889
vn -0.4080 -0.6090 0.6801
vn 0.0315 -0.6757 0.7365
vn -0.1923 -0.6457 0.7390
vn -0.1885 -0.0274 0.9817
vn 0.0352 -0.0381 0.9987
vn -0.3860 -0.0861 0.9185
vn 0.0227 0.5819 0.8130
vn 0.0315 0.2345 0.9716
vn 0.0126 0.8112 0.5846
vn 0.0022 0.9477 0.3191
vn 0.0272 -0.8216 0.5694
vn -0.0115 -0.7935 -0.6084
vn -0.0263 -0.2983 -0.9541
vn -0.0315 0.1592 -0.9867
vn -0.0306 0.5001 -0.8654
vn -0.0274 0.7856 -0.6181
vn -0.0145 0.9830 -0.1830
vn -0.9404 0.1982 -0.2763
vn -0.5419 0.6118 0.5762
vn -0.6863 0.4475 0.5734
vn 0.0255 0.4964 0.8677
vn 0.1574 0.2402 0.9579
vn -0.1990 -0.3516 0.9147
vn -0.5039 -0.3421 0.7931
vn -0.5025 -0.3405 0.7947
vn -0.2745 -0.3283 0.9038
vn -0.5714 -0.4164 0.7072
vn 0.0356 -0.3908 0.9198
vn 0.0357 -0.3908 0.9198
vn 0.5621 0.7751 0.2886
vn -0.6451 -0.6635 -0.3788
vn 0.6094 -0.7566 -0.2371
vn -0.4655 -0.7957 -0.3875
vn 0.8203 0.4850 0.3031
vn -0.7668 0.6213 0.1615
vn -0.0093 1.0000 0.0006
vn 0.9565 -0.1776 0.2314
vn -0.0743 0.5925 -0.8022
vn -0.0364 0.1557 -0.9871
vn -0.2734 0.4557 0.8471
vn -0.7396 -0.6084 0.2878
vn 0.1788 -0.9482 0.2627
vn 0.0249 -0.9997 -0.0017
vn 0.2396 -0.9513 0.1937
vn 0.0633 -0.9971 -0.0415
vn 0.4023 -0.7412 0.5374
vn 0.2087 -0.7965 0.5675
vn 0.5267 -0.7305 0.4347
vn 0.3278 -0.9429 0.0588
vn 0.6534 -0.7488 0.1112
vn 0.3107 -0.9497 -0.0378
vn 0.6504 -0.7528 -0.1016
vn 0.2695 -0.9476 -0.1714
vn 0.5563 -0.7506 -0.3565
vn 0.1282 -0.9560 -0.2638
vn 0.3328 -0.7672 -0.5484
vn 0.1977 -0.7426 -0.6399
vn 0.9395 -0.2973 0.1702
vn 0.7564 -0.3253 0.5675
vn 0.9427 -0.3006 -0.1447
vn 0.7975 -0.3060 -0.5200
vn 0.5048 -0.3003 -0.8093
vn 0.2368 -0.2770 -0.9312
vn 0.9719 0.1501 0.1814
vn 0.8139 0.1802 0.5524
vn 0.9773 0.1505 -0.1492
vn 0.8263 0.1554 -0.5413
vn 0.5151 0.1493 -0.8440
vn 0.2151 0.1548 -0.9643
vn 0.2644 0.1962 0.9443
vn 0.4502 0.6011 0.6603
vn 0.2200 0.5942 0.7737
vn 0.5958 0.1178 0.7944
vn 0.7076 0.4903 0.5088
vn 0.2921 0.8380 0.4608
vn 0.1470 0.8381 0.5254
vn 0.4806 0.7936 0.3730
vn 0.8663 0.4741 0.1574
vn 0.6097 0.7851 0.1089
vn 0.8702 0.4747 -0.1322
vn 0.6056 0.7916 -0.0808
vn 0.7293 0.4891 -0.4785
vn 0.5346 0.7763 -0.3339
vn 0.4541 0.4774 -0.7522
vn 0.3492 0.7739 -0.5284
vn 0.1812 0.4851 -0.8554
vn 0.1252 0.7568 -0.6415
vn 0.0150 0.9951 0.0977
vn 0.1007 0.9929 0.0638
vn 0.1333 0.9904 -0.0374
vn 0.0210 0.9922 -0.1231
vn -0.0108 0.9643 0.2646
vn -0.1234 0.9722 0.1991
vn -0.1964 0.9690 -0.1501
vn -0.2467 0.9691 0.0057
vn -0.0957 0.9408 0.3251
vn 0.5944 0.3408 -0.7284
vn 0.6636 -0.1435 -0.7342
vn 0.9654 -0.1852 -0.1835
vn 0.9715 0.2365 -0.0132
vn 0.0082 0.9850 0.1726
vn 0.6628 -0.0925 0.7430
vn 0.4659 -0.6009 0.6496
vn 0.2550 -0.6415 0.7235
vn 0.2571 -0.0232 0.9661
vn 0.4508 -0.0783 0.8892
vn 0.7646 -0.5358 -0.3581
vn 0.8643 -0.3425 0.3683
vn 0.7436 0.1677 0.6472
vn 0.2685 -0.3474 0.8985
vn 0.3431 -0.3225 0.8822
vn 0.5631 -0.3305 0.7574
vn 0.5644 -0.3321 0.7557
vn 0.6271 -0.4052 0.6652
vn -0.5531 0.7659 0.3279
vn 0.6270 -0.6534 -0.4241
vn -0.6102 -0.7680 -0.1944
vn 0.4520 -0.7872 -0.4196
vn -0.8060 0.4698 0.3601
vn 0.7645 0.6356 0.1079
vn -0.9345 -0.1952 0.2976
vn 0.3234 0.4613 0.8262
vn 0.7691 -0.5944 0.2350
vn -0.0122 0.9974 0.0711
vn -0.6242 -0.0687 -0.7783
vn -0.4730 0.7091 0.5230
vn -0.0194 0.6299 0.7764
vn 0.0806 -0.3872 -0.9185
vn 0.5453 -0.5114 -0.6642
vn 0.5787 0.4610 0.6727
# 202 vertex normals

vt 0.8196 0.7965 0.0000
vt 0.7506 0.7827 0.0000
vt 0.8218 0.7433 0.0000
vt 0.7207 0.7595 0.0000
vt 0.7634 0.7247 0.0000
vt 0.8233 0.7086 0.0000
vt 0.7643 0.6943 0.0000
vt 0.8248 0.6706 0.0000
vt 0.5365 0.4849 0.0000
vt 0.5329 0.5836 0.0000
vt 0.4643 0.5977 0.0000
vt 0.4573 0.5124 0.0000
vt 0.3974 0.6023 0.0000
vt 0.4025 0.5156 0.0000
vt 0.3328 0.5960 0.0000
vt 0.3364 0.5076 0.0000
vt 0.2694 0.5957 0.0000
vt 0.2823 0.5039 0.0000
vt 0.2064 0.5963 0.0000
vt 0.2264 0.5043 0.0000
vt 0.1659 0.5932 0.0000
vt 0.1853 0.5047 0.0000
vt 0.1149 0.5878 0.0000
vt 0.1193 0.4877 0.0000
vt 0.4083 0.6786 0.0000
vt 0.3332 0.6730 0.0000
vt 0.2624 0.6721 0.0000
vt 0.1939 0.6746 0.0000
vt 0.1398 0.6723 0.0000
vt 0.0813 0.6629 0.0000
vt 0.4138 0.7612 0.0000
vt 0.3331 0.7612 0.0000
vt 0.2586 0.7597 0.0000
vt 0.1855 0.7608 0.0000
vt 0.1285 0.7642 0.0000
vt 0.0653 0.7667 0.0000
vt 0.5876 0.7791 0.0000
vt 0.5500 0.8356 0.0000
vt 0.4964 0.8254 0.0000
vt 0.4983 0.7662 0.0000
vt 0.4071 0.8116 0.0000
vt 0.5011 0.9057 0.0000
vt 0.4517 0.8976 0.0000
vt 0.3995 0.8794 0.0000
vt 0.3368 0.8775 0.0000
vt 0.3346 0.8098 0.0000
vt 0.2714 0.8651 0.0000
vt 0.2638 0.8046 0.0000
vt 0.2151 0.8627 0.0000
vt 0.1929 0.8044 0.0000
vt 0.1665 0.8658 0.0000
vt 0.1375 0.8106 0.0000
vt 0.1247 0.8952 0.0000
vt 0.0809 0.8305 0.0000
vt 0.4357 0.9747 0.0000
vt 0.3383 0.9606 0.0000
vt 0.2491 0.9454 0.0000
vt 0.1961 0.9486 0.0000
vt 0.8253 0.8946 0.0000
vt 0.8341 0.8834 0.0000
vt 0.8409 0.8912 0.0000
vt 0.8770 0.9745 0.0000
vt 0.8243 0.9825 0.0000
vt 0.8240 0.9289 0.0000
vt 0.8521 0.9226 0.0000
vt 0.9311 0.9333 0.0000
vt 0.8628 0.8952 0.0000
vt 0.9347 0.8653 0.0000
vt 0.8489 0.8649 0.0000
vt 0.8881 0.8132 0.0000
vt 0.8275 0.8610 0.0000
vt 0.8518 0.8932 0.0000
vt 0.8415 0.8741 0.0000
vt 0.8255 0.9103 0.0000
vt 0.8387 0.9080 0.0000
vt 0.7087 0.7280 0.0000
vt 0.7089 0.6888 0.0000
vt 0.7215 0.6547 0.0000
vt 0.7478 0.6285 0.0000
vt 0.8248 0.6119 0.0000
vt 0.4799 0.7202 0.0000
vt 0.4951 0.6219 0.0000
vt 0.5976 0.5943 0.0000
vt 0.5579 0.6285 0.0000
vt 0.6044 0.7313 0.0000
vt 0.6688 0.7026 0.0000
vt 0.5268 0.7251 0.0000
vt 0.6079 0.8530 0.0000
vt 0.6436 0.7986 0.0000
vt 0.5480 0.9187 0.0000
vt 0.4839 0.9769 0.0000
vt 0.4837 0.9776 0.0000
vt 0.5857 0.5626 0.0000
vt 0.0780 0.5634 0.0000
vt 0.0368 0.6385 0.0000
vt 0.0156 0.7618 0.0000
vt 0.0370 0.8465 0.0000
vt 0.0920 0.9259 0.0000
vt 0.1712 0.9917 0.0000
vt 0.8277 0.8106 0.0000
vt 0.8454 0.9153 0.0000
vt 0.8247 0.9196 0.0000
vt 0.6010 0.6973 0.0000
vt 0.5228 0.7055 0.0000
vt 0.5125 0.6459 0.0000
vt 0.5700 0.6522 0.0000
vt 0.4804 0.7192 0.0000
vt 0.6366 0.6746 0.0000
vt 0.6204 0.6139 0.0000
vt 0.5605 0.7853 0.0000
vt 0.5067 0.7809 0.0000
vt 0.5048 0.8135 0.0000
vt 0.8272 0.8723 0.0000
vt 0.8894 0.7886 0.0000
vt 0.8788 0.7274 0.0000
vt 0.9177 0.7689 0.0000
vt 0.8799 0.6991 0.0000
vt 0.8121 0.8910 0.0000
vt 0.8202 0.8838 0.0000
vt 0.7717 0.9713 0.0000
vt 0.7997 0.9191 0.0000
vt 0.7188 0.9279 0.0000
vt 0.7903 0.8918 0.0000
vt 0.7183 0.8610 0.0000
vt 0.8015 0.8654 0.0000
vt 0.7685 0.8110 0.0000
vt 0.8108 0.8746 0.0000
vt 0.8012 0.8914 0.0000
vt 0.8114 0.9044 0.0000
vt 0.9361 0.7345 0.0000
vt 0.9363 0.7014 0.0000
vt 0.9252 0.6642 0.0000
vt 0.9020 0.6380 0.0000
vt 0.4875 0.9736 0.0000
vt 0.8055 0.9118 0.0000
vt 0.8269 0.8836 0.0000
# 136 texture coords

g pumpkin1
usemtl 01___Default
s off
f 1/1/1 2/2/2 3/3/3 
f 2/2/2 4/4/4 5/5/5 
f 5/5/5 3/3/3 2/2/2 
f 6/6/6 7/7/7 8/8/8 
f 1/9/1 9/10/9 10/11/10 
f 10/11/10 2/12/2 1/9/1 
f 2/12/2 10/11/10 11/13/11 
f 11/13/11 4/14/4 2/12/2 
f 4/14/4 11/13/11 12/15/12 
f 12/15/12 13/16/13 4/14/4 
f 13/16/13 12/15/12 14/17/14 
f 14/17/14 15/18/15 13/16/13 
f 15/18/15 14/17/14 16/19/16 
f 16/19/16 17/20/17 15/18/15 
f 17/20/17 16/19/16 18/21/18 
f 18/21/18 19/22/19 17/20/17 
f 19/22/19 18/21/18 20/23/20 
f 20/23/20 21/24/21 19/22/19 
f 11/13/11 22/25/22 23/26/23 
f 23/26/23 12/15/12 11/13/11 
f 12/15/12 23/26/23 24/27/24 
f 24/27/24 14/17/14 12/15/12 
f 14/17/14 24/27/24 25/28/25 
f 25/28/25 16/19/16 14/17/14 
f 16/19/16 25/28/25 26/29/26 
f 26/29/26 18/21/18 16/19/16 
f 18/21/18 26/29/26 27/30/27 
f 27/30/27 20/23/20 18/21/18 
f 22/25/22 28/31/28 29/32/29 
f 29/32/29 23/26/23 22/25/22 
f 23/26/23 29/32/29 30/33/30 
f 30/33/30 24/27/24 23/26/23 
f 24/27/24 30/33/30 31/34/31 
f 31/34/31 25/28/25 24/27/24 
f 25/28/25 31/34/31 32/35/32 
f 32/35/32 26/29/26 25/28/25 
f 26/29/26 32/35/32 33/36/33 
f 33/36/33 27/30/27 26/29/26 
f 34/37/34 35/38/35 36/39/36 
f 37/40/37 36/39/36 38/41/38 
f 38/41/38 28/31/28 37/40/37 
f 35/38/35 39/42/39 40/43/40 
f 40/43/40 36/39/36 35/38/35 
f 36/39/36 40/43/40 41/44/41 
f 41/44/41 38/41/38 36/39/36 
f 38/41/38 41/44/41 42/45/42 
f 42/45/42 43/46/43 38/41/38 
f 43/46/43 42/45/42 44/47/44 
f 44/47/44 45/48/45 43/46/43 
f 45/48/45 44/47/44 46/49/46 
f 46/49/46 47/50/47 45/48/45 
f 47/50/47 46/49/46 48/51/48 
f 48/51/48 49/52/49 47/50/47 
f 49/52/49 48/51/48 50/53/50 
f 50/53/50 51/54/51 49/52/49 
f 39/42/39 52/55/52 40/43/40 
f 40/43/40 52/55/52 53/56/53 
f 53/56/53 41/44/41 40/43/40 
f 41/44/41 53/56/53 42/45/42 
f 42/45/42 53/56/53 54/57/54 
f 54/57/54 44/47/44 42/45/42 
f 44/47/44 54/57/54 46/49/46 
f 46/49/46 54/57/54 55/58/55 
f 55/58/55 48/51/48 46/49/46 
f 48/51/48 55/58/55 50/53/50 
f 56/59/56 56/59/57 57/60/58 
f 57/60/58 58/61/59 56/59/56 
f 52/62/52 59/63/60 60/64/61 
f 61/65/62 52/62/52 60/64/61 
f 61/65/62 53/66/53 52/62/52 
f 62/67/63 53/66/53 61/65/62 
f 62/67/63 54/68/54 53/66/53 
f 63/69/64 54/68/54 62/67/63 
f 63/69/64 55/70/55 54/68/54 
f 64/71/65 55/70/55 63/69/64 
f 63/69/66 62/67/67 65/72/68 
f 65/72/68 66/73/69 63/69/66 
f 67/74/70 56/59/56 68/75/71 
f 5/5/5 4/4/4 13/76/13 
f 5/5/5 13/76/13 15/77/15 
f 15/77/15 7/7/7 5/5/5 
f 7/7/7 15/77/15 17/78/17 
f 7/7/7 17/78/17 19/79/19 
f 19/79/19 8/8/8 7/7/7 
f 8/8/8 19/79/19 21/80/21 
f 28/31/28 22/25/22 69/81/72 
f 69/81/72 37/40/37 28/31/28 
f 69/81/72 22/25/22 11/13/11 
f 11/13/11 10/11/10 69/81/72 
f 70/82/73 10/11/10 9/10/9 
f 71/83/74 72/84/75 9/10/9 
f 70/82/73 9/10/9 72/84/75 
f 34/37/34 73/85/76 74/86/77 
f 75/87/78 73/85/76 34/37/34 
f 75/87/78 34/37/34 37/40/37 
f 70/82/73 69/81/72 10/11/10 
f 76/88/79 35/38/35 34/37/34 
f 34/37/34 77/89/80 76/88/79 
f 78/90/81 39/42/39 35/38/35 
f 35/38/35 76/88/79 78/90/81 
f 52/55/52 39/42/39 78/90/81 
f 52/55/52 78/90/81 79/91/82 
f 59/92/60 52/55/52 79/91/82 
f 77/89/80 34/37/34 74/86/77 
f 71/83/74 9/10/9 80/93/83 
f 80/93/83 9/10/9 1/9/1 
f 3/3/3 5/5/5 6/6/6 
f 5/5/5 7/7/7 6/6/6 
f 21/24/21 20/23/20 81/94/84 
f 20/23/20 27/30/27 82/95/85 
f 82/95/85 81/94/84 20/23/20 
f 82/95/85 27/30/27 33/36/33 
f 33/36/33 83/96/86 82/95/85 
f 84/97/87 51/54/51 50/53/50 
f 50/53/50 85/98/88 84/97/87 
f 85/98/88 50/53/50 55/58/55 
f 55/58/55 86/99/89 85/98/88 
f 86/100/89 55/70/55 64/71/65 
f 68/75/71 56/59/56 58/61/59 
f 58/61/90 65/72/68 87/101/91 
f 87/101/91 68/75/92 58/61/90 
f 68/75/92 87/101/91 88/102/93 
f 88/102/93 67/74/94 68/75/92 
f 89/103/95 90/104/96 91/105/97 
f 91/105/97 92/106/98 89/103/95 
f 90/104/96 93/107/99 91/105/97 
f 94/108/100 89/103/95 92/106/98 
f 92/106/98 95/109/101 94/108/100 
f 72/84/102 71/83/102 95/109/102 
f 95/109/102 92/106/102 72/84/102 
f 74/86/103 73/85/103 89/103/103 
f 89/103/103 94/108/103 74/86/103 
f 73/85/104 75/87/104 90/104/104 
f 90/104/104 89/103/104 73/85/104 
f 75/87/105 69/81/105 93/107/105 
f 93/107/105 90/104/105 75/87/105 
f 69/81/106 70/82/106 91/105/106 
f 91/105/106 93/107/106 69/81/106 
f 70/82/107 72/84/107 92/106/107 
f 92/106/107 91/105/107 70/82/107 
f 37/40/108 34/37/108 96/110/108 
f 96/110/108 97/111/108 37/40/108 
f 36/39/109 37/40/109 97/111/109 
f 97/111/109 98/112/109 36/39/109 
f 64/71/110 63/69/66 66/73/69 
f 66/73/69 99/113/111 64/71/110 
f 28/31/28 38/41/38 43/46/43 
f 43/46/43 29/32/29 28/31/28 
f 29/32/29 43/46/43 45/48/45 
f 45/48/45 30/33/30 29/32/29 
f 30/33/30 45/48/45 47/50/47 
f 47/50/47 31/34/31 30/33/30 
f 31/34/31 47/50/47 49/52/49 
f 49/52/49 32/35/32 31/34/31 
f 32/35/32 49/52/49 51/54/51 
f 51/54/51 33/36/33 32/35/32 
f 37/40/37 69/81/72 75/87/78 
f 33/36/33 51/54/51 84/97/87 
f 84/97/87 83/96/86 33/36/33 
f 96/110/112 98/112/112 97/111/112 
f 34/37/113 36/39/113 98/112/113 
f 98/112/113 96/110/113 34/37/113 
f 1/1/1 3/3/3 100/114/114 
f 100/114/114 3/3/3 101/115/115 
f 101/115/115 102/116/116 100/114/114 
f 6/6/6 8/8/8 103/117/117 
f 1/9/1 100/12/114 104/11/118 
f 104/11/118 105/10/119 1/9/1 
f 100/12/114 102/14/116 106/13/120 
f 106/13/120 104/11/118 100/12/114 
f 102/14/116 107/16/121 108/15/122 
f 108/15/122 106/13/120 102/14/116 
f 107/16/121 109/18/123 110/17/124 
f 110/17/124 108/15/122 107/16/121 
f 109/18/123 111/20/125 112/19/126 
f 112/19/126 110/17/124 109/18/123 
f 111/20/125 113/22/127 114/21/128 
f 114/21/128 112/19/126 111/20/125 
f 113/22/127 21/24/21 115/23/129 
f 115/23/129 114/21/128 113/22/127 
f 106/13/120 108/15/122 116/26/130 
f 116/26/130 117/25/131 106/13/120 
f 108/15/122 110/17/124 118/27/132 
f 118/27/132 116/26/130 108/15/122 
f 110/17/124 112/19/126 119/28/133 
f 119/28/133 118/27/132 110/17/124 
f 112/19/126 114/21/128 120/29/134 
f 120/29/134 119/28/133 112/19/126 
f 114/21/128 115/23/129 121/30/135 
f 121/30/135 120/29/134 114/21/128 
f 117/25/131 116/26/130 122/32/136 
f 122/32/136 123/31/137 117/25/131 
f 116/26/130 118/27/132 124/33/138 
f 124/33/138 122/32/136 116/26/130 
f 118/27/132 119/28/133 125/34/139 
f 125/34/139 124/33/138 118/27/132 
f 119/28/133 120/29/134 126/35/140 
f 126/35/140 125/34/139 119/28/133 
f 120/29/134 121/30/135 127/36/141 
f 127/36/141 126/35/140 120/29/134 
f 128/37/142 129/39/143 130/38/144 
f 131/40/145 123/31/137 132/41/146 
f 132/41/146 129/39/143 131/40/145 
f 130/38/144 129/39/143 133/43/147 
f 133/43/147 134/42/148 130/38/144 
f 129/39/143 132/41/146 135/44/149 
f 135/44/149 133/43/147 129/39/143 
f 132/41/146 136/46/150 137/45/151 
f 137/45/151 135/44/149 132/41/146 
f 136/46/150 138/48/152 139/47/153 
f 139/47/153 137/45/151 136/46/150 
f 138/48/152 140/50/154 141/49/155 
f 141/49/155 139/47/153 138/48/152 
f 140/50/154 142/52/156 143/51/157 
f 143/51/157 141/49/155 140/50/154 
f 142/52/156 144/54/158 145/53/159 
f 145/53/159 143/51/157 142/52/156 
f 134/42/148 133/43/147 146/55/160 
f 133/43/147 135/44/149 147/56/161 
f 147/56/161 146/55/160 133/43/147 
f 135/44/149 137/45/151 147/56/161 
f 137/45/151 139/47/153 148/57/162 
f 148/57/162 147/56/161 137/45/151 
f 139/47/153 141/49/155 148/57/162 
f 141/49/155 143/51/157 149/58/163 
f 149/58/163 148/57/162 141/49/155 
f 143/51/157 145/53/159 149/58/163 
f 56/59/56 150/118/164 151/119/165 
f 151/119/165 56/59/57 56/59/56 
f 60/64/61 59/63/60 146/120/160 
f 152/121/166 60/64/61 146/120/160 
f 152/121/166 146/120/160 147/122/161 
f 153/123/167 152/121/166 147/122/161 
f 153/123/167 147/122/161 148/124/162 
f 154/125/168 153/123/167 148/124/162 
f 154/125/168 148/124/162 149/126/163 
f 64/71/65 154/125/168 149/126/163 
f 154/125/169 155/127/170 156/128/171 
f 156/128/171 153/123/172 154/125/169 
f 67/74/70 157/129/173 56/59/56 
f 101/115/115 107/130/121 102/116/116 
f 101/115/115 103/117/117 109/131/123 
f 109/131/123 107/130/121 101/115/115 
f 103/117/117 111/132/125 109/131/123 
f 103/117/117 8/8/8 113/133/127 
f 113/133/127 111/132/125 103/117/117 
f 8/8/8 21/80/21 113/133/127 
f 123/31/137 158/81/174 117/25/131 
f 158/81/174 123/31/137 131/40/145 
f 158/81/174 104/11/118 106/13/120 
f 106/13/120 117/25/131 158/81/174 
f 159/82/175 105/10/119 104/11/118 
f 71/83/74 105/10/119 160/84/176 
f 159/82/175 160/84/176 105/10/119 
f 128/37/142 74/86/77 161/85/177 
f 162/87/178 128/37/142 161/85/177 
f 162/87/178 131/40/145 128/37/142 
f 159/82/175 104/11/118 158/81/174 
f 76/88/79 77/89/80 128/37/142 
f 128/37/142 130/38/144 76/88/79 
f 78/90/81 76/88/79 130/38/144 
f 130/38/144 134/42/148 78/90/81 
f 59/92/60 79/134/82 78/90/81 
f 59/92/60 78/90/81 134/42/148 
f 59/92/60 134/42/148 146/55/160 
f 77/89/80 74/86/77 128/37/142 
f 71/83/74 80/93/83 105/10/119 
f 80/93/83 1/9/1 105/10/119 
f 3/3/3 6/6/6 101/115/115 
f 101/115/115 6/6/6 103/117/117 
f 21/24/21 81/94/84 115/23/129 
f 115/23/129 81/94/84 82/95/85 
f 82/95/85 121/30/135 115/23/129 
f 82/95/85 83/96/86 127/36/141 
f 127/36/141 121/30/135 82/95/85 
f 84/97/87 85/98/88 145/53/159 
f 145/53/159 144/54/158 84/97/87 
f 85/98/88 86/99/89 149/58/163 
f 149/58/163 145/53/159 85/98/88 
f 86/100/89 64/71/65 149/126/163 
f 157/129/173 150/118/164 56/59/56 
f 150/118/179 157/129/180 163/135/181 
f 163/135/181 156/128/171 150/118/179 
f 157/129/180 67/74/94 88/102/93 
f 88/102/93 163/135/181 157/129/180 
f 164/103/182 165/106/183 166/105/184 
f 166/105/184 167/104/185 164/103/182 
f 167/104/185 166/105/184 168/107/186 
f 94/108/100 95/109/101 165/106/183 
f 165/106/183 164/103/182 94/108/100 
f 160/84/187 165/106/187 95/109/187 
f 95/109/187 71/83/187 160/84/187 
f 74/86/188 94/108/188 164/103/188 
f 164/103/188 161/85/188 74/86/188 
f 161/85/189 164/103/189 167/104/189 
f 167/104/189 162/87/189 161/85/189 
f 162/87/190 167/104/190 168/107/190 
f 168/107/190 158/81/190 162/87/190 
f 158/81/191 168/107/191 166/105/191 
f 166/105/191 159/82/191 158/81/191 
f 159/82/192 166/105/192 165/106/192 
f 165/106/192 160/84/192 159/82/192 
f 131/40/108 169/111/108 170/110/108 
f 170/110/108 128/37/108 131/40/108 
f 129/39/193 171/112/193 169/111/193 
f 169/111/193 131/40/193 129/39/193 
f 64/71/110 99/113/111 155/127/170 
f 155/127/170 154/125/169 64/71/110 
f 123/31/137 122/32/136 136/46/150 
f 136/46/150 132/41/146 123/31/137 
f 122/32/136 124/33/138 138/48/152 
f 138/48/152 136/46/150 122/32/136 
f 124/33/138 125/34/139 140/50/154 
f 140/50/154 138/48/152 124/33/138 
f 125/34/139 126/35/140 142/52/156 
f 142/52/156 140/50/154 125/34/139 
f 126/35/140 127/36/141 144/54/158 
f 144/54/158 142/52/156 126/35/140 
f 131/40/145 162/87/178 158/81/174 
f 127/36/141 83/96/86 84/97/87 
f 84/97/87 144/54/158 127/36/141 
f 170/110/194 169/111/194 171/112/194 
f 128/37/195 170/110/195 171/112/195 
f 171/112/195 129/39/195 128/37/195 
f 151/119/165 172/136/196 56/59/57 
f 56/59/57 172/136/196 57/60/58 
f 65/72/68 58/61/90 57/60/197 
f 57/60/197 66/73/69 65/72/68 
f 65/72/68 62/67/67 61/65/198 
f 61/65/198 87/101/91 65/72/68 
f 87/101/91 61/65/198 60/64/199 
f 60/64/199 88/102/93 87/101/91 
f 66/73/69 57/60/197 172/136/200 
f 172/136/200 99/113/111 66/73/69 
f 155/127/170 151/119/201 150/118/179 
f 150/118/179 156/128/171 155/127/170 
f 163/135/181 152/121/202 153/123/172 
f 153/123/172 156/128/171 163/135/181 
f 88/102/93 60/64/199 152/121/202 
f 152/121/202 163/135/181 88/102/93 
f 99/113/111 172/136/200 151/119/201 
f 151/119/201 155/127/170 99/113/111 
# 342 faces

