# 3ds Max Wavefront OBJ Exporter v0.97b - (c)2007 guruware
# File Created: 19.04.2016 20:44:13

mtllib water.mtl

#
# object Plane001
#

v  21.5314 -0.4851 -94.8607
v  16.1485 0.9905 -94.8607
v  50.1071 -2.1844 -71.1455
v  66.8095 -5.7864 -71.1455
v  10.7657 2.3529 -94.8607
v  33.4048 1.0955 -71.1455
v  5.3829 3.5647 -94.8607
v  16.7024 2.5907 -71.1455
v  0.0000 4.5978 -94.8607
v  0.0000 2.6171 -71.1455
v  -5.3828 5.4331 -94.8607
v  -16.7024 1.8558 -71.1455
v  -10.7657 6.0607 -94.8607
v  -33.4047 1.3527 -71.1455
v  -16.1485 6.4801 -94.8607
v  -50.1071 2.5190 -71.1455
v  -21.5313 6.6996 -94.8607
v  -66.8095 4.5158 -71.1455
v  62.6874 -4.3895 -47.4303
v  83.5832 -10.5986 -47.4303
v  41.7916 1.5826 -47.4303
v  20.8958 2.8783 -47.4303
v  0.0000 1.0310 -47.4303
v  -20.8958 -1.4078 -47.4303
v  -41.7916 -1.4477 -47.4304
v  -62.6874 2.5162 -47.4304
v  -83.5832 4.7006 -47.4304
v  69.3998 -8.1345 -23.7152
v  92.5331 -16.1700 -23.7152
v  46.2666 -0.5508 -23.7152
v  23.1333 1.3901 -23.7152
v  0.0000 -0.0105 -23.7152
v  -23.1333 -1.7730 -23.7152
v  -46.2665 -0.5837 -23.7152
v  -69.3998 3.7312 -23.7152
v  -92.5331 4.9458 -23.7152
v  72.1309 -7.6982 0.0000
v  96.1745 -16.5235 0.0000
v  48.0873 -0.4184 0.0000
v  24.0436 0.7568 -0.0000
v  0.0000 -0.4672 -0.0000
v  -24.0436 -1.3408 -0.0000
v  -48.0873 0.5351 -0.0000
v  -72.1309 5.1216 -0.0000
v  -96.1745 6.3219 -0.0000
v  69.3998 -3.6506 23.7152
v  92.5331 -10.2789 23.7152
v  46.2665 0.6203 23.7152
v  23.1333 0.3516 23.7152
v  -0.0000 -0.9745 23.7152
v  -23.1333 -1.2843 23.7152
v  -46.2666 0.5576 23.7152
v  -69.3998 5.5169 23.7152
v  -92.5331 9.3165 23.7151
v  62.6874 -1.1065 47.4303
v  83.5832 -4.4737 47.4303
v  41.7916 0.2759 47.4303
v  20.8958 -0.8040 47.4303
v  -0.0000 -2.1184 47.4303
v  -20.8958 -2.3002 47.4303
v  -41.7916 -0.8228 47.4303
v  -62.6874 3.2521 47.4303
v  -83.5832 10.0618 47.4303
v  50.1071 0.7060 71.1455
v  66.8095 0.4175 71.1455
v  33.4047 -0.3965 71.1455
v  16.7024 -2.3580 71.1455
v  -0.0000 -4.0030 71.1455
v  -16.7024 -4.6288 71.1455
v  -33.4048 -4.0047 71.1455
v  -50.1071 -2.3725 71.1455
v  -66.8095 1.8013 71.1455
v  16.1485 -3.4925 94.8607
v  21.5313 -2.3890 94.8607
v  10.7657 -4.4725 94.8607
v  5.3828 -5.2988 94.8607
v  -0.0000 -5.9500 94.8607
v  -5.3829 -6.4131 94.8607
v  -10.7657 -6.6841 94.8607
v  -16.1485 -6.7677 94.8607
v  -21.5314 -6.6772 94.8607
# 81 vertices

vn 0.2525 0.9381 -0.2371
vn 0.2390 0.9526 -0.1884
vn 0.2137 0.9700 -0.1160
vn 0.2332 0.9714 -0.0458
vn 0.2042 0.9748 -0.0897
vn 0.1450 0.9857 -0.0859
vn 0.1605 0.9868 0.0207
vn 0.0422 0.9991 0.0002
vn 0.1315 0.9834 0.1250
vn -0.0232 0.9970 0.0741
vn 0.1169 0.9674 0.2248
vn -0.0288 0.9918 0.1244
vn 0.1005 0.9529 0.2861
vn 0.0385 0.9851 0.1678
vn 0.0722 0.9638 0.2566
vn 0.0948 0.9795 0.1780
vn 0.0402 0.9851 0.1674
vn 0.1166 0.9859 0.1198
vn 0.2776 0.9606 0.0151
vn 0.2985 0.9529 0.0545
vn 0.1677 0.9858 -0.0030
vn -0.0047 0.9998 0.0186
vn -0.0883 0.9953 0.0406
vn -0.0452 0.9973 0.0571
vn 0.0938 0.9932 0.0689
vn 0.1300 0.9907 0.0404
vn 0.1056 0.9936 0.0401
vn 0.3115 0.9501 0.0144
vn 0.3332 0.9428 0.0116
vn 0.1940 0.9807 0.0250
vn 0.0115 0.9989 0.0455
vn -0.0664 0.9974 0.0298
vn -0.0123 0.9999 -0.0011
vn 0.1150 0.9931 -0.0211
vn 0.1148 0.9929 -0.0324
vn 0.0619 0.9976 -0.0323
vn 0.3047 0.9494 -0.0760
vn 0.3267 0.9399 -0.0993
vn 0.1726 0.9848 -0.0209
vn 0.0038 0.9998 0.0180
vn -0.0419 0.9989 0.0187
vn 0.0176 0.9998 -0.0059
vn 0.1354 0.9905 -0.0242
vn 0.1280 0.9903 -0.0538
vn 0.0503 0.9945 -0.0922
vn 0.2277 0.9698 -0.0869
vn 0.2517 0.9541 -0.1622
vn 0.0981 0.9951 -0.0113
vn -0.0272 0.9993 0.0241
vn -0.0340 0.9989 0.0334
vn 0.0298 0.9993 0.0222
vn 0.1447 0.9894 0.0117
vn 0.2017 0.9792 -0.0231
vn 0.1291 0.9878 -0.0874
vn 0.1191 0.9918 -0.0461
vn 0.1414 0.9798 -0.1412
vn 0.0178 0.9997 0.0182
vn -0.0555 0.9973 0.0478
vn -0.0378 0.9971 0.0661
vn 0.0278 0.9971 0.0712
vn 0.1250 0.9894 0.0734
vn 0.2502 0.9659 0.0668
vn 0.2632 0.9647 0.0077
vn -0.0087 0.9994 0.0340
vn 0.0134 0.9916 -0.1283
vn -0.0769 0.9964 0.0366
vn -0.1020 0.9934 0.0532
vn -0.0652 0.9948 0.0785
vn 0.0040 0.9962 0.0868
vn 0.0731 0.9943 0.0777
vn 0.1902 0.9816 0.0153
vn 0.2621 0.9628 0.0660
vn -0.1709 0.9809 -0.0924
vn -0.1940 0.9464 -0.2584
vn -0.1493 0.9887 0.0136
vn -0.1264 0.9903 0.0569
vn -0.0982 0.9922 0.0767
vn -0.0625 0.9940 0.0901
vn -0.0268 0.9944 0.1025
vn 0.0027 0.9922 0.1246
vn 0.0348 0.9899 0.1377
# 81 vertex normals

vt 0.8204 0.8568 0.0000
vt 0.7968 0.8697 0.0000
vt 0.8895 0.6847 0.0000
vt 0.9628 0.6449 0.0000
vt 0.7732 0.8825 0.0000
vt 0.8161 0.7244 0.0000
vt 0.7495 0.8953 0.0000
vt 0.7428 0.7642 0.0000
vt 0.7259 0.9081 0.0000
vt 0.6694 0.8040 0.0000
vt 0.7022 0.9209 0.0000
vt 0.5961 0.8437 0.0000
vt 0.6786 0.9337 0.0000
vt 0.5227 0.8835 0.0000
vt 0.6550 0.9466 0.0000
vt 0.4494 0.9233 0.0000
vt 0.6313 0.9594 0.0000
vt 0.3760 0.9630 0.0000
vt 0.8882 0.5505 0.0000
vt 0.9800 0.5008 0.0000
vt 0.7965 0.6003 0.0000
vt 0.7047 0.6501 0.0000
vt 0.6129 0.6998 0.0000
vt 0.5212 0.7496 0.0000
vt 0.4294 0.7993 0.0000
vt 0.3376 0.8491 0.0000
vt 0.2459 0.8988 0.0000
vt 0.8612 0.4304 0.0000
vt 0.9628 0.3753 0.0000
vt 0.7597 0.4855 0.0000
vt 0.6581 0.5406 0.0000
vt 0.5565 0.5957 0.0000
vt 0.4549 0.6508 0.0000
vt 0.3533 0.7058 0.0000
vt 0.2517 0.7609 0.0000
vt 0.1501 0.8160 0.0000
vt 0.8168 0.3198 0.0000
vt 0.9224 0.2625 0.0000
vt 0.7112 0.3770 0.0000
vt 0.6056 0.4343 0.0000
vt 0.5000 0.4915 0.0000
vt 0.3944 0.5488 0.0000
vt 0.2888 0.6060 0.0000
vt 0.1832 0.6633 0.0000
vt 0.0776 0.7205 0.0000
vt 0.7483 0.2221 0.0000
vt 0.8499 0.1670 0.0000
vt 0.6467 0.2772 0.0000
vt 0.5451 0.3323 0.0000
vt 0.4435 0.3874 0.0000
vt 0.3419 0.4425 0.0000
vt 0.2403 0.4975 0.0000
vt 0.1388 0.5526 0.0000
vt 0.0372 0.6077 0.0000
vt 0.6624 0.1340 0.0000
vt 0.7541 0.0842 0.0000
vt 0.5706 0.1837 0.0000
vt 0.4788 0.2335 0.0000
vt 0.3871 0.2832 0.0000
vt 0.2953 0.3330 0.0000
vt 0.2035 0.3827 0.0000
vt 0.1118 0.4325 0.0000
vt 0.0200 0.4823 0.0000
vt 0.5506 0.0598 0.0000
vt 0.6240 0.0200 0.0000
vt 0.4773 0.0995 0.0000
vt 0.4039 0.1393 0.0000
vt 0.3306 0.1791 0.0000
vt 0.2572 0.2189 0.0000
vt 0.1839 0.2586 0.0000
vt 0.1105 0.2984 0.0000
vt 0.0372 0.3382 0.0000
vt 0.3450 0.0365 0.0000
vt 0.3687 0.0237 0.0000
vt 0.3214 0.0493 0.0000
vt 0.2978 0.0621 0.0000
vt 0.2741 0.0749 0.0000
vt 0.2505 0.0878 0.0000
vt 0.2268 0.1006 0.0000
vt 0.2032 0.1134 0.0000
vt 0.1796 0.1262 0.0000
# 81 texture coords

g Plane001
usemtl wire_006135058
s 1
f 1/1/1 2/2/2 3/3/3 
f 3/3/3 4/4/4 1/1/1 
f 2/2/2 5/5/5 6/6/6 
f 6/6/6 3/3/3 2/2/2 
f 5/5/5 7/7/7 8/8/8 
f 8/8/8 6/6/6 5/5/5 
f 7/7/7 9/9/9 10/10/10 
f 10/10/10 8/8/8 7/7/7 
f 9/9/9 11/11/11 12/12/12 
f 12/12/12 10/10/10 9/9/9 
f 11/11/11 13/13/13 14/14/14 
f 14/14/14 12/12/12 11/11/11 
f 13/13/13 15/15/15 16/16/16 
f 16/16/16 14/14/14 13/13/13 
f 15/15/15 17/17/17 18/18/18 
f 18/18/18 16/16/16 15/15/15 
f 4/4/4 3/3/3 19/19/19 
f 19/19/19 20/20/20 4/4/4 
f 3/3/3 6/6/6 21/21/21 
f 21/21/21 19/19/19 3/3/3 
f 6/6/6 8/8/8 22/22/22 
f 22/22/22 21/21/21 6/6/6 
f 8/8/8 10/10/10 23/23/23 
f 23/23/23 22/22/22 8/8/8 
f 10/10/10 12/12/12 24/24/24 
f 24/24/24 23/23/23 10/10/10 
f 12/12/12 14/14/14 25/25/25 
f 25/25/25 24/24/24 12/12/12 
f 14/14/14 16/16/16 26/26/26 
f 26/26/26 25/25/25 14/14/14 
f 16/16/16 18/18/18 27/27/27 
f 27/27/27 26/26/26 16/16/16 
f 20/20/20 19/19/19 28/28/28 
f 28/28/28 29/29/29 20/20/20 
f 19/19/19 21/21/21 30/30/30 
f 30/30/30 28/28/28 19/19/19 
f 21/21/21 22/22/22 31/31/31 
f 31/31/31 30/30/30 21/21/21 
f 22/22/22 23/23/23 32/32/32 
f 32/32/32 31/31/31 22/22/22 
f 23/23/23 24/24/24 33/33/33 
f 33/33/33 32/32/32 23/23/23 
f 24/24/24 25/25/25 34/34/34 
f 34/34/34 33/33/33 24/24/24 
f 25/25/25 26/26/26 35/35/35 
f 35/35/35 34/34/34 25/25/25 
f 26/26/26 27/27/27 36/36/36 
f 36/36/36 35/35/35 26/26/26 
f 29/29/29 28/28/28 37/37/37 
f 37/37/37 38/38/38 29/29/29 
f 28/28/28 30/30/30 39/39/39 
f 39/39/39 37/37/37 28/28/28 
f 30/30/30 31/31/31 40/40/40 
f 40/40/40 39/39/39 30/30/30 
f 31/31/31 32/32/32 41/41/41 
f 41/41/41 40/40/40 31/31/31 
f 32/32/32 33/33/33 42/42/42 
f 42/42/42 41/41/41 32/32/32 
f 33/33/33 34/34/34 43/43/43 
f 43/43/43 42/42/42 33/33/33 
f 34/34/34 35/35/35 44/44/44 
f 44/44/44 43/43/43 34/34/34 
f 35/35/35 36/36/36 45/45/45 
f 45/45/45 44/44/44 35/35/35 
f 38/38/38 37/37/37 46/46/46 
f 46/46/46 47/47/47 38/38/38 
f 37/37/37 39/39/39 48/48/48 
f 48/48/48 46/46/46 37/37/37 
f 39/39/39 40/40/40 49/49/49 
f 49/49/49 48/48/48 39/39/39 
f 40/40/40 41/41/41 50/50/50 
f 50/50/50 49/49/49 40/40/40 
f 41/41/41 42/42/42 51/51/51 
f 51/51/51 50/50/50 41/41/41 
f 42/42/42 43/43/43 52/52/52 
f 52/52/52 51/51/51 42/42/42 
f 43/43/43 44/44/44 53/53/53 
f 53/53/53 52/52/52 43/43/43 
f 44/44/44 45/45/45 54/54/54 
f 54/54/54 53/53/53 44/44/44 
f 47/47/47 46/46/46 55/55/55 
f 55/55/55 56/56/56 47/47/47 
f 46/46/46 48/48/48 57/57/57 
f 57/57/57 55/55/55 46/46/46 
f 48/48/48 49/49/49 58/58/58 
f 58/58/58 57/57/57 48/48/48 
f 49/49/49 50/50/50 59/59/59 
f 59/59/59 58/58/58 49/49/49 
f 50/50/50 51/51/51 60/60/60 
f 60/60/60 59/59/59 50/50/50 
f 51/51/51 52/52/52 61/61/61 
f 61/61/61 60/60/60 51/51/51 
f 52/52/52 53/53/53 62/62/62 
f 62/62/62 61/61/61 52/52/52 
f 53/53/53 54/54/54 63/63/63 
f 63/63/63 62/62/62 53/53/53 
f 56/56/56 55/55/55 64/64/64 
f 64/64/64 65/65/65 56/56/56 
f 55/55/55 57/57/57 66/66/66 
f 66/66/66 64/64/64 55/55/55 
f 57/57/57 58/58/58 67/67/67 
f 67/67/67 66/66/66 57/57/57 
f 58/58/58 59/59/59 68/68/68 
f 68/68/68 67/67/67 58/58/58 
f 59/59/59 60/60/60 69/69/69 
f 69/69/69 68/68/68 59/59/59 
f 60/60/60 61/61/61 70/70/70 
f 70/70/70 69/69/69 60/60/60 
f 61/61/61 62/62/62 71/71/71 
f 71/71/71 70/70/70 61/61/61 
f 62/62/62 63/63/63 72/72/72 
f 72/72/72 71/71/71 62/62/62 
f 65/65/65 64/64/64 73/73/73 
f 73/73/73 74/74/74 65/65/65 
f 64/64/64 66/66/66 75/75/75 
f 75/75/75 73/73/73 64/64/64 
f 66/66/66 67/67/67 76/76/76 
f 76/76/76 75/75/75 66/66/66 
f 67/67/67 68/68/68 77/77/77 
f 77/77/77 76/76/76 67/67/67 
f 68/68/68 69/69/69 78/78/78 
f 78/78/78 77/77/77 68/68/68 
f 69/69/69 70/70/70 79/79/79 
f 79/79/79 78/78/78 69/69/69 
f 70/70/70 71/71/71 80/80/80 
f 80/80/80 79/79/79 70/70/70 
f 71/71/71 72/72/72 81/81/81 
f 81/81/81 80/80/80 71/71/71 
# 128 faces

