# 3ds Max Wavefront OBJ Exporter v0.97b - (c)2007 guruware
# File Created: 11.04.2016 21:38:12

mtllib divider.mtl

#
# object Box005
#

v  -128.0000 0.0000 -7.3941
v  0.0000 0.0000 -7.3941
v  0.0000 0.0000 7.3941
v  -128.0000 0.0000 7.3941
v  0.0000 435.3994 7.3941
v  0.0000 435.3994 -7.3941
v  -128.0000 435.3994 -7.3941
v  -128.0000 435.3994 7.3941
v  0.0000 16.8633 6.2194
v  -0.0000 217.6997 6.2194
v  -111.1367 217.6997 6.2194
v  -111.1367 16.8633 6.2194
v  128.0000 0.0000 -7.3941
v  128.0000 217.6997 -7.3941
v  128.0000 217.6997 7.3941
v  128.0000 0.0000 7.3941
v  0.0000 16.8633 -6.2194
v  0.0000 217.6997 -6.2194
v  111.1367 217.6997 -6.2194
v  111.1367 16.8633 -6.2194
v  -128.0000 217.6997 7.3941
v  -128.0000 217.6997 -7.3941
v  0.0000 12.8487 7.3941
v  -115.1513 12.8487 7.3941
v  115.1513 217.6997 7.3941
v  115.1513 12.8487 7.3941
v  0.0000 422.5508 7.3941
v  115.1513 422.5508 7.3941
v  128.0000 435.3994 7.3941
v  -115.1513 217.6997 7.3941
v  -115.1513 422.5508 7.3941
v  0.0000 12.8487 -7.3941
v  115.1513 12.8487 -7.3941
v  -115.1513 217.6997 -7.3941
v  -115.1513 12.8487 -7.3941
v  0.0000 422.5508 -7.3941
v  -115.1513 422.5508 -7.3941
v  115.1513 217.6997 -7.3941
v  115.1513 422.5508 -7.3941
v  128.0000 435.3994 -7.3941
v  111.1367 217.6997 6.2194
v  111.1367 16.8633 6.2194
v  0.0000 418.5362 6.2194
v  111.1367 418.5362 6.2194
v  -111.1367 418.5362 6.2194
v  -111.1367 217.6997 -6.2194
v  -111.1367 16.8633 -6.2194
v  0.0000 418.5362 -6.2194
v  -111.1367 418.5362 -6.2194
v  111.1367 418.5362 -6.2194
# 50 vertices

vn 0.0000 -1.0000 -0.0000
vn 0.0000 1.0000 -0.0000
vn 0.0000 0.1418 0.9899
vn 0.0000 0.0000 1.0000
vn 0.1418 0.0000 0.9899
vn 0.1071 0.1071 0.9885
vn 1.0000 0.0000 -0.0000
vn 0.0000 0.1418 -0.9899
vn 0.0000 0.0000 -1.0000
vn -0.1418 0.0000 -0.9899
vn -0.1071 0.1071 -0.9885
vn -1.0000 0.0000 -0.0000
vn 0.0361 0.0361 0.9987
vn -0.1418 0.0000 0.9899
vn -0.0361 0.0361 0.9987
vn 0.0000 -0.1418 0.9899
vn -0.0361 -0.0361 0.9987
vn 0.0361 -0.0361 0.9987
vn -0.0000 0.1418 -0.9899
vn -0.0361 0.0361 -0.9987
vn 0.1418 0.0000 -0.9899
vn 0.0361 0.0361 -0.9987
vn 0.0000 -0.1418 -0.9899
vn 0.0361 -0.0361 -0.9987
vn -0.0361 -0.0361 -0.9987
vn -0.1071 0.1071 0.9885
vn -0.1071 -0.1071 0.9885
vn 0.1071 -0.1071 0.9885
vn 0.1071 0.1071 -0.9885
vn 0.1071 -0.1071 -0.9885
vn -0.1071 -0.1071 -0.9885
# 31 vertex normals

vt 0.5628 0.4310 0.0000
vt 0.5628 0.2937 0.0000
vt 0.5787 0.2937 0.0000
vt 0.5787 0.4310 0.0000
vt 0.5363 0.2937 0.0000
vt 0.5522 0.2937 0.0000
vt 0.5522 0.4310 0.0000
vt 0.5363 0.4310 0.0000
vt 0.1393 0.9800 0.0000
vt 0.1393 0.7645 0.0000
vt 0.2585 0.7645 0.0000
vt 0.2585 0.9800 0.0000
vt 0.7136 0.4883 0.0000
vt 0.7136 0.2547 0.0000
vt 0.7295 0.2547 0.0000
vt 0.7295 0.4883 0.0000
vt 0.4144 0.9800 0.0000
vt 0.4144 0.7645 0.0000
vt 0.5336 0.7645 0.0000
vt 0.5336 0.9800 0.0000
vt 0.6553 0.4883 0.0000
vt 0.6553 0.2547 0.0000
vt 0.6712 0.2547 0.0000
vt 0.6712 0.4883 0.0000
vt 0.4754 0.4894 0.0000
vt 0.4754 0.4756 0.0000
vt 0.5996 0.4756 0.0000
vt 0.6134 0.4894 0.0000
vt 0.3374 0.2547 0.0000
vt 0.3513 0.2547 0.0000
vt 0.3513 0.4756 0.0000
vt 0.3374 0.4894 0.0000
vt 0.4754 0.0200 0.0000
vt 0.4754 0.0339 0.0000
vt 0.3513 0.0339 0.0000
vt 0.3374 0.0200 0.0000
vt 0.6134 0.2547 0.0000
vt 0.5996 0.2547 0.0000
vt 0.5996 0.0339 0.0000
vt 0.6134 0.0200 0.0000
vt 0.1580 0.4894 0.0000
vt 0.1580 0.4756 0.0000
vt 0.2822 0.4756 0.0000
vt 0.2960 0.4894 0.0000
vt 0.0200 0.2547 0.0000
vt 0.0339 0.2547 0.0000
vt 0.0339 0.4756 0.0000
vt 0.0200 0.4894 0.0000
vt 0.1580 0.0200 0.0000
vt 0.1580 0.0339 0.0000
vt 0.0339 0.0339 0.0000
vt 0.0200 0.0200 0.0000
vt 0.2960 0.2547 0.0000
vt 0.2822 0.2547 0.0000
vt 0.2822 0.0339 0.0000
vt 0.2960 0.0200 0.0000
vt 0.4754 0.4712 0.0000
vt 0.5952 0.4712 0.0000
vt 0.3556 0.2547 0.0000
vt 0.3556 0.4712 0.0000
vt 0.4754 0.0382 0.0000
vt 0.3556 0.0382 0.0000
vt 0.5952 0.2547 0.0000
vt 0.5952 0.0382 0.0000
vt 0.1580 0.4712 0.0000
vt 0.2778 0.4712 0.0000
vt 0.0382 0.2547 0.0000
vt 0.0382 0.4712 0.0000
vt 0.1580 0.0382 0.0000
vt 0.0382 0.0382 0.0000
vt 0.2778 0.2547 0.0000
vt 0.2778 0.0382 0.0000
vt 0.0200 0.5490 0.0000
vt 0.1393 0.5490 0.0000
vt 0.0200 0.7645 0.0000
vt 0.7136 0.0211 0.0000
vt 0.7295 0.0211 0.0000
vt 0.2951 0.5490 0.0000
vt 0.4144 0.5490 0.0000
vt 0.2951 0.7645 0.0000
vt 0.6553 0.0211 0.0000
vt 0.6712 0.0211 0.0000
vt 0.5628 0.1563 0.0000
vt 0.5787 0.1563 0.0000
vt 0.5363 0.1563 0.0000
vt 0.5522 0.1563 0.0000
vt 0.0200 0.9800 0.0000
vt 0.2951 0.9800 0.0000
vt 0.2585 0.5490 0.0000
vt 0.5336 0.5490 0.0000
# 90 texture coords

g Box005
usemtl wire_006135058
s 1
f 1/1/1 2/2/1 3/3/1 
f 3/3/1 4/4/1 1/1/1 
f 5/5/2 6/6/2 7/7/2 
f 7/7/2 8/8/2 5/5/2 
s 2
f 9/9/3 10/10/4 11/11/5 
f 11/11/5 12/12/6 9/9/3 
s 4
f 13/13/7 14/14/7 15/15/7 
f 15/15/7 16/16/7 13/13/7 
s 2
f 17/17/8 18/18/9 19/19/10 
f 19/19/10 20/20/11 17/17/8 
s 4
f 4/21/12 21/22/12 22/23/12 
f 22/23/12 1/24/12 4/21/12 
s 2
f 3/25/4 23/26/3 24/27/13 
f 24/27/13 4/28/4 3/25/4 
f 15/29/4 25/30/14 26/31/15 
f 26/31/15 16/32/4 15/29/4 
f 5/33/4 27/34/16 28/35/17 
f 28/35/17 29/36/4 5/33/4 
f 21/37/4 30/38/5 31/39/18 
f 31/39/18 8/40/4 21/37/4 
f 2/41/9 32/42/19 33/43/20 
f 33/43/20 13/44/9 2/41/9 
f 22/45/9 34/46/21 35/47/22 
f 35/47/22 1/48/9 22/45/9 
f 6/49/9 36/50/23 37/51/24 
f 37/51/24 7/52/9 6/49/9 
f 14/53/9 38/54/10 39/55/25 
f 39/55/25 40/56/9 14/53/9 
f 23/26/3 9/57/3 12/58/6 
f 12/58/6 24/27/13 23/26/3 
f 25/30/14 41/59/14 42/60/26 
f 42/60/26 26/31/15 25/30/14 
f 27/34/16 43/61/16 44/62/27 
f 44/62/27 28/35/17 27/34/16 
f 30/38/5 11/63/5 45/64/28 
f 45/64/28 31/39/18 30/38/5 
f 32/42/19 17/65/8 20/66/11 
f 20/66/11 33/43/20 32/42/19 
f 34/46/21 46/67/21 47/68/29 
f 47/68/29 35/47/22 34/46/21 
f 36/50/23 48/69/23 49/70/30 
f 49/70/30 37/51/24 36/50/23 
f 38/54/10 19/71/10 50/72/31 
f 50/72/31 39/55/25 38/54/10 
f 44/73/27 43/74/16 10/10/4 
f 10/10/4 41/75/14 44/73/27 
s 4
f 40/76/7 29/77/7 15/15/7 
f 15/15/7 14/14/7 40/76/7 
s 2
f 49/78/30 48/79/23 18/18/9 
f 18/18/9 46/80/21 49/78/30 
s 4
f 8/81/12 7/82/12 22/23/12 
f 22/23/12 21/22/12 8/81/12 
s 2
f 15/29/4 29/36/4 28/35/17 
f 28/35/17 25/30/14 15/29/4 
f 21/37/4 4/28/4 24/27/13 
f 24/27/13 30/38/5 21/37/4 
f 22/45/9 7/52/9 37/51/24 
f 37/51/24 34/46/21 22/45/9 
f 14/53/9 13/44/9 33/43/20 
f 33/43/20 38/54/10 14/53/9 
f 25/30/14 28/35/17 44/62/27 
f 44/62/27 41/59/14 25/30/14 
f 30/38/5 24/27/13 12/58/6 
f 12/58/6 11/63/5 30/38/5 
f 34/46/21 37/51/24 49/70/30 
f 49/70/30 46/67/21 34/46/21 
f 38/54/10 33/43/20 20/66/11 
f 20/66/11 19/71/10 38/54/10 
s 1
f 13/83/1 16/84/1 3/3/1 
f 3/3/1 2/2/1 13/83/1 
f 29/85/2 40/86/2 6/6/2 
f 6/6/2 5/5/2 29/85/2 
s 2
f 42/87/26 41/75/14 10/10/4 
f 10/10/4 9/9/3 42/87/26 
f 47/88/29 46/80/21 18/18/9 
f 18/18/9 17/17/8 47/88/29 
f 3/25/4 16/32/4 26/31/15 
f 26/31/15 23/26/3 3/25/4 
f 5/33/4 8/40/4 31/39/18 
f 31/39/18 27/34/16 5/33/4 
f 2/41/9 1/48/9 35/47/22 
f 35/47/22 32/42/19 2/41/9 
f 6/49/9 40/56/9 39/55/25 
f 39/55/25 36/50/23 6/49/9 
f 23/26/3 26/31/15 42/60/26 
f 42/60/26 9/57/3 23/26/3 
f 27/34/16 31/39/18 45/64/28 
f 45/64/28 43/61/16 27/34/16 
f 32/42/19 35/47/22 47/68/29 
f 47/68/29 17/65/8 32/42/19 
f 36/50/23 39/55/25 50/72/31 
f 50/72/31 48/69/23 36/50/23 
f 45/89/28 11/11/5 10/10/4 
f 10/10/4 43/74/16 45/89/28 
f 50/90/31 19/19/10 18/18/9 
f 18/18/9 48/79/23 50/90/31 
# 96 faces

