# 3ds Max Wavefront OBJ Exporter v0.97b - (c)2007 guruware
# File Created: 11.04.2016 23:17:47

mtllib targetShard0.mtl

#
# object target
#

v  0.0000 -39.6444 -0.0000
v  15.1712 -36.6266 -0.0000
v  15.1712 -36.6266 3.5316
v  0.0000 -39.6444 3.5316
v  28.0328 -28.0328 -0.0000
v  28.0328 -28.0328 3.5316
v  36.6266 -15.1713 -0.0000
v  36.6266 -15.1713 3.5316
v  39.6444 0.0000 -0.0000
v  39.6444 0.0000 3.5316
v  36.6266 15.1713 -0.0000
v  36.6266 15.1713 3.5316
v  28.0328 28.0328 -0.0000
v  28.0328 28.0328 3.5316
v  15.1712 36.6266 -0.0000
v  15.1712 36.6266 3.5316
v  19.3897 19.3897 -5.1152
v  25.3339 10.4937 -5.1152
v  27.4212 0.0000 -5.1152
v  25.3339 -10.4937 -5.1152
v  19.3897 -19.3897 -5.1152
v  10.4936 -25.3339 -5.1152
v  0.0000 -27.4212 -5.1152
v  0.0000 27.4212 -5.1152
v  10.4936 25.3339 -5.1152
v  -10.4936 -25.3339 8.6469
v  0.0000 -27.4212 8.6469
v  10.4936 -25.3339 8.6469
v  19.3897 -19.3897 8.6469
v  25.3339 -10.4937 8.6469
v  27.4212 0.0000 8.6469
v  25.3339 10.4937 8.6469
v  19.3897 19.3897 8.6469
v  10.4936 25.3339 8.6469
v  26.1823 26.1823 -3.3410
v  14.1698 34.2089 -3.3410
v  34.2089 14.1698 -3.3410
v  37.0274 0.0000 -3.3410
v  34.2089 -14.1698 -3.3410
v  26.1823 -26.1823 -3.3410
v  14.1698 -34.2089 -3.3410
v  0.0000 -37.0274 -3.3410
v  14.1698 -34.2089 6.8726
v  0.0000 -37.0274 6.8726
v  26.1823 -26.1823 6.8726
v  34.2089 -14.1698 6.8726
v  37.0274 0.0000 6.8726
v  34.2089 14.1698 6.8726
v  26.1823 26.1823 6.8726
v  14.1698 34.2089 6.8726
# 50 vertices

vn 0.0000 -0.9493 -0.3143
vn 0.3633 -0.8771 -0.3143
vn 0.3633 -0.8771 0.3143
vn 0.0000 -0.9493 0.3143
vn 0.6713 -0.6713 -0.3143
vn 0.6713 -0.6713 0.3143
vn 0.8771 -0.3633 -0.3143
vn 0.8771 -0.3633 0.3143
vn 0.9493 0.0000 -0.3143
vn 0.9493 0.0000 0.3143
vn 0.8771 0.3633 -0.3143
vn 0.8771 0.3633 0.3143
vn 0.6713 0.6713 -0.3143
vn 0.6713 0.6713 0.3143
vn 0.3633 0.8771 -0.3143
vn 0.3633 0.8771 0.3143
vn 0.0725 0.0725 -0.9947
vn 0.0947 0.0392 -0.9947
vn 0.1025 0.0000 -0.9947
vn 0.0947 -0.0392 -0.9947
vn 0.0725 -0.0725 -0.9947
vn 0.0392 -0.0947 -0.9947
vn 0.0000 -0.1025 -0.9947
vn 0.0000 0.1025 -0.9947
vn 0.0392 0.0947 -0.9947
vn -0.0392 -0.0947 0.9947
vn 0.0000 -0.1025 0.9947
vn 0.0392 -0.0947 0.9947
vn 0.0725 -0.0725 0.9947
vn 0.0947 -0.0392 0.9947
vn 0.1025 0.0000 0.9947
vn 0.0947 0.0392 0.9947
vn 0.0725 0.0725 0.9947
vn 0.0392 0.0947 0.9947
vn 0.3881 0.3881 -0.8359
vn 0.2100 0.5071 -0.8359
vn 0.5071 0.2100 -0.8359
vn 0.5489 0.0000 -0.8359
vn 0.5071 -0.2100 -0.8359
vn 0.3881 -0.3881 -0.8359
vn 0.2100 -0.5071 -0.8359
vn 0.0000 -0.5489 -0.8359
vn 0.2100 -0.5071 0.8359
vn 0.0000 -0.5489 0.8359
vn 0.3881 -0.3881 0.8359
vn 0.5071 -0.2100 0.8359
vn 0.5489 0.0000 0.8359
vn 0.5071 0.2100 0.8359
vn 0.3881 0.3881 0.8359
vn 0.2100 0.5071 0.8359
vn -0.9239 0.3827 -0.0000
vn 0.1951 0.9808 -0.0000
vn -0.9808 0.1951 -0.0000
vn -0.1951 -0.9808 -0.0000
vn -1.0000 0.0000 -0.0000
# 55 vertex normals

vt 0.1614 0.2126 0.0000
vt 0.2379 0.2126 0.0000
vt 0.2379 0.2304 0.0000
vt 0.1614 0.2304 0.0000
vt 0.3028 0.2126 0.0000
vt 0.3028 0.2304 0.0000
vt 0.0200 0.2838 0.0000
vt 0.0849 0.2838 0.0000
vt 0.0849 0.3017 0.0000
vt 0.0200 0.3017 0.0000
vt 0.1614 0.2838 0.0000
vt 0.1614 0.3017 0.0000
vt 0.2379 0.2838 0.0000
vt 0.2379 0.3017 0.0000
vt 0.3028 0.2838 0.0000
vt 0.3028 0.3017 0.0000
vt 0.3091 0.2126 0.0000
vt 0.3739 0.2126 0.0000
vt 0.3739 0.2304 0.0000
vt 0.3091 0.2304 0.0000
vt 0.2150 0.9607 0.0000
vt 0.1694 0.9798 0.0000
vt 0.1200 0.9800 0.0000
vt 0.0743 0.9613 0.0000
vt 0.0393 0.9265 0.0000
vt 0.0202 0.8810 0.0000
vt 0.0200 0.8316 0.0000
vt 0.2685 0.8800 0.0000
vt 0.2498 0.9257 0.0000
vt 0.2831 0.8810 0.0000
vt 0.2830 0.8316 0.0000
vt 0.3017 0.7859 0.0000
vt 0.3364 0.7508 0.0000
vt 0.3820 0.7317 0.0000
vt 0.4314 0.7315 0.0000
vt 0.4771 0.7502 0.0000
vt 0.5121 0.7850 0.0000
vt 0.5312 0.8306 0.0000
vt 0.0294 0.1541 0.0000
vt 0.1012 0.1459 0.0000
vt 0.1011 0.1657 0.0000
vt 0.0340 0.1734 0.0000
vt 0.1695 0.1550 0.0000
vt 0.1648 0.1743 0.0000
vt 0.1614 0.2670 0.0000
vt 0.2329 0.2670 0.0000
vt 0.0899 0.2670 0.0000
vt 0.0294 0.0282 0.0000
vt 0.1012 0.0200 0.0000
vt 0.1011 0.0398 0.0000
vt 0.0340 0.0475 0.0000
vt 0.1695 0.0291 0.0000
vt 0.1648 0.0484 0.0000
vt 0.1614 0.1957 0.0000
vt 0.2329 0.1957 0.0000
vt 0.2329 0.2473 0.0000
vt 0.1614 0.2473 0.0000
vt 0.1695 0.1031 0.0000
vt 0.0977 0.1113 0.0000
vt 0.0978 0.0915 0.0000
vt 0.1649 0.0838 0.0000
vt 0.0294 0.1022 0.0000
vt 0.0340 0.0829 0.0000
vt 0.1614 0.3185 0.0000
vt 0.0899 0.3185 0.0000
vt 0.2329 0.3185 0.0000
vt 0.3460 0.1661 0.0000
vt 0.2742 0.1743 0.0000
vt 0.2743 0.1544 0.0000
vt 0.3414 0.1468 0.0000
vt 0.2059 0.1651 0.0000
vt 0.2105 0.1459 0.0000
vt 0.7013 0.5962 0.0000
vt 0.6539 0.6440 0.0000
vt 0.6289 0.6069 0.0000
vt 0.6640 0.5715 0.0000
vt 0.5919 0.6700 0.0000
vt 0.5830 0.6262 0.0000
vt 0.5246 0.6703 0.0000
vt 0.5331 0.6264 0.0000
vt 0.4623 0.6448 0.0000
vt 0.4870 0.6075 0.0000
vt 0.4146 0.5974 0.0000
vt 0.4517 0.5724 0.0000
vt 0.3886 0.5353 0.0000
vt 0.4324 0.5264 0.0000
vt 0.3883 0.4681 0.0000
vt 0.4322 0.4766 0.0000
vt 0.0317 0.4681 0.0000
vt 0.0572 0.4058 0.0000
vt 0.0944 0.4305 0.0000
vt 0.0756 0.4766 0.0000
vt 0.1045 0.3581 0.0000
vt 0.1295 0.3951 0.0000
vt 0.1666 0.3321 0.0000
vt 0.1755 0.3759 0.0000
vt 0.2338 0.3318 0.0000
vt 0.2253 0.3757 0.0000
vt 0.2961 0.3573 0.0000
vt 0.2714 0.3946 0.0000
vt 0.3439 0.4047 0.0000
vt 0.3068 0.4297 0.0000
vt 0.3698 0.4667 0.0000
vt 0.3260 0.4756 0.0000
vt 0.4919 0.9409 0.0000
vt 0.3995 0.7437 0.0000
vt 0.4466 0.7680 0.0000
vt 0.4466 0.7629 0.0000
vt 0.3487 0.7516 0.0000
vt 0.4108 0.9683 0.0000
vt 0.4162 0.9552 0.0000
vt 0.4204 0.9554 0.0000
vt 0.3446 0.9412 0.0000
vt 0.4204 0.9412 0.0000
vt 0.3854 0.7581 0.0000
vt 0.3854 0.7629 0.0000
vt 0.3854 0.7680 0.0000
vt 0.3854 0.7729 0.0000
# 118 texture coords

g target
usemtl wire_006135058
s 1
f 1/1/1 2/2/2 3/3/3 
f 3/3/3 4/4/4 1/1/1 
f 2/2/2 5/5/5 6/6/6 
f 6/6/6 3/3/3 2/2/2 
f 5/7/5 7/8/7 8/9/8 
f 8/9/8 6/10/6 5/7/5 
f 7/8/7 9/11/9 10/12/10 
f 10/12/10 8/9/8 7/8/7 
f 9/11/9 11/13/11 12/14/12 
f 12/14/12 10/12/10 9/11/9 
f 11/13/11 13/15/13 14/16/14 
f 14/16/14 12/14/12 11/13/11 
f 13/17/13 15/18/15 16/19/16 
f 16/19/16 14/20/14 13/17/13 
f 17/21/17 18/22/18 19/23/19 
f 19/23/19 20/24/20 21/25/21 
f 21/25/21 22/26/22 23/27/23 
f 19/23/19 21/25/21 23/27/23 
f 19/23/19 23/27/23 24/28/24 
f 17/21/17 19/23/19 24/28/24 
f 25/29/25 17/21/17 24/28/24 
f 26/30/26 27/31/27 28/32/28 
f 28/32/28 29/33/29 30/34/30 
f 26/30/26 28/32/28 30/34/30 
f 30/34/30 31/35/31 32/36/32 
f 32/36/32 33/37/33 34/38/34 
f 30/34/30 32/36/32 34/38/34 
f 26/30/26 30/34/30 34/38/34 
f 15/39/15 13/40/13 35/41/35 
f 35/41/35 36/42/36 15/39/15 
f 13/40/13 11/43/11 37/44/37 
f 37/44/37 35/41/35 13/40/13 
f 11/13/11 9/11/9 38/45/38 
f 38/45/38 37/46/37 11/13/11 
f 9/11/9 7/8/7 39/47/39 
f 39/47/39 38/45/38 9/11/9 
f 7/48/7 5/49/5 40/50/40 
f 40/50/40 39/51/39 7/48/7 
f 5/49/5 2/52/2 41/53/41 
f 41/53/41 40/50/40 5/49/5 
f 2/2/2 1/1/1 42/54/42 
f 42/54/42 41/55/41 2/2/2 
f 4/4/4 3/3/3 43/56/43 
f 43/56/43 44/57/44 4/4/4 
f 3/58/3 6/59/6 45/60/45 
f 45/60/45 43/61/43 3/58/3 
f 6/59/6 8/62/8 46/63/46 
f 46/63/46 45/60/45 6/59/6 
f 8/9/8 10/12/10 47/64/47 
f 47/64/47 46/65/46 8/9/8 
f 10/12/10 12/14/12 48/66/48 
f 48/66/48 47/64/47 10/12/10 
f 12/67/12 14/68/14 49/69/49 
f 49/69/49 48/70/48 12/67/12 
f 14/68/14 16/71/16 50/72/50 
f 50/72/50 49/69/49 14/68/14 
f 36/73/36 35/74/35 17/75/17 
f 17/75/17 25/76/25 36/73/36 
f 35/74/35 37/77/37 18/78/18 
f 18/78/18 17/75/17 35/74/35 
f 37/77/37 38/79/38 19/80/19 
f 19/80/19 18/78/18 37/77/37 
f 38/79/38 39/81/39 20/82/20 
f 20/82/20 19/80/19 38/79/38 
f 39/81/39 40/83/40 21/84/21 
f 21/84/21 20/82/20 39/81/39 
f 40/83/40 41/85/41 22/86/22 
f 22/86/22 21/84/21 40/83/40 
f 41/85/41 42/87/42 23/88/23 
f 23/88/23 22/86/22 41/85/41 
f 44/89/44 43/90/43 28/91/28 
f 28/91/28 27/92/27 44/89/44 
f 43/90/43 45/93/45 29/94/29 
f 29/94/29 28/91/28 43/90/43 
f 45/93/45 46/95/46 30/96/30 
f 30/96/30 29/94/29 45/93/45 
f 46/95/46 47/97/47 31/98/31 
f 31/98/31 30/96/30 46/95/46 
f 47/97/47 48/99/48 32/100/32 
f 32/100/32 31/98/31 47/97/47 
f 48/99/48 49/101/49 33/102/33 
f 33/102/33 32/100/32 48/99/48 
f 49/101/49 50/103/50 34/104/34 
f 34/104/34 33/102/33 49/101/49 
s off
f 34/105/51 50/106/51 16/107/51 
f 16/107/51 15/108/51 36/109/51 
f 34/105/51 16/107/51 36/109/51 
f 25/110/51 34/105/51 36/109/51 
f 24/111/52 34/105/52 25/110/52 
f 26/112/53 34/105/53 24/111/53 
f 24/111/53 23/113/53 26/112/53 
f 27/114/54 26/112/54 23/113/54 
f 23/113/55 42/115/55 1/116/55 
f 1/116/55 4/117/55 44/118/55 
f 23/113/55 1/116/55 44/118/55 
f 27/114/55 23/113/55 44/118/55 
# 96 faces

