# 3ds Max Wavefront OBJ Exporter v0.97b - (c)2007 guruware
# File Created: 20.07.2015 10:34:37

mtllib cube_cage.mtl

#
# object Box026
#

v  -12.5000 4.0000 12.5000
v  -9.6716 2.8284 12.5000
v  -12.5000 2.8284 9.6716
v  -8.5000 0.0000 12.5000
v  -9.6716 0.0000 9.6716
v  -12.5000 0.0000 8.5000
v  -15.3284 2.8284 12.5000
v  -15.3284 0.0000 9.6716
v  -16.5000 0.0000 12.5000
v  -12.5000 2.8284 15.3284
v  -15.3284 0.0000 15.3284
v  -12.5000 0.0000 16.5000
v  -9.6716 0.0000 15.3284
v  -12.5000 -4.0000 12.5000
v  -12.5000 -2.8284 9.6716
v  -9.6716 -2.8284 12.5000
v  -15.3284 -2.8284 12.5000
v  -12.5000 -2.8284 15.3284
v  12.5000 4.0000 12.5000
v  15.3284 2.8284 12.5000
v  12.5000 2.8284 9.6716
v  16.5000 0.0000 12.5000
v  15.3284 0.0000 9.6716
v  12.5000 0.0000 8.5000
v  9.6716 2.8284 12.5000
v  9.6716 0.0000 9.6716
v  8.5000 0.0000 12.5000
v  12.5000 2.8284 15.3284
v  9.6716 0.0000 15.3284
v  12.5000 0.0000 16.5000
v  15.3284 0.0000 15.3284
v  12.5000 -4.0000 12.5000
v  12.5000 -2.8284 9.6716
v  15.3284 -2.8284 12.5000
v  9.6716 -2.8284 12.5000
v  12.5000 -2.8284 15.3284
v  -12.5000 4.0000 -12.5000
v  -9.6716 2.8284 -12.5000
v  -12.5000 2.8284 -15.3284
v  -8.5000 0.0000 -12.5000
v  -9.6716 0.0000 -15.3284
v  -12.5000 0.0000 -16.5000
v  -15.3284 2.8284 -12.5000
v  -15.3284 0.0000 -15.3284
v  -16.5000 0.0000 -12.5000
v  -12.5000 2.8284 -9.6716
v  -15.3284 0.0000 -9.6716
v  -12.5000 0.0000 -8.5000
v  -9.6716 0.0000 -9.6716
v  -12.5000 -4.0000 -12.5000
v  -12.5000 -2.8284 -15.3284
v  -9.6716 -2.8284 -12.5000
v  -15.3284 -2.8284 -12.5000
v  -12.5000 -2.8284 -9.6716
v  12.5000 4.0000 -12.5000
v  15.3284 2.8284 -12.5000
v  12.5000 2.8284 -15.3284
v  16.5000 0.0000 -12.5000
v  15.3284 0.0000 -15.3284
v  12.5000 0.0000 -16.5000
v  9.6716 2.8284 -12.5000
v  9.6716 0.0000 -15.3284
v  8.5000 0.0000 -12.5000
v  12.5000 2.8284 -9.6716
v  9.6716 0.0000 -9.6716
v  12.5000 0.0000 -8.5000
v  15.3284 0.0000 -9.6716
v  12.5000 -4.0000 -12.5000
v  12.5000 -2.8284 -15.3284
v  15.3284 -2.8284 -12.5000
v  9.6716 -2.8284 -12.5000
v  12.5000 -2.8284 -9.6716
v  -12.5000 29.0000 12.5000
v  -9.6716 27.8284 12.5000
v  -12.5000 27.8284 9.6716
v  -8.5000 25.0000 12.5000
v  -9.6716 25.0000 9.6716
v  -12.5000 25.0000 8.5000
v  -15.3284 27.8284 12.5000
v  -15.3284 25.0000 9.6716
v  -16.5000 25.0000 12.5000
v  -12.5000 27.8284 15.3284
v  -15.3284 25.0000 15.3284
v  -12.5000 25.0000 16.5000
v  -9.6716 25.0000 15.3284
v  -12.5000 21.0000 12.5000
v  -12.5000 22.1716 9.6716
v  -9.6716 22.1716 12.5000
v  -15.3284 22.1716 12.5000
v  -12.5000 22.1716 15.3284
v  12.5000 29.0000 12.5000
v  15.3284 27.8284 12.5000
v  12.5000 27.8284 9.6716
v  16.5000 25.0000 12.5000
v  15.3284 25.0000 9.6716
v  12.5000 25.0000 8.5000
v  9.6716 27.8284 12.5000
v  9.6716 25.0000 9.6716
v  8.5000 25.0000 12.5000
v  12.5000 27.8284 15.3284
v  9.6716 25.0000 15.3284
v  12.5000 25.0000 16.5000
v  15.3284 25.0000 15.3284
v  12.5000 21.0000 12.5000
v  12.5000 22.1716 9.6716
v  15.3284 22.1716 12.5000
v  9.6716 22.1716 12.5000
v  12.5000 22.1716 15.3284
v  -12.5000 29.0000 -12.5000
v  -9.6716 27.8284 -12.5000
v  -12.5000 27.8284 -15.3284
v  -8.5000 25.0000 -12.5000
v  -9.6716 25.0000 -15.3284
v  -12.5000 25.0000 -16.5000
v  -15.3284 27.8284 -12.5000
v  -15.3284 25.0000 -15.3284
v  -16.5000 25.0000 -12.5000
v  -12.5000 27.8284 -9.6716
v  -15.3284 25.0000 -9.6716
v  -12.5000 25.0000 -8.5000
v  -9.6716 25.0000 -9.6716
v  -12.5000 21.0000 -12.5000
v  -12.5000 22.1716 -15.3284
v  -9.6716 22.1716 -12.5000
v  -15.3284 22.1716 -12.5000
v  -12.5000 22.1716 -9.6716
v  12.5000 29.0000 -12.5000
v  15.3284 27.8284 -12.5000
v  12.5000 27.8284 -15.3284
v  16.5000 25.0000 -12.5000
v  15.3284 25.0000 -15.3284
v  12.5000 25.0000 -16.5000
v  9.6716 27.8284 -12.5000
v  9.6716 25.0000 -15.3284
v  8.5000 25.0000 -12.5000
v  12.5000 27.8284 -9.6716
v  9.6716 25.0000 -9.6716
v  12.5000 25.0000 -8.5000
v  15.3284 25.0000 -9.6716
v  12.5000 21.0000 -12.5000
v  12.5000 22.1716 -15.3284
v  15.3284 22.1716 -12.5000
v  9.6716 22.1716 -12.5000
v  12.5000 22.1716 -9.6716
v  -10.7679 -1.0000 -12.5000
v  -10.7679 -1.0000 12.5000
v  -12.5000 -2.0000 12.5000
v  -12.5000 -2.0000 -12.5000
v  -10.7679 1.0000 -12.5000
v  -10.7679 1.0000 12.5000
v  -12.5000 2.0000 -12.5000
v  -12.5000 2.0000 12.5000
v  -14.2321 1.0000 -12.5000
v  -14.2321 1.0000 12.5000
v  -14.2321 -1.0000 -12.5000
v  -14.2321 -1.0000 12.5000
v  12.5000 1.0000 -14.2321
v  -12.5000 1.0000 -14.2321
v  12.5000 2.0000 -12.5000
v  12.5000 -1.0000 -14.2321
v  -12.5000 -1.0000 -14.2321
v  12.5000 -2.0000 -12.5000
v  12.5000 -1.0000 -10.7679
v  -12.5000 -1.0000 -10.7679
v  12.5000 1.0000 -10.7679
v  -12.5000 1.0000 -10.7679
v  14.2321 1.0000 12.5000
v  14.2321 1.0000 -12.5000
v  12.5000 2.0000 12.5000
v  14.2321 -1.0000 12.5000
v  14.2321 -1.0000 -12.5000
v  12.5000 -2.0000 12.5000
v  10.7679 -1.0000 12.5000
v  10.7679 -1.0000 -12.5000
v  10.7679 1.0000 12.5000
v  10.7679 1.0000 -12.5000
v  -12.5000 -1.0000 10.7679
v  12.5000 -1.0000 10.7679
v  -12.5000 1.0000 10.7679
v  12.5000 1.0000 10.7679
v  -12.5000 1.0000 14.2321
v  12.5000 1.0000 14.2321
v  -12.5000 -1.0000 14.2321
v  12.5000 -1.0000 14.2321
v  12.5000 26.0000 10.7680
v  -12.5000 26.0000 10.7680
v  -12.5000 27.0000 12.5000
v  12.5000 27.0000 12.5000
v  12.5000 24.0000 10.7679
v  -12.5000 24.0000 10.7679
v  12.5000 23.0000 12.5000
v  -12.5000 23.0000 12.5000
v  12.5000 24.0000 14.2321
v  -12.5000 24.0000 14.2321
v  12.5000 26.0000 14.2321
v  -12.5000 26.0000 14.2321
v  14.2321 24.0000 -12.5000
v  14.2321 24.0000 12.5000
v  12.5000 23.0000 -12.5000
v  14.2321 26.0000 -12.5000
v  14.2321 26.0000 12.5000
v  12.5000 27.0000 -12.5000
v  10.7680 26.0000 -12.5000
v  10.7680 26.0000 12.5000
v  10.7679 24.0000 -12.5000
v  10.7679 24.0000 12.5000
v  -12.5000 24.0000 -14.2321
v  12.5000 24.0000 -14.2321
v  -12.5000 23.0000 -12.5000
v  -12.5000 26.0000 -14.2321
v  12.5000 26.0000 -14.2321
v  -12.5000 27.0000 -12.5000
v  -12.5000 26.0000 -10.7680
v  12.5000 26.0000 -10.7680
v  -12.5000 24.0000 -10.7679
v  12.5000 24.0000 -10.7679
v  -10.7680 26.0000 12.5000
v  -10.7680 26.0000 -12.5000
v  -10.7679 24.0000 12.5000
v  -10.7679 24.0000 -12.5000
v  -14.2321 24.0000 12.5000
v  -14.2321 24.0000 -12.5000
v  -14.2321 26.0000 12.5000
v  -14.2321 26.0000 -12.5000
v  14.2321 25.0000 11.5000
v  14.2321 0.0000 11.5000
v  12.5000 0.0000 10.5000
v  12.5000 25.0000 10.5000
v  14.2321 25.0000 13.5000
v  14.2321 0.0000 13.5000
v  12.5000 25.0000 14.5000
v  12.5000 0.0000 14.5000
v  10.7679 25.0000 13.5000
v  10.7679 0.0000 13.5000
v  10.7679 25.0000 11.5000
v  10.7679 0.0000 11.5000
v  -10.7680 0.0000 13.5000
v  -10.7680 25.0000 13.5000
v  -12.5000 25.0000 14.5000
v  -12.5000 0.0000 14.5000
v  -10.7680 0.0000 11.5000
v  -10.7680 25.0000 11.5000
v  -12.5000 0.0000 10.5000
v  -12.5000 25.0000 10.5000
v  -14.2321 0.0000 11.5000
v  -14.2321 25.0000 11.5000
v  -14.2320 0.0000 13.5000
v  -14.2320 25.0000 13.5000
v  14.2321 25.0000 -13.5000
v  14.2321 0.0000 -13.5000
v  12.5000 0.0000 -14.5000
v  12.5000 25.0000 -14.5000
v  14.2321 25.0000 -11.5000
v  14.2321 0.0000 -11.5000
v  12.5000 25.0000 -10.5000
v  12.5000 0.0000 -10.5000
v  10.7680 25.0000 -11.5000
v  10.7680 0.0000 -11.5000
v  10.7680 25.0000 -13.5000
v  10.7680 0.0000 -13.5000
v  -10.7680 25.0000 -13.5000
v  -10.7680 0.0000 -13.5000
v  -12.5000 0.0000 -14.5000
v  -12.5000 25.0000 -14.5000
v  -10.7680 25.0000 -11.5000
v  -10.7680 0.0000 -11.5000
v  -12.5000 25.0000 -10.5000
v  -12.5000 0.0000 -10.5000
v  -14.2321 25.0000 -11.5000
v  -14.2321 0.0000 -11.5000
v  -14.2320 25.0000 -13.5000
v  -14.2320 0.0000 -13.5000
# 272 vertices

vn 0.3574 0.8629 -0.3574
vn 0.8629 0.3574 -0.3574
vn 0.5774 0.5774 -0.5774
vn 0.3574 0.3574 -0.8629
vn -0.3574 0.8629 -0.3574
vn -0.3574 0.3574 -0.8629
vn -0.5774 0.5774 -0.5774
vn -0.8629 0.3574 -0.3574
vn -0.3574 0.8629 0.3574
vn -0.8629 0.3574 0.3574
vn -0.5774 0.5774 0.5774
vn -0.3574 0.3574 0.8629
vn 0.3574 0.8629 0.3574
vn 0.3574 0.3574 0.8629
vn 0.5774 0.5774 0.5774
vn 0.8629 0.3574 0.3574
vn 0.3574 -0.8629 -0.3574
vn 0.3574 -0.3574 -0.8629
vn 0.5774 -0.5774 -0.5774
vn 0.8629 -0.3574 -0.3574
vn -0.3574 -0.8629 -0.3574
vn -0.8629 -0.3574 -0.3574
vn -0.5774 -0.5774 -0.5774
vn -0.3574 -0.3574 -0.8629
vn -0.3574 -0.8629 0.3574
vn -0.3574 -0.3574 0.8629
vn -0.5774 -0.5774 0.5774
vn -0.8629 -0.3574 0.3574
vn 0.3574 -0.8629 0.3574
vn 0.8629 -0.3574 0.3574
vn 0.5774 -0.5774 0.5774
vn 0.3574 -0.3574 0.8629
vn 0.5000 -0.8660 -0.0000
vn 1.0000 0.0000 -0.0000
vn 0.5000 0.8660 -0.0000
vn -0.5000 0.8660 -0.0000
vn -1.0000 0.0000 -0.0000
vn -0.5000 -0.8660 -0.0000
vn 0.0000 0.8660 -0.5000
vn 0.0000 0.0000 -1.0000
vn 0.0000 -0.8660 -0.5000
vn 0.0000 -0.8660 0.5000
vn 0.0000 0.0000 1.0000
vn 0.0000 0.8660 0.5000
vn 0.5000 0.0000 -0.8660
vn 0.5000 0.0000 0.8660
vn -0.5000 0.0000 0.8660
vn -0.5000 0.0000 -0.8660
vn -1.0000 0.0000 0.0000
# 49 vertex normals

vt 25.0000 0.0000 0.0000
vt 0.1333 0.1212 0.0000
vt 0.1333 0.0355 0.0000
vt 0.0391 0.1212 0.0000
vt 0.1333 0.2069 0.0000
vt 0.0391 0.0355 0.0000
vt 0.2069 0.1212 0.0000
vt 0.1212 0.0355 0.0000
vt 0.1212 0.1212 0.0000
vt 0.1212 0.2069 0.0000
vt 0.0391 0.2069 0.0000
vt 0.0355 0.1212 0.0000
vt 0.0000 0.0000 0.0000
vt 0.1333 0.8788 0.0000
vt 0.1333 0.7931 0.0000
vt 0.0391 0.8788 0.0000
vt 0.0391 0.7931 0.0000
vt 0.2069 0.8788 0.0000
vt 0.1212 0.7931 0.0000
vt 0.1212 0.8788 0.0000
vt 0.1333 0.9645 0.0000
vt 0.1212 0.9645 0.0000
vt 0.0391 0.9645 0.0000
vt 0.0355 0.8788 0.0000
vt 25.0000 25.0000 0.0000
vt 0.9667 0.1212 0.0000
vt 0.9667 0.0355 0.0000
vt 0.8724 0.1212 0.0000
vt 0.9667 0.2069 0.0000
vt 0.8724 0.0355 0.0000
vt 0.8724 0.2069 0.0000
vt 0.0000 25.0000 0.0000
vt 0.9667 0.8788 0.0000
vt 0.9667 0.7931 0.0000
vt 0.8724 0.8788 0.0000
vt 0.8724 0.7931 0.0000
vt 0.9667 0.9645 0.0000
vt 0.8724 0.9645 0.0000
vt 0.9645 0.1212 0.0000
vt 0.8788 0.0355 0.0000
vt 0.8788 0.1212 0.0000
vt 0.8788 0.2069 0.0000
vt 0.7931 0.1212 0.0000
vt 0.9645 0.8788 0.0000
vt 0.8788 0.7931 0.0000
vt 0.8788 0.8788 0.0000
vt 0.8788 0.9645 0.0000
vt 0.7931 0.8788 0.0000
vt 0.9667 0.1737 0.0000
vt 0.1333 0.1737 0.0000
vt 0.9667 0.1515 0.0000
vt 0.1333 0.1515 0.0000
vt 0.1333 0.0909 0.0000
vt 0.9667 0.0909 0.0000
vt 0.9667 0.0687 0.0000
vt 0.1333 0.0687 0.0000
vt -4.1667 25.0000 0.0000
vt -8.3333 25.0000 0.0000
vt -12.5000 25.0000 0.0000
vt 0.9089 0.8788 0.0000
vt 0.9089 0.1212 0.0000
vt 0.1515 0.8788 0.0000
vt 0.1515 0.1212 0.0000
vt 0.0909 0.1212 0.0000
vt 0.0909 0.8788 0.0000
vt 0.1333 0.9313 0.0000
vt 0.9667 0.9313 0.0000
vt 0.1333 0.8263 0.0000
vt 0.9667 0.8263 0.0000
vt 4.1667 0.0000 0.0000
vt 8.3333 0.0000 0.0000
vt 12.5000 0.0000 0.0000
vt 0.0756 0.1212 0.0000
vt 0.0756 0.8788 0.0000
vt 0.9091 0.8788 0.0000
vt 0.9091 0.1212 0.0000
vt 0.8485 0.1212 0.0000
vt 0.8485 0.8788 0.0000
vt 0.9667 0.9091 0.0000
vt 0.1333 0.9091 0.0000
vt 0.1333 0.8485 0.0000
vt 0.9667 0.8485 0.0000
vt 0.1000 0.8788 0.0000
vt 0.1000 0.1212 0.0000
vt 0.1667 0.1212 0.0000
vt 0.1667 0.8788 0.0000
vt 0.1212 0.9313 0.0000
vt 0.8788 0.9313 0.0000
vt 0.8788 0.8263 0.0000
vt 0.1212 0.8263 0.0000
vt 0.1212 0.1737 0.0000
vt 0.8788 0.1737 0.0000
vt 0.8788 0.0687 0.0000
vt 0.1212 0.0687 0.0000
vt 0.9333 0.8788 0.0000
vt 0.9333 0.1212 0.0000
vt 1.0000 0.1212 0.0000
vt 1.0000 0.8788 0.0000
# 98 texture coords

g Box026
usemtl 22___Default
s off
f 1/1/1 2/1/1 3/1/1 
f 2/1/2 4/1/2 5/1/2 
f 2/1/3 5/1/3 3/1/3 
f 3/1/4 5/1/4 6/1/4 
f 1/1/5 3/1/5 7/1/5 
f 3/1/6 6/1/6 8/1/6 
f 3/1/7 8/1/7 7/1/7 
f 7/1/8 8/1/8 9/1/8 
f 1/2/9 7/3/9 10/4/9 
f 7/5/10 9/2/10 11/4/10 
f 7/3/11 11/6/11 10/4/11 
f 10/7/12 11/8/12 12/9/12 
f 1/2/13 10/4/13 2/5/13 
f 10/7/14 12/9/14 13/10/14 
f 10/4/15 13/11/15 2/5/15 
f 2/5/16 13/4/16 4/2/16 
f 14/1/17 15/1/17 16/1/17 
f 15/1/18 6/1/18 5/1/18 
f 15/1/19 5/1/19 16/1/19 
f 16/1/20 5/1/20 4/1/20 
f 14/1/21 17/1/21 15/1/21 
f 17/1/22 9/1/22 8/1/22 
f 17/1/23 8/1/23 15/1/23 
f 15/1/24 8/1/24 6/1/24 
f 14/2/25 18/4/25 17/3/25 
f 18/12/26 12/9/26 11/8/26 
f 18/4/27 11/6/27 17/3/27 
f 17/3/28 11/4/28 9/2/28 
f 14/2/29 16/5/29 18/4/29 
f 16/3/30 4/2/30 13/4/30 
f 16/5/31 13/11/31 18/4/31 
f 18/12/32 13/10/32 12/9/32 
f 19/13/1 20/13/1 21/13/1 
f 20/13/2 22/13/2 23/13/2 
f 20/13/3 23/13/3 21/13/3 
f 21/13/4 23/13/4 24/13/4 
f 19/13/5 21/13/5 25/13/5 
f 21/13/6 24/13/6 26/13/6 
f 21/13/7 26/13/7 25/13/7 
f 25/13/8 26/13/8 27/13/8 
f 19/14/9 25/15/9 28/16/9 
f 25/5/10 27/2/10 29/4/10 
f 25/15/11 29/17/11 28/16/11 
f 28/18/12 29/19/12 30/20/12 
f 19/14/13 28/16/13 20/21/13 
f 28/18/14 30/20/14 31/22/14 
f 28/16/15 31/23/15 20/21/15 
f 20/5/16 31/4/16 22/2/16 
f 32/13/17 33/13/17 34/13/17 
f 33/13/18 24/13/18 23/13/18 
f 33/13/19 23/13/19 34/13/19 
f 34/13/20 23/13/20 22/13/20 
f 32/13/21 35/13/21 33/13/21 
f 35/13/22 27/13/22 26/13/22 
f 35/13/23 26/13/23 33/13/23 
f 33/13/24 26/13/24 24/13/24 
f 32/14/25 36/16/25 35/15/25 
f 36/24/26 30/20/26 29/19/26 
f 36/16/27 29/17/27 35/15/27 
f 35/3/28 29/4/28 27/2/28 
f 32/14/29 34/21/29 36/16/29 
f 34/3/30 22/2/30 31/4/30 
f 34/21/31 31/23/31 36/16/31 
f 36/24/32 31/22/32 30/20/32 
f 37/25/1 38/25/1 39/25/1 
f 38/25/2 40/25/2 41/25/2 
f 38/25/3 41/25/3 39/25/3 
f 39/25/4 41/25/4 42/25/4 
f 37/25/5 39/25/5 43/25/5 
f 39/25/6 42/25/6 44/25/6 
f 39/25/7 44/25/7 43/25/7 
f 43/25/8 44/25/8 45/25/8 
f 37/26/9 43/27/9 46/28/9 
f 43/29/10 45/26/10 47/28/10 
f 43/27/11 47/30/11 46/28/11 
f 46/7/12 47/8/12 48/9/12 
f 37/26/13 46/28/13 38/29/13 
f 46/7/14 48/9/14 49/10/14 
f 46/28/15 49/31/15 38/29/15 
f 38/29/16 49/28/16 40/26/16 
f 50/25/17 51/25/17 52/25/17 
f 51/25/18 42/25/18 41/25/18 
f 51/25/19 41/25/19 52/25/19 
f 52/25/20 41/25/20 40/25/20 
f 50/25/21 53/25/21 51/25/21 
f 53/25/22 45/25/22 44/25/22 
f 53/25/23 44/25/23 51/25/23 
f 51/25/24 44/25/24 42/25/24 
f 50/26/25 54/28/25 53/27/25 
f 54/12/26 48/9/26 47/8/26 
f 54/28/27 47/30/27 53/27/27 
f 53/27/28 47/28/28 45/26/28 
f 50/26/29 52/29/29 54/28/29 
f 52/27/30 40/26/30 49/28/30 
f 52/29/31 49/31/31 54/28/31 
f 54/12/32 49/10/32 48/9/32 
f 55/32/1 56/32/1 57/32/1 
f 56/32/2 58/32/2 59/32/2 
f 56/32/3 59/32/3 57/32/3 
f 57/32/4 59/32/4 60/32/4 
f 55/32/5 57/32/5 61/32/5 
f 57/32/6 60/32/6 62/32/6 
f 57/32/7 62/32/7 61/32/7 
f 61/32/8 62/32/8 63/32/8 
f 55/33/9 61/34/9 64/35/9 
f 61/29/10 63/26/10 65/28/10 
f 61/34/11 65/36/11 64/35/11 
f 64/18/12 65/19/12 66/20/12 
f 55/33/13 64/35/13 56/37/13 
f 64/18/14 66/20/14 67/22/14 
f 64/35/15 67/38/15 56/37/15 
f 56/29/16 67/28/16 58/26/16 
f 68/32/17 69/32/17 70/32/17 
f 69/32/18 60/32/18 59/32/18 
f 69/32/19 59/32/19 70/32/19 
f 70/32/20 59/32/20 58/32/20 
f 68/32/21 71/32/21 69/32/21 
f 71/32/22 63/32/22 62/32/22 
f 71/32/23 62/32/23 69/32/23 
f 69/32/24 62/32/24 60/32/24 
f 68/33/25 72/35/25 71/34/25 
f 72/24/26 66/20/26 65/19/26 
f 72/35/27 65/36/27 71/34/27 
f 71/27/28 65/28/28 63/26/28 
f 68/33/29 70/37/29 72/35/29 
f 70/27/30 58/26/30 67/28/30 
f 70/37/31 67/38/31 72/35/31 
f 72/24/32 67/22/32 66/20/32 
f 73/13/1 74/13/1 75/13/1 
f 74/13/2 76/13/2 77/13/2 
f 74/13/3 77/13/3 75/13/3 
f 75/13/4 77/13/4 78/13/4 
f 73/13/5 75/13/5 79/13/5 
f 75/13/6 78/13/6 80/13/6 
f 75/13/7 80/13/7 79/13/7 
f 79/13/8 80/13/8 81/13/8 
f 73/2/9 79/3/9 82/4/9 
f 79/21/10 81/14/10 83/16/10 
f 79/3/11 83/6/11 82/4/11 
f 82/39/12 83/40/12 84/41/12 
f 73/2/13 82/4/13 74/5/13 
f 82/39/14 84/41/14 85/42/14 
f 82/4/15 85/11/15 74/5/15 
f 74/21/16 85/16/16 76/14/16 
f 86/13/17 87/13/17 88/13/17 
f 87/13/18 78/13/18 77/13/18 
f 87/13/19 77/13/19 88/13/19 
f 88/13/20 77/13/20 76/13/20 
f 86/13/21 89/13/21 87/13/21 
f 89/13/22 81/13/22 80/13/22 
f 89/13/23 80/13/23 87/13/23 
f 87/13/24 80/13/24 78/13/24 
f 86/2/25 90/4/25 89/3/25 
f 90/43/26 84/41/26 83/40/26 
f 90/4/27 83/6/27 89/3/27 
f 89/15/28 83/16/28 81/14/28 
f 86/2/29 88/5/29 90/4/29 
f 88/15/30 76/14/30 85/16/30 
f 88/5/31 85/11/31 90/4/31 
f 90/43/32 85/42/32 84/41/32 
f 91/1/1 92/1/1 93/1/1 
f 92/1/2 94/1/2 95/1/2 
f 92/1/3 95/1/3 93/1/3 
f 93/1/4 95/1/4 96/1/4 
f 91/1/5 93/1/5 97/1/5 
f 93/1/6 96/1/6 98/1/6 
f 93/1/7 98/1/7 97/1/7 
f 97/1/8 98/1/8 99/1/8 
f 91/14/9 97/15/9 100/16/9 
f 97/21/10 99/14/10 101/16/10 
f 97/15/11 101/17/11 100/16/11 
f 100/44/12 101/45/12 102/46/12 
f 91/14/13 100/16/13 92/21/13 
f 100/44/14 102/46/14 103/47/14 
f 100/16/15 103/23/15 92/21/15 
f 92/21/16 103/16/16 94/14/16 
f 104/1/17 105/1/17 106/1/17 
f 105/1/18 96/1/18 95/1/18 
f 105/1/19 95/1/19 106/1/19 
f 106/1/20 95/1/20 94/1/20 
f 104/1/21 107/1/21 105/1/21 
f 107/1/22 99/1/22 98/1/22 
f 107/1/23 98/1/23 105/1/23 
f 105/1/24 98/1/24 96/1/24 
f 104/14/25 108/16/25 107/15/25 
f 108/48/26 102/46/26 101/45/26 
f 108/16/27 101/17/27 107/15/27 
f 107/15/28 101/16/28 99/14/28 
f 104/14/29 106/21/29 108/16/29 
f 106/15/30 94/14/30 103/16/30 
f 106/21/31 103/23/31 108/16/31 
f 108/48/32 103/47/32 102/46/32 
f 109/32/1 110/32/1 111/32/1 
f 110/32/2 112/32/2 113/32/2 
f 110/32/3 113/32/3 111/32/3 
f 111/32/4 113/32/4 114/32/4 
f 109/32/5 111/32/5 115/32/5 
f 111/32/6 114/32/6 116/32/6 
f 111/32/7 116/32/7 115/32/7 
f 115/32/8 116/32/8 117/32/8 
f 109/26/9 115/27/9 118/28/9 
f 115/37/10 117/33/10 119/35/10 
f 115/27/11 119/30/11 118/28/11 
f 118/39/12 119/40/12 120/41/12 
f 109/26/13 118/28/13 110/29/13 
f 118/39/14 120/41/14 121/42/14 
f 118/28/15 121/31/15 110/29/15 
f 110/37/16 121/35/16 112/33/16 
f 122/32/17 123/32/17 124/32/17 
f 123/32/18 114/32/18 113/32/18 
f 123/32/19 113/32/19 124/32/19 
f 124/32/20 113/32/20 112/32/20 
f 122/32/21 125/32/21 123/32/21 
f 125/32/22 117/32/22 116/32/22 
f 125/32/23 116/32/23 123/32/23 
f 123/32/24 116/32/24 114/32/24 
f 122/26/25 126/28/25 125/27/25 
f 126/43/26 120/41/26 119/40/26 
f 126/28/27 119/30/27 125/27/27 
f 125/34/28 119/35/28 117/33/28 
f 122/26/29 124/29/29 126/28/29 
f 124/34/30 112/33/30 121/35/30 
f 124/29/31 121/31/31 126/28/31 
f 126/43/32 121/42/32 120/41/32 
f 127/25/1 128/25/1 129/25/1 
f 128/25/2 130/25/2 131/25/2 
f 128/25/3 131/25/3 129/25/3 
f 129/25/4 131/25/4 132/25/4 
f 127/25/5 129/25/5 133/25/5 
f 129/25/6 132/25/6 134/25/6 
f 129/25/7 134/25/7 133/25/7 
f 133/25/8 134/25/8 135/25/8 
f 127/33/9 133/34/9 136/35/9 
f 133/37/10 135/33/10 137/35/10 
f 133/34/11 137/36/11 136/35/11 
f 136/44/12 137/45/12 138/46/12 
f 127/33/13 136/35/13 128/37/13 
f 136/44/14 138/46/14 139/47/14 
f 136/35/15 139/38/15 128/37/15 
f 128/37/16 139/35/16 130/33/16 
f 140/25/17 141/25/17 142/25/17 
f 141/25/18 132/25/18 131/25/18 
f 141/25/19 131/25/19 142/25/19 
f 142/25/20 131/25/20 130/25/20 
f 140/25/21 143/25/21 141/25/21 
f 143/25/22 135/25/22 134/25/22 
f 143/25/23 134/25/23 141/25/23 
f 141/25/24 134/25/24 132/25/24 
f 140/33/25 144/35/25 143/34/25 
f 144/48/26 138/46/26 137/45/26 
f 144/35/27 137/36/27 143/34/27 
f 143/34/28 137/35/28 135/33/28 
f 140/33/29 142/37/29 144/35/29 
f 142/34/30 130/33/30 139/35/30 
f 142/37/31 139/38/31 144/35/31 
f 144/48/32 139/47/32 138/46/32 
f 145/49/33 146/50/33 147/2/33 148/26/33 
f 149/51/34 150/52/34 146/53/34 145/54/34 
f 151/26/35 152/2/35 150/50/35 149/49/35 
f 153/55/36 154/56/36 152/2/36 151/26/36 
f 155/54/37 156/53/37 154/52/37 153/51/37 
f 148/26/38 147/2/38 156/56/38 155/55/38 
f 157/57/39 158/57/39 151/32/39 159/32/39 
f 160/58/40 161/58/40 158/57/40 157/57/40 
f 162/59/41 148/59/41 161/58/41 160/58/41 
f 163/60/42 164/61/42 148/26/42 162/33/42 
f 165/62/43 166/63/43 164/64/43 163/65/43 
f 159/33/44 151/26/44 166/61/44 165/60/44 
f 167/66/35 168/67/35 159/33/35 169/14/35 
f 170/53/34 171/54/34 168/51/34 167/52/34 
f 172/14/33 162/33/33 171/67/33 170/66/33 
f 173/68/38 174/69/38 162/33/38 172/14/38 
f 175/52/37 176/51/37 174/54/37 173/53/37 
f 169/14/36 159/33/36 176/69/36 175/68/36 
f 177/70/41 178/70/41 172/13/41 147/13/41 
f 179/71/40 180/71/40 178/70/40 177/70/40 
f 152/72/39 169/72/39 180/71/39 179/71/39 
f 181/73/44 182/74/44 169/14/44 152/2/44 
f 183/64/43 184/65/43 182/62/43 181/63/43 
f 147/2/42 172/14/42 184/74/42 183/73/42 
f 185/70/39 186/70/39 187/13/39 188/13/39 
f 189/71/40 190/71/40 186/70/40 185/70/40 
f 191/72/41 192/72/41 190/71/41 189/71/41 
f 193/74/42 194/73/42 192/2/42 191/14/42 
f 195/75/43 196/76/43 194/77/43 193/78/43 
f 188/14/44 187/2/44 196/73/44 195/74/44 
f 197/67/33 198/66/33 191/14/33 199/33/33 
f 200/79/34 201/80/34 198/81/34 197/82/34 
f 202/33/35 188/14/35 201/66/35 200/67/35 
f 203/69/36 204/68/36 188/14/36 202/33/36 
f 205/82/37 206/81/37 204/80/37 203/79/37 
f 199/33/38 191/14/38 206/68/38 205/69/38 
f 207/57/41 208/57/41 199/32/41 209/32/41 
f 210/58/40 211/58/40 208/57/40 207/57/40 
f 212/59/39 202/59/39 211/58/39 210/58/39 
f 213/61/44 214/60/44 202/33/44 212/26/44 
f 215/77/43 216/78/43 214/75/43 213/76/43 
f 209/26/42 199/33/42 216/60/42 215/61/42 
f 217/50/35 218/49/35 212/26/35 187/2/35 
f 219/81/34 220/82/34 218/79/34 217/80/34 
f 192/2/33 209/26/33 220/49/33 219/50/33 
f 221/56/38 222/55/38 209/26/38 192/2/38 
f 223/80/37 224/79/37 222/82/37 221/81/37 
f 187/2/36 212/26/36 224/55/36 223/56/36 
f 225/32/45 226/13/45 227/13/45 228/32/45 
f 229/83/34 230/84/34 226/85/34 225/86/34 
f 231/46/46 232/20/46 230/87/46 229/88/46 
f 233/89/47 234/90/47 232/20/47 231/46/47 
f 235/86/37 236/85/37 234/84/37 233/83/37 
f 228/32/48 227/13/48 236/13/48 235/32/48 
f 237/91/46 238/92/46 239/41/46 240/9/46 
f 241/85/34 242/86/34 238/83/34 237/84/34 
f 243/13/45 244/32/45 242/32/45 241/13/45 
f 245/13/48 246/32/48 244/32/48 243/13/48 
f 247/84/49 248/83/49 246/86/49 245/85/49 
f 240/9/47 239/41/47 248/93/47 247/94/47 
f 249/32/45 250/13/45 251/13/45 252/32/45 
f 253/95/34 254/96/34 250/97/34 249/98/34 
f 255/46/46 256/20/46 254/87/46 253/88/46 
f 257/89/47 258/90/47 256/20/47 255/46/47 
f 259/98/37 260/97/37 258/96/37 257/95/37 
f 252/32/48 251/13/48 260/13/48 259/32/48 
f 261/32/45 262/13/45 263/13/45 264/32/45 
f 265/95/34 266/96/34 262/97/34 261/98/34 
f 267/41/46 268/9/46 266/91/46 265/92/46 
f 269/93/47 270/94/47 268/9/47 267/41/47 
f 271/98/37 272/97/37 270/96/37 269/95/37 
f 264/32/48 263/13/48 272/13/48 271/32/48 
# 72 polygons - 256 triangles

