# 3ds Max Wavefront OBJ Exporter v0.97b - (c)2007 guruware
# File Created: 10.11.2015 14:51:01

mtllib moveGizmoZ.mtl

#
# object Object004
#

v  0.5000 0.0000 -0.0000
v  0.2500 -0.4330 0.0000
v  0.2500 -0.4330 -54.2681
v  0.5000 -0.0000 -54.2681
v  -0.2500 -0.4330 0.0000
v  -0.2500 -0.4330 -54.2681
v  -0.5000 0.0000 -0.0000
v  -0.5000 -0.0000 -54.2681
v  -0.2500 0.4330 -0.0000
v  -0.2500 0.4330 -54.2681
v  0.2500 0.4330 -0.0000
v  0.2500 0.4330 -54.2681
v  2.8260 -0.0000 -54.7022
v  1.9983 -1.9983 -54.7022
v  1.7183 -1.7183 -56.1946
v  2.4301 -0.0000 -56.1946
v  -0.0000 -2.8260 -54.7022
v  -0.0000 -2.4301 -56.1946
v  -1.9983 -1.9983 -54.7022
v  -1.7183 -1.7183 -56.1946
v  -2.8260 -0.0000 -54.7022
v  -2.4301 -0.0000 -56.1946
v  -1.9983 1.9983 -54.7022
v  -1.7183 1.7183 -56.1946
v  0.0000 2.8260 -54.7022
v  0.0000 2.4301 -56.1946
v  1.9983 1.9983 -54.7022
v  1.7183 1.7183 -56.1946
v  1.4384 -1.4384 -57.6869
v  2.0342 -0.0000 -57.6869
v  -0.0000 -2.0342 -57.6869
v  -1.4384 -1.4384 -57.6869
v  -2.0342 -0.0000 -57.6869
v  -1.4384 1.4384 -57.6869
v  0.0000 2.0342 -57.6869
v  1.4384 1.4384 -57.6869
v  1.1584 -1.1584 -59.1793
v  1.6382 -0.0000 -59.1793
v  -0.0000 -1.6382 -59.1793
v  -1.1584 -1.1584 -59.1793
v  -1.6382 -0.0000 -59.1793
v  -1.1584 1.1584 -59.1793
v  0.0000 1.6382 -59.1793
v  1.1584 1.1584 -59.1793
v  0.8784 -0.8784 -60.6717
v  1.2423 -0.0000 -60.6717
v  -0.0000 -1.2423 -60.6717
v  -0.8784 -0.8784 -60.6717
v  -1.2423 -0.0000 -60.6717
v  -0.8784 0.8784 -60.6717
v  0.0000 1.2423 -60.6717
v  0.8784 0.8784 -60.6717
v  0.5985 -0.5985 -62.1640
v  0.8464 -0.0000 -62.1640
v  -0.0000 -0.8464 -62.1640
v  -0.5985 -0.5985 -62.1640
v  -0.8464 -0.0000 -62.1640
v  -0.5985 0.5985 -62.1640
v  0.0000 0.8464 -62.1640
v  0.5985 0.5985 -62.1640
v  0.0000 2.2329 -53.8582
v  -1.5789 1.5789 -53.8582
v  -2.2329 -0.0000 -53.8582
v  -1.5789 -1.5789 -53.8582
v  -0.0000 -2.2329 -53.8582
v  1.5789 -1.5789 -53.8582
v  2.2329 -0.0000 -53.8582
v  1.5789 1.5789 -53.8582
v  0.4561 -0.4561 -62.3800
v  -0.0000 -0.6450 -62.3800
v  -0.4561 -0.4561 -62.3800
v  -0.6450 -0.0000 -62.3800
v  -0.4561 0.4561 -62.3800
v  0.0000 0.6450 -62.3800
v  0.4561 0.4561 -62.3800
v  0.6450 -0.0000 -62.3800
v  2.6247 -0.0000 -54.1722
v  1.8559 -1.8559 -54.1722
v  1.8559 1.8559 -54.1722
v  0.0000 2.6247 -54.1722
v  -1.8559 1.8559 -54.1722
v  -2.6247 -0.0000 -54.1722
v  -1.8559 -1.8559 -54.1722
v  -0.0000 -2.6247 -54.1722
# 84 vertices

vn 1.0000 0.0000 0.0000
vn 0.5000 -0.8660 0.0000
vn 1.0000 0.0000 -0.0000
vn -0.5000 -0.8660 0.0000
vn -1.0000 0.0000 -0.0000
vn -1.0000 0.0000 0.0000
vn -0.5000 0.8660 -0.0000
vn 0.5000 0.8660 -0.0000
vn 0.9988 -0.0000 0.0483
vn 0.7063 -0.7063 0.0483
vn 0.6835 -0.6835 -0.2564
vn 0.9666 0.0000 -0.2564
vn -0.0000 -0.9988 0.0483
vn 0.0000 -0.9666 -0.2564
vn -0.7063 -0.7063 0.0483
vn -0.6835 -0.6835 -0.2564
vn -0.9988 0.0000 0.0483
vn -0.9666 0.0000 -0.2564
vn -0.7063 0.7063 0.0483
vn -0.6835 0.6835 -0.2564
vn 0.0000 0.9988 0.0483
vn -0.0000 0.9666 -0.2564
vn 0.7063 0.7063 0.0483
vn 0.6835 0.6835 -0.2564
vn 0.9666 -0.0000 -0.2564
vn -0.0000 -0.9666 -0.2564
vn 0.0000 0.9666 -0.2564
vn 0.6278 -0.6278 -0.4601
vn 0.8879 -0.0000 -0.4601
vn -0.0000 -0.8879 -0.4601
vn -0.6278 -0.6278 -0.4601
vn -0.8879 0.0000 -0.4601
vn -0.6278 0.6278 -0.4601
vn -0.0000 0.8879 -0.4601
vn 0.6278 0.6278 -0.4601
vn -0.0000 0.4007 0.9162
vn -0.2834 0.2834 0.9162
vn -0.4007 0.0000 0.9162
vn -0.2834 -0.2834 0.9162
vn 0.0000 -0.4007 0.9162
vn 0.2834 -0.2834 0.9162
vn 0.4007 0.0000 0.9162
vn 0.2834 0.2834 0.9162
vn 0.3364 -0.3364 -0.8796
vn -0.0000 -0.4757 -0.8796
vn -0.3364 -0.3364 -0.8796
vn -0.4757 0.0000 -0.8796
vn -0.3364 0.3364 -0.8796
vn -0.0000 0.4757 -0.8796
vn 0.3364 0.3364 -0.8796
vn 0.4757 -0.0000 -0.8796
vn 0.8288 -0.0000 0.5596
vn 0.5860 -0.5860 0.5596
vn 0.5860 0.5860 0.5596
vn -0.0000 0.8288 0.5596
vn -0.5860 0.5860 0.5596
vn -0.8288 0.0000 0.5596
vn -0.5860 -0.5860 0.5596
vn -0.0000 -0.8288 0.5596
# 59 vertex normals

vt 0.0200 0.7220 0.0000
vt 0.0200 0.7182 0.0000
vt 0.4947 0.7182 0.0000
vt 0.4947 0.7220 0.0000
vt 0.0365 0.6932 0.0000
vt 0.0365 0.6892 0.0000
vt 0.4782 0.6892 0.0000
vt 0.4782 0.6932 0.0000
vt 0.4947 0.7020 0.0000
vt 0.4947 0.7058 0.0000
vt 0.0200 0.7058 0.0000
vt 0.0200 0.7020 0.0000
vt 0.4947 0.7096 0.0000
vt 0.0200 0.7096 0.0000
vt 0.4782 0.6732 0.0000
vt 0.4782 0.6772 0.0000
vt 0.0365 0.6772 0.0000
vt 0.0365 0.6732 0.0000
vt 0.0200 0.7258 0.0000
vt 0.4947 0.7258 0.0000
vt 0.4232 0.6444 0.0000
vt 0.4232 0.6272 0.0000
vt 0.4360 0.6296 0.0000
vt 0.4360 0.6444 0.0000
vt 0.4232 0.5763 0.0000
vt 0.4232 0.5591 0.0000
vt 0.4360 0.5591 0.0000
vt 0.4360 0.5739 0.0000
vt 0.4232 0.5419 0.0000
vt 0.4360 0.5443 0.0000
vt 0.4828 0.5846 0.0000
vt 0.4828 0.6018 0.0000
vt 0.4700 0.6018 0.0000
vt 0.4700 0.5870 0.0000
vt 0.4828 0.6190 0.0000
vt 0.4700 0.6165 0.0000
vt 0.4828 0.4964 0.0000
vt 0.4828 0.5136 0.0000
vt 0.4700 0.5136 0.0000
vt 0.4700 0.4988 0.0000
vt 0.4828 0.5308 0.0000
vt 0.4700 0.5283 0.0000
vt 0.4232 0.6616 0.0000
vt 0.4360 0.6592 0.0000
vt 0.4489 0.6320 0.0000
vt 0.4489 0.6444 0.0000
vt 0.4489 0.5591 0.0000
vt 0.4489 0.5715 0.0000
vt 0.4489 0.5468 0.0000
vt 0.4571 0.6018 0.0000
vt 0.4571 0.5894 0.0000
vt 0.4571 0.6141 0.0000
vt 0.4571 0.5136 0.0000
vt 0.4571 0.5012 0.0000
vt 0.4571 0.5259 0.0000
vt 0.4489 0.6568 0.0000
vt 0.4617 0.6344 0.0000
vt 0.4617 0.6444 0.0000
vt 0.4617 0.5591 0.0000
vt 0.4617 0.5691 0.0000
vt 0.4617 0.5492 0.0000
vt 0.4443 0.6018 0.0000
vt 0.4443 0.5918 0.0000
vt 0.4443 0.6117 0.0000
vt 0.4443 0.5136 0.0000
vt 0.4443 0.5036 0.0000
vt 0.4443 0.5235 0.0000
vt 0.4617 0.6544 0.0000
vt 0.4745 0.6368 0.0000
vt 0.4745 0.6444 0.0000
vt 0.4745 0.5591 0.0000
vt 0.4745 0.5667 0.0000
vt 0.4745 0.5516 0.0000
vt 0.4315 0.6018 0.0000
vt 0.4315 0.5942 0.0000
vt 0.4315 0.6093 0.0000
vt 0.4315 0.5136 0.0000
vt 0.4315 0.5060 0.0000
vt 0.4315 0.5211 0.0000
vt 0.4745 0.6520 0.0000
vt 0.4874 0.6392 0.0000
vt 0.4874 0.6444 0.0000
vt 0.4874 0.5591 0.0000
vt 0.4874 0.5643 0.0000
vt 0.4874 0.5540 0.0000
vt 0.4186 0.6018 0.0000
vt 0.4186 0.5966 0.0000
vt 0.4186 0.6069 0.0000
vt 0.4186 0.5136 0.0000
vt 0.4186 0.5084 0.0000
vt 0.4186 0.5187 0.0000
vt 0.4874 0.6495 0.0000
vt 0.4044 0.5484 0.0000
vt 0.4043 0.5629 0.0000
vt 0.3939 0.5730 0.0000
vt 0.3794 0.5729 0.0000
vt 0.3692 0.5625 0.0000
vt 0.3694 0.5480 0.0000
vt 0.3798 0.5378 0.0000
vt 0.3943 0.5380 0.0000
vt 0.4101 0.6583 0.0000
vt 0.4073 0.6611 0.0000
vt 0.4033 0.6611 0.0000
vt 0.4004 0.6582 0.0000
vt 0.4005 0.6542 0.0000
vt 0.4034 0.6514 0.0000
vt 0.4074 0.6514 0.0000
vt 0.4102 0.6543 0.0000
vt 0.4065 0.6187 0.0000
vt 0.4009 0.6185 0.0000
vt 0.4016 0.6161 0.0000
vt 0.4059 0.6162 0.0000
vt 0.3970 0.6158 0.0000
vt 0.3987 0.6140 0.0000
vt 0.4312 0.5279 0.0000
vt 0.4365 0.5264 0.0000
vt 0.4366 0.5289 0.0000
vt 0.4325 0.5301 0.0000
vt 0.4410 0.5278 0.0000
vt 0.4400 0.5300 0.0000
vt 0.4410 0.4988 0.0000
vt 0.4357 0.5003 0.0000
vt 0.4356 0.4978 0.0000
vt 0.4397 0.4966 0.0000
vt 0.4312 0.4989 0.0000
vt 0.4323 0.4967 0.0000
vt 0.4282 0.5289 0.0000
vt 0.4229 0.5288 0.0000
vt 0.4236 0.5265 0.0000
vt 0.4277 0.5266 0.0000
vt 0.4105 0.6163 0.0000
vt 0.4090 0.6144 0.0000
vt 0.4186 0.6444 0.0000
vt 0.4186 0.6284 0.0000
vt 0.4186 0.6604 0.0000
vt 0.4874 0.5136 0.0000
vt 0.4874 0.5295 0.0000
vt 0.4874 0.4976 0.0000
vt 0.4874 0.6018 0.0000
vt 0.4874 0.6177 0.0000
vt 0.4874 0.5858 0.0000
vt 0.4186 0.5591 0.0000
vt 0.4186 0.5432 0.0000
vt 0.4186 0.5751 0.0000
vt 0.3663 0.5467 0.0000
vt 0.3785 0.5348 0.0000
vt 0.3956 0.5349 0.0000
vt 0.4075 0.5471 0.0000
vt 0.4074 0.5642 0.0000
vt 0.3952 0.5761 0.0000
vt 0.3781 0.5760 0.0000
vt 0.3662 0.5638 0.0000
# 152 texture coords

g Object004
usemtl wire_135059008
s 8
f 1/1/1 2/2/2 3/3/2 
f 3/3/2 4/4/3 1/1/1 
f 2/5/2 5/6/4 6/7/4 
f 6/7/4 3/8/2 2/5/2 
f 5/9/4 7/10/5 8/11/6 
f 8/11/6 6/12/4 5/9/4 
f 7/10/5 9/13/7 10/14/7 
f 10/14/7 8/11/6 7/10/5 
f 9/15/7 11/16/8 12/17/8 
f 12/17/8 10/18/7 9/15/7 
f 11/19/8 1/1/1 4/4/3 
f 4/4/3 12/20/8 11/19/8 
s 1
f 13/21/9 14/22/10 15/23/11 
f 15/23/11 16/24/12 13/21/9 
f 14/25/10 17/26/13 18/27/14 
f 18/27/14 15/28/11 14/25/10 
f 17/26/13 19/29/15 20/30/16 
f 20/30/16 18/27/14 17/26/13 
f 19/31/15 21/32/17 22/33/18 
f 22/33/18 20/34/16 19/31/15 
f 21/32/17 23/35/19 24/36/20 
f 24/36/20 22/33/18 21/32/17 
f 23/37/19 25/38/21 26/39/22 
f 26/39/22 24/40/20 23/37/19 
f 25/38/21 27/41/23 28/42/24 
f 28/42/24 26/39/22 25/38/21 
f 27/43/23 13/21/9 16/24/12 
f 16/24/12 28/44/24 27/43/23 
f 16/24/12 15/23/11 29/45/11 
f 29/45/11 30/46/25 16/24/12 
f 15/28/11 18/27/14 31/47/26 
f 31/47/26 29/48/11 15/28/11 
f 18/27/14 20/30/16 32/49/16 
f 32/49/16 31/47/26 18/27/14 
f 20/34/16 22/33/18 33/50/18 
f 33/50/18 32/51/16 20/34/16 
f 22/33/18 24/36/20 34/52/20 
f 34/52/20 33/50/18 22/33/18 
f 24/40/20 26/39/22 35/53/22 
f 35/53/22 34/54/20 24/40/20 
f 26/39/22 28/42/24 36/55/24 
f 36/55/24 35/53/22 26/39/22 
f 28/44/24 16/24/12 30/46/25 
f 30/46/25 36/56/24 28/44/24 
f 30/46/25 29/45/11 37/57/11 
f 37/57/11 38/58/12 30/46/25 
f 29/48/11 31/47/26 39/59/26 
f 39/59/26 37/60/11 29/48/11 
f 31/47/26 32/49/16 40/61/16 
f 40/61/16 39/59/26 31/47/26 
f 32/51/16 33/50/18 41/62/18 
f 41/62/18 40/63/16 32/51/16 
f 33/50/18 34/52/20 42/64/20 
f 42/64/20 41/62/18 33/50/18 
f 34/54/20 35/53/22 43/65/27 
f 43/65/27 42/66/20 34/54/20 
f 35/53/22 36/55/24 44/67/24 
f 44/67/24 43/65/27 35/53/22 
f 36/56/24 30/46/25 38/58/12 
f 38/58/12 44/68/24 36/56/24 
f 38/58/12 37/57/11 45/69/11 
f 45/69/11 46/70/12 38/58/12 
f 37/60/11 39/59/26 47/71/26 
f 47/71/26 45/72/11 37/60/11 
f 39/59/26 40/61/16 48/73/16 
f 48/73/16 47/71/26 39/59/26 
f 40/63/16 41/62/18 49/74/18 
f 49/74/18 48/75/16 40/63/16 
f 41/62/18 42/64/20 50/76/20 
f 50/76/20 49/74/18 41/62/18 
f 42/66/20 43/65/27 51/77/22 
f 51/77/22 50/78/20 42/66/20 
f 43/65/27 44/67/24 52/79/24 
f 52/79/24 51/77/22 43/65/27 
f 44/68/24 38/58/12 46/70/12 
f 46/70/12 52/80/24 44/68/24 
f 46/70/12 45/69/11 53/81/28 
f 53/81/28 54/82/29 46/70/12 
f 45/72/11 47/71/26 55/83/30 
f 55/83/30 53/84/28 45/72/11 
f 47/71/26 48/73/16 56/85/31 
f 56/85/31 55/83/30 47/71/26 
f 48/75/16 49/74/18 57/86/32 
f 57/86/32 56/87/31 48/75/16 
f 49/74/18 50/76/20 58/88/33 
f 58/88/33 57/86/32 49/74/18 
f 50/78/20 51/77/22 59/89/34 
f 59/89/34 58/90/33 50/78/20 
f 51/77/22 52/79/24 60/91/35 
f 60/91/35 59/89/34 51/77/22 
f 52/80/24 46/70/12 54/82/29 
f 54/82/29 60/92/35 52/80/24 
f 61/93/36 62/94/37 63/95/38 
f 63/95/38 64/96/39 65/97/40 
f 65/97/40 66/98/41 67/99/42 
f 63/95/38 65/97/40 67/99/42 
f 61/93/36 63/95/38 67/99/42 
f 68/100/43 61/93/36 67/99/42 
f 69/101/44 70/102/45 71/103/46 
f 71/103/46 72/104/47 73/105/48 
f 73/105/48 74/106/49 75/107/50 
f 71/103/46 73/105/48 75/107/50 
f 69/101/44 71/103/46 75/107/50 
f 76/108/51 69/101/44 75/107/50 
f 54/109/29 53/110/28 69/111/44 
f 69/111/44 76/112/51 54/109/29 
f 53/110/28 55/113/30 70/114/45 
f 70/114/45 69/111/44 53/110/28 
f 55/115/30 56/116/31 71/117/46 
f 71/117/46 70/118/45 55/115/30 
f 56/116/31 57/119/32 72/120/47 
f 72/120/47 71/117/46 56/116/31 
f 57/121/32 58/122/33 73/123/48 
f 73/123/48 72/124/47 57/121/32 
f 58/122/33 59/125/34 74/126/49 
f 74/126/49 73/123/48 58/122/33 
f 59/127/34 60/128/35 75/129/50 
f 75/129/50 74/130/49 59/127/34 
f 60/131/35 54/109/29 76/112/51 
f 76/112/51 75/132/50 60/131/35 
f 14/22/10 13/21/9 77/133/52 
f 77/133/52 78/134/53 14/22/10 
f 13/21/9 27/43/23 79/135/54 
f 79/135/54 77/133/52 13/21/9 
f 27/41/23 25/38/21 80/136/55 
f 80/136/55 79/137/54 27/41/23 
f 25/38/21 23/37/19 81/138/56 
f 81/138/56 80/136/55 25/38/21 
f 23/35/19 21/32/17 82/139/57 
f 82/139/57 81/140/56 23/35/19 
f 21/32/17 19/31/15 83/141/58 
f 83/141/58 82/139/57 21/32/17 
f 19/29/15 17/26/13 84/142/59 
f 84/142/59 83/143/58 19/29/15 
f 17/26/13 14/25/10 78/144/53 
f 78/144/53 84/142/59 17/26/13 
f 78/145/53 77/146/52 67/99/42 
f 67/99/42 66/98/41 78/145/53 
f 77/146/52 79/147/54 68/100/43 
f 68/100/43 67/99/42 77/146/52 
f 79/147/54 80/148/55 61/93/36 
f 61/93/36 68/100/43 79/147/54 
f 80/148/55 81/149/56 62/94/37 
f 62/94/37 61/93/36 80/148/55 
f 81/149/56 82/150/57 63/95/38 
f 63/95/38 62/94/37 81/149/56 
f 82/150/57 83/151/58 64/96/39 
f 64/96/39 63/95/38 82/150/57 
f 83/151/58 84/152/59 65/97/40 
f 65/97/40 64/96/39 83/151/58 
f 84/152/59 78/145/53 66/98/41 
f 66/98/41 65/97/40 84/152/59 
# 152 faces

