# 3ds Max Wavefront OBJ Exporter v0.97b - (c)2007 guruware
# File Created: 30.07.2015 15:15:32

mtllib frame.mtl

#
# object realgameframe
#

v  121.7626 -19.0584 -11.1787
v  121.7626 -15.9494 -6.8295
v  121.7626 -27.6675 -6.8295
v  121.7626 -27.6675 -14.1234
v  115.5000 -27.6675 -6.8295
v  0.0000 -27.6675 -6.8295
v  0.0000 -27.6675 -14.1234
v  115.5000 -27.6675 -14.1234
v  115.5000 -19.0584 -11.1787
v  0.0000 -19.0584 -11.1787
v  115.5000 -15.9494 -6.8295
v  0.0000 -15.9494 -6.8295
v  125.0483 -15.9494 0.1212
v  125.0483 -27.6675 0.1212
v  125.0483 -27.6675 -3.5437
v  125.0483 -15.9494 -3.5437
v  115.5000 -27.6675 0.1212
v  0.0000 -27.6675 0.1212
v  125.0483 188.2423 0.1212
v  125.0483 188.2423 -3.5437
v  121.7625 188.2423 -6.8295
v  115.5000 188.2423 0.1212
v  115.5000 188.2423 -6.8295
v  115.5000 -15.9494 0.1212
v  115.5000 181.5001 0.1212
v  115.5000 181.5001 -6.8295
v  121.7625 181.5001 -6.8295
v  125.0483 181.5001 -3.5437
v  125.0483 183.3922 -3.5437
v  125.0483 183.3922 0.1212
v  125.0483 181.5001 0.1212
v  121.7625 183.3922 -6.8295
v  115.5000 183.3922 -6.8295
v  113.1349 181.5001 -3.4570
v  113.1349 183.3922 -3.4570
v  113.1349 181.5001 0.1212
v  0.0000 181.5001 -3.4570
v  0.0000 183.3922 -3.4570
v  113.1349 181.5001 -1.5411
v  0.0000 181.5001 -1.5411
v  113.1349 183.3922 -1.5411
v  0.0000 183.3922 -1.5411
v  0.0000 -15.9494 0.1212
v  115.5000 183.3922 0.1212
v  113.1349 183.3922 0.1212
v  121.7626 -19.0584 11.1787
v  121.7626 -27.6675 14.1234
v  121.7626 -27.6675 6.8295
v  121.7626 -15.9494 6.8295
v  115.5000 -27.6675 6.8295
v  115.5000 -27.6675 14.1234
v  0.0000 -27.6675 14.1234
v  0.0000 -27.6675 6.8295
v  115.5000 -19.0584 11.1787
v  0.0000 -19.0584 11.1787
v  115.5000 -15.9494 6.8295
v  0.0000 -15.9494 6.8295
v  125.0483 -15.9494 -0.1212
v  125.0483 -15.9494 3.5438
v  125.0483 -27.6675 3.5438
v  125.0483 -27.6675 -0.1212
v  115.5000 -27.6675 -0.1212
v  0.0000 -27.6675 -0.1212
v  121.7625 188.2423 6.8295
v  125.0483 188.2423 3.5438
v  125.0483 188.2423 -0.1212
v  115.5000 188.2423 -0.1212
v  115.5000 188.2423 6.8295
v  121.7625 -15.9494 6.8295
v  121.7625 -27.6675 6.8295
v  115.5000 -15.9494 -0.1212
v  115.5000 181.5001 6.8295
v  115.5000 181.5001 -0.1212
v  125.0483 181.5001 3.5438
v  121.7625 181.5001 6.8295
v  125.0483 183.3922 3.5438
v  125.0483 181.5001 -0.1212
v  125.0483 183.3922 -0.1212
v  121.7625 183.3922 6.8295
v  115.5000 183.3922 6.8295
v  113.1349 183.3922 3.4570
v  113.1349 181.5001 3.4570
v  113.1349 181.5001 -0.1212
v  0.0000 183.3922 3.4570
v  0.0000 181.5001 3.4570
v  0.0000 181.5001 1.5411
v  113.1349 181.5001 1.5411
v  0.0000 183.3922 1.5411
v  113.1349 183.3922 1.5411
v  0.0000 -15.9494 -0.1212
v  115.5000 183.3922 -0.1212
v  113.1349 183.3922 -0.1212
v  -121.7626 -19.0584 -11.1787
v  -121.7626 -27.6675 -14.1234
v  -121.7626 -27.6675 -6.8295
v  -121.7626 -15.9494 -6.8295
v  -115.5000 -27.6675 -6.8295
v  -115.5000 -27.6675 -14.1234
v  -115.5000 -19.0584 -11.1787
v  -115.5000 -15.9494 -6.8295
v  -125.0483 -15.9494 0.1212
v  -125.0483 -15.9494 -3.5437
v  -125.0483 -27.6675 -3.5437
v  -125.0483 -27.6675 0.1212
v  -115.5000 -27.6675 0.1212
v  -121.7625 188.2423 -6.8295
v  -125.0483 188.2423 -3.5437
v  -125.0483 188.2423 0.1212
v  -115.5000 188.2423 0.1212
v  -115.5000 188.2423 -6.8295
v  -121.7625 -15.9494 -6.8295
v  -121.7625 -27.6675 -6.8295
v  -115.5000 -15.9494 0.1212
v  -115.5000 181.5001 -6.8295
v  -115.5000 181.5001 0.1212
v  -125.0483 181.5001 -3.5437
v  -121.7625 181.5001 -6.8295
v  -125.0483 183.3922 -3.5437
v  -125.0483 181.5001 0.1212
v  -125.0483 183.3922 0.1212
v  -121.7625 183.3922 -6.8295
v  -115.5000 183.3922 -6.8295
v  -113.1349 183.3922 -3.4570
v  -113.1349 181.5001 -3.4570
v  -113.1349 181.5001 0.1212
v  -113.1349 181.5001 -1.5411
v  -113.1349 183.3922 -1.5411
v  -115.5000 183.3922 0.1212
v  -113.1349 183.3922 0.1212
v  -121.7625 -19.0584 11.1787
v  -121.7625 -15.9494 6.8295
v  -121.7625 -27.6675 6.8295
v  -121.7625 -27.6675 14.1234
v  -115.5000 -27.6675 6.8295
v  -115.5000 -27.6675 14.1234
v  -115.5000 -19.0584 11.1787
v  -115.5000 -15.9494 6.8295
v  -125.0483 -15.9494 -0.1212
v  -125.0483 -27.6675 -0.1212
v  -125.0483 -27.6675 3.5438
v  -125.0483 -15.9494 3.5438
v  -115.5000 -27.6675 -0.1212
v  -125.0483 188.2423 -0.1212
v  -125.0483 188.2423 3.5438
v  -121.7625 188.2423 6.8295
v  -115.5000 188.2423 -0.1212
v  -115.5000 188.2423 6.8295
v  -115.5000 -15.9494 -0.1212
v  -115.5000 181.5001 -0.1212
v  -115.5000 181.5001 6.8295
v  -121.7625 181.5001 6.8295
v  -125.0483 181.5001 3.5438
v  -125.0483 183.3922 3.5438
v  -125.0483 183.3922 -0.1212
v  -125.0483 181.5001 -0.1212
v  -121.7625 183.3922 6.8295
v  -115.5000 183.3922 6.8295
v  -113.1349 181.5001 3.4570
v  -113.1349 183.3922 3.4570
v  -113.1349 181.5001 -0.1212
v  -113.1349 181.5001 1.5411
v  -113.1349 183.3922 1.5411
v  -115.5000 183.3922 -0.1212
v  -113.1349 183.3922 -0.1212
# 164 vertices

vn 1.0000 0.0000 0.0000
vn 0.0000 -1.0000 0.0000
vn -0.0000 -1.0000 -0.0000
vn 0.0000 0.5971 -0.8022
vn 0.0000 0.3236 -0.9462
vn 0.0000 0.9144 -0.4048
vn 0.0000 0.9522 -0.3054
vn 0.9239 -0.0000 -0.3827
vn -0.0000 1.0000 -0.0000
vn 0.7071 -0.0000 -0.7071
vn 0.5054 -0.0000 -0.8629
vn -1.0000 -0.0000 -0.0000
vn 0.3827 0.0000 -0.9239
vn 0.9239 0.0000 -0.3827
vn 0.0000 0.0000 -1.0000
vn 0.0000 0.8135 -0.5815
vn -0.0000 0.0000 1.0000
vn -0.8187 -0.0000 -0.5742
vn 0.0000 -1.0000 -0.0000
vn -0.0000 -0.0000 -1.0000
vn -0.0000 -0.0000 1.0000
vn 0.0000 -0.0000 1.0000
vn 0.0000 1.0000 0.0000
vn -1.0000 0.0000 -0.0000
vn -0.0000 0.5971 0.8022
vn 0.0000 0.5971 0.8022
vn 0.0000 0.3236 0.9462
vn -0.0000 0.3236 0.9462
vn -0.0000 0.9144 0.4048
vn 0.0000 0.9522 0.3054
vn 0.9239 -0.0000 0.3827
vn 0.5054 -0.0000 0.8629
vn 0.7071 -0.0000 0.7071
vn 0.9239 0.0000 0.3827
vn 0.3827 0.0000 0.9239
vn -0.0000 0.8135 0.5815
vn -0.8187 -0.0000 0.5742
vn 0.0000 0.0000 1.0000
vn 0.0000 -0.0000 -1.0000
vn -1.0000 0.0000 0.0000
vn -1.0000 -0.0000 0.0000
vn -0.0000 -1.0000 0.0000
vn -0.0000 0.5971 -0.8022
vn -0.0000 0.3236 -0.9462
vn -0.0000 0.9144 -0.4048
vn -0.7071 -0.0000 -0.7071
vn -0.5054 -0.0000 -0.8629
vn 1.0000 -0.0000 0.0000
vn -0.3827 -0.0000 -0.9239
vn -0.0000 0.0000 -1.0000
vn -0.0000 0.8135 -0.5815
vn -0.7071 0.0000 -0.7071
vn 0.8187 0.0000 -0.5742
vn 0.0000 0.9144 0.4048
vn -0.7071 -0.0000 0.7071
vn -0.5054 -0.0000 0.8629
vn -0.3827 -0.0000 0.9239
vn 0.0000 0.8135 0.5815
vn -0.7071 0.0000 0.7071
vn 0.8187 0.0000 0.5742
# 60 vertex normals

vt 0.9384 0.0839 0.0000
vt 0.9513 0.1019 0.0000
vt 0.9027 0.1019 0.0000
vt 0.9027 0.0716 0.0000
vt 0.4993 0.5193 0.0000
vt 0.0200 0.5193 0.0000
vt 0.0200 0.4891 0.0000
vt 0.4993 0.4891 0.0000
vt 0.5128 0.6803 0.0000
vt 0.5128 0.7171 0.0000
vt 0.0200 0.7171 0.0000
vt 0.0200 0.6803 0.0000
vt 0.5200 0.6199 0.0000
vt 0.5200 0.6387 0.0000
vt 0.0200 0.6387 0.0000
vt 0.0200 0.6199 0.0000
vt 0.1006 0.3332 0.0000
vt 0.0520 0.3332 0.0000
vt 0.0520 0.3180 0.0000
vt 0.1006 0.3180 0.0000
vt 0.4993 0.5482 0.0000
vt 0.0200 0.5482 0.0000
vt 0.8730 0.1318 0.0000
vt 0.8730 0.1470 0.0000
vt 0.8594 0.1607 0.0000
vt 0.8334 0.1318 0.0000
vt 0.8334 0.1607 0.0000
vt 0.9800 0.4050 0.0000
vt 0.9800 0.4196 0.0000
vt 0.9279 0.4196 0.0000
vt 0.9279 0.4050 0.0000
vt 0.9483 0.3873 0.0000
vt 0.1289 0.3873 0.0000
vt 0.1289 0.3585 0.0000
vt 0.9483 0.3585 0.0000
vt 0.0500 0.4196 0.0000
vt 0.0500 0.4050 0.0000
vt 0.9279 0.4474 0.0000
vt 0.0500 0.4474 0.0000
vt 0.9519 0.0467 0.0000
vt 0.9152 0.0467 0.0000
vt 0.9152 0.0200 0.0000
vt 0.9519 0.0200 0.0000
vt 0.7820 0.1607 0.0000
vt 0.7820 0.1385 0.0000
vt 0.8080 0.1385 0.0000
vt 0.8080 0.1607 0.0000
vt 0.1004 0.3873 0.0000
vt 0.0518 0.3873 0.0000
vt 0.0518 0.3613 0.0000
vt 0.1004 0.3613 0.0000
vt 0.9224 0.1606 0.0000
vt 0.8922 0.1606 0.0000
vt 0.8922 0.1346 0.0000
vt 0.9224 0.1346 0.0000
vt 0.9279 0.3180 0.0000
vt 0.9279 0.3332 0.0000
vt 0.9200 0.3332 0.0000
vt 0.9200 0.3180 0.0000
vt 0.0416 0.4196 0.0000
vt 0.0416 0.4050 0.0000
vt 0.0416 0.4474 0.0000
vt 0.9480 0.3180 0.0000
vt 0.9480 0.3332 0.0000
vt 0.0200 0.4196 0.0000
vt 0.0200 0.4050 0.0000
vt 0.0200 0.4474 0.0000
vt 0.4532 0.2519 0.0000
vt 0.4532 0.2598 0.0000
vt 0.4361 0.2598 0.0000
vt 0.4361 0.2519 0.0000
vt 0.9413 0.4266 0.0000
vt 0.9413 0.4364 0.0000
vt 0.9264 0.4364 0.0000
vt 0.9124 0.4266 0.0000
vt 0.9497 0.1859 0.0000
vt 0.9497 0.1937 0.0000
vt 0.4802 0.1937 0.0000
vt 0.4802 0.1859 0.0000
vt 0.9497 0.2518 0.0000
vt 0.9497 0.2598 0.0000
vt 0.4802 0.2598 0.0000
vt 0.4802 0.2518 0.0000
vt 0.9497 0.2189 0.0000
vt 0.9497 0.2267 0.0000
vt 0.4802 0.2267 0.0000
vt 0.4802 0.2189 0.0000
vt 0.9497 0.2849 0.0000
vt 0.9497 0.2929 0.0000
vt 0.4802 0.2929 0.0000
vt 0.4802 0.2849 0.0000
vt 0.0200 0.5898 0.0000
vt 0.5200 0.5898 0.0000
vt 0.9361 0.1210 0.0000
vt 0.9513 0.1210 0.0000
vt 0.9513 0.1606 0.0000
vt 0.8442 0.1066 0.0000
vt 0.8442 0.0864 0.0000
vt 0.8730 0.0864 0.0000
vt 0.8730 0.1066 0.0000
vt 0.4243 0.2830 0.0000
vt 0.4532 0.2830 0.0000
vt 0.4392 0.2929 0.0000
vt 0.4243 0.2929 0.0000
vt 0.4454 0.2198 0.0000
vt 0.4532 0.2198 0.0000
vt 0.4532 0.2267 0.0000
vt 0.4454 0.2267 0.0000
# 108 texture coords

g realgameframe
usemtl wire_227153153
s 1
f 1/1/1 2/2/1 3/3/1 4/4/1 
s 2
f 5/5/2 6/6/3 7/7/3 8/8/2 
s 4
f 9/9/4 8/10/5 7/11/5 10/12/4 
f 11/13/6 9/14/4 10/15/4 12/16/7 
s 1
f 13/17/1 14/18/1 15/19/8 16/20/8 
s 2
f 17/21/2 18/22/3 6/6/3 5/5/2 
f 19/23/9 20/24/9 21/25/9 22/26/9 
f 23/27/9 22/26/9 21/25/9 
s 1
f 15/28/8 3/29/10 2/30/11 16/31/8 
s 2
f 24/32/12 25/33/12 26/34/12 11/35/12 
s 1
f 2/30/11 27/36/13 28/37/14 16/31/8 
f 11/38/15 26/39/15 27/36/13 2/30/11 
s 4
f 8/40/5 9/41/4 1/42/4 4/43/5 
f 9/44/4 11/45/6 2/46/16 1/47/4 
s 8
f 11/48/17 5/49/17 3/50/17 2/51/17 
s 2
f 5/52/2 8/53/2 4/54/2 3/55/2 
s 1
f 29/56/14 30/57/1 31/58/1 28/59/14 
f 32/60/13 29/61/14 28/37/14 27/36/13 
f 33/62/15 32/60/13 27/36/13 26/39/15 
f 20/63/14 19/64/1 30/57/1 29/56/14 
f 21/65/13 20/66/14 29/61/14 32/60/13 
f 23/67/15 21/65/13 32/60/13 33/62/15 
s 4
f 33/68/18 26/69/18 34/70/18 35/71/18 
s 8
f 25/72/19 36/73/19 34/74/2 26/75/2 
s 1
f 35/76/15 34/77/15 37/78/20 38/79/20 
s 2
f 34/80/2 39/81/2 40/82/3 37/83/3 
s 1
f 39/84/21 41/85/21 42/86/22 40/87/22 
s 2
f 41/88/9 35/89/9 38/90/23 42/91/23 
s 4
f 11/13/6 12/16/7 43/92/23 24/93/9 
s 2
f 3/55/2 15/94/2 14/95/2 5/52/2 
f 17/96/2 5/52/2 14/95/2 
s 1
f 16/20/8 28/59/14 31/58/1 13/17/1 
s 8
f 23/97/12 33/98/12 44/99/12 22/100/12 
s 16
f 44/101/9 33/102/9 35/103/9 45/104/9 
s 4
f 41/105/24 39/106/24 36/107/24 45/108/12 
s 1
f 46/1/1 47/4/1 48/3/1 49/2/1 
s 2
f 50/5/2 51/8/2 52/7/3 53/6/3 
s 4
f 54/9/25 55/12/26 52/11/27 51/10/28 
f 56/13/29 57/16/30 55/15/26 54/14/25 
s 1
f 58/17/1 59/20/31 60/19/31 61/18/1 
s 2
f 62/21/2 50/5/2 53/6/3 63/22/3 
f 64/25/9 65/24/9 66/23/9 67/26/9 
f 68/27/9 64/25/9 67/26/9 
s 1
f 60/28/31 59/31/31 69/30/32 70/29/33 
s 2
f 71/32/12 56/35/12 72/34/12 73/33/12 
s 1
f 69/30/32 59/31/31 74/37/34 75/36/35 
f 56/38/17 69/30/32 75/36/35 72/39/17 
s 4
f 51/40/28 47/43/28 46/42/25 54/41/25 
f 54/44/25 46/47/25 49/46/36 56/45/29 
s 8
f 56/48/15 49/51/15 48/50/15 50/49/15 
s 2
f 50/52/2 48/55/2 47/54/2 51/53/2 
s 1
f 76/56/34 74/59/34 77/58/1 78/57/1 
f 79/60/35 75/36/35 74/37/34 76/61/34 
f 80/62/17 72/39/17 75/36/35 79/60/35 
f 65/63/34 76/56/34 78/57/1 66/64/1 
f 64/65/35 79/60/35 76/61/34 65/66/34 
f 68/67/17 80/62/17 79/60/35 64/65/35 
s 4
f 80/68/37 81/71/37 82/70/37 72/69/37 
s 8
f 73/72/2 72/75/19 82/74/19 83/73/2 
s 1
f 81/76/17 84/79/38 85/78/38 82/77/17 
s 2
f 82/80/2 85/83/3 86/82/3 87/81/2 
s 1
f 87/84/39 86/87/20 88/86/20 89/85/39 
s 2
f 89/88/9 88/91/23 84/90/23 81/89/9 
s 4
f 56/13/29 71/93/9 90/92/23 57/16/30 
s 2
f 61/95/2 60/94/2 70/55/2 50/52/2 
f 62/96/2 61/95/2 50/52/2 
s 1
f 59/20/31 58/17/1 77/58/1 74/59/34 
s 8
f 68/97/12 67/100/12 91/99/12 80/98/12 
s 16
f 91/101/9 92/104/9 81/103/9 80/102/9 
s 4
f 89/105/40 92/108/41 83/107/40 87/106/24 
s 1
f 93/1/12 94/4/12 95/3/12 96/2/12 
s 2
f 97/5/42 98/8/3 7/7/3 6/6/3 
s 4
f 99/9/43 10/12/4 7/11/5 98/10/44 
f 100/13/45 12/16/7 10/15/4 99/14/43 
s 1
f 101/17/12 102/20/12 103/19/12 104/18/12 
s 2
f 105/21/3 97/5/42 6/6/3 18/22/3 
f 106/25/9 107/24/9 108/23/9 109/26/9 
f 110/27/9 106/25/9 109/26/9 
s 8
f 103/28/46 102/31/46 111/30/47 112/29/46 
s 1
f 113/32/48 100/35/48 114/34/48 115/33/48 
s 8
f 111/30/47 102/31/46 116/37/46 117/36/49 
f 100/38/50 111/30/47 117/36/49 114/39/20 
s 4
f 98/40/44 94/43/44 93/42/43 99/41/43 
f 99/44/43 93/47/43 96/46/51 100/45/45 
s 16
f 100/48/17 96/51/17 95/50/17 97/49/17 
s 2
f 97/52/42 95/55/3 94/54/3 98/53/3 
s 1
f 118/56/12 116/59/12 119/58/12 120/57/12 
s 8
f 121/60/49 117/36/49 116/37/46 118/61/46 
f 122/62/20 114/39/20 117/36/49 121/60/49 
s 1
f 107/63/12 118/56/12 120/57/12 108/64/12 
s 8
f 106/65/49 121/60/49 118/61/46 107/66/52 
f 110/67/20 122/62/20 121/60/49 106/65/49 
s 4
f 122/68/53 123/71/53 124/70/53 114/69/53 
s 16
f 115/72/42 114/75/42 124/74/42 125/73/3 
s 1
f 123/76/20 38/79/20 37/78/20 124/77/20 
s 2
f 124/80/3 37/83/3 40/82/3 126/81/3 
s 1
f 126/84/22 40/87/22 42/86/22 127/85/22 
s 2
f 127/88/23 42/91/23 38/90/23 123/89/23 
s 4
f 100/13/45 113/93/23 43/92/23 12/16/7 
s 2
f 104/95/42 103/94/3 112/55/42 97/52/42 
f 105/96/3 104/95/42 97/52/42 
s 1
f 102/20/12 101/17/12 119/58/12 116/59/12 
f 110/97/1 109/100/1 128/99/1 122/98/1 
s 16
f 128/101/9 129/104/9 123/103/9 122/102/9 
s 4
f 127/105/1 129/108/1 125/107/1 126/106/1 
s 1
f 130/1/12 131/2/12 132/3/12 133/4/12 
s 2
f 134/5/3 53/6/3 52/7/3 135/8/3 
s 4
f 136/9/26 135/10/27 52/11/27 55/12/26 
f 137/13/54 136/14/26 55/15/26 57/16/30 
s 1
f 138/17/12 139/18/12 140/19/12 141/20/12 
s 2
f 142/21/3 63/22/3 53/6/3 134/5/3 
f 143/23/9 144/24/9 145/25/9 146/26/9 
f 147/27/9 146/26/9 145/25/9 
s 8
f 140/28/55 132/29/55 131/30/56 141/31/55 
s 1
f 148/32/48 149/33/48 150/34/48 137/35/48 
s 8
f 131/30/56 151/36/57 152/37/55 141/31/55 
f 137/38/22 150/39/38 151/36/57 131/30/56 
s 4
f 135/40/27 136/41/26 130/42/26 133/43/27 
f 136/44/26 137/45/54 131/46/58 130/47/26 
s 16
f 137/48/50 134/49/50 132/50/50 131/51/50 
s 2
f 134/52/3 135/53/3 133/54/3 132/55/3 
s 1
f 153/56/12 154/57/12 155/58/12 152/59/12 
s 8
f 156/60/57 153/61/55 152/37/55 151/36/57 
f 157/62/38 156/60/57 151/36/57 150/39/38 
s 1
f 144/63/12 143/64/12 154/57/12 153/56/12 
s 8
f 145/65/57 144/66/59 153/61/55 156/60/57 
f 147/67/38 145/65/57 156/60/57 157/62/38 
s 4
f 157/68/60 150/69/60 158/70/60 159/71/60 
s 16
f 149/72/3 160/73/3 158/74/3 150/75/3 
s 1
f 159/76/38 158/77/38 85/78/38 84/79/38 
s 2
f 158/80/3 161/81/3 86/82/3 85/83/3 
s 1
f 161/84/20 162/85/20 88/86/20 86/87/20 
s 2
f 162/88/23 159/89/23 84/90/23 88/91/23 
s 4
f 137/13/54 57/16/30 90/92/23 148/93/23 
s 2
f 132/55/3 140/94/3 139/95/3 134/52/3 
f 142/96/3 134/52/3 139/95/3 
s 1
f 141/20/12 152/59/12 155/58/12 138/17/12 
f 147/97/1 157/98/1 163/99/1 146/100/1 
s 16
f 163/101/9 157/102/9 159/103/9 164/104/9 
s 4
f 162/105/1 161/106/1 160/107/1 164/108/1 
# 132 polygons - 8 triangles

