# 3ds Max Wavefront OBJ Exporter v0.97b - (c)2007 guruware
# File Created: 08.04.2016 12:20:12

mtllib coin.mtl

#
# object Torus001
#

v  0.0000 0.0000 -14.3563
v  1.9920 -5.1782 -12.5012
v  -0.0000 -5.4939 -13.2635
v  1.9920 0.0000 -13.5312
v  2.8172 -4.4158 -10.6608
v  2.8172 0.0000 -11.5392
v  1.9920 -3.6535 -8.8204
v  1.9920 0.0000 -9.5471
v  -0.0000 -3.3378 -8.0581
v  -0.0000 0.0000 -8.7220
v  -1.9920 -3.6535 -8.8204
v  -1.9920 0.0000 -9.5471
v  -2.8172 -4.4158 -10.6608
v  -2.8172 0.0000 -11.5392
v  -1.9920 -5.1782 -12.5012
v  -1.9920 0.0000 -13.5312
v  1.9920 -9.5680 -9.5680
v  -0.0000 -10.1515 -10.1515
v  2.8172 -8.1594 -8.1594
v  1.9920 -6.7508 -6.7508
v  -0.0000 -6.1674 -6.1674
v  -1.9920 -6.7508 -6.7508
v  -2.8172 -8.1594 -8.1594
v  -1.9920 -9.5680 -9.5680
v  1.9920 -12.5012 -5.1782
v  -0.0000 -13.2635 -5.4939
v  2.8172 -10.6608 -4.4158
v  1.9920 -8.8204 -3.6535
v  -0.0000 -8.0581 -3.3378
v  -1.9920 -8.8204 -3.6535
v  -2.8172 -10.6608 -4.4158
v  -1.9920 -12.5012 -5.1782
v  1.9920 -13.5312 0.0000
v  -0.0000 -14.3563 0.0000
v  2.8172 -11.5392 0.0000
v  1.9920 -9.5471 0.0000
v  -0.0000 -8.7220 0.0000
v  -1.9920 -9.5471 0.0000
v  -2.8172 -11.5392 0.0000
v  -1.9920 -13.5312 0.0000
v  1.9920 -12.5012 5.1782
v  -0.0000 -13.2635 5.4939
v  2.8172 -10.6608 4.4158
v  1.9920 -8.8204 3.6535
v  -0.0000 -8.0581 3.3378
v  -1.9920 -8.8204 3.6535
v  -2.8172 -10.6608 4.4158
v  -1.9920 -12.5012 5.1782
v  1.9920 -9.5680 9.5680
v  -0.0000 -10.1515 10.1515
v  2.8172 -8.1594 8.1594
v  1.9920 -6.7508 6.7508
v  -0.0000 -6.1674 6.1674
v  -1.9920 -6.7508 6.7508
v  -2.8172 -8.1594 8.1594
v  -1.9920 -9.5680 9.5680
v  1.9920 -5.1782 12.5012
v  -0.0000 -5.4939 13.2635
v  2.8172 -4.4158 10.6608
v  1.9920 -3.6535 8.8204
v  -0.0000 -3.3378 8.0581
v  -1.9920 -3.6535 8.8204
v  -2.8172 -4.4158 10.6608
v  -1.9920 -5.1782 12.5012
v  1.9920 0.0000 13.5312
v  0.0000 0.0000 14.3563
v  2.8172 0.0000 11.5392
v  1.9920 0.0000 9.5471
v  -0.0000 0.0000 8.7220
v  -1.9920 0.0000 9.5471
v  -2.8172 0.0000 11.5392
v  -1.9920 0.0000 13.5312
v  1.9920 5.1782 12.5012
v  0.0000 5.4939 13.2635
v  2.8172 4.4158 10.6608
v  1.9920 3.6535 8.8204
v  -0.0000 3.3378 8.0581
v  -1.9920 3.6535 8.8204
v  -2.8172 4.4158 10.6608
v  -1.9920 5.1782 12.5012
v  1.9920 9.5680 9.5680
v  0.0000 10.1515 10.1515
v  2.8172 8.1594 8.1594
v  1.9920 6.7508 6.7508
v  0.0000 6.1674 6.1674
v  -1.9920 6.7508 6.7508
v  -2.8172 8.1594 8.1594
v  -1.9920 9.5680 9.5680
v  1.9920 12.5012 5.1782
v  0.0000 13.2635 5.4939
v  2.8172 10.6608 4.4158
v  1.9920 8.8204 3.6535
v  0.0000 8.0581 3.3378
v  -1.9920 8.8204 3.6535
v  -2.8172 10.6608 4.4158
v  -1.9920 12.5012 5.1782
v  1.9920 13.5312 -0.0000
v  0.0000 14.3563 -0.0000
v  2.8172 11.5392 -0.0000
v  1.9920 9.5471 -0.0000
v  0.0000 8.7220 -0.0000
v  -1.9920 9.5471 -0.0000
v  -2.8172 11.5392 -0.0000
v  -1.9920 13.5312 -0.0000
v  1.9920 12.5012 -5.1782
v  0.0000 13.2635 -5.4939
v  2.8172 10.6608 -4.4158
v  1.9920 8.8204 -3.6535
v  0.0000 8.0581 -3.3378
v  -1.9920 8.8204 -3.6535
v  -2.8172 10.6608 -4.4158
v  -1.9920 12.5012 -5.1782
v  1.9920 9.5680 -9.5680
v  0.0000 10.1515 -10.1515
v  2.8172 8.1594 -8.1594
v  1.9920 6.7508 -6.7508
v  0.0000 6.1674 -6.1674
v  -1.9920 6.7508 -6.7508
v  -2.8172 8.1594 -8.1594
v  -1.9920 9.5680 -9.5680
v  1.9920 5.1782 -12.5012
v  0.0000 5.4939 -13.2635
v  2.8172 4.4158 -10.6608
v  1.9920 3.6535 -8.8204
v  -0.0000 3.3378 -8.0581
v  -1.9920 3.6535 -8.8204
v  -2.8172 4.4158 -10.6608
v  -1.9920 5.1782 -12.5012
# 128 vertices

vn 0.0000 -0.0000 -1.0000
vn 0.6840 -0.2791 -0.6739
vn -0.0000 -0.3827 -0.9239
vn 0.6840 -0.0000 -0.7294
vn 0.9989 -0.0183 -0.0441
vn 0.9989 -0.0000 -0.0477
vn 0.7317 0.2608 0.6297
vn 0.7317 -0.0000 0.6816
vn -0.0000 0.3827 0.9239
vn -0.0000 0.0000 1.0000
vn -0.7317 0.2608 0.6297
vn -0.7317 0.0000 0.6816
vn -0.9989 -0.0183 -0.0441
vn -0.9989 0.0000 -0.0477
vn -0.6840 -0.2791 -0.6739
vn -0.6840 0.0000 -0.7294
vn 0.6840 -0.5158 -0.5158
vn 0.0000 -0.7071 -0.7071
vn 0.9989 -0.0338 -0.0338
vn 0.7317 0.4820 0.4820
vn -0.0000 0.7071 0.7071
vn -0.7317 0.4820 0.4820
vn -0.9989 -0.0338 -0.0338
vn -0.6840 -0.5158 -0.5158
vn 0.6840 -0.6739 -0.2791
vn 0.0000 -0.9239 -0.3827
vn 0.9989 -0.0441 -0.0183
vn 0.7317 0.6297 0.2608
vn -0.0000 0.9239 0.3827
vn -0.7317 0.6297 0.2608
vn -0.9989 -0.0441 -0.0183
vn -0.6840 -0.6739 -0.2791
vn 0.6840 -0.7294 0.0000
vn -0.0000 -1.0000 0.0000
vn 0.9989 -0.0477 0.0000
vn 0.7317 0.6816 -0.0000
vn -0.0000 1.0000 -0.0000
vn -0.7317 0.6816 -0.0000
vn -0.9989 -0.0477 0.0000
vn -0.6840 -0.7294 0.0000
vn 0.6840 -0.6739 0.2791
vn -0.0000 -0.9239 0.3827
vn 0.9989 -0.0441 0.0183
vn 0.7317 0.6297 -0.2608
vn -0.0000 0.9239 -0.3827
vn -0.7317 0.6297 -0.2608
vn -0.9989 -0.0441 0.0183
vn -0.6840 -0.6739 0.2791
vn 0.6840 -0.5158 0.5158
vn 0.0000 -0.7071 0.7071
vn 0.9989 -0.0338 0.0338
vn 0.7317 0.4820 -0.4820
vn -0.0000 0.7071 -0.7071
vn -0.7317 0.4820 -0.4820
vn -0.9989 -0.0338 0.0338
vn -0.6840 -0.5158 0.5158
vn 0.6840 -0.2791 0.6739
vn 0.0000 -0.3827 0.9239
vn 0.9989 -0.0183 0.0441
vn 0.7317 0.2608 -0.6297
vn -0.0000 0.3827 -0.9239
vn -0.7317 0.2608 -0.6297
vn -0.9989 -0.0183 0.0441
vn -0.6840 -0.2791 0.6739
vn 0.6840 0.0000 0.7294
vn 0.0000 0.0000 1.0000
vn 0.9989 -0.0000 0.0477
vn 0.7317 -0.0000 -0.6816
vn -0.0000 -0.0000 -1.0000
vn -0.7317 -0.0000 -0.6816
vn -0.9989 0.0000 0.0477
vn -0.6840 0.0000 0.7294
vn 0.6840 0.2791 0.6739
vn 0.0000 0.3827 0.9239
vn 0.9989 0.0183 0.0441
vn 0.7317 -0.2608 -0.6297
vn -0.7317 -0.2608 -0.6297
vn -0.9989 0.0183 0.0441
vn -0.6840 0.2791 0.6739
vn 0.6840 0.5158 0.5158
vn 0.0000 0.7071 0.7071
vn 0.9989 0.0338 0.0338
vn 0.7317 -0.4820 -0.4820
vn -0.0000 -0.7071 -0.7071
vn -0.7317 -0.4820 -0.4820
vn -0.9989 0.0338 0.0338
vn -0.6840 0.5158 0.5158
vn 0.6840 0.6739 0.2791
vn 0.0000 0.9239 0.3827
vn 0.9989 0.0441 0.0183
vn 0.7317 -0.6297 -0.2608
vn -0.0000 -0.9239 -0.3827
vn -0.7317 -0.6297 -0.2608
vn -0.9989 0.0441 0.0183
vn -0.6840 0.6739 0.2791
vn 0.6840 0.7294 -0.0000
vn 0.0000 1.0000 -0.0000
vn 0.9989 0.0477 -0.0000
vn 0.7317 -0.6816 0.0000
vn -0.7317 -0.6816 0.0000
vn -0.9989 0.0477 -0.0000
vn -0.6840 0.7294 -0.0000
vn 0.6840 0.6739 -0.2791
vn 0.0000 0.9239 -0.3827
vn 0.9989 0.0441 -0.0183
vn 0.7317 -0.6297 0.2608
vn -0.7317 -0.6297 0.2608
vn -0.9989 0.0441 -0.0183
vn -0.6840 0.6739 -0.2791
vn 0.6840 0.5158 -0.5158
vn 0.0000 0.7071 -0.7071
vn 0.9989 0.0338 -0.0338
vn 0.7317 -0.4820 0.4820
vn -0.0000 -0.7071 0.7071
vn -0.7317 -0.4820 0.4820
vn -0.9989 0.0338 -0.0338
vn -0.6840 0.5158 -0.5158
vn 0.6840 0.2791 -0.6739
vn 0.0000 0.3827 -0.9239
vn 0.9989 0.0183 -0.0441
vn 0.7317 -0.2608 0.6297
vn -0.0000 -0.3827 0.9239
vn -0.7317 -0.2608 0.6297
vn -0.9989 0.0183 -0.0441
vn -0.6840 0.2791 -0.6739
# 125 vertex normals

vt 0.5986 0.3648 0.0000
vt 0.5050 0.4008 0.0000
vt 0.4993 0.3648 0.0000
vt 0.5986 0.4008 0.0000
vt 0.2149 0.8832 0.0000
vt 0.2991 0.8492 0.0000
vt 0.3060 0.8829 0.0000
vt 0.2214 0.8495 0.0000
vt 0.2923 0.8155 0.0000
vt 0.2280 0.8158 0.0000
vt 0.1426 0.0920 0.0000
vt 0.2029 0.0560 0.0000
vt 0.2086 0.0920 0.0000
vt 0.1426 0.0560 0.0000
vt 0.2086 0.0200 0.0000
vt 0.1426 0.0200 0.0000
vt 0.7824 0.4924 0.0000
vt 0.8608 0.4881 0.0000
vt 0.8418 0.5168 0.0000
vt 0.7889 0.4587 0.0000
vt 0.8798 0.4595 0.0000
vt 0.7955 0.4249 0.0000
vt 0.5986 0.3288 0.0000
vt 0.5050 0.3288 0.0000
vt 0.4256 0.4008 0.0000
vt 0.4151 0.3648 0.0000
vt 0.3708 0.8192 0.0000
vt 0.3900 0.8477 0.0000
vt 0.3516 0.7907 0.0000
vt 0.2540 0.0560 0.0000
vt 0.2646 0.0920 0.0000
vt 0.2646 0.0200 0.0000
vt 0.9159 0.5428 0.0000
vt 0.8874 0.5620 0.0000
vt 0.9444 0.5236 0.0000
vt 0.4256 0.3288 0.0000
vt 0.3869 0.2619 0.0000
vt 0.2970 0.2979 0.0000
vt 0.3028 0.2619 0.0000
vt 0.3764 0.2979 0.0000
vt 0.4255 0.7640 0.0000
vt 0.4541 0.7830 0.0000
vt 0.3968 0.7451 0.0000
vt 0.0206 0.1949 0.0000
vt 0.0823 0.1589 0.0000
vt 0.0766 0.1949 0.0000
vt 0.0311 0.1589 0.0000
vt 0.0766 0.1229 0.0000
vt 0.0206 0.1229 0.0000
vt 0.9460 0.6145 0.0000
vt 0.9123 0.6213 0.0000
vt 0.9796 0.6076 0.0000
vt 0.3764 0.2259 0.0000
vt 0.2970 0.2259 0.0000
vt 0.2035 0.2979 0.0000
vt 0.2035 0.2619 0.0000
vt 0.4549 0.6921 0.0000
vt 0.4886 0.6987 0.0000
vt 0.4212 0.6856 0.0000
vt 0.1426 0.1589 0.0000
vt 0.1426 0.1949 0.0000
vt 0.1426 0.1229 0.0000
vt 0.9463 0.6921 0.0000
vt 0.9125 0.6856 0.0000
vt 0.9800 0.6987 0.0000
vt 0.2035 0.2259 0.0000
vt 0.1099 0.2979 0.0000
vt 0.1042 0.2619 0.0000
vt 0.4546 0.6145 0.0000
vt 0.4883 0.6076 0.0000
vt 0.4209 0.6213 0.0000
vt 0.2029 0.1589 0.0000
vt 0.2086 0.1949 0.0000
vt 0.2086 0.1229 0.0000
vt 0.9168 0.7640 0.0000
vt 0.8882 0.7451 0.0000
vt 0.9455 0.7830 0.0000
vt 0.1099 0.2259 0.0000
vt 0.0305 0.2979 0.0000
vt 0.0200 0.2619 0.0000
vt 0.4246 0.5428 0.0000
vt 0.4531 0.5236 0.0000
vt 0.3961 0.5620 0.0000
vt 0.2540 0.1589 0.0000
vt 0.2646 0.1949 0.0000
vt 0.2646 0.1229 0.0000
vt 0.8621 0.8192 0.0000
vt 0.8429 0.7907 0.0000
vt 0.8813 0.8477 0.0000
vt 0.0305 0.2259 0.0000
vt 0.3869 0.3648 0.0000
vt 0.2970 0.4008 0.0000
vt 0.3028 0.3648 0.0000
vt 0.3764 0.4008 0.0000
vt 0.3694 0.4881 0.0000
vt 0.3884 0.4595 0.0000
vt 0.3505 0.5168 0.0000
vt 0.2939 0.1949 0.0000
vt 0.3556 0.1589 0.0000
vt 0.3499 0.1949 0.0000
vt 0.3045 0.1589 0.0000
vt 0.3499 0.1229 0.0000
vt 0.2939 0.1229 0.0000
vt 0.7905 0.8492 0.0000
vt 0.7836 0.8155 0.0000
vt 0.7973 0.8829 0.0000
vt 0.3764 0.3288 0.0000
vt 0.2970 0.3288 0.0000
vt 0.2035 0.4008 0.0000
vt 0.2035 0.3648 0.0000
vt 0.2976 0.4587 0.0000
vt 0.3041 0.4249 0.0000
vt 0.2910 0.4924 0.0000
vt 0.4159 0.1589 0.0000
vt 0.4159 0.1949 0.0000
vt 0.4159 0.1229 0.0000
vt 0.7128 0.8495 0.0000
vt 0.7194 0.8158 0.0000
vt 0.7062 0.8832 0.0000
vt 0.2035 0.3288 0.0000
vt 0.1099 0.4008 0.0000
vt 0.1042 0.3648 0.0000
vt 0.2199 0.4590 0.0000
vt 0.2130 0.4253 0.0000
vt 0.2267 0.4927 0.0000
vt 0.4762 0.1589 0.0000
vt 0.4819 0.1949 0.0000
vt 0.4819 0.1229 0.0000
vt 0.6409 0.8201 0.0000
vt 0.6599 0.7914 0.0000
vt 0.6219 0.8487 0.0000
vt 0.1099 0.3288 0.0000
vt 0.0305 0.4008 0.0000
vt 0.0200 0.3648 0.0000
vt 0.1482 0.4890 0.0000
vt 0.1290 0.4605 0.0000
vt 0.1674 0.5175 0.0000
vt 0.5274 0.1589 0.0000
vt 0.5379 0.1949 0.0000
vt 0.5379 0.1229 0.0000
vt 0.5858 0.7653 0.0000
vt 0.6143 0.7461 0.0000
vt 0.5573 0.7846 0.0000
vt 0.0305 0.3288 0.0000
vt 0.7820 0.2619 0.0000
vt 0.6921 0.2979 0.0000
vt 0.6978 0.2619 0.0000
vt 0.7715 0.2979 0.0000
vt 0.0935 0.5441 0.0000
vt 0.0649 0.5252 0.0000
vt 0.1222 0.5631 0.0000
vt 0.5672 0.1949 0.0000
vt 0.6289 0.1589 0.0000
vt 0.6232 0.1949 0.0000
vt 0.5778 0.1589 0.0000
vt 0.6232 0.1229 0.0000
vt 0.5672 0.1229 0.0000
vt 0.5558 0.6937 0.0000
vt 0.5894 0.6869 0.0000
vt 0.5221 0.7005 0.0000
vt 0.7715 0.2259 0.0000
vt 0.6921 0.2259 0.0000
vt 0.5986 0.2979 0.0000
vt 0.5986 0.2619 0.0000
vt 0.0641 0.6160 0.0000
vt 0.0304 0.6095 0.0000
vt 0.0978 0.6226 0.0000
vt 0.6893 0.1589 0.0000
vt 0.6893 0.1949 0.0000
vt 0.6893 0.1229 0.0000
vt 0.5555 0.6160 0.0000
vt 0.5892 0.6226 0.0000
vt 0.5217 0.6095 0.0000
vt 0.5986 0.2259 0.0000
vt 0.5050 0.2979 0.0000
vt 0.4993 0.2619 0.0000
vt 0.0644 0.6937 0.0000
vt 0.0307 0.7005 0.0000
vt 0.0981 0.6869 0.0000
vt 0.7496 0.1589 0.0000
vt 0.7553 0.1949 0.0000
vt 0.7553 0.1229 0.0000
vt 0.5849 0.5441 0.0000
vt 0.6135 0.5631 0.0000
vt 0.5562 0.5252 0.0000
vt 0.5050 0.2259 0.0000
vt 0.4256 0.2979 0.0000
vt 0.4151 0.2619 0.0000
vt 0.0944 0.7653 0.0000
vt 0.0659 0.7846 0.0000
vt 0.1229 0.7461 0.0000
vt 0.8007 0.1589 0.0000
vt 0.8113 0.1949 0.0000
vt 0.8113 0.1229 0.0000
vt 0.6396 0.4890 0.0000
vt 0.6588 0.5175 0.0000
vt 0.6204 0.4605 0.0000
vt 0.4256 0.2259 0.0000
vt 0.7820 0.3648 0.0000
vt 0.6921 0.4008 0.0000
vt 0.6978 0.3648 0.0000
vt 0.7715 0.4008 0.0000
vt 0.1496 0.8201 0.0000
vt 0.1306 0.8487 0.0000
vt 0.1685 0.7914 0.0000
vt 0.0206 0.0920 0.0000
vt 0.0823 0.0560 0.0000
vt 0.0766 0.0920 0.0000
vt 0.0311 0.0560 0.0000
vt 0.0766 0.0200 0.0000
vt 0.0206 0.0200 0.0000
vt 0.7112 0.4590 0.0000
vt 0.7181 0.4927 0.0000
vt 0.7044 0.4253 0.0000
vt 0.7715 0.3288 0.0000
vt 0.6921 0.3288 0.0000
# 216 texture coords

g Torus001
usemtl wire_006135058
s 1
f 1/1/1 2/2/2 3/3/3 
f 1/1/1 4/4/4 2/2/2 
f 4/5/4 5/6/5 2/7/2 
f 4/5/4 6/8/6 5/6/5 
f 6/8/6 7/9/7 5/6/5 
f 6/8/6 8/10/8 7/9/7 
f 8/11/8 9/12/9 7/13/7 
f 8/11/8 10/14/10 9/12/9 
f 10/14/10 11/15/11 9/12/9 
f 10/14/10 12/16/12 11/15/11 
f 12/17/12 13/18/13 11/19/11 
f 12/17/12 14/20/14 13/18/13 
f 14/20/14 15/21/15 13/18/13 
f 14/20/14 16/22/16 15/21/15 
f 16/23/16 3/3/3 15/24/15 
f 16/23/16 1/1/1 3/3/3 
f 3/3/3 17/25/17 18/26/18 
f 3/3/3 2/2/2 17/25/17 
f 2/7/2 19/27/19 17/28/17 
f 2/7/2 5/6/5 19/27/19 
f 5/6/5 20/29/20 19/27/19 
f 5/6/5 7/9/7 20/29/20 
f 7/13/7 21/30/21 20/31/20 
f 7/13/7 9/12/9 21/30/21 
f 9/12/9 22/32/22 21/30/21 
f 9/12/9 11/15/11 22/32/22 
f 11/19/11 23/33/23 22/34/22 
f 11/19/11 13/18/13 23/33/23 
f 13/18/13 24/35/24 23/33/23 
f 13/18/13 15/21/15 24/35/24 
f 15/24/15 18/26/18 24/36/24 
f 15/24/15 3/3/3 18/26/18 
f 18/37/18 25/38/25 26/39/26 
f 18/37/18 17/40/17 25/38/25 
f 17/28/17 27/41/27 25/42/25 
f 17/28/17 19/27/19 27/41/27 
f 19/27/19 28/43/28 27/41/27 
f 19/27/19 20/29/20 28/43/28 
f 20/44/20 29/45/29 28/46/28 
f 20/44/20 21/47/21 29/45/29 
f 21/47/21 30/48/30 29/45/29 
f 21/47/21 22/49/22 30/48/30 
f 22/34/22 31/50/31 30/51/30 
f 22/34/22 23/33/23 31/50/31 
f 23/33/23 32/52/32 31/50/31 
f 23/33/23 24/35/24 32/52/32 
f 24/53/24 26/39/26 32/54/32 
f 24/53/24 18/37/18 26/39/26 
f 26/39/26 33/55/33 34/56/34 
f 26/39/26 25/38/25 33/55/33 
f 25/42/25 35/57/35 33/58/33 
f 25/42/25 27/41/27 35/57/35 
f 27/41/27 36/59/36 35/57/35 
f 27/41/27 28/43/28 36/59/36 
f 28/46/28 37/60/37 36/61/36 
f 28/46/28 29/45/29 37/60/37 
f 29/45/29 38/62/38 37/60/37 
f 29/45/29 30/48/30 38/62/38 
f 30/51/30 39/63/39 38/64/38 
f 30/51/30 31/50/31 39/63/39 
f 31/50/31 40/65/40 39/63/39 
f 31/50/31 32/52/32 40/65/40 
f 32/54/32 34/56/34 40/66/40 
f 32/54/32 26/39/26 34/56/34 
f 34/56/34 41/67/41 42/68/42 
f 34/56/34 33/55/33 41/67/41 
f 33/58/33 43/69/43 41/70/41 
f 33/58/33 35/57/35 43/69/43 
f 35/57/35 44/71/44 43/69/43 
f 35/57/35 36/59/36 44/71/44 
f 36/61/36 45/72/45 44/73/44 
f 36/61/36 37/60/37 45/72/45 
f 37/60/37 46/74/46 45/72/45 
f 37/60/37 38/62/38 46/74/46 
f 38/64/38 47/75/47 46/76/46 
f 38/64/38 39/63/39 47/75/47 
f 39/63/39 48/77/48 47/75/47 
f 39/63/39 40/65/40 48/77/48 
f 40/66/40 42/68/42 48/78/48 
f 40/66/40 34/56/34 42/68/42 
f 42/68/42 49/79/49 50/80/50 
f 42/68/42 41/67/41 49/79/49 
f 41/70/41 51/81/51 49/82/49 
f 41/70/41 43/69/43 51/81/51 
f 43/69/43 52/83/52 51/81/51 
f 43/69/43 44/71/44 52/83/52 
f 44/73/44 53/84/53 52/85/52 
f 44/73/44 45/72/45 53/84/53 
f 45/72/45 54/86/54 53/84/53 
f 45/72/45 46/74/46 54/86/54 
f 46/76/46 55/87/55 54/88/54 
f 46/76/46 47/75/47 55/87/55 
f 47/75/47 56/89/56 55/87/55 
f 47/75/47 48/77/48 56/89/56 
f 48/78/48 50/80/50 56/90/56 
f 48/78/48 42/68/42 50/80/50 
f 50/91/50 57/92/57 58/93/58 
f 50/91/50 49/94/49 57/92/57 
f 49/82/49 59/95/59 57/96/57 
f 49/82/49 51/81/51 59/95/59 
f 51/81/51 60/97/60 59/95/59 
f 51/81/51 52/83/52 60/97/60 
f 52/98/52 61/99/61 60/100/60 
f 52/98/52 53/101/53 61/99/61 
f 53/101/53 62/102/62 61/99/61 
f 53/101/53 54/103/54 62/102/62 
f 54/88/54 63/104/63 62/105/62 
f 54/88/54 55/87/55 63/104/63 
f 55/87/55 64/106/64 63/104/63 
f 55/87/55 56/89/56 64/106/64 
f 56/107/56 58/93/58 64/108/64 
f 56/107/56 50/91/50 58/93/58 
f 58/93/58 65/109/65 66/110/66 
f 58/93/58 57/92/57 65/109/65 
f 57/96/57 67/111/67 65/112/65 
f 57/96/57 59/95/59 67/111/67 
f 59/95/59 68/113/68 67/111/67 
f 59/95/59 60/97/60 68/113/68 
f 60/100/60 69/114/69 68/115/68 
f 60/100/60 61/99/61 69/114/69 
f 61/99/61 70/116/70 69/114/69 
f 61/99/61 62/102/62 70/116/70 
f 62/105/62 71/117/71 70/118/70 
f 62/105/62 63/104/63 71/117/71 
f 63/104/63 72/119/72 71/117/71 
f 63/104/63 64/106/64 72/119/72 
f 64/108/64 66/110/66 72/120/72 
f 64/108/64 58/93/58 66/110/66 
f 66/110/66 73/121/73 74/122/74 
f 66/110/66 65/109/65 73/121/73 
f 65/112/65 75/123/75 73/124/73 
f 65/112/65 67/111/67 75/123/75 
f 67/111/67 76/125/76 75/123/75 
f 67/111/67 68/113/68 76/125/76 
f 68/115/68 77/126/3 76/127/76 
f 68/115/68 69/114/69 77/126/3 
f 69/114/69 78/128/77 77/126/3 
f 69/114/69 70/116/70 78/128/77 
f 70/118/70 79/129/78 78/130/77 
f 70/118/70 71/117/71 79/129/78 
f 71/117/71 80/131/79 79/129/78 
f 71/117/71 72/119/72 80/131/79 
f 72/120/72 74/122/74 80/132/79 
f 72/120/72 66/110/66 74/122/74 
f 74/122/74 81/133/80 82/134/81 
f 74/122/74 73/121/73 81/133/80 
f 73/124/73 83/135/82 81/136/80 
f 73/124/73 75/123/75 83/135/82 
f 75/123/75 84/137/83 83/135/82 
f 75/123/75 76/125/76 84/137/83 
f 76/127/76 85/138/84 84/139/83 
f 76/127/76 77/126/3 85/138/84 
f 77/126/3 86/140/85 85/138/84 
f 77/126/3 78/128/77 86/140/85 
f 78/130/77 87/141/86 86/142/85 
f 78/130/77 79/129/78 87/141/86 
f 79/129/78 88/143/87 87/141/86 
f 79/129/78 80/131/79 88/143/87 
f 80/132/79 82/134/81 88/144/87 
f 80/132/79 74/122/74 82/134/81 
f 82/145/81 89/146/88 90/147/89 
f 82/145/81 81/148/80 89/146/88 
f 81/136/80 91/149/90 89/150/88 
f 81/136/80 83/135/82 91/149/90 
f 83/135/82 92/151/91 91/149/90 
f 83/135/82 84/137/83 92/151/91 
f 84/152/83 93/153/92 92/154/91 
f 84/152/83 85/155/84 93/153/92 
f 85/155/84 94/156/93 93/153/92 
f 85/155/84 86/157/85 94/156/93 
f 86/142/85 95/158/94 94/159/93 
f 86/142/85 87/141/86 95/158/94 
f 87/141/86 96/160/95 95/158/94 
f 87/141/86 88/143/87 96/160/95 
f 88/161/87 90/147/89 96/162/95 
f 88/161/87 82/145/81 90/147/89 
f 90/147/89 97/163/96 98/164/97 
f 90/147/89 89/146/88 97/163/96 
f 89/150/88 99/165/98 97/166/96 
f 89/150/88 91/149/90 99/165/98 
f 91/149/90 100/167/99 99/165/98 
f 91/149/90 92/151/91 100/167/99 
f 92/154/91 101/168/34 100/169/99 
f 92/154/91 93/153/92 101/168/34 
f 93/153/92 102/170/100 101/168/34 
f 93/153/92 94/156/93 102/170/100 
f 94/159/93 103/171/101 102/172/100 
f 94/159/93 95/158/94 103/171/101 
f 95/158/94 104/173/102 103/171/101 
f 95/158/94 96/160/95 104/173/102 
f 96/162/95 98/164/97 104/174/102 
f 96/162/95 90/147/89 98/164/97 
f 98/164/97 105/175/103 106/176/104 
f 98/164/97 97/163/96 105/175/103 
f 97/166/96 107/177/105 105/178/103 
f 97/166/96 99/165/98 107/177/105 
f 99/165/98 108/179/106 107/177/105 
f 99/165/98 100/167/99 108/179/106 
f 100/169/99 109/180/42 108/181/106 
f 100/169/99 101/168/34 109/180/42 
f 101/168/34 110/182/107 109/180/42 
f 101/168/34 102/170/100 110/182/107 
f 102/172/100 111/183/108 110/184/107 
f 102/172/100 103/171/101 111/183/108 
f 103/171/101 112/185/109 111/183/108 
f 103/171/101 104/173/102 112/185/109 
f 104/174/102 106/176/104 112/186/109 
f 104/174/102 98/164/97 106/176/104 
f 106/176/104 113/187/110 114/188/111 
f 106/176/104 105/175/103 113/187/110 
f 105/178/103 115/189/112 113/190/110 
f 105/178/103 107/177/105 115/189/112 
f 107/177/105 116/191/113 115/189/112 
f 107/177/105 108/179/106 116/191/113 
f 108/181/106 117/192/114 116/193/113 
f 108/181/106 109/180/42 117/192/114 
f 109/180/42 118/194/115 117/192/114 
f 109/180/42 110/182/107 118/194/115 
f 110/184/107 119/195/116 118/196/115 
f 110/184/107 111/183/108 119/195/116 
f 111/183/108 120/197/117 119/195/116 
f 111/183/108 112/185/109 120/197/117 
f 112/186/109 114/188/111 120/198/117 
f 112/186/109 106/176/104 114/188/111 
f 114/199/111 121/200/118 122/201/119 
f 114/199/111 113/202/110 121/200/118 
f 113/190/110 123/203/120 121/204/118 
f 113/190/110 115/189/112 123/203/120 
f 115/189/112 124/205/121 123/203/120 
f 115/189/112 116/191/113 124/205/121 
f 116/206/113 125/207/122 124/208/121 
f 116/206/113 117/209/114 125/207/122 
f 117/209/114 126/210/123 125/207/122 
f 117/209/114 118/211/115 126/210/123 
f 118/196/115 127/212/124 126/213/123 
f 118/196/115 119/195/116 127/212/124 
f 119/195/116 128/214/125 127/212/124 
f 119/195/116 120/197/117 128/214/125 
f 120/215/117 122/201/119 128/216/125 
f 120/215/117 114/199/111 122/201/119 
f 122/201/119 4/4/4 1/1/1 
f 122/201/119 121/200/118 4/4/4 
f 121/204/118 6/8/6 4/5/4 
f 121/204/118 123/203/120 6/8/6 
f 123/203/120 8/10/8 6/8/6 
f 123/203/120 124/205/121 8/10/8 
f 124/208/121 10/14/10 8/11/8 
f 124/208/121 125/207/122 10/14/10 
f 125/207/122 12/16/12 10/14/10 
f 125/207/122 126/210/123 12/16/12 
f 126/213/123 14/20/14 12/17/12 
f 126/213/123 127/212/124 14/20/14 
f 127/212/124 16/22/16 14/20/14 
f 127/212/124 128/214/125 16/22/16 
f 128/216/125 1/1/1 16/23/16 
f 128/216/125 122/201/119 1/1/1 
# 256 faces

