# 3ds Max Wavefront OBJ Exporter v0.97b - (c)2007 guruware
# File Created: 15.10.2016 16:04:46

mtllib bomb.mtl

#
# object Cylinder004
#

v  1.3154 -5.4086 -0.0011
v  1.1376 -5.4086 -0.6645
v  1.1376 -1.2560 -0.6645
v  1.1376 0.0000 -0.6645
v  1.3154 0.0000 -0.0011
v  2.0105 -7.0007 -2.1753
v  2.0105 -3.3200 -2.1753
v  2.1626 -3.3200 -2.0232
v  2.1626 -7.0007 -2.0232
v  0.6519 -5.4086 -1.1502
v  -0.0116 -5.4086 -1.3280
v  -0.0116 0.0000 -1.3280
v  0.6519 0.0000 -1.1502
v  0.6519 -1.2560 -1.1502
v  -0.6751 -5.4086 -1.1502
v  -0.6751 -1.2560 -1.1502
v  -0.6751 0.0000 -1.1502
v  -2.1858 -7.0007 -2.0232
v  -2.1858 -3.3200 -2.0232
v  -2.0338 -3.3200 -2.1753
v  -2.0338 -7.0007 -2.1753
v  -1.1608 -5.4086 -0.6645
v  -1.3386 -5.4086 -0.0011
v  -1.3386 0.0000 -0.0011
v  -1.1608 0.0000 -0.6645
v  -1.1608 -1.2560 -0.6645
v  -1.1608 -5.4086 0.6624
v  -1.1608 -1.2560 0.6624
v  -1.1608 0.0000 0.6624
v  -2.0338 -7.0007 2.1732
v  -2.0338 -3.3200 2.1732
v  -2.1858 -3.3200 2.0211
v  -2.1858 -7.0007 2.0211
v  -0.6751 -5.4086 1.1481
v  -0.0116 -5.4086 1.3259
v  -0.0116 0.0000 1.3259
v  -0.6751 0.0000 1.1481
v  -0.6751 -1.2560 1.1481
v  0.6519 -5.4086 1.1481
v  0.6519 -1.2560 1.1481
v  0.6519 0.0000 1.1481
v  2.1626 -7.0007 2.0211
v  2.1626 -3.3200 2.0211
v  2.0105 -3.3200 2.1732
v  2.0105 -7.0007 2.1732
v  1.1376 -5.4086 0.6624
v  1.1376 0.0000 0.6624
v  1.1376 -1.2560 0.6624
v  0.5783 -5.3603 1.0207
v  -0.0116 -5.3603 1.1788
v  -0.6015 -5.3603 1.0207
v  -1.0334 -5.3603 0.5889
v  -1.1915 -5.3603 -0.0011
v  -1.0334 -5.3603 -0.5910
v  -0.6015 -5.3603 -1.0228
v  -0.0116 -5.3603 -1.1809
v  0.5783 -5.3603 -1.0228
v  1.0102 -5.3603 -0.5910
v  1.1683 -5.3603 -0.0011
v  1.0102 -5.3603 0.5889
v  1.0024 3.9824 -0.5865
v  1.1593 3.9824 -0.0011
v  0.5738 3.9824 -1.0151
v  -0.0116 3.9824 -1.1720
v  -0.5971 3.9824 -1.0151
v  -1.0256 3.9824 -0.5865
v  -1.1825 3.9824 -0.0011
v  -1.0256 3.9824 0.5844
v  -0.5971 3.9824 1.0130
v  -0.0116 3.9824 1.1699
v  0.5738 3.9824 1.0130
v  1.0024 3.9824 0.5844
v  0.8673 5.1571 -0.5085
v  1.0032 5.1571 -0.0011
v  0.4958 5.1571 -0.8799
v  -0.0116 5.1571 -1.0159
v  -0.5190 5.1571 -0.8799
v  -0.8905 5.1571 -0.5085
v  -1.0264 5.1571 -0.0011
v  -0.8905 5.1571 0.5064
v  -0.5190 5.1571 0.8778
v  -0.0116 5.1571 1.0138
v  0.4958 5.1571 0.8778
v  0.8673 5.1571 0.5064
v  0.5197 6.0707 -0.3078
v  0.6019 6.0707 -0.0011
v  0.2952 6.0707 -0.5324
v  -0.0116 6.0707 -0.6146
v  -0.3184 6.0707 -0.5324
v  -0.5429 6.0707 -0.3078
v  -0.6251 6.0707 -0.0011
v  -0.5429 6.0707 0.3057
v  -0.3184 6.0707 0.5303
v  -0.0116 6.0707 0.6125
v  0.2952 6.0707 0.5303
v  0.5197 6.0707 0.3057
v  -0.0116 6.4269 -0.0011
v  1.4674 -6.0827 -0.0011
v  1.2692 -6.0827 -0.7405
v  1.2692 -6.0827 0.7384
v  0.7279 -6.0827 1.2798
v  -0.0116 -6.0827 1.4779
v  -0.7511 -6.0827 1.2798
v  -1.2924 -6.0827 0.7384
v  -1.4906 -6.0827 -0.0011
v  -1.2924 -6.0827 -0.7405
v  -0.7511 -6.0827 -1.2819
v  -0.0116 -6.0827 -1.4800
v  0.7279 -6.0827 -1.2819
v  1.4674 -6.7568 -0.0011
v  1.2692 -6.7568 -0.7405
v  1.2692 -6.7568 0.7384
v  0.7279 -6.7568 1.2798
v  -0.0116 -6.7568 1.4779
v  -0.7511 -6.7568 1.2798
v  -1.2924 -6.7568 0.7384
v  -1.4906 -6.7568 -0.0011
v  -1.2924 -6.7568 -0.7405
v  -0.7511 -6.7568 -1.2819
v  -0.0116 -6.7568 -1.4800
v  0.7279 -6.7568 -1.2819
v  1.3178 -6.7568 -0.0011
v  1.1397 -6.7568 -0.6658
v  1.1397 -6.7568 0.6637
v  0.6531 -6.7568 1.1503
v  -0.0116 -6.7568 1.3284
v  -0.6763 -6.7568 1.1503
v  -1.1629 -6.7568 0.6637
v  -1.3410 -6.7568 -0.0011
v  -1.1629 -6.7568 -0.6658
v  -0.6763 -6.7568 -1.1524
v  -0.0116 -6.7568 -1.3305
v  0.6531 -6.7568 -1.1524
# 133 vertices

vn 0.9936 0.1127 -0.0000
vn 0.8967 0.1487 -0.4170
vn 0.8638 0.1634 -0.4767
vn 0.8659 0.0195 -0.4999
vn 0.9998 0.0195 -0.0000
vn 0.7071 0.0000 -0.7071
vn 0.6637 0.3449 -0.6637
vn 0.4170 0.1487 -0.8967
vn 0.0000 0.1127 -0.9936
vn 0.0000 0.0195 -0.9998
vn 0.4999 0.0195 -0.8659
vn 0.4767 0.1634 -0.8638
vn -0.4170 0.1487 -0.8967
vn -0.4767 0.1634 -0.8638
vn -0.4999 0.0195 -0.8659
vn -0.7071 0.0000 -0.7071
vn -0.6637 0.3449 -0.6637
vn -0.8967 0.1487 -0.4170
vn -0.9936 0.1127 -0.0000
vn -0.9998 0.0195 -0.0000
vn -0.8659 0.0195 -0.4999
vn -0.8638 0.1634 -0.4767
vn -0.8967 0.1487 0.4170
vn -0.8638 0.1634 0.4767
vn -0.8659 0.0195 0.4999
vn -0.7071 0.0000 0.7071
vn -0.6637 0.3449 0.6637
vn -0.4170 0.1487 0.8967
vn 0.0000 0.1127 0.9936
vn 0.0000 0.0195 0.9998
vn -0.4999 0.0195 0.8659
vn -0.4767 0.1634 0.8638
vn 0.4170 0.1487 0.8967
vn 0.4767 0.1634 0.8638
vn 0.4999 0.0195 0.8659
vn 0.7071 0.0000 0.7071
vn 0.6637 0.3449 0.6637
vn 0.8967 0.1487 0.4170
vn 0.8659 0.0195 0.4999
vn 0.8638 0.1634 0.4767
vn 0.0000 -1.0000 -0.0000
vn 0.8629 0.0849 -0.4982
vn 0.9964 0.0849 -0.0000
vn 0.4982 0.0849 -0.8629
vn 0.0000 0.0849 -0.9964
vn -0.4982 0.0849 -0.8629
vn -0.8629 0.0849 -0.4982
vn -0.9964 0.0849 -0.0000
vn -0.8629 0.0849 0.4982
vn -0.4982 0.0849 0.8629
vn 0.0000 0.0849 0.9964
vn 0.4982 0.0849 0.8629
vn 0.8629 0.0849 0.4982
vn 0.8354 0.2638 -0.4823
vn 0.9646 0.2638 -0.0000
vn 0.4823 0.2638 -0.8354
vn 0.0000 0.2638 -0.9646
vn -0.4823 0.2638 -0.8354
vn -0.8354 0.2638 -0.4823
vn -0.9646 0.2638 -0.0000
vn -0.8354 0.2638 0.4823
vn -0.4823 0.2638 0.8354
vn 0.0000 0.2638 0.9646
vn 0.4823 0.2638 0.8354
vn 0.8354 0.2638 0.4823
vn 0.6641 0.6419 -0.3834
vn 0.7668 0.6419 -0.0000
vn 0.3834 0.6419 -0.6641
vn 0.0000 0.6419 -0.7668
vn -0.3834 0.6419 -0.6641
vn -0.6641 0.6419 -0.3834
vn -0.7668 0.6419 -0.0000
vn -0.6641 0.6419 0.3834
vn -0.3834 0.6419 0.6641
vn 0.0000 0.6419 0.7668
vn 0.3834 0.6419 0.6641
vn 0.6641 0.6419 0.3834
vn 0.0000 1.0000 -0.0000
vn 0.9941 0.1087 -0.0000
vn 0.8609 0.1087 -0.4970
vn 0.8609 0.1087 0.4970
vn 0.4970 0.1087 0.8609
vn 0.0000 0.1087 0.9941
vn -0.4970 0.1087 0.8609
vn -0.8609 0.1087 0.4970
vn -0.9941 0.1087 -0.0000
vn -0.8609 0.1087 -0.4970
vn -0.4970 0.1087 -0.8609
vn 0.0000 0.1087 -0.9941
vn 0.4970 0.1087 -0.8609
vn 1.0000 0.0000 -0.0000
vn 0.8660 0.0000 -0.5000
vn 0.8660 0.0000 0.5000
vn 0.5000 0.0000 0.8660
vn 0.0000 0.0000 1.0000
vn -0.5000 0.0000 0.8660
vn -0.8660 0.0000 0.5000
vn -1.0000 0.0000 -0.0000
vn -0.8660 0.0000 -0.5000
vn -0.5000 0.0000 -0.8660
vn 0.0000 0.0000 -1.0000
vn 0.5000 0.0000 -0.8660
vn -0.8611 -0.1065 0.4972
vn -0.9943 -0.1065 -0.0000
vn -0.8611 -0.1065 -0.4972
vn -0.4972 -0.1065 -0.8611
vn 0.0000 -0.1065 -0.9943
vn 0.4972 -0.1065 -0.8611
vn 0.8611 -0.1065 -0.4972
vn 0.9943 -0.1065 -0.0000
vn 0.8611 -0.1065 0.4972
vn 0.4972 -0.1065 0.8611
vn 0.0000 -0.1065 0.9943
vn -0.4972 -0.1065 0.8611
vn 0.7983 0.0000 0.6023
vn -0.4856 -0.7270 0.4856
vn -0.6023 0.0000 -0.7983
vn 0.6023 0.0000 -0.7983
vn 0.4856 -0.7270 0.4856
vn -0.7983 0.0000 0.6023
vn -0.7983 0.0000 -0.6023
vn 0.4856 -0.7270 -0.4856
vn 0.6023 0.0000 0.7983
vn -0.6023 0.0000 0.7983
vn -0.4856 -0.7270 -0.4856
vn 0.7983 0.0000 -0.6023
# 126 vertex normals

vt 0.1922 0.8331 0.0000
vt 0.1793 0.8331 0.0000
vt 0.1793 0.7519 0.0000
vt 0.1793 0.7274 0.0000
vt 0.1922 0.7274 0.0000
vt 0.2256 0.5761 0.0000
vt 0.2256 0.4983 0.0000
vt 0.2289 0.4983 0.0000
vt 0.2289 0.5761 0.0000
vt 0.3355 0.8323 0.0000
vt 0.3227 0.8323 0.0000
vt 0.3227 0.7275 0.0000
vt 0.3355 0.7275 0.0000
vt 0.3355 0.7518 0.0000
vt 0.3098 0.8323 0.0000
vt 0.3098 0.7518 0.0000
vt 0.3098 0.7275 0.0000
vt 0.1092 0.5765 0.0000
vt 0.1092 0.4982 0.0000
vt 0.1124 0.4982 0.0000
vt 0.1124 0.5765 0.0000
vt 0.0557 0.9800 0.0000
vt 0.0427 0.9800 0.0000
vt 0.0427 0.8734 0.0000
vt 0.0557 0.8734 0.0000
vt 0.0557 0.8982 0.0000
vt 0.0296 0.9800 0.0000
vt 0.0296 0.8982 0.0000
vt 0.0296 0.8734 0.0000
vt 0.0200 0.5765 0.0000
vt 0.0200 0.4982 0.0000
vt 0.0232 0.4982 0.0000
vt 0.0232 0.5765 0.0000
vt 0.2886 0.8331 0.0000
vt 0.2756 0.8331 0.0000
vt 0.2756 0.7274 0.0000
vt 0.2886 0.7274 0.0000
vt 0.2886 0.7519 0.0000
vt 0.2627 0.8331 0.0000
vt 0.2627 0.7519 0.0000
vt 0.2627 0.7274 0.0000
vt 0.0203 0.2831 0.0000
vt 0.0203 0.2053 0.0000
vt 0.0235 0.2053 0.0000
vt 0.0235 0.2831 0.0000
vt 0.2052 0.8331 0.0000
vt 0.2052 0.7274 0.0000
vt 0.2052 0.7519 0.0000
vt 0.4494 0.5240 0.0000
vt 0.4377 0.5239 0.0000
vt 0.4277 0.5180 0.0000
vt 0.4220 0.5079 0.0000
vt 0.4220 0.4963 0.0000
vt 0.4279 0.4863 0.0000
vt 0.4381 0.4805 0.0000
vt 0.4497 0.4806 0.0000
vt 0.4597 0.4865 0.0000
vt 0.4655 0.4966 0.0000
vt 0.4654 0.5082 0.0000
vt 0.4595 0.5183 0.0000
vt 0.1808 0.6495 0.0000
vt 0.1922 0.6495 0.0000
vt 0.3698 0.8329 0.0000
vt 0.3568 0.8329 0.0000
vt 0.3575 0.7570 0.0000
vt 0.3691 0.7570 0.0000
vt 0.3227 0.6503 0.0000
vt 0.3340 0.6503 0.0000
vt 0.3113 0.6503 0.0000
vt 0.0560 0.7720 0.0000
vt 0.0429 0.7720 0.0000
vt 0.0437 0.6961 0.0000
vt 0.0552 0.6961 0.0000
vt 0.0427 0.7950 0.0000
vt 0.0542 0.7950 0.0000
vt 0.0311 0.7950 0.0000
vt 0.3698 0.7332 0.0000
vt 0.3568 0.7332 0.0000
vt 0.3575 0.6573 0.0000
vt 0.3691 0.6573 0.0000
vt 0.2756 0.6495 0.0000
vt 0.2871 0.6495 0.0000
vt 0.2642 0.6495 0.0000
vt 0.3724 0.9791 0.0000
vt 0.3593 0.9791 0.0000
vt 0.3601 0.9032 0.0000
vt 0.3717 0.9032 0.0000
vt 0.2037 0.6495 0.0000
vt 0.2999 0.3542 0.0000
vt 0.2883 0.3542 0.0000
vt 0.2899 0.3311 0.0000
vt 0.2999 0.3311 0.0000
vt 0.1563 0.0797 0.0000
vt 0.1447 0.0797 0.0000
vt 0.1455 0.0570 0.0000
vt 0.1555 0.0570 0.0000
vt 0.1946 0.3542 0.0000
vt 0.1830 0.3542 0.0000
vt 0.1830 0.3311 0.0000
vt 0.1931 0.3311 0.0000
vt 0.1715 0.3542 0.0000
vt 0.1730 0.3311 0.0000
vt 0.3218 0.0797 0.0000
vt 0.3102 0.0797 0.0000
vt 0.3110 0.0570 0.0000
vt 0.3211 0.0570 0.0000
vt 0.0778 0.3542 0.0000
vt 0.0662 0.3542 0.0000
vt 0.0662 0.3311 0.0000
vt 0.0762 0.3311 0.0000
vt 0.0547 0.3542 0.0000
vt 0.0562 0.3311 0.0000
vt 0.2731 0.0797 0.0000
vt 0.2615 0.0797 0.0000
vt 0.2623 0.0570 0.0000
vt 0.2724 0.0570 0.0000
vt 0.0778 0.0612 0.0000
vt 0.0662 0.0612 0.0000
vt 0.0662 0.0380 0.0000
vt 0.0762 0.0380 0.0000
vt 0.0547 0.0612 0.0000
vt 0.0562 0.0380 0.0000
vt 0.2050 0.0797 0.0000
vt 0.1934 0.0797 0.0000
vt 0.1942 0.0570 0.0000
vt 0.2042 0.0570 0.0000
vt 0.3114 0.3542 0.0000
vt 0.3099 0.3311 0.0000
vt 0.2938 0.3130 0.0000
vt 0.2999 0.3130 0.0000
vt 0.1474 0.0387 0.0000
vt 0.1535 0.0387 0.0000
vt 0.1830 0.3130 0.0000
vt 0.1891 0.3130 0.0000
vt 0.1770 0.3130 0.0000
vt 0.3130 0.0387 0.0000
vt 0.3191 0.0387 0.0000
vt 0.0662 0.3130 0.0000
vt 0.0723 0.3130 0.0000
vt 0.0602 0.3130 0.0000
vt 0.2643 0.0387 0.0000
vt 0.2704 0.0387 0.0000
vt 0.0662 0.0200 0.0000
vt 0.0723 0.0200 0.0000
vt 0.0602 0.0200 0.0000
vt 0.1962 0.0387 0.0000
vt 0.2022 0.0387 0.0000
vt 0.3059 0.3130 0.0000
vt 0.5264 0.3428 0.0000
vt 0.5297 0.3371 0.0000
vt 0.5386 0.3461 0.0000
vt 0.5354 0.3339 0.0000
vt 0.5420 0.3340 0.0000
vt 0.5476 0.3373 0.0000
vt 0.5508 0.3429 0.0000
vt 0.5508 0.3495 0.0000
vt 0.5475 0.3551 0.0000
vt 0.5418 0.3583 0.0000
vt 0.5353 0.3583 0.0000
vt 0.5296 0.3550 0.0000
vt 0.5264 0.3493 0.0000
vt 0.2859 0.5424 0.0000
vt 0.2999 0.5424 0.0000
vt 0.2999 0.5566 0.0000
vt 0.2843 0.5566 0.0000
vt 0.3139 0.5424 0.0000
vt 0.3155 0.5566 0.0000
vt 0.1926 0.2660 0.0000
vt 0.2058 0.2660 0.0000
vt 0.2065 0.2791 0.0000
vt 0.1919 0.2791 0.0000
vt 0.0523 0.2495 0.0000
vt 0.0663 0.2495 0.0000
vt 0.0663 0.2637 0.0000
vt 0.0507 0.2637 0.0000
vt 0.0804 0.2495 0.0000
vt 0.0820 0.2637 0.0000
vt 0.2608 0.2660 0.0000
vt 0.2739 0.2660 0.0000
vt 0.2746 0.2791 0.0000
vt 0.2600 0.2791 0.0000
vt 0.0521 0.5426 0.0000
vt 0.0662 0.5426 0.0000
vt 0.0662 0.5570 0.0000
vt 0.0505 0.5570 0.0000
vt 0.0803 0.5426 0.0000
vt 0.0819 0.5570 0.0000
vt 0.3095 0.2660 0.0000
vt 0.3226 0.2660 0.0000
vt 0.3233 0.2791 0.0000
vt 0.3087 0.2791 0.0000
vt 0.1689 0.5424 0.0000
vt 0.1829 0.5424 0.0000
vt 0.1829 0.5567 0.0000
vt 0.1673 0.5567 0.0000
vt 0.1970 0.5424 0.0000
vt 0.1986 0.5567 0.0000
vt 0.1439 0.2660 0.0000
vt 0.1570 0.2660 0.0000
vt 0.1578 0.2791 0.0000
vt 0.1432 0.2791 0.0000
vt 0.2999 0.5709 0.0000
vt 0.2843 0.5709 0.0000
vt 0.3155 0.5709 0.0000
vt 0.0392 0.2637 0.0000
vt 0.0507 0.2780 0.0000
vt 0.0392 0.2780 0.0000
vt 0.0663 0.2780 0.0000
vt 0.0820 0.2780 0.0000
vt 0.0390 0.5570 0.0000
vt 0.0505 0.5713 0.0000
vt 0.0390 0.5713 0.0000
vt 0.0662 0.5713 0.0000
vt 0.0819 0.5713 0.0000
vt 0.0934 0.5570 0.0000
vt 0.0934 0.5713 0.0000
vt 0.1829 0.5709 0.0000
vt 0.1673 0.5709 0.0000
vt 0.1986 0.5709 0.0000
vt 0.2729 0.5566 0.0000
vt 0.2729 0.5709 0.0000
vt 0.5481 0.5168 0.0000
vt 0.5627 0.5169 0.0000
vt 0.5620 0.5196 0.0000
vt 0.5489 0.5195 0.0000
vt 0.5753 0.5243 0.0000
vt 0.5733 0.5263 0.0000
vt 0.5825 0.5369 0.0000
vt 0.5797 0.5376 0.0000
vt 0.5824 0.5515 0.0000
vt 0.5796 0.5508 0.0000
vt 0.5750 0.5641 0.0000
vt 0.5730 0.5621 0.0000
vt 0.5623 0.5713 0.0000
vt 0.5616 0.5685 0.0000
vt 0.5477 0.5712 0.0000
vt 0.5485 0.5684 0.0000
vt 0.5352 0.5638 0.0000
vt 0.5372 0.5618 0.0000
vt 0.5280 0.5511 0.0000
vt 0.5307 0.5504 0.0000
vt 0.5281 0.5365 0.0000
vt 0.5308 0.5373 0.0000
vt 0.5355 0.5240 0.0000
vt 0.5375 0.5260 0.0000
vt 0.5529 0.4189 0.0000
vt 0.5400 0.4189 0.0000
vt 0.5400 0.3917 0.0000
vt 0.5515 0.3917 0.0000
vt 0.5271 0.4189 0.0000
vt 0.5286 0.3917 0.0000
vt 0.1091 0.4124 0.0000
vt 0.0960 0.4124 0.0000
vt 0.0967 0.3856 0.0000
vt 0.1084 0.3856 0.0000
vt 0.3996 0.1306 0.0000
vt 0.3867 0.1306 0.0000
vt 0.3867 0.1034 0.0000
vt 0.3982 0.1034 0.0000
vt 0.3738 0.1306 0.0000
vt 0.3753 0.1034 0.0000
vt 0.5219 0.2041 0.0000
vt 0.5088 0.2041 0.0000
vt 0.5095 0.1773 0.0000
vt 0.5211 0.1773 0.0000
vt 0.5529 0.5069 0.0000
vt 0.5400 0.5069 0.0000
vt 0.5400 0.4798 0.0000
vt 0.5515 0.4798 0.0000
vt 0.5271 0.5069 0.0000
vt 0.5286 0.4798 0.0000
vt 0.1091 0.3761 0.0000
vt 0.0960 0.3761 0.0000
vt 0.0967 0.3494 0.0000
vt 0.1084 0.3494 0.0000
vt 0.5346 0.2656 0.0000
vt 0.5217 0.2656 0.0000
vt 0.5217 0.2384 0.0000
vt 0.5332 0.2384 0.0000
vt 0.5088 0.2656 0.0000
vt 0.5102 0.2384 0.0000
vt 0.1091 0.4486 0.0000
vt 0.0960 0.4486 0.0000
vt 0.0967 0.4219 0.0000
vt 0.1084 0.4219 0.0000
vt 0.1698 0.7274 0.0000
vt 0.1698 0.7519 0.0000
vt 0.0653 0.8734 0.0000
vt 0.0653 0.8982 0.0000
vt 0.0200 0.8734 0.0000
vt 0.0200 0.8982 0.0000
vt 0.2532 0.7274 0.0000
vt 0.2532 0.7519 0.0000
vt 0.2859 0.4548 0.0000
vt 0.2572 0.5760 0.0000
vt 0.2572 0.4984 0.0000
vt 0.2806 0.3541 0.0000
vt 0.2652 0.3538 0.0000
vt 0.2712 0.3163 0.0000
vt 0.2760 0.3164 0.0000
vt 0.1970 0.4548 0.0000
vt 0.1434 0.1831 0.0000
vt 0.1576 0.1831 0.0000
vt 0.1527 0.2298 0.0000
vt 0.1483 0.2298 0.0000
vt 0.1689 0.4548 0.0000
vt 0.1402 0.5761 0.0000
vt 0.1402 0.4983 0.0000
vt 0.0467 0.0611 0.0000
vt 0.0314 0.0608 0.0000
vt 0.0374 0.0233 0.0000
vt 0.0422 0.0234 0.0000
vt 0.0803 0.4544 0.0000
vt 0.3089 0.1831 0.0000
vt 0.3231 0.1831 0.0000
vt 0.3182 0.2298 0.0000
vt 0.3138 0.2298 0.0000
vt 0.0521 0.4544 0.0000
vt 0.0919 0.0233 0.0000
vt 0.1072 0.0236 0.0000
vt 0.1012 0.0611 0.0000
vt 0.0964 0.0610 0.0000
vt 0.0804 0.1616 0.0000
vt 0.1091 0.2053 0.0000
vt 0.1091 0.2831 0.0000
vt 0.2602 0.1831 0.0000
vt 0.2744 0.1831 0.0000
vt 0.2695 0.2298 0.0000
vt 0.2651 0.2298 0.0000
vt 0.0523 0.1616 0.0000
vt 0.3255 0.3163 0.0000
vt 0.3409 0.3166 0.0000
vt 0.3349 0.3541 0.0000
vt 0.3301 0.3541 0.0000
vt 0.3139 0.4548 0.0000
vt 0.3425 0.4984 0.0000
vt 0.3425 0.5760 0.0000
vt 0.1921 0.1831 0.0000
vt 0.2063 0.1831 0.0000
vt 0.2014 0.2298 0.0000
vt 0.1970 0.2298 0.0000
# 341 texture coords

g Cylinder004
usemtl wire_006135113
s 1
f 1/1/1 2/2/2 3/3/3 
f 1/1/1 3/3/3 4/4/4 
f 1/1/1 4/4/4 5/5/5 
f 6/6/6 7/7/7 8/8/7 
f 8/8/7 9/9/6 6/6/6 
f 10/10/8 11/11/9 12/12/10 
f 12/12/10 13/13/11 14/14/12 
f 10/10/8 12/12/10 14/14/12 
f 11/11/9 15/15/13 16/16/14 
f 11/11/9 16/16/14 17/17/15 
f 11/11/9 17/17/15 12/12/10 
f 18/18/16 19/19/17 20/20/17 
f 20/20/17 21/21/16 18/18/16 
f 22/22/18 23/23/19 24/24/20 
f 24/24/20 25/25/21 26/26/22 
f 22/22/18 24/24/20 26/26/22 
f 23/23/19 27/27/23 28/28/24 
f 23/23/19 28/28/24 29/29/25 
f 23/23/19 29/29/25 24/24/20 
f 30/30/26 31/31/27 32/32/27 
f 32/32/27 33/33/26 30/30/26 
f 34/34/28 35/35/29 36/36/30 
f 36/36/30 37/37/31 38/38/32 
f 34/34/28 36/36/30 38/38/32 
f 35/35/29 39/39/33 40/40/34 
f 35/35/29 40/40/34 41/41/35 
f 35/35/29 41/41/35 36/36/30 
f 42/42/36 43/43/37 44/44/37 
f 44/44/37 45/45/36 42/42/36 
f 46/46/38 1/1/1 5/5/5 
f 5/5/5 47/47/39 48/48/40 
f 46/46/38 5/5/5 48/48/40 
f 49/49/41 50/50/41 51/51/41 
f 51/51/41 52/52/41 53/53/41 
f 53/53/41 54/54/41 55/55/41 
f 51/51/41 53/53/41 55/55/41 
f 55/55/41 56/56/41 57/57/41 
f 57/57/41 58/58/41 59/59/41 
f 55/55/41 57/57/41 59/59/41 
f 51/51/41 55/55/41 59/59/41 
f 49/49/41 51/51/41 59/59/41 
f 60/60/41 49/49/41 59/59/41 
f 5/5/5 4/4/4 61/61/42 
f 61/61/42 62/62/43 5/5/5 
f 4/63/4 13/64/11 63/65/44 
f 63/65/44 61/66/42 4/63/4 
f 13/13/11 12/12/10 64/67/45 
f 64/67/45 63/68/44 13/13/11 
f 12/12/10 17/17/15 65/69/46 
f 65/69/46 64/67/45 12/12/10 
f 17/70/15 25/71/21 66/72/47 
f 66/72/47 65/73/46 17/70/15 
f 25/25/21 24/24/20 67/74/48 
f 67/74/48 66/75/47 25/25/21 
f 24/24/20 29/29/25 68/76/49 
f 68/76/49 67/74/48 24/24/20 
f 29/77/25 37/78/31 69/79/50 
f 69/79/50 68/80/49 29/77/25 
f 37/37/31 36/36/30 70/81/51 
f 70/81/51 69/82/50 37/37/31 
f 36/36/30 41/41/35 71/83/52 
f 71/83/52 70/81/51 36/36/30 
f 41/84/35 47/85/39 72/86/53 
f 72/86/53 71/87/52 41/84/35 
f 47/47/39 5/5/5 62/62/43 
f 62/62/43 72/88/53 47/47/39 
f 62/89/43 61/90/42 73/91/54 
f 73/91/54 74/92/55 62/89/43 
f 61/93/42 63/94/44 75/95/56 
f 75/95/56 73/96/54 61/93/42 
f 63/97/44 64/98/45 76/99/57 
f 76/99/57 75/100/56 63/97/44 
f 64/98/45 65/101/46 77/102/58 
f 77/102/58 76/99/57 64/98/45 
f 65/103/46 66/104/47 78/105/59 
f 78/105/59 77/106/58 65/103/46 
f 66/107/47 67/108/48 79/109/60 
f 79/109/60 78/110/59 66/107/47 
f 67/108/48 68/111/49 80/112/61 
f 80/112/61 79/109/60 67/108/48 
f 68/113/49 69/114/50 81/115/62 
f 81/115/62 80/116/61 68/113/49 
f 69/117/50 70/118/51 82/119/63 
f 82/119/63 81/120/62 69/117/50 
f 70/118/51 71/121/52 83/122/64 
f 83/122/64 82/119/63 70/118/51 
f 71/123/52 72/124/53 84/125/65 
f 84/125/65 83/126/64 71/123/52 
f 72/127/53 62/89/43 74/92/55 
f 74/92/55 84/128/65 72/127/53 
f 74/92/55 73/91/54 85/129/66 
f 85/129/66 86/130/67 74/92/55 
f 73/96/54 75/95/56 87/131/68 
f 87/131/68 85/132/66 73/96/54 
f 75/100/56 76/99/57 88/133/69 
f 88/133/69 87/134/68 75/100/56 
f 76/99/57 77/102/58 89/135/70 
f 89/135/70 88/133/69 76/99/57 
f 77/106/58 78/105/59 90/136/71 
f 90/136/71 89/137/70 77/106/58 
f 78/110/59 79/109/60 91/138/72 
f 91/138/72 90/139/71 78/110/59 
f 79/109/60 80/112/61 92/140/73 
f 92/140/73 91/138/72 79/109/60 
f 80/116/61 81/115/62 93/141/74 
f 93/141/74 92/142/73 80/116/61 
f 81/120/62 82/119/63 94/143/75 
f 94/143/75 93/144/74 81/120/62 
f 82/119/63 83/122/64 95/145/76 
f 95/145/76 94/143/75 82/119/63 
f 83/126/64 84/125/65 96/146/77 
f 96/146/77 95/147/76 83/126/64 
f 84/128/65 74/92/55 86/130/67 
f 86/130/67 96/148/77 84/128/65 
f 86/149/67 85/150/66 97/151/78 
f 85/150/66 87/152/68 97/151/78 
f 87/152/68 88/153/69 97/151/78 
f 88/153/69 89/154/70 97/151/78 
f 89/154/70 90/155/71 97/151/78 
f 90/155/71 91/156/72 97/151/78 
f 91/156/72 92/157/73 97/151/78 
f 92/157/73 93/158/74 97/151/78 
f 93/158/74 94/159/75 97/151/78 
f 94/159/75 95/160/76 97/151/78 
f 95/160/76 96/161/77 97/151/78 
f 96/161/77 86/149/67 97/151/78 
f 2/162/2 1/163/1 98/164/79 
f 98/164/79 99/165/80 2/162/2 
f 1/163/1 46/166/38 100/167/81 
f 100/167/81 98/164/79 1/163/1 
f 46/168/38 39/169/33 101/170/82 
f 101/170/82 100/171/81 46/168/38 
f 39/172/33 35/173/29 102/174/83 
f 102/174/83 101/175/82 39/172/33 
f 35/173/29 34/176/28 103/177/84 
f 103/177/84 102/174/83 35/173/29 
f 34/178/28 27/179/23 104/180/85 
f 104/180/85 103/181/84 34/178/28 
f 27/182/23 23/183/19 105/184/86 
f 105/184/86 104/185/85 27/182/23 
f 23/183/19 22/186/18 106/187/87 
f 106/187/87 105/184/86 23/183/19 
f 22/188/18 15/189/13 107/190/88 
f 107/190/88 106/191/87 22/188/18 
f 15/192/13 11/193/9 108/194/89 
f 108/194/89 107/195/88 15/192/13 
f 11/193/9 10/196/8 109/197/90 
f 109/197/90 108/194/89 11/193/9 
f 10/198/8 2/199/2 99/200/80 
f 99/200/80 109/201/90 10/198/8 
f 99/165/80 98/164/79 110/202/91 
f 110/202/91 111/203/92 99/165/80 
f 98/164/79 100/167/81 112/204/93 
f 112/204/93 110/202/91 98/164/79 
f 100/205/81 101/175/82 113/206/94 
f 113/206/94 112/207/93 100/205/81 
f 101/175/82 102/174/83 114/208/95 
f 114/208/95 113/206/94 101/175/82 
f 102/174/83 103/177/84 115/209/96 
f 115/209/96 114/208/95 102/174/83 
f 103/210/84 104/185/85 116/211/97 
f 116/211/97 115/212/96 103/210/84 
f 104/185/85 105/184/86 117/213/98 
f 117/213/98 116/211/97 104/185/85 
f 105/184/86 106/187/87 118/214/99 
f 118/214/99 117/213/98 105/184/86 
f 106/187/87 107/215/88 119/216/100 
f 119/216/100 118/214/99 106/187/87 
f 107/195/88 108/194/89 120/217/101 
f 120/217/101 119/218/100 107/195/88 
f 108/194/89 109/197/90 121/219/102 
f 121/219/102 120/217/101 108/194/89 
f 109/220/90 99/165/80 111/203/92 
f 111/203/92 121/221/102 109/220/90 
s 2
f 111/222/41 110/223/41 122/224/41 
f 122/224/41 123/225/41 111/222/41 
f 110/223/41 112/226/41 124/227/41 
f 124/227/41 122/224/41 110/223/41 
f 112/226/41 113/228/41 125/229/41 
f 125/229/41 124/227/41 112/226/41 
f 113/228/41 114/230/41 126/231/41 
f 126/231/41 125/229/41 113/228/41 
f 114/230/41 115/232/41 127/233/41 
f 127/233/41 126/231/41 114/230/41 
f 115/232/41 116/234/41 128/235/41 
f 128/235/41 127/233/41 115/232/41 
f 116/234/41 117/236/41 129/237/41 
f 129/237/41 128/235/41 116/234/41 
f 117/236/41 118/238/41 130/239/41 
f 130/239/41 129/237/41 117/236/41 
f 118/238/41 119/240/41 131/241/41 
f 131/241/41 130/239/41 118/238/41 
f 119/240/41 120/242/41 132/243/41 
f 132/243/41 131/241/41 119/240/41 
f 120/242/41 121/244/41 133/245/41 
f 133/245/41 132/243/41 120/242/41 
f 121/244/41 111/222/41 123/225/41 
f 123/225/41 133/245/41 121/244/41 
s 4
f 123/246/103 122/247/104 59/248/104 
f 59/248/104 58/249/103 123/246/103 
f 122/247/104 124/250/105 60/251/105 
f 60/251/105 59/248/104 122/247/104 
f 124/252/105 125/253/106 49/254/106 
f 49/254/106 60/255/105 124/252/105 
f 125/256/106 126/257/107 50/258/107 
f 50/258/107 49/259/106 125/256/106 
f 126/257/107 127/260/108 51/261/108 
f 51/261/108 50/258/107 126/257/107 
f 127/262/108 128/263/109 52/264/109 
f 52/264/109 51/265/108 127/262/108 
f 128/266/109 129/267/110 53/268/110 
f 53/268/110 52/269/109 128/266/109 
f 129/267/110 130/270/111 54/271/111 
f 54/271/111 53/268/110 129/267/110 
f 130/272/111 131/273/112 55/274/112 
f 55/274/112 54/275/111 130/272/111 
f 131/276/112 132/277/113 56/278/113 
f 56/278/113 55/279/112 131/276/112 
f 132/277/113 133/280/114 57/281/114 
f 57/281/114 56/278/113 132/277/113 
f 133/282/114 123/283/103 58/284/103 
f 58/284/103 57/285/114 133/282/114 
s 1
f 13/286/11 4/4/4 3/3/3 
f 3/3/3 14/287/12 13/286/11 
f 25/25/21 17/288/15 16/289/14 
f 16/289/14 26/26/22 25/25/21 
f 37/290/31 29/29/25 28/28/24 
f 28/28/24 38/291/32 37/290/31 
f 47/292/39 41/41/35 40/40/34 
f 40/40/34 48/293/40 47/292/39 
s 2
f 3/294/115 2/162/115 9/295/115 
f 9/295/115 8/296/115 3/294/115 
s 4
f 2/297/116 10/298/116 6/299/116 
f 6/299/116 9/300/116 2/297/116 
s 2
f 10/196/117 14/301/117 7/7/117 
f 7/7/117 6/6/117 10/196/117 
s 1
f 14/302/12 3/303/3 8/304/7 
f 8/304/7 7/305/7 14/302/12 
s 2
f 16/306/118 15/192/118 21/307/118 
f 21/307/118 20/308/118 16/306/118 
s 4
f 15/309/119 22/310/119 18/311/119 
f 18/311/119 21/312/119 15/309/119 
s 2
f 22/186/120 26/313/120 19/19/120 
f 19/19/120 18/18/120 22/186/120 
s 1
f 26/314/22 16/315/14 20/316/17 
f 20/316/17 19/317/17 26/314/22 
s 2
f 28/318/121 27/182/121 33/33/121 
f 33/33/121 32/32/121 28/318/121 
s 4
f 27/319/122 34/320/122 30/321/122 
f 30/321/122 33/322/122 27/319/122 
s 2
f 34/176/123 38/323/123 31/324/123 
f 31/324/123 30/325/123 34/176/123 
s 1
f 38/326/32 28/327/24 32/328/27 
f 32/328/27 31/329/27 38/326/32 
s 2
f 40/330/124 39/172/124 45/45/124 
f 45/45/124 44/44/124 40/330/124 
s 4
f 39/331/125 46/332/125 42/333/125 
f 42/333/125 45/334/125 39/331/125 
s 2
f 46/166/126 48/335/126 43/336/126 
f 43/336/126 42/337/126 46/166/126 
s 1
f 48/338/40 40/339/34 44/340/37 
f 44/340/37 43/341/37 48/338/40 
# 262 faces

