# 3ds Max Wavefront OBJ Exporter v0.97b - (c)2007 guruware
# File Created: 15.10.2016 11:51:01

mtllib chopper_blades_back.mtl

#
# object Mi24_fan02
#

v  -0.3538 -0.5729 -0.0000
v  -0.3538 -0.0000 -0.5308
v  2.7635 -0.0000 -0.5308
v  2.7635 -0.5729 -0.0000
v  3.0801 -0.7971 0.7662
v  2.2728 -0.7971 0.7662
v  2.2728 -1.1245 0.0212
v  3.0801 -1.1245 0.0212
v  3.0801 -0.7971 -0.7237
v  2.2728 -0.7971 -0.7237
v  2.2728 -0.0000 -1.0276
v  3.0801 -0.0000 -1.0276
v  3.0801 0.7971 -0.7237
v  3.0801 1.1245 0.0212
v  3.0801 0.7971 0.7662
v  3.0801 -0.0000 1.0700
v  -0.3538 -0.0000 0.5308
v  2.7635 -0.0000 0.5308
v  2.2728 -0.0000 1.0700
v  -0.3538 0.5729 -0.0000
v  2.7635 0.5729 -0.0000
v  2.2728 1.1245 0.0212
v  2.2728 0.7971 0.7662
v  2.2728 0.7971 -0.7237
v  1.9207 -0.2965 -0.1048
v  1.9207 -0.2877 0.1184
v  1.9207 0.2920 0.0956
v  1.9207 0.2832 -0.1277
v  2.1441 -0.2965 -0.1048
v  2.1441 0.2832 -0.1277
v  2.1441 0.2920 0.0956
v  2.1441 -0.2877 0.1184
v  1.8223 0.2958 0.1938
v  1.8223 0.2793 -0.2259
v  2.2424 0.2793 -0.2259
v  2.2424 0.2958 0.1938
v  1.8223 1.4756 0.1473
v  1.8223 1.4590 -0.2724
v  2.2424 1.4590 -0.2724
v  2.2424 1.4756 0.1473
v  1.9057 1.4723 0.0640
v  1.9057 1.4623 -0.1892
v  2.1591 1.4623 -0.1892
v  2.1590 1.4723 0.0640
v  1.9057 1.7446 0.0533
v  1.9057 1.7347 -0.1999
v  2.1591 1.7347 -0.1999
v  2.1590 1.7446 0.0533
v  1.8903 1.7739 0.1855
v  1.9976 1.7349 -0.8060
v  2.1744 1.7739 0.1855
v  2.0671 1.7349 -0.8060
v  1.8903 7.7305 -0.0869
v  1.9976 7.6980 -0.9118
v  2.0671 7.6980 -0.9118
v  2.1744 7.7305 -0.0869
v  1.9207 -0.0102 0.3350
v  1.9207 0.1787 0.2158
v  1.9207 -0.1309 -0.2748
v  1.9207 -0.3199 -0.1556
v  2.1441 -0.0102 0.3350
v  2.1441 -0.3199 -0.1556
v  2.1441 -0.1309 -0.2748
v  2.1441 0.1787 0.2158
v  1.8223 -0.0478 -0.3273
v  1.8223 -0.4030 -0.1031
v  2.2424 -0.4030 -0.1031
v  2.2424 -0.0478 -0.3273
v  1.8223 -0.6779 -1.3257
v  1.8223 -1.0332 -1.1015
v  2.2424 -1.0332 -1.1015
v  2.2424 -0.6779 -1.3257
v  1.9057 -0.7484 -1.2812
v  1.9057 -0.9627 -1.1460
v  2.1591 -0.9627 -1.1460
v  2.1591 -0.7484 -1.2812
v  1.9057 -0.8939 -1.5117
v  1.9057 -1.1082 -1.3765
v  2.1591 -1.1082 -1.3765
v  2.1591 -0.8939 -1.5117
v  1.8903 -0.7940 -1.6032
v  1.9976 -1.6331 -1.0736
v  2.1744 -0.7940 -1.6032
v  2.0671 -1.6331 -1.0736
v  1.8903 -4.0082 -6.6255
v  1.9976 -4.7063 -6.1849
v  2.0671 -4.7063 -6.1849
v  2.1744 -4.0082 -6.6255
v  1.9207 0.2276 -0.1328
v  1.9207 0.0298 -0.2368
v  1.9207 -0.2402 0.2766
v  1.9207 -0.0425 0.3806
v  2.1441 0.2276 -0.1328
v  2.1441 -0.0425 0.3806
v  2.1441 -0.2402 0.2766
v  2.1441 0.0298 -0.2368
v  1.8223 -0.3273 0.2309
v  1.8223 0.0445 0.4264
v  2.2424 0.0445 0.4264
v  2.2424 -0.3273 0.2309
v  1.8223 -0.8769 1.2758
v  1.8223 -0.5050 1.4713
v  2.2424 -0.5050 1.4713
v  2.2424 -0.8769 1.2758
v  1.9057 -0.8031 1.3146
v  1.9057 -0.5788 1.4325
v  2.1591 -0.5788 1.4325
v  2.1591 -0.8031 1.3146
v  1.9057 -0.9300 1.5558
v  1.9057 -0.7057 1.6738
v  2.1591 -0.7057 1.6738
v  2.1591 -0.9300 1.5558
v  1.8903 -1.0591 1.5151
v  1.9976 -0.1809 1.9770
v  2.1744 -1.0591 1.5151
v  2.0671 -0.1809 1.9770
v  1.8903 -3.8015 6.8098
v  1.9976 -3.0708 7.1941
v  2.0671 -3.0708 7.1941
v  2.1744 -3.8015 6.8098
# 120 vertices

vn 0.0000 -1.0000 -0.0000
vn 0.0000 0.0000 -1.0000
vn 0.5815 0.0000 -0.8136
vn 0.5735 -0.8192 -0.0000
vn 0.6297 -0.5354 0.5629
vn 0.0000 -0.6892 0.7245
vn 0.6268 -0.7792 -0.0000
vn 0.6297 -0.5354 -0.5629
vn 0.0000 -0.6892 -0.7245
vn -0.0000 0.0000 -1.0000
vn 0.6350 0.0000 -0.7725
vn 0.6297 0.5354 -0.5629
vn 0.6268 0.7792 -0.0000
vn 0.6297 0.5354 0.5629
vn 0.6350 0.0000 0.7725
vn 0.0000 0.0000 1.0000
vn 0.5815 0.0000 0.8136
vn 0.0000 1.0000 -0.0000
vn 0.5735 0.8192 -0.0000
vn 0.0000 0.6892 0.7245
vn 0.0000 0.6892 -0.7245
vn -1.0000 0.0000 -0.0000
vn -0.5773 -0.5996 -0.5542
vn -0.5773 -0.5542 0.5996
vn -0.3015 -0.8920 0.3369
vn -0.3015 -0.9157 -0.2656
vn 0.5774 -0.5996 -0.5542
vn 0.3015 -0.9157 -0.2656
vn 0.3015 -0.8920 0.3369
vn 0.5773 -0.5542 0.5996
vn 0.5773 -0.5996 -0.5542
vn -0.5774 0.5996 0.5542
vn -0.5774 0.5541 -0.5997
vn 0.5774 0.5541 -0.5997
vn 0.5774 0.5996 0.5542
vn -0.3015 0.9157 0.2657
vn -0.3015 0.8919 -0.3369
vn 0.3015 0.8919 -0.3369
vn 0.3015 0.9157 0.2657
vn -0.9198 0.0363 0.3907
vn -0.9044 0.0657 -0.4216
vn 0.9044 0.0656 -0.4216
vn 0.9198 0.0362 0.3907
vn -0.6285 -0.4639 0.6243
vn -0.5417 -0.5879 -0.6008
vn 0.6285 -0.4639 0.6243
vn 0.5417 -0.5879 -0.6008
vn -0.6151 0.5915 0.5213
vn -0.5392 0.5678 -0.6220
vn 0.5392 0.5678 -0.6220
vn 0.6151 0.5915 0.5213
vn -0.5774 -0.1801 0.7964
vn -0.5774 0.7964 0.1801
vn -0.3015 0.7377 0.6040
vn -0.3015 0.2278 0.9259
vn 0.5773 -0.1801 0.7964
vn 0.3015 0.2278 0.9259
vn 0.3015 0.7377 0.6040
vn 0.5773 0.7964 0.1801
vn -0.5773 -0.1801 0.7964
vn 0.5774 0.7964 0.1801
vn -0.5774 0.1801 -0.7964
vn -0.5774 -0.7964 -0.1801
vn 0.5774 -0.7964 -0.1801
vn 0.5774 0.1801 -0.7964
vn -0.3015 -0.2278 -0.9258
vn -0.3016 -0.7378 -0.6040
vn 0.3015 -0.7378 -0.6040
vn 0.3015 -0.2278 -0.9259
vn -0.9198 0.3202 -0.2268
vn -0.9044 -0.3979 0.1539
vn 0.9044 -0.3979 0.1540
vn 0.9198 0.3203 -0.2267
vn -0.6285 0.7726 0.0896
vn -0.5417 -0.2263 0.8095
vn 0.6285 0.7726 0.0896
vn 0.5417 -0.2263 0.8096
vn -0.6150 0.1557 -0.7730
vn -0.5392 -0.8226 -0.1807
vn 0.5392 -0.8226 -0.1806
vn 0.6151 0.1557 -0.7729
vn -0.5774 0.7797 -0.2422
vn -0.5773 -0.2422 -0.7797
vn -0.3015 0.1542 -0.9409
vn -0.3015 0.6879 -0.6602
vn 0.5774 0.7797 -0.2422
vn 0.3015 0.6879 -0.6602
vn 0.3015 0.1542 -0.9409
vn 0.5773 -0.2422 -0.7797
vn -0.5774 -0.2422 -0.7797
vn 0.5774 -0.2422 -0.7797
vn -0.5774 -0.7797 0.2422
vn -0.5774 0.2422 0.7797
vn 0.5774 0.2422 0.7797
vn 0.5774 -0.7797 0.2422
vn -0.3015 -0.6879 0.6602
vn -0.3015 -0.1542 0.9409
vn 0.3015 -0.1542 0.9409
vn 0.3015 -0.6879 0.6602
vn -0.9198 -0.3565 -0.1639
vn -0.9044 0.3323 0.2677
vn 0.9044 0.3323 0.2676
vn 0.9198 -0.3565 -0.1639
vn -0.6285 -0.3087 -0.7139
vn -0.5417 0.8143 -0.2088
vn 0.6285 -0.3087 -0.7139
vn 0.5417 0.8143 -0.2088
vn -0.6151 -0.7473 0.2516
vn -0.5392 0.2548 0.8027
vn 0.5392 0.2548 0.8027
vn 0.6151 -0.7473 0.2516
# 111 vertex normals

vt 0.5694 0.7683 0.0000
vt 0.5798 0.7555 0.0000
vt 0.6299 0.7985 0.0000
vt 0.6174 0.8038 0.0000
vt 0.2768 0.9632 0.0000
vt 0.2706 0.9515 0.0000
vt 0.2883 0.9457 0.0000
vt 0.2883 0.9585 0.0000
vt 0.2998 0.9632 0.0000
vt 0.3060 0.9515 0.0000
vt 0.3184 0.9632 0.0000
vt 0.3078 0.9752 0.0000
vt 0.2688 0.9752 0.0000
vt 0.5602 0.7819 0.0000
vt 0.6160 0.8173 0.0000
vt 0.2582 0.9632 0.0000
vt 0.9363 0.0215 0.0000
vt 0.9433 0.0214 0.0000
vt 0.9439 0.0396 0.0000
vt 0.9358 0.0396 0.0000
vt 0.9573 0.0191 0.0000
vt 0.9624 0.0365 0.0000
vt 0.9532 0.0384 0.0000
vt 0.9503 0.0206 0.0000
vt 0.9639 0.0169 0.0000
vt 0.9700 0.0340 0.0000
vt 0.9618 0.0103 0.0000
vt 0.9552 0.0123 0.0000
vt 0.9433 0.0430 0.0000
vt 0.9316 0.0436 0.0000
vt 0.9639 0.0396 0.0000
vt 0.9537 0.0414 0.0000
vt 0.9753 0.0365 0.0000
vt 0.9488 0.0791 0.0000
vt 0.9370 0.0813 0.0000
vt 0.9697 0.0757 0.0000
vt 0.9594 0.0777 0.0000
vt 0.9815 0.0739 0.0000
vt 0.9502 0.0819 0.0000
vt 0.9415 0.0835 0.0000
vt 0.9693 0.0789 0.0000
vt 0.9600 0.0806 0.0000
vt 0.9775 0.0770 0.0000
vt 0.9520 0.0906 0.0000
vt 0.9432 0.0916 0.0000
vt 0.9716 0.0887 0.0000
vt 0.9619 0.0896 0.0000
vt 0.9775 0.0834 0.0000
vt 0.9537 0.0932 0.0000
vt 0.9235 0.0928 0.0000
vt 0.9609 0.0927 0.0000
vt 0.9912 0.0932 0.0000
vt 0.9922 0.0920 0.0000
vt 0.9512 0.7660 0.0000
vt 0.9201 0.7659 0.0000
vt 0.9911 0.7664 0.0000
vt 0.9600 0.7662 0.0000
vt 0.9934 0.0936 0.0000
vt 0.9933 0.7664 0.0000
vt 0.9913 0.7689 0.0000
vt 0.9610 0.7753 0.0000
# 61 texture coords

g Mi24_fan02
usemtl 13___Default
s off
f 1/1/1 2/2/2 3/3/3 
f 3/3/3 4/4/4 1/1/1 
f 5/5/5 6/6/6 7/7/1 
f 7/7/1 8/8/7 5/5/5 
f 9/9/8 10/10/9 11/11/10 
f 11/11/10 12/12/11 9/9/8 
f 8/8/7 7/7/1 10/10/9 
f 10/10/9 9/9/8 8/8/7 
f 5/5/5 8/8/7 9/9/8 
f 5/5/5 9/9/8 12/12/11 
f 5/5/5 12/12/11 13/9/12 
f 5/5/5 13/9/12 14/8/13 
f 5/5/5 14/8/13 15/5/14 
f 5/5/5 15/5/14 16/13/15 
f 17/14/16 1/1/1 4/4/4 
f 4/4/4 18/15/17 17/14/16 
f 18/15/17 4/4/4 3/3/3 
f 19/16/16 6/6/6 5/5/5 
f 5/5/5 16/13/15 19/16/16 
f 20/1/18 21/4/19 3/3/3 
f 3/3/3 2/2/2 20/1/18 
f 15/5/14 14/8/13 22/7/18 
f 22/7/18 23/6/20 15/5/14 
f 13/9/12 12/12/11 11/11/10 
f 11/11/10 24/10/21 13/9/12 
f 14/8/13 13/9/12 24/10/21 
f 24/10/21 22/7/18 14/8/13 
f 17/14/16 18/15/17 21/4/19 
f 21/4/19 20/1/18 17/14/16 
f 18/15/17 3/3/3 21/4/19 
f 19/16/16 16/13/15 15/5/14 
f 15/5/14 23/6/20 19/16/16 
f 1/1/22 17/14/22 20/1/22 
f 20/1/22 2/2/22 1/1/22 
f 25/17/23 26/18/24 27/19/25 
f 27/19/25 28/20/26 25/17/23 
f 29/21/27 30/22/28 31/23/29 
f 31/23/29 32/24/30 29/21/27 
f 25/25/23 28/26/26 30/22/28 
f 30/22/28 29/21/27 25/25/23 
f 27/19/25 26/18/24 32/24/30 
f 32/24/30 31/23/29 27/19/25 
f 26/27/24 25/25/23 29/21/27 
f 29/21/27 32/28/30 26/27/24 
f 28/20/26 27/19/25 33/29/24 
f 33/29/24 34/30/23 28/20/26 
f 31/23/29 30/22/28 35/31/31 
f 35/31/31 36/32/30 31/23/29 
f 30/22/28 28/26/26 34/33/23 
f 34/33/23 35/31/31 30/22/28 
f 27/19/25 31/23/29 36/32/30 
f 36/32/30 33/29/24 27/19/25 
f 34/30/23 33/29/24 37/34/32 
f 37/34/32 38/35/33 34/30/23 
f 36/32/30 35/31/31 39/36/34 
f 39/36/34 40/37/35 36/32/30 
f 35/31/31 34/33/23 38/38/33 
f 38/38/33 39/36/34 35/31/31 
f 33/29/24 36/32/30 40/37/35 
f 40/37/35 37/34/32 33/29/24 
f 38/35/33 37/34/32 41/39/36 
f 41/39/36 42/40/37 38/35/33 
f 40/37/35 39/36/34 43/41/38 
f 43/41/38 44/42/39 40/37/35 
f 39/36/34 38/38/33 42/43/37 
f 42/43/37 43/41/38 39/36/34 
f 37/34/32 40/37/35 44/42/39 
f 44/42/39 41/39/36 37/34/32 
f 42/40/37 41/39/36 45/44/40 
f 45/44/40 46/45/41 42/40/37 
f 44/42/39 43/41/38 47/46/42 
f 47/46/42 48/47/43 44/42/39 
f 43/41/38 42/43/37 46/48/41 
f 46/48/41 47/46/42 43/41/38 
f 41/39/36 44/42/39 48/47/43 
f 48/47/43 45/44/40 41/39/36 
f 49/49/44 50/50/45 46/45/41 
f 46/45/41 45/44/40 49/49/44 
f 51/51/46 48/47/43 47/46/42 
f 47/46/42 52/52/47 51/51/46 
f 47/46/42 46/48/41 50/53/45 
f 50/53/45 52/52/47 47/46/42 
f 45/44/40 48/47/43 51/51/46 
f 51/51/46 49/49/44 45/44/40 
f 50/50/45 49/49/44 53/54/48 
f 53/54/48 54/55/49 50/50/45 
f 51/51/46 52/52/47 55/56/50 
f 55/56/50 56/57/51 51/51/46 
f 52/52/47 50/58/45 54/59/49 
f 54/59/49 55/56/50 52/52/47 
f 49/49/44 51/51/46 56/57/51 
f 56/57/51 53/54/48 49/49/44 
f 56/57/51 55/56/50 54/60/49 
f 54/60/49 53/61/48 56/57/51 
f 57/17/52 58/18/53 59/19/54 
f 59/19/54 60/20/55 57/17/52 
f 61/21/56 62/22/57 63/23/58 
f 63/23/58 64/24/59 61/21/56 
f 57/25/52 60/26/55 62/22/57 
f 62/22/57 61/21/56 57/25/52 
f 59/19/54 58/18/53 64/24/59 
f 64/24/59 63/23/58 59/19/54 
f 58/27/53 57/25/52 61/21/56 
f 61/21/56 64/28/59 58/27/53 
f 60/20/55 59/19/54 65/29/53 
f 65/29/53 66/30/60 60/20/55 
f 63/23/58 62/22/57 67/31/56 
f 67/31/56 68/32/61 63/23/58 
f 62/22/57 60/26/55 66/33/60 
f 66/33/60 67/31/56 62/22/57 
f 59/19/54 63/23/58 68/32/61 
f 68/32/61 65/29/53 59/19/54 
f 66/30/60 65/29/53 69/34/62 
f 69/34/62 70/35/63 66/30/60 
f 68/32/61 67/31/56 71/36/64 
f 71/36/64 72/37/65 68/32/61 
f 67/31/56 66/33/60 70/38/63 
f 70/38/63 71/36/64 67/31/56 
f 65/29/53 68/32/61 72/37/65 
f 72/37/65 69/34/62 65/29/53 
f 70/35/63 69/34/62 73/39/66 
f 73/39/66 74/40/67 70/35/63 
f 72/37/65 71/36/64 75/41/68 
f 75/41/68 76/42/69 72/37/65 
f 71/36/64 70/38/63 74/43/67 
f 74/43/67 75/41/68 71/36/64 
f 69/34/62 72/37/65 76/42/69 
f 76/42/69 73/39/66 69/34/62 
f 74/40/67 73/39/66 77/44/70 
f 77/44/70 78/45/71 74/40/67 
f 76/42/69 75/41/68 79/46/72 
f 79/46/72 80/47/73 76/42/69 
f 75/41/68 74/43/67 78/48/71 
f 78/48/71 79/46/72 75/41/68 
f 73/39/66 76/42/69 80/47/73 
f 80/47/73 77/44/70 73/39/66 
f 81/49/74 82/50/75 78/45/71 
f 78/45/71 77/44/70 81/49/74 
f 83/51/76 80/47/73 79/46/72 
f 79/46/72 84/52/77 83/51/76 
f 79/46/72 78/48/71 82/53/75 
f 82/53/75 84/52/77 79/46/72 
f 77/44/70 80/47/73 83/51/76 
f 83/51/76 81/49/74 77/44/70 
f 82/50/75 81/49/74 85/54/78 
f 85/54/78 86/55/79 82/50/75 
f 83/51/76 84/52/77 87/56/80 
f 87/56/80 88/57/81 83/51/76 
f 84/52/77 82/58/75 86/59/79 
f 86/59/79 87/56/80 84/52/77 
f 81/49/74 83/51/76 88/57/81 
f 88/57/81 85/54/78 81/49/74 
f 88/57/81 87/56/80 86/60/79 
f 86/60/79 85/61/78 88/57/81 
f 89/17/82 90/18/83 91/19/84 
f 91/19/84 92/20/85 89/17/82 
f 93/21/86 94/22/87 95/23/88 
f 95/23/88 96/24/89 93/21/86 
f 89/25/82 92/26/85 94/22/87 
f 94/22/87 93/21/86 89/25/82 
f 91/19/84 90/18/83 96/24/89 
f 96/24/89 95/23/88 91/19/84 
f 90/27/83 89/25/82 93/21/86 
f 93/21/86 96/28/89 90/27/83 
f 92/20/85 91/19/84 97/29/90 
f 97/29/90 98/30/82 92/20/85 
f 95/23/88 94/22/87 99/31/86 
f 99/31/86 100/32/91 95/23/88 
f 94/22/87 92/26/85 98/33/82 
f 98/33/82 99/31/86 94/22/87 
f 91/19/84 95/23/88 100/32/91 
f 100/32/91 97/29/90 91/19/84 
f 98/30/82 97/29/90 101/34/92 
f 101/34/92 102/35/93 98/30/82 
f 100/32/91 99/31/86 103/36/94 
f 103/36/94 104/37/95 100/32/91 
f 99/31/86 98/33/82 102/38/93 
f 102/38/93 103/36/94 99/31/86 
f 97/29/90 100/32/91 104/37/95 
f 104/37/95 101/34/92 97/29/90 
f 102/35/93 101/34/92 105/39/96 
f 105/39/96 106/40/97 102/35/93 
f 104/37/95 103/36/94 107/41/98 
f 107/41/98 108/42/99 104/37/95 
f 103/36/94 102/38/93 106/43/97 
f 106/43/97 107/41/98 103/36/94 
f 101/34/92 104/37/95 108/42/99 
f 108/42/99 105/39/96 101/34/92 
f 106/40/97 105/39/96 109/44/100 
f 109/44/100 110/45/101 106/40/97 
f 108/42/99 107/41/98 111/46/102 
f 111/46/102 112/47/103 108/42/99 
f 107/41/98 106/43/97 110/48/101 
f 110/48/101 111/46/102 107/41/98 
f 105/39/96 108/42/99 112/47/103 
f 112/47/103 109/44/100 105/39/96 
f 113/49/104 114/50/105 110/45/101 
f 110/45/101 109/44/100 113/49/104 
f 115/51/106 112/47/103 111/46/102 
f 111/46/102 116/52/107 115/51/106 
f 111/46/102 110/48/101 114/53/105 
f 114/53/105 116/52/107 111/46/102 
f 109/44/100 112/47/103 115/51/106 
f 115/51/106 113/49/104 109/44/100 
f 114/50/105 113/49/104 117/54/108 
f 117/54/108 118/55/109 114/50/105 
f 115/51/106 116/52/107 119/56/110 
f 119/56/110 120/57/111 115/51/106 
f 116/52/107 114/58/105 118/59/109 
f 118/59/109 119/56/110 116/52/107 
f 113/49/104 115/51/106 120/57/111 
f 120/57/111 117/54/108 113/49/104 
f 120/57/111 119/56/110 118/60/109 
f 118/60/109 117/61/108 120/57/111 
# 214 faces

