# 3ds Max Wavefront OBJ Exporter v0.97b - (c)2007 guruware
# File Created: 14.07.2016 09:31:47

mtllib dome.mtl

#
# object HoverBlaster
#

v  68.1678 95.8883 23.6344
v  89.8213 77.2624 19.0435
v  89.8213 79.5747 0.0000
v  68.1678 98.7581 0.0000
v  68.1678 87.4459 45.8952
v  89.8213 70.4599 36.9802
v  68.1678 73.9215 65.4887
v  89.8213 59.5625 52.7678
v  68.1678 56.1010 81.2763
v  89.8213 45.2036 65.4887
v  68.1678 35.0201 92.3404
v  89.8213 28.2176 74.4037
v  68.1678 11.9039 98.0380
v  89.8213 9.5916 78.9945
v  68.1678 35.0203 -92.3403
v  89.8213 28.2177 -74.4036
v  89.8213 9.5918 -78.9945
v  68.1678 11.9041 -98.0380
v  68.1678 56.1011 -81.2762
v  89.8213 45.2037 -65.4886
v  68.1678 73.9216 -65.4886
v  89.8213 59.5626 -52.7677
v  68.1678 87.4460 -45.8950
v  89.8213 70.4600 -36.9801
v  68.1678 95.8884 -23.6341
v  89.8213 77.2625 -19.0433
v  42.5526 108.9416 26.8517
v  42.5526 112.2020 0.0000
v  42.5526 99.3499 52.1429
v  42.5526 83.9844 74.4037
v  42.5526 63.7379 92.3404
v  42.5526 39.7873 104.9107
v  42.5526 13.5244 111.3839
v  42.5526 39.7875 -104.9106
v  42.5526 13.5246 -111.3839
v  42.5526 63.7382 -92.3403
v  42.5526 83.9845 -74.4035
v  42.5526 99.3500 -52.1426
v  42.5526 108.9416 -26.8514
v  14.4644 115.6635 28.5085
v  14.4644 119.1251 0.0000
v  14.4644 105.4800 55.3602
v  14.4644 89.1664 78.9945
v  14.4644 67.6707 98.0380
v  14.4644 42.2423 111.3839
v  14.4644 14.3589 118.2565
v  14.4644 42.2425 -111.3838
v  14.4644 14.3591 -118.2565
v  14.4644 67.6709 -98.0379
v  14.4644 89.1665 -78.9944
v  14.4644 105.4801 -55.3600
v  14.4644 115.6636 -28.5082
v  -14.4644 115.6635 28.5085
v  -14.4644 119.1251 0.0000
v  -14.4644 105.4800 55.3602
v  -14.4644 89.1664 78.9945
v  -14.4644 67.6707 98.0380
v  -14.4644 42.2423 111.3839
v  -14.4644 14.3589 118.2565
v  -14.4644 42.2425 -111.3838
v  -14.4644 14.3591 -118.2565
v  -14.4644 67.6709 -98.0379
v  -14.4644 89.1665 -78.9944
v  -14.4644 105.4801 -55.3600
v  -14.4644 115.6636 -28.5082
v  -42.5526 108.9416 26.8517
v  -42.5526 112.2020 0.0000
v  -42.5526 99.3499 52.1429
v  -42.5526 83.9844 74.4037
v  -42.5526 63.7379 92.3404
v  -42.5526 39.7873 104.9107
v  -42.5526 13.5244 111.3839
v  -42.5526 39.7875 -104.9106
v  -42.5526 13.5246 -111.3839
v  -42.5526 63.7381 -92.3403
v  -42.5526 83.9845 -74.4035
v  -42.5526 99.3500 -52.1426
v  -42.5526 108.9416 -26.8515
v  -68.1678 95.8883 23.6343
v  -68.1678 98.7581 -0.0000
v  -68.1678 87.4459 45.8952
v  -68.1678 73.9215 65.4887
v  -68.1678 56.1010 81.2763
v  -68.1678 35.0201 92.3404
v  -68.1678 11.9039 98.0380
v  -68.1678 35.0203 -92.3403
v  -68.1678 11.9041 -98.0380
v  -68.1678 56.1011 -81.2762
v  -68.1678 73.9216 -65.4886
v  -68.1678 87.4460 -45.8950
v  -68.1678 95.8884 -23.6342
v  -89.8213 77.2624 19.0435
v  -89.8213 79.5747 -0.0000
v  -89.8213 70.4599 36.9802
v  -89.8213 59.5625 52.7678
v  -89.8213 45.2036 65.4887
v  -89.8213 28.2175 74.4037
v  -89.8213 9.5916 78.9945
v  -89.8213 28.2177 -74.4036
v  -89.8213 9.5918 -78.9945
v  -89.8213 45.2037 -65.4886
v  -89.8213 59.5626 -52.7677
v  -89.8213 70.4600 -36.9801
v  -89.8213 77.2625 -19.0433
# 104 vertices

vn 0.5638 0.8019 0.1977
vn 0.6631 0.7268 0.1791
vn 0.6631 0.7485 0.0000
vn 0.5638 0.8259 0.0000
vn 0.5638 0.7313 0.3838
vn 0.6631 0.6628 0.3479
vn 0.5638 0.6182 0.5477
vn 0.6631 0.5603 0.4964
vn 0.5638 0.4692 0.6797
vn 0.6631 0.4252 0.6160
vn 0.5638 0.2929 0.7723
vn 0.6631 0.2654 0.6999
vn 0.5610 0.1981 0.8038
vn 0.6604 0.1797 0.7291
vn 0.5638 0.2929 -0.7723
vn 0.6631 0.2654 -0.6999
vn 0.6604 0.1797 -0.7291
vn 0.5610 0.1981 -0.8038
vn 0.5638 0.4692 -0.6797
vn 0.6631 0.4252 -0.6160
vn 0.5638 0.6182 -0.5477
vn 0.6631 0.5603 -0.4964
vn 0.5638 0.7313 -0.3838
vn 0.6631 0.6628 -0.3478
vn 0.5638 0.8019 -0.1977
vn 0.6631 0.7268 -0.1791
vn 0.3516 0.9090 0.2240
vn 0.3516 0.9362 0.0000
vn 0.3516 0.8289 0.4351
vn 0.3516 0.7007 0.6208
vn 0.3516 0.5318 0.7704
vn 0.3516 0.3320 0.8753
vn 0.3493 0.2242 0.9098
vn 0.3516 0.3320 -0.8753
vn 0.3493 0.2242 -0.9098
vn 0.3516 0.5318 -0.7704
vn 0.3516 0.7007 -0.6208
vn 0.3516 0.8289 -0.4351
vn 0.3516 0.9090 -0.2240
vn 0.1194 0.9640 0.2376
vn 0.1194 0.9928 0.0000
vn 0.1194 0.8791 0.4614
vn 0.1194 0.7432 0.6584
vn 0.1194 0.5640 0.8171
vn 0.1194 0.3521 0.9283
vn 0.1186 0.2376 0.9641
vn 0.1194 0.3521 -0.9283
vn 0.1186 0.2376 -0.9641
vn 0.1194 0.5640 -0.8171
vn 0.1194 0.7432 -0.6584
vn 0.1194 0.8791 -0.4614
vn 0.1194 0.9640 -0.2376
vn -0.1194 0.9640 0.2376
vn -0.1194 0.9928 0.0000
vn -0.1194 0.8791 0.4614
vn -0.1194 0.7432 0.6584
vn -0.1194 0.5640 0.8171
vn -0.1194 0.3521 0.9283
vn -0.1186 0.2376 0.9641
vn -0.1194 0.3521 -0.9283
vn -0.1186 0.2376 -0.9641
vn -0.1194 0.5640 -0.8171
vn -0.1194 0.7432 -0.6584
vn -0.1194 0.8791 -0.4614
vn -0.1194 0.9640 -0.2376
vn -0.3516 0.9090 0.2240
vn -0.3516 0.9362 0.0000
vn -0.3516 0.8289 0.4351
vn -0.3516 0.7007 0.6208
vn -0.3516 0.5318 0.7704
vn -0.3516 0.3320 0.8753
vn -0.3493 0.2242 0.9098
vn -0.3516 0.3320 -0.8753
vn -0.3493 0.2242 -0.9098
vn -0.3516 0.5318 -0.7704
vn -0.3516 0.7007 -0.6208
vn -0.3516 0.8289 -0.4351
vn -0.3516 0.9090 -0.2240
vn -0.5638 0.8019 0.1977
vn -0.5638 0.8259 0.0000
vn -0.5638 0.7313 0.3838
vn -0.5638 0.6182 0.5477
vn -0.5638 0.4692 0.6797
vn -0.5638 0.2929 0.7723
vn -0.5610 0.1981 0.8038
vn -0.5638 0.2929 -0.7723
vn -0.5610 0.1981 -0.8038
vn -0.5638 0.4692 -0.6797
vn -0.5638 0.6182 -0.5477
vn -0.5638 0.7313 -0.3838
vn -0.5638 0.8019 -0.1977
vn -0.6631 0.7268 0.1791
vn -0.6631 0.7485 0.0000
vn -0.6631 0.6628 0.3479
vn -0.6631 0.5603 0.4964
vn -0.6631 0.4252 0.6160
vn -0.6631 0.2654 0.6999
vn -0.6604 0.1797 0.7291
vn -0.6631 0.2654 -0.6999
vn -0.6604 0.1797 -0.7291
vn -0.6631 0.4252 -0.6160
vn -0.6631 0.5603 -0.4964
vn -0.6631 0.6628 -0.3478
vn -0.6631 0.7268 -0.1791
# 104 vertex normals

vt 0.1682 0.5530 0.0000
vt 0.1805 0.4951 0.0000
vt 0.2315 0.4951 0.0000
vt 0.2315 0.5530 0.0000
vt 0.1792 0.2989 0.0000
vt 0.1116 0.2683 0.0000
vt 0.1283 0.2220 0.0000
vt 0.1999 0.2415 0.0000
vt 0.1500 0.3514 0.0000
vt 0.0882 0.3106 0.0000
vt 0.1141 0.3959 0.0000
vt 0.0592 0.3464 0.0000
vt 0.0735 0.4298 0.0000
vt 0.0265 0.3738 0.0000
vt 0.5641 0.5504 0.0000
vt 0.5013 0.5504 0.0000
vt 0.4951 0.4916 0.0000
vt 0.5456 0.4916 0.0000
vt 0.9110 0.5504 0.0000
vt 0.9294 0.4916 0.0000
vt 0.9800 0.4916 0.0000
vt 0.9737 0.5504 0.0000
vt 0.3364 0.3567 0.0000
vt 0.3417 0.4290 0.0000
vt 0.2942 0.4363 0.0000
vt 0.2775 0.3658 0.0000
vt 0.3951 0.3572 0.0000
vt 0.3890 0.4294 0.0000
vt 0.2058 0.0671 0.0000
vt 0.1284 0.0814 0.0000
vt 0.1116 0.0434 0.0000
vt 0.1848 0.0200 0.0000
vt 0.2162 0.1231 0.0000
vt 0.1368 0.1264 0.0000
vt 0.2824 0.4951 0.0000
vt 0.2947 0.5530 0.0000
vt 0.1596 0.6216 0.0000
vt 0.2315 0.6216 0.0000
vt 0.0919 0.6216 0.0000
vt 0.1086 0.5530 0.0000
vt 0.0323 0.6216 0.0000
vt 0.0562 0.5530 0.0000
vt 0.1715 0.4373 0.0000
vt 0.2123 0.3868 0.0000
vt 0.5770 0.6199 0.0000
vt 0.6213 0.5504 0.0000
vt 0.6421 0.6199 0.0000
vt 0.5057 0.6199 0.0000
vt 0.8980 0.6199 0.0000
vt 0.9693 0.6199 0.0000
vt 0.8330 0.6199 0.0000
vt 0.8537 0.5504 0.0000
vt 0.3963 0.2872 0.0000
vt 0.3297 0.2866 0.0000
vt 0.3710 0.6216 0.0000
vt 0.3543 0.5530 0.0000
vt 0.4068 0.5530 0.0000
vt 0.4306 0.6216 0.0000
vt 0.3033 0.6216 0.0000
vt 0.1551 0.6968 0.0000
vt 0.2315 0.6968 0.0000
vt 0.0833 0.6968 0.0000
vt 0.0200 0.6968 0.0000
vt 0.6528 0.6962 0.0000
vt 0.6971 0.6199 0.0000
vt 0.7111 0.6962 0.0000
vt 0.5837 0.6962 0.0000
vt 0.5080 0.6962 0.0000
vt 0.8913 0.6962 0.0000
vt 0.9671 0.6962 0.0000
vt 0.8223 0.6962 0.0000
vt 0.7639 0.6962 0.0000
vt 0.7780 0.6199 0.0000
vt 0.3796 0.6968 0.0000
vt 0.4429 0.6968 0.0000
vt 0.3078 0.6968 0.0000
vt 0.1551 0.7742 0.0000
vt 0.2315 0.7742 0.0000
vt 0.0833 0.7742 0.0000
vt 0.0200 0.7742 0.0000
vt 0.6528 0.7748 0.0000
vt 0.7111 0.7748 0.0000
vt 0.5837 0.7748 0.0000
vt 0.5080 0.7748 0.0000
vt 0.8913 0.7748 0.0000
vt 0.9671 0.7748 0.0000
vt 0.8223 0.7748 0.0000
vt 0.7639 0.7748 0.0000
vt 0.3796 0.7742 0.0000
vt 0.4429 0.7742 0.0000
vt 0.3078 0.7742 0.0000
vt 0.1596 0.8494 0.0000
vt 0.2315 0.8494 0.0000
vt 0.0919 0.8494 0.0000
vt 0.0323 0.8494 0.0000
vt 0.6421 0.8510 0.0000
vt 0.6971 0.8510 0.0000
vt 0.5770 0.8510 0.0000
vt 0.5057 0.8510 0.0000
vt 0.8980 0.8510 0.0000
vt 0.9693 0.8510 0.0000
vt 0.8330 0.8510 0.0000
vt 0.7780 0.8510 0.0000
vt 0.3710 0.8494 0.0000
vt 0.4306 0.8494 0.0000
vt 0.3033 0.8494 0.0000
vt 0.1682 0.9180 0.0000
vt 0.2315 0.9180 0.0000
vt 0.1086 0.9180 0.0000
vt 0.0562 0.9180 0.0000
vt 0.5770 0.3775 0.0000
vt 0.5041 0.3843 0.0000
vt 0.5015 0.3158 0.0000
vt 0.5748 0.3172 0.0000
vt 0.5641 0.9206 0.0000
vt 0.6213 0.9206 0.0000
vt 0.5013 0.9206 0.0000
vt 0.9110 0.9206 0.0000
vt 0.9737 0.9206 0.0000
vt 0.8537 0.9206 0.0000
vt 0.8437 0.3231 0.0000
vt 0.7704 0.3243 0.0000
vt 0.7731 0.2559 0.0000
vt 0.8460 0.2629 0.0000
vt 0.3543 0.9180 0.0000
vt 0.4068 0.9180 0.0000
vt 0.2947 0.9180 0.0000
vt 0.1805 0.9759 0.0000
vt 0.2315 0.9759 0.0000
vt 0.6495 0.2731 0.0000
vt 0.5793 0.2585 0.0000
vt 0.5902 0.2046 0.0000
vt 0.6583 0.2297 0.0000
vt 0.6459 0.3204 0.0000
vt 0.6477 0.3690 0.0000
vt 0.6548 0.4159 0.0000
vt 0.5859 0.4357 0.0000
vt 0.5456 0.9794 0.0000
vt 0.4951 0.9794 0.0000
vt 0.9294 0.9794 0.0000
vt 0.9800 0.9794 0.0000
vt 0.9167 0.2715 0.0000
vt 0.8550 0.2046 0.0000
vt 0.9239 0.2246 0.0000
vt 0.9148 0.3200 0.0000
vt 0.9183 0.3674 0.0000
vt 0.8480 0.3819 0.0000
vt 0.9270 0.4108 0.0000
vt 0.8589 0.4357 0.0000
vt 0.2824 0.9759 0.0000
# 150 texture coords

g HoverBlaster
usemtl wire_088144225
s 4
f 1/1/1 2/2/2 3/3/3 
f 3/3/3 4/4/4 1/1/1 
f 5/5/5 6/6/6 2/7/2 
f 2/7/2 1/8/1 5/5/5 
f 7/9/7 8/10/8 6/6/6 
f 6/6/6 5/5/5 7/9/7 
f 9/11/9 10/12/10 8/10/8 
f 8/10/8 7/9/7 9/11/9 
f 11/13/11 12/14/12 10/12/10 
f 10/12/10 9/11/9 11/13/11 
f 11/15/11 13/16/13 14/17/14 
f 14/17/14 12/18/12 11/15/11 
f 15/19/15 16/20/16 17/21/17 
f 17/21/17 18/22/18 15/19/15 
f 19/23/19 20/24/20 16/25/16 
f 16/25/16 15/26/15 19/23/19 
f 21/27/21 22/28/22 20/24/20 
f 20/24/20 19/23/19 21/27/21 
f 23/29/23 24/30/24 22/31/22 
f 22/31/22 21/32/21 23/29/23 
f 25/33/25 26/34/26 24/30/24 
f 24/30/24 23/29/23 25/33/25 
f 4/4/4 3/3/3 26/35/26 
f 26/35/26 25/36/25 4/4/4 
f 27/37/27 1/1/1 4/4/4 
f 4/4/4 28/38/28 27/37/27 
f 29/39/29 5/40/5 1/1/1 
f 1/1/1 27/37/27 29/39/29 
f 30/41/30 7/42/7 5/40/5 
f 5/40/5 29/39/29 30/41/30 
f 31/43/31 9/11/9 7/9/7 
f 7/9/7 30/44/30 31/43/31 
f 32/45/32 11/15/11 9/46/9 
f 9/46/9 31/47/31 32/45/32 
f 32/45/32 33/48/33 13/16/13 
f 13/16/13 11/15/11 32/45/32 
f 34/49/34 15/19/15 18/22/18 
f 18/22/18 35/50/35 34/49/34 
f 36/51/36 19/52/19 15/19/15 
f 15/19/15 34/49/34 36/51/36 
f 37/53/37 21/27/21 19/23/19 
f 19/23/19 36/54/36 37/53/37 
f 38/55/38 23/56/23 21/57/21 
f 21/57/21 37/58/37 38/55/38 
f 39/59/39 25/36/25 23/56/23 
f 23/56/23 38/55/38 39/59/39 
f 28/38/28 4/4/4 25/36/25 
f 25/36/25 39/59/39 28/38/28 
f 40/60/40 27/37/27 28/38/28 
f 28/38/28 41/61/41 40/60/40 
f 42/62/42 29/39/29 27/37/27 
f 27/37/27 40/60/40 42/62/42 
f 43/63/43 30/41/30 29/39/29 
f 29/39/29 42/62/42 43/63/43 
f 44/64/44 31/47/31 30/65/30 
f 30/65/30 43/66/43 44/64/44 
f 45/67/45 32/45/32 31/47/31 
f 31/47/31 44/64/44 45/67/45 
f 45/67/45 46/68/46 33/48/33 
f 33/48/33 32/45/32 45/67/45 
f 47/69/47 34/49/34 35/50/35 
f 35/50/35 48/70/48 47/69/47 
f 49/71/49 36/51/36 34/49/34 
f 34/49/34 47/69/47 49/71/49 
f 50/72/50 37/73/37 36/51/36 
f 36/51/36 49/71/49 50/72/50 
f 51/74/51 38/55/38 37/58/37 
f 37/58/37 50/75/50 51/74/51 
f 52/76/52 39/59/39 38/55/38 
f 38/55/38 51/74/51 52/76/52 
f 41/61/41 28/38/28 39/59/39 
f 39/59/39 52/76/52 41/61/41 
f 53/77/53 40/60/40 41/61/41 
f 41/61/41 54/78/54 53/77/53 
f 55/79/55 42/62/42 40/60/40 
f 40/60/40 53/77/53 55/79/55 
f 56/80/56 43/63/43 42/62/42 
f 42/62/42 55/79/55 56/80/56 
f 57/81/57 44/64/44 43/66/43 
f 43/66/43 56/82/56 57/81/57 
f 58/83/58 45/67/45 44/64/44 
f 44/64/44 57/81/57 58/83/58 
f 58/83/58 59/84/59 46/68/46 
f 46/68/46 45/67/45 58/83/58 
f 60/85/60 47/69/47 48/70/48 
f 48/70/48 61/86/61 60/85/60 
f 62/87/62 49/71/49 47/69/47 
f 47/69/47 60/85/60 62/87/62 
f 63/88/63 50/72/50 49/71/49 
f 49/71/49 62/87/62 63/88/63 
f 64/89/64 51/74/51 50/75/50 
f 50/75/50 63/90/63 64/89/64 
f 65/91/65 52/76/52 51/74/51 
f 51/74/51 64/89/64 65/91/65 
f 54/78/54 41/61/41 52/76/52 
f 52/76/52 65/91/65 54/78/54 
f 66/92/66 53/77/53 54/78/54 
f 54/78/54 67/93/67 66/92/66 
f 68/94/68 55/79/55 53/77/53 
f 53/77/53 66/92/66 68/94/68 
f 69/95/69 56/80/56 55/79/55 
f 55/79/55 68/94/68 69/95/69 
f 70/96/70 57/81/57 56/82/56 
f 56/82/56 69/97/69 70/96/70 
f 71/98/71 58/83/58 57/81/57 
f 57/81/57 70/96/70 71/98/71 
f 71/98/71 72/99/72 59/84/59 
f 59/84/59 58/83/58 71/98/71 
f 73/100/73 60/85/60 61/86/61 
f 61/86/61 74/101/74 73/100/73 
f 75/102/75 62/87/62 60/85/60 
f 60/85/60 73/100/73 75/102/75 
f 76/103/76 63/88/63 62/87/62 
f 62/87/62 75/102/75 76/103/76 
f 77/104/77 64/89/64 63/90/63 
f 63/90/63 76/105/76 77/104/77 
f 78/106/78 65/91/65 64/89/64 
f 64/89/64 77/104/77 78/106/78 
f 67/93/67 54/78/54 65/91/65 
f 65/91/65 78/106/78 67/93/67 
f 79/107/79 66/92/66 67/93/67 
f 67/93/67 80/108/80 79/107/79 
f 81/109/81 68/94/68 66/92/66 
f 66/92/66 79/107/79 81/109/81 
f 82/110/82 69/95/69 68/94/68 
f 68/94/68 81/109/81 82/110/82 
f 83/111/83 70/112/70 69/113/69 
f 69/113/69 82/114/82 83/111/83 
f 84/115/84 71/98/71 70/96/70 
f 70/96/70 83/116/83 84/115/84 
f 84/115/84 85/117/85 72/99/72 
f 72/99/72 71/98/71 84/115/84 
f 86/118/86 73/100/73 74/101/74 
f 74/101/74 87/119/87 86/118/86 
f 88/120/88 75/102/75 73/100/73 
f 73/100/73 86/118/86 88/120/88 
f 89/121/89 76/122/76 75/123/75 
f 75/123/75 88/124/88 89/121/89 
f 90/125/90 77/104/77 76/105/76 
f 76/105/76 89/126/89 90/125/90 
f 91/127/91 78/106/78 77/104/77 
f 77/104/77 90/125/90 91/127/91 
f 80/108/80 67/93/67 78/106/78 
f 78/106/78 91/127/91 80/108/80 
f 92/128/92 79/107/79 80/108/80 
f 80/108/80 93/129/93 92/128/92 
f 94/130/94 81/131/81 79/132/79 
f 79/132/79 92/133/92 94/130/94 
f 95/134/95 82/114/82 81/131/81 
f 81/131/81 94/130/94 95/134/95 
f 96/135/96 83/111/83 82/114/82 
f 82/114/82 95/134/95 96/135/96 
f 97/136/97 84/137/84 83/111/83 
f 83/111/83 96/135/96 97/136/97 
f 97/138/97 98/139/98 85/117/85 
f 85/117/85 84/115/84 97/138/97 
f 99/140/99 86/118/86 87/119/87 
f 87/119/87 100/141/100 99/140/99 
f 101/142/101 88/124/88 86/143/86 
f 86/143/86 99/144/99 101/142/101 
f 102/145/102 89/121/89 88/124/88 
f 88/124/88 101/142/101 102/145/102 
f 103/146/103 90/147/90 89/121/89 
f 89/121/89 102/145/102 103/146/103 
f 104/148/104 91/149/91 90/147/90 
f 90/147/90 103/146/103 104/148/104 
f 93/129/93 80/108/80 91/127/91 
f 91/127/91 104/150/104 93/129/93 
# 168 faces

