# 3ds Max Wavefront OBJ Exporter v0.97b - (c)2007 guruware
# File Created: 31.10.2016 16:45:15

mtllib halo.mtl

#
# object Torus001
#

v  -77.8417 0.0000 -92.7681
v  -66.3258 0.6928 -100.8435
v  -66.5456 0.0000 -101.1777
v  -77.5846 0.6928 -92.4617
v  -65.8862 0.6928 -100.1751
v  -77.0703 0.6928 -91.8488
v  -65.6664 -0.0000 -99.8409
v  -76.8132 -0.0000 -91.5424
v  -65.8862 -0.6928 -100.1751
v  -77.0703 -0.6928 -91.8488
v  -66.3258 -0.6928 -100.8435
v  -77.5846 -0.6928 -92.4617
v  -54.1702 0.6928 -107.8616
v  -54.3497 0.0000 -108.2190
v  -53.8111 0.6928 -107.1467
v  -53.6316 -0.0000 -106.7892
v  -53.8111 -0.6928 -107.1467
v  -54.1702 -0.6928 -107.8616
v  -41.2819 0.6928 -113.4210
v  -41.4187 0.0000 -113.7969
v  -41.0083 0.6928 -112.6693
v  -40.8715 -0.0000 -112.2934
v  -41.0083 -0.6928 -112.6693
v  -41.2819 -0.6928 -113.4210
v  -27.8354 0.6928 -117.4467
v  -27.9276 0.0000 -117.8359
v  -27.6509 0.6928 -116.6682
v  -27.5587 -0.0000 -116.2790
v  -27.6509 -0.6928 -116.6682
v  -27.8354 -0.6928 -117.4467
v  -14.0125 0.6928 -119.8840
v  -14.0589 0.0000 -120.2813
v  -13.9196 0.6928 -119.0894
v  -13.8731 -0.0000 -118.6921
v  -13.9196 -0.6928 -119.0894
v  -14.0125 -0.6928 -119.8840
v  -0.0000 0.6928 -120.7001
v  -0.0000 0.0000 -121.1002
v  -0.0000 0.6928 -119.9001
v  -0.0000 -0.0000 -119.5001
v  -0.0000 -0.6928 -119.9001
v  -0.0000 -0.6928 -120.7001
v  14.0124 0.6928 -119.8840
v  14.0589 0.0000 -120.2813
v  13.9195 0.6928 -119.0894
v  13.8731 -0.0000 -118.6921
v  13.9195 -0.6928 -119.0894
v  14.0124 -0.6928 -119.8840
v  27.8354 0.6928 -117.4467
v  27.9276 0.0000 -117.8359
v  27.6509 0.6928 -116.6682
v  27.5586 -0.0000 -116.2790
v  27.6509 -0.6928 -116.6682
v  27.8354 -0.6928 -117.4467
v  41.2819 0.6928 -113.4210
v  41.4187 0.0000 -113.7969
v  41.0083 0.6928 -112.6693
v  40.8714 -0.0000 -112.2934
v  41.0083 -0.6928 -112.6693
v  41.2819 -0.6928 -113.4210
v  54.1701 0.6928 -107.8616
v  54.3496 0.0000 -108.2191
v  53.8111 0.6928 -107.1467
v  53.6316 -0.0000 -106.7892
v  53.8111 -0.6928 -107.1467
v  54.1701 -0.6928 -107.8616
v  66.3258 0.6928 -100.8435
v  66.5456 0.0000 -101.1777
v  65.8862 0.6928 -100.1751
v  65.6664 -0.0000 -99.8409
v  65.8862 -0.6928 -100.1751
v  66.3258 -0.6928 -100.8435
v  77.5846 0.6928 -92.4617
v  77.8417 0.0000 -92.7681
v  77.0703 0.6928 -91.8488
v  76.8132 -0.0000 -91.5424
v  77.0703 -0.6928 -91.8488
v  77.5846 -0.6928 -92.4617
v  -77.3274 0.0000 -92.1553
v  77.3274 0.0000 -92.1553
# 80 vertices

vn -0.5972 0.0000 -0.8021
vn -0.2822 0.8580 -0.4291
vn -0.5495 0.0000 -0.8355
vn -0.3071 0.8576 -0.4125
vn 0.2670 0.8740 0.4059
vn 0.2905 0.8737 0.3902
vn 0.5495 0.0000 0.8355
vn 0.5972 -0.0000 0.8021
vn 0.2670 -0.8740 0.4059
vn 0.2905 -0.8737 0.3902
vn -0.2822 -0.8580 -0.4291
vn -0.3071 -0.8576 -0.4125
vn -0.2305 0.8580 -0.4590
vn -0.4488 -0.0000 -0.8936
vn 0.2181 0.8740 0.4342
vn 0.4488 -0.0000 0.8936
vn 0.2181 -0.8740 0.4342
vn -0.2305 -0.8580 -0.4590
vn -0.1757 0.8580 -0.4827
vn -0.3420 0.0000 -0.9397
vn 0.1662 0.8740 0.4566
vn 0.3420 0.0000 0.9397
vn 0.1662 -0.8740 0.4566
vn -0.1757 -0.8580 -0.4827
vn -0.1185 0.8580 -0.4998
vn -0.2306 -0.0000 -0.9730
vn 0.1120 0.8740 0.4728
vn 0.2306 -0.0000 0.9730
vn 0.1120 -0.8740 0.4728
vn -0.1185 -0.8580 -0.4998
vn -0.0596 0.8580 -0.5102
vn -0.1161 -0.0000 -0.9932
vn 0.0564 0.8740 0.4826
vn 0.1161 -0.0000 0.9932
vn 0.0564 -0.8740 0.4826
vn -0.0596 -0.8580 -0.5102
vn -0.0000 0.8580 -0.5136
vn -0.0000 0.0000 -1.0000
vn 0.0000 0.8740 0.4859
vn 0.0000 -0.0000 1.0000
vn 0.0000 -0.8740 0.4859
vn -0.0000 -0.8580 -0.5136
vn 0.0596 0.8580 -0.5102
vn 0.1161 0.0000 -0.9932
vn -0.0564 0.8740 0.4826
vn -0.1161 0.0000 0.9932
vn -0.0564 -0.8740 0.4826
vn 0.0596 -0.8580 -0.5102
vn 0.1185 0.8580 -0.4998
vn 0.2306 0.0000 -0.9730
vn -0.1120 0.8740 0.4728
vn -0.2306 0.0000 0.9730
vn -0.1120 -0.8740 0.4728
vn 0.1185 -0.8580 -0.4998
vn 0.1757 0.8580 -0.4827
vn 0.3420 -0.0000 -0.9397
vn -0.1662 0.8740 0.4566
vn -0.3420 -0.0000 0.9397
vn -0.1662 -0.8740 0.4566
vn 0.1757 -0.8580 -0.4827
vn 0.2305 0.8580 -0.4590
vn 0.4488 -0.0000 -0.8936
vn -0.2181 0.8740 0.4342
vn -0.4488 0.0000 0.8936
vn -0.2181 -0.8740 0.4342
vn 0.2305 -0.8580 -0.4590
vn 0.2822 0.8580 -0.4291
vn 0.5495 0.0000 -0.8355
vn -0.2670 0.8740 0.4059
vn -0.5495 0.0000 0.8355
vn -0.2670 -0.8740 0.4059
vn 0.2822 -0.8580 -0.4291
vn 0.3071 0.8576 -0.4125
vn 0.5972 -0.0000 -0.8021
vn -0.2905 0.8737 0.3902
vn -0.5972 -0.0000 0.8021
vn -0.2905 -0.8737 0.3902
vn 0.3071 -0.8576 -0.4125
vn -0.7660 -0.0000 0.6428
vn -0.7660 0.0000 0.6428
vn 0.7660 -0.0000 0.6428
vn 0.7660 0.0000 0.6428
# 82 vertex normals

vt 167.9707 0.0000 0.0000
vt 153.9731 0.8378 0.0000
vt 153.9731 0.0000 0.0000
vt 167.9707 0.8378 0.0000
vt 153.9731 1.6755 0.0000
vt 167.9707 1.6755 0.0000
vt 153.9731 2.5133 0.0000
vt 167.9707 2.5133 0.0000
vt 153.9731 3.3510 0.0000
vt 167.9707 3.3510 0.0000
vt 153.9731 4.1888 0.0000
vt 167.9707 4.1888 0.0000
vt 153.9731 5.0265 0.0000
vt 167.9707 5.0265 0.0000
vt 139.9756 0.8378 0.0000
vt 139.9756 0.0000 0.0000
vt 139.9756 1.6755 0.0000
vt 139.9756 2.5133 0.0000
vt 139.9756 3.3510 0.0000
vt 139.9756 4.1888 0.0000
vt 139.9756 5.0265 0.0000
vt 125.9780 0.8378 0.0000
vt 125.9780 0.0000 0.0000
vt 125.9780 1.6755 0.0000
vt 125.9780 2.5133 0.0000
vt 125.9780 3.3510 0.0000
vt 125.9780 4.1888 0.0000
vt 125.9780 5.0265 0.0000
vt 111.9805 0.8378 0.0000
vt 111.9805 0.0000 0.0000
vt 111.9805 1.6755 0.0000
vt 111.9805 2.5133 0.0000
vt 111.9805 3.3510 0.0000
vt 111.9805 4.1888 0.0000
vt 111.9805 5.0265 0.0000
vt 97.9829 0.8378 0.0000
vt 97.9829 0.0000 0.0000
vt 97.9829 1.6755 0.0000
vt 97.9829 2.5133 0.0000
vt 97.9829 3.3510 0.0000
vt 97.9829 4.1888 0.0000
vt 97.9829 5.0265 0.0000
vt 83.9853 0.8378 0.0000
vt 83.9853 0.0000 0.0000
vt 83.9853 1.6755 0.0000
vt 83.9853 2.5133 0.0000
vt 83.9853 3.3510 0.0000
vt 83.9853 4.1888 0.0000
vt 83.9853 5.0265 0.0000
vt 69.9878 0.8378 0.0000
vt 69.9878 0.0000 0.0000
vt 69.9878 1.6755 0.0000
vt 69.9878 2.5133 0.0000
vt 69.9878 3.3510 0.0000
vt 69.9878 4.1888 0.0000
vt 69.9878 5.0265 0.0000
vt 55.9902 0.8378 0.0000
vt 55.9902 0.0000 0.0000
vt 55.9902 1.6755 0.0000
vt 55.9902 2.5133 0.0000
vt 55.9902 3.3510 0.0000
vt 55.9902 4.1888 0.0000
vt 55.9902 5.0265 0.0000
vt 41.9927 0.8378 0.0000
vt 41.9927 0.0000 0.0000
vt 41.9927 1.6755 0.0000
vt 41.9927 2.5133 0.0000
vt 41.9927 3.3510 0.0000
vt 41.9927 4.1888 0.0000
vt 41.9927 5.0265 0.0000
vt 27.9951 0.8378 0.0000
vt 27.9951 0.0000 0.0000
vt 27.9951 1.6755 0.0000
vt 27.9951 2.5133 0.0000
vt 27.9951 3.3510 0.0000
vt 27.9951 4.1888 0.0000
vt 27.9951 5.0265 0.0000
vt 13.9976 0.8378 0.0000
vt 13.9976 0.0000 0.0000
vt 13.9976 1.6755 0.0000
vt 13.9976 2.5133 0.0000
vt 13.9976 3.3510 0.0000
vt 13.9976 4.1888 0.0000
vt 13.9976 5.0265 0.0000
vt 0.0000 0.8378 0.0000
vt 0.0000 0.0000 0.0000
vt 0.0000 1.6755 0.0000
vt 0.0000 2.5133 0.0000
vt 0.0000 3.3510 0.0000
vt 0.0000 4.1888 0.0000
vt 0.0000 5.0265 0.0000
vt 0.8000 0.6928 0.0000
vt 0.4000 1.3856 -0.0000
vt 0.0000 0.6928 -0.0000
vt 1.2000 1.3856 -0.0000
vt 1.6000 0.6928 -0.0000
vt 1.2000 0.0000 -0.0000
vt 0.4000 0.0000 0.0000
vt 1.6000 0.6928 0.0000
vt 0.0000 0.6928 0.0000
vt 1.2000 0.0000 0.0000
# 101 texture coords

g Torus001
usemtl wire_255255255
s 1
f 1/1/1 2/2/2 3/3/3 
f 1/1/1 4/4/4 2/2/2 
f 4/4/4 5/5/5 2/2/2 
f 4/4/4 6/6/6 5/5/5 
f 6/6/6 7/7/7 5/5/5 
f 6/6/6 8/8/8 7/7/7 
f 8/8/8 9/9/9 7/7/7 
f 8/8/8 10/10/10 9/9/9 
f 10/10/10 11/11/11 9/9/9 
f 10/10/10 12/12/12 11/11/11 
f 12/12/12 3/13/3 11/11/11 
f 12/12/12 1/14/1 3/13/3 
f 3/3/3 13/15/13 14/16/14 
f 3/3/3 2/2/2 13/15/13 
f 2/2/2 15/17/15 13/15/13 
f 2/2/2 5/5/5 15/17/15 
f 5/5/5 16/18/16 15/17/15 
f 5/5/5 7/7/7 16/18/16 
f 7/7/7 17/19/17 16/18/16 
f 7/7/7 9/9/9 17/19/17 
f 9/9/9 18/20/18 17/19/17 
f 9/9/9 11/11/11 18/20/18 
f 11/11/11 14/21/14 18/20/18 
f 11/11/11 3/13/3 14/21/14 
f 14/16/14 19/22/19 20/23/20 
f 14/16/14 13/15/13 19/22/19 
f 13/15/13 21/24/21 19/22/19 
f 13/15/13 15/17/15 21/24/21 
f 15/17/15 22/25/22 21/24/21 
f 15/17/15 16/18/16 22/25/22 
f 16/18/16 23/26/23 22/25/22 
f 16/18/16 17/19/17 23/26/23 
f 17/19/17 24/27/24 23/26/23 
f 17/19/17 18/20/18 24/27/24 
f 18/20/18 20/28/20 24/27/24 
f 18/20/18 14/21/14 20/28/20 
f 20/23/20 25/29/25 26/30/26 
f 20/23/20 19/22/19 25/29/25 
f 19/22/19 27/31/27 25/29/25 
f 19/22/19 21/24/21 27/31/27 
f 21/24/21 28/32/28 27/31/27 
f 21/24/21 22/25/22 28/32/28 
f 22/25/22 29/33/29 28/32/28 
f 22/25/22 23/26/23 29/33/29 
f 23/26/23 30/34/30 29/33/29 
f 23/26/23 24/27/24 30/34/30 
f 24/27/24 26/35/26 30/34/30 
f 24/27/24 20/28/20 26/35/26 
f 26/30/26 31/36/31 32/37/32 
f 26/30/26 25/29/25 31/36/31 
f 25/29/25 33/38/33 31/36/31 
f 25/29/25 27/31/27 33/38/33 
f 27/31/27 34/39/34 33/38/33 
f 27/31/27 28/32/28 34/39/34 
f 28/32/28 35/40/35 34/39/34 
f 28/32/28 29/33/29 35/40/35 
f 29/33/29 36/41/36 35/40/35 
f 29/33/29 30/34/30 36/41/36 
f 30/34/30 32/42/32 36/41/36 
f 30/34/30 26/35/26 32/42/32 
f 32/37/32 37/43/37 38/44/38 
f 32/37/32 31/36/31 37/43/37 
f 31/36/31 39/45/39 37/43/37 
f 31/36/31 33/38/33 39/45/39 
f 33/38/33 40/46/40 39/45/39 
f 33/38/33 34/39/34 40/46/40 
f 34/39/34 41/47/41 40/46/40 
f 34/39/34 35/40/35 41/47/41 
f 35/40/35 42/48/42 41/47/41 
f 35/40/35 36/41/36 42/48/42 
f 36/41/36 38/49/38 42/48/42 
f 36/41/36 32/42/32 38/49/38 
f 38/44/38 43/50/43 44/51/44 
f 38/44/38 37/43/37 43/50/43 
f 37/43/37 45/52/45 43/50/43 
f 37/43/37 39/45/39 45/52/45 
f 39/45/39 46/53/46 45/52/45 
f 39/45/39 40/46/40 46/53/46 
f 40/46/40 47/54/47 46/53/46 
f 40/46/40 41/47/41 47/54/47 
f 41/47/41 48/55/48 47/54/47 
f 41/47/41 42/48/42 48/55/48 
f 42/48/42 44/56/44 48/55/48 
f 42/48/42 38/49/38 44/56/44 
f 44/51/44 49/57/49 50/58/50 
f 44/51/44 43/50/43 49/57/49 
f 43/50/43 51/59/51 49/57/49 
f 43/50/43 45/52/45 51/59/51 
f 45/52/45 52/60/52 51/59/51 
f 45/52/45 46/53/46 52/60/52 
f 46/53/46 53/61/53 52/60/52 
f 46/53/46 47/54/47 53/61/53 
f 47/54/47 54/62/54 53/61/53 
f 47/54/47 48/55/48 54/62/54 
f 48/55/48 50/63/50 54/62/54 
f 48/55/48 44/56/44 50/63/50 
f 50/58/50 55/64/55 56/65/56 
f 50/58/50 49/57/49 55/64/55 
f 49/57/49 57/66/57 55/64/55 
f 49/57/49 51/59/51 57/66/57 
f 51/59/51 58/67/58 57/66/57 
f 51/59/51 52/60/52 58/67/58 
f 52/60/52 59/68/59 58/67/58 
f 52/60/52 53/61/53 59/68/59 
f 53/61/53 60/69/60 59/68/59 
f 53/61/53 54/62/54 60/69/60 
f 54/62/54 56/70/56 60/69/60 
f 54/62/54 50/63/50 56/70/56 
f 56/65/56 61/71/61 62/72/62 
f 56/65/56 55/64/55 61/71/61 
f 55/64/55 63/73/63 61/71/61 
f 55/64/55 57/66/57 63/73/63 
f 57/66/57 64/74/64 63/73/63 
f 57/66/57 58/67/58 64/74/64 
f 58/67/58 65/75/65 64/74/64 
f 58/67/58 59/68/59 65/75/65 
f 59/68/59 66/76/66 65/75/65 
f 59/68/59 60/69/60 66/76/66 
f 60/69/60 62/77/62 66/76/66 
f 60/69/60 56/70/56 62/77/62 
f 62/72/62 67/78/67 68/79/68 
f 62/72/62 61/71/61 67/78/67 
f 61/71/61 69/80/69 67/78/67 
f 61/71/61 63/73/63 69/80/69 
f 63/73/63 70/81/70 69/80/69 
f 63/73/63 64/74/64 70/81/70 
f 64/74/64 71/82/71 70/81/70 
f 64/74/64 65/75/65 71/82/71 
f 65/75/65 72/83/72 71/82/71 
f 65/75/65 66/76/66 72/83/72 
f 66/76/66 68/84/68 72/83/72 
f 66/76/66 62/77/62 68/84/68 
f 68/79/68 73/85/73 74/86/74 
f 68/79/68 67/78/67 73/85/73 
f 67/78/67 75/87/75 73/85/73 
f 67/78/67 69/80/69 75/87/75 
f 69/80/69 76/88/76 75/87/75 
f 69/80/69 70/81/70 76/88/76 
f 70/81/70 77/89/77 76/88/76 
f 70/81/70 71/82/71 77/89/77 
f 71/82/71 78/90/78 77/89/77 
f 71/82/71 72/83/72 78/90/78 
f 72/83/72 74/91/74 78/90/78 
f 72/83/72 68/84/68 74/91/74 
s 8
f 79/92/79 4/93/79 1/94/80 
f 79/92/79 6/95/79 4/93/79 
f 79/92/79 8/96/80 6/95/79 
f 79/92/79 10/97/80 8/96/80 
f 79/92/79 12/98/80 10/97/80 
f 79/92/79 1/94/80 12/98/80 
f 80/92/81 74/99/82 73/95/81 
f 80/92/81 73/95/81 75/93/81 
f 80/92/81 75/93/81 76/100/81 
f 80/92/81 76/100/81 77/98/82 
f 80/92/81 77/98/82 78/101/82 
f 80/92/81 78/101/82 74/99/82 
# 156 faces

