# 3ds Max Wavefront OBJ Exporter v0.97b - (c)2007 guruware
# File Created: 01.11.2016 06:23:45

mtllib manualgun_tower.mtl

#
# object gunTower
#

v  -5.3859 0.0000 5.3859
v  -5.3859 0.0000 -5.3859
v  0.0000 0.0000 -5.3859
v  0.0000 0.0000 5.3859
v  5.3859 0.0000 -5.3859
v  5.3859 0.0000 5.3859
v  -3.5084 10.5526 3.5084
v  0.0000 10.5526 3.5084
v  0.0000 10.5526 -3.5084
v  -3.5084 10.5526 -3.5084
v  3.5084 10.5526 3.5084
v  3.5084 10.5526 -3.5084
v  4.5084 10.0786 -4.5084
v  4.5084 10.0786 4.5084
v  0.0000 10.0786 -4.5084
v  -4.5084 10.0786 -4.5084
v  -4.5084 10.0786 4.5084
v  0.0000 10.0786 4.5084
v  -0.7188 1.4643 5.2584
v  -1.5820 2.0215 5.2099
v  -3.5677 2.0883 5.2041
v  -4.4667 1.5905 5.2474
v  -0.7188 8.6143 4.6359
v  -0.9823 7.4796 4.7347
v  -0.9823 2.5990 5.1596
v  -3.9644 8.7313 4.6257
v  -3.1409 8.1552 4.6759
v  -1.5819 8.0989 4.6808
v  -4.1254 2.7048 5.1504
v  -3.7824 7.5805 4.7259
v  4.4667 1.5905 5.2474
v  3.5677 2.0883 5.2041
v  1.5820 2.0215 5.2099
v  0.7188 1.4643 5.2584
v  3.9644 8.7313 4.6257
v  3.7824 7.5805 4.7259
v  4.1254 2.7048 5.1504
v  0.7188 8.6143 4.6359
v  1.5819 8.0989 4.6808
v  3.1409 8.1552 4.6759
v  0.9823 2.5990 5.1596
v  0.9823 7.4796 4.7347
v  -3.3963 0.1303 1.6112
v  -1.7279 0.0817 1.6399
v  -1.3563 0.3909 1.4569
v  -1.3563 4.3405 -0.8805
v  -1.7463 4.6885 -1.0864
v  -3.0033 4.7276 -1.1096
v  -3.4199 4.4052 -0.9188
v  -3.7412 0.4596 1.4162
v  1.7279 0.0817 1.6399
v  3.3963 0.1303 1.6112
v  3.7412 0.4596 1.4162
v  3.4199 4.4052 -0.9188
v  3.0033 4.7276 -1.1096
v  1.7463 4.6885 -1.0864
v  1.3563 4.3405 -0.8805
v  1.3563 0.3909 1.4569
v  -1.6549 2.1941 5.0072
v  -3.4820 2.2556 5.0018
v  -1.1693 2.6618 4.9665
v  -1.1693 7.3882 4.5549
v  -1.6641 7.8993 4.5104
v  -3.0721 7.9500 4.5060
v  -3.6012 7.4761 4.5473
v  -3.9333 2.7545 4.9584
v  3.4820 2.2556 5.0018
v  1.6549 2.1941 5.0072
v  3.9333 2.7545 4.9584
v  3.6012 7.4761 4.5473
v  3.0721 7.9500 4.5060
v  1.6641 7.8993 4.5104
v  1.1693 7.3882 4.5549
v  1.1693 2.6618 4.9665
# 74 vertices

vn 0.0000 -1.0000 -0.0000
vn 0.0000 1.0000 -0.0000
vn 0.9962 0.0867 -0.0000
vn 0.0000 0.0867 -0.9962
vn -0.9962 0.0867 -0.0000
vn 0.0000 0.9036 0.4283
vn 0.4283 0.9036 -0.0000
vn 0.0000 0.9036 -0.4283
vn -0.4283 0.9036 -0.0000
vn 0.0000 0.0867 0.9962
vn -0.0000 0.0867 0.9962
vn -0.0000 0.5093 0.8606
vn 0.0000 0.5093 0.8606
vn 0.0239 0.7654 0.6431
vn -0.4915 0.5678 0.6603
vn -0.7071 0.0613 0.7044
vn -0.5090 -0.4277 0.7470
vn -0.0256 -0.6426 0.7657
vn 0.4728 -0.4625 0.7501
vn 0.7054 0.0121 0.7087
vn 0.5253 0.5329 0.6634
vn -0.0239 0.7654 0.6431
vn -0.5253 0.5329 0.6634
vn -0.7054 0.0121 0.7087
vn -0.4728 -0.4625 0.7501
vn 0.0256 -0.6426 0.7657
vn 0.5090 -0.4277 0.7470
vn 0.7071 0.0613 0.7044
vn 0.4915 0.5678 0.6603
vn 0.0301 0.8464 -0.5316
vn 0.0338 0.8472 -0.5302
vn -0.6569 0.6485 -0.3846
vn -0.6950 0.6157 -0.3712
vn -0.9995 0.0029 0.0328
vn -0.9990 0.0228 0.0385
vn -0.6831 -0.6291 0.3709
vn -0.7198 -0.5947 0.3582
vn -0.0328 -0.8671 0.4971
vn -0.0362 -0.8666 0.4977
vn 0.6295 -0.6683 0.3963
vn 0.6686 -0.6414 0.3763
vn 0.9937 -0.0617 0.0939
vn 0.9972 -0.0463 0.0591
vn 0.7065 0.6076 -0.3630
vn 0.7428 0.5796 -0.3352
vn -0.0301 0.8473 -0.5303
vn -0.0338 0.8463 -0.5316
vn -0.7081 0.6095 -0.3565
vn -0.7428 0.5755 -0.3420
vn -0.9956 -0.0640 0.0690
vn -0.9964 -0.0355 0.0771
vn -0.6306 -0.6698 0.3921
vn -0.6686 -0.6386 0.3810
vn 0.0328 -0.8667 0.4977
vn 0.0362 -0.8670 0.4970
vn 0.6820 -0.6276 0.3754
vn 0.7198 -0.5975 0.3534
vn 0.9987 0.0044 0.0504
vn 0.9995 0.0153 0.0258
vn 0.6552 0.6462 -0.3912
vn 0.6951 0.6199 -0.3641
# 61 vertex normals

vt 0.0200 0.9420 0.0000
vt 0.0200 0.6724 0.0000
vt 0.1548 0.6724 0.0000
vt 0.1548 0.9420 0.0000
vt 0.2896 0.6724 0.0000
vt 0.2896 0.9420 0.0000
vt 0.6521 0.6979 0.0000
vt 0.7417 0.6979 0.0000
vt 0.7417 0.8772 0.0000
vt 0.6521 0.8772 0.0000
vt 0.8314 0.6979 0.0000
vt 0.8314 0.8772 0.0000
vt 0.7098 0.0200 0.0000
vt 0.9800 0.0200 0.0000
vt 0.9580 0.2728 0.0000
vt 0.7319 0.2728 0.0000
vt 0.7098 0.3228 0.0000
vt 0.8449 0.3228 0.0000
vt 0.8449 0.5756 0.0000
vt 0.7319 0.5756 0.0000
vt 0.9800 0.3228 0.0000
vt 0.9580 0.5756 0.0000
vt 0.3063 0.6724 0.0000
vt 0.5765 0.6724 0.0000
vt 0.5545 0.9251 0.0000
vt 0.3283 0.9251 0.0000
vt 0.6265 0.6724 0.0000
vt 0.7417 0.6724 0.0000
vt 0.8569 0.6724 0.0000
vt 0.8569 0.9028 0.0000
vt 0.7417 0.9028 0.0000
vt 0.6265 0.9028 0.0000
vt 0.2911 0.4695 0.0000
vt 0.2534 0.4528 0.0000
vt 0.2385 0.4315 0.0000
vt 0.2350 0.3814 0.0000
vt 0.2467 0.3582 0.0000
vt 0.2860 0.3335 0.0000
vt 0.0365 0.4791 0.0000
vt 0.0728 0.4595 0.0000
vt 0.1012 0.4518 0.0000
vt 0.2245 0.4472 0.0000
vt 0.0322 0.3651 0.0000
vt 0.0668 0.3776 0.0000
vt 0.0821 0.3979 0.0000
vt 0.0850 0.4372 0.0000
vt 0.2189 0.3679 0.0000
vt 0.0960 0.3811 0.0000
vt 0.2962 0.6056 0.0000
vt 0.2551 0.5839 0.0000
vt 0.2417 0.5617 0.0000
vt 0.2415 0.5114 0.0000
vt 0.2548 0.4891 0.0000
vt 0.0407 0.5930 0.0000
vt 0.0742 0.5780 0.0000
vt 0.1032 0.5723 0.0000
vt 0.2267 0.5763 0.0000
vt 0.0741 0.4958 0.0000
vt 0.0880 0.5172 0.0000
vt 0.0880 0.5566 0.0000
vt 0.2264 0.4968 0.0000
vt 0.1031 0.5014 0.0000
vt 0.4931 0.4783 0.0000
vt 0.5381 0.4771 0.0000
vt 0.5482 0.4854 0.0000
vt 0.5480 0.5920 0.0000
vt 0.5374 0.6014 0.0000
vt 0.5035 0.6024 0.0000
vt 0.4923 0.5936 0.0000
vt 0.4838 0.4872 0.0000
vt 0.2450 0.3093 0.0000
vt 0.2000 0.3114 0.0000
vt 0.1900 0.3032 0.0000
vt 0.1907 0.1964 0.0000
vt 0.2013 0.1869 0.0000
vt 0.2352 0.1854 0.0000
vt 0.2464 0.1940 0.0000
vt 0.2543 0.3003 0.0000
vt 0.0741 0.1191 0.0000
vt 0.0200 0.1213 0.0000
vt 0.0218 0.1157 0.0000
vt 0.0716 0.1137 0.0000
vt 0.1862 0.1520 0.0000
vt 0.1977 0.1345 0.0000
vt 0.2021 0.1398 0.0000
vt 0.1929 0.1539 0.0000
vt 0.5868 0.3450 0.0000
vt 0.4775 0.4028 0.0000
vt 0.4770 0.3977 0.0000
vt 0.5829 0.3417 0.0000
vt 0.0900 0.4350 0.0000
vt 0.1033 0.4470 0.0000
vt 0.0873 0.3994 0.0000
vt 0.0988 0.3856 0.0000
vt 0.2178 0.3728 0.0000
vt 0.1967 0.0725 0.0000
vt 0.1981 0.0933 0.0000
vt 0.1914 0.0917 0.0000
vt 0.1903 0.0749 0.0000
vt 0.6303 0.5977 0.0000
vt 0.5761 0.5996 0.0000
vt 0.5783 0.5940 0.0000
vt 0.6281 0.5923 0.0000
vt 0.1853 0.0369 0.0000
vt 0.1975 0.0200 0.0000
vt 0.2017 0.0255 0.0000
vt 0.1918 0.0391 0.0000
vt 0.1056 0.5676 0.0000
vt 0.2252 0.5715 0.0000
vt 0.0931 0.5547 0.0000
vt 0.0931 0.5191 0.0000
vt 0.1055 0.5061 0.0000
vt 0.4355 0.4044 0.0000
vt 0.3205 0.3591 0.0000
vt 0.3241 0.3555 0.0000
vt 0.4355 0.3993 0.0000
vt 0.1985 0.1027 0.0000
vt 0.1985 0.1236 0.0000
vt 0.1919 0.1216 0.0000
vt 0.1919 0.1047 0.0000
vt 0.0203 0.0238 0.0000
vt 0.0658 0.0213 0.0000
vt 0.2235 0.5223 0.0000
vt 0.2299 0.5379 0.0000
vt 0.1252 0.5401 0.0000
vt 0.1241 0.5272 0.0000
vt 0.4672 0.2408 0.0000
vt 0.5829 0.2362 0.0000
vt 0.5873 0.0409 0.0000
vt 0.6041 0.0349 0.0000
vt 0.6109 0.1963 0.0000
vt 0.5968 0.1967 0.0000
vt 0.4586 0.0562 0.0000
vt 0.4965 0.0549 0.0000
vt 0.5003 0.2059 0.0000
vt 0.4665 0.2065 0.0000
vt 0.6431 0.3959 0.0000
vt 0.6259 0.3916 0.0000
vt 0.6239 0.2346 0.0000
vt 0.6379 0.2339 0.0000
vt 0.4532 0.6007 0.0000
vt 0.3411 0.5567 0.0000
vt 0.3290 0.4502 0.0000
vt 0.4451 0.4417 0.0000
vt 0.3293 0.5520 0.0000
vt 0.3193 0.4509 0.0000
vt 0.5771 0.5014 0.0000
vt 0.6227 0.5005 0.0000
vt 0.1508 0.2516 0.0000
vt 0.1396 0.2576 0.0000
vt 0.1397 0.1503 0.0000
vt 0.1495 0.1500 0.0000
vt 0.0332 0.3139 0.0000
vt 0.0234 0.1549 0.0000
vt 0.3784 0.0473 0.0000
vt 0.3955 0.0424 0.0000
vt 0.3961 0.2045 0.0000
vt 0.3821 0.2043 0.0000
vt 0.3034 0.0623 0.0000
vt 0.3413 0.0608 0.0000
vt 0.3447 0.2112 0.0000
vt 0.3109 0.2131 0.0000
vt 0.5313 0.0377 0.0000
vt 0.5487 0.0418 0.0000
vt 0.5566 0.1976 0.0000
vt 0.5426 0.1989 0.0000
vt 0.3122 0.2507 0.0000
vt 0.4277 0.2422 0.0000
vt 0.2245 0.3937 0.0000
vt 0.2187 0.4096 0.0000
vt 0.1192 0.4082 0.0000
vt 0.1198 0.3953 0.0000
# 172 texture coords

g gunTower
usemtl wire_006135113
s 2
f 1/1/1 2/2/1 3/3/1 
f 3/3/1 4/4/1 1/1/1 
f 4/4/1 3/3/1 5/5/1 
f 5/5/1 6/6/1 4/4/1 
s 4
f 7/7/2 8/8/2 9/9/2 
f 9/9/2 10/10/2 7/7/2 
f 8/8/2 11/11/2 12/12/2 
f 12/12/2 9/9/2 8/8/2 
s 16
f 6/13/3 5/14/3 13/15/3 
f 13/15/3 14/16/3 6/13/3 
s 32
f 5/17/4 3/18/4 15/19/4 
f 15/19/4 13/20/4 5/17/4 
f 3/18/4 2/21/4 16/22/4 
f 16/22/4 15/19/4 3/18/4 
s 64
f 2/23/5 1/24/5 17/25/5 
f 17/25/5 16/26/5 2/23/5 
s off
f 17/27/6 18/28/6 8/8/6 
f 8/8/6 7/7/6 17/27/6 
f 18/28/6 14/29/6 11/11/6 
f 11/11/6 8/8/6 18/28/6 
f 14/29/7 13/30/7 12/12/7 
f 12/12/7 11/11/7 14/29/7 
f 13/30/8 15/31/8 9/9/8 
f 9/9/8 12/12/8 13/30/8 
f 15/31/8 16/32/8 10/10/8 
f 10/10/8 9/9/8 15/31/8 
f 16/32/9 17/27/9 7/7/9 
f 7/7/9 10/10/9 16/32/9 
s 8
f 4/33/10 19/34/10 20/35/10 
f 20/35/10 21/36/11 22/37/11 
f 4/33/10 20/35/10 22/37/11 
f 1/38/11 4/33/10 22/37/11 
f 18/39/11 23/40/11 24/41/10 
f 24/41/10 25/42/11 19/34/10 
f 18/39/11 24/41/10 19/34/10 
f 4/33/10 18/39/11 19/34/10 
f 17/43/10 26/44/10 27/45/10 
f 27/45/10 28/46/11 23/40/11 
f 17/43/10 27/45/10 23/40/11 
f 18/39/11 17/43/10 23/40/11 
f 1/38/11 22/37/11 29/47/11 
f 29/47/11 30/48/11 26/44/10 
f 1/38/11 29/47/11 26/44/10 
f 17/43/10 1/38/11 26/44/10 
f 6/49/10 31/50/11 32/51/11 
f 32/51/11 33/52/11 34/53/11 
f 6/49/10 32/51/11 34/53/11 
f 4/33/10 6/49/10 34/53/11 
f 14/54/11 35/55/11 36/56/10 
f 36/56/10 37/57/11 31/50/11 
f 14/54/11 36/56/10 31/50/11 
f 6/49/10 14/54/11 31/50/11 
f 18/39/11 38/58/11 39/59/11 
f 39/59/11 40/60/11 35/55/11 
f 18/39/11 39/59/11 35/55/11 
f 14/54/11 18/39/11 35/55/11 
f 4/33/10 34/53/11 41/61/11 
f 41/61/11 42/62/11 38/58/11 
f 4/33/10 41/61/11 38/58/11 
f 18/39/11 4/33/10 38/58/11 
f 43/63/12 44/64/12 45/65/13 
f 45/65/13 46/66/13 47/67/13 
f 43/63/12 45/65/13 47/67/13 
f 47/67/13 48/68/12 49/69/13 
f 43/63/12 47/67/13 49/69/13 
f 50/70/12 43/63/12 49/69/13 
f 51/71/12 52/72/13 53/73/13 
f 53/73/13 54/74/12 55/75/12 
f 51/71/12 53/73/13 55/75/12 
f 55/75/12 56/76/13 57/77/13 
f 51/71/12 55/75/12 57/77/13 
f 58/78/12 51/71/12 57/77/13 
f 22/37/11 21/36/11 29/47/11 
f 34/53/11 33/52/11 41/61/11 
f 19/34/10 25/42/11 20/35/10 
f 23/40/11 28/46/11 24/41/10 
f 26/44/10 30/48/11 27/45/10 
f 31/50/11 37/57/11 32/51/11 
f 35/55/11 40/60/11 36/56/10 
f 38/58/11 42/62/11 39/59/11 
s off
f 21/79/14 20/80/14 59/81/14 
f 59/81/14 60/82/14 21/79/14 
f 20/83/15 25/84/15 61/85/15 
f 61/85/15 59/86/15 20/83/15 
f 25/87/16 24/88/16 62/89/16 
f 62/89/16 61/90/16 25/87/16 
f 24/41/17 28/46/17 63/91/17 
f 63/91/17 62/92/17 24/41/17 
f 28/46/18 27/45/18 64/93/18 
f 64/93/18 63/91/18 28/46/18 
f 27/45/19 30/48/19 65/94/19 
f 65/94/19 64/93/19 27/45/19 
f 30/48/20 29/47/20 66/95/20 
f 66/95/20 65/94/20 30/48/20 
f 29/96/21 21/97/21 60/98/21 
f 60/98/21 66/99/21 29/96/21 
f 33/100/22 32/101/22 67/102/22 
f 67/102/22 68/103/22 33/100/22 
f 32/104/23 37/105/23 69/106/23 
f 69/106/23 67/107/23 32/104/23 
f 37/57/24 36/56/24 70/108/24 
f 70/108/24 69/109/24 37/57/24 
f 36/56/25 40/60/25 71/110/25 
f 71/110/25 70/108/25 36/56/25 
f 40/60/26 39/59/26 72/111/26 
f 72/111/26 71/110/26 40/60/26 
f 39/59/27 42/62/27 73/112/27 
f 73/112/27 72/111/27 39/59/27 
f 42/113/28 41/114/28 74/115/28 
f 74/115/28 73/116/28 42/113/28 
f 41/117/29 33/118/29 68/119/29 
f 68/119/29 74/120/29 41/117/29 
f 60/82/30 59/81/30 44/121/30 
f 44/121/31 43/122/31 60/82/31 
f 59/123/32 61/124/32 45/125/32 
f 45/125/33 44/126/33 59/123/33 
f 61/90/34 62/89/34 46/127/34 
f 46/127/35 45/128/35 61/90/35 
f 62/129/36 63/130/36 47/131/36 
f 47/131/37 46/132/37 62/129/37 
f 63/133/38 64/134/38 48/135/38 
f 48/135/39 47/136/39 63/133/39 
f 64/137/40 65/138/40 49/139/40 
f 49/139/41 48/140/41 64/137/41 
f 65/141/42 66/142/42 50/143/42 
f 50/143/43 49/144/43 65/141/43 
f 66/142/44 60/145/44 43/146/44 
f 43/146/45 50/143/45 66/142/45 
f 68/103/46 67/102/46 52/147/46 
f 52/147/47 51/148/47 68/103/47 
f 67/149/48 69/150/48 53/151/48 
f 53/151/49 52/152/49 67/149/49 
f 69/150/50 70/153/50 54/154/50 
f 54/154/51 53/151/51 69/150/51 
f 70/155/52 71/156/52 55/157/52 
f 55/157/53 54/158/53 70/155/53 
f 71/159/54 72/160/54 56/161/54 
f 56/161/55 55/162/55 71/159/55 
f 72/163/56 73/164/56 57/165/56 
f 57/165/57 56/166/57 72/163/57 
f 73/116/58 74/115/58 58/167/58 
f 58/167/59 57/168/59 73/116/59 
f 74/169/60 68/170/60 51/171/60 
f 51/171/61 58/172/61 74/169/61 
# 144 faces

