# 3ds Max Wavefront OBJ Exporter v0.97b - (c)2007 guruware
# File Created: 14.07.2016 11:14:56

mtllib manualgun_base_broken.mtl

#
# object Object002
#

v  -6.5504 0.0000 6.5504
v  -6.5504 0.0000 -6.5504
v  6.5504 0.0000 -6.5504
v  6.5504 0.0000 6.5504
v  5.1337 8.8410 -5.1337
v  -5.1337 8.8410 -5.1337
v  -3.5946 6.4096 3.0829
v  5.7137 8.2300 5.7137
v  5.7137 8.2300 -5.7137
v  -5.7137 8.2300 -5.7137
v  -4.1746 5.7986 3.6629
# 11 vertices

vn 0.0000 -1.0000 -0.0000
vn 0.0000 1.0000 -0.0000
vn 0.0000 0.1011 0.9949
vn 0.9949 0.1011 -0.0000
vn 0.0000 0.1011 -0.9949
vn -0.9949 0.1011 -0.0000
vn 0.0000 0.6885 -0.7253
vn -0.7253 0.6885 -0.0000
vn 0.7253 0.6885 -0.0000
vn -0.2095 0.9756 0.0662
vn 0.2340 0.3769 0.8962
vn -0.3249 0.5615 0.7610
# 12 vertex normals

vt 0.5501 0.4203 0.0000
vt 0.5501 0.5499 0.0000
vt 0.4205 0.5499 0.0000
vt 0.4205 0.4203 0.0000
vt 0.5445 0.2974 0.0000
vt 0.5364 0.2945 0.0000
vt 0.5409 0.2894 0.0000
vt 0.2780 0.3508 0.0000
vt 0.4094 0.3508 0.0000
vt 0.4010 0.4333 0.0000
vt 0.2780 0.2390 0.0000
vt 0.4094 0.2390 0.0000
vt 0.4010 0.3215 0.0000
vt 0.2864 0.3215 0.0000
vt 0.2780 0.4626 0.0000
vt 0.4094 0.4626 0.0000
vt 0.4010 0.5452 0.0000
vt 0.2864 0.5452 0.0000
vt 0.1224 0.4626 0.0000
vt 0.2538 0.4626 0.0000
vt 0.2454 0.5452 0.0000
vt 0.1308 0.5452 0.0000
vt 0.3952 0.5513 0.0000
vt 0.2922 0.5513 0.0000
vt 0.5358 0.2944 0.0000
vt 0.5407 0.2886 0.0000
vt 0.5436 0.2983 0.0000
vt 0.5392 0.2840 0.0000
vt 0.5444 0.2980 0.0000
vt 0.5493 0.2913 0.0000
vt 0.5400 0.2838 0.0000
# 31 texture coords

g Object002
usemtl wire_006135113
s 2
f 1/1/1 2/2/1 3/3/1 
f 3/3/1 4/4/1 1/1/1 
s 4
f 5/5/2 6/6/2 7/7/2 
s 8
f 1/8/3 4/9/3 8/10/3 
s 16
f 4/11/4 3/12/4 9/13/4 
f 9/13/4 8/14/4 4/11/4 
s 32
f 3/15/5 2/16/5 10/17/5 
f 10/17/5 9/18/5 3/15/5 
s 64
f 2/19/6 1/20/6 11/21/6 
f 11/21/6 10/22/6 2/19/6 
s off
f 9/18/7 10/17/7 6/23/7 
f 6/23/7 5/24/7 9/18/7 
f 10/25/8 11/26/8 7/7/8 
f 7/7/8 6/6/8 10/25/8 
f 5/27/9 8/28/8 9/29/8 
f 7/7/10 8/30/10 5/5/8 
f 1/31/11 8/30/12 7/7/11 
f 1/31/11 7/7/11 11/26/11 
# 18 faces

