# 3ds Max Wavefront OBJ Exporter v0.97b - (c)2007 guruware
# File Created: 31.10.2016 23:00:16

mtllib playarea.mtl

#
# object Box002
#

v  106.9086 0.0000 49.9324
v  110.9086 0.0000 49.9324
v  110.9086 0.0000 69.9324
v  106.9086 0.0000 65.9324
v  106.9086 4.0000 49.9324
v  106.9086 4.0000 65.9324
v  110.9086 4.0000 69.9324
v  110.9086 4.0000 49.9324
v  90.9086 0.0000 69.9324
v  90.9086 0.0000 65.9324
v  90.9086 4.0000 69.9324
v  90.9086 4.0000 65.9324
v  106.9086 0.0000 -49.9324
v  106.9086 0.0000 -65.9324
v  110.9086 0.0000 -69.9324
v  110.9086 0.0000 -49.9324
v  106.9086 4.0000 -49.9324
v  110.9086 4.0000 -49.9324
v  110.9086 4.0000 -69.9324
v  106.9086 4.0000 -65.9324
v  90.9086 0.0000 -69.9324
v  90.9086 0.0000 -65.9324
v  90.9086 4.0000 -69.9324
v  90.9086 4.0000 -65.9324
v  -106.9086 0.0000 49.9324
v  -106.9086 0.0000 65.9324
v  -110.9086 0.0000 69.9324
v  -110.9086 0.0000 49.9324
v  -106.9086 4.0000 49.9324
v  -110.9086 4.0000 49.9324
v  -110.9086 4.0000 69.9324
v  -106.9086 4.0000 65.9324
v  -90.9086 0.0000 69.9324
v  -90.9086 0.0000 65.9324
v  -90.9086 4.0000 69.9324
v  -90.9086 4.0000 65.9324
v  -106.9086 0.0000 -49.9324
v  -110.9086 0.0000 -49.9324
v  -110.9086 0.0000 -69.9324
v  -106.9086 0.0000 -65.9324
v  -106.9086 4.0000 -49.9324
v  -106.9086 4.0000 -65.9324
v  -110.9086 4.0000 -69.9324
v  -110.9086 4.0000 -49.9324
v  -90.9086 0.0000 -69.9324
v  -90.9086 0.0000 -65.9324
v  -90.9086 4.0000 -69.9324
v  -90.9086 4.0000 -65.9324
# 48 vertices

vn 0.0000 -1.0000 -0.0000
vn 0.0000 1.0000 -0.0000
vn -1.0000 0.0000 -0.0000
vn 1.0000 0.0000 0.0000
vn 0.0000 0.0000 -1.0000
vn -0.0000 0.0000 1.0000
# 6 vertex normals

vt 1.0000 0.0000 0.0000
vt 1.0000 4.0000 0.0000
vt -19.0000 4.0000 0.0000
vt -19.0000 0.0000 0.0000
vt 0.0000 0.0000 0.0000
vt 20.0000 0.0000 0.0000
vt 20.0000 4.0000 0.0000
vt 0.0000 4.0000 0.0000
vt 4.0000 0.0000 0.0000
vt 4.0000 4.0000 0.0000
# 10 texture coords

g Box002
usemtl superblue
s 1
f 1/1/1 2/2/1 3/3/1 
f 3/3/1 4/4/1 1/1/1 
f 5/5/2 6/6/2 7/7/2 
f 7/7/2 8/8/2 5/5/2 
s 2
f 1/5/3 4/6/3 6/7/3 
f 6/7/3 5/8/3 1/5/3 
f 3/5/4 2/6/4 8/7/4 
f 8/7/4 7/8/4 3/5/4 
s 4
f 2/5/5 1/9/5 5/10/5 
f 5/10/5 8/8/5 2/5/5 
s 1
f 9/1/1 10/2/1 4/3/1 
f 4/3/1 3/4/1 9/1/1 
f 11/5/2 7/6/2 6/7/2 
f 6/7/2 12/8/2 11/5/2 
s 4
f 9/5/6 3/6/6 7/7/6 
f 7/7/6 11/8/6 9/5/6 
f 4/5/5 10/6/5 12/7/5 
f 12/7/5 6/8/5 4/5/5 
s 2
f 10/5/3 9/9/3 11/10/3 
f 11/10/3 12/8/3 10/5/3 
s 1
f 13/1/1 14/4/1 15/3/1 
f 15/3/1 16/2/1 13/1/1 
f 17/5/2 18/8/2 19/7/2 
f 19/7/2 20/6/2 17/5/2 
s 2
f 13/5/3 17/8/3 20/7/3 
f 20/7/3 14/6/3 13/5/3 
f 15/5/4 19/8/4 18/7/4 
f 18/7/4 16/6/4 15/5/4 
s 4
f 16/5/6 18/8/6 17/10/6 
f 17/10/6 13/9/6 16/5/6 
s 1
f 21/1/1 15/4/1 14/3/1 
f 14/3/1 22/2/1 21/1/1 
f 23/5/2 24/8/2 20/7/2 
f 20/7/2 19/6/2 23/5/2 
s 4
f 21/5/5 23/8/5 19/7/5 
f 19/7/5 15/6/5 21/5/5 
f 14/5/6 20/8/6 24/7/6 
f 24/7/6 22/6/6 14/5/6 
s 2
f 22/5/3 24/8/3 23/10/3 
f 23/10/3 21/9/3 22/5/3 
s 1
f 25/1/1 26/4/1 27/3/1 
f 27/3/1 28/2/1 25/1/1 
f 29/5/2 30/8/2 31/7/2 
f 31/7/2 32/6/2 29/5/2 
s 2
f 25/5/4 29/8/4 32/7/4 
f 32/7/4 26/6/4 25/5/4 
f 27/5/3 31/8/3 30/7/3 
f 30/7/3 28/6/3 27/5/3 
s 4
f 28/5/5 30/8/5 29/10/5 
f 29/10/5 25/9/5 28/5/5 
s 1
f 33/1/1 27/4/1 26/3/1 
f 26/3/1 34/2/1 33/1/1 
f 35/5/2 36/8/2 32/7/2 
f 32/7/2 31/6/2 35/5/2 
s 4
f 33/5/6 35/8/6 31/7/6 
f 31/7/6 27/6/6 33/5/6 
f 26/5/5 32/8/5 36/7/5 
f 36/7/5 34/6/5 26/5/5 
s 2
f 34/5/4 36/8/4 35/10/4 
f 35/10/4 33/9/4 34/5/4 
s 1
f 37/1/1 38/2/1 39/3/1 
f 39/3/1 40/4/1 37/1/1 
f 41/5/2 42/6/2 43/7/2 
f 43/7/2 44/8/2 41/5/2 
s 2
f 37/5/4 40/6/4 42/7/4 
f 42/7/4 41/8/4 37/5/4 
f 39/5/3 38/6/3 44/7/3 
f 44/7/3 43/8/3 39/5/3 
s 4
f 38/5/6 37/9/6 41/10/6 
f 41/10/6 44/8/6 38/5/6 
s 1
f 45/1/1 46/2/1 40/3/1 
f 40/3/1 39/4/1 45/1/1 
f 47/5/2 43/6/2 42/7/2 
f 42/7/2 48/8/2 47/5/2 
s 4
f 45/5/5 39/6/5 43/7/5 
f 43/7/5 47/8/5 45/5/5 
f 40/5/6 46/6/6 48/7/6 
f 48/7/6 42/8/6 40/5/6 
s 2
f 46/5/4 45/9/4 47/10/4 
f 47/10/4 48/8/4 46/5/4 
# 80 faces

