# 3ds Max Wavefront OBJ Exporter v0.97b - (c)2007 guruware
# File Created: 01.11.2016 06:35:45

mtllib rocks_broken.mtl

#
# object rocksBroken
#

v  4.4992 -1.5566 -2.9970
v  3.7757 -1.5566 1.1066
v  -0.0456 -1.5566 3.7823
v  -0.9315 -1.5566 -5.4782
v  -5.2260 -1.5566 2.2296
v  -4.6040 7.6020 1.5654
v  -1.4145 6.1070 -4.7568
v  -0.7565 5.7986 2.8390
v  2.6190 4.2164 -2.7216
v  2.0816 4.4683 0.6443
v  -10.8604 -1.5566 -4.6922
v  -6.6935 -1.5566 -4.6922
v  -3.3949 -1.5566 -1.3937
v  -12.3608 -1.5566 1.0869
v  -4.0245 -1.5566 3.9777
v  -4.6432 13.6765 3.0572
v  -11.4811 13.6765 0.6861
v  -4.1269 13.6765 -1.3486
v  -10.2504 13.6765 -4.0542
v  -6.8325 13.6765 -4.0542
v  -6.7384 -0.3234 10.3986
v  -9.6918 -0.2440 9.4977
v  -11.3362 -0.3877 6.4626
v  -4.4598 -0.7137 6.6551
v  -9.7606 -0.7359 2.8178
v  -8.6147 6.1767 2.2498
v  -4.2668 6.1949 5.3973
v  -9.9071 6.4622 5.2394
v  -6.1358 6.5150 8.4679
v  -8.5583 6.5801 7.7289
v  -7.3754 11.2741 2.4753
v  -5.1062 10.0649 4.7362
v  -8.1129 11.5287 4.2960
v  -7.4165 11.0907 6.2252
v  -6.1973 10.4793 6.7335
v  -6.1035 12.9903 3.8217
v  -5.2860 12.7925 4.6440
v  -6.4647 13.0032 4.4806
v  -6.1056 12.9412 5.1892
v  -5.6283 12.8769 5.2777
v  -0.5510 -0.1421 1.8132
v  1.5563 -0.0129 4.0701
v  1.4628 -0.2468 7.5207
v  -4.3961 -0.7776 3.9158
v  -1.7241 -0.8138 9.8894
v  -3.0004 10.4418 9.8084
v  -5.1921 10.4714 4.9086
v  -0.3864 10.9068 7.8655
v  -2.0382 10.9927 3.1839
v  -0.3097 11.0986 5.0352
v  -1.3605 1.5434 7.2220
v  -0.4611 1.1456 2.5449
v  3.6449 -0.5899 -0.4028
v  4.2620 -0.8022 10.2286
v  9.0359 -2.8431 1.5329
v  12.3741 3.3537 3.0015
v  8.4583 5.0277 10.1341
v  7.9522 5.2019 1.4138
v  3.8465 6.9517 7.6680
v  4.5842 6.6254 3.8316
v  4.1213 0.3323 -0.0724
v  3.4445 -0.3180 -1.4735
v  3.4945 -2.0011 -2.3259
v  5.3912 -1.4803 0.8821
v  4.5506 -3.8053 -1.6960
v  8.8469 -2.0418 -4.2031
v  9.5365 -0.1347 -2.0884
v  7.9807 -0.5620 -4.7198
v  8.4948 1.3521 -2.8713
v  7.9397 0.8186 -4.0206
v  12.0016 -0.3893 -5.8376
v  11.5577 0.5695 -4.1709
v  11.5340 0.5385 -6.1651
v  11.1020 1.4320 -5.5500
v  11.0326 1.6045 -4.7137
v  13.0608 0.8670 -5.9314
v  13.0307 1.2839 -5.4330
v  12.8186 1.1732 -6.0575
v  12.7465 1.5372 -5.8284
v  12.8393 1.5992 -5.5832
v  -1.3479 0.7883 -2.5164
v  -4.2839 0.9175 -1.5604
v  -7.3718 0.6836 -3.1034
v  -1.6285 0.1528 -6.8899
v  -8.1717 0.1167 -6.9928
v  -7.5588 11.3722 -8.1153
v  -2.1919 11.4019 -8.0309
v  -6.9027 11.8372 -4.9251
v  -1.9617 11.9231 -4.4436
v  -4.3699 12.0291 -3.6595
v  6.5329 -0.3234 -8.6640
v  5.8928 -0.2440 -5.6433
v  3.0126 -0.3877 -3.7407
v  2.6050 -0.7137 -10.6077
v  -0.7556 -0.7359 -4.9926
v  -1.2650 8.1520 -7.6120
v  3.0957 7.0176 -10.5291
v  0.5392 6.3902 -5.5310
v  4.7153 5.1398 -7.9070
v  3.0872 5.2293 -5.9679
# 100 vertices

vn 0.0000 -1.0000 -0.0000
vn -0.8822 0.0082 -0.4707
vn -0.8733 0.0240 -0.4866
vn -0.8829 0.0070 -0.4695
vn -0.8941 -0.0142 -0.4477
vn -0.2825 0.0925 0.9548
vn -0.2858 0.0947 0.9536
vn -0.2788 0.0902 0.9561
vn -0.2756 0.0881 0.9572
vn 0.8225 0.2775 0.4965
vn 0.9400 0.2982 0.1657
vn 0.9476 0.2852 0.1438
vn 0.8139 0.2361 0.5309
vn 0.4465 0.1417 -0.8835
vn 0.4130 0.1111 -0.9039
vn 0.4602 0.1543 -0.8743
vn 0.5166 0.2079 -0.8306
vn 0.5907 0.1987 0.7820
vn 0.6494 0.1582 0.7439
vn -0.3273 0.0437 0.9439
vn 0.9921 0.0473 0.1163
vn 0.3807 0.0422 -0.9238
vn 0.0000 0.0418 -0.9991
vn 0.3841 0.0421 -0.9223
vn -0.9667 0.0492 -0.2510
vn 0.7066 0.0360 -0.7067
vn 0.7066 0.0360 -0.7066
vn -0.0493 -0.9961 0.0739
vn -0.0493 -0.9960 0.0739
vn -0.0493 -0.9961 0.0738
vn 0.5791 -0.1617 -0.7991
vn 0.5812 -0.1368 -0.8021
vn 0.6026 -0.1169 -0.7895
vn -0.9074 0.1173 -0.4035
vn -0.8984 0.1706 -0.4047
vn -0.8976 0.1777 -0.4034
vn -0.6026 0.2925 0.7425
vn -0.2728 0.2836 0.9193
vn -0.2672 0.3311 0.9050
vn -0.5974 0.3405 0.7261
vn 0.8553 0.0696 0.5134
vn 0.8497 0.1682 0.4997
vn 0.8566 0.1446 0.4953
vn -0.8544 0.2587 0.4507
vn -0.8450 0.3086 0.4368
vn 0.6697 -0.0209 -0.7423
vn 0.7138 0.0315 -0.6996
vn -0.7896 0.4746 -0.3888
vn -0.8025 0.4528 -0.3884
vn -0.5154 0.5154 0.6847
vn -0.7514 0.5310 0.3918
vn -0.1708 0.4262 0.8884
vn 0.8719 0.1608 0.4624
vn 0.8803 0.1522 0.4493
vn 0.7118 0.0233 -0.7020
vn 0.7118 0.0232 -0.7020
vn -0.6040 0.7184 -0.3452
vn -0.6040 0.7184 -0.3451
vn -0.3765 0.6411 0.6688
vn -0.6395 0.6670 0.3823
vn -0.0846 0.5317 0.8427
vn 0.8815 0.0739 0.4663
vn 0.1642 0.9864 0.0094
vn 0.1659 0.9835 0.0717
vn 0.1707 0.9846 0.0385
vn 0.1651 0.9861 -0.0207
vn 0.1432 0.9882 -0.0543
vn 0.1288 -0.9896 -0.0636
vn -0.9085 -0.1001 0.4058
vn 0.5867 0.0723 0.8066
vn 0.5866 0.0723 0.8066
vn 0.9193 0.1846 -0.3476
vn 0.7140 0.1787 -0.6769
vn 0.9206 0.1845 -0.3442
vn -0.4848 0.0428 -0.8736
vn 0.9860 0.1623 0.0377
vn -0.3869 -0.9221 0.0040
vn 0.7048 -0.4991 0.5041
vn 0.3500 0.0333 -0.9361
vn -0.5669 0.6429 -0.5151
vn -0.6988 0.6887 -0.1930
vn -0.5569 0.6377 -0.5321
vn -0.3617 0.2748 0.8909
vn -0.3505 0.5076 -0.7871
vn -0.8031 -0.2880 0.5216
vn 0.5516 -0.7009 0.4522
vn 0.5665 -0.6953 0.4423
vn 0.5802 -0.6787 0.4503
vn -0.2962 -0.4647 -0.8344
vn -0.2606 -0.4507 -0.8538
vn -0.2608 -0.4496 -0.8543
vn -0.4812 0.6894 -0.5415
vn -0.3643 0.8994 -0.2415
vn -0.3318 0.9066 -0.2606
vn -0.4470 0.6960 -0.5620
vn 0.3225 0.6080 0.7255
vn 0.3770 0.6244 0.6841
vn 0.3757 0.6167 0.6917
vn -0.5270 0.3715 -0.7644
vn -0.4937 0.3772 -0.7836
vn 0.6607 -0.5795 0.4771
vn 0.6881 -0.5345 0.4907
vn -0.0209 -0.3440 -0.9387
vn -0.0588 -0.3585 -0.9317
vn -0.2923 0.7491 -0.5945
vn -0.3005 0.4380 -0.8473
vn -0.2279 0.9477 -0.2235
vn 0.4041 0.5889 0.6999
vn 0.4018 0.5768 0.7112
vn 0.6832 -0.5393 0.4923
vn 0.6833 -0.5393 0.4923
vn 0.1965 -0.2364 -0.9516
vn 0.1965 -0.2366 -0.9515
vn -0.1490 0.8034 -0.5764
vn -0.1756 0.4992 -0.8485
vn -0.0977 0.9730 -0.2090
vn 0.3577 0.5696 0.7400
vn 0.3578 0.5696 0.7400
vn 0.8343 0.4078 -0.3710
vn 0.7985 0.4846 -0.3571
vn 0.8212 0.4447 -0.3577
vn 0.8503 0.3703 -0.3740
vn 0.8542 0.3253 -0.4056
vn 0.0032 -0.9896 0.1436
vn 0.0162 -0.1001 -0.9948
vn -0.9790 0.0723 0.1908
vn -0.0734 0.1846 0.9801
vn 0.3117 0.1787 0.9332
vn -0.0771 0.1845 0.9798
vn 0.9966 0.0428 -0.0702
vn -0.4509 0.1623 0.8777
vn 0.0779 -0.9961 0.0427
vn 0.0779 -0.9960 0.0427
vn -0.7654 -0.1205 -0.6321
vn -0.8409 -0.1968 -0.5041
vn -0.7001 -0.0654 -0.7110
vn -0.5477 0.0433 -0.8356
vn -0.3935 0.1401 0.9086
vn -0.3234 0.1296 0.9374
vn -0.6019 0.1683 0.7807
vn -0.6653 0.1757 0.7256
vn 0.7724 0.3333 0.5406
vn 0.9390 0.2859 0.1915
vn 0.7895 0.3765 0.4847
vn 0.4918 0.3691 0.7886
vn 0.5905 0.0723 -0.8038
vn 0.4450 -0.0191 -0.8953
vn 0.7477 0.1883 -0.6368
vn 0.8895 0.3385 -0.3070
vn 0.4705 0.3198 0.8224
vn 0.3098 0.3469 0.8852
vn 0.4377 0.8368 0.3289
vn 0.4244 0.9055 -0.0000
vn 0.3868 0.9221 -0.0040
vn 0.3869 0.9221 -0.0040
vn -0.0032 0.9896 -0.1436
vn 0.0000 1.0000 -0.0000
vn -0.1287 0.9896 0.0636
vn -0.1288 0.9896 0.0636
# 159 vertex normals

vt 0.1411 0.2925 0.0000
vt 0.1574 0.3481 0.0000
vt 0.1262 0.4051 0.0000
vt 0.0580 0.2950 0.0000
vt 0.0520 0.4177 0.0000
vt 0.8617 0.8269 0.0000
vt 0.7475 0.8269 0.0000
vt 0.7573 0.6912 0.0000
vt 0.8510 0.7133 0.0000
vt 0.6541 0.3034 0.0000
vt 0.5772 0.3034 0.0000
vt 0.5877 0.1942 0.0000
vt 0.6448 0.1675 0.0000
vt 0.1221 0.2772 0.0000
vt 0.0633 0.2772 0.0000
vt 0.0673 0.1946 0.0000
vt 0.1154 0.1910 0.0000
vt 0.2351 0.2055 0.0000
vt 0.3157 0.2086 0.0000
vt 0.3184 0.3226 0.0000
vt 0.2597 0.2922 0.0000
vt 0.5205 0.3034 0.0000
vt 0.5456 0.2140 0.0000
vt 0.9621 0.7117 0.0000
vt 0.9796 0.7670 0.0000
vt 0.9497 0.8246 0.0000
vt 0.8792 0.7161 0.0000
vt 0.8758 0.8388 0.0000
vt 0.2162 0.8766 0.0000
vt 0.0967 0.8766 0.0000
vt 0.1056 0.6584 0.0000
vt 0.2036 0.6584 0.0000
vt 0.0865 0.8794 0.0000
vt 0.0114 0.8794 0.0000
vt 0.0120 0.6666 0.0000
vt 0.0736 0.6666 0.0000
vt 0.1516 0.6441 0.0000
vt 0.0936 0.6441 0.0000
vt 0.1021 0.4320 0.0000
vt 0.1496 0.4320 0.0000
vt 0.3102 0.8801 0.0000
vt 0.2284 0.8801 0.0000
vt 0.2341 0.6645 0.0000
vt 0.3012 0.6645 0.0000
vt 0.0740 0.6450 0.0000
vt 0.0090 0.6450 0.0000
vt 0.0140 0.4328 0.0000
vt 0.0672 0.4328 0.0000
vt 0.3763 0.2777 0.0000
vt 0.3629 0.2368 0.0000
vt 0.3844 0.1937 0.0000
vt 0.4373 0.2737 0.0000
vt 0.4386 0.1825 0.0000
vt 0.4694 0.6410 0.0000
vt 0.3870 0.6444 0.0000
vt 0.4008 0.5363 0.0000
vt 0.4684 0.5335 0.0000
vt 0.3659 0.6476 0.0000
vt 0.3114 0.6466 0.0000
vt 0.3218 0.5436 0.0000
vt 0.3665 0.5444 0.0000
vt 0.8598 0.2566 0.0000
vt 0.9028 0.2604 0.0000
vt 0.9000 0.3607 0.0000
vt 0.8648 0.3576 0.0000
vt 0.6241 0.4581 0.0000
vt 0.6799 0.4719 0.0000
vt 0.6623 0.5778 0.0000
vt 0.6164 0.5665 0.0000
vt 0.2663 0.6479 0.0000
vt 0.2847 0.5447 0.0000
vt 0.4171 0.4563 0.0000
vt 0.6780 0.6660 0.0000
vt 0.6517 0.6369 0.0000
vt 0.3300 0.4674 0.0000
vt 0.3573 0.4691 0.0000
vt 0.3019 0.4760 0.0000
vt 0.8925 0.4182 0.0000
vt 0.8737 0.4250 0.0000
vt 0.6208 0.6325 0.0000
vt 0.6497 0.6837 0.0000
vt 0.6389 0.6766 0.0000
vt 0.4458 0.3702 0.0000
vt 0.4538 0.3453 0.0000
vt 0.4656 0.3444 0.0000
vt 0.4767 0.3713 0.0000
vt 0.6537 0.2049 0.0000
vt 0.6657 0.1723 0.0000
vt 0.6767 0.1741 0.0000
vt 0.6828 0.2044 0.0000
vt 0.8967 0.4539 0.0000
vt 0.8896 0.4541 0.0000
vt 0.6294 0.6745 0.0000
vt 0.4591 0.3274 0.0000
vt 0.4459 0.3356 0.0000
vt 0.4478 0.3282 0.0000
vt 0.7056 0.4810 0.0000
vt 0.6948 0.4392 0.0000
vt 0.7190 0.3974 0.0000
vt 0.7669 0.4809 0.0000
vt 0.7740 0.3896 0.0000
vt 0.6016 0.6780 0.0000
vt 0.5144 0.6785 0.0000
vt 0.5156 0.5142 0.0000
vt 0.5871 0.5137 0.0000
vt 0.7919 0.2478 0.0000
vt 0.8420 0.2489 0.0000
vt 0.8401 0.4241 0.0000
vt 0.7990 0.4232 0.0000
vt 0.1992 0.6419 0.0000
vt 0.1654 0.6451 0.0000
vt 0.1797 0.4771 0.0000
vt 0.2075 0.4745 0.0000
vt 0.6989 0.5034 0.0000
vt 0.7569 0.5006 0.0000
vt 0.7493 0.6683 0.0000
vt 0.7017 0.6706 0.0000
vt 0.2512 0.6435 0.0000
vt 0.2501 0.4758 0.0000
vt 0.3277 0.4324 0.0000
vt 0.3093 0.3658 0.0000
vt 0.3437 0.3012 0.0000
vt 0.4201 0.4353 0.0000
vt 0.4262 0.2917 0.0000
vt 0.7353 0.6992 0.0000
vt 0.7305 0.8401 0.0000
vt 0.6318 0.8237 0.0000
vt 0.6358 0.7081 0.0000
vt 0.4153 0.8179 0.0000
vt 0.4164 0.7304 0.0000
vt 0.5209 0.7578 0.0000
vt 0.5199 0.8295 0.0000
vt 0.9728 0.5755 0.0000
vt 0.9063 0.5755 0.0000
vt 0.9077 0.4708 0.0000
vt 0.9623 0.4709 0.0000
vt 0.5024 0.3705 0.0000
vt 0.5893 0.3933 0.0000
vt 0.5863 0.4991 0.0000
vt 0.5150 0.4804 0.0000
vt 0.4175 0.6637 0.0000
vt 0.5218 0.7031 0.0000
vt 0.5787 0.3146 0.0000
vt 0.5848 0.3378 0.0000
vt 0.5730 0.3647 0.0000
vt 0.5476 0.3211 0.0000
vt 0.5452 0.3749 0.0000
vt 0.8204 0.5848 0.0000
vt 0.7707 0.5828 0.0000
vt 0.7784 0.5097 0.0000
vt 0.8192 0.5112 0.0000
vt 0.9634 0.4560 0.0000
vt 0.9319 0.4619 0.0000
vt 0.9344 0.3897 0.0000
vt 0.9603 0.3848 0.0000
vt 0.9463 0.1489 0.0000
vt 0.9689 0.1470 0.0000
vt 0.9664 0.2226 0.0000
vt 0.9478 0.2242 0.0000
vt 0.6715 0.2160 0.0000
vt 0.7050 0.2167 0.0000
vt 0.7035 0.2902 0.0000
vt 0.6760 0.2896 0.0000
vt 0.9073 0.4539 0.0000
vt 0.9143 0.3831 0.0000
vt 0.7893 0.4562 0.0000
vt 0.8128 0.4703 0.0000
vt 0.9370 0.3326 0.0000
vt 0.9528 0.3307 0.0000
vt 0.9218 0.3342 0.0000
vt 0.9622 0.2682 0.0000
vt 0.9522 0.2753 0.0000
vt 0.6987 0.3311 0.0000
vt 0.6809 0.3329 0.0000
vt 0.8039 0.4391 0.0000
vt 0.8125 0.4417 0.0000
vt 0.9345 0.3108 0.0000
vt 0.9402 0.3089 0.0000
vt 0.9289 0.3099 0.0000
vt 0.9647 0.2973 0.0000
vt 0.9610 0.2979 0.0000
vt 0.4799 0.6733 0.0000
vt 0.4797 0.6468 0.0000
vt 0.4856 0.6473 0.0000
vt 0.4987 0.6735 0.0000
vt 0.6127 0.1486 0.0000
vt 0.6227 0.1489 0.0000
vt 0.6210 0.1537 0.0000
vt 0.6147 0.1555 0.0000
vt 0.6112 0.1537 0.0000
vt 0.7045 0.2075 0.0000
vt 0.6911 0.1664 0.0000
vt 0.7127 0.1232 0.0000
vt 0.7657 0.2036 0.0000
vt 0.7671 0.1120 0.0000
vt 0.6205 0.8632 0.0000
vt 0.5292 0.8637 0.0000
vt 0.5377 0.7066 0.0000
vt 0.6126 0.7062 0.0000
vt 0.1725 0.2891 0.0000
vt 0.2278 0.2886 0.0000
vt 0.2264 0.4476 0.0000
vt 0.1811 0.4480 0.0000
vt 0.3638 0.8280 0.0000
vt 0.3210 0.8315 0.0000
vt 0.3238 0.6683 0.0000
vt 0.3590 0.6654 0.0000
vt 0.7180 0.2206 0.0000
vt 0.7796 0.2188 0.0000
vt 0.7773 0.3764 0.0000
vt 0.7268 0.3779 0.0000
vt 0.4091 0.8298 0.0000
vt 0.3962 0.6669 0.0000
vt 0.9217 0.1443 0.0000
vt 0.9324 0.1861 0.0000
vt 0.9081 0.2276 0.0000
vt 0.8606 0.1443 0.0000
vt 0.8533 0.2353 0.0000
vt 0.3187 0.4536 0.0000
vt 0.2334 0.4539 0.0000
vt 0.2732 0.3190 0.0000
vt 0.5042 0.3446 0.0000
vt 0.4515 0.3023 0.0000
vt 0.5057 0.1997 0.0000
vt 0.8839 0.6832 0.0000
vt 0.8265 0.6823 0.0000
vt 0.8561 0.5770 0.0000
vt 0.8813 0.5483 0.0000
vt 0.8401 0.2331 0.0000
vt 0.7953 0.2256 0.0000
vt 0.8222 0.1470 0.0000
vt 0.8511 0.1512 0.0000
vt 0.4496 0.1809 0.0000
vt 0.7888 0.1116 0.0000
vt 0.7828 0.6835 0.0000
vt 0.8189 0.5975 0.0000
vt 0.4974 0.4302 0.0000
vt 0.4875 0.4675 0.0000
vt 0.4407 0.4702 0.0000
vt 0.4806 0.3947 0.0000
vt 0.4389 0.3904 0.0000
vt 0.1378 0.2626 0.0000
vt 0.1331 0.1592 0.0000
vt 0.1921 0.1652 0.0000
vt 0.2038 0.2596 0.0000
vt 0.2168 0.2115 0.0000
vt 0.6710 0.3307 0.0000
vt 0.6971 0.3848 0.0000
vt 0.6799 0.4387 0.0000
vt 0.6038 0.3202 0.0000
vt 0.6042 0.4381 0.0000
vt 0.8357 0.5324 0.0000
vt 0.8345 0.4574 0.0000
vt 0.8791 0.4665 0.0000
vt 0.8859 0.5357 0.0000
vt 0.8968 0.5020 0.0000
vt 0.8986 0.6403 0.0000
vt 0.9112 0.5945 0.0000
vt 0.9794 0.5955 0.0000
vt 0.9249 0.6866 0.0000
vt 0.9859 0.6960 0.0000
vt 0.5690 0.1179 0.0000
vt 0.5875 0.1529 0.0000
vt 0.5773 0.1868 0.0000
vt 0.5241 0.1097 0.0000
vt 0.5271 0.1848 0.0000
# 266 texture coords

g rocksBroken
usemtl wire_255255255
s 1
f 1/1/1 2/2/1 3/3/1 
f 4/4/1 1/1/1 3/3/1 
f 4/4/1 3/3/1 5/5/1 
s 2
f 4/6/2 5/7/3 6/8/4 
f 6/8/4 7/9/5 4/6/2 
s 4
f 5/10/6 3/11/7 8/12/8 
f 8/12/8 6/13/9 5/10/6 
s 2
f 2/14/10 1/15/11 9/16/12 
f 9/16/12 10/17/13 2/14/10 
s 4
f 1/18/14 4/19/15 7/20/16 
f 7/20/16 9/21/17 1/18/14 
s 2
f 3/11/18 2/22/10 10/23/13 
f 10/23/13 8/12/19 3/11/18 
s 1
f 11/24/1 12/25/1 13/26/1 
f 14/27/1 11/24/1 13/26/1 
f 14/27/1 13/26/1 15/28/1 
s 2
f 14/29/20 15/30/20 16/31/20 
f 16/31/20 17/32/20 14/29/20 
s 4
f 15/33/21 13/34/21 18/35/21 
f 18/35/21 16/36/21 15/33/21 
s 2
f 12/37/22 11/38/23 19/39/23 
f 19/39/23 20/40/24 12/37/22 
s 4
f 11/41/25 14/42/25 17/43/25 
f 17/43/25 19/44/25 11/41/25 
s 2
f 13/45/26 12/46/22 20/47/24 
f 20/47/24 18/48/27 13/45/26 
s 1
f 21/49/28 22/50/29 23/51/28 
f 24/52/30 21/49/28 23/51/28 
f 24/52/30 23/51/28 25/53/30 
s 2
f 24/54/31 25/55/31 26/56/32 
f 26/56/32 27/57/33 24/54/31 
s 4
f 25/58/34 23/59/34 28/60/35 
f 28/60/35 26/61/36 25/58/34 
s 2
f 22/62/37 21/63/38 29/64/39 
f 29/64/39 30/65/40 22/62/37 
s 4
f 21/66/41 24/67/41 27/68/42 
f 27/68/42 29/69/43 21/66/41 
s 2
f 23/59/44 22/70/37 30/71/40 
f 30/71/40 28/60/45 23/59/44 
f 27/57/33 26/56/32 31/72/46 
f 31/73/46 32/74/47 27/68/33 
s 4
f 26/61/36 28/60/35 33/75/48 
f 33/75/48 31/76/49 26/61/36 
s 2
f 28/60/45 30/71/40 34/77/50 
f 34/77/50 33/75/51 28/60/45 
f 30/65/40 29/64/39 35/78/52 
f 35/78/52 34/79/50 30/65/40 
s 4
f 29/69/43 27/68/42 32/74/53 
f 32/74/53 35/80/54 29/69/43 
s 2
f 31/73/46 36/81/55 37/82/56 
f 37/82/56 32/74/47 31/73/46 
s 4
f 33/83/48 38/84/57 36/85/58 
f 36/85/58 31/86/49 33/83/48 
s 2
f 34/87/50 39/88/59 38/89/60 
f 38/89/60 33/90/51 34/87/50 
f 35/78/52 40/91/61 39/92/59 
f 39/92/59 34/79/50 35/78/52 
s 4
f 32/74/53 37/82/62 40/93/62 
f 40/93/62 35/80/54 32/74/53 
s 1
f 37/94/63 36/85/64 38/84/65 
f 37/94/63 38/84/65 39/95/66 
f 37/94/63 39/95/66 40/96/67 
f 41/97/68 42/98/68 43/99/68 
f 44/100/68 41/97/68 43/99/68 
f 44/100/68 43/99/68 45/101/68 
s 2
f 44/102/69 45/103/69 46/104/69 
f 46/104/69 47/105/69 44/102/69 
s 4
f 45/106/70 43/107/71 48/108/70 
f 48/108/70 46/109/70 45/106/70 
s 2
f 42/110/72 41/111/73 49/112/73 
f 49/112/73 50/113/74 42/110/72 
s 4
f 41/114/75 44/115/75 47/116/75 
f 47/116/75 49/117/75 41/114/75 
s 2
f 43/118/76 42/110/72 50/113/74 
f 50/113/74 48/119/76 43/118/76 
s 1
f 51/120/77 52/121/77 53/122/77 
f 54/123/77 51/120/77 53/122/77 
f 54/123/77 53/122/77 55/124/77 
s 2
f 54/125/78 55/126/78 56/127/78 
f 56/127/78 57/128/78 54/125/78 
s 4
f 55/129/79 53/130/79 58/131/79 
f 58/131/79 56/132/79 55/129/79 
s 2
f 52/133/80 51/134/81 59/135/81 
f 59/135/81 60/136/82 52/133/80 
s 4
f 51/137/83 54/138/83 57/139/83 
f 57/139/83 59/140/83 51/137/83 
s 2
f 53/130/84 52/141/80 60/142/82 
f 60/142/82 58/131/84 53/130/84 
s 1
f 61/143/85 62/144/85 63/145/85 
f 64/146/85 61/143/85 63/145/85 
f 64/146/85 63/145/85 65/147/85 
s 2
f 64/148/86 65/149/86 66/150/87 
f 66/150/87 67/151/88 64/148/86 
s 4
f 65/152/89 63/153/89 68/154/90 
f 68/154/90 66/155/91 65/152/89 
s 2
f 62/156/92 61/157/93 69/158/94 
f 69/158/94 70/159/95 62/156/92 
s 4
f 61/160/96 64/161/96 67/162/97 
f 67/162/97 69/163/98 61/160/96 
s 2
f 63/153/99 62/164/92 70/165/95 
f 70/165/95 68/154/100 63/153/99 
f 67/151/88 66/150/87 71/166/101 
f 71/166/101 72/167/102 67/151/88 
s 4
f 66/155/91 68/154/90 73/168/103 
f 73/168/103 71/169/104 66/155/91 
s 2
f 68/154/100 70/165/95 74/170/105 
f 74/170/105 73/168/106 68/154/100 
f 70/159/95 69/158/94 75/171/107 
f 75/171/107 74/172/105 70/159/95 
s 4
f 69/163/98 67/162/97 72/173/108 
f 72/173/108 75/174/109 69/163/98 
s 2
f 71/166/101 76/175/110 77/176/111 
f 77/176/111 72/167/102 71/166/101 
s 4
f 73/168/103 78/177/112 76/178/113 
f 76/178/113 71/169/104 73/168/103 
s 2
f 74/170/105 79/179/114 78/177/115 
f 78/177/115 73/168/106 74/170/105 
f 75/171/107 80/180/116 79/181/114 
f 79/181/114 74/172/105 75/171/107 
s 4
f 72/182/108 77/183/117 80/184/118 
f 80/184/118 75/185/109 72/182/108 
s 1
f 77/186/119 76/187/120 78/188/121 
f 77/186/119 78/188/121 79/189/122 
f 77/186/119 79/189/122 80/190/123 
f 81/191/124 82/192/124 83/193/124 
f 84/194/124 81/191/124 83/193/124 
f 84/194/124 83/193/124 85/195/124 
s 2
f 84/196/125 85/197/125 86/198/125 
f 86/198/125 87/199/125 84/196/125 
s 4
f 85/200/126 83/201/126 88/202/126 
f 88/202/126 86/203/126 85/200/126 
s 2
f 82/204/127 81/205/128 89/206/128 
f 89/206/128 90/207/129 82/204/127 
s 4
f 81/208/130 84/209/130 87/210/130 
f 87/210/130 89/211/130 81/208/130 
s 2
f 83/212/131 82/204/127 90/207/129 
f 90/207/129 88/213/131 83/212/131 
s 1
f 91/214/132 92/215/133 93/216/132 
f 94/217/132 91/214/132 93/216/132 
f 94/217/132 93/216/132 95/218/132 
s 2
f 94/219/134 95/220/135 96/221/136 
f 96/222/136 97/223/137 94/224/134 
s 4
f 95/225/138 93/226/139 98/227/140 
f 98/227/140 96/228/141 95/225/138 
s 2
f 92/229/142 91/230/143 99/231/144 
f 99/231/144 100/232/145 92/229/142 
s 4
f 91/233/146 94/224/147 97/223/148 
f 97/234/148 99/231/149 91/230/146 
s 2
f 93/226/150 92/235/142 100/236/145 
f 100/236/145 98/227/151 93/226/150 
s off
f 100/237/152 99/238/152 97/239/152 
f 98/240/152 100/237/152 97/239/152 
f 96/241/152 98/240/152 97/239/152 
f 7/242/153 6/243/153 8/244/153 
f 9/245/153 7/242/153 8/244/153 
f 10/246/153 9/245/153 8/244/153 
f 58/247/154 60/248/154 59/249/154 
f 56/250/155 58/247/155 59/249/155 
f 57/251/155 56/250/155 59/249/155 
f 87/252/156 86/253/156 88/254/156 
f 89/255/156 87/252/156 88/254/156 
f 90/256/156 89/255/156 88/254/156 
f 20/257/157 19/258/157 17/259/157 
f 18/260/157 20/257/157 17/259/157 
f 16/261/157 18/260/157 17/259/157 
f 48/262/158 50/263/158 49/264/158 
f 46/265/159 48/262/159 49/264/159 
f 47/266/159 46/265/159 49/264/159 
# 168 faces

