# 3ds Max Wavefront OBJ Exporter v0.97b - (c)2007 guruware
# File Created: 02.11.2015 17:53:31

mtllib bugrearright.mtl

#
# object Object007
#

v  0.5303 0.5303 0.7500
v  -9.7141 10.7747 0.7500
v  -10.7747 9.7141 0.7500
v  -0.5303 -0.5303 0.7500
v  -10.7747 9.7141 -0.7500
v  -9.7141 10.7747 -0.7500
v  0.5303 0.5303 -0.7500
v  -0.5303 -0.5303 -0.7500
v  -22.0951 -10.6730 2.3440
v  -26.7368 -10.6007 2.3440
v  -26.7368 -10.6007 -2.3440
v  -22.0951 -10.6730 -2.3440
v  -9.4971 10.9917 1.0569
v  -9.4971 10.9917 -1.0569
v  -12.0653 13.4376 -0.9955
v  -12.0653 13.4376 0.9955
v  -11.6731 10.4743 1.1541
v  -14.4506 9.6233 1.0635
v  -12.6642 8.4232 1.0502
v  -14.4506 9.6233 -1.0635
v  -11.6730 10.4743 -1.1541
v  -12.6643 8.4232 -1.0503
v  -10.9917 9.4971 1.0569
v  -10.9917 9.4971 -1.0569
v  -25.1151 -8.8371 0.7500
v  -23.6610 -8.8597 0.7500
v  -12.9322 8.5857 0.7500
v  -14.1933 9.4687 0.7500
v  -25.1151 -8.8371 -0.7500
v  -14.1933 9.4687 -0.7500
v  -23.6610 -8.8597 -0.7500
v  -12.9322 8.5857 -0.7500
v  -25.9120 -8.8246 1.5470
v  -22.8641 -8.8721 1.5470
v  -25.9121 -8.8246 -1.5470
v  -22.8641 -8.8721 -1.5470
# 36 vertices

vn -0.0000 0.0000 1.0000
vn 0.0000 0.0000 -1.0000
vn -0.7071 -0.7071 0.0000
vn -0.7071 -0.7071 -0.0000
vn -0.0156 -0.9999 -0.0000
vn 0.6896 0.7241 0.0000
vn 0.7071 -0.7071 0.0000
vn 0.0033 0.0121 0.9999
vn -0.0084 0.0524 0.9986
vn -0.0321 -0.0016 0.9995
vn -0.0201 -0.0409 0.9990
vn -0.8479 0.5302 -0.0000
vn 0.0033 0.0121 -0.9999
vn -0.0201 -0.0409 -0.9990
vn -0.0321 -0.0016 -0.9995
vn -0.0084 0.0524 -0.9986
vn 0.9004 -0.4351 -0.0000
vn 0.9004 -0.4351 0.0000
vn 0.0408 0.0161 0.9990
vn 0.0584 -0.0584 0.9966
vn 0.0408 0.0161 -0.9990
vn 0.0584 -0.0584 -0.9966
vn -0.8203 -0.5719 -0.0000
vn 0.7071 0.7071 0.0000
vn -0.8588 0.5124 -0.0000
vn 0.8518 -0.5239 -0.0000
vn 0.8518 -0.5239 0.0000
vn 0.7071 -0.7071 -0.0000
vn -0.5369 -0.8434 -0.0200
vn -0.5462 -0.8370 0.0346
vn -0.5438 -0.8389 0.0212
vn -0.5370 -0.8432 -0.0249
vn -0.5387 -0.8423 -0.0202
vn -0.5375 -0.8430 -0.0236
vn -0.5440 -0.8384 0.0330
vn -0.5435 -0.8391 0.0222
vn 0.0156 0.9999 0.0000
vn 0.0156 0.9999 -0.0000
vn 0.0063 0.4069 0.9134
vn 0.0063 0.4070 0.9134
vn -0.9070 0.4212 0.0000
vn -0.9070 0.4212 -0.0000
vn 0.0063 0.4069 -0.9134
vn 0.9197 0.3927 0.0000
# 44 vertex normals

vt 0.3710 0.2462 0.0000
vt 0.4374 0.2475 0.0000
vt 0.4372 0.2544 0.0000
vt 0.3708 0.2531 0.0000
vt 0.0644 0.1911 0.0000
vt 0.0645 0.1843 0.0000
vt 0.1309 0.1856 0.0000
vt 0.1307 0.1924 0.0000
vt 0.1462 0.3029 0.0000
vt 0.1462 0.3110 0.0000
vt 0.0904 0.3110 0.0000
vt 0.0904 0.3029 0.0000
vt 0.4266 0.7318 0.0000
vt 0.4266 0.7531 0.0000
vt 0.4051 0.7531 0.0000
vt 0.4051 0.7318 0.0000
vt 0.1969 0.6786 0.0000
vt 0.1969 0.6672 0.0000
vt 0.2107 0.6675 0.0000
vt 0.2107 0.6782 0.0000
vt 0.5020 0.4159 0.0000
vt 0.5020 0.4217 0.0000
vt 0.4938 0.4217 0.0000
vt 0.4938 0.4159 0.0000
vt 0.2981 0.7971 0.0000
vt 0.3070 0.8075 0.0000
vt 0.2867 0.8040 0.0000
vt 0.2880 0.7942 0.0000
vt 0.0716 0.8929 0.0000
vt 0.0906 0.8925 0.0000
vt 0.0906 0.9031 0.0000
vt 0.0716 0.9028 0.0000
vt 0.3365 0.7258 0.0000
vt 0.3266 0.7290 0.0000
vt 0.3249 0.7193 0.0000
vt 0.3451 0.7151 0.0000
vt 0.1649 0.6806 0.0000
vt 0.1654 0.6707 0.0000
vt 0.1755 0.6707 0.0000
vt 0.1760 0.6806 0.0000
vt 0.3065 0.7912 0.0000
vt 0.2968 0.7918 0.0000
vt 0.3452 0.7314 0.0000
vt 0.3355 0.7312 0.0000
vt 0.1147 0.9798 0.0000
vt 0.1031 0.9798 0.0000
vt 0.1036 0.9748 0.0000
vt 0.1143 0.9748 0.0000
vt 0.0418 0.0458 0.0000
vt 0.0418 0.0377 0.0000
vt 0.0976 0.0377 0.0000
vt 0.0976 0.0458 0.0000
vt 0.3438 0.3673 0.0000
vt 0.3402 0.3730 0.0000
vt 0.2464 0.3708 0.0000
vt 0.2461 0.3637 0.0000
vt 0.2386 0.2141 0.0000
vt 0.2386 0.2216 0.0000
vt 0.1480 0.2216 0.0000
vt 0.1480 0.2141 0.0000
vt 0.0251 0.4978 0.0000
vt 0.0218 0.4920 0.0000
vt 0.1195 0.4922 0.0000
vt 0.1190 0.4992 0.0000
vt 0.1299 0.2141 0.0000
vt 0.1299 0.2216 0.0000
vt 0.0432 0.2216 0.0000
vt 0.0432 0.2141 0.0000
vt 0.1521 0.6555 0.0000
vt 0.1521 0.6497 0.0000
vt 0.1538 0.6486 0.0000
vt 0.1538 0.6567 0.0000
vt 0.1440 0.6497 0.0000
vt 0.1423 0.6486 0.0000
vt 0.1440 0.6555 0.0000
vt 0.1423 0.6567 0.0000
vt 0.0431 0.6806 0.0000
vt 0.0349 0.6806 0.0000
vt 0.0332 0.6794 0.0000
vt 0.0448 0.6794 0.0000
vt 0.2086 0.6333 0.0000
vt 0.2086 0.6270 0.0000
vt 0.2101 0.6256 0.0000
vt 0.2102 0.6345 0.0000
vt 0.2011 0.6270 0.0000
vt 0.1996 0.6256 0.0000
vt 0.2011 0.6333 0.0000
vt 0.1995 0.6345 0.0000
vt 0.3347 0.6612 0.0000
vt 0.3347 0.6679 0.0000
vt 0.3311 0.6715 0.0000
vt 0.3311 0.6575 0.0000
vt 0.3416 0.6679 0.0000
vt 0.3453 0.6715 0.0000
vt 0.3416 0.6612 0.0000
vt 0.3453 0.6575 0.0000
vt 0.2034 0.8348 0.0000
vt 0.1888 0.8350 0.0000
vt 0.1848 0.8265 0.0000
vt 0.2071 0.8261 0.0000
vt 0.3418 0.6004 0.0000
vt 0.3269 0.6004 0.0000
vt 0.3231 0.5918 0.0000
vt 0.3457 0.5918 0.0000
vt 0.1969 0.9583 0.0000
vt 0.1822 0.9581 0.0000
vt 0.1786 0.9494 0.0000
vt 0.2008 0.9498 0.0000
vt 0.1287 0.9330 0.0000
vt 0.1139 0.9330 0.0000
vt 0.1101 0.9243 0.0000
vt 0.1325 0.9243 0.0000
# 112 texture coords

g Object007
usemtl wire_145028177
s 1
f 1/1/1 2/2/1 3/3/1 
f 3/3/1 4/4/1 1/1/1 
f 5/5/2 6/6/2 7/7/2 
f 7/7/2 8/8/2 5/5/2 
s 2
f 3/9/3 5/10/3 8/11/4 
f 8/11/4 4/12/4 3/9/3 
s 1
f 9/13/5 10/14/5 11/15/5 
f 11/15/5 12/16/5 9/13/5 
f 13/17/6 14/18/6 15/19/6 
f 15/19/6 16/20/6 13/17/6 
s 4
f 1/21/7 4/22/7 8/23/7 
f 8/23/7 7/24/7 1/21/7 
s 2
f 17/25/8 16/26/9 18/27/10 
f 18/27/10 19/28/11 17/25/8 
s 4
f 15/29/12 20/30/12 18/31/12 
f 18/31/12 16/32/12 15/29/12 
s 2
f 21/33/13 22/34/14 20/35/15 
f 20/35/15 15/36/16 21/33/13 
s 1
f 17/37/17 19/38/17 22/39/17 
f 22/39/17 21/40/18 17/37/17 
s 2
f 13/41/19 16/26/9 17/25/8 
f 17/25/8 23/42/20 13/41/19 
f 21/33/13 15/36/16 14/43/21 
f 14/43/21 24/44/22 21/33/13 
s 4
f 17/45/23 21/46/23 24/47/23 
f 24/47/23 23/48/23 17/45/23 
s 2
f 1/49/24 7/50/24 6/51/24 
f 6/51/24 2/52/24 1/49/24 
s 1
f 25/53/1 26/54/1 27/55/1 
f 27/55/1 28/56/1 25/53/1 
s 2
f 29/57/25 25/58/25 28/59/25 
f 28/59/25 30/60/25 29/57/25 
s 1
f 31/61/2 29/62/2 30/63/2 
f 30/63/2 32/64/2 31/61/2 
s 2
f 26/65/26 31/66/26 32/67/27 
f 32/67/27 27/68/27 26/65/26 
s 8
f 3/69/7 2/70/28 13/71/28 
f 13/71/28 23/72/7 3/69/7 
f 2/70/28 6/73/7 14/74/7 
f 14/74/7 13/71/28 2/70/28 
f 6/73/7 5/75/7 24/76/7 
f 24/76/7 14/74/7 6/73/7 
f 5/77/7 3/78/7 23/79/7 
f 23/79/7 24/80/7 5/77/7 
f 28/81/29 27/82/30 19/83/31 
f 19/83/31 18/84/32 28/81/29 
f 27/82/30 32/85/33 22/86/34 
f 22/86/34 19/83/31 27/82/30 
f 32/85/33 30/87/35 20/88/36 
f 20/88/36 22/86/34 32/85/33 
f 30/87/35 28/81/29 18/84/32 
f 18/84/32 20/88/36 30/87/35 
s 4
f 26/89/37 25/90/37 33/91/37 
f 33/91/37 34/92/37 26/89/37 
f 25/90/37 29/93/38 35/94/38 
f 35/94/38 33/91/37 25/90/37 
f 29/93/38 31/95/37 36/96/37 
f 36/96/37 35/94/38 29/93/38 
f 31/95/37 26/89/37 34/92/37 
f 34/92/37 36/96/37 31/95/37 
s 2
f 34/97/39 33/98/40 10/99/40 
f 10/99/40 9/100/39 34/97/39 
s 8
f 33/101/41 35/102/41 11/103/41 
f 11/103/41 10/104/42 33/101/41 
s 2
f 35/105/43 36/106/43 12/107/43 
f 12/107/43 11/108/43 35/105/43 
s 8
f 36/109/44 34/110/44 9/111/44 
f 9/111/44 12/112/44 36/109/44 
# 68 faces

