# 3ds Max Wavefront OBJ Exporter v0.97b - (c)2007 guruware
# File Created: 10.01.2016 07:15:20

mtllib smasher.mtl

#
# object Object001
#

v  4.1013 1.8739 -11.0568
v  4.5191 0.1670 -11.0697
v  4.4802 0.2270 -20.2530
v  4.0623 1.9339 -20.2400
v  3.0231 3.3510 -20.2264
v  1.5595 4.2024 -11.0308
v  3.0620 3.2910 -11.0431
v  -0.1774 4.4696 -11.0217
v  1.5206 4.2625 -20.2140
v  -0.2163 4.5296 -20.2049
v  -1.9233 4.1117 -20.2004
v  -1.8844 4.0517 -11.0172
v  -3.3404 3.0724 -20.2012
v  -4.2130 1.5099 -11.0239
v  -3.3015 3.0124 -11.0180
v  -4.4802 -0.2270 -11.0342
v  -4.2520 1.5699 -20.2071
v  -4.5191 -0.1670 -20.2174
v  -4.1013 -1.8739 -20.2303
v  -4.0623 -1.9339 -11.0471
v  -3.0620 -3.2910 -20.2440
v  -1.5206 -4.2625 -11.0731
v  -3.0231 -3.3510 -11.0608
v  0.2164 -4.5296 -11.0822
v  -1.5595 -4.2025 -20.2563
v  0.1774 -4.4696 -20.2654
v  1.8844 -4.0517 -20.2699
v  1.9233 -4.1117 -11.0867
v  3.3015 -3.0124 -20.2691
v  3.3404 -3.0724 -11.0859
v  4.2130 -1.5099 -20.2632
v  1.0337 0.0886 -22.0952
v  0.6216 -0.8427 -22.0995
v  -0.1942 -1.0424 -22.0974
v  -1.1119 0.2089 -22.0853
v  -0.9122 -0.6068 -22.0915
v  0.1395 1.1267 -22.0846
v  -0.6763 0.9270 -22.0825
v  4.2326 0.2196 -20.7607
v  3.1182 -2.8431 -20.7760
v  3.9800 -1.4226 -20.7704
v  1.7784 -3.8257 -20.7768
v  0.1645 -4.2208 -20.7725
v  -1.4777 -3.9683 -20.7639
v  -2.8982 -3.1065 -20.7522
v  -3.8808 -1.7667 -20.7393
v  -4.0232 1.4893 -20.7174
v  -4.2758 -0.1529 -20.7271
v  -3.1614 2.9098 -20.7118
v  -1.8216 3.8924 -20.7111
v  -0.2078 4.2875 -20.7153
v  1.4344 4.0349 -20.7239
v  2.8549 3.1732 -20.7356
v  3.8375 1.8334 -20.7485
v  3.9715 -1.4706 -10.5266
v  4.2520 -1.5699 -11.0799
v  4.2208 0.1502 -10.5171
v  3.8309 1.7431 -10.5050
v  2.8611 3.0655 -10.4923
v  -0.1619 4.1653 -10.4723
v  1.4590 3.9161 -10.4808
v  -1.7548 3.7754 -10.4681
v  -3.0773 2.8055 -10.4688
v  -3.9279 1.4034 -10.4743
v  -3.7873 -1.8103 -10.4960
v  -4.1772 -0.2175 -10.4839
v  -1.4154 -3.9833 -10.5202
v  -2.8174 -3.1327 -10.5087
v  0.2055 -4.2326 -10.5287
v  1.7984 -3.8426 -10.5329
v  3.1209 -2.8727 -10.5322
v  1.8240 -0.6334 -21.7070
v  1.4257 -1.2900 -21.7096
v  0.8064 -1.7442 -21.7099
v  0.0604 -1.9269 -21.7080
v  -1.3553 -1.4118 -21.6986
v  -0.6987 -1.8101 -21.7040
v  -1.8095 -0.7925 -21.6926
v  -1.9921 -0.0465 -21.6870
v  -1.4770 1.3691 -21.6799
v  -1.8753 0.7125 -21.6825
v  -0.8577 1.8233 -21.6796
v  0.6474 1.8892 -21.6855
v  -0.1117 2.0060 -21.6815
v  1.7582 0.8716 -21.6969
v  1.3040 1.4909 -21.6909
v  1.9408 0.1256 -21.7025
v  2.1092 0.0526 -9.7410
v  1.9854 -0.7519 -9.7457
v  1.9156 0.8432 -9.7350
v  1.4343 1.4995 -9.7287
v  -0.0661 2.0454 -9.7187
v  0.7384 1.9217 -9.7229
v  -0.8567 1.8519 -9.7166
v  -1.5131 1.3705 -9.7170
v  -1.9353 0.6746 -9.7198
v  -1.8655 -0.9205 -9.7305
v  -2.0591 -0.1299 -9.7245
v  -1.3841 -1.5769 -9.7368
v  0.1163 -2.1227 -9.7467
v  -0.6883 -1.9990 -9.7425
v  0.9069 -1.9292 -9.7488
v  1.5632 -1.4478 -9.7485
v  0.7285 0.8671 -22.0888
v  0.5808 0.8646 -8.7905
v  -0.1327 -1.0961 -8.8003
v  0.7359 0.4638 -7.7771
v  1.0575 0.0003 -8.7982
v  0.1658 0.8097 -7.7725
v  -0.0184 1.0387 -8.7868
v  -0.7300 0.6506 -8.7863
v  -0.8278 0.0810 -7.7730
v  -0.9039 -0.4800 -8.7930
v  -0.6692 -0.5667 -7.7779
v  0.4089 -0.8565 -7.7844
v  -0.0991 -0.9126 -7.7826
v  0.8258 -0.3397 -7.7828
v  0.6581 -0.9025 -8.8024
v  0.7541 0.2595 -4.8146
v  0.1687 0.7272 -4.8090
v  0.2088 0.7425 2.3846
v  -0.4316 0.5802 -4.8074
v  -0.4383 0.5841 2.3863
v  -0.7277 0.2107 -4.8086
v  -0.7839 0.0145 2.3840
v  -0.6623 -0.4011 -4.8129
v  0.0801 -0.8515 -4.8190
v  -0.0559 -0.9781 2.3744
v  0.7362 -0.4896 -4.8194
v  0.8681 -0.4059 2.3743
v  0.0917 -0.1193 2.6617
v  0.7783 0.3970 2.3799
v  -0.6255 -0.6326 2.3791
v  0.4516 -0.9221 2.3726
v  -0.4819 0.6511 -7.7707
# 135 vertices

vn 0.8808 0.4088 0.2391
vn 0.9708 0.0409 0.2363
vn 0.9743 0.0441 -0.2211
vn 0.8837 0.4140 -0.2183
vn 0.6585 0.7211 -0.2153
vn 0.3329 0.9107 0.2447
vn 0.6568 0.7142 0.2420
vn -0.0414 0.9682 0.2466
vn 0.3328 0.9187 -0.2127
vn -0.0436 0.9766 -0.2107
vn -0.4135 0.8860 -0.2097
vn -0.4093 0.8782 0.2476
vn -0.7206 0.6608 -0.2099
vn -0.9112 0.3303 0.2462
vn -0.7147 0.6542 0.2474
vn -0.9688 -0.0440 0.2440
vn -0.9182 0.3352 -0.2112
vn -0.9761 -0.0413 -0.2134
vn -0.8855 -0.4112 -0.2162
vn -0.8787 -0.4119 0.2412
vn -0.6603 -0.7183 -0.2192
vn -0.3309 -0.9138 0.2355
vn -0.6547 -0.7173 0.2382
vn 0.0435 -0.9714 0.2336
vn -0.3347 -0.9158 -0.2218
vn 0.0417 -0.9737 -0.2238
vn 0.4117 -0.8832 -0.2248
vn 0.4114 -0.8813 0.2326
vn 0.7188 -0.6579 -0.2246
vn 0.7168 -0.6573 0.2328
vn 0.9163 -0.3323 -0.2233
vn 0.2276 0.0061 -0.9737
vn 0.1445 -0.1828 -0.9725
vn -0.0408 -0.2322 -0.9718
vn -0.2427 0.0430 -0.9691
vn -0.1988 -0.1364 -0.9705
vn 0.0182 0.2442 -0.9695
vn -0.1469 0.2010 -0.9685
vn 0.7053 0.0356 -0.7080
vn 0.5198 -0.4743 -0.7106
vn 0.6632 -0.2378 -0.7096
vn 0.2967 -0.6379 -0.7107
vn 0.0280 -0.7037 -0.7100
vn -0.2454 -0.6616 -0.7085
vn -0.4819 -0.5181 -0.7066
vn -0.6455 -0.2951 -0.7045
vn -0.6692 0.2470 -0.7008
vn -0.7113 -0.0264 -0.7024
vn -0.5257 0.4835 -0.6999
vn -0.3027 0.6471 -0.6997
vn -0.0340 0.7129 -0.7005
vn 0.2394 0.6708 -0.7019
vn 0.4759 0.5274 -0.7038
vn 0.6395 0.3043 -0.7060
vn 0.6379 -0.2358 0.7331
vn 0.9132 -0.3335 0.2341
vn 0.6780 0.0247 0.7346
vn 0.6153 0.2807 0.7366
vn 0.4595 0.4933 0.7386
vn -0.0264 0.6700 0.7418
vn 0.2341 0.6300 0.7405
vn -0.2824 0.6074 0.7425
vn -0.4950 0.4515 0.7424
vn -0.6317 0.2261 0.7415
vn -0.6091 -0.2904 0.7380
vn -0.6717 -0.0344 0.7400
vn -0.2279 -0.6396 0.7341
vn -0.4532 -0.5029 0.7360
vn 0.0327 -0.6797 0.7328
vn 0.2887 -0.6170 0.7321
vn 0.5012 -0.4611 0.7322
vn 0.3570 -0.1268 -0.9255
vn 0.2884 -0.2562 -0.9226
vn 0.1583 -0.3515 -0.9227
vn 0.0174 -0.3861 -0.9223
vn -0.2661 -0.2863 -0.9205
vn -0.1420 -0.3615 -0.9215
vn -0.3615 -0.1562 -0.9192
vn -0.3960 -0.0153 -0.9181
vn -0.2962 0.2682 -0.9167
vn -0.3714 0.1441 -0.9172
vn -0.1661 0.3636 -0.9166
vn 0.1326 0.3807 -0.9151
vn -0.0252 0.3981 -0.9170
vn 0.3527 0.1694 -0.9203
vn 0.2670 0.3016 -0.9153
vn 0.3868 0.0231 -0.9219
vn 0.4971 0.0159 0.8675
vn 0.4502 -0.1769 0.8752
vn 0.4453 0.2021 0.8723
vn 0.3422 0.3567 0.8693
vn -0.0135 0.4927 0.8701
vn 0.1686 0.4620 0.8707
vn -0.2090 0.4427 0.8720
vn -0.3605 0.3280 0.8732
vn -0.4483 0.1500 0.8812
vn -0.4440 -0.2145 0.8700
vn -0.4743 -0.0185 0.8802
vn -0.3247 -0.3667 0.8718
vn 0.0302 -0.5008 0.8650
vn -0.1704 -0.4700 0.8661
vn 0.2089 -0.4571 0.8645
vn 0.3705 -0.3264 0.8696
vn 0.1686 0.1794 -0.9692
vn 0.5064 0.6792 0.5313
vn -0.1663 -0.8260 0.5386
vn 0.8322 0.5394 0.1282
vn 0.8391 0.0236 0.5435
vn 0.1308 0.9831 0.1283
vn -0.0850 0.8235 0.5610
vn -0.6536 0.5084 0.5606
vn -0.9856 0.1489 0.0797
vn -0.7701 -0.3212 0.5511
vn -0.7939 -0.5990 0.1045
vn 0.4788 -0.8691 0.1244
vn -0.2201 -0.9694 0.1090
vn 0.9461 -0.2986 0.1250
vn 0.5424 -0.6516 0.5303
vn 0.9049 0.4255 0.0077
vn 0.2156 0.9764 0.0119
vn 0.1343 0.8396 0.5263
vn -0.5375 0.8432 0.0142
vn -0.4991 0.6826 0.5338
vn -0.9588 0.2836 0.0140
vn -0.8370 0.1243 0.5328
vn -0.8461 -0.5328 0.0137
vn -0.0044 -1.0000 0.0030
vn -0.1823 -0.8309 0.5256
vn 0.8484 -0.5293 -0.0055
vn 0.8227 -0.2532 0.5090
vn 0.0145 -0.0043 0.9999
vn 0.7219 0.4643 0.5132
vn -0.6830 -0.5099 0.5230
vn 0.4165 -0.7513 0.5120
vn -0.5667 0.8203 0.0772
# 135 vertex normals

vt 0.8998 0.7879 0.0000
vt 0.8838 0.7879 0.0000
vt 0.8838 0.7044 0.0000
vt 0.8997 0.7044 0.0000
vt 0.9156 0.7044 0.0000
vt 0.9318 0.7878 0.0000
vt 0.9158 0.7879 0.0000
vt 0.9478 0.7877 0.0000
vt 0.9316 0.7044 0.0000
vt 0.9475 0.7044 0.0000
vt 0.9633 0.7043 0.0000
vt 0.9638 0.7876 0.0000
vt 0.9792 0.7042 0.0000
vt 0.9957 0.7874 0.0000
vt 0.9797 0.7876 0.0000
vt 0.7554 0.7874 0.0000
vt 0.7394 0.7873 0.0000
vt 0.7400 0.7034 0.0000
vt 0.7561 0.7037 0.0000
vt 0.7721 0.7038 0.0000
vt 0.7715 0.7875 0.0000
vt 0.7880 0.7039 0.0000
vt 0.8036 0.7877 0.0000
vt 0.7875 0.7876 0.0000
vt 0.8196 0.7878 0.0000
vt 0.8040 0.7041 0.0000
vt 0.8200 0.7042 0.0000
vt 0.8360 0.7042 0.0000
vt 0.8357 0.7879 0.0000
vt 0.8519 0.7043 0.0000
vt 0.8517 0.7879 0.0000
vt 0.8679 0.7044 0.0000
vt 0.8101 0.8482 0.0000
vt 0.8164 0.8439 0.0000
vt 0.8203 0.8439 0.0000
vt 0.8266 0.8592 0.0000
vt 0.8239 0.8454 0.0000
vt 0.8266 0.8481 0.0000
vt 0.8129 0.8619 0.0000
vt 0.8239 0.8619 0.0000
vt 0.8838 0.6992 0.0000
vt 0.8520 0.6991 0.0000
vt 0.8679 0.6991 0.0000
vt 0.8360 0.6990 0.0000
vt 0.8200 0.6989 0.0000
vt 0.8041 0.6988 0.0000
vt 0.7881 0.6987 0.0000
vt 0.7721 0.6986 0.0000
vt 0.7406 0.6981 0.0000
vt 0.7561 0.6985 0.0000
vt 0.9791 0.6990 0.0000
vt 0.9946 0.6987 0.0000
vt 0.9952 0.7040 0.0000
vt 0.9633 0.6991 0.0000
vt 0.9474 0.6991 0.0000
vt 0.9315 0.6992 0.0000
vt 0.9156 0.6992 0.0000
vt 0.8997 0.6992 0.0000
vt 0.9859 0.8385 0.0000
vt 0.9918 0.8373 0.0000
vt 0.9918 0.8547 0.0000
vt 0.9859 0.8535 0.0000
vt 0.9852 0.8708 0.0000
vt 0.9802 0.8675 0.0000
vt 0.9729 0.8832 0.0000
vt 0.9696 0.8782 0.0000
vt 0.9569 0.8900 0.0000
vt 0.9405 0.8841 0.0000
vt 0.9557 0.8841 0.0000
vt 0.9265 0.8783 0.0000
vt 0.9393 0.8901 0.0000
vt 0.9158 0.8676 0.0000
vt 0.9231 0.8833 0.0000
vt 0.9108 0.8709 0.0000
vt 0.9042 0.8548 0.0000
vt 0.9101 0.8536 0.0000
vt 0.9042 0.8374 0.0000
vt 0.9158 0.8246 0.0000
vt 0.9101 0.8386 0.0000
vt 0.9109 0.8213 0.0000
vt 0.9231 0.8090 0.0000
vt 0.9403 0.8080 0.0000
vt 0.9264 0.8139 0.0000
vt 0.9391 0.8021 0.0000
vt 0.9567 0.8020 0.0000
vt 0.9555 0.8080 0.0000
vt 0.9729 0.8088 0.0000
vt 0.9695 0.8138 0.0000
vt 0.9852 0.8212 0.0000
vt 0.9802 0.8245 0.0000
vt 0.9303 0.9337 0.0000
vt 0.9094 0.9296 0.0000
vt 0.9153 0.9152 0.0000
vt 0.9330 0.9270 0.0000
vt 0.9263 0.9042 0.0000
vt 0.9381 0.9219 0.0000
vt 0.9406 0.8982 0.0000
vt 0.9448 0.9191 0.0000
vt 0.9561 0.8981 0.0000
vt 0.9587 0.9218 0.0000
vt 0.9520 0.9191 0.0000
vt 0.9638 0.9269 0.0000
vt 0.9705 0.9041 0.0000
vt 0.9666 0.9336 0.0000
vt 0.9815 0.9151 0.0000
vt 0.9874 0.9294 0.0000
vt 0.9874 0.9449 0.0000
vt 0.9638 0.9475 0.0000
vt 0.9665 0.9408 0.0000
vt 0.9815 0.9593 0.0000
vt 0.9706 0.9703 0.0000
vt 0.9587 0.9526 0.0000
vt 0.9563 0.9763 0.0000
vt 0.9448 0.9554 0.0000
vt 0.9521 0.9554 0.0000
vt 0.9407 0.9763 0.0000
vt 0.9263 0.9704 0.0000
vt 0.9330 0.9476 0.0000
vt 0.9381 0.9527 0.0000
vt 0.9303 0.9409 0.0000
vt 0.9154 0.9594 0.0000
vt 0.9659 0.8495 0.0000
vt 0.9659 0.8424 0.0000
vt 0.9632 0.8562 0.0000
vt 0.9582 0.8613 0.0000
vt 0.9445 0.8640 0.0000
vt 0.9516 0.8640 0.0000
vt 0.9379 0.8613 0.0000
vt 0.9328 0.8563 0.0000
vt 0.9301 0.8497 0.0000
vt 0.9328 0.8359 0.0000
vt 0.9300 0.8425 0.0000
vt 0.9378 0.8308 0.0000
vt 0.9515 0.8281 0.0000
vt 0.9444 0.8281 0.0000
vt 0.9581 0.8308 0.0000
vt 0.9632 0.8358 0.0000
vt 0.8129 0.8454 0.0000
vt 0.8043 0.8443 0.0000
vt 0.8150 0.8371 0.0000
vt 0.8217 0.8370 0.0000
vt 0.8278 0.8396 0.0000
vt 0.8325 0.8443 0.0000
vt 0.8281 0.8556 0.0000
vt 0.8281 0.8517 0.0000
vt 0.8350 0.8504 0.0000
vt 0.8325 0.8630 0.0000
vt 0.8278 0.8677 0.0000
vt 0.8217 0.8703 0.0000
vt 0.8203 0.8634 0.0000
vt 0.8151 0.8703 0.0000
vt 0.8101 0.8592 0.0000
vt 0.8089 0.8678 0.0000
vt 0.8043 0.8631 0.0000
vt 0.8018 0.8570 0.0000
vt 0.8168 0.9141 0.0000
vt 0.8109 0.9199 0.0000
vt 0.8038 0.9092 0.0000
vt 0.7873 0.8841 0.0000
vt 0.7950 0.8809 0.0000
vt 0.7975 0.8936 0.0000
vt 0.9094 0.9451 0.0000
vt 0.8678 0.7879 0.0000
vt 0.8732 0.9819 0.0000
vt 0.8737 0.9904 0.0000
vt 0.8698 0.9906 0.0000
vt 0.8658 0.9822 0.0000
vt 0.8660 0.9907 0.0000
vt 0.8621 0.9907 0.0000
vt 0.8621 0.9822 0.0000
vt 0.8583 0.9907 0.0000
vt 0.8510 0.9819 0.0000
vt 0.8506 0.9904 0.0000
vt 0.8467 0.9902 0.0000
vt 0.8399 0.9810 0.0000
vt 0.8390 0.9895 0.0000
vt 0.8352 0.9891 0.0000
vt 0.8880 0.9806 0.0000
vt 0.8917 0.9801 0.0000
vt 0.8928 0.9886 0.0000
vt 0.8843 0.9810 0.0000
vt 0.8852 0.9895 0.0000
vt 0.8814 0.9899 0.0000
vt 0.8074 0.9004 0.0000
vt 0.8200 0.8980 0.0000
vt 0.8200 0.9064 0.0000
vt 0.7947 0.9233 0.0000
vt 0.7974 0.9105 0.0000
vt 0.8007 0.9106 0.0000
vt 0.7869 0.9200 0.0000
vt 0.7943 0.9093 0.0000
vt 0.7812 0.9138 0.0000
vt 0.7920 0.9068 0.0000
vt 0.7782 0.9061 0.0000
vt 0.7908 0.9037 0.0000
vt 0.7782 0.8977 0.0000
vt 0.7908 0.9003 0.0000
vt 0.7815 0.8901 0.0000
vt 0.7921 0.8972 0.0000
vt 0.8035 0.8807 0.0000
vt 0.8009 0.8935 0.0000
vt 0.8113 0.8841 0.0000
vt 0.8040 0.8948 0.0000
vt 0.8171 0.8902 0.0000
vt 0.8063 0.8973 0.0000
vt 0.7465 0.9689 0.0000
vt 0.7465 0.9657 0.0000
vt 0.8108 0.9657 0.0000
vt 0.8108 0.9624 0.0000
vt 0.7465 0.9625 0.0000
vt 0.7465 0.9592 0.0000
vt 0.8108 0.9559 0.0000
vt 0.7465 0.9560 0.0000
vt 0.7465 0.9527 0.0000
vt 0.8108 0.9526 0.0000
vt 0.7465 0.9495 0.0000
vt 0.7464 0.9430 0.0000
vt 0.7464 0.9397 0.0000
vt 0.8108 0.9395 0.0000
vt 0.7464 0.9852 0.0000
vt 0.7465 0.9819 0.0000
vt 0.8108 0.9821 0.0000
vt 0.8108 0.9788 0.0000
vt 0.7465 0.9787 0.0000
vt 0.7465 0.9754 0.0000
vt 0.9494 0.9400 0.0000
vt 0.9566 0.9386 0.0000
vt 0.9566 0.9415 0.0000
vt 0.9555 0.9442 0.0000
vt 0.9534 0.9462 0.0000
vt 0.9507 0.9474 0.0000
vt 0.9478 0.9474 0.0000
vt 0.9451 0.9462 0.0000
vt 0.9431 0.9442 0.0000
vt 0.9420 0.9415 0.0000
vt 0.9420 0.9386 0.0000
vt 0.9431 0.9359 0.0000
vt 0.9451 0.9338 0.0000
vt 0.9478 0.9327 0.0000
vt 0.9508 0.9327 0.0000
vt 0.9534 0.9338 0.0000
vt 0.8523 0.9184 0.0000
vt 0.8268 0.9184 0.0000
vt 0.8268 0.9158 0.0000
vt 0.8523 0.9132 0.0000
vt 0.8268 0.9132 0.0000
vt 0.8268 0.9106 0.0000
vt 0.8268 0.9079 0.0000
vt 0.8268 0.9053 0.0000
vt 0.8523 0.9053 0.0000
vt 0.8268 0.9027 0.0000
vt 0.8268 0.9001 0.0000
vt 0.8523 0.9001 0.0000
vt 0.8268 0.8975 0.0000
vt 0.8268 0.8949 0.0000
vt 0.8523 0.8949 0.0000
vt 0.8268 0.8923 0.0000
vt 0.8268 0.8897 0.0000
vt 0.8523 0.8897 0.0000
vt 0.8523 0.9288 0.0000
vt 0.8268 0.9288 0.0000
vt 0.8268 0.9262 0.0000
vt 0.8523 0.9262 0.0000
vt 0.8268 0.9236 0.0000
vt 0.8086 0.8556 0.0000
vt 0.8018 0.8504 0.0000
vt 0.8089 0.8396 0.0000
vt 0.8350 0.8569 0.0000
vt 0.8164 0.8634 0.0000
vt 0.8086 0.8517 0.0000
vt 0.8062 0.9069 0.0000
vt 0.8032 0.9233 0.0000
vt 0.7944 0.8948 0.0000
vt 0.8436 0.9814 0.0000
vt 0.8473 0.9817 0.0000
vt 0.8429 0.9899 0.0000
vt 0.8890 0.9891 0.0000
vt 0.8769 0.9817 0.0000
vt 0.8775 0.9902 0.0000
vt 0.8695 0.9821 0.0000
vt 0.8584 0.9822 0.0000
vt 0.8547 0.9821 0.0000
vt 0.8544 0.9906 0.0000
vt 0.8362 0.9806 0.0000
vt 0.8075 0.9038 0.0000
vt 0.8108 0.9755 0.0000
vt 0.8108 0.9723 0.0000
vt 0.8108 0.9690 0.0000
vt 0.8108 0.9592 0.0000
vt 0.8108 0.9494 0.0000
vt 0.8108 0.9461 0.0000
vt 0.8108 0.9428 0.0000
vt 0.8108 0.9854 0.0000
vt 0.8108 0.9886 0.0000
vt 0.8523 0.9210 0.0000
vt 0.8523 0.9106 0.0000
vt 0.8523 0.9079 0.0000
vt 0.8523 0.9027 0.0000
vt 0.8523 0.8975 0.0000
vt 0.8523 0.8923 0.0000
vt 0.8523 0.9236 0.0000
# 301 texture coords

g Object001
usemtl table
s 1
f 1/1/1 2/2/2 3/3/3 
f 1/1/1 4/4/4 5/5/5 
f 6/6/6 7/7/7 5/5/5 
f 8/8/8 6/6/6 9/9/9 
f 8/8/8 10/10/10 11/11/11 
f 12/12/12 11/11/11 13/13/13 
f 14/14/14 15/15/15 13/13/13 
f 16/16/16 14/17/14 17/18/17 
f 16/16/16 18/19/18 19/20/19 
f 20/21/20 19/20/19 21/22/21 
f 22/23/22 23/24/23 21/22/21 
f 24/25/24 22/23/22 25/26/25 
f 24/25/24 26/27/26 27/28/27 
f 28/29/28 27/28/27 29/30/29 
f 30/31/30 29/30/29 31/32/31 
f 32/33/32 33/34/33 34/35/34 
f 35/36/35 34/37/34 36/38/36 
f 37/39/37 35/36/35 38/40/38 
f 35/36/35 37/39/37 32/33/32 
f 39/41/39 3/3/3 31/32/31 
f 40/42/40 41/43/41 31/32/31 
f 42/44/42 40/42/40 29/30/29 
f 43/45/43 42/44/42 27/28/27 
f 44/46/44 43/45/43 26/27/26 
f 45/47/45 44/46/44 25/26/25 
f 46/48/46 45/47/45 21/22/21 
f 46/48/46 19/20/19 18/19/18 
f 47/49/47 48/50/48 18/19/18 
f 49/51/49 47/52/47 17/53/17 
f 49/51/49 13/13/13 11/11/11 
f 50/54/50 11/11/11 10/10/10 
f 51/55/51 10/10/10 9/9/9 
f 52/56/52 9/9/9 5/5/5 
f 53/57/53 5/5/5 4/4/4 
f 54/58/54 4/4/4 3/3/3 
f 55/59/55 56/60/56 2/61/2 
f 57/62/57 2/61/2 1/63/1 
f 58/64/58 1/63/1 7/65/7 
f 59/66/59 7/65/7 6/67/6 
f 60/68/60 61/69/61 6/67/6 
f 62/70/62 60/68/60 8/71/8 
f 63/72/63 62/70/62 12/73/12 
f 63/72/63 15/74/15 14/75/14 
f 64/76/64 14/75/14 16/77/16 
f 65/78/65 66/79/66 16/77/16 
f 65/78/65 20/80/20 23/81/23 
f 67/82/67 68/83/68 23/81/23 
f 67/82/67 22/84/22 24/85/24 
f 69/86/69 24/85/24 28/87/28 
f 70/88/70 28/87/28 30/89/30 
f 71/90/71 30/89/30 56/60/56 
f 72/91/72 41/92/41 40/93/40 
f 73/94/73 40/93/40 42/95/42 
f 74/96/74 42/95/42 43/97/43 
f 75/98/75 43/97/43 44/99/44 
f 76/100/76 77/101/77 44/99/44 
f 78/102/78 76/100/76 45/103/45 
f 79/104/79 78/102/78 46/105/46 
f 79/104/79 48/106/48 47/107/47 
f 80/108/80 81/109/81 47/107/47 
f 80/108/80 49/110/49 50/111/50 
f 82/112/82 50/111/50 51/113/51 
f 83/114/83 84/115/84 51/113/51 
f 83/114/83 52/116/52 53/117/53 
f 85/118/85 86/119/86 53/117/53 
f 87/120/87 85/118/85 54/121/54 
f 88/122/88 89/123/89 55/59/55 
f 90/124/90 88/122/88 57/62/57 
f 90/124/90 58/64/58 59/66/59 
f 91/125/91 59/66/59 61/69/61 
f 92/126/92 93/127/93 61/69/61 
f 94/128/94 92/126/92 60/68/60 
f 95/129/95 94/128/94 62/70/62 
f 96/130/96 95/129/95 63/72/63 
f 96/130/96 64/76/64 66/79/66 
f 97/131/97 98/132/98 66/79/66 
f 97/131/97 65/78/65 68/83/68 
f 99/133/99 68/83/68 67/82/67 
f 100/134/100 101/135/101 67/82/67 
f 100/134/100 69/86/69 70/88/70 
f 102/136/102 70/88/70 71/90/71 
f 103/137/103 71/90/71 55/59/55 
f 33/138/33 32/33/32 72/139/72 
f 33/34/33 74/140/74 75/141/75 
f 34/37/34 77/142/77 76/143/76 
f 35/144/35 36/145/36 78/146/78 
f 35/36/35 81/147/81 80/148/80 
f 38/40/38 80/148/80 82/149/82 
f 38/150/38 82/149/82 84/151/84 
f 104/152/104 37/39/37 83/153/83 
f 104/152/104 86/154/86 85/155/85 
f 90/156/90 91/157/91 105/158/105 
f 99/159/99 101/160/101 106/161/106 
f 87/120/87 39/162/39 41/92/41 
f 56/163/56 31/32/31 3/3/3 
f 107/164/107 108/165/108 105/166/105 
f 109/167/109 105/168/105 110/169/110 
f 109/170/109 110/169/110 111/171/111 
f 112/172/112 111/173/111 113/174/113 
f 114/175/114 113/176/113 106/177/106 
f 115/178/115 116/179/116 106/180/106 
f 117/181/117 118/182/118 108/183/108 
f 108/184/108 89/185/89 88/186/88 
f 92/187/92 110/188/110 105/189/105 
f 94/190/94 111/191/111 110/188/110 
f 94/190/94 95/192/95 111/193/111 
f 95/192/95 96/194/96 111/195/111 
f 98/196/98 113/197/113 111/195/111 
f 98/196/98 97/198/97 113/199/113 
f 101/160/101 100/200/100 106/201/106 
f 100/200/100 102/202/102 118/203/118 
f 102/202/102 103/204/103 118/205/118 
f 103/204/103 89/185/89 108/184/108 
f 119/206/119 120/207/120 121/208/121 
f 121/209/121 120/210/120 122/211/122 
f 123/212/123 122/213/122 124/214/124 
f 125/215/125 124/214/124 126/216/126 
f 126/217/126 127/218/127 128/219/128 
f 127/220/127 129/221/129 130/222/130 
f 130/223/130 129/224/129 119/225/119 
f 131/226/131 130/227/130 132/228/132 
f 131/226/131 132/229/132 121/230/121 
f 131/226/131 121/231/121 123/232/123 
f 131/226/131 123/233/123 125/234/125 
f 131/226/131 125/235/125 133/236/133 
f 131/226/131 133/237/133 128/238/128 
f 131/226/131 128/239/128 134/240/134 
f 131/226/131 134/240/134 130/241/130 
f 119/242/119 117/243/117 107/244/107 
f 119/245/119 107/246/107 109/247/109 
f 109/248/109 135/249/135 122/250/122 
f 135/251/135 112/252/112 124/253/124 
f 112/254/112 114/255/114 126/256/126 
f 114/257/114 116/258/116 127/259/127 
f 127/260/127 116/261/116 115/262/115 
f 127/263/127 115/262/115 117/264/117 
f 4/4/4 1/1/1 3/3/3 
f 7/7/7 1/1/1 5/5/5 
f 9/9/9 6/6/6 5/5/5 
f 10/10/10 8/8/8 9/9/9 
f 12/12/12 8/8/8 11/11/11 
f 15/15/15 12/12/12 13/13/13 
f 17/53/17 14/14/14 13/13/13 
f 18/19/18 16/16/16 17/18/17 
f 20/21/20 16/16/16 19/20/19 
f 23/24/23 20/21/20 21/22/21 
f 25/26/25 22/23/22 21/22/21 
f 26/27/26 24/25/24 25/26/25 
f 28/29/28 24/25/24 27/28/27 
f 30/31/30 28/29/28 29/30/29 
f 56/163/56 30/31/30 31/32/31 
f 104/152/104 32/265/32 37/39/37 
f 34/37/34 35/36/35 32/33/32 
f 41/43/41 39/41/39 31/32/31 
f 29/30/29 40/42/40 31/32/31 
f 27/28/27 42/44/42 29/30/29 
f 26/27/26 43/45/43 27/28/27 
f 25/26/25 44/46/44 26/27/26 
f 21/22/21 45/47/45 25/26/25 
f 19/20/19 46/48/46 21/22/21 
f 48/50/48 46/48/46 18/19/18 
f 17/18/17 47/49/47 18/19/18 
f 13/13/13 49/51/49 17/53/17 
f 50/54/50 49/51/49 11/11/11 
f 51/55/51 50/54/50 10/10/10 
f 52/56/52 51/55/51 9/9/9 
f 53/57/53 52/56/52 5/5/5 
f 54/58/54 53/57/53 4/4/4 
f 39/41/39 54/58/54 3/3/3 
f 57/62/57 55/59/55 2/61/2 
f 58/64/58 57/62/57 1/63/1 
f 59/66/59 58/64/58 7/65/7 
f 61/69/61 59/66/59 6/67/6 
f 8/71/8 60/68/60 6/67/6 
f 12/73/12 62/70/62 8/71/8 
f 15/74/15 63/72/63 12/73/12 
f 64/76/64 63/72/63 14/75/14 
f 66/79/66 64/76/64 16/77/16 
f 20/80/20 65/78/65 16/77/16 
f 68/83/68 65/78/65 23/81/23 
f 22/84/22 67/82/67 23/81/23 
f 69/86/69 67/82/67 24/85/24 
f 70/88/70 69/86/69 28/87/28 
f 71/90/71 70/88/70 30/89/30 
f 55/59/55 71/90/71 56/60/56 
f 73/94/73 72/91/72 40/93/40 
f 74/96/74 73/94/73 42/95/42 
f 75/98/75 74/96/74 43/97/43 
f 77/101/77 75/98/75 44/99/44 
f 45/103/45 76/100/76 44/99/44 
f 46/105/46 78/102/78 45/103/45 
f 48/106/48 79/104/79 46/105/46 
f 81/109/81 79/104/79 47/107/47 
f 49/110/49 80/108/80 47/107/47 
f 82/112/82 80/108/80 50/111/50 
f 84/115/84 82/112/82 51/113/51 
f 52/116/52 83/114/83 51/113/51 
f 86/119/86 83/114/83 53/117/53 
f 54/121/54 85/118/85 53/117/53 
f 39/162/39 87/120/87 54/121/54 
f 57/62/57 88/122/88 55/59/55 
f 58/64/58 90/124/90 57/62/57 
f 91/125/91 90/124/90 59/66/59 
f 93/127/93 91/125/91 61/69/61 
f 60/68/60 92/126/92 61/69/61 
f 62/70/62 94/128/94 60/68/60 
f 63/72/63 95/129/95 62/70/62 
f 64/76/64 96/130/96 63/72/63 
f 98/132/98 96/130/96 66/79/66 
f 65/78/65 97/131/97 66/79/66 
f 99/133/99 97/131/97 68/83/68 
f 101/135/101 99/133/99 67/82/67 
f 69/86/69 100/134/100 67/82/67 
f 102/136/102 100/134/100 70/88/70 
f 103/137/103 102/136/102 71/90/71 
f 89/123/89 103/137/103 55/59/55 
f 72/139/72 32/33/32 87/266/87 
f 73/267/73 33/138/33 72/139/72 
f 74/140/74 33/34/33 73/267/73 
f 34/35/34 33/34/33 75/141/75 
f 77/142/77 34/37/34 75/141/75 
f 36/38/36 34/37/34 76/143/76 
f 78/146/78 36/145/36 76/143/76 
f 79/268/79 35/144/35 78/146/78 
f 81/147/81 35/36/35 79/268/79 
f 38/40/38 35/36/35 80/148/80 
f 37/269/37 38/150/38 84/151/84 
f 83/153/83 37/39/37 84/151/84 
f 86/154/86 104/152/104 83/153/83 
f 32/265/32 104/152/104 85/155/85 
f 87/266/87 32/270/32 85/155/85 
f 108/271/108 90/156/90 105/158/105 
f 91/157/91 93/272/93 105/158/105 
f 97/198/97 99/159/99 113/199/113 
f 113/273/113 99/159/99 106/161/106 
f 114/274/114 112/275/112 113/276/113 
f 115/178/115 118/277/118 117/181/117 
f 72/91/72 87/120/87 41/92/41 
f 2/2/2 56/163/56 3/3/3 
f 117/278/117 108/279/108 107/164/107 
f 107/280/107 105/166/105 109/167/109 
f 135/281/135 109/170/109 111/171/111 
f 135/282/135 111/283/111 112/172/112 
f 116/284/116 114/175/114 106/177/106 
f 118/277/118 115/178/115 106/180/106 
f 88/186/88 90/156/90 108/285/108 
f 93/272/93 92/187/92 105/189/105 
f 92/187/92 94/190/94 110/188/110 
f 96/194/96 98/196/98 111/195/111 
f 106/201/106 100/200/100 118/203/118 
f 118/205/118 103/204/103 108/184/108 
f 130/286/130 119/225/119 132/287/132 
f 132/288/132 119/206/119 121/208/121 
f 123/289/123 121/209/121 122/211/122 
f 125/215/125 123/212/123 124/214/124 
f 125/290/125 126/216/126 133/291/133 
f 133/292/133 126/217/126 128/219/128 
f 134/293/134 128/294/128 127/220/127 
f 134/293/134 127/220/127 130/222/130 
f 119/242/119 129/295/129 117/243/117 
f 120/296/120 119/245/119 109/247/109 
f 120/297/120 109/248/109 122/250/122 
f 122/298/122 135/251/135 124/253/124 
f 126/299/126 124/253/124 112/254/112 
f 126/300/126 114/257/114 127/259/127 
f 129/301/129 127/263/127 117/264/117 
# 266 faces

