# 3ds Max Wavefront OBJ Exporter v0.97b - (c)2007 guruware
# File Created: 12.02.2016 04:16:23

mtllib bit.mtl

#
# object GeoSphere008
#

v  0.0000 6.5986 -0.0000
v  3.2993 5.7145 -0.0000
v  0.0000 5.7145 -3.2993
v  5.7145 3.2993 -0.0000
v  3.6142 4.1733 -3.6142
v  0.0000 3.2993 -5.7145
v  6.5986 0.0000 -0.0000
v  5.7145 0.0000 -3.2993
v  3.2993 0.0000 -5.7145
v  0.0000 0.0000 -6.5986
v  -3.2993 5.7145 -0.0000
v  -3.6142 4.1733 -3.6142
v  -5.7145 3.2993 -0.0000
v  -3.2993 0.0000 -5.7145
v  -5.7145 0.0000 -3.2993
v  -6.5986 0.0000 -0.0000
v  0.0000 5.7145 3.2993
v  -3.6142 4.1733 3.6142
v  0.0000 3.2993 5.7145
v  -5.7145 0.0000 3.2993
v  -3.2993 0.0000 5.7145
v  0.0000 0.0000 6.5986
v  3.6142 4.1733 3.6142
v  3.2993 0.0000 5.7145
v  5.7145 0.0000 3.2993
v  0.0000 -6.5986 -0.0000
v  0.0000 -5.7145 -3.2993
v  3.2993 -5.7145 -0.0000
v  0.0000 -3.2993 -5.7145
v  3.6142 -4.1733 -3.6142
v  5.7145 -3.2993 -0.0000
v  -3.2993 -5.7145 -0.0000
v  -5.7145 -3.2993 -0.0000
v  -3.6142 -4.1733 -3.6142
v  0.0000 -5.7145 3.2993
v  0.0000 -3.2993 5.7145
v  -3.6142 -4.1733 3.6142
v  3.6142 -4.1733 3.6142
# 38 vertices

vn 0.0000 1.0000 -0.0000
vn 0.4917 0.8708 0.0000
vn 0.0000 0.8708 -0.4917
vn 0.8707 0.4917 0.0000
vn 0.5593 0.6118 -0.5593
vn 0.0000 0.4917 -0.8707
vn 1.0000 -0.0000 -0.0000
vn 0.8630 0.0000 -0.5052
vn 0.5052 0.0000 -0.8630
vn 0.0000 -0.0000 -1.0000
vn -0.4917 0.8708 -0.0000
vn -0.5593 0.6118 -0.5593
vn -0.8707 0.4917 -0.0000
vn -0.5052 0.0000 -0.8630
vn -0.8630 0.0000 -0.5052
vn -1.0000 -0.0000 -0.0000
vn -0.0000 0.8708 0.4917
vn -0.5593 0.6118 0.5593
vn -0.0000 0.4917 0.8707
vn -0.8630 0.0000 0.5052
vn -0.5052 0.0000 0.8630
vn 0.0000 -0.0000 1.0000
vn 0.5593 0.6118 0.5593
vn 0.5052 0.0000 0.8630
vn 0.8630 0.0000 0.5052
vn 0.0000 -1.0000 -0.0000
vn -0.0000 -0.8708 -0.4917
vn 0.4917 -0.8708 -0.0000
vn -0.0000 -0.4917 -0.8707
vn 0.5593 -0.6118 -0.5593
vn 0.8707 -0.4917 -0.0000
vn -0.4917 -0.8708 0.0000
vn -0.8707 -0.4917 0.0000
vn -0.5593 -0.6118 -0.5593
vn 0.0000 -0.8708 0.4917
vn 0.0000 -0.4917 0.8707
vn -0.5593 -0.6118 0.5593
vn 0.5593 -0.6118 0.5593
# 38 vertex normals

vt 0.3421 0.3570 0.0000
vt 0.2574 0.3570 0.0000
vt 0.3421 0.2723 0.0000
vt 0.9262 0.6115 0.0000
vt 0.8778 0.6862 0.0000
vt 0.8264 0.5875 0.0000
vt 0.2493 0.2642 0.0000
vt 0.8773 0.5073 0.0000
vt 0.7930 0.5056 0.0000
vt 0.5134 0.1142 0.0000
vt 0.5994 0.1142 0.0000
vt 0.5994 0.2002 0.0000
vt 0.4906 0.2084 0.0000
vt 0.7626 0.6839 0.0000
vt 0.7268 0.6076 0.0000
vt 0.7624 0.0200 0.0000
vt 0.8711 0.0282 0.0000
vt 0.7851 0.1142 0.0000
vt 0.8711 0.1142 0.0000
vt 0.4268 0.3570 0.0000
vt 0.6729 0.6126 0.0000
vt 0.6243 0.6875 0.0000
vt 0.5728 0.5885 0.0000
vt 0.4349 0.2642 0.0000
vt 0.6239 0.5081 0.0000
vt 0.5393 0.5064 0.0000
vt 0.8711 0.2002 0.0000
vt 0.7624 0.2084 0.0000
vt 0.5089 0.6852 0.0000
vt 0.4729 0.6087 0.0000
vt 0.4906 0.2628 0.0000
vt 0.5994 0.2710 0.0000
vt 0.5134 0.3570 0.0000
vt 0.5994 0.3570 0.0000
vt 0.3421 0.4417 0.0000
vt 0.6729 0.8487 0.0000
vt 0.6243 0.9235 0.0000
vt 0.5728 0.8245 0.0000
vt 0.4349 0.4498 0.0000
vt 0.6239 0.7441 0.0000
vt 0.5393 0.7424 0.0000
vt 0.5994 0.4430 0.0000
vt 0.4906 0.4512 0.0000
vt 0.5089 0.9213 0.0000
vt 0.4729 0.8447 0.0000
vt 0.7624 0.2628 0.0000
vt 0.8711 0.2710 0.0000
vt 0.7851 0.3570 0.0000
vt 0.8711 0.3570 0.0000
vt 0.2161 0.8488 0.0000
vt 0.1684 0.9222 0.0000
vt 0.1179 0.8251 0.0000
vt 0.2493 0.4498 0.0000
vt 0.9800 0.6872 0.0000
vt 0.8711 0.4430 0.0000
vt 0.7624 0.4512 0.0000
vt 0.0552 0.9200 0.0000
vt 0.0200 0.8449 0.0000
vt 0.4906 0.0200 0.0000
vt 0.5994 0.0282 0.0000
vt 0.3246 0.8291 0.0000
vt 0.3246 0.9138 0.0000
vt 0.2400 0.8291 0.0000
vt 0.7806 0.8174 0.0000
vt 0.8291 0.7427 0.0000
vt 0.8805 0.8414 0.0000
vt 0.2319 0.9219 0.0000
vt 0.8295 0.9216 0.0000
vt 0.9138 0.9233 0.0000
vt 0.9571 0.1142 0.0000
vt 0.9799 0.0200 0.0000
vt 0.9442 0.7450 0.0000
vt 0.9800 0.8213 0.0000
vt 0.7082 0.2084 0.0000
vt 0.6854 0.1142 0.0000
vt 0.4093 0.8291 0.0000
vt 0.2207 0.6625 0.0000
vt 0.2684 0.5890 0.0000
vt 0.3191 0.6863 0.0000
vt 0.4174 0.9219 0.0000
vt 0.7268 0.7417 0.0000
vt 0.6854 0.3570 0.0000
vt 0.7082 0.2628 0.0000
vt 0.3819 0.5912 0.0000
vt 0.4172 0.6664 0.0000
vt 0.9799 0.2084 0.0000
vt 0.3246 0.7444 0.0000
vt 0.2381 0.2254 0.0000
vt 0.2859 0.1518 0.0000
vt 0.3366 0.2491 0.0000
vt 0.4174 0.7363 0.0000
vt 0.1677 0.5879 0.0000
vt 0.9571 0.3570 0.0000
vt 0.9799 0.2628 0.0000
vt 0.3994 0.1540 0.0000
vt 0.4347 0.2292 0.0000
vt 0.7082 0.4512 0.0000
vt 0.0375 0.4264 0.0000
vt 0.0851 0.3530 0.0000
vt 0.1357 0.4501 0.0000
vt 0.2319 0.7363 0.0000
vt 0.1851 0.1508 0.0000
vt 0.7082 0.0200 0.0000
vt 0.1983 0.3552 0.0000
vt 0.2336 0.4303 0.0000
vt 0.9799 0.4512 0.0000
# 106 texture coords

g GeoSphere008
usemtl wire_135006006
s 1
f 1/1/1 2/2/2 3/3/3 
f 2/4/2 4/5/4 5/6/5 
f 2/2/2 5/7/5 3/3/3 
f 3/8/3 5/6/5 6/9/6 
f 4/10/4 7/11/7 8/12/8 
f 4/10/4 8/12/8 5/13/5 
f 5/6/5 8/14/8 9/15/9 
f 5/16/5 9/17/9 6/18/6 
f 6/18/6 9/17/9 10/19/10 
f 1/1/1 3/3/3 11/20/11 
f 3/21/3 6/22/6 12/23/12 
f 3/3/3 12/24/12 11/20/11 
f 11/25/11 12/23/12 13/26/13 
f 6/18/6 10/19/10 14/27/14 
f 6/18/6 14/27/14 12/28/12 
f 12/23/12 14/29/14 15/30/15 
f 12/31/12 15/32/15 13/33/13 
f 13/33/13 15/32/15 16/34/16 
f 1/1/1 11/20/11 17/35/17 
f 11/36/11 13/37/13 18/38/18 
f 11/20/11 18/39/18 17/35/17 
f 17/40/17 18/38/18 19/41/19 
f 13/33/13 16/34/16 20/42/20 
f 13/33/13 20/42/20 18/43/18 
f 18/38/18 20/44/20 21/45/21 
f 18/46/18 21/47/21 19/48/19 
f 19/48/19 21/47/21 22/49/22 
f 1/1/1 17/35/17 2/2/2 
f 17/50/17 19/51/19 23/52/23 
f 17/35/17 23/53/23 2/2/2 
f 2/4/2 23/54/23 4/5/4 
f 19/48/19 22/49/22 24/55/24 
f 19/48/19 24/55/24 23/56/23 
f 23/52/23 24/57/24 25/58/25 
f 23/59/23 25/60/25 4/10/4 
f 4/10/4 25/60/25 7/11/7 
f 26/61/26 27/62/27 28/63/28 
f 27/64/27 29/65/29 30/66/30 
f 27/62/27 30/67/30 28/63/28 
f 28/68/28 30/66/30 31/69/31 
f 29/70/29 10/19/10 9/17/9 
f 29/70/29 9/17/9 30/71/30 
f 30/66/30 9/72/9 8/73/8 
f 30/74/30 8/12/8 31/75/31 
f 31/75/31 8/12/8 7/11/7 
f 26/61/26 32/76/32 27/62/27 
f 32/77/32 33/78/33 34/79/34 
f 32/76/32 34/80/34 27/62/27 
f 27/64/27 34/81/34 29/65/29 
f 33/82/33 16/34/16 15/32/15 
f 33/82/33 15/32/15 34/83/34 
f 34/79/34 15/84/15 14/85/14 
f 34/86/34 14/27/14 29/70/29 
f 29/70/29 14/27/14 10/19/10 
f 26/61/26 35/87/35 32/76/32 
f 35/88/35 36/89/36 37/90/37 
f 35/87/35 37/91/37 32/76/32 
f 32/77/32 37/92/37 33/78/33 
f 36/93/36 22/49/22 21/47/21 
f 36/93/36 21/47/21 37/94/37 
f 37/90/37 21/95/21 20/96/20 
f 37/97/37 20/42/20 33/82/33 
f 33/82/33 20/42/20 16/34/16 
f 26/61/26 28/63/28 35/87/35 
f 28/98/28 31/99/31 38/100/38 
f 28/63/28 38/101/38 35/87/35 
f 35/88/35 38/102/38 36/89/36 
f 31/75/31 7/11/7 25/60/25 
f 31/75/31 25/60/25 38/103/38 
f 38/100/38 25/104/25 24/105/24 
f 38/106/38 24/55/24 36/93/36 
f 36/93/36 24/55/24 22/49/22 
# 72 faces

