# 3ds Max Wavefront OBJ Exporter v0.97b - (c)2007 guruware
# File Created: 17.02.2017 15:13:27

mtllib beak.mtl

#
# object Pyramid170
#

v  -0.7357 -8.3575 33.6295
v  4.0186 -11.4987 19.4226
v  4.0186 -5.2162 19.4226
v  -5.4900 -5.2162 19.4226
v  -5.4900 -11.4987 19.4226
v  -0.7357 -8.3575 19.4226
# 6 vertices

vn 0.9483 -0.0000 0.3174
vn 0.0000 0.9764 0.2159
vn -0.9483 0.0000 0.3174
vn -0.0000 -0.9764 0.2159
vn -0.0000 0.0000 -1.0000
# 5 vertex normals

vt 7.2966 33.0002 0.0000
vt 0.0000 0.0000 0.0000
vt 14.5933 0.0000 0.0000
vt 11.0435 33.0002 0.0000
vt 3.7469 0.0000 0.0000
vt 25.8338 0.0000 0.0000
vt 0.0000 22.0870 0.0000
vt 7.2966 11.0435 0.0000
vt 14.5933 22.0870 0.0000
# 9 texture coords

g Pyramid170
usemtl wire_177148027
s 4
f 1/1/1 2/2/1 3/3/1 
s 2
f 1/4/2 3/5/2 4/6/2 
s 16
f 1/1/3 4/2/3 5/3/3 
s 32
f 1/4/4 5/5/4 2/6/4 
s 8
f 2/7/5 6/8/5 3/9/5 
f 3/9/5 6/8/5 4/3/5 
f 4/3/5 6/8/5 5/2/5 
f 5/2/5 6/8/5 2/7/5 
# 8 faces

