# 3ds Max Wavefront OBJ Exporter v0.97b - (c)2007 guruware
# File Created: 17.02.2017 19:01:14

mtllib beeEyes.mtl

#
# object GeoSphere025
#

v  -4.5629 13.8379 4.8075
v  -2.7198 13.8379 4.0440
v  -4.5629 15.6810 4.0440
v  -1.9564 13.8379 2.2010
v  -2.7198 15.6810 2.2010
v  -4.5629 16.4445 2.2010
v  -6.4060 13.8379 4.0440
v  -6.4060 15.6810 2.2010
v  -7.1694 13.8379 2.2010
v  -4.5629 11.9949 4.0440
v  -6.4060 11.9949 2.2010
v  -4.5629 11.2314 2.2010
v  -2.7198 11.9949 2.2010
v  -4.5629 13.8379 -0.4056
v  -4.5629 15.6810 0.3579
v  -2.7198 13.8379 0.3579
v  -6.4060 13.8379 0.3579
v  -4.5629 11.9949 0.3579
v  5.3478 13.8379 4.8075
v  7.1909 13.8379 4.0440
v  5.3478 15.6810 4.0440
v  7.9543 13.8379 2.2010
v  7.1909 15.6810 2.2010
v  5.3478 16.4445 2.2010
v  3.5047 13.8379 4.0440
v  3.5047 15.6810 2.2010
v  2.7413 13.8379 2.2010
v  5.3478 11.9949 4.0440
v  3.5047 11.9949 2.2010
v  5.3478 11.2314 2.2010
v  7.1909 11.9949 2.2010
v  5.3478 13.8379 -0.4056
v  5.3478 15.6810 0.3579
v  7.1909 13.8379 0.3579
v  3.5047 13.8379 0.3579
v  5.3478 11.9949 0.3579
# 36 vertices

vn 0.0000 -0.0000 1.0000
vn 0.7071 -0.0000 0.7071
vn 0.0000 0.7071 0.7071
vn 1.0000 0.0000 -0.0000
vn 0.7071 0.7071 0.0000
vn 0.0000 1.0000 0.0000
vn -0.7071 -0.0000 0.7071
vn -0.7071 0.7071 0.0000
vn -1.0000 0.0000 -0.0000
vn -0.0000 -0.7071 0.7071
vn -0.7071 -0.7071 -0.0000
vn 0.0000 -1.0000 -0.0000
vn 0.7071 -0.7071 -0.0000
vn 0.0000 0.0000 -1.0000
vn 0.0000 0.7071 -0.7071
vn 0.7071 0.0000 -0.7071
vn -0.7071 0.0000 -0.7071
vn -0.0000 -0.7071 -0.7071
vn -0.0000 -0.0000 1.0000
vn -0.0000 0.7071 0.7071
vn 1.0000 -0.0000 0.0000
vn -0.0000 1.0000 0.0000
vn -0.0000 -1.0000 -0.0000
vn -0.0000 0.0000 -1.0000
vn -0.0000 0.7071 -0.7071
# 25 vertex normals

vt 14.3904 11.5124 3.6645
vt 11.5124 8.6343 3.6645
vt 17.2685 8.6343 3.6645
vt 11.5124 5.7562 3.6645
vt 14.3904 5.7562 3.6645
vt 17.2685 5.7562 3.6645
vt 20.1466 11.5124 3.6645
vt 23.0247 8.6343 3.6645
vt 20.1466 5.7562 3.6645
vt 23.0247 5.7562 3.6645
vt 2.8781 11.5124 3.6645
vt 0.0000 8.6343 3.6645
vt 5.7562 8.6343 3.6645
vt 0.0000 5.7562 3.6645
vt 2.8781 5.7562 3.6645
vt 5.7562 5.7562 3.6645
vt 8.6343 11.5124 3.6645
vt 8.6343 5.7562 3.6645
vt 14.3904 0.0000 3.6645
vt 17.2685 2.8781 3.6645
vt 11.5124 2.8781 3.6645
vt 20.1466 0.0000 3.6645
vt 23.0247 2.8781 3.6645
vt 2.8781 0.0000 3.6645
vt 5.7562 2.8781 3.6645
vt 0.0000 2.8781 3.6645
vt 8.6343 0.0000 3.6645
# 27 texture coords

g GeoSphere025
usemtl wire_069000000
s 1
f 1/1/1 2/2/2 3/3/3 
f 2/2/2 4/4/4 5/5/5 
f 2/2/2 5/5/5 3/3/3 
f 3/3/3 5/5/5 6/6/6 
f 1/7/1 3/3/3 7/8/7 
f 3/3/3 6/6/6 8/9/8 
f 3/3/3 8/9/8 7/8/7 
f 7/8/7 8/9/8 9/10/9 
f 1/11/1 7/12/7 10/13/10 
f 7/12/7 9/14/9 11/15/11 
f 7/12/7 11/15/11 10/13/10 
f 10/13/10 11/15/11 12/16/12 
f 1/17/1 10/13/10 2/2/2 
f 10/13/10 12/16/12 13/18/13 
f 10/13/10 13/18/13 2/2/2 
f 2/2/2 13/18/13 4/4/4 
f 14/19/14 15/20/15 16/21/16 
f 15/20/15 6/6/6 5/5/5 
f 15/20/15 5/5/5 16/21/16 
f 16/21/16 5/5/5 4/4/4 
f 14/22/14 17/23/17 15/20/15 
f 17/23/17 9/10/9 8/9/8 
f 17/23/17 8/9/8 15/20/15 
f 15/20/15 8/9/8 6/6/6 
f 14/24/14 18/25/18 17/26/17 
f 18/25/18 12/16/12 11/15/11 
f 18/25/18 11/15/11 17/26/17 
f 17/26/17 11/15/11 9/14/9 
f 14/27/14 16/21/16 18/25/18 
f 16/21/16 4/4/4 13/18/13 
f 16/21/16 13/18/13 18/25/18 
f 18/25/18 13/18/13 12/16/12 
f 19/1/19 20/2/2 21/3/20 
f 20/2/2 22/4/21 23/5/5 
f 20/2/2 23/5/5 21/3/20 
f 21/3/20 23/5/5 24/6/22 
f 19/7/19 21/3/20 25/8/7 
f 21/3/20 24/6/22 26/9/8 
f 21/3/20 26/9/8 25/8/7 
f 25/8/7 26/9/8 27/10/9 
f 19/11/19 25/12/7 28/13/10 
f 25/12/7 27/14/9 29/15/11 
f 25/12/7 29/15/11 28/13/10 
f 28/13/10 29/15/11 30/16/23 
f 19/17/19 28/13/10 20/2/2 
f 28/13/10 30/16/23 31/18/13 
f 28/13/10 31/18/13 20/2/2 
f 20/2/2 31/18/13 22/4/21 
f 32/19/24 33/20/25 34/21/16 
f 33/20/25 24/6/22 23/5/5 
f 33/20/25 23/5/5 34/21/16 
f 34/21/16 23/5/5 22/4/21 
f 32/22/24 35/23/17 33/20/25 
f 35/23/17 27/10/9 26/9/8 
f 35/23/17 26/9/8 33/20/25 
f 33/20/25 26/9/8 24/6/22 
f 32/24/24 36/25/18 35/26/17 
f 36/25/18 30/16/23 29/15/11 
f 36/25/18 29/15/11 35/26/17 
f 35/26/17 29/15/11 27/14/9 
f 32/27/24 34/21/16 36/25/18 
f 34/21/16 22/4/21 31/18/13 
f 34/21/16 31/18/13 36/25/18 
f 36/25/18 31/18/13 30/16/23 
# 64 faces

