# 3ds Max Wavefront OBJ Exporter v0.97b - (c)2007 guruware
# File Created: 17.02.2017 19:01:05

mtllib beeYellow.mtl

#
# object Object002
#

v  0.4241 9.1653 -5.0726
v  -2.0103 9.1740 -4.3248
v  -2.5103 9.1843 -3.4295
v  -2.0103 9.1946 -2.5342
v  0.4241 9.2032 -1.7864
v  2.8584 9.1946 -2.5342
v  3.3585 9.1843 -3.4295
v  2.8584 9.1740 -4.3248
v  2.3773 -11.6923 4.1540
v  3.1863 -12.8126 2.5541
v  5.3366 -11.7848 1.8344
v  3.8978 -9.7923 4.6799
v  2.3773 -13.9329 0.9541
v  3.8978 -13.7772 -1.0111
v  0.4241 -14.3969 0.2914
v  0.4241 -14.6025 -2.1897
v  -1.5291 -13.9329 0.9541
v  -3.0496 -13.7772 -1.0111
v  -2.3382 -12.8126 2.5541
v  -4.4885 -11.7848 1.8344
v  -1.5291 -11.6923 4.1540
v  -3.0496 -9.7923 4.6799
v  0.4241 -11.2282 4.8168
v  0.4241 -8.9670 5.8585
v  5.7893 -11.0996 1.3546
v  4.2179 -8.9235 4.4623
v  4.2179 -13.2756 -1.7531
v  0.4241 -14.1770 -3.0403
v  -3.3697 -13.2756 -1.7531
v  -4.9412 -11.0996 1.3546
v  -3.3697 -8.9235 4.4623
v  0.4241 -8.0222 5.7496
v  5.4498 -10.0145 0.8670
v  3.9778 -8.2377 3.9446
v  3.9778 -11.7914 -2.2106
v  0.4241 -12.5274 -3.4854
v  -3.1296 -11.7914 -2.2106
v  -4.6016 -10.0145 0.8670
v  -3.1296 -8.2377 3.9446
v  0.4241 -7.5017 5.2194
v  4.6180 -4.8836 2.9787
v  6.3552 -6.3181 -0.9623
v  8.3923 -4.8725 -1.9524
v  6.0585 -3.4142 3.4900
v  4.6180 -7.7525 -4.9033
v  6.0585 -6.3308 -7.3948
v  0.4241 -8.3466 -6.5358
v  0.4241 -6.9348 -9.6491
v  -3.7699 -7.7525 -4.9033
v  -5.2103 -6.3308 -7.3948
v  -5.5070 -6.3181 -0.9623
v  -7.5442 -4.8725 -1.9524
v  -3.7699 -4.8836 2.9787
v  -5.2103 -3.4142 3.4900
v  0.4241 -4.2895 4.6111
v  0.4241 -2.8102 5.7443
v  8.8450 -3.0935 -2.6486
v  6.3786 -2.0595 3.2155
v  6.3786 -4.1274 -8.5126
v  0.4241 -4.5557 -10.9416
v  -5.5304 -4.1274 -8.5126
v  -7.9969 -3.0935 -2.6486
v  -5.5304 -2.0595 3.2155
v  0.4241 -1.6312 5.6444
v  7.9396 2.3735 -3.7793
v  5.7384 2.8367 0.9937
v  5.7384 1.9104 -8.5523
v  0.4241 1.7185 -10.5293
v  -4.8902 1.9104 -8.5522
v  -7.0915 2.3735 -3.7793
v  -4.8902 2.8367 0.9937
v  0.4241 3.0286 2.9708
v  5.7537 8.0342 -3.4162
v  4.2749 8.0647 -0.7686
v  4.2749 8.0037 -6.0639
v  0.4241 7.9901 -7.2468
v  -3.4267 8.0037 -6.0639
v  -4.9056 8.0342 -3.4162
v  -3.4267 8.0647 -0.7686
v  0.4241 8.0784 0.4143
# 80 vertices

vn 0.0000 0.9563 -0.2925
vn -0.1797 0.9556 -0.2334
vn -0.2878 0.9576 -0.0110
vn -0.1797 0.9608 0.2113
vn 0.0000 0.9627 0.2704
vn 0.1797 0.9608 0.2113
vn 0.2878 0.9576 -0.0110
vn 0.1797 0.9556 -0.2334
vn 0.3564 -0.5031 0.7873
vn 0.5040 -0.7075 0.4954
vn 0.7477 -0.5439 0.3809
vn 0.5287 -0.2407 0.8140
vn 0.3564 -0.9119 0.2035
vn 0.5287 -0.8472 -0.0522
vn -0.0000 -0.9966 0.0826
vn -0.0000 -0.9728 -0.2316
vn -0.3564 -0.9119 0.2035
vn -0.5287 -0.8472 -0.0522
vn -0.5040 -0.7075 0.4954
vn -0.7477 -0.5439 0.3809
vn -0.3564 -0.5031 0.7873
vn -0.5287 -0.2407 0.8140
vn 0.0000 -0.4184 0.9082
vn -0.0000 -0.1150 0.9934
vn 0.9949 -0.0904 0.0438
vn 0.7118 0.2905 0.6395
vn 0.6978 -0.4711 -0.5397
vn -0.0017 -0.6268 -0.7792
vn -0.6992 -0.4672 -0.5412
vn -0.9955 -0.0863 0.0384
vn -0.7149 0.2931 0.6348
vn -0.0016 0.4484 0.8938
vn 0.9600 0.2504 -0.1250
vn 0.6622 0.5864 0.4665
vn 0.6832 -0.1055 -0.7226
vn -0.0039 -0.2576 -0.9662
vn -0.6886 -0.1128 -0.7163
vn -0.9636 0.2389 -0.1199
vn -0.6683 0.5781 0.4681
vn -0.0033 0.7120 0.7022
vn 0.4159 -0.6152 0.6697
vn 0.6545 -0.7070 0.2679
vn 0.8645 -0.4841 0.1352
vn 0.6111 -0.3153 0.7260
vn 0.4955 -0.8443 -0.2042
vn 0.6139 -0.6439 -0.4566
vn 0.0107 -0.9135 -0.4067
vn 0.0046 -0.7088 -0.7054
vn -0.4694 -0.8604 -0.1984
vn -0.6117 -0.6413 -0.4632
vn -0.6275 -0.7308 0.2685
vn -0.8697 -0.4746 0.1355
vn -0.3931 -0.6288 0.6709
vn -0.6084 -0.3038 0.7331
vn 0.0140 -0.6023 0.7982
vn 0.0047 -0.2369 0.9715
vn 0.9991 -0.0411 -0.0118
vn 0.7098 0.1688 0.6839
vn 0.6936 -0.1743 -0.6990
vn 0.0048 -0.2165 -0.9763
vn -0.6929 -0.1774 -0.6989
vn -0.9995 -0.0302 -0.0024
vn -0.7073 0.1842 0.6825
vn -0.0039 0.2877 0.9577
vn 0.9626 0.2625 -0.0669
vn 0.6615 0.3839 0.6442
vn 0.6380 0.2373 -0.7326
vn 0.0069 0.2482 -0.9687
vn -0.6384 0.2381 -0.7320
vn -0.9630 0.2654 -0.0468
vn -0.6641 0.3845 0.6412
vn -0.0126 0.4650 0.8852
vn 0.7712 0.6365 -0.0098
vn 0.4845 0.6580 0.5764
vn 0.4875 0.6502 -0.5827
vn 0.0057 0.6720 -0.7406
vn -0.4822 0.6583 -0.5780
vn -0.7771 0.6292 0.0152
vn -0.4969 0.6413 0.5847
vn -0.0109 0.6716 0.7408
# 80 vertex normals

vt 16.3315 0.0000 1.0000
vt 12.2486 0.0000 1.0000
vt 8.1657 0.0000 1.0000
vt 4.0829 0.0000 1.0000
vt 0.0000 0.0000 1.0000
vt -4.0829 0.0000 1.0000
vt -8.1657 0.0000 1.0000
vt -12.2486 0.0000 1.0000
vt 28.5801 0.0000 1.0000
vt 24.4972 0.0000 1.0000
vt 20.4143 0.0000 1.0000
vt 32.6629 0.0000 1.0000
# 12 texture coords

g Object002
usemtl wire_255159000
s 1
f 1/1/1 2/2/2 3/3/3 
f 3/3/3 4/4/4 5/5/5 
f 5/5/5 6/6/6 7/7/7 
f 3/3/3 5/5/5 7/7/7 
f 1/1/1 3/3/3 7/7/7 
f 8/8/8 1/1/1 7/7/7 
f 9/9/9 10/10/10 11/7/11 
f 11/7/11 12/6/12 9/9/9 
f 10/10/10 13/11/13 14/8/14 
f 14/8/14 11/7/11 10/10/10 
f 13/11/13 15/1/15 16/1/16 
f 16/1/16 14/8/14 13/11/13 
f 15/1/15 17/2/17 18/2/18 
f 18/2/18 16/1/16 15/1/15 
f 17/2/17 19/3/19 20/3/20 
f 20/3/20 18/2/18 17/2/17 
f 19/3/19 21/4/21 22/4/22 
f 22/4/22 20/3/20 19/3/19 
f 21/4/21 23/5/23 24/5/24 
f 24/5/24 22/4/22 21/4/21 
f 23/12/23 9/9/9 12/6/12 
f 12/6/12 24/5/24 23/12/23 
f 12/6/12 11/7/11 25/7/25 
f 25/7/25 26/6/26 12/6/12 
f 11/7/11 14/8/14 27/8/27 
f 27/8/27 25/7/25 11/7/11 
f 14/8/14 16/1/16 28/1/28 
f 28/1/28 27/8/27 14/8/14 
f 16/1/16 18/2/18 29/2/29 
f 29/2/29 28/1/28 16/1/16 
f 18/2/18 20/3/20 30/3/30 
f 30/3/30 29/2/29 18/2/18 
f 20/3/20 22/4/22 31/4/31 
f 31/4/31 30/3/30 20/3/20 
f 22/4/22 24/5/24 32/5/32 
f 32/5/32 31/4/31 22/4/22 
f 24/5/24 12/6/12 26/6/26 
f 26/6/26 32/5/32 24/5/24 
f 26/6/26 25/7/25 33/7/33 
f 33/7/33 34/6/34 26/6/26 
f 25/7/25 27/8/27 35/8/35 
f 35/8/35 33/7/33 25/7/25 
f 27/8/27 28/1/28 36/1/36 
f 36/1/36 35/8/35 27/8/27 
f 28/1/28 29/2/29 37/2/37 
f 37/2/37 36/1/36 28/1/28 
f 29/2/29 30/3/30 38/3/38 
f 38/3/38 37/2/37 29/2/29 
f 30/3/30 31/4/31 39/4/39 
f 39/4/39 38/3/38 30/3/30 
f 31/4/31 32/5/32 40/5/40 
f 40/5/40 39/4/39 31/4/31 
f 32/5/32 26/6/26 34/6/34 
f 34/6/34 40/5/40 32/5/32 
f 41/6/41 42/7/42 43/7/43 
f 43/7/43 44/6/44 41/6/41 
f 42/7/42 45/8/45 46/8/46 
f 46/8/46 43/7/43 42/7/42 
f 45/8/45 47/1/47 48/1/48 
f 48/1/48 46/8/46 45/8/45 
f 47/1/47 49/2/49 50/2/50 
f 50/2/50 48/1/48 47/1/47 
f 49/2/49 51/3/51 52/3/52 
f 52/3/52 50/2/50 49/2/49 
f 51/3/51 53/4/53 54/4/54 
f 54/4/54 52/3/52 51/3/51 
f 53/4/53 55/5/55 56/5/56 
f 56/5/56 54/4/54 53/4/53 
f 55/5/55 41/6/41 44/6/44 
f 44/6/44 56/5/56 55/5/55 
f 44/6/44 43/7/43 57/7/57 
f 57/7/57 58/6/58 44/6/44 
f 43/7/43 46/8/46 59/8/59 
f 59/8/59 57/7/57 43/7/43 
f 46/8/46 48/1/48 60/1/60 
f 60/1/60 59/8/59 46/8/46 
f 48/1/48 50/2/50 61/2/61 
f 61/2/61 60/1/60 48/1/48 
f 50/2/50 52/3/52 62/3/62 
f 62/3/62 61/2/61 50/2/50 
f 52/3/52 54/4/54 63/4/63 
f 63/4/63 62/3/62 52/3/52 
f 54/4/54 56/5/56 64/5/64 
f 64/5/64 63/4/63 54/4/54 
f 56/5/56 44/6/44 58/6/58 
f 58/6/58 64/5/64 56/5/56 
f 58/6/58 57/7/57 65/7/65 
f 65/7/65 66/6/66 58/6/58 
f 57/7/57 59/8/59 67/8/67 
f 67/8/67 65/7/65 57/7/57 
f 59/8/59 60/1/60 68/1/68 
f 68/1/68 67/8/67 59/8/59 
f 60/1/60 61/2/61 69/2/69 
f 69/2/69 68/1/68 60/1/60 
f 61/2/61 62/3/62 70/3/70 
f 70/3/70 69/2/69 61/2/61 
f 62/3/62 63/4/63 71/4/71 
f 71/4/71 70/3/70 62/3/62 
f 63/4/63 64/5/64 72/5/72 
f 72/5/72 71/4/71 63/4/63 
f 64/5/64 58/6/58 66/6/66 
f 66/6/66 72/5/72 64/5/64 
f 66/6/66 65/7/65 73/7/73 
f 73/7/73 74/6/74 66/6/66 
f 65/7/65 67/8/67 75/8/75 
f 75/8/75 73/7/73 65/7/65 
f 67/8/67 68/1/68 76/1/76 
f 76/1/76 75/8/75 67/8/67 
f 68/1/68 69/2/69 77/2/77 
f 77/2/77 76/1/76 68/1/68 
f 69/2/69 70/3/70 78/3/78 
f 78/3/78 77/2/77 69/2/69 
f 70/3/70 71/4/71 79/4/79 
f 79/4/79 78/3/78 70/3/70 
f 71/4/71 72/5/72 80/5/80 
f 80/5/80 79/4/79 71/4/71 
f 72/5/72 66/6/66 74/6/74 
f 74/6/74 80/5/80 72/5/72 
f 74/6/74 73/7/73 7/7/7 
f 7/7/7 6/6/6 74/6/74 
f 73/7/73 75/8/75 8/8/8 
f 8/8/8 7/7/7 73/7/73 
f 75/8/75 76/1/76 1/1/1 
f 1/1/1 8/8/8 75/8/75 
f 76/1/76 77/2/77 2/2/2 
f 2/2/2 1/1/1 76/1/76 
f 77/2/77 78/3/78 3/3/3 
f 3/3/3 2/2/2 77/2/77 
f 78/3/78 79/4/79 4/4/4 
f 4/4/4 3/3/3 78/3/78 
f 79/4/79 80/5/80 5/5/5 
f 5/5/5 4/4/4 79/4/79 
f 80/5/80 74/6/74 6/6/6 
f 6/6/6 5/5/5 80/5/80 
# 134 faces

