# 3ds Max Wavefront OBJ Exporter v0.97b - (c)2007 guruware
# File Created: 17.02.2017 18:59:37

mtllib blanketRed.mtl

#
# object Plane005
#

v  -497.9058 1.1262 416.0974
v  -467.7294 1.1262 430.1689
v  -453.8920 1.1262 400.4945
v  -484.0684 1.1262 386.4230
v  -437.5531 1.1262 444.2404
v  -407.3767 1.1262 458.3118
v  -393.5393 1.1262 428.6374
v  -423.7157 1.1262 414.5659
v  -377.2004 1.1262 472.3833
v  -347.0240 1.1262 486.4547
v  -333.1866 1.1262 456.7803
v  -363.3630 1.1262 442.7089
v  -409.8783 1.1262 384.8916
v  -440.0546 1.1262 370.8201
v  -349.5256 1.1262 413.0345
v  -379.7019 1.1262 398.9630
v  -303.0103 1.1262 470.8518
v  -289.1729 1.1262 441.1774
v  -319.3492 1.1262 427.1060
v  -470.2310 1.1262 356.7486
v  -426.2172 1.1262 341.1457
v  -456.3936 1.1262 327.0742
v  -365.8645 1.1262 369.2886
v  -396.0409 1.1262 355.2172
v  -305.5118 1.1262 397.4315
v  -335.6882 1.1262 383.3601
v  -382.2035 1.1262 325.5428
v  -412.3798 1.1262 311.4713
v  -321.8508 1.1262 353.6857
v  -352.0271 1.1262 339.6142
v  -275.3355 1.1262 411.5030
v  -261.4981 1.1262 381.8286
v  -291.6744 1.1262 367.7571
v  -442.5562 1.1262 297.3998
v  -398.5424 1.1262 281.7969
v  -428.7188 1.1262 267.7255
v  -338.1897 1.1262 309.9398
v  -368.3661 1.1262 295.8683
v  -277.8370 1.1262 338.0828
v  -308.0134 1.1262 324.0113
# 40 vertices

vn 0.0000 1.0000 -0.0000
# 1 vertex normals

vt 0.0000 0.0000 0.0000
vt 33.2959 0.0000 0.0000
vt 33.2959 32.7421 0.0000
vt 0.0000 32.7421 0.0000
vt 66.5918 0.0000 0.0000
vt 99.8877 0.0000 0.0000
vt 99.8877 32.7421 0.0000
vt 66.5918 32.7421 0.0000
vt 133.1837 0.0000 0.0000
vt 166.4796 0.0000 0.0000
vt 166.4796 32.7421 0.0000
vt 133.1837 32.7421 0.0000
vt 66.5918 65.4841 0.0000
vt 33.2959 65.4841 0.0000
vt 133.1837 65.4841 0.0000
vt 99.8877 65.4841 0.0000
vt 199.7755 32.7421 0.0000
vt 199.7755 65.4841 0.0000
vt 166.4796 65.4841 0.0000
vt 0.0000 65.4841 0.0000
vt 33.2959 98.2262 0.0000
vt 0.0000 98.2262 0.0000
vt 99.8877 98.2262 0.0000
vt 66.5918 98.2262 0.0000
vt 166.4796 98.2262 0.0000
vt 133.1837 98.2262 0.0000
vt 66.5918 130.9683 0.0000
vt 33.2959 130.9683 0.0000
vt 133.1837 130.9683 0.0000
vt 99.8877 130.9683 0.0000
vt 199.7755 98.2262 0.0000
vt 199.7755 130.9683 0.0000
vt 166.4796 130.9683 0.0000
vt 0.0000 130.9683 0.0000
vt 33.2959 163.7104 0.0000
vt 0.0000 163.7104 0.0000
vt 99.8877 163.7104 0.0000
vt 66.5918 163.7104 0.0000
vt 166.4796 163.7104 0.0000
vt 133.1837 163.7104 0.0000
# 40 texture coords

g Plane005
usemtl wire_176026026
s 1
f 1/1/1 2/2/1 3/3/1 
f 3/3/1 4/4/1 1/1/1 
f 5/5/1 6/6/1 7/7/1 
f 7/7/1 8/8/1 5/5/1 
f 9/9/1 10/10/1 11/11/1 
f 11/11/1 12/12/1 9/9/1 
f 3/3/1 8/8/1 13/13/1 
f 13/13/1 14/14/1 3/3/1 
f 7/7/1 12/12/1 15/15/1 
f 15/15/1 16/16/1 7/7/1 
f 11/11/1 17/17/1 18/18/1 
f 18/18/1 19/19/1 11/11/1 
f 20/20/1 14/14/1 21/21/1 
f 21/21/1 22/22/1 20/20/1 
f 13/13/1 16/16/1 23/23/1 
f 23/23/1 24/24/1 13/13/1 
f 15/15/1 19/19/1 25/25/1 
f 25/25/1 26/26/1 15/15/1 
f 21/21/1 24/24/1 27/27/1 
f 27/27/1 28/28/1 21/21/1 
f 23/23/1 26/26/1 29/29/1 
f 29/29/1 30/30/1 23/23/1 
f 25/25/1 31/31/1 32/32/1 
f 32/32/1 33/33/1 25/25/1 
f 34/34/1 28/28/1 35/35/1 
f 35/35/1 36/36/1 34/34/1 
f 27/27/1 30/30/1 37/37/1 
f 37/37/1 38/38/1 27/27/1 
f 29/29/1 33/33/1 39/39/1 
f 39/39/1 40/40/1 29/29/1 
# 30 faces

