# 3ds Max Wavefront OBJ Exporter v0.97b - (c)2007 guruware
# File Created: 17.02.2017 15:14:27

mtllib body.mtl

#
# object GeoSphere028
#

v  -0.0304 4.3117 -6.1499
v  9.5902 3.9496 -6.7135
v  2.5602 1.6443 -16.6367
v  13.3889 -0.5553 -7.8557
v  9.7044 -1.1946 -17.3235
v  3.2041 -4.0480 -26.6047
v  -7.4156 2.9370 -12.8881
v  -3.2190 -3.0911 -25.1025
v  -9.8668 -2.2418 -17.9217
v  -7.4156 3.1894 0.0307
v  -13.3191 0.5427 -7.6544
v  -9.8668 -1.9888 2.1956
v  2.5602 2.0954 4.6366
v  -3.2190 -2.4056 9.0756
v  3.2041 -3.3913 9.1824
v  9.7044 -0.9122 2.2067
v  11.4525 -7.1392 -4.1571
v  11.4525 -7.1693 -14.0848
v  7.8796 -12.1987 -2.5792
v  9.2586 -12.3275 -10.5467
v  7.8796 -12.1192 -19.5236
v  6.5493 -8.3271 -25.9338
v  -0.0304 -8.7257 -33.6294
v  2.8125 -13.2531 -27.3024
v  -3.0226 -12.6222 -28.6339
v  -6.6100 -8.3271 -25.9337
v  -11.5132 -7.1693 -14.0848
v  -7.5149 -12.7320 -19.1727
v  -9.8780 -11.6939 -10.3544
v  -11.5132 -7.1392 -4.1571
v  -6.6100 -8.2340 4.3492
v  -7.5148 -12.8271 -3.2208
v  -3.0226 -12.9597 2.3468
v  -0.0304 -8.5997 7.8055
v  6.5492 -8.2340 4.3492
v  2.8125 -13.5979 1.3612
v  -0.0304 -15.1873 -10.6234
v  -1.7812 -15.1224 -19.0118
v  4.5537 -14.6884 -15.6460
v  -5.6969 -14.4274 -10.8917
v  -1.7812 -15.2489 -3.9501
v  4.5537 -14.7497 -6.5554
v  -0.7357 1.9160 15.4998
v  5.1484 0.8898 15.6922
v  0.7279 0.5471 10.1339
v  7.9719 -2.3295 16.0612
v  5.1905 -1.9793 11.1845
v  1.4554 -2.7135 5.7855
v  -4.9374 0.6816 12.5690
v  -2.8336 -2.0912 6.3240
v  -6.8554 -2.6178 11.0528
v  -5.7029 0.8846 18.3940
v  -9.2497 -1.6732 16.0063
v  -7.8035 -2.4169 20.2535
v  1.0993 0.7320 19.9862
v  -3.0884 -2.0311 22.5070
v  1.6483 -2.6961 22.8491
v  6.2159 -1.7489 20.0350
v  7.4606 -6.1649 18.6238
v  7.1229 -6.1617 13.7078
v  5.0330 -10.2055 20.5431
v  6.0104 -10.5142 16.1045
v  4.9802 -9.7632 11.0615
v  3.9087 -6.2322 7.4627
v  -0.7357 -6.2370 3.2280
v  1.3329 -10.3732 6.3247
v  -2.9108 -9.7550 5.7858
v  -5.3802 -6.2322 7.4627
v  -8.5944 -6.1617 13.7078
v  -6.1646 -10.3881 11.1968
v  -7.8646 -9.8647 16.1428
v  -8.9320 -6.1649 18.6238
v  -5.5566 -6.4468 22.6590
v  -6.1954 -10.8835 20.3662
v  -2.9216 -10.5878 23.3659
v  -0.7357 -6.5854 24.2233
v  4.0852 -6.4468 22.6590
v  1.3406 -11.2854 23.0880
v  -0.7357 -14.4516 15.7277
v  -2.0138 -12.9628 10.1565
v  2.6104 -13.0193 12.6286
v  -4.8721 -13.2042 15.8727
v  -2.0140 -13.8600 20.5953
v  2.6108 -13.5474 18.7988
# 84 vertices

vn -0.0031 0.9996 -0.0270
vn 0.4712 0.8820 0.0016
vn 0.0988 0.8336 -0.5434
vn 0.9620 0.2729 -0.0126
vn 0.6295 0.4655 -0.6221
vn 0.2978 0.5913 -0.7494
vn -0.3046 0.8664 -0.3958
vn -0.2623 0.6252 -0.7351
vn -0.6926 0.3489 -0.6313
vn -0.3779 0.8195 0.4309
vn -0.8995 0.4368 -0.0076
vn -0.7222 0.1282 0.6797
vn 0.1429 0.7483 0.6478
vn -0.2664 0.2027 0.9423
vn 0.2837 0.0876 0.9549
vn 0.6850 0.2738 0.6751
vn 0.8922 -0.3089 0.3296
vn 0.9320 -0.2059 -0.2984
vn 0.6366 -0.6551 0.4069
vn 0.7437 -0.6685 -0.0046
vn 0.7185 -0.5894 -0.3692
vn 0.7127 -0.0337 -0.7006
vn 0.0092 0.0324 -0.9994
vn 0.3531 -0.7335 -0.5808
vn -0.3864 -0.6543 -0.6501
vn -0.7202 -0.0004 -0.6937
vn -0.9337 -0.2037 -0.2946
vn -0.6693 -0.6636 -0.3341
vn -0.7923 -0.6101 -0.0042
vn -0.8957 -0.3060 0.3227
vn -0.5542 -0.3540 0.7533
vn -0.5962 -0.7148 0.3655
vn -0.2569 -0.7135 0.6518
vn -0.0048 -0.4076 0.9131
vn 0.5569 -0.3563 0.7503
vn 0.2379 -0.7759 0.5843
vn 0.0019 -0.9999 -0.0122
vn -0.1272 -0.9748 -0.1833
vn 0.3180 -0.9398 -0.1248
vn -0.3842 -0.9232 -0.0047
vn -0.1205 -0.9677 0.2214
vn 0.3116 -0.9404 0.1360
vn -0.0052 0.9999 -0.0095
vn 0.5235 0.8510 -0.0422
vn 0.1554 0.8082 -0.5680
vn 0.9499 0.3045 -0.0708
vn 0.6527 0.3969 -0.6453
vn 0.3461 0.4310 -0.8333
vn -0.3996 0.8107 -0.4279
vn -0.3156 0.4959 -0.8090
vn -0.6902 0.3058 -0.6558
vn -0.3890 0.8364 0.3861
vn -0.9053 0.4193 -0.0683
vn -0.6142 0.2996 0.7300
vn 0.1207 0.7594 0.6394
vn -0.1558 0.3807 0.9115
vn 0.1630 0.3113 0.9362
vn 0.5931 0.4138 0.6906
vn 0.9070 -0.1512 0.3931
vn 0.9077 -0.1295 -0.3992
vn 0.6719 -0.4085 0.6178
vn 0.8447 -0.5344 -0.0309
vn 0.7436 -0.4120 -0.5266
vn 0.6666 -0.0285 -0.7449
vn 0.0002 -0.0009 -1.0000
vn 0.3391 -0.5154 -0.7870
vn -0.3663 -0.4451 -0.8172
vn -0.6675 -0.0150 -0.7444
vn -0.9105 -0.1207 -0.3956
vn -0.7092 -0.4879 -0.5089
vn -0.8808 -0.4725 -0.0287
vn -0.9112 -0.1441 0.3859
vn -0.4248 -0.0180 0.9051
vn -0.6571 -0.4892 0.5735
vn -0.2409 -0.3052 0.9213
vn 0.0013 0.0389 0.9992
vn 0.4235 -0.0151 0.9058
vn 0.2402 -0.4055 0.8820
vn 0.0034 -0.9944 -0.1060
vn -0.1828 -0.8202 -0.5421
vn 0.4561 -0.8080 -0.3730
vn -0.5616 -0.8252 -0.0605
vn -0.1752 -0.8279 0.5328
vn 0.4577 -0.8354 0.3042
# 84 vertex normals

vt 142.9347 119.1123 37.9146
vt 119.1123 98.1237 37.9146
vt 166.7572 98.1237 37.9146
vt 119.1123 77.1352 37.9146
vt 142.9347 80.5447 37.9146
vt 166.7572 77.1352 37.9146
vt 190.5797 119.1123 37.9146
vt 214.4021 98.1237 37.9146
vt 190.5797 80.5447 37.9146
vt 214.4021 77.1352 37.9146
vt 0.0000 119.1123 37.9146
vt -23.8224 98.1237 37.9146
vt 23.8225 98.1237 37.9146
vt -23.8224 77.1352 37.9146
vt 0.0000 80.5447 37.9146
vt 23.8225 77.1352 37.9146
vt 47.6449 119.1123 37.9146
vt 71.4674 98.1237 37.9146
vt 47.6449 80.5447 37.9146
vt 71.4674 77.1352 37.9146
vt 95.2898 119.1123 37.9146
vt 95.2898 80.5447 37.9146
vt 107.2011 59.5561 37.9146
vt 131.0235 59.5561 37.9146
vt 95.2898 41.9771 37.9146
vt 119.1123 38.5676 37.9146
vt 142.9347 41.9771 37.9146
vt 154.8460 59.5561 37.9146
vt 178.6684 59.5561 37.9146
vt 166.7572 38.5676 37.9146
vt 190.5797 41.9771 37.9146
vt 202.4909 59.5561 37.9146
vt 226.3134 59.5561 37.9146
vt 214.4021 38.5676 37.9146
vt -11.9112 59.5561 37.9146
vt -23.8224 38.5676 37.9146
vt 0.0000 41.9771 37.9146
vt 11.9112 59.5561 37.9146
vt 35.7337 59.5561 37.9146
vt 23.8225 38.5676 37.9146
vt 47.6449 41.9771 37.9146
vt 59.5562 59.5561 37.9146
vt 83.3786 59.5561 37.9146
vt 71.4674 38.5676 37.9146
vt 166.7572 0.0000 37.9146
vt 190.5797 20.9886 37.9146
vt 142.9347 20.9886 37.9146
vt -23.8225 0.0000 37.9146
vt 0.0000 20.9886 37.9146
vt -47.6449 20.9886 37.9146
vt 23.8225 0.0000 37.9146
vt 47.6449 20.9886 37.9146
vt 71.4674 0.0000 37.9146
vt 95.2898 20.9886 37.9146
vt 119.1123 0.0000 37.9146
vt 68.8833 57.4027 18.2719
vt 57.4027 47.2879 18.2719
vt 80.3638 47.2879 18.2719
vt 57.4027 37.1731 18.2719
vt 68.8833 38.8162 18.2719
vt 80.3638 37.1731 18.2719
vt 91.8444 57.4027 18.2719
vt 103.3250 47.2879 18.2719
vt 91.8444 38.8162 18.2719
vt 103.3250 37.1731 18.2719
vt 0.0000 57.4027 18.2719
vt -11.4805 47.2879 18.2719
vt 11.4806 47.2879 18.2719
vt -11.4805 37.1731 18.2719
vt 0.0000 38.8162 18.2719
vt 11.4806 37.1731 18.2719
vt 22.9611 57.4027 18.2719
vt 34.4417 47.2879 18.2719
vt 22.9611 38.8162 18.2719
vt 34.4417 37.1731 18.2719
vt 45.9222 57.4027 18.2719
vt 45.9222 38.8162 18.2719
vt 51.6625 28.7014 18.2719
vt 63.1430 28.7014 18.2719
vt 45.9222 20.2297 18.2719
vt 57.4027 18.5865 18.2719
vt 68.8833 20.2297 18.2719
vt 74.6236 28.7014 18.2719
vt 86.1041 28.7014 18.2719
vt 80.3638 18.5865 18.2719
vt 91.8444 20.2297 18.2719
vt 97.5847 28.7014 18.2719
vt 109.0652 28.7014 18.2719
vt 103.3250 18.5865 18.2719
vt -5.7403 28.7014 18.2719
vt -11.4805 18.5865 18.2719
vt 0.0000 20.2297 18.2719
vt 5.7403 28.7014 18.2719
vt 17.2208 28.7014 18.2719
vt 11.4806 18.5865 18.2719
vt 22.9611 20.2297 18.2719
vt 28.7014 28.7014 18.2719
vt 40.1819 28.7014 18.2719
vt 34.4417 18.5865 18.2719
vt 80.3638 0.0000 18.2719
vt 91.8444 10.1148 18.2719
vt 68.8833 10.1148 18.2719
vt -11.4805 0.0000 18.2719
vt 0.0000 10.1148 18.2719
vt -22.9611 10.1148 18.2719
vt 11.4806 0.0000 18.2719
vt 22.9611 10.1148 18.2719
vt 34.4417 0.0000 18.2719
vt 45.9222 10.1148 18.2719
vt 57.4027 0.0000 18.2719
# 110 texture coords

g GeoSphere028
usemtl wire_000000000
s 1
f 1/1/1 2/2/2 3/3/3 
f 2/2/2 4/4/4 5/5/5 
f 2/2/2 5/5/5 3/3/3 
f 3/3/3 5/5/5 6/6/6 
f 1/7/1 3/3/3 7/8/7 
f 3/3/3 6/6/6 8/9/8 
f 3/3/3 8/9/8 7/8/7 
f 7/8/7 8/9/8 9/10/9 
f 1/11/1 7/12/7 10/13/10 
f 7/12/7 9/14/9 11/15/11 
f 7/12/7 11/15/11 10/13/10 
f 10/13/10 11/15/11 12/16/12 
f 1/17/1 10/13/10 13/18/13 
f 10/13/10 12/16/12 14/19/14 
f 10/13/10 14/19/14 13/18/13 
f 13/18/13 14/19/14 15/20/15 
f 1/21/1 13/18/13 2/2/2 
f 13/18/13 15/20/15 16/22/16 
f 13/18/13 16/22/16 2/2/2 
f 2/2/2 16/22/16 4/4/4 
f 4/4/4 17/23/17 18/24/18 
f 17/23/17 19/25/19 20/26/20 
f 17/23/17 20/26/20 18/24/18 
f 18/24/18 20/26/20 21/27/21 
f 6/6/6 22/28/22 23/29/23 
f 22/28/22 21/27/21 24/30/24 
f 22/28/22 24/30/24 23/29/23 
f 23/29/23 24/30/24 25/31/25 
f 9/10/9 26/32/26 27/33/27 
f 26/32/26 25/31/25 28/34/28 
f 26/32/26 28/34/28 27/33/27 
f 27/35/27 28/36/28 29/37/29 
f 12/16/12 30/38/30 31/39/31 
f 30/38/30 29/37/29 32/40/32 
f 30/38/30 32/40/32 31/39/31 
f 31/39/31 32/40/32 33/41/33 
f 15/20/15 34/42/34 35/43/35 
f 34/42/34 33/41/33 36/44/36 
f 34/42/34 36/44/36 35/43/35 
f 35/43/35 36/44/36 19/25/19 
f 21/27/21 22/28/22 18/24/18 
f 22/28/22 6/6/6 5/5/5 
f 22/28/22 5/5/5 18/24/18 
f 18/24/18 5/5/5 4/4/4 
f 25/31/25 26/32/26 23/29/23 
f 26/32/26 9/10/9 8/9/8 
f 26/32/26 8/9/8 23/29/23 
f 23/29/23 8/9/8 6/6/6 
f 29/37/29 30/38/30 27/35/27 
f 30/38/30 12/16/12 11/15/11 
f 30/38/30 11/15/11 27/35/27 
f 27/35/27 11/15/11 9/14/9 
f 33/41/33 34/42/34 31/39/31 
f 34/42/34 15/20/15 14/19/14 
f 34/42/34 14/19/14 31/39/31 
f 31/39/31 14/19/14 12/16/12 
f 19/25/19 17/23/17 35/43/35 
f 17/23/17 4/4/4 16/22/16 
f 17/23/17 16/22/16 35/43/35 
f 35/43/35 16/22/16 15/20/15 
f 37/45/37 38/46/38 39/47/39 
f 38/46/38 25/31/25 24/30/24 
f 38/46/38 24/30/24 39/47/39 
f 39/47/39 24/30/24 21/27/21 
f 37/48/37 40/49/40 38/50/38 
f 40/49/40 29/37/29 28/36/28 
f 40/49/40 28/36/28 38/50/38 
f 38/46/38 28/34/28 25/31/25 
f 37/51/37 41/52/41 40/49/40 
f 41/52/41 33/41/33 32/40/32 
f 41/52/41 32/40/32 40/49/40 
f 40/49/40 32/40/32 29/37/29 
f 37/53/37 42/54/42 41/52/41 
f 42/54/42 19/25/19 36/44/36 
f 42/54/42 36/44/36 41/52/41 
f 41/52/41 36/44/36 33/41/33 
f 37/55/37 39/47/39 42/54/42 
f 39/47/39 21/27/21 20/26/20 
f 39/47/39 20/26/20 42/54/42 
f 42/54/42 20/26/20 19/25/19 
f 43/56/43 44/57/44 45/58/45 
f 44/57/44 46/59/46 47/60/47 
f 44/57/44 47/60/47 45/58/45 
f 45/58/45 47/60/47 48/61/48 
f 43/62/43 45/58/45 49/63/49 
f 45/58/45 48/61/48 50/64/50 
f 45/58/45 50/64/50 49/63/49 
f 49/63/49 50/64/50 51/65/51 
f 43/66/43 49/67/49 52/68/52 
f 49/67/49 51/69/51 53/70/53 
f 49/67/49 53/70/53 52/68/52 
f 52/68/52 53/70/53 54/71/54 
f 43/72/43 52/68/52 55/73/55 
f 52/68/52 54/71/54 56/74/56 
f 52/68/52 56/74/56 55/73/55 
f 55/73/55 56/74/56 57/75/57 
f 43/76/43 55/73/55 44/57/44 
f 55/73/55 57/75/57 58/77/58 
f 55/73/55 58/77/58 44/57/44 
f 44/57/44 58/77/58 46/59/46 
f 46/59/46 59/78/59 60/79/60 
f 59/78/59 61/80/61 62/81/62 
f 59/78/59 62/81/62 60/79/60 
f 60/79/60 62/81/62 63/82/63 
f 48/61/48 64/83/64 65/84/65 
f 64/83/64 63/82/63 66/85/66 
f 64/83/64 66/85/66 65/84/65 
f 65/84/65 66/85/66 67/86/67 
f 51/65/51 68/87/68 69/88/69 
f 68/87/68 67/86/67 70/89/70 
f 68/87/68 70/89/70 69/88/69 
f 69/90/69 70/91/70 71/92/71 
f 54/71/54 72/93/72 73/94/73 
f 72/93/72 71/92/71 74/95/74 
f 72/93/72 74/95/74 73/94/73 
f 73/94/73 74/95/74 75/96/75 
f 57/75/57 76/97/76 77/98/77 
f 76/97/76 75/96/75 78/99/78 
f 76/97/76 78/99/78 77/98/77 
f 77/98/77 78/99/78 61/80/61 
f 63/82/63 64/83/64 60/79/60 
f 64/83/64 48/61/48 47/60/47 
f 64/83/64 47/60/47 60/79/60 
f 60/79/60 47/60/47 46/59/46 
f 67/86/67 68/87/68 65/84/65 
f 68/87/68 51/65/51 50/64/50 
f 68/87/68 50/64/50 65/84/65 
f 65/84/65 50/64/50 48/61/48 
f 71/92/71 72/93/72 69/90/69 
f 72/93/72 54/71/54 53/70/53 
f 72/93/72 53/70/53 69/90/69 
f 69/90/69 53/70/53 51/69/51 
f 75/96/75 76/97/76 73/94/73 
f 76/97/76 57/75/57 56/74/56 
f 76/97/76 56/74/56 73/94/73 
f 73/94/73 56/74/56 54/71/54 
f 61/80/61 59/78/59 77/98/77 
f 59/78/59 46/59/46 58/77/58 
f 59/78/59 58/77/58 77/98/77 
f 77/98/77 58/77/58 57/75/57 
f 79/100/79 80/101/80 81/102/81 
f 80/101/80 67/86/67 66/85/66 
f 80/101/80 66/85/66 81/102/81 
f 81/102/81 66/85/66 63/82/63 
f 79/103/79 82/104/82 80/105/80 
f 82/104/82 71/92/71 70/91/70 
f 82/104/82 70/91/70 80/105/80 
f 80/101/80 70/89/70 67/86/67 
f 79/106/79 83/107/83 82/104/82 
f 83/107/83 75/96/75 74/95/74 
f 83/107/83 74/95/74 82/104/82 
f 82/104/82 74/95/74 71/92/71 
f 79/108/79 84/109/84 83/107/83 
f 84/109/84 61/80/61 78/99/78 
f 84/109/84 78/99/78 83/107/83 
f 83/107/83 78/99/78 75/96/75 
f 79/110/79 81/102/81 84/109/84 
f 81/102/81 63/82/63 62/81/62 
f 81/102/81 62/81/62 84/109/84 
f 84/109/84 62/81/62 61/80/61 
# 160 faces

