# 3ds Max Wavefront OBJ Exporter v0.97b - (c)2007 guruware
# File Created: 25.02.2017 19:15:50

mtllib stone.mtl

#
# object GeoSphere037
#

v  1.5216 -15.9177 -0.0000
v  11.9946 -14.3316 -0.2736
v  4.3364 -13.6906 7.9193
v  17.2660 -8.0975 -0.5312
v  13.7257 -8.9689 8.4319
v  6.3037 -7.2329 15.1939
v  -5.6476 -13.3347 5.0356
v  -2.2977 -8.2254 14.6755
v  -9.1686 -6.8846 10.2579
v  -5.8063 -13.5165 -5.4474
v  -11.8220 -8.3131 -0.0116
v  -10.3783 -7.6257 -10.5633
v  4.2457 -13.9995 -8.8085
v  -3.4803 -9.4384 -16.5080
v  5.2835 -8.5957 -17.7629
v  13.3602 -9.6356 -10.0826
v  16.4664 -0.7458 -6.9848
v  16.8610 -0.3904 5.5025
v  13.9765 6.6467 -12.5518
v  16.5074 8.1023 -2.2570
v  13.6920 6.9298 9.8716
v  11.5788 -0.1688 16.3384
v  3.0465 0.0798 20.7598
v  6.3025 8.3486 16.5044
v  -2.6748 7.7566 17.1855
v  -6.8197 0.5086 16.4305
v  -14.0365 0.9060 6.0725
v  -12.1017 10.3864 9.0803
v  -16.3436 9.5671 0.0604
v  -14.7610 0.5505 -5.9263
v  -8.9736 -0.5901 -16.2340
v  -12.7432 10.1791 -8.6363
v  -4.1750 7.2360 -16.1950
v  0.5398 -1.4067 -21.1014
v  10.2120 -1.2675 -17.3994
v  6.2456 7.9715 -17.3864
v  1.2215 16.5560 -2.6277
v  -2.8982 14.4895 8.1756
v  9.3720 13.3870 3.2904
v  -11.0397 16.1221 -0.3395
v  -1.9280 14.4646 -10.5445
v  10.9562 13.3723 -9.8542
# 42 vertices

vn -0.0527 -0.9982 0.0298
vn 0.4644 -0.8851 0.0290
vn 0.0994 -0.8828 0.4591
vn 0.9309 -0.3652 -0.0019
vn 0.6635 -0.5585 0.4979
vn 0.2506 -0.6298 0.7352
vn -0.4252 -0.8572 0.2907
vn -0.2532 -0.6432 0.7226
vn -0.6833 -0.5059 0.5265
vn -0.4193 -0.8867 -0.1948
vn -0.8174 -0.5727 0.0628
vn -0.7410 -0.5323 -0.4094
vn 0.0928 -0.9275 -0.3621
vn -0.3172 -0.6534 -0.6874
vn 0.2446 -0.5896 -0.7698
vn 0.6691 -0.5605 -0.4879
vn 0.9487 -0.0369 -0.3141
vn 0.9612 0.0195 0.2752
vn 0.7705 0.2819 -0.5717
vn 0.8922 0.4516 -0.0015
vn 0.7465 0.4970 0.4424
vn 0.6518 -0.0582 0.7561
vn 0.0502 -0.0929 0.9944
vn 0.3109 0.6316 0.7102
vn -0.2496 0.5162 0.8193
vn -0.5747 -0.1007 0.8121
vn -0.9098 -0.1907 0.3687
vn -0.6571 0.4735 0.5866
vn -0.9564 0.2902 0.0315
vn -0.9497 -0.1735 -0.2606
vn -0.6411 -0.0303 -0.7669
vn -0.6857 0.4690 -0.5566
vn -0.3109 0.4834 -0.8183
vn -0.0739 -0.0188 -0.9971
vn 0.5832 -0.0744 -0.8089
vn 0.2089 0.4946 -0.8436
vn 0.1017 0.9946 -0.0191
vn -0.0435 0.9034 0.4266
vn 0.4217 0.8752 0.2370
vn -0.4389 0.8985 0.0006
vn -0.1229 0.8421 -0.5252
vn 0.4693 0.8075 -0.3572
# 42 vertex normals

vt 130.9536 109.1280 34.7365
vt 109.1280 89.8988 34.7365
vt 152.7792 89.8987 34.7365
vt 109.1280 70.6695 34.7365
vt 130.9536 73.7932 34.7365
vt 152.7792 70.6695 34.7365
vt 174.6048 109.1280 34.7365
vt 196.4304 89.8988 34.7365
vt 174.6048 73.7932 34.7365
vt 196.4304 70.6695 34.7365
vt 0.0000 109.1280 34.7365
vt -21.8256 89.8988 34.7365
vt 21.8256 89.8988 34.7365
vt -21.8256 70.6695 34.7365
vt 0.0000 73.7932 34.7365
vt 21.8256 70.6695 34.7365
vt 43.6512 109.1280 34.7365
vt 65.4768 89.8988 34.7365
vt 43.6512 73.7932 34.7365
vt 65.4768 70.6695 34.7365
vt 87.3024 109.1280 34.7365
vt 87.3024 73.7932 34.7365
vt 98.2152 54.5640 34.7365
vt 120.0408 54.5640 34.7365
vt 87.3024 38.4585 34.7365
vt 109.1280 35.3348 34.7365
vt 130.9536 38.4585 34.7365
vt 141.8664 54.5640 34.7365
vt 163.6920 54.5640 34.7365
vt 152.7792 35.3348 34.7365
vt 174.6048 38.4585 34.7365
vt 185.5176 54.5640 34.7365
vt 207.3432 54.5640 34.7365
vt 196.4304 35.3348 34.7365
vt -10.9128 54.5640 34.7365
vt -21.8256 35.3348 34.7365
vt 0.0000 38.4585 34.7365
vt 10.9128 54.5640 34.7365
vt 32.7384 54.5640 34.7365
vt 21.8256 35.3347 34.7365
vt 43.6512 38.4585 34.7365
vt 54.5640 54.5640 34.7365
vt 76.3896 54.5640 34.7365
vt 65.4768 35.3348 34.7365
vt 152.7792 0.0000 34.7365
vt 174.6048 19.2292 34.7365
vt 130.9536 19.2292 34.7365
vt -21.8256 0.0000 34.7365
vt 0.0000 19.2292 34.7365
vt -43.6512 19.2292 34.7365
vt 21.8256 0.0000 34.7365
vt 43.6512 19.2293 34.7365
vt 65.4768 0.0000 34.7365
vt 87.3024 19.2292 34.7365
vt 109.1280 0.0000 34.7365
# 55 texture coords

g GeoSphere037
usemtl wire_115115115
s 1
f 1/1/1 2/2/2 3/3/3 
f 2/2/2 4/4/4 5/5/5 
f 2/2/2 5/5/5 3/3/3 
f 3/3/3 5/5/5 6/6/6 
f 1/7/1 3/3/3 7/8/7 
f 3/3/3 6/6/6 8/9/8 
f 3/3/3 8/9/8 7/8/7 
f 7/8/7 8/9/8 9/10/9 
f 1/11/1 7/12/7 10/13/10 
f 7/12/7 9/14/9 11/15/11 
f 7/12/7 11/15/11 10/13/10 
f 10/13/10 11/15/11 12/16/12 
f 1/17/1 10/13/10 13/18/13 
f 10/13/10 12/16/12 14/19/14 
f 10/13/10 14/19/14 13/18/13 
f 13/18/13 14/19/14 15/20/15 
f 1/21/1 13/18/13 2/2/2 
f 13/18/13 15/20/15 16/22/16 
f 13/18/13 16/22/16 2/2/2 
f 2/2/2 16/22/16 4/4/4 
f 4/4/4 17/23/17 18/24/18 
f 17/23/17 19/25/19 20/26/20 
f 17/23/17 20/26/20 18/24/18 
f 18/24/18 20/26/20 21/27/21 
f 6/6/6 22/28/22 23/29/23 
f 22/28/22 21/27/21 24/30/24 
f 22/28/22 24/30/24 23/29/23 
f 23/29/23 24/30/24 25/31/25 
f 9/10/9 26/32/26 27/33/27 
f 26/32/26 25/31/25 28/34/28 
f 26/32/26 28/34/28 27/33/27 
f 27/35/27 28/36/28 29/37/29 
f 12/16/12 30/38/30 31/39/31 
f 30/38/30 29/37/29 32/40/32 
f 30/38/30 32/40/32 31/39/31 
f 31/39/31 32/40/32 33/41/33 
f 15/20/15 34/42/34 35/43/35 
f 34/42/34 33/41/33 36/44/36 
f 34/42/34 36/44/36 35/43/35 
f 35/43/35 36/44/36 19/25/19 
f 21/27/21 22/28/22 18/24/18 
f 22/28/22 6/6/6 5/5/5 
f 22/28/22 5/5/5 18/24/18 
f 18/24/18 5/5/5 4/4/4 
f 25/31/25 26/32/26 23/29/23 
f 26/32/26 9/10/9 8/9/8 
f 26/32/26 8/9/8 23/29/23 
f 23/29/23 8/9/8 6/6/6 
f 29/37/29 30/38/30 27/35/27 
f 30/38/30 12/16/12 11/15/11 
f 30/38/30 11/15/11 27/35/27 
f 27/35/27 11/15/11 9/14/9 
f 33/41/33 34/42/34 31/39/31 
f 34/42/34 15/20/15 14/19/14 
f 34/42/34 14/19/14 31/39/31 
f 31/39/31 14/19/14 12/16/12 
f 19/25/19 17/23/17 35/43/35 
f 17/23/17 4/4/4 16/22/16 
f 17/23/17 16/22/16 35/43/35 
f 35/43/35 16/22/16 15/20/15 
f 37/45/37 38/46/38 39/47/39 
f 38/46/38 25/31/25 24/30/24 
f 38/46/38 24/30/24 39/47/39 
f 39/47/39 24/30/24 21/27/21 
f 37/48/37 40/49/40 38/50/38 
f 40/49/40 29/37/29 28/36/28 
f 40/49/40 28/36/28 38/50/38 
f 38/46/38 28/34/28 25/31/25 
f 37/51/37 41/52/41 40/49/40 
f 41/52/41 33/41/33 32/40/32 
f 41/52/41 32/40/32 40/49/40 
f 40/49/40 32/40/32 29/37/29 
f 37/53/37 42/54/42 41/52/41 
f 42/54/42 19/25/19 36/44/36 
f 42/54/42 36/44/36 41/52/41 
f 41/52/41 36/44/36 33/41/33 
f 37/55/37 39/47/39 42/54/42 
f 39/47/39 21/27/21 20/26/20 
f 39/47/39 20/26/20 42/54/42 
f 42/54/42 20/26/20 19/25/19 
# 80 faces

