# 3ds Max Wavefront OBJ Exporter v0.97b - (c)2007 guruware
# File Created: 17.02.2017 15:15:50

mtllib wing0Tip.mtl

#
# object Box281
#

v  0.8228 -2.5319 6.1024
v  0.8228 -2.5319 3.0512
v  9.1704 -9.5363 3.3763
v  9.1704 -9.5363 5.4280
v  17.5179 -16.5407 5.1331
v  17.5179 -16.5407 6.3567
v  25.3031 -23.0733 8.7695
v  23.6331 -21.6720 8.9820
v  0.8228 -2.5319 -0.0000
v  9.1704 -9.5363 1.3245
v  17.5179 -16.5407 3.9094
v  26.9731 -24.4746 8.5570
v  0.8228 -2.5319 -3.0512
v  9.1704 -9.5363 -0.7273
v  17.5179 -16.5407 2.6858
v  28.6431 -25.8759 8.3445
v  0.8228 -2.5319 -6.1024
v  9.1704 -9.5363 -2.7790
v  17.5179 -16.5407 1.4621
v  30.3132 -27.2772 8.1320
v  2.5127 -0.5180 6.1024
v  10.8602 -7.5224 5.4280
v  10.8602 -7.5224 3.3763
v  2.5127 -0.5180 3.0512
v  19.2078 -14.5268 6.3567
v  19.2078 -14.5268 5.1331
v  25.3229 -19.6580 8.9820
v  26.9930 -21.0594 8.7695
v  10.8602 -7.5224 1.3245
v  2.5127 -0.5180 -0.0000
v  19.2078 -14.5268 3.9094
v  28.6630 -22.4607 8.5570
v  10.8602 -7.5224 -0.7273
v  2.5127 -0.5180 -3.0512
v  19.2078 -14.5268 2.6858
v  30.3330 -23.8620 8.3445
v  10.8602 -7.5224 -2.7790
v  2.5127 -0.5180 -6.1024
v  19.2078 -14.5268 1.4621
v  32.0030 -25.2633 8.1320
v  -0.1011 -0.5437 7.3298
v  9.7203 -8.7849 7.0743
v  10.2157 -8.1944 7.0743
v  0.3943 0.0467 7.3298
v  17.3438 -15.1817 7.9064
v  17.8392 -14.5913 7.9064
v  23.8194 -20.6154 10.6017
v  24.3148 -20.0250 10.6017
v  26.2966 -22.6940 10.3911
v  26.7920 -22.1036 10.3911
v  27.9666 -24.0953 10.1786
v  28.4620 -23.5049 10.1786
v  29.6366 -25.4967 9.9661
v  30.1320 -24.9062 9.9661
v  33.1347 -28.4319 8.4998
v  33.6301 -27.8415 8.4998
v  19.4402 -16.9408 0.1215
v  19.9356 -16.3504 0.1215
v  10.9775 -9.8398 -4.1752
v  11.4729 -9.2494 -4.1752
v  0.2596 -0.8464 -7.5202
v  0.7550 -0.2560 -7.5202
v  -0.8619 0.0947 -3.0512
v  -0.3665 0.6851 -3.0512
v  -0.8619 0.0947 -0.0000
v  -0.3665 0.6851 -0.0000
v  -0.8619 0.0947 3.0512
v  -0.3665 0.6851 3.0512
# 68 vertices

vn -0.6428 -0.7660 -0.0000
vn 0.6428 0.7660 -0.0000
vn 0.0276 -0.0232 0.9994
vn -0.0437 0.0366 0.9984
vn -0.2531 0.2123 0.9439
vn -0.3828 0.3212 0.8662
vn 0.0896 -0.0752 0.9931
vn 0.1114 -0.0935 0.9894
vn 0.1330 -0.1116 0.9848
vn 0.2630 -0.2206 0.9392
vn 0.3848 -0.3229 0.8647
vn 0.4954 -0.4157 -0.7627
vn 0.4686 -0.3932 -0.7911
vn 0.3744 -0.3142 -0.8724
vn 0.3041 -0.2552 -0.9178
vn -0.7538 0.6325 -0.1782
vn -0.7630 0.6402 -0.0894
vn -0.7660 0.6428 -0.0000
vn -0.7645 0.6415 0.0638
vn -0.7598 0.6376 0.1273
vn -0.9069 -0.4214 -0.0000
vn -0.8411 -0.5395 0.0382
vn -0.5876 -0.7522 0.2983
vn -0.5790 -0.7123 0.3968
vn -0.6480 -0.7004 0.2993
vn -0.6475 -0.7019 0.2967
vn -0.7336 -0.6231 0.2713
vn -0.7284 -0.6332 0.2617
vn -0.5740 -0.7645 0.2932
vn -0.5833 -0.7516 0.3081
vn -0.4184 -0.6676 0.6158
vn -0.4887 -0.8288 0.2726
vn -0.4801 -0.8434 -0.2414
vn -0.2540 -0.8673 -0.4281
vn -0.4821 -0.8415 -0.2438
vn -0.4824 -0.8414 -0.2435
vn -0.3543 -0.8153 -0.4580
vn -0.5215 -0.8073 -0.2761
vn -0.8417 -0.5399 -0.0000
vn -0.9047 -0.4191 -0.0767
vn 0.6183 0.6635 0.4212
vn 0.6218 0.7243 0.2980
vn 0.3855 0.9227 -0.0000
vn 0.3044 0.9513 0.0485
vn 0.1474 0.9891 -0.0000
vn 0.3850 0.9214 -0.0538
vn 0.7239 0.6386 -0.2611
vn 0.7104 0.5573 -0.4299
vn 0.7449 0.6211 -0.2435
vn 0.7450 0.6209 -0.2438
vn 0.7822 0.3629 -0.5065
vn 0.7614 0.6069 -0.2278
vn 0.6532 0.6981 0.2932
vn 0.7446 0.5626 0.3593
vn 0.6519 0.6916 0.3109
vn 0.6403 0.7088 0.2962
vn 0.4940 0.8296 0.2602
vn 0.4899 0.8282 0.2723
vn 0.5781 0.7601 0.2966
vn 0.5779 0.7592 0.2996
# 60 vertex normals

vt 1.0000 0.0000 0.0000
vt 1.0000 14.2047 0.0000
vt -24.3117 14.2047 0.0000
vt -24.3117 0.0000 0.0000
vt -49.6234 14.2047 0.0000
vt -49.6234 0.0000 0.0000
vt -74.9352 14.2047 0.0000
vt -74.9352 0.0000 0.0000
vt 1.0000 28.4093 0.0000
vt -24.3117 28.4093 0.0000
vt -49.6234 28.4093 0.0000
vt -74.9352 28.4093 0.0000
vt 1.0000 42.6140 0.0000
vt -24.3117 42.6140 0.0000
vt -49.6234 42.6140 0.0000
vt -74.9352 42.6140 0.0000
vt 1.0000 56.8186 0.0000
vt -24.3117 56.8186 0.0000
vt -49.6234 56.8186 0.0000
vt -74.9352 56.8186 0.0000
vt 0.0000 0.0000 0.0000
vt 25.3117 0.0000 0.0000
vt 25.3117 14.2047 0.0000
vt 0.0000 14.2047 0.0000
vt 50.6234 0.0000 0.0000
vt 50.6234 14.2047 0.0000
vt 75.9352 0.0000 0.0000
vt 75.9352 14.2047 0.0000
vt 25.3117 28.4093 0.0000
vt 0.0000 28.4093 0.0000
vt 50.6234 28.4093 0.0000
vt 75.9352 28.4093 0.0000
vt 25.3117 42.6140 0.0000
vt 0.0000 42.6140 0.0000
vt 50.6234 42.6140 0.0000
vt 75.9352 42.6140 0.0000
vt 25.3117 56.8186 0.0000
vt 0.0000 56.8186 0.0000
vt 50.6234 56.8186 0.0000
vt 75.9352 56.8186 0.0000
vt 25.3117 6.1067 0.0000
vt 0.0000 6.1067 0.0000
vt 50.6234 6.1067 0.0000
vt 75.9352 6.1067 0.0000
vt 14.2047 0.0000 0.0000
vt 14.2047 6.1067 0.0000
vt 28.4093 0.0000 0.0000
vt 28.4093 6.1067 0.0000
vt 42.6140 0.0000 0.0000
vt 42.6140 6.1067 0.0000
vt 56.8186 0.0000 0.0000
vt 56.8186 6.1067 0.0000
# 52 texture coords

g Box281
usemtl wire_000000000
s 2
f 1/1/1 2/2/1 3/3/1 
f 3/3/1 4/4/1 1/1/1 
f 4/4/1 3/3/1 5/5/1 
f 5/5/1 6/6/1 4/4/1 
f 6/6/1 5/5/1 7/7/1 
f 7/7/1 8/8/1 6/6/1 
f 2/2/1 9/9/1 10/10/1 
f 10/10/1 3/3/1 2/2/1 
f 3/3/1 10/10/1 11/11/1 
f 11/11/1 5/5/1 3/3/1 
f 5/5/1 11/11/1 12/12/1 
f 12/12/1 7/7/1 5/5/1 
f 9/9/1 13/13/1 14/14/1 
f 14/14/1 10/10/1 9/9/1 
f 10/10/1 14/14/1 15/15/1 
f 15/15/1 11/11/1 10/10/1 
f 11/11/1 15/15/1 16/16/1 
f 16/16/1 12/12/1 11/11/1 
f 13/13/1 17/17/1 18/18/1 
f 18/18/1 14/14/1 13/13/1 
f 14/14/1 18/18/1 19/19/1 
f 19/19/1 15/15/1 14/14/1 
f 15/15/1 19/19/1 20/20/1 
f 20/20/1 16/16/1 15/15/1 
s 4
f 21/21/2 22/22/2 23/23/2 
f 23/23/2 24/24/2 21/21/2 
f 22/22/2 25/25/2 26/26/2 
f 26/26/2 23/23/2 22/22/2 
f 25/25/2 27/27/2 28/28/2 
f 28/28/2 26/26/2 25/25/2 
f 24/24/2 23/23/2 29/29/2 
f 29/29/2 30/30/2 24/24/2 
f 23/23/2 26/26/2 31/31/2 
f 31/31/2 29/29/2 23/23/2 
f 26/26/2 28/28/2 32/32/2 
f 32/32/2 31/31/2 26/26/2 
f 30/30/2 29/29/2 33/33/2 
f 33/33/2 34/34/2 30/30/2 
f 29/29/2 31/31/2 35/35/2 
f 35/35/2 33/33/2 29/29/2 
f 31/31/2 32/32/2 36/36/2 
f 36/36/2 35/35/2 31/31/2 
f 34/34/2 33/33/2 37/37/2 
f 37/37/2 38/38/2 34/34/2 
f 33/33/2 35/35/2 39/39/2 
f 39/39/2 37/37/2 33/33/2 
f 35/35/2 36/36/2 40/40/2 
f 40/40/2 39/39/2 35/35/2 
s 8
f 41/21/3 42/22/4 43/41/4 
f 43/41/4 44/42/3 41/21/3 
f 42/22/4 45/25/5 46/43/5 
f 46/43/5 43/41/4 42/22/4 
f 45/25/5 47/27/6 48/44/6 
f 48/44/6 46/43/5 45/25/5 
s 16
f 47/21/7 49/45/8 50/46/8 
f 50/46/8 48/42/7 47/21/7 
f 49/45/8 51/47/9 52/48/9 
f 52/48/9 50/46/8 49/45/8 
f 51/47/9 53/49/10 54/50/10 
f 54/50/10 52/48/9 51/47/9 
f 53/49/10 55/51/11 56/52/11 
f 56/52/11 54/50/10 53/49/10 
s 32
f 55/21/12 57/22/13 58/41/13 
f 58/41/13 56/42/12 55/21/12 
f 57/22/13 59/25/14 60/43/14 
f 60/43/14 58/41/13 57/22/13 
f 59/25/14 61/27/15 62/44/15 
f 62/44/15 60/43/14 59/25/14 
s 64
f 61/21/16 63/45/17 64/46/17 
f 64/46/17 62/42/16 61/21/16 
f 63/45/17 65/47/18 66/48/18 
f 66/48/18 64/46/17 63/45/17 
f 65/47/18 67/49/19 68/50/19 
f 68/50/19 66/48/18 65/47/18 
f 67/49/19 41/51/20 44/52/20 
f 44/52/20 68/50/19 67/49/19 
s off
f 2/2/21 1/1/21 41/51/21 
f 41/51/22 67/49/22 2/2/22 
f 1/1/23 4/4/23 42/22/23 
f 42/22/24 41/21/24 1/1/24 
f 4/4/25 6/6/25 45/25/25 
f 45/25/26 42/22/26 4/4/26 
f 6/6/27 8/8/27 47/27/27 
f 47/27/28 45/25/28 6/6/28 
f 8/8/29 7/7/29 49/45/29 
f 49/45/30 47/21/30 8/8/30 
f 7/7/29 12/12/29 51/47/29 
f 51/47/29 49/45/29 7/7/29 
f 12/12/29 16/16/29 53/49/29 
f 53/49/29 51/47/29 12/12/29 
f 16/16/31 20/20/31 55/51/31 
f 55/51/32 53/49/32 16/16/32 
f 20/20/33 19/19/33 57/22/33 
f 57/22/34 55/21/34 20/20/34 
f 19/19/35 18/18/35 59/25/35 
f 59/25/36 57/22/36 19/19/36 
f 18/18/37 17/17/37 61/27/37 
f 61/27/38 59/25/38 18/18/38 
f 17/17/39 13/13/39 63/45/39 
f 63/45/40 61/21/40 17/17/40 
f 13/13/39 9/9/39 65/47/39 
f 65/47/39 63/45/39 13/13/39 
f 9/9/39 2/2/39 67/49/39 
f 67/49/39 65/47/39 9/9/39 
f 22/22/41 21/21/41 44/42/41 
f 44/42/42 43/41/42 22/22/42 
f 21/21/43 24/24/43 68/50/43 
f 68/50/44 44/52/44 21/21/44 
f 24/24/43 30/30/43 66/48/43 
f 66/48/43 68/50/43 24/24/43 
f 30/30/43 34/34/43 64/46/43 
f 64/46/43 66/48/43 30/30/43 
f 34/34/45 38/38/45 62/42/45 
f 62/42/46 64/46/46 34/34/46 
f 38/38/47 37/37/47 60/43/47 
f 60/43/48 62/44/48 38/38/48 
f 37/37/49 39/39/49 58/41/49 
f 58/41/50 60/43/50 37/37/50 
f 39/39/51 40/40/51 56/42/51 
f 56/42/52 58/41/52 39/39/52 
f 40/40/53 36/36/53 54/50/53 
f 54/50/54 56/52/54 40/40/54 
f 36/36/53 32/32/53 52/48/53 
f 52/48/53 54/50/53 36/36/53 
f 32/32/53 28/28/53 50/46/53 
f 50/46/53 52/48/53 32/32/53 
f 28/28/55 27/27/55 48/42/55 
f 48/42/56 50/46/56 28/28/56 
f 27/27/57 25/25/57 46/43/57 
f 46/43/58 48/44/58 27/27/58 
f 25/25/59 22/22/59 43/41/59 
f 43/41/60 46/43/60 25/25/60 
# 132 faces

