# 3ds Max Wavefront OBJ Exporter v0.97b - (c)2007 guruware
# File Created: 22.08.2015 17:13:21

mtllib c.mtl

#
# object Object009
#

v  -2.7186 -5.9841 1.2958
v  0.1857 -5.0888 1.2958
v  0.1857 -5.0888 -1.2958
v  -2.7186 -5.9841 -1.2958
v  -4.0662 -5.6819 1.2958
v  -4.0662 -5.6819 -1.2958
v  -4.9049 -4.7756 1.2958
v  -4.9049 -4.7756 -1.2958
v  -5.1972 -3.3831 1.2958
v  -5.1972 -3.3831 -1.2958
v  -4.9058 -1.6227 1.2958
v  -4.9058 -1.6227 -1.2958
v  -3.7451 1.0488 1.2958
v  -3.7451 1.0488 -1.2958
v  -1.9204 3.5383 1.2958
v  -1.9204 3.5383 -1.2958
v  0.3793 5.3373 1.2958
v  0.3793 5.3373 -1.2958
v  2.9648 5.9370 1.2958
v  2.9648 5.9370 -1.2958
v  4.9146 5.2066 1.2958
v  4.9146 5.2066 -1.2958
v  5.3440 3.0156 1.2958
v  5.3440 3.0156 -1.2958
v  8.8822 3.3440 1.2958
v  8.8822 3.3440 -1.2958
v  8.0982 7.5857 1.2958
v  8.0982 7.5857 -1.2958
v  3.9550 8.9997 1.2958
v  3.9550 8.9997 -1.2958
v  0.0339 8.2587 1.2958
v  0.0339 8.2587 -1.2958
v  -3.5763 6.0360 1.2958
v  -3.5763 6.0360 -1.2958
v  -6.5097 2.6724 1.2958
v  -6.5097 2.6724 -1.2958
v  -8.4002 -1.4909 1.2958
v  -8.4002 -1.4909 -1.2958
v  -8.8822 -4.4182 1.2958
v  -8.8822 -4.4182 -1.2958
v  -8.4190 -6.8363 1.2958
v  -8.4190 -6.8363 -1.2958
v  -6.8110 -8.4588 1.2958
v  -6.8110 -8.4588 -1.2958
v  -3.8581 -8.9997 1.2958
v  -3.8581 -8.9997 -1.2958
v  1.6091 -7.4873 1.2958
v  1.6091 -7.4873 -1.2958
v  6.0987 -2.9501 1.2958
v  6.0987 -2.9501 -1.2958
v  2.6347 -2.4031 1.2958
v  2.6347 -2.4031 -1.2958
# 52 vertices

vn -0.0448 0.9990 -0.0000
vn -0.5872 0.8095 -0.0000
vn 0.5473 0.8369 -0.0000
vn 0.9118 0.4107 -0.0000
vn 0.9998 0.0185 -0.0000
vn 0.9694 -0.2455 -0.0000
vn 0.8972 -0.4417 -0.0000
vn 0.7684 -0.6400 -0.0000
vn 0.4822 -0.8761 -0.0000
vn -0.0740 -0.9973 -0.0000
vn -0.7889 -0.6145 -0.0000
vn -0.9863 -0.1652 -0.0000
vn 0.1080 -0.9942 -0.0000
vn 0.7815 0.6239 -0.0000
vn 0.9878 0.1560 -0.0000
vn 0.0811 0.9967 -0.0000
vn -0.4087 0.9127 -0.0000
vn -0.7014 0.7128 -0.0000
vn -0.8750 0.4840 -0.0000
vn -0.9677 0.2522 -0.0000
vn -0.9999 -0.0112 -0.0000
vn -0.9079 -0.4191 -0.0000
vn -0.5138 -0.8579 -0.0000
vn 0.0509 -0.9987 -0.0000
vn 0.5572 -0.8304 -0.0000
vn 0.7636 -0.6457 -0.0000
vn 0.1817 0.9833 -0.0000
vn -0.7888 0.6146 -0.0000
vn 0.0000 0.0000 -1.0000
vn -0.0000 0.0000 -1.0000
vn -0.0000 -0.0000 1.0000
vn 0.0000 -0.0000 1.0000
vn -0.0000 0.0000 1.0000
vn 0.0000 0.0000 1.0000
# 34 vertex normals

vt 0.6478 0.0200 0.0000
vt 0.6621 0.0200 0.0000
vt 0.6621 0.0327 0.0000
vt 0.6478 0.0327 0.0000
vt 0.6412 0.0200 0.0000
vt 0.6412 0.0327 0.0000
vt 0.3628 0.6310 0.0000
vt 0.3628 0.6363 0.0000
vt 0.3497 0.6363 0.0000
vt 0.3497 0.6310 0.0000
vt 0.3628 0.6228 0.0000
vt 0.3497 0.6228 0.0000
vt 0.3628 0.6125 0.0000
vt 0.3497 0.6125 0.0000
vt 0.3628 0.5967 0.0000
vt 0.3497 0.5967 0.0000
vt 0.3628 0.5821 0.0000
vt 0.3497 0.5821 0.0000
vt 0.4449 0.1054 0.0000
vt 0.4331 0.1054 0.0000
vt 0.4331 0.0920 0.0000
vt 0.4449 0.0920 0.0000
vt 0.4583 0.1054 0.0000
vt 0.4583 0.0920 0.0000
vt 0.4683 0.1054 0.0000
vt 0.4683 0.0920 0.0000
vt 0.0325 0.7170 0.0000
vt 0.0325 0.7294 0.0000
vt 0.0200 0.7294 0.0000
vt 0.0200 0.7170 0.0000
vt 0.1792 0.1212 0.0000
vt 0.1622 0.1212 0.0000
vt 0.1622 0.1087 0.0000
vt 0.1792 0.1087 0.0000
vt 0.2190 0.1087 0.0000
vt 0.2429 0.1087 0.0000
vt 0.2429 0.1212 0.0000
vt 0.2190 0.1212 0.0000
vt 0.2818 0.5973 0.0000
vt 0.2818 0.6182 0.0000
vt 0.2687 0.6182 0.0000
vt 0.2687 0.5973 0.0000
vt 0.2818 0.5776 0.0000
vt 0.2687 0.5776 0.0000
vt 0.2818 0.5594 0.0000
vt 0.2687 0.5594 0.0000
vt 0.3723 0.5788 0.0000
vt 0.3723 0.5589 0.0000
vt 0.3854 0.5589 0.0000
vt 0.3854 0.5788 0.0000
vt 0.3723 0.6035 0.0000
vt 0.3854 0.6035 0.0000
vt 0.3723 0.6208 0.0000
vt 0.3854 0.6208 0.0000
vt 0.3723 0.6351 0.0000
vt 0.3854 0.6351 0.0000
vt 0.3723 0.6448 0.0000
vt 0.3854 0.6448 0.0000
vt 0.7062 0.0327 0.0000
vt 0.6918 0.0327 0.0000
vt 0.6918 0.0200 0.0000
vt 0.7062 0.0200 0.0000
vt 0.7329 0.0327 0.0000
vt 0.7329 0.0200 0.0000
vt 0.4178 0.6235 0.0000
vt 0.4178 0.6526 0.0000
vt 0.4036 0.6526 0.0000
vt 0.4036 0.6235 0.0000
vt 0.4975 0.2956 0.0000
vt 0.5142 0.2956 0.0000
vt 0.5142 0.3081 0.0000
vt 0.4975 0.3081 0.0000
vt 0.1332 0.0699 0.0000
vt 0.1163 0.0699 0.0000
vt 0.1163 0.0559 0.0000
vt 0.1332 0.0559 0.0000
vt 0.6924 0.1744 0.0000
vt 0.6942 0.1576 0.0000
vt 0.7212 0.1771 0.0000
vt 0.7083 0.1849 0.0000
vt 0.7317 0.2026 0.0000
vt 0.7144 0.1984 0.0000
vt 0.7132 0.2050 0.0000
vt 0.7297 0.2169 0.0000
vt 0.7084 0.2094 0.0000
vt 0.7212 0.2253 0.0000
vt 0.7079 0.2285 0.0000
vt 0.7008 0.2114 0.0000
vt 0.6913 0.2275 0.0000
vt 0.6908 0.2107 0.0000
vt 0.6754 0.2064 0.0000
vt 0.6674 0.2203 0.0000
vt 0.6609 0.1987 0.0000
vt 0.6475 0.2077 0.0000
vt 0.6500 0.1885 0.0000
vt 0.6338 0.1914 0.0000
vt 0.6457 0.1764 0.0000
vt 0.6282 0.1730 0.0000
vt 0.6490 0.1668 0.0000
vt 0.6346 0.1526 0.0000
vt 0.6611 0.1638 0.0000
vt 0.6580 0.1470 0.0000
vt 0.4405 0.2707 0.0000
vt 0.4554 0.2624 0.0000
vt 0.4660 0.2841 0.0000
vt 0.3920 0.2328 0.0000
vt 0.4242 0.2412 0.0000
vt 0.4124 0.2533 0.0000
vt 0.3942 0.2477 0.0000
vt 0.3657 0.2409 0.0000
vt 0.3799 0.2516 0.0000
vt 0.3756 0.2567 0.0000
vt 0.3559 0.2515 0.0000
vt 0.3752 0.2632 0.0000
vt 0.3548 0.2634 0.0000
vt 0.3608 0.2758 0.0000
vt 0.3786 0.2704 0.0000
vt 0.3721 0.2879 0.0000
vt 0.3854 0.2776 0.0000
vt 0.3985 0.2867 0.0000
vt 0.3929 0.3018 0.0000
vt 0.4137 0.2931 0.0000
vt 0.4153 0.3091 0.0000
vt 0.4285 0.2950 0.0000
vt 0.4366 0.3094 0.0000
vt 0.4406 0.2906 0.0000
vt 0.4543 0.3020 0.0000
vt 0.4459 0.2819 0.0000
# 128 texture coords

g Object009
usemtl wire_227153153
s 1
f 1/1/1 2/2/2 3/3/2 
f 3/3/2 4/4/1 1/1/1 
s 3
f 5/5/3 1/1/1 4/4/1 
f 4/4/1 6/6/3 5/5/3 
s 2
f 7/7/4 5/8/3 6/9/3 
f 6/9/3 8/10/4 7/7/4 
f 9/11/5 7/7/4 8/10/4 
f 8/10/4 10/12/5 9/11/5 
f 11/13/6 9/11/5 10/12/5 
f 10/12/5 12/14/6 11/13/6 
f 13/15/7 11/13/6 12/14/6 
f 12/14/6 14/16/7 13/15/7 
f 15/17/8 13/15/7 14/16/7 
f 14/16/7 16/18/8 15/17/8 
f 17/19/9 15/20/8 16/21/8 
f 16/21/8 18/22/9 17/19/9 
f 19/23/10 17/19/9 18/22/9 
f 18/22/9 20/24/10 19/23/10 
f 21/25/11 19/23/10 20/24/10 
f 20/24/10 22/26/11 21/25/11 
f 23/27/12 21/28/11 22/29/11 
f 22/29/11 24/30/12 23/27/12 
s 4
f 25/31/13 23/32/13 24/33/13 
f 24/33/13 26/34/13 25/31/13 
s 2
f 27/35/14 25/36/15 26/37/15 
f 26/37/15 28/38/14 27/35/14 
f 29/39/16 27/40/14 28/41/14 
f 28/41/14 30/42/16 29/39/16 
f 31/43/17 29/39/16 30/42/16 
f 30/42/16 32/44/17 31/43/17 
f 33/45/18 31/43/17 32/44/17 
f 32/44/17 34/46/18 33/45/18 
f 35/47/19 33/48/18 34/49/18 
f 34/49/18 36/50/19 35/47/19 
f 37/51/20 35/47/19 36/50/19 
f 36/50/19 38/52/20 37/51/20 
f 39/53/21 37/51/20 38/52/20 
f 38/52/20 40/54/21 39/53/21 
f 41/55/22 39/53/21 40/54/21 
f 40/54/21 42/56/22 41/55/22 
f 43/57/23 41/55/22 42/56/22 
f 42/56/22 44/58/23 43/57/23 
f 45/59/24 43/60/23 44/61/23 
f 44/61/23 46/62/24 45/59/24 
f 47/63/25 45/59/24 46/62/24 
f 46/62/24 48/64/25 47/63/25 
f 49/65/26 47/66/25 48/67/25 
f 48/67/25 50/68/26 49/65/26 
s 4
f 51/69/27 49/70/27 50/71/27 
f 50/71/27 52/72/27 51/69/27 
s 3
f 2/73/2 51/74/28 52/75/28 
f 52/75/28 3/76/2 2/73/2 
s 16
f 52/77/29 50/78/29 48/79/30 
f 3/80/30 52/77/29 48/79/30 
f 3/80/30 48/79/30 46/81/30 
f 4/82/30 3/80/30 46/81/30 
f 6/83/29 4/82/30 46/81/30 
f 6/83/29 46/81/30 44/84/30 
f 8/85/29 6/83/29 44/84/30 
f 8/85/29 44/84/30 42/86/30 
f 8/85/29 42/86/30 40/87/29 
f 10/88/29 8/85/29 40/87/29 
f 10/88/29 40/87/29 38/89/29 
f 12/90/29 10/88/29 38/89/29 
f 14/91/30 12/90/29 38/89/29 
f 14/91/30 38/89/29 36/92/30 
f 16/93/30 14/91/30 36/92/30 
f 16/93/30 36/92/30 34/94/30 
f 18/95/30 16/93/30 34/94/30 
f 18/95/30 34/94/30 32/96/29 
f 20/97/30 18/95/30 32/96/29 
f 20/97/30 32/96/29 30/98/30 
f 22/99/29 20/97/30 30/98/30 
f 22/99/29 30/98/30 28/100/29 
f 24/101/29 22/99/29 28/100/29 
f 24/101/29 28/100/29 26/102/30 
f 23/103/31 25/104/32 27/105/31 
f 47/106/32 49/107/31 51/108/32 
f 47/106/32 51/108/32 2/109/32 
f 45/110/31 47/106/32 2/109/32 
f 45/110/31 2/109/32 1/111/33 
f 45/110/31 1/111/33 5/112/32 
f 43/113/31 45/110/31 5/112/32 
f 43/113/31 5/112/32 7/114/32 
f 41/115/31 43/113/31 7/114/32 
f 39/116/31 41/115/31 7/114/32 
f 39/116/31 7/114/32 9/117/34 
f 37/118/31 39/116/31 9/117/34 
f 37/118/31 9/117/34 11/119/31 
f 37/118/31 11/119/31 13/120/31 
f 35/121/31 37/118/31 13/120/31 
f 35/121/31 13/120/31 15/122/34 
f 33/123/31 35/121/31 15/122/34 
f 33/123/31 15/122/34 17/124/32 
f 31/125/32 33/123/31 17/124/32 
f 31/125/32 17/124/32 19/126/31 
f 29/127/31 31/125/32 19/126/31 
f 29/127/31 19/126/31 21/128/31 
f 27/105/31 29/127/31 21/128/31 
f 23/103/31 27/105/31 21/128/31 
# 100 faces

