# 3ds Max Wavefront OBJ Exporter v0.97b - (c)2007 guruware
# File Created: 10.09.2015 12:26:06

mtllib star.mtl

#
# object Star001
#

v  1.1890 0.0000 -0.2500
v  3.0603 2.2234 -0.2500
v  3.0603 2.2234 0.2500
v  1.1890 0.0000 0.2500
v  0.3674 1.1308 -0.2500
v  0.3674 1.1308 0.2500
v  -1.1689 3.5975 -0.2500
v  -1.1689 3.5975 0.2500
v  -0.9619 0.6989 -0.2500
v  -0.9619 0.6989 0.2500
v  -3.7827 -0.0000 -0.2500
v  -3.7827 -0.0000 0.2500
v  -0.9619 -0.6989 -0.2500
v  -0.9619 -0.6989 0.2500
v  -1.1689 -3.5975 -0.2500
v  -1.1689 -3.5975 0.2500
v  0.3674 -1.1308 -0.2500
v  0.3674 -1.1308 0.2500
v  3.0603 -2.2234 -0.2500
v  3.0603 -2.2234 0.2500
# 20 vertices

vn 0.7651 -0.6439 -0.0000
vn -0.3760 0.9266 0.0000
vn 0.8488 0.5287 0.0000
vn -0.9975 -0.0712 -0.0000
vn -0.2405 0.9706 0.0000
vn -0.2405 -0.9706 -0.0000
vn -0.9975 0.0712 0.0000
vn 0.8488 -0.5287 -0.0000
vn -0.3760 -0.9266 -0.0000
vn 0.7651 0.6439 0.0000
vn 0.0000 0.0000 -1.0000
vn 0.0000 -0.0000 1.0000
# 12 vertex normals

vt 0.7476 0.2650 0.0000
vt 0.9417 0.2650 0.0000
vt 0.9417 0.2984 0.0000
vt 0.7476 0.2984 0.0000
vt 0.7476 0.3629 0.0000
vt 0.9417 0.3629 0.0000
vt 0.9417 0.3963 0.0000
vt 0.7476 0.3963 0.0000
vt 0.7476 0.2160 0.0000
vt 0.9417 0.2160 0.0000
vt 0.9417 0.2494 0.0000
vt 0.7476 0.2494 0.0000
vt 0.7476 0.1671 0.0000
vt 0.9417 0.1671 0.0000
vt 0.9417 0.2005 0.0000
vt 0.7476 0.2005 0.0000
vt 0.5465 0.0200 0.0000
vt 0.7377 0.0200 0.0000
vt 0.7377 0.0539 0.0000
vt 0.5465 0.0539 0.0000
vt 0.7519 0.0200 0.0000
vt 0.9431 0.0200 0.0000
vt 0.9431 0.0539 0.0000
vt 0.7519 0.0539 0.0000
vt 0.7480 0.0692 0.0000
vt 0.9418 0.0692 0.0000
vt 0.9418 0.1026 0.0000
vt 0.7480 0.1026 0.0000
vt 0.5589 0.3615 0.0000
vt 0.7377 0.3615 0.0000
vt 0.7377 0.3977 0.0000
vt 0.5589 0.3977 0.0000
vt 0.7476 0.1181 0.0000
vt 0.9417 0.1181 0.0000
vt 0.9417 0.1515 0.0000
vt 0.7476 0.1515 0.0000
vt 0.7476 0.3139 0.0000
vt 0.9417 0.3139 0.0000
vt 0.9417 0.3473 0.0000
vt 0.7476 0.3473 0.0000
vt 0.1847 0.2971 0.0000
vt 0.2602 0.3520 0.0000
vt 0.1118 0.4770 0.0000
vt 0.2136 0.2084 0.0000
vt 0.0200 0.1945 0.0000
vt 0.3069 0.2084 0.0000
vt 0.2602 0.0200 0.0000
vt 0.3358 0.2971 0.0000
vt 0.4087 0.4770 0.0000
vt 0.5005 0.1945 0.0000
vt 0.3358 0.8002 0.0000
vt 0.4087 0.9800 0.0000
vt 0.2602 0.8550 0.0000
vt 0.3069 0.7114 0.0000
vt 0.5005 0.6976 0.0000
vt 0.2136 0.7114 0.0000
vt 0.2602 0.5230 0.0000
vt 0.1118 0.9800 0.0000
vt 0.1847 0.8002 0.0000
vt 0.0200 0.6976 0.0000
# 60 texture coords

g Star001
usemtl wire_227153153
s 1
f 1/1/1 2/2/1 3/3/1 
f 1/1/1 3/3/1 4/4/1 
s 4
f 2/5/2 5/6/2 6/7/2 
f 2/5/2 6/7/2 3/8/2 
s 2
f 5/9/3 7/10/3 8/11/3 
f 5/9/3 8/11/3 6/12/3 
s 4
f 7/13/4 9/14/4 10/15/4 
f 7/13/4 10/15/4 8/16/4 
s 2
f 9/17/5 11/18/5 12/19/5 
f 9/17/5 12/19/5 10/20/5 
s 4
f 11/21/6 13/22/6 14/23/6 
f 11/21/6 14/23/6 12/24/6 
s 2
f 13/25/7 15/26/7 16/27/7 
f 13/25/7 16/27/7 14/28/7 
s 4
f 15/29/8 17/30/8 18/31/8 
f 15/29/8 18/31/8 16/32/8 
s 2
f 17/33/9 19/34/9 20/35/9 
f 17/33/9 20/35/9 18/36/9 
s 4
f 19/37/10 1/38/10 4/39/10 
f 19/37/10 4/39/10 20/40/10 
s 16
f 17/41/11 1/42/11 19/43/11 
f 13/44/11 17/41/11 15/45/11 
f 9/46/11 13/44/11 11/47/11 
f 1/42/11 5/48/11 2/49/11 
f 5/48/11 9/46/11 7/50/11 
f 1/42/11 9/46/11 5/48/11 
f 1/42/11 13/44/11 9/46/11 
f 1/42/11 17/41/11 13/44/11 
f 18/51/12 20/52/12 4/53/12 
f 14/54/12 16/55/12 18/51/12 
f 10/56/12 12/57/12 14/54/12 
f 4/53/12 3/58/12 6/59/12 
f 6/59/12 8/60/12 10/56/12 
f 4/53/12 6/59/12 10/56/12 
f 4/53/12 10/56/12 14/54/12 
f 4/53/12 14/54/12 18/51/12 
# 36 faces

