# 3ds Max Wavefront OBJ Exporter v0.97b - (c)2007 guruware
# File Created: 31.10.2015 14:38:50

mtllib colorVrisbee.mtl

#
# object Cylinder002
#

v  13.7115 0.0000 -0.0000
v  12.8846 0.0000 -4.6896
v  12.8846 0.8230 -4.6896
v  13.7115 0.8230 -0.0000
v  10.5036 0.0000 -8.8136
v  10.5036 0.8230 -8.8136
v  6.8557 0.0000 -11.8745
v  6.8557 0.8230 -11.8745
v  2.3810 0.0000 -13.5032
v  2.3810 0.8230 -13.5032
v  -2.3810 0.0000 -13.5032
v  -2.3810 0.8230 -13.5032
v  -6.8557 0.0000 -11.8745
v  -6.8557 0.8230 -11.8745
v  -10.5036 0.0000 -8.8136
v  -10.5036 0.8230 -8.8136
v  -12.8846 0.0000 -4.6896
v  -12.8846 0.8230 -4.6896
v  -13.7115 0.0000 -0.0000
v  -13.7115 0.8230 -0.0000
v  -12.8846 0.0000 4.6896
v  -12.8846 0.8230 4.6896
v  -10.5036 0.0000 8.8136
v  -10.5036 0.8230 8.8136
v  -6.8557 0.0000 11.8745
v  -6.8557 0.8230 11.8745
v  -2.3810 0.0000 13.5032
v  -2.3810 0.8230 13.5032
v  2.3810 0.0000 13.5032
v  2.3810 0.8230 13.5032
v  6.8557 0.0000 11.8745
v  6.8557 0.8230 11.8745
v  10.5036 0.0000 8.8136
v  10.5036 0.8230 8.8136
v  12.8846 0.0000 4.6896
v  12.8846 0.8230 4.6896
v  12.6960 -0.6000 -0.0000
v  11.9304 -0.6000 -4.3423
v  11.9304 -0.6000 4.3423
v  9.7257 -0.6000 8.1609
v  6.3480 -0.6000 10.9951
v  2.2046 -0.6000 12.5032
v  -2.2046 -0.6000 12.5032
v  -6.3480 -0.6000 10.9951
v  -9.7257 -0.6000 8.1609
v  -11.9304 -0.6000 4.3423
v  -12.6960 -0.6000 -0.0000
v  -11.9304 -0.6000 -4.3423
v  -9.7257 -0.6000 -8.1609
v  -6.3480 -0.6000 -10.9951
v  -2.2046 -0.6000 -12.5032
v  2.2046 -0.6000 -12.5032
v  6.3480 -0.6000 -10.9951
v  9.7257 -0.6000 -8.1609
v  11.9304 1.4230 -4.3423
v  12.6960 1.4230 -0.0000
v  9.7257 1.4230 -8.1609
v  6.3480 1.4230 -10.9951
v  2.2046 1.4230 -12.5032
v  -2.2046 1.4230 -12.5032
v  -6.3480 1.4230 -10.9951
v  -9.7257 1.4230 -8.1609
v  -11.9304 1.4230 -4.3423
v  -12.6960 1.4230 -0.0000
v  -11.9304 1.4230 4.3423
v  -9.7257 1.4230 8.1609
v  -6.3480 1.4230 10.9951
v  -2.2046 1.4230 12.5032
v  2.2046 1.4230 12.5032
v  6.3480 1.4230 10.9951
v  9.7257 1.4230 8.1609
v  11.9304 1.4230 4.3423
v  9.4990 -0.6000 -0.0000
v  8.9262 -0.6000 -3.2489
v  8.9262 -0.6000 3.2489
v  7.2767 -0.6000 6.1059
v  4.7495 -0.6000 8.2264
v  1.6495 -0.6000 9.3547
v  -1.6495 -0.6000 9.3547
v  -4.7495 -0.6000 8.2264
v  -7.2767 -0.6000 6.1059
v  -8.9262 -0.6000 3.2489
v  -9.4990 -0.6000 -0.0000
v  -8.9262 -0.6000 -3.2489
v  -7.2767 -0.6000 -6.1059
v  -4.7495 -0.6000 -8.2264
v  -1.6495 -0.6000 -9.3547
v  1.6495 -0.6000 -9.3547
v  4.7495 -0.6000 -8.2264
v  7.2767 -0.6000 -6.1059
v  8.9262 1.4230 -3.2489
v  9.4990 1.4230 -0.0000
v  7.2767 1.4230 -6.1059
v  4.7495 1.4230 -8.2264
v  1.6495 1.4230 -9.3547
v  -1.6495 1.4230 -9.3547
v  -4.7495 1.4230 -8.2264
v  -7.2767 1.4230 -6.1059
v  -8.9262 1.4230 -3.2489
v  -9.4990 1.4230 -0.0000
v  -8.9262 1.4230 3.2489
v  -7.2767 1.4230 6.1059
v  -4.7495 1.4230 8.2264
v  -1.6495 1.4230 9.3547
v  1.6495 1.4230 9.3547
v  4.7495 1.4230 8.2264
v  7.2767 1.4230 6.1059
v  8.9262 1.4230 3.2489
v  8.4836 0.0000 -0.0000
v  7.9720 0.0000 -2.9016
v  7.9720 0.0000 2.9016
v  6.4988 0.0000 5.4532
v  4.2418 0.0000 7.3470
v  1.4732 0.0000 8.3547
v  -1.4732 0.0000 8.3547
v  -4.2418 0.0000 7.3470
v  -6.4988 0.0000 5.4532
v  -7.9720 0.0000 2.9016
v  -8.4836 0.0000 -0.0000
v  -7.9720 0.0000 -2.9016
v  -6.4988 0.0000 -5.4532
v  -4.2418 0.0000 -7.3470
v  -1.4732 0.0000 -8.3547
v  1.4732 0.0000 -8.3547
v  4.2418 0.0000 -7.3470
v  6.4988 0.0000 -5.4532
v  7.9720 0.8230 -2.9016
v  8.4836 0.8230 -0.0000
v  6.4988 0.8230 -5.4532
v  4.2418 0.8230 -7.3470
v  1.4732 0.8230 -8.3547
v  -1.4732 0.8230 -8.3547
v  -4.2418 0.8230 -7.3470
v  -6.4988 0.8230 -5.4532
v  -7.9720 0.8230 -2.9016
v  -8.4836 0.8230 -0.0000
v  -7.9720 0.8230 2.9016
v  -6.4988 0.8230 5.4532
v  -4.2418 0.8230 7.3470
v  -1.4732 0.8230 8.3547
v  1.4732 0.8230 8.3547
v  4.2418 0.8230 7.3470
v  6.4988 0.8230 5.4532
v  7.9720 0.8230 2.9016
# 144 vertices

vn 1.0000 0.0000 0.0000
vn 0.9397 0.0000 -0.3420
vn 0.7660 0.0000 -0.6428
vn 0.5000 0.0000 -0.8660
vn 0.1736 0.0000 -0.9848
vn -0.1736 0.0000 -0.9848
vn -0.5000 0.0000 -0.8660
vn -0.7660 0.0000 -0.6428
vn -0.9397 0.0000 -0.3420
vn -1.0000 0.0000 -0.0000
vn -0.9397 0.0000 0.3420
vn -0.7660 0.0000 0.6428
vn -0.5000 0.0000 0.8660
vn -0.1736 0.0000 0.9848
vn 0.1736 0.0000 0.9848
vn 0.5000 0.0000 0.8660
vn 0.7660 0.0000 0.6428
vn 0.9397 0.0000 0.3420
vn 0.4780 -0.8609 -0.1740
vn 0.5087 -0.8609 0.0000
vn 0.2905 -0.9569 0.0000
vn 0.2730 -0.9569 -0.0994
vn 0.4780 -0.8609 0.1740
vn 0.2730 -0.9569 0.0994
vn 0.3897 -0.8609 0.3270
vn 0.2225 -0.9569 0.1867
vn 0.2544 -0.8609 0.4406
vn 0.1453 -0.9569 0.2516
vn 0.0883 -0.8609 0.5010
vn 0.0504 -0.9569 0.2861
vn -0.0883 -0.8609 0.5010
vn -0.0504 -0.9569 0.2861
vn -0.2544 -0.8609 0.4406
vn -0.1453 -0.9569 0.2516
vn -0.3897 -0.8609 0.3270
vn -0.2225 -0.9569 0.1867
vn -0.4780 -0.8609 0.1740
vn -0.2730 -0.9569 0.0994
vn -0.5087 -0.8609 -0.0000
vn -0.2905 -0.9569 -0.0000
vn -0.4780 -0.8609 -0.1740
vn -0.2730 -0.9569 -0.0994
vn -0.3897 -0.8609 -0.3270
vn -0.2225 -0.9569 -0.1867
vn -0.2544 -0.8609 -0.4406
vn -0.1453 -0.9569 -0.2516
vn -0.0883 -0.8609 -0.5010
vn -0.0504 -0.9569 -0.2861
vn 0.0883 -0.8609 -0.5010
vn 0.0504 -0.9569 -0.2861
vn 0.2544 -0.8609 -0.4406
vn 0.1453 -0.9569 -0.2516
vn 0.3897 -0.8609 -0.3270
vn 0.2225 -0.9569 -0.1867
vn 0.5087 0.8609 0.0000
vn 0.4780 0.8609 -0.1740
vn 0.2730 0.9569 -0.0994
vn 0.2905 0.9569 0.0000
vn 0.3897 0.8609 -0.3270
vn 0.2225 0.9569 -0.1867
vn 0.2544 0.8609 -0.4406
vn 0.1453 0.9569 -0.2516
vn 0.0883 0.8609 -0.5010
vn 0.0504 0.9569 -0.2861
vn -0.0883 0.8609 -0.5010
vn -0.0504 0.9569 -0.2861
vn -0.2544 0.8609 -0.4406
vn -0.1453 0.9569 -0.2516
vn -0.3897 0.8609 -0.3270
vn -0.2225 0.9569 -0.1867
vn -0.4780 0.8609 -0.1740
vn -0.2730 0.9569 -0.0994
vn -0.5087 0.8609 -0.0000
vn -0.2905 0.9569 -0.0000
vn -0.4780 0.8609 0.1740
vn -0.2730 0.9569 0.0994
vn -0.3897 0.8609 0.3270
vn -0.2225 0.9569 0.1867
vn -0.2544 0.8609 0.4406
vn -0.1453 0.9569 0.2516
vn -0.0883 0.8609 0.5010
vn -0.0504 0.9569 0.2861
vn 0.0883 0.8609 0.5010
vn 0.0504 0.9569 0.2861
vn 0.2544 0.8609 0.4406
vn 0.1453 0.9569 0.2516
vn 0.3897 0.8609 0.3270
vn 0.2225 0.9569 0.1867
vn 0.4780 0.8609 0.1740
vn 0.2730 0.9569 0.0994
vn -0.2360 -0.9717 -0.0000
vn -0.2218 -0.9717 0.0807
vn -0.2218 -0.9717 -0.0807
vn -0.1808 -0.9717 -0.1517
vn -0.1180 -0.9717 -0.2044
vn -0.0410 -0.9717 -0.2325
vn 0.0410 -0.9717 -0.2325
vn 0.1180 -0.9717 -0.2044
vn 0.1808 -0.9717 -0.1517
vn 0.2218 -0.9717 -0.0807
vn 0.2360 -0.9717 0.0000
vn 0.2218 -0.9717 0.0807
vn 0.1808 -0.9717 0.1517
vn 0.1180 -0.9717 0.2044
vn 0.0410 -0.9717 0.2325
vn -0.0410 -0.9717 0.2325
vn -0.1180 -0.9717 0.2044
vn -0.1808 -0.9717 0.1517
vn -0.2218 0.9717 0.0807
vn -0.2360 0.9717 -0.0000
vn -0.1808 0.9717 0.1517
vn -0.1180 0.9717 0.2044
vn -0.0410 0.9717 0.2325
vn 0.0410 0.9717 0.2325
vn 0.1180 0.9717 0.2044
vn 0.1808 0.9717 0.1517
vn 0.2218 0.9717 0.0807
vn 0.2360 0.9717 0.0000
vn 0.2218 0.9717 -0.0807
vn 0.1808 0.9717 -0.1517
vn 0.1180 0.9717 -0.2044
vn 0.0410 0.9717 -0.2325
vn -0.0410 0.9717 -0.2325
vn -0.1180 0.9717 -0.2044
vn -0.1808 0.9717 -0.1517
vn -0.2218 0.9717 -0.0807
vn -0.9397 -0.0000 -0.3420
vn 1.0000 -0.0000 0.0000
vn 0.9397 -0.0000 0.3420
vn -0.1736 -0.0000 0.9848
vn -0.5000 -0.0000 0.8660
# 131 vertex normals

vt 0.0676 0.1638 0.0000
vt 0.0676 0.2191 0.0000
vt 0.0579 0.2191 0.0000
vt 0.0579 0.1638 0.0000
vt 0.0676 0.2678 0.0000
vt 0.0579 0.2678 0.0000
vt 0.0297 0.0200 0.0000
vt 0.0297 0.0630 0.0000
vt 0.0200 0.0630 0.0000
vt 0.0200 0.0200 0.0000
vt 0.0297 0.1158 0.0000
vt 0.0200 0.1158 0.0000
vt 0.0297 0.1720 0.0000
vt 0.0200 0.1720 0.0000
vt 0.0297 0.2248 0.0000
vt 0.0200 0.2248 0.0000
vt 0.0297 0.2678 0.0000
vt 0.0200 0.2678 0.0000
vt 0.4143 0.0599 0.0000
vt 0.4143 0.1085 0.0000
vt 0.4046 0.1085 0.0000
vt 0.4046 0.0599 0.0000
vt 0.4143 0.1638 0.0000
vt 0.4046 0.1638 0.0000
vt 0.4143 0.2191 0.0000
vt 0.4046 0.2191 0.0000
vt 0.4143 0.2678 0.0000
vt 0.4046 0.2678 0.0000
vt 0.3764 0.0200 0.0000
vt 0.3764 0.0630 0.0000
vt 0.3667 0.0630 0.0000
vt 0.3667 0.0200 0.0000
vt 0.3764 0.1158 0.0000
vt 0.3667 0.1158 0.0000
vt 0.3764 0.1720 0.0000
vt 0.3667 0.1720 0.0000
vt 0.3764 0.2248 0.0000
vt 0.3667 0.2248 0.0000
vt 0.3764 0.2678 0.0000
vt 0.3667 0.2678 0.0000
vt 0.0676 0.0599 0.0000
vt 0.0676 0.1085 0.0000
vt 0.0579 0.1085 0.0000
vt 0.0579 0.0599 0.0000
vt 0.5813 0.6097 0.0000
vt 0.5260 0.6194 0.0000
vt 0.5260 0.6074 0.0000
vt 0.5772 0.5984 0.0000
vt 0.4707 0.6097 0.0000
vt 0.4748 0.5984 0.0000
vt 0.4220 0.5816 0.0000
vt 0.4297 0.5724 0.0000
vt 0.3859 0.5385 0.0000
vt 0.3963 0.5326 0.0000
vt 0.3667 0.4858 0.0000
vt 0.3785 0.4837 0.0000
vt 0.3667 0.4296 0.0000
vt 0.3785 0.4317 0.0000
vt 0.3859 0.3768 0.0000
vt 0.3963 0.3828 0.0000
vt 0.4220 0.3338 0.0000
vt 0.4297 0.3430 0.0000
vt 0.4707 0.3057 0.0000
vt 0.4748 0.3170 0.0000
vt 0.5260 0.2960 0.0000
vt 0.5260 0.3079 0.0000
vt 0.5813 0.3057 0.0000
vt 0.5772 0.3170 0.0000
vt 0.6299 0.3338 0.0000
vt 0.6222 0.3430 0.0000
vt 0.6660 0.3768 0.0000
vt 0.6557 0.3828 0.0000
vt 0.6853 0.4296 0.0000
vt 0.6735 0.4317 0.0000
vt 0.6853 0.4858 0.0000
vt 0.6735 0.4837 0.0000
vt 0.6660 0.5385 0.0000
vt 0.6557 0.5326 0.0000
vt 0.6299 0.5816 0.0000
vt 0.6222 0.5724 0.0000
vt 0.1793 0.6194 0.0000
vt 0.1240 0.6097 0.0000
vt 0.1281 0.5984 0.0000
vt 0.1793 0.6074 0.0000
vt 0.0753 0.5816 0.0000
vt 0.0830 0.5724 0.0000
vt 0.0392 0.5385 0.0000
vt 0.0496 0.5326 0.0000
vt 0.0200 0.4858 0.0000
vt 0.0318 0.4837 0.0000
vt 0.0200 0.4296 0.0000
vt 0.0318 0.4317 0.0000
vt 0.0392 0.3768 0.0000
vt 0.0496 0.3828 0.0000
vt 0.0753 0.3338 0.0000
vt 0.0830 0.3430 0.0000
vt 0.1240 0.3057 0.0000
vt 0.1281 0.3170 0.0000
vt 0.1793 0.2960 0.0000
vt 0.1793 0.3079 0.0000
vt 0.2346 0.3057 0.0000
vt 0.2305 0.3170 0.0000
vt 0.2832 0.3338 0.0000
vt 0.2755 0.3430 0.0000
vt 0.3193 0.3768 0.0000
vt 0.3090 0.3828 0.0000
vt 0.3385 0.4296 0.0000
vt 0.3268 0.4317 0.0000
vt 0.3385 0.4858 0.0000
vt 0.3268 0.4837 0.0000
vt 0.3193 0.5385 0.0000
vt 0.3090 0.5326 0.0000
vt 0.2832 0.5816 0.0000
vt 0.2755 0.5724 0.0000
vt 0.2346 0.6097 0.0000
vt 0.2305 0.5984 0.0000
vt 0.5389 0.9710 0.0000
vt 0.4877 0.9800 0.0000
vt 0.4877 0.9423 0.0000
vt 0.5260 0.9355 0.0000
vt 0.4364 0.9710 0.0000
vt 0.4493 0.9355 0.0000
vt 0.3914 0.9450 0.0000
vt 0.4156 0.9161 0.0000
vt 0.3580 0.9051 0.0000
vt 0.3906 0.8863 0.0000
vt 0.3402 0.8563 0.0000
vt 0.3773 0.8497 0.0000
vt 0.3402 0.8042 0.0000
vt 0.3773 0.8108 0.0000
vt 0.3580 0.7554 0.0000
vt 0.3906 0.7742 0.0000
vt 0.3914 0.7155 0.0000
vt 0.4156 0.7444 0.0000
vt 0.4364 0.6895 0.0000
vt 0.4493 0.7250 0.0000
vt 0.4877 0.6805 0.0000
vt 0.4877 0.7182 0.0000
vt 0.5389 0.6895 0.0000
vt 0.5260 0.7250 0.0000
vt 0.5839 0.7155 0.0000
vt 0.5597 0.7444 0.0000
vt 0.6173 0.7554 0.0000
vt 0.5847 0.7742 0.0000
vt 0.6351 0.8042 0.0000
vt 0.5980 0.8108 0.0000
vt 0.6351 0.8563 0.0000
vt 0.5980 0.8497 0.0000
vt 0.6173 0.9051 0.0000
vt 0.5847 0.8863 0.0000
vt 0.5839 0.9450 0.0000
vt 0.5597 0.9161 0.0000
vt 0.1675 0.9800 0.0000
vt 0.1163 0.9710 0.0000
vt 0.1292 0.9355 0.0000
vt 0.1675 0.9423 0.0000
vt 0.0712 0.9450 0.0000
vt 0.0955 0.9161 0.0000
vt 0.0378 0.9051 0.0000
vt 0.0704 0.8863 0.0000
vt 0.0200 0.8563 0.0000
vt 0.0571 0.8497 0.0000
vt 0.0200 0.8042 0.0000
vt 0.0571 0.8108 0.0000
vt 0.0378 0.7554 0.0000
vt 0.0704 0.7742 0.0000
vt 0.0712 0.7155 0.0000
vt 0.0955 0.7444 0.0000
vt 0.1163 0.6895 0.0000
vt 0.1292 0.7250 0.0000
vt 0.1675 0.6805 0.0000
vt 0.1675 0.7182 0.0000
vt 0.2187 0.6895 0.0000
vt 0.2058 0.7250 0.0000
vt 0.2637 0.7155 0.0000
vt 0.2395 0.7444 0.0000
vt 0.2972 0.7554 0.0000
vt 0.2645 0.7742 0.0000
vt 0.3150 0.8042 0.0000
vt 0.2778 0.8108 0.0000
vt 0.3150 0.8563 0.0000
vt 0.2778 0.8497 0.0000
vt 0.2972 0.9051 0.0000
vt 0.2645 0.8863 0.0000
vt 0.2637 0.9450 0.0000
vt 0.2395 0.9161 0.0000
vt 0.2187 0.9710 0.0000
vt 0.2058 0.9355 0.0000
vt 0.4877 0.9303 0.0000
vt 0.5219 0.9243 0.0000
vt 0.4534 0.9243 0.0000
vt 0.4233 0.9069 0.0000
vt 0.4010 0.8803 0.0000
vt 0.3891 0.8476 0.0000
vt 0.3891 0.8129 0.0000
vt 0.4010 0.7802 0.0000
vt 0.4233 0.7536 0.0000
vt 0.4534 0.7362 0.0000
vt 0.4877 0.7302 0.0000
vt 0.5219 0.7362 0.0000
vt 0.5520 0.7536 0.0000
vt 0.5743 0.7802 0.0000
vt 0.5862 0.8129 0.0000
vt 0.5862 0.8476 0.0000
vt 0.5743 0.8803 0.0000
vt 0.5520 0.9069 0.0000
vt 0.1333 0.9243 0.0000
vt 0.1675 0.9303 0.0000
vt 0.1032 0.9069 0.0000
vt 0.0808 0.8803 0.0000
vt 0.0689 0.8476 0.0000
vt 0.0689 0.8129 0.0000
vt 0.0808 0.7802 0.0000
vt 0.1032 0.7536 0.0000
vt 0.1333 0.7362 0.0000
vt 0.1675 0.7302 0.0000
vt 0.2017 0.7362 0.0000
vt 0.2318 0.7536 0.0000
vt 0.2541 0.7802 0.0000
vt 0.2660 0.8129 0.0000
vt 0.2660 0.8476 0.0000
vt 0.2541 0.8803 0.0000
vt 0.2318 0.9069 0.0000
vt 0.2017 0.9243 0.0000
vt 0.5765 0.4046 0.0000
vt 0.5422 0.4046 0.0000
vt 0.5422 0.3949 0.0000
vt 0.5765 0.3949 0.0000
vt 0.5080 0.4046 0.0000
vt 0.5080 0.3949 0.0000
vt 0.4779 0.4046 0.0000
vt 0.4779 0.3949 0.0000
vt 0.6098 0.3622 0.0000
vt 0.5832 0.3622 0.0000
vt 0.5832 0.3525 0.0000
vt 0.6098 0.3525 0.0000
vt 0.5506 0.3622 0.0000
vt 0.5506 0.3525 0.0000
vt 0.5158 0.3622 0.0000
vt 0.5158 0.3525 0.0000
vt 0.4831 0.3622 0.0000
vt 0.4831 0.3525 0.0000
vt 0.4565 0.3622 0.0000
vt 0.4565 0.3525 0.0000
vt 0.6066 0.4237 0.0000
vt 0.5765 0.4237 0.0000
vt 0.5765 0.4140 0.0000
vt 0.6066 0.4140 0.0000
vt 0.5422 0.4237 0.0000
vt 0.5422 0.4140 0.0000
vt 0.5080 0.4237 0.0000
vt 0.5080 0.4140 0.0000
vt 0.4779 0.4237 0.0000
vt 0.4779 0.4140 0.0000
vt 0.6066 0.3855 0.0000
vt 0.5799 0.3855 0.0000
vt 0.5799 0.3758 0.0000
vt 0.6066 0.3758 0.0000
vt 0.5473 0.3855 0.0000
vt 0.5473 0.3758 0.0000
vt 0.5125 0.3855 0.0000
vt 0.5125 0.3758 0.0000
vt 0.4799 0.3855 0.0000
vt 0.4799 0.3758 0.0000
vt 0.4532 0.3855 0.0000
vt 0.4532 0.3758 0.0000
vt 0.6066 0.4046 0.0000
vt 0.6066 0.3949 0.0000
# 268 texture coords

g Cylinder002
usemtl wire_138008110
s 1
f 1/1/1 2/2/2 3/3/2 
f 3/3/2 4/4/1 1/1/1 
f 2/2/2 5/5/3 6/6/3 
f 6/6/3 3/3/2 2/2/2 
f 5/7/3 7/8/4 8/9/4 
f 8/9/4 6/10/3 5/7/3 
f 7/8/4 9/11/5 10/12/5 
f 10/12/5 8/9/4 7/8/4 
f 9/11/5 11/13/6 12/14/6 
f 12/14/6 10/12/5 9/11/5 
f 11/13/6 13/15/7 14/16/7 
f 14/16/7 12/14/6 11/13/6 
f 13/15/7 15/17/8 16/18/8 
f 16/18/8 14/16/7 13/15/7 
f 15/19/8 17/20/9 18/21/9 
f 18/21/9 16/22/8 15/19/8 
f 17/20/9 19/23/10 20/24/10 
f 20/24/10 18/21/9 17/20/9 
f 19/23/10 21/25/11 22/26/11 
f 22/26/11 20/24/10 19/23/10 
f 21/25/11 23/27/12 24/28/12 
f 24/28/12 22/26/11 21/25/11 
f 23/29/12 25/30/13 26/31/13 
f 26/31/13 24/32/12 23/29/12 
f 25/30/13 27/33/14 28/34/14 
f 28/34/14 26/31/13 25/30/13 
f 27/33/14 29/35/15 30/36/15 
f 30/36/15 28/34/14 27/33/14 
f 29/35/15 31/37/16 32/38/16 
f 32/38/16 30/36/15 29/35/15 
f 31/37/16 33/39/17 34/40/17 
f 34/40/17 32/38/16 31/37/16 
f 33/41/17 35/42/18 36/43/18 
f 36/43/18 34/44/17 33/41/17 
f 35/42/18 1/1/1 4/4/1 
f 4/4/1 36/43/18 35/42/18 
s 2
f 2/45/19 1/46/20 37/47/21 
f 37/47/21 38/48/22 2/45/19 
f 1/46/20 35/49/23 39/50/24 
f 39/50/24 37/47/21 1/46/20 
f 35/49/23 33/51/25 40/52/26 
f 40/52/26 39/50/24 35/49/23 
f 33/51/25 31/53/27 41/54/28 
f 41/54/28 40/52/26 33/51/25 
f 31/53/27 29/55/29 42/56/30 
f 42/56/30 41/54/28 31/53/27 
f 29/55/29 27/57/31 43/58/32 
f 43/58/32 42/56/30 29/55/29 
f 27/57/31 25/59/33 44/60/34 
f 44/60/34 43/58/32 27/57/31 
f 25/59/33 23/61/35 45/62/36 
f 45/62/36 44/60/34 25/59/33 
f 23/61/35 21/63/37 46/64/38 
f 46/64/38 45/62/36 23/61/35 
f 21/63/37 19/65/39 47/66/40 
f 47/66/40 46/64/38 21/63/37 
f 19/65/39 17/67/41 48/68/42 
f 48/68/42 47/66/40 19/65/39 
f 17/67/41 15/69/43 49/70/44 
f 49/70/44 48/68/42 17/67/41 
f 15/69/43 13/71/45 50/72/46 
f 50/72/46 49/70/44 15/69/43 
f 13/71/45 11/73/47 51/74/48 
f 51/74/48 50/72/46 13/71/45 
f 11/73/47 9/75/49 52/76/50 
f 52/76/50 51/74/48 11/73/47 
f 9/75/49 7/77/51 53/78/52 
f 53/78/52 52/76/50 9/75/49 
f 7/77/51 5/79/53 54/80/54 
f 54/80/54 53/78/52 7/77/51 
f 5/79/53 2/45/19 38/48/22 
f 38/48/22 54/80/54 5/79/53 
f 4/81/55 3/82/56 55/83/57 
f 55/83/57 56/84/58 4/81/55 
f 3/82/56 6/85/59 57/86/60 
f 57/86/60 55/83/57 3/82/56 
f 6/85/59 8/87/61 58/88/62 
f 58/88/62 57/86/60 6/85/59 
f 8/87/61 10/89/63 59/90/64 
f 59/90/64 58/88/62 8/87/61 
f 10/89/63 12/91/65 60/92/66 
f 60/92/66 59/90/64 10/89/63 
f 12/91/65 14/93/67 61/94/68 
f 61/94/68 60/92/66 12/91/65 
f 14/93/67 16/95/69 62/96/70 
f 62/96/70 61/94/68 14/93/67 
f 16/95/69 18/97/71 63/98/72 
f 63/98/72 62/96/70 16/95/69 
f 18/97/71 20/99/73 64/100/74 
f 64/100/74 63/98/72 18/97/71 
f 20/99/73 22/101/75 65/102/76 
f 65/102/76 64/100/74 20/99/73 
f 22/101/75 24/103/77 66/104/78 
f 66/104/78 65/102/76 22/101/75 
f 24/103/77 26/105/79 67/106/80 
f 67/106/80 66/104/78 24/103/77 
f 26/105/79 28/107/81 68/108/82 
f 68/108/82 67/106/80 26/105/79 
f 28/107/81 30/109/83 69/110/84 
f 69/110/84 68/108/82 28/107/81 
f 30/109/83 32/111/85 70/112/86 
f 70/112/86 69/110/84 30/109/83 
f 32/111/85 34/113/87 71/114/88 
f 71/114/88 70/112/86 32/111/85 
f 34/113/87 36/115/89 72/116/90 
f 72/116/90 71/114/88 34/113/87 
f 36/115/89 4/81/55 56/84/58 
f 56/84/58 72/116/90 36/115/89 
f 38/117/22 37/118/21 73/119/91 
f 73/119/91 74/120/92 38/117/22 
f 37/118/21 39/121/24 75/122/93 
f 75/122/93 73/119/91 37/118/21 
f 39/121/24 40/123/26 76/124/94 
f 76/124/94 75/122/93 39/121/24 
f 40/123/26 41/125/28 77/126/95 
f 77/126/95 76/124/94 40/123/26 
f 41/125/28 42/127/30 78/128/96 
f 78/128/96 77/126/95 41/125/28 
f 42/127/30 43/129/32 79/130/97 
f 79/130/97 78/128/96 42/127/30 
f 43/129/32 44/131/34 80/132/98 
f 80/132/98 79/130/97 43/129/32 
f 44/131/34 45/133/36 81/134/99 
f 81/134/99 80/132/98 44/131/34 
f 45/133/36 46/135/38 82/136/100 
f 82/136/100 81/134/99 45/133/36 
f 46/135/38 47/137/40 83/138/101 
f 83/138/101 82/136/100 46/135/38 
f 47/137/40 48/139/42 84/140/102 
f 84/140/102 83/138/101 47/137/40 
f 48/139/42 49/141/44 85/142/103 
f 85/142/103 84/140/102 48/139/42 
f 49/141/44 50/143/46 86/144/104 
f 86/144/104 85/142/103 49/141/44 
f 50/143/46 51/145/48 87/146/105 
f 87/146/105 86/144/104 50/143/46 
f 51/145/48 52/147/50 88/148/106 
f 88/148/106 87/146/105 51/145/48 
f 52/147/50 53/149/52 89/150/107 
f 89/150/107 88/148/106 52/147/50 
f 53/149/52 54/151/54 90/152/108 
f 90/152/108 89/150/107 53/149/52 
f 54/151/54 38/117/22 74/120/92 
f 74/120/92 90/152/108 54/151/54 
f 56/153/58 55/154/57 91/155/109 
f 91/155/109 92/156/110 56/153/58 
f 55/154/57 57/157/60 93/158/111 
f 93/158/111 91/155/109 55/154/57 
f 57/157/60 58/159/62 94/160/112 
f 94/160/112 93/158/111 57/157/60 
f 58/159/62 59/161/64 95/162/113 
f 95/162/113 94/160/112 58/159/62 
f 59/161/64 60/163/66 96/164/114 
f 96/164/114 95/162/113 59/161/64 
f 60/163/66 61/165/68 97/166/115 
f 97/166/115 96/164/114 60/163/66 
f 61/165/68 62/167/70 98/168/116 
f 98/168/116 97/166/115 61/165/68 
f 62/167/70 63/169/72 99/170/117 
f 99/170/117 98/168/116 62/167/70 
f 63/169/72 64/171/74 100/172/118 
f 100/172/118 99/170/117 63/169/72 
f 64/171/74 65/173/76 101/174/119 
f 101/174/119 100/172/118 64/171/74 
f 65/173/76 66/175/78 102/176/120 
f 102/176/120 101/174/119 65/173/76 
f 66/175/78 67/177/80 103/178/121 
f 103/178/121 102/176/120 66/175/78 
f 67/177/80 68/179/82 104/180/122 
f 104/180/122 103/178/121 67/177/80 
f 68/179/82 69/181/84 105/182/123 
f 105/182/123 104/180/122 68/179/82 
f 69/181/84 70/183/86 106/184/124 
f 106/184/124 105/182/123 69/181/84 
f 70/183/86 71/185/88 107/186/125 
f 107/186/125 106/184/124 70/183/86 
f 71/185/88 72/187/90 108/188/126 
f 108/188/126 107/186/125 71/185/88 
f 72/187/90 56/153/58 92/156/110 
f 92/156/110 108/188/126 72/187/90 
f 74/120/92 73/119/91 109/189/39 
f 109/189/39 110/190/37 74/120/92 
f 73/119/91 75/122/93 111/191/41 
f 111/191/41 109/189/39 73/119/91 
f 75/122/93 76/124/94 112/192/43 
f 112/192/43 111/191/41 75/122/93 
f 76/124/94 77/126/95 113/193/45 
f 113/193/45 112/192/43 76/124/94 
f 77/126/95 78/128/96 114/194/47 
f 114/194/47 113/193/45 77/126/95 
f 78/128/96 79/130/97 115/195/49 
f 115/195/49 114/194/47 78/128/96 
f 79/130/97 80/132/98 116/196/51 
f 116/196/51 115/195/49 79/130/97 
f 80/132/98 81/134/99 117/197/53 
f 117/197/53 116/196/51 80/132/98 
f 81/134/99 82/136/100 118/198/19 
f 118/198/19 117/197/53 81/134/99 
f 82/136/100 83/138/101 119/199/20 
f 119/199/20 118/198/19 82/136/100 
f 83/138/101 84/140/102 120/200/23 
f 120/200/23 119/199/20 83/138/101 
f 84/140/102 85/142/103 121/201/25 
f 121/201/25 120/200/23 84/140/102 
f 85/142/103 86/144/104 122/202/27 
f 122/202/27 121/201/25 85/142/103 
f 86/144/104 87/146/105 123/203/29 
f 123/203/29 122/202/27 86/144/104 
f 87/146/105 88/148/106 124/204/31 
f 124/204/31 123/203/29 87/146/105 
f 88/148/106 89/150/107 125/205/33 
f 125/205/33 124/204/31 88/148/106 
f 89/150/107 90/152/108 126/206/35 
f 126/206/35 125/205/33 89/150/107 
f 90/152/108 74/120/92 110/190/37 
f 110/190/37 126/206/35 90/152/108 
f 92/156/110 91/155/109 127/207/75 
f 127/207/75 128/208/73 92/156/110 
f 91/155/109 93/158/111 129/209/77 
f 129/209/77 127/207/75 91/155/109 
f 93/158/111 94/160/112 130/210/79 
f 130/210/79 129/209/77 93/158/111 
f 94/160/112 95/162/113 131/211/81 
f 131/211/81 130/210/79 94/160/112 
f 95/162/113 96/164/114 132/212/83 
f 132/212/83 131/211/81 95/162/113 
f 96/164/114 97/166/115 133/213/85 
f 133/213/85 132/212/83 96/164/114 
f 97/166/115 98/168/116 134/214/87 
f 134/214/87 133/213/85 97/166/115 
f 98/168/116 99/170/117 135/215/89 
f 135/215/89 134/214/87 98/168/116 
f 99/170/117 100/172/118 136/216/55 
f 136/216/55 135/215/89 99/170/117 
f 100/172/118 101/174/119 137/217/56 
f 137/217/56 136/216/55 100/172/118 
f 101/174/119 102/176/120 138/218/59 
f 138/218/59 137/217/56 101/174/119 
f 102/176/120 103/178/121 139/219/61 
f 139/219/61 138/218/59 102/176/120 
f 103/178/121 104/180/122 140/220/63 
f 140/220/63 139/219/61 103/178/121 
f 104/180/122 105/182/123 141/221/65 
f 141/221/65 140/220/63 104/180/122 
f 105/182/123 106/184/124 142/222/67 
f 142/222/67 141/221/65 105/182/123 
f 106/184/124 107/186/125 143/223/69 
f 143/223/69 142/222/67 106/184/124 
f 107/186/125 108/188/126 144/224/71 
f 144/224/71 143/223/69 107/186/125 
f 108/188/126 92/156/110 128/208/73 
f 128/208/73 144/224/71 108/188/126 
s 1
f 110/225/11 109/226/10 128/227/10 
f 128/227/10 127/228/11 110/225/11 
f 109/226/10 111/229/9 144/230/127 
f 144/230/127 128/227/10 109/226/10 
f 111/229/9 112/231/8 143/232/8 
f 143/232/8 144/230/127 111/229/9 
f 112/233/8 113/234/7 142/235/7 
f 142/235/7 143/236/8 112/233/8 
f 113/234/7 114/237/6 141/238/6 
f 141/238/6 142/235/7 113/234/7 
f 114/237/6 115/239/5 140/240/5 
f 140/240/5 141/238/6 114/237/6 
f 115/239/5 116/241/4 139/242/4 
f 139/242/4 140/240/5 115/239/5 
f 116/241/4 117/243/3 138/244/3 
f 138/244/3 139/242/4 116/241/4 
f 117/245/3 118/246/2 137/247/2 
f 137/247/2 138/248/3 117/245/3 
f 118/246/2 119/249/1 136/250/128 
f 136/250/128 137/247/2 118/246/2 
f 119/249/1 120/251/18 135/252/129 
f 135/252/129 136/250/128 119/249/1 
f 120/251/18 121/253/17 134/254/17 
f 134/254/17 135/252/129 120/251/18 
f 121/255/17 122/256/16 133/257/16 
f 133/257/16 134/258/17 121/255/17 
f 122/256/16 123/259/15 132/260/15 
f 132/260/15 133/257/16 122/256/16 
f 123/259/15 124/261/130 131/262/14 
f 131/262/14 132/260/15 123/259/15 
f 124/261/130 125/263/131 130/264/131 
f 130/264/131 131/262/14 124/261/130 
f 125/263/131 126/265/12 129/266/12 
f 129/266/12 130/264/131 125/263/131 
f 126/267/12 110/225/11 127/228/11 
f 127/228/11 129/268/12 126/267/12 
# 288 faces

