# 3ds Max Wavefront OBJ Exporter v0.97b - (c)2007 guruware
# File Created: 31.10.2015 14:38:40

mtllib colorArrow.mtl

#
# object Box028
#

v  -3.5844 0.0000 0.0897
v  -6.8450 0.0000 0.0897
v  0.0573 0.0000 -6.8125
v  3.6990 1.0000 0.0897
v  6.9595 1.0000 0.0897
v  0.0573 1.0000 -6.8125
v  3.6990 0.0000 0.0897
v  6.9595 0.0000 0.0897
v  -6.8450 1.0000 0.0897
v  -3.5844 1.0000 0.0897
v  3.6990 1.0000 5.5639
v  -3.5844 1.0000 5.5639
v  -3.5844 0.0000 5.5639
v  3.6990 0.0000 5.5639
v  3.3150 1.6110 0.1848
v  -3.2004 1.6110 0.1848
v  -3.2004 1.6110 5.1799
v  3.3150 1.6110 5.1799
v  -3.2004 -0.6110 0.1848
v  3.3150 -0.6110 0.1848
v  3.3150 -0.6110 5.1799
v  -3.2004 -0.6110 5.1799
v  0.0573 1.6110 -5.9896
v  0.0573 -0.6110 -5.9896
# 24 vertices

vn 0.0000 -1.0000 -0.0000
vn 0.0000 1.0000 -0.0000
vn 0.0000 0.0000 1.0000
vn 0.7071 0.0000 -0.7071
vn -0.7071 0.0000 -0.7071
vn -0.0000 0.0000 1.0000
vn 1.0000 0.0000 0.0000
vn -1.0000 0.0000 -0.0000
vn -0.0000 0.5321 0.8467
vn 0.8467 0.5321 0.0000
vn 0.7488 0.5321 -0.3951
vn -0.7488 0.5321 -0.3951
vn -0.8467 0.5321 -0.0000
vn -0.0000 -0.5321 0.8467
vn -0.8467 -0.5321 -0.0000
vn -0.7488 -0.5321 -0.3951
vn 0.7488 -0.5321 -0.3951
vn 0.8467 -0.5321 0.0000
# 18 vertex normals

vt 0.3254 0.5741 0.0000
vt 0.3959 0.5037 0.0000
vt 0.3959 0.8021 0.0000
vt 0.8032 0.7316 0.0000
vt 0.7327 0.8021 0.0000
vt 0.7327 0.5037 0.0000
vt 0.4207 0.0200 0.0000
vt 0.5046 0.0200 0.0000
vt 0.5046 0.0564 0.0000
vt 0.4207 0.0564 0.0000
vt 0.5477 0.0200 0.0000
vt 0.8462 0.0200 0.0000
vt 0.8462 0.0506 0.0000
vt 0.5477 0.0506 0.0000
vt 0.0200 0.8739 0.0000
vt 0.3184 0.8739 0.0000
vt 0.3184 0.9045 0.0000
vt 0.0200 0.9045 0.0000
vt 0.6157 0.5743 0.0000
vt 0.5319 0.5743 0.0000
vt 0.5319 0.5380 0.0000
vt 0.6157 0.5380 0.0000
vt 0.2520 0.3707 0.0000
vt 0.0648 0.3707 0.0000
vt 0.0648 0.3344 0.0000
vt 0.2520 0.3344 0.0000
vt 0.2800 0.0564 0.0000
vt 0.2800 0.0200 0.0000
vt 0.4715 0.2500 0.0000
vt 0.2732 0.2309 0.0000
vt 0.2879 0.0789 0.0000
vt 0.4862 0.0980 0.0000
vt 0.0656 0.4409 0.0000
vt 0.0656 0.4089 0.0000
vt 0.2409 0.4089 0.0000
vt 0.2409 0.4409 0.0000
vt 0.4715 0.4566 0.0000
vt 0.2732 0.4375 0.0000
vt 0.2879 0.2855 0.0000
vt 0.4862 0.3046 0.0000
vt 0.8311 0.8021 0.0000
vt 0.8311 0.5037 0.0000
vt 0.9016 0.5741 0.0000
vt 0.5319 0.5905 0.0000
vt 0.7086 0.6824 0.0000
vt 0.5332 0.8040 0.0000
vt 0.0214 0.8040 0.0000
vt 0.0200 0.5905 0.0000
vt 0.1968 0.6824 0.0000
vt 0.2270 0.8021 0.0000
vt 0.2270 0.5037 0.0000
vt 0.2975 0.5741 0.0000
vt 0.0200 0.2312 0.0000
vt 0.2427 0.2312 0.0000
vt 0.2309 0.2533 0.0000
vt 0.0317 0.2533 0.0000
vt 0.0695 0.2931 0.0000
vt 0.2369 0.2931 0.0000
vt 0.2340 0.3151 0.0000
vt 0.0813 0.3151 0.0000
vt 0.9800 0.5629 0.0000
vt 0.9800 0.8164 0.0000
vt 0.9592 0.7966 0.0000
vt 0.9592 0.5699 0.0000
vt 0.9419 0.5629 0.0000
vt 0.9419 0.8164 0.0000
vt 0.9211 0.8095 0.0000
vt 0.9211 0.5827 0.0000
vt 0.2286 0.4605 0.0000
vt 0.0686 0.4605 0.0000
vt 0.2427 0.2093 0.0000
vt 0.0200 0.2093 0.0000
vt 0.0317 0.1872 0.0000
vt 0.2309 0.1872 0.0000
vt 0.0686 0.3893 0.0000
vt 0.2286 0.3893 0.0000
vt 0.4155 0.8164 0.0000
vt 0.4155 0.5629 0.0000
vt 0.4362 0.5827 0.0000
vt 0.4362 0.8095 0.0000
vt 0.4536 0.8164 0.0000
vt 0.4536 0.5629 0.0000
vt 0.4743 0.5699 0.0000
vt 0.4743 0.7966 0.0000
vt 0.2439 0.1653 0.0000
vt 0.0765 0.1653 0.0000
vt 0.0883 0.1432 0.0000
vt 0.2410 0.1432 0.0000
# 88 texture coords

g Box028
usemtl wire_138008110
s 2
f 1/1/1 2/2/1 3/3/1 
s 4
f 4/4/2 5/5/2 6/6/2 
s 8
f 7/7/3 8/8/3 5/9/3 
f 5/9/3 4/10/3 7/7/3 
s 16
f 8/11/4 3/12/4 6/13/4 
f 6/13/4 5/14/4 8/11/4 
s 32
f 3/15/5 2/16/5 9/17/5 
f 9/17/5 6/18/5 3/15/5 
s 64
f 2/19/6 1/20/6 10/21/6 
f 10/21/6 9/22/6 2/19/6 
s off
f 11/23/6 12/24/6 13/25/6 
f 13/25/6 14/26/6 11/23/6 
f 7/7/7 4/10/7 11/27/7 
f 11/27/7 14/28/7 7/7/7 
f 15/29/2 16/30/2 17/31/2 
f 17/31/2 18/32/2 15/29/2 
f 10/33/8 1/34/8 13/35/8 
f 13/35/8 12/36/8 10/33/8 
f 19/37/1 20/38/1 21/39/1 
f 21/39/1 22/40/1 19/37/1 
s 4
f 6/41/2 9/42/2 10/43/2 
f 16/44/2 15/45/2 23/46/2 
s 2
f 24/47/1 20/48/1 19/49/1 
f 3/50/1 8/51/1 7/52/1 
s off
f 12/53/9 11/54/9 18/55/9 
f 18/55/9 17/56/9 12/53/9 
f 11/57/10 4/58/10 15/59/10 
f 15/59/10 18/60/10 11/57/10 
f 4/61/11 6/62/11 23/63/11 
f 23/63/11 15/64/11 4/61/11 
f 6/65/12 10/66/12 16/67/12 
f 16/67/12 23/68/12 6/65/12 
f 10/33/13 12/36/13 17/69/13 
f 17/69/13 16/70/13 10/33/13 
f 14/71/14 13/72/14 22/73/14 
f 22/73/14 21/74/14 14/71/14 
f 13/35/15 1/34/15 19/75/15 
f 19/75/15 22/76/15 13/35/15 
f 1/77/16 3/78/16 24/79/16 
f 24/79/16 19/80/16 1/77/16 
f 3/81/17 7/82/17 20/83/17 
f 20/83/17 24/84/17 3/81/17 
f 7/85/18 14/86/18 21/87/18 
f 21/87/18 20/88/18 7/85/18 
# 44 faces

